<svg xmlns="http://www.w3.org/2000/svg" width="610" height="411.088" viewBox="0 0 610 411.088">
  <g id="how-we-work" transform="translate(-84.958 0)">
    <path id="Path_3550" data-name="Path 3550" d="M165.62,250.311q52.39-.911,104.792-.262t104.753,2.873q29.381,1.246,58.737,2.985c1.572.093,1.567-2.353,0-2.446q-52.307-3.1-104.689-4.632t-104.781-1.5q-29.407.02-58.811.533a1.224,1.224,0,0,0,0,2.446Z" transform="translate(-57.021 -206.582)" fill="#273a57"/>
    <path id="Path_3551" data-name="Path 3551" d="M464.156,231.363l15.272-1.137c1.56-.116,1.573-2.563,0-2.446l-15.272,1.137C462.6,229.033,462.583,231.48,464.156,231.363Z" transform="translate(-112.259 -202.97)" fill="#273a57"/>
    <path id="Path_3552" data-name="Path 3552" d="M464.156,249.363l15.272-1.137c1.56-.116,1.573-2.563,0-2.446l-15.272,1.137C462.6,247.033,462.583,249.48,464.156,249.363Z" transform="translate(-112.259 -206.294)" fill="#273a57"/>
    <path id="Path_3553" data-name="Path 3553" d="M1.01,2.452,19.725,4.424c1.351.142,1.342-2.3,0-2.446L1.01.006C-.341-.136-.332,2.31,1.01,2.452Z" transform="translate(349.396 35.397) rotate(-7)" fill="#273a57"/>
    <path id="Path_3554" data-name="Path 3554" d="M175.726,228.141a5.41,5.41,0,0,0-5,3.266,4.871,4.871,0,0,0,1.121,5.785,5.791,5.791,0,0,0,5.486,1.115,4.894,4.894,0,0,0,3.28-4.6,5.469,5.469,0,0,0-3.407-5.274,1.228,1.228,0,0,0-1.5.854,1.258,1.258,0,0,0,.854,1.5c.213.082-.195-.1,0,0,.082.045.165.085.246.132s.134.085.2.128c.228.149-.111-.109.034.025.127.116.252.23.367.358.043.048.214.183.081.089-.1-.072-.039-.055,0,0s.061.087.09.131a4.366,4.366,0,0,1,.26.449c.018.036.034.072.053.108.034.067.084.084,0,0s-.028-.074,0,0c.018.05.038.1.055.151a4.712,4.712,0,0,1,.144.5c.018.079.032.158.048.237.055.281-.008-.175.005.034.011.174.024.347.021.521q0,.12-.01.24c0,.04-.007.08-.01.119-.013.192-.013-.07.014-.088a2.258,2.258,0,0,0-.111.5c-.022.076-.048.15-.072.226-.085.262.08-.143-.011.036a4.468,4.468,0,0,1-.25.448c-.04.061-.19.2-.067.1s-.07.075-.113.12-.114.115-.173.17a1.393,1.393,0,0,1-.121.105c-.008,0,.2-.142.09-.069-.145.093-.283.192-.436.273-.018.009-.214.1-.213.1-.008-.033.252-.092.073-.034-.038.012-.074.027-.112.039a3.991,3.991,0,0,1-.5.132c-.039.008-.079.012-.117.021-.126.033.121-.019.128-.015a1.067,1.067,0,0,0-.278.025,4.544,4.544,0,0,1-.521,0l-.12-.009c-.093-.005-.162-.073-.038,0,.1.056.088.015,0,0l-.119-.021a4.738,4.738,0,0,1-.509-.125c-.09-.027-.178-.059-.267-.09a.709.709,0,0,1-.113-.043c0-.01.229.11.108.044-.153-.082-.311-.151-.46-.241-.08-.048-.156-.1-.233-.152a.752.752,0,0,1-.1-.069c0-.01.19.163.091.069-.124-.118-.257-.224-.375-.35-.027-.029-.052-.059-.079-.088l-.026-.03q-.1-.122,0,0c.065.019.062.09,0,0-.022-.033-.045-.065-.067-.1a2.555,2.555,0,0,1-.253-.451c.006,0,.106.294.029.069-.014-.043-.031-.085-.045-.127q-.042-.127-.074-.257c-.021-.086-.032-.174-.053-.26-.036-.144.021.114.015.107s-.012-.145-.013-.175c-.01-.192.012-.378.015-.569,0-.148-.012.115-.015.107a.414.414,0,0,1,.023-.13c.022-.1.043-.2.07-.3s.067-.226.107-.338c.015-.042.034-.083.048-.124.051-.154-.1.185-.017.047.116-.191.2-.4.327-.585.029-.045.207-.293.113-.168s.1-.112.133-.152c.15-.167.326-.3.482-.464.092-.095-.064.047-.073.053.048-.034.1-.07.144-.1q.127-.088.261-.166c.1-.059.214-.1.311-.165.115-.074-.088.032-.091.034a.909.909,0,0,1,.164-.062c.095-.034.507-.211.593-.156,0,0-.313.025-.063.009.059,0,.118-.01.177-.012.12,0,.239,0,.358,0a1.231,1.231,0,0,0,1.223-1.223,1.25,1.25,0,0,0-1.223-1.223Z" transform="translate(-58.089 -203.038)" fill="#273a57"/>
    <path id="Path_3555" data-name="Path 3555" d="M196.726,228.141a5.41,5.41,0,0,0-5,3.266,4.871,4.871,0,0,0,1.121,5.785,5.791,5.791,0,0,0,5.486,1.115,4.894,4.894,0,0,0,3.28-4.6,5.469,5.469,0,0,0-3.407-5.274,1.228,1.228,0,0,0-1.5.854,1.258,1.258,0,0,0,.854,1.5c.213.082-.195-.1,0,0,.082.045.165.085.246.132s.134.085.2.128c.228.149-.111-.109.034.025.127.116.252.23.367.358.044.048.214.183.081.089-.1-.072-.039-.055,0,0s.061.087.09.131a4.363,4.363,0,0,1,.26.449c.018.036.034.072.053.108.034.067.084.084,0,0s-.028-.074,0,0c.018.05.038.1.055.151a4.712,4.712,0,0,1,.144.5c.018.079.032.158.048.237.055.281-.008-.175.005.034.011.174.024.347.021.521q0,.12-.01.24c0,.04-.007.08-.01.119-.013.192-.013-.07.014-.088a2.258,2.258,0,0,0-.111.5c-.022.076-.048.15-.072.226-.085.262.08-.143-.011.036a4.471,4.471,0,0,1-.25.448c-.04.061-.19.2-.067.1s-.07.075-.113.12-.114.115-.173.17a1.393,1.393,0,0,1-.121.105c-.008,0,.2-.142.09-.069-.145.093-.283.192-.436.273-.018.009-.214.1-.213.1-.008-.033.252-.092.073-.034-.038.012-.074.027-.112.039a3.993,3.993,0,0,1-.5.132c-.039.008-.079.012-.117.021-.126.033.121-.019.128-.015a1.067,1.067,0,0,0-.278.025,4.544,4.544,0,0,1-.521,0l-.12-.009c-.093-.005-.162-.073-.038,0,.1.056.088.015,0,0l-.119-.021a4.736,4.736,0,0,1-.509-.125c-.09-.027-.178-.059-.267-.09a.709.709,0,0,1-.113-.043c0-.01.229.11.108.044-.153-.082-.311-.151-.46-.241-.08-.048-.156-.1-.233-.152a.752.752,0,0,1-.1-.069c0-.01.19.163.091.069-.124-.118-.257-.224-.375-.35-.027-.029-.052-.059-.079-.088l-.026-.03q-.1-.122,0,0c.065.019.062.09,0,0-.022-.033-.045-.065-.067-.1a2.556,2.556,0,0,1-.253-.451c.006,0,.106.294.029.069-.014-.043-.031-.085-.045-.127q-.042-.127-.074-.257c-.021-.086-.032-.174-.053-.26-.036-.144.021.114.015.107s-.012-.145-.013-.175c-.01-.192.012-.378.015-.569,0-.148-.012.115-.015.107a.414.414,0,0,1,.023-.13c.022-.1.043-.2.07-.3s.067-.226.107-.338c.015-.042.034-.083.048-.124.051-.154-.1.185-.017.047.116-.191.2-.4.327-.585.029-.045.207-.293.113-.168s.1-.112.133-.152c.15-.167.326-.3.482-.464.092-.095-.064.047-.073.053.048-.034.1-.07.144-.1q.127-.088.261-.166c.1-.059.214-.1.311-.165.115-.074-.088.032-.091.034a.909.909,0,0,1,.164-.062c.095-.034.507-.211.593-.156,0,0-.313.025-.063.009.059,0,.118-.01.177-.012.12,0,.239,0,.358,0a1.231,1.231,0,0,0,1.223-1.223,1.25,1.25,0,0,0-1.223-1.223Z" transform="translate(-61.967 -203.038)" fill="#273a57"/>
    <path id="Path_3556" data-name="Path 3556" d="M217.726,228.141a5.41,5.41,0,0,0-5,3.266,4.871,4.871,0,0,0,1.121,5.785,5.791,5.791,0,0,0,5.486,1.115,4.894,4.894,0,0,0,3.28-4.6,5.469,5.469,0,0,0-3.407-5.274,1.228,1.228,0,0,0-1.5.854,1.258,1.258,0,0,0,.854,1.5c.213.082-.195-.1,0,0,.082.045.165.085.246.132s.134.085.2.128c.228.149-.111-.109.034.025.127.116.252.23.367.358.043.048.214.183.081.089-.1-.072-.039-.055,0,0s.061.087.09.131a4.355,4.355,0,0,1,.26.449c.018.036.034.072.053.108.034.067.084.084,0,0s-.028-.074,0,0c.018.05.038.1.055.151a4.712,4.712,0,0,1,.144.5c.018.079.032.158.048.237.055.281-.008-.175.005.034.011.174.024.347.021.521q0,.12-.01.24c0,.04-.007.08-.01.119-.013.192-.013-.07.014-.088a2.258,2.258,0,0,0-.111.5c-.022.076-.048.15-.072.226-.085.262.08-.143-.011.036a4.471,4.471,0,0,1-.25.448c-.04.061-.19.2-.067.1s-.07.075-.113.12-.114.115-.173.17a1.393,1.393,0,0,1-.121.105c-.008,0,.2-.142.09-.069-.145.093-.283.192-.436.273-.018.009-.214.1-.213.1-.008-.033.252-.092.073-.034-.038.012-.074.027-.112.039a3.992,3.992,0,0,1-.5.132c-.039.008-.079.012-.117.021-.126.033.121-.019.128-.015a1.067,1.067,0,0,0-.278.025,4.545,4.545,0,0,1-.521,0l-.12-.009c-.093-.005-.162-.073-.038,0,.1.056.088.015,0,0l-.119-.021a4.737,4.737,0,0,1-.509-.125c-.09-.027-.178-.059-.267-.09a.708.708,0,0,1-.113-.043c0-.01.229.11.108.044-.153-.082-.311-.151-.46-.241-.08-.048-.156-.1-.233-.152a.753.753,0,0,1-.1-.069c0-.01.19.163.091.069-.124-.118-.257-.224-.375-.35-.027-.029-.052-.059-.079-.088l-.026-.03q-.1-.122,0,0c.065.019.062.09,0,0-.022-.033-.045-.065-.067-.1a2.553,2.553,0,0,1-.253-.451c.006,0,.106.294.03.069-.014-.043-.031-.085-.045-.127q-.042-.127-.074-.257c-.021-.086-.032-.174-.053-.26-.036-.144.021.114.014.107s-.012-.145-.013-.175c-.01-.192.012-.378.015-.569,0-.148-.012.115-.015.107a.414.414,0,0,1,.023-.13c.022-.1.043-.2.07-.3s.067-.226.107-.338c.015-.042.034-.083.048-.124.051-.154-.1.185-.017.047.116-.191.2-.4.327-.585.029-.045.207-.293.113-.168s.1-.112.133-.152c.15-.167.326-.3.482-.464.092-.095-.064.047-.073.053.048-.034.1-.07.144-.1q.127-.088.261-.166c.1-.059.214-.1.311-.165.115-.074-.088.032-.091.034a.91.91,0,0,1,.164-.062c.095-.034.507-.211.593-.156,0,0-.313.025-.063.009.059,0,.118-.01.177-.012.12,0,.239,0,.358,0a1.231,1.231,0,0,0,1.223-1.223,1.25,1.25,0,0,0-1.223-1.223Z" transform="translate(-65.845 -203.038)" fill="#273a57"/>
    <path id="Path_3557" data-name="Path 3557" d="M451.167,493.319H151.2a14.323,14.323,0,0,1-14.307-14.307V211.659A14.323,14.323,0,0,1,151.2,197.352H451.167a14.323,14.323,0,0,1,14.307,14.307V479.012A14.323,14.323,0,0,1,451.167,493.319ZM151.2,198.983a12.691,12.691,0,0,0-12.676,12.676V479.012A12.691,12.691,0,0,0,151.2,491.688H451.167a12.691,12.691,0,0,0,12.676-12.676V211.659a12.691,12.691,0,0,0-12.676-12.676Z" transform="translate(-51.934 -197.352)" fill="#273a57"/>
    <path id="Path_3558" data-name="Path 3558" d="M153.563,419.718l105.487-.321L364,419.078l59.2-.18a1.224,1.224,0,0,0,0-2.446l-105.487.321-104.949.319-59.2.18a1.224,1.224,0,0,0,0,2.446Z" transform="translate(-54.795 -237.883)" fill="#273a57"/>
    <path id="Path_3559" data-name="Path 3559" d="M218.546,409.036l.652-38.514a1.224,1.224,0,0,0-2.446,0l-.652,38.514A1.224,1.224,0,0,0,218.546,409.036Z" transform="translate(-66.561 -229.173)" fill="#e6e6e6"/>
    <path id="Path_3560" data-name="Path 3560" d="M280.382,404.173l1.59-48.41.454-13.831c.052-1.574-2.394-1.573-2.446,0l-1.59,48.41-.454,13.831C277.884,405.747,280.33,405.745,280.382,404.173Z" transform="translate(-77.98 -223.887)" fill="#273a57"/>
    <path id="Path_3561" data-name="Path 3561" d="M341.767,313.786c-.959,17.147-2.733,67.722-3.692,84.868-.088,1.573,2.358,1.568,2.446,0,.959-17.147,2.733-67.722,3.692-84.868C344.3,312.214,341.855,312.218,341.767,313.786Z" transform="translate(-89.15 -218.683)" fill="#273a57"/>
    <path id="Path_3562" data-name="Path 3562" d="M403.908,394.485l-.3,16.481a1.224,1.224,0,0,0,2.446,0c.354-19.465,1.262-18.83,1.362-24.324a1.224,1.224,0,0,0-2.446,0S404.262,375.021,403.908,394.485Z" transform="translate(-142.024 -231.736)" fill="#273a57"/>
    <path id="Path_3563" data-name="Path 3563" d="M464.088,343.673l.277,46.237.079,13.24a1.224,1.224,0,0,0,2.446,0l-.277-46.237-.079-13.24a1.224,1.224,0,0,0-2.446,0Z" transform="translate(-153.212 -224.209)" fill="#273a57"/>
    <path id="Path_3564" data-name="Path 3564" d="M153.471,400.149c-2.071-5.564,2.6-10.915,7.393-13.32,5.746-2.881,12.356-3.534,18.163-6.311,8.657-4.14,14.963-11.571,20.574-19.009,5.775-7.655,11.059-15.872,18.4-22.232a37.057,37.057,0,0,1,13.4-7.582,47.189,47.189,0,0,1,19.354-1.271c13.357,1.59,25.739,6.984,38.627,10.413,12.151,3.232,25.539,5.05,37.465.024,6.059-2.554,11.015-6.837,16.337-10.544a54.979,54.979,0,0,1,17.017-8.027,51.654,51.654,0,0,1,36.193,3.117A47.957,47.957,0,0,1,419.3,349.047c5.284,12.343,4.6,26.136,2.87,39.128-.446,3.358-.977,6.705-1.514,10.05-.247,1.54,2.163,2.2,2.412.65,2.15-13.4,4.292-27.217,1.618-40.7a49.14,49.14,0,0,0-18.621-29.659,52.535,52.535,0,0,0-34.114-10.527,57.009,57.009,0,0,0-18.74,4.075c-6.187,2.5-11.425,6.211-16.747,10.113-5.471,4.012-11.111,7.331-17.9,8.64-6.589,1.269-13.443.793-20-.4-13.535-2.473-26.152-8.141-39.572-11.046-12.434-2.691-25.851-2.96-36.986,3.909-8.565,5.283-14.617,13.486-20.425,21.406-5.757,7.851-11.587,16.246-20.006,21.609-5.135,3.271-10.908,4.479-16.653,6.318s-11.289,4.956-13.637,10.726a10.216,10.216,0,0,0-.218,7.464c.546,1.468,2.965.834,2.412-.65Z" transform="translate(-54.439 -219.668)" fill="#273a57"/>
    <path id="Path_3565" data-name="Path 3565" d="M86.17,166.9l0,0,.007,0Z" transform="translate(65.004 -30.875)" fill="#e6e6e6"/>
    <path id="Path_3566" data-name="Path 3566" d="M221.242,360.938a4.861,4.861,0,0,0-5.889-2.18,4.278,4.278,0,0,0-2.437,2.269c-.047.111-.074.228-.112.341-.053.086-.117.163-.164.253a4.858,4.858,0,0,0,7.575,5.8,5.231,5.231,0,0,0,1.028-6.487Zm-3.063,2.077C218.188,363.077,218.185,363.134,218.178,363.015Zm-.311-.708Zm-1.372.552C216.476,362.831,216.474,362.826,216.494,362.859Zm.325.276C216.9,363.161,216.866,363.156,216.82,363.135Zm.145.069.032-.015a.041.041,0,0,1-.023,0h0l.025,0,0,0-.015,0c.013,0,.014,0,.015,0,.146-.067.047-.035-.037-.008h-.006a.556.556,0,0,0-.168-.054l-.016-.008c-.047-.033-.283-.218-.064-.024-.048-.042-.1-.084-.14-.129a.637.637,0,0,1-.072-.088q-.043-.074-.084-.15l0-.027c0-.023-.006-.032-.009-.045s0-.029.006-.044a.528.528,0,0,0,.031-.137l.009-.012c.035-.049.066-.106.1-.157-.177.269.069-.03.088-.068,0-.006,0,0,0-.007s0,0,.014-.006c.055-.032.107-.068.163-.1s.328-.111.057-.034c.062-.018.121-.04.183-.056.011,0,.1-.016.152-.025l.09,0,.061,0c-.045.006.155.049.214.058l.025.02c.05.037.111.069.164.1-.237-.153,0,.012.048.057.027.027.052.056.077.084a.66.66,0,0,1,.063.086c.039.071.08.143.121.213l.011.018s0,0,0,.007a1.932,1.932,0,0,0,.094.333.271.271,0,0,1,0,.028c0,.062.009.124.009.186v.013a1.34,1.34,0,0,0-1.222-.009Z" transform="translate(-65.827 -227.157)" fill="#273a57"/>
    <path id="Path_3567" data-name="Path 3567" d="M218.115,364.255s0,0,0,0Z" transform="translate(-66.933 -228.227)" fill="#e6e6e6"/>
    <path id="Path_3568" data-name="Path 3568" d="M218.113,364.255h0Z" transform="translate(-66.933 -228.227)" fill="#e6e6e6"/>
    <path id="Path_3569" data-name="Path 3569" d="M218.113,364.257h0Z" transform="translate(-66.932 -228.227)" fill="#e6e6e6"/>
    <path id="Path_3570" data-name="Path 3570" d="M86.177,166.9Z" transform="translate(65.002 -30.874)" fill="#e6e6e6"/>
    <path id="Path_3571" data-name="Path 3571" d="M150.17,138.9l0,0,.007,0Z" transform="translate(53.185 -25.695)" fill="#e6e6e6"/>
    <path id="Path_3572" data-name="Path 3572" d="M285.242,332.938a4.861,4.861,0,0,0-5.889-2.18,4.278,4.278,0,0,0-2.437,2.269c-.047.111-.074.228-.112.341-.053.086-.117.163-.164.253a4.858,4.858,0,0,0,7.575,5.8A5.231,5.231,0,0,0,285.242,332.938Zm-3.063,2.077C282.188,335.077,282.185,335.134,282.178,335.015Zm-.311-.708Zm-1.372.552C280.476,334.831,280.474,334.826,280.494,334.859Zm.325.276C280.9,335.161,280.866,335.156,280.82,335.135Zm.145.069.032-.015a.041.041,0,0,1-.023,0h0l.025,0,0,0-.015,0c.013,0,.014,0,.015,0,.146-.067.047-.035-.037-.008h-.006a.556.556,0,0,0-.168-.054l-.016-.008c-.047-.033-.284-.218-.064-.024-.048-.042-.1-.084-.14-.129a.638.638,0,0,1-.072-.088q-.043-.074-.084-.15l0-.027c0-.023-.006-.032-.009-.045s0-.029.006-.044a.528.528,0,0,0,.031-.137l.009-.012c.035-.049.066-.106.1-.157-.177.269.069-.03.088-.068,0-.006,0,0,0-.007s0,0,.014-.006c.055-.032.107-.068.163-.1s.328-.111.057-.034c.062-.018.121-.04.183-.056.011,0,.1-.016.152-.025l.09,0,.061,0c-.045.006.155.049.214.058l.025.02c.05.037.111.069.164.1-.237-.153,0,.012.048.057.027.027.052.056.077.084a.659.659,0,0,1,.063.086c.039.071.08.143.121.213l.011.018a.058.058,0,0,0,0,.007,1.934,1.934,0,0,0,.094.332.272.272,0,0,1,0,.028c0,.062.009.124.009.186v.013a1.34,1.34,0,0,0-1.222-.009Z" transform="translate(-77.69 -221.977)" fill="#273a57"/>
    <path id="Path_3573" data-name="Path 3573" d="M282.113,336.257h0Z" transform="translate(-78.751 -223.047)" fill="#e6e6e6"/>
    <path id="Path_3574" data-name="Path 3574" d="M150.177,138.9Z" transform="translate(53.183 -25.695)" fill="#e6e6e6"/>
    <path id="Path_3575" data-name="Path 3575" d="M282.115,336.255s0,0,0,0Z" transform="translate(-78.751 -223.047)" fill="#e6e6e6"/>
    <path id="Path_3576" data-name="Path 3576" d="M282.113,336.255h0Z" transform="translate(-78.751 -223.047)" fill="#e6e6e6"/>
    <path id="Path_3577" data-name="Path 3577" d="M212.177,152.9Z" transform="translate(41.668 -28.285)" fill="#e6e6e6"/>
    <path id="Path_3578" data-name="Path 3578" d="M347.242,304.938a4.861,4.861,0,0,0-5.889-2.18,4.278,4.278,0,0,0-2.437,2.269c-.047.111-.074.228-.112.341-.053.086-.117.163-.164.253a4.858,4.858,0,0,0,7.575,5.8A5.231,5.231,0,0,0,347.242,304.938Zm-3.063,2.077C344.188,307.077,344.185,307.134,344.178,307.015Zm-.311-.708Zm-1.372.552C342.476,306.831,342.474,306.826,342.494,306.859Zm.325.276C342.9,307.161,342.866,307.156,342.82,307.135Zm.145.069.032-.015a.041.041,0,0,1-.023,0h0l.025,0,0,0-.015,0c.013,0,.014,0,.015,0,.146-.067.047-.035-.037-.008h-.006a.556.556,0,0,0-.168-.054l-.016-.008c-.047-.033-.284-.218-.064-.024-.048-.042-.1-.084-.14-.129a.64.64,0,0,1-.072-.088q-.043-.074-.084-.15l0-.027c0-.023-.006-.032-.009-.045s0-.029.006-.044a.53.53,0,0,0,.031-.137l.009-.012c.035-.049.066-.106.1-.157-.177.269.069-.03.088-.068,0-.006,0,0,0-.007s0,0,.014-.006c.055-.032.107-.068.163-.1s.328-.111.057-.034c.062-.018.121-.04.183-.056.011,0,.1-.016.152-.025l.09,0,.061,0c-.045.006.155.049.214.058l.025.02c.05.037.111.069.164.1-.237-.153,0,.012.048.057.027.027.052.056.077.084a.662.662,0,0,1,.063.086c.039.071.08.143.121.213l.011.018a.058.058,0,0,0,0,.007,1.933,1.933,0,0,0,.094.332.275.275,0,0,1,0,.028c0,.062.009.124.009.186v.013a1.34,1.34,0,0,0-1.222-.009Z" transform="translate(-89.16 -216.798)" fill="#273a57"/>
    <path id="Path_3579" data-name="Path 3579" d="M212.17,152.9l0,0,.007,0Z" transform="translate(41.67 -28.285)" fill="#e6e6e6"/>
    <path id="Path_3580" data-name="Path 3580" d="M344.113,350.255h0Z" transform="translate(-90.267 -225.637)" fill="#e6e6e6"/>
    <path id="Path_3581" data-name="Path 3581" d="M344.113,350.257h0Z" transform="translate(-90.266 -225.637)" fill="#e6e6e6"/>
    <path id="Path_3582" data-name="Path 3582" d="M344.115,350.255s0,0,0,0Z" transform="translate(-90.267 -225.637)" fill="#e6e6e6"/>
    <path id="Path_3583" data-name="Path 3583" d="M410.242,381.938a4.861,4.861,0,0,0-5.889-2.18,4.278,4.278,0,0,0-2.437,2.269c-.047.111-.074.228-.112.341-.053.086-.117.163-.164.253a4.857,4.857,0,0,0,7.575,5.8,5.231,5.231,0,0,0,1.028-6.487Zm-3.063,2.077C407.188,384.077,407.185,384.134,407.178,384.015Zm-.311-.708Zm-1.372.552C405.476,383.831,405.474,383.826,405.494,383.859Zm.325.276C405.9,384.161,405.866,384.156,405.82,384.135Zm.145.069.032-.015a.041.041,0,0,1-.023,0h0l.025,0,0,0-.015,0c.013,0,.014,0,.015,0,.146-.067.047-.035-.037-.008h-.006a.556.556,0,0,0-.168-.054l-.016-.008c-.047-.033-.284-.218-.064-.024-.048-.042-.1-.084-.14-.129a.64.64,0,0,1-.072-.088q-.043-.074-.084-.15l0-.027c0-.023-.006-.032-.009-.045s0-.029.006-.044a.527.527,0,0,0,.031-.137l.009-.012c.035-.049.066-.106.1-.157-.177.269.069-.03.088-.068,0-.006,0,0,0-.007s0,0,.014-.006c.055-.032.107-.068.163-.1s.328-.111.057-.034c.062-.018.121-.04.183-.056.011,0,.1-.016.152-.025l.09,0,.061,0c-.045.006.155.049.214.058l.025.02c.05.037.111.069.164.1-.237-.153,0,.012.048.057.027.027.052.056.077.084a.66.66,0,0,1,.063.086c.039.071.08.143.121.213l.011.018a.057.057,0,0,0,0,.007,1.93,1.93,0,0,0,.094.332.272.272,0,0,1,0,.028c0,.062.009.124.009.186v.013a1.34,1.34,0,0,0-1.222-.009Z" transform="translate(-141.565 -231.042)" fill="#273a57"/>
    <path id="Path_3584" data-name="Path 3584" d="M275.17,121.9l0,0,.007,0Z" transform="translate(30.016 -22.551)" fill="#e6e6e6"/>
    <path id="Path_3585" data-name="Path 3585" d="M407.113,319.255h0Z" transform="translate(-101.921 -219.902)" fill="#e6e6e6"/>
    <path id="Path_3586" data-name="Path 3586" d="M407.113,319.257h0Z" transform="translate(-101.92 -219.903)" fill="#e6e6e6"/>
    <path id="Path_3587" data-name="Path 3587" d="M407.115,319.255s0,0,0,0Z" transform="translate(-101.921 -219.902)" fill="#e6e6e6"/>
    <path id="Path_3588" data-name="Path 3588" d="M275.177,121.9Z" transform="translate(30.014 -22.55)" fill="#e6e6e6"/>
    <path id="Path_3589" data-name="Path 3589" d="M466.113,339.255h0Z" transform="translate(-112.835 -223.602)" fill="#e6e6e6"/>
    <path id="Path_3590" data-name="Path 3590" d="M469.242,335.938a4.861,4.861,0,0,0-5.889-2.18,4.278,4.278,0,0,0-2.437,2.269c-.047.111-.074.228-.112.341-.053.086-.117.163-.164.253a4.858,4.858,0,0,0,7.575,5.8,5.231,5.231,0,0,0,1.028-6.487Zm-3.063,2.077C466.188,338.077,466.185,338.134,466.178,338.015Zm-.311-.708Zm-1.372.552C464.476,337.831,464.474,337.826,464.494,337.859Zm.325.276C464.9,338.161,464.866,338.156,464.82,338.135Zm.145.069.032-.015a.041.041,0,0,1-.023,0h0l.025,0,0,0-.015,0c.013,0,.014,0,.015,0,.146-.067.047-.035-.037-.008h-.006a.556.556,0,0,0-.168-.054l-.016-.008c-.047-.033-.284-.218-.064-.024-.048-.042-.1-.084-.14-.129a.637.637,0,0,1-.072-.088q-.043-.074-.084-.15l0-.027c0-.023-.006-.032-.009-.045s0-.029.006-.044a.53.53,0,0,0,.031-.137l.009-.012c.035-.049.066-.106.1-.157-.177.269.069-.03.088-.068,0-.006,0,0,0-.007s0,0,.014-.006c.055-.032.107-.068.163-.1s.328-.111.057-.034c.062-.018.121-.04.183-.056.011,0,.1-.016.152-.025l.09,0,.061,0c-.045.006.155.049.214.058l.025.02c.05.037.111.069.164.1-.237-.153,0,.012.048.057.027.027.052.056.077.084a.66.66,0,0,1,.063.086c.039.071.08.143.121.213l.011.018a.058.058,0,0,0,0,.007,1.934,1.934,0,0,0,.094.332c0,.009,0,.018,0,.028,0,.062.009.124.009.186v.013a1.34,1.34,0,0,0-1.222-.009Z" transform="translate(-152.479 -222.532)" fill="#273a57"/>
    <path id="Path_3591" data-name="Path 3591" d="M334.17,141.9l0,0,.007,0Z" transform="translate(19.102 -26.25)" fill="#e6e6e6"/>
    <path id="Path_3592" data-name="Path 3592" d="M334.177,141.9Z" transform="translate(19.1 -26.25)" fill="#e6e6e6"/>
    <path id="Path_3593" data-name="Path 3593" d="M466.115,339.255s0,0,0,0Z" transform="translate(-112.835 -223.602)" fill="#e6e6e6"/>
    <path id="Path_3594" data-name="Path 3594" d="M466.113,339.257h0Z" transform="translate(-112.834 -223.602)" fill="#e6e6e6"/>
    <path id="Path_3595" data-name="Path 3595" d="M441.152,383.758l-37.911,2.107a.836.836,0,0,1-.181-1.66l38.749-6.305Z" transform="translate(-141.797 -230.752)" fill="#fff"/>
    <path id="Path_3596" data-name="Path 3596" d="M507.9,483.157l14.286-24.035,10.559,4.987s-18.194,22.725-18.774,23.379a5.591,5.591,0,1,1-6.071-4.331Z" transform="translate(-160.401 -245.783)" fill="#ffb6b6"/>
    <path id="Path_3597" data-name="Path 3597" d="M515.726,420.126,538.871,432.2a12.814,12.814,0,0,1,2.169,18.817l-15.956,18.3-6.951-9.419,5.358-11.2-10.374-2.736Z" transform="translate(-162.286 -238.571)" fill="#0b2d61"/>
    <path id="Path_3598" data-name="Path 3598" d="M432.185,383.223l-2.607,27.838-11.677.019s6.7-28.33,6.943-29.169a5.591,5.591,0,1,1,7.341,1.311Z" transform="translate(-144.669 -229.827)" fill="#ffb6b6"/>
    <path id="Path_3599" data-name="Path 3599" d="M454.583,445.338l-26.877-4.929c-11.318-1.361-15.963-8.808-13.921-16.072l6.572-23.376,10.317,5.531-.04,12.418,14.442-1.974Z" transform="translate(-143.825 -235.025)" fill="#0b2d61"/>
    <path id="Path_3600" data-name="Path 3600" d="M316.031,487.536h-7.39l-3.516-28.506h10.908Z" transform="translate(-16.278 -84.928)" fill="#ffb6b6"/>
    <path id="Path_3601" data-name="Path 3601" d="M445.608,698.018H422.882v-.287a8.846,8.846,0,0,1,8.845-8.845h0l4.151-3.149,7.745,3.15h1.984Z" transform="translate(-145.591 -287.7)" fill="#273a57"/>
    <path id="Path_3602" data-name="Path 3602" d="M382.636,487.536h7.39l3.516-28.506H382.634Z" transform="translate(-30.617 -84.928)" fill="#ffb6b6"/>
    <path id="Path_3603" data-name="Path 3603" d="M514.251,698.018h22.726v-.287a8.846,8.846,0,0,0-8.845-8.845h0l-4.151-3.149-7.745,3.15H514.25Z" transform="translate(-162.494 -287.7)" fill="#273a57"/>
    <path id="Path_3604" data-name="Path 3604" d="M436.658,609.5c.109-1.627.977-10.622.977-10.622l2.079-19.077,3.664-50.569,3.266-13.292,16.165,6.3,13.116-6.288,15.59,4.984,12.139,4.552s.021,1.949.114,4.3c.125,3.082.343,6.86.863,7.842.868,1.736.65,11.053.65,11.053s.863,18.957,1.949,21.036a14.439,14.439,0,0,1,.977,7.275c-.327.868,1.086,23.634,1.086,23.634s3.628,40.288,1.352,46.363-10.877,2.1-10.877,2.1.416-1.621-2.079-2.385S487.6,588.812,487.6,588.812s-1.413-11.713-2.713-15.07-2.494-12.789-2.494-12.789-8.024-15.611-8.128-19.082c0,0-1.05-3.248-2.042.327s-3.918,12.139-3.918,12.139l-2.853,10.518L462.09,580.57,459.918,593.8s-3.253,17.559-3.773,18.318,0,16.8,0,16.8-2.515,13.662-6.07,16.047S437.1,645,437.1,645,436.549,611.127,436.658,609.5Z" transform="translate(-148.145 -256.346)" fill="#273a57"/>
    <path id="Path_3605" data-name="Path 3605" d="M449.147,453.5l-2.065,26.758-3.1,3.212a2.993,2.993,0,0,0,.157,4.31h0l-1.71,2.932-.605,9.238a5.021,5.021,0,0,0,4.647,6.188l53.512,2.514a5.021,5.021,0,0,0,5.213-5.677l-4.55-34.256v-2.561l-2.037-4.947,1.047-16.571,2.435-26.3-14.156-3.657-7.675-5.281-13.335.212-8.091,6.645-10.788,1.689-8.159,1.622-1.039,2.259,2.079-.452,7.534,29.386Z" transform="translate(-148.551 -236.599)" fill="#0b2d61"/>
    <circle id="Ellipse_262" data-name="Ellipse 262" cx="15.708" cy="15.708" r="15.708" transform="translate(309.029 137.828)" fill="#ffb6b6"/>
    <path id="Path_3606" data-name="Path 3606" d="M472.387,396.107l11.349-.579c1.454-.074,3.041-.2,4.1-1.2a6.21,6.21,0,0,0,1.286-2.137c1.049-2.437,2.1-4.874,3.121-7.323,1.414-3.387,2.8-6.963,2.442-10.615a6.755,6.755,0,0,0-1.964-4.428,3.75,3.75,0,0,0-4.558-.462,7.707,7.707,0,0,0-3.826-5.554,11.811,11.811,0,0,0-6.736-1.428,16.259,16.259,0,0,0-9.259,3.649,20.1,20.1,0,0,1-2.362,1.872,3.708,3.708,0,0,1-2.883.533,2.086,2.086,0,0,1-1.532-2.274,4.014,4.014,0,0,0-1.027,5.3,3.7,3.7,0,0,1-3.62-.428,4.426,4.426,0,1,0,4.642,7.492c.689.965.432,2.276.343,3.458s.227,2.651,1.367,2.978c1.541.442,2.788-1.633,4.391-1.611a2.41,2.41,0,0,1,1.911,1.231,7.113,7.113,0,0,1,.765,2.233l2.051,9.233" transform="translate(-151.436 -227.876)" fill="#232323"/>
    <path id="Path_3607" data-name="Path 3607" d="M955.308,573.014c0-2.432-.817-4.407-1.82-4.411H680.071c-1.008,0-1.82,1.979-1.824,4.411V673.145a.909.909,0,0,1-.821.9q-1.1.106-2.2.2c-.018,0-.036,0-.055,0-.4.036-.8.064-1.2.1h0q-.308-.57-.609-1.149a.912.912,0,0,1-.1-.422V567.291c0-.672.027-1.348.073-2.015a25.82,25.82,0,0,1,.34-2.732c.767-4.216,2.5-7.07,4.47-7.08h277.28a2.126,2.126,0,0,1,.835.177,3.255,3.255,0,0,1,1.03.722,6.383,6.383,0,0,1,1.012,1.384,18.218,18.218,0,0,1,1.911,7.229c0,.027,0,.054,0,.082.064.735.1,1.484.091,2.233l.063,9.725.041,5.8.122,18.2.045,6.462.2,66.348h0a.908.908,0,0,1-.908.908h-3.649a.908.908,0,0,1-.908-.908Z" transform="translate(-271.891 -263.644)" fill="#283c5a"/>
    <path id="Path_3608" data-name="Path 3608" d="M921.04,499.652H891.579a1.572,1.572,0,0,0-1.569,1.574v46.54h32.6v-46.54a1.573,1.573,0,0,0-1.574-1.574ZM906.408,526.1a3.5,3.5,0,0,1-3.479-3.479v-5.368a3.479,3.479,0,0,1,6.958,0v5.368A3.5,3.5,0,0,1,906.408,526.1Z" transform="translate(-311.917 -253.286)" fill="#182c4a"/>
    <path id="Path_3609" data-name="Path 3609" d="M889.884,556.837v4.49a.88.88,0,0,0,.878.878h31.051a.882.882,0,0,0,.878-.878v-4.49Z" transform="translate(-311.894 -263.853)" fill="#3f3d56"/>
    <path id="Path_3610" data-name="Path 3610" d="M958.455,410.571H832.519a4.088,4.088,0,0,0-4.082,4.082v84.982a4.085,4.085,0,0,0,4.082,4.082H958.455a4.086,4.086,0,0,0,4.082-4.082V414.653a4.088,4.088,0,0,0-4.082-4.082Z" transform="translate(-300.547 -236.814)" fill="#273a57"/>
    <path id="Path_3611" data-name="Path 3611" d="M958.072,414.186H834.24a2.188,2.188,0,0,0-2.183,2.187v82.876a2.187,2.187,0,0,0,2.183,2.183H958.072a2.187,2.187,0,0,0,2.183-2.183V416.374A2.188,2.188,0,0,0,958.072,414.186Z" transform="translate(-301.216 -237.482)" fill="#01183a"/>
    <path id="Path_3612" data-name="Path 3612" d="M940.036,563.493H866.363a1.355,1.355,0,0,1-1.326-1.634l1.143-5.429a1.361,1.361,0,0,1,1.326-1.076h71.388a1.361,1.361,0,0,1,1.326,1.076l1.143,5.429a1.355,1.355,0,0,1-1.326,1.634Z" transform="translate(-307.3 -263.579)" fill="#8aa1c5"/>
    <rect id="Rectangle_406" data-name="Rectangle 406" width="2.269" height="1.361" rx="0.488" transform="translate(560.781 292.754)" fill="#e6e6e6"/>
    <rect id="Rectangle_407" data-name="Rectangle 407" width="2.269" height="1.361" rx="0.488" transform="translate(565.317 292.754)" fill="#e6e6e6"/>
    <rect id="Rectangle_408" data-name="Rectangle 408" width="2.269" height="1.361" rx="0.488" transform="translate(569.853 292.754)" fill="#e6e6e6"/>
    <rect id="Rectangle_409" data-name="Rectangle 409" width="2.269" height="1.361" rx="0.488" transform="translate(574.343 292.754)" fill="#e6e6e6"/>
    <rect id="Rectangle_410" data-name="Rectangle 410" width="2.269" height="1.361" rx="0.488" transform="translate(578.881 292.754)" fill="#e6e6e6"/>
    <rect id="Rectangle_411" data-name="Rectangle 411" width="2.269" height="1.361" rx="0.488" transform="translate(583.419 292.754)" fill="#e6e6e6"/>
    <rect id="Rectangle_412" data-name="Rectangle 412" width="2.269" height="1.361" rx="0.488" transform="translate(587.958 292.754)" fill="#e6e6e6"/>
    <rect id="Rectangle_413" data-name="Rectangle 413" width="2.269" height="1.361" rx="0.488" transform="translate(592.496 292.754)" fill="#e6e6e6"/>
    <rect id="Rectangle_414" data-name="Rectangle 414" width="2.269" height="1.361" rx="0.488" transform="translate(597.034 292.754)" fill="#e6e6e6"/>
    <rect id="Rectangle_415" data-name="Rectangle 415" width="2.269" height="1.361" rx="0.488" transform="translate(601.572 292.754)" fill="#e6e6e6"/>
    <rect id="Rectangle_416" data-name="Rectangle 416" width="2.269" height="1.361" rx="0.488" transform="translate(606.11 292.754)" fill="#e6e6e6"/>
    <rect id="Rectangle_417" data-name="Rectangle 417" width="2.269" height="1.361" rx="0.488" transform="translate(610.648 292.754)" fill="#e6e6e6"/>
    <rect id="Rectangle_418" data-name="Rectangle 418" width="2.269" height="1.361" rx="0.488" transform="translate(615.187 292.754)" fill="#e6e6e6"/>
    <rect id="Rectangle_419" data-name="Rectangle 419" width="2.269" height="1.361" rx="0.488" transform="translate(619.725 292.754)" fill="#e6e6e6"/>
    <rect id="Rectangle_420" data-name="Rectangle 420" width="2.269" height="1.361" rx="0.488" transform="translate(624.263 292.754)" fill="#e6e6e6"/>
    <rect id="Rectangle_421" data-name="Rectangle 421" width="2.269" height="1.361" rx="0.488" transform="translate(628.801 292.754)" fill="#e6e6e6"/>
    <rect id="Rectangle_422" data-name="Rectangle 422" width="2.269" height="1.361" rx="0.488" transform="translate(560.727 295.022)" fill="#e6e6e6"/>
    <rect id="Rectangle_423" data-name="Rectangle 423" width="2.269" height="1.361" rx="0.488" transform="translate(565.263 295.022)" fill="#e6e6e6"/>
    <rect id="Rectangle_424" data-name="Rectangle 424" width="2.269" height="1.361" rx="0.488" transform="translate(569.8 295.022)" fill="#e6e6e6"/>
    <rect id="Rectangle_425" data-name="Rectangle 425" width="2.269" height="1.361" rx="0.488" transform="translate(574.289 295.022)" fill="#e6e6e6"/>
    <rect id="Rectangle_426" data-name="Rectangle 426" width="2.269" height="1.361" rx="0.488" transform="translate(578.827 295.022)" fill="#e6e6e6"/>
    <rect id="Rectangle_427" data-name="Rectangle 427" width="2.269" height="1.361" rx="0.488" transform="translate(583.366 295.022)" fill="#e6e6e6"/>
    <rect id="Rectangle_428" data-name="Rectangle 428" width="2.269" height="1.361" rx="0.488" transform="translate(587.904 295.022)" fill="#e6e6e6"/>
    <rect id="Rectangle_429" data-name="Rectangle 429" width="2.269" height="1.361" rx="0.488" transform="translate(592.442 295.022)" fill="#e6e6e6"/>
    <rect id="Rectangle_430" data-name="Rectangle 430" width="2.269" height="1.361" rx="0.488" transform="translate(596.98 295.022)" fill="#e6e6e6"/>
    <rect id="Rectangle_431" data-name="Rectangle 431" width="2.269" height="1.361" rx="0.488" transform="translate(601.518 295.022)" fill="#e6e6e6"/>
    <rect id="Rectangle_432" data-name="Rectangle 432" width="2.269" height="1.361" rx="0.488" transform="translate(606.056 295.022)" fill="#e6e6e6"/>
    <rect id="Rectangle_433" data-name="Rectangle 433" width="2.269" height="1.361" rx="0.488" transform="translate(610.595 295.022)" fill="#e6e6e6"/>
    <rect id="Rectangle_434" data-name="Rectangle 434" width="2.269" height="1.361" rx="0.488" transform="translate(615.133 295.022)" fill="#e6e6e6"/>
    <rect id="Rectangle_435" data-name="Rectangle 435" width="2.269" height="1.361" rx="0.488" transform="translate(619.671 295.022)" fill="#e6e6e6"/>
    <rect id="Rectangle_436" data-name="Rectangle 436" width="2.269" height="1.361" rx="0.488" transform="translate(624.209 295.022)" fill="#e6e6e6"/>
    <rect id="Rectangle_437" data-name="Rectangle 437" width="2.269" height="1.361" rx="0.488" transform="translate(628.747 295.022)" fill="#e6e6e6"/>
    <rect id="Rectangle_438" data-name="Rectangle 438" width="18.153" height="1.361" rx="0.488" transform="translate(582.458 297.744)" fill="#e6e6e6"/>
    <path id="Path_3613" data-name="Path 3613" d="M952.631,427.982H836.762a.461.461,0,1,1,0-.922H952.631a.461.461,0,1,1,0,.922Z" transform="translate(-301.999 -239.845)" fill="#273a57"/>
    <ellipse id="Ellipse_263" data-name="Ellipse 263" cx="2.7" cy="2.761" rx="2.7" ry="2.761" transform="translate(540.008 179.344)" fill="#273a57"/>
    <ellipse id="Ellipse_264" data-name="Ellipse 264" cx="2.7" cy="2.761" rx="2.7" ry="2.761" transform="translate(549.334 179.344)" fill="#273a57"/>
    <ellipse id="Ellipse_265" data-name="Ellipse 265" cx="2.7" cy="2.761" rx="2.7" ry="2.761" transform="translate(558.658 179.344)" fill="#273a57"/>
    <path id="Path_3614" data-name="Path 3614" d="M970.474,418.243h-6.626a.5.5,0,1,0,0,1h6.627a.5.5,0,1,0,0-1Z" transform="translate(-325.46 -238.214)" fill="#273a57"/>
    <path id="Path_3615" data-name="Path 3615" d="M970.475,420.553h-6.626a.5.5,0,1,0,0,1h6.626a.5.5,0,1,0,0-1Z" transform="translate(-325.46 -238.641)" fill="#273a57"/>
    <path id="Path_3616" data-name="Path 3616" d="M970.474,422.86h-6.626a.5.5,0,1,0,0,1h6.627a.5.5,0,1,0,0-1Z" transform="translate(-325.46 -239.068)" fill="#273a57"/>
    <rect id="Rectangle_439" data-name="Rectangle 439" width="18.417" height="3.938" rx="1.969" transform="translate(585.604 213.231)" fill="#fff"/>
    <rect id="Rectangle_440" data-name="Rectangle 440" width="37.123" height="3.938" rx="1.969" transform="translate(576.251 221.104)" fill="#e6e6e6" opacity="0.2"/>
    <rect id="Rectangle_441" data-name="Rectangle 441" width="37.123" height="3.938" rx="1.969" transform="translate(576.251 228.977)" fill="#e6e6e6" opacity="0.2"/>
    <path id="Path_3617" data-name="Path 3617" d="M523.214,424.405l-6.674-3.193,9.168-27.9,9.851,4.711Z" transform="translate(-135.261 -72.793)" fill="#ffb6b6"/>
    <path id="Path_3618" data-name="Path 3618" d="M707.672,617.318c-.485.3-.971.6-1.461.9-.976.6-1.961,1.186-2.947,1.765-.5.289-1,.579-1.49.863v.015l-.029,0-.01,0-.755.186L699.9,618.2l-.5-1.319-.706-1.868-1.294-3.417L690.581,593.6l10.595-2.613.4,1.623h0l.2.8,3.7,15.012.755,3.069.025.093.456,1.834.392,1.588.436,1.775Z" transform="translate(-274.984 -270.204)" fill="#ffb6b6"/>
    <path id="Path_3619" data-name="Path 3619" d="M769.088,538.5c-.672,1.079-1.358,2.152-2.049,3.216q-1.927,2.971-3.956,5.854s0,0-.01.01a13.846,13.846,0,0,1-2.6,1.9c-.039.029-.083.049-.123.074a9.575,9.575,0,0,1-2.187.878l-.829.206c-.99.235-1.971.436-2.947.613q-2.6.463-5.158.667c-.137.015-.275.025-.412.034a79.765,79.765,0,0,1-20.974-1.672c-3.52-.667-7.114-1.466-10.835-2.294-1.216-.275-2.437-.544-3.672-.814-.093-.02-.191-.044-.289-.064-1.765-.387-3.559-.77-5.4-1.147-2.314-.476-4.7-.936-7.182-1.373l.176,3.5a26.312,26.312,0,0,0,1.657,7.859c1.059,3.1,1.9,5.55.127,10.654l-.854,2.471a8.439,8.439,0,0,1-.868,7.467l-.172.26,7.114,18,.461,1.167H704.47l-4.481,0H692.4l-10.958-21.984-.525-1.049v-.054l1.132-42.247c.015-.373.044-.75.093-1.123a12.844,12.844,0,0,1,4.888-8.648,12.369,12.369,0,0,1,9.212-2.52l3.751.485,7.663.99,5.4.7.108.015,15.919,2.059,1.142-4.658.211-.078,6.7-2.456,23.18-8.5.059-.02,1.525-.559.181.294c.054.088.108.176.157.265a45.435,45.435,0,0,1,3.662,8.5,133.449,133.449,0,0,1,3.849,14.693q.066.324.118.588l.015.054c.015.083.025.137.029.152A13.712,13.712,0,0,1,769.088,538.5Z" transform="translate(-273.214 -254.533)" fill="#8aa1c5"/>
    <path id="Path_3620" data-name="Path 3620" d="M765.292,521.428c-.074-.314-.167-.632-.265-.941a67.06,67.06,0,0,0-2.716-6.874c-1.157-2.549-2.544-5.28-4.2-8.237q-1.2-2.147-2.579-4.466-.691-1.162-1.436-2.368a1.249,1.249,0,0,0-.064-.108l-.142-.235-22.935,3.069-8.54,1.142-.51,4.256-.123,1.054s0,0,0,0l-.343,2.873v0l-.456,3.795-.039,0-12.673-1.642-13.061-1.691-7.016-.907a12.362,12.362,0,0,0-9.212,2.52,12.85,12.85,0,0,0-4.888,8.648c-.044.343-.074.7-.088,1.044l-6.619,15.684a101.192,101.192,0,0,0-7.482,29.436L655.055,583l.691.064,10.286.956,2.716.255,5.981-8.732c.681-1,1.329-2.02,1.932-3.069a46.6,46.6,0,0,0,2.643-5.315l12.938-30.789q1.5.257,2.971.49,6.8,1.1,13.061,1.8c13.566,1.515,25.313,1.633,35.77.348q4.405-.537,8.516-1.412,1.508-.316,2.976-.681c.23-.054.456-.108.681-.167a12.511,12.511,0,0,0,8.751-8.178A12.765,12.765,0,0,0,765.292,521.428Z" transform="translate(-268.435 -253.03)" fill="#8aa1c5"/>
    <path id="Path_3621" data-name="Path 3621" d="M653.58,622.3l-7.222-3.461-1.133-.544-1.809,4.442-12.629,2.78a3,3,0,0,0-.49,5.7l12.34,5.035,3.917-3.525-.961,4.731,4.648,1.9,5.094-16.213Z" transform="translate(-264.304 -275.247)" fill="#8aa1c5"/>
    <path id="Path_3622" data-name="Path 3622" d="M581.774,417.469l.461,1.167h-.461Z" transform="translate(-147.324 -77.253)" fill="#2f2e41"/>
    <path id="Path_3623" data-name="Path 3623" d="M707.359,616.414l-7.567,2.622-1.188.41,1.84,4.429-7.018,10.862a3,3,0,0,0,3.663,4.4l12.311-5.1.3-5.261,2.646,4.038,4.638-1.922-7.788-15.1Z" transform="translate(-275.423 -274.782)" fill="#8aa1c5"/>
    <path id="Path_3624" data-name="Path 3624" d="M654.155,415.811a5.374,5.374,0,0,0,8.037,1.822L678.1,428.2l.03-9.925-15.115-8.509a5.4,5.4,0,0,0-8.864,6.049Z" transform="translate(-268.134 -236.305)" fill="#ffb6b6"/>
    <path id="Path_3625" data-name="Path 3625" d="M668.874,421.314l7.424-8.446,30.228,17.945,40.07-3.67a13.55,13.55,0,0,1,14.728,14.742h0a13.565,13.565,0,0,1-14.741,12.243l-45.129-4.177Z" transform="translate(-270.987 -237.227)" fill="#ccc"/>
    <path id="Path_3626" data-name="Path 3626" d="M774.3,423.335l-.07-.087h0a29.276,29.276,0,0,0-28.335,14.681l-3.4,5.99c-11,13.447-3.007,22.721-2.528,24.1l-3.818,17.6.856,5.892.427,1.75,43.583,22.773c2.481-11.922.082-22.081-8.958-29.842l8.747-27.214a38.337,38.337,0,0,0-6.5-35.647Z" transform="translate(-283.421 -239.134)" fill="#ccc"/>
    <path id="Path_3627" data-name="Path 3627" d="M736.409,579.63H722.43a3.194,3.194,0,0,1-3.16-2.745,71.075,71.075,0,0,1,0-19.144A3.194,3.194,0,0,1,722.376,555a17.49,17.49,0,0,1,14.082,0,3.157,3.157,0,0,1,2.4,1.158,3.23,3.23,0,0,1,.666,2.692,42.976,42.976,0,0,0,0,16.933,3.23,3.23,0,0,1-.666,2.692,3.156,3.156,0,0,1-2.45,1.159Z" transform="translate(-280.172 -263.245)" fill="#fff"/>
    <path id="Path_3628" data-name="Path 3628" d="M735.81,563.949H724.044a.735.735,0,1,1,0-1.471H735.81a.735.735,0,0,1,0,1.471Z" transform="translate(-281.038 -264.895)" fill="#0b2d61"/>
    <path id="Path_3629" data-name="Path 3629" d="M735.81,571.165H724.044a.735.735,0,1,1,0-1.471H735.81a.735.735,0,0,1,0,1.471Z" transform="translate(-281.038 -266.23)" fill="#0b2d61"/>
    <path id="Path_3630" data-name="Path 3630" d="M735.81,578.381H724.044a.735.735,0,1,1,0-1.471H735.81a.735.735,0,0,1,0,1.471Z" transform="translate(-281.038 -267.565)" fill="#0b2d61"/>
    <path id="Path_3631" data-name="Path 3631" d="M653.409,417.63H639.43a3.194,3.194,0,0,1-3.16-2.745,71.08,71.08,0,0,1,0-19.144A3.194,3.194,0,0,1,639.376,393a17.49,17.49,0,0,1,14.082,0,3.157,3.157,0,0,1,2.4,1.158,3.229,3.229,0,0,1,.666,2.692,42.976,42.976,0,0,0,0,16.933,3.229,3.229,0,0,1-.666,2.692A3.156,3.156,0,0,1,653.409,417.63Z" transform="translate(-264.818 -233.274)" fill="#fff"/>
    <path id="Path_3632" data-name="Path 3632" d="M652.811,401.949H641.044a.735.735,0,1,1,0-1.471h11.766a.735.735,0,1,1,0,1.471Z" transform="translate(-265.683 -234.927)" fill="#0b2d61"/>
    <path id="Path_3633" data-name="Path 3633" d="M652.811,409.165H641.044a.735.735,0,1,1,0-1.471h11.766a.735.735,0,0,1,0,1.471Z" transform="translate(-265.683 -236.262)" fill="#0b2d61"/>
    <path id="Path_3634" data-name="Path 3634" d="M652.811,416.381H641.044a.735.735,0,0,1,0-1.471h11.766a.735.735,0,0,1,0,1.471Z" transform="translate(-265.683 -237.597)" fill="#0b2d61"/>
    <path id="Path_3635" data-name="Path 3635" d="M352.409,461.63H338.43a3.194,3.194,0,0,1-3.16-2.745,71.082,71.082,0,0,1,0-19.144A3.194,3.194,0,0,1,338.376,437a17.49,17.49,0,0,1,14.082,0,3.157,3.157,0,0,1,2.4,1.158,3.229,3.229,0,0,1,.666,2.692,42.976,42.976,0,0,0,0,16.933,3.229,3.229,0,0,1-.666,2.692,3.156,3.156,0,0,1-2.45,1.159Z" transform="translate(-88.513 -241.414)" fill="#fff"/>
    <path id="Path_3636" data-name="Path 3636" d="M351.81,445.949H340.044a.735.735,0,1,1,0-1.471H351.81a.735.735,0,1,1,0,1.471Z" transform="translate(-89.38 -243.067)" fill="#0b2d61"/>
    <path id="Path_3637" data-name="Path 3637" d="M351.81,453.165H340.044a.735.735,0,1,1,0-1.471H351.81a.735.735,0,1,1,0,1.471Z" transform="translate(-89.38 -244.402)" fill="#0b2d61"/>
    <path id="Path_3638" data-name="Path 3638" d="M351.81,460.381H340.044a.735.735,0,1,1,0-1.471H351.81a.735.735,0,1,1,0,1.471Z" transform="translate(-89.38 -245.737)" fill="#0b2d61"/>
    <path id="Path_3639" data-name="Path 3639" d="M743.609,558.045a5.374,5.374,0,0,0,1.342-8.131l9.6-16.51-9.909.558-7.6,15.593a5.4,5.4,0,0,0,6.564,8.49Z" transform="translate(-283.281 -259.523)" fill="#ffb6b6"/>
    <path id="Path_3640" data-name="Path 3640" d="M748.2,527.558l-8.871-6.91,16.12-31.239-6.04-39.782a13.55,13.55,0,0,1,13.842-15.576h0a13.565,13.565,0,0,1,13.1,13.989l-1.492,45.3Z" transform="translate(-284.008 -241.159)" fill="#ccc"/>
    <path id="Path_3641" data-name="Path 3641" d="M222.206,526.69a5.419,5.419,0,0,0-.754-8.275l8.628-42.854-9.528,3.059-6.906,41.451a5.448,5.448,0,0,0,8.56,6.619Z" transform="translate(-65.965 -248.829)" fill="#9e616a"/>
    <path id="Path_3642" data-name="Path 3642" d="M234.528,426.055l-5.912-4.462s-5.215-.369-6.139,9.035-2.82,27.733-2.82,27.733l-9.046,41.9,12.522,2.748,9.689-45.215,5.812-13.427Z" transform="translate(-65.548 -238.85)" fill="#8aa1c5"/>
    <path id="Path_3643" data-name="Path 3643" d="M96.057,308.342l33.312-.555,2.776-22.763H96.057Z" transform="translate(63.177 -52.73)" fill="#9e616a"/>
    <path id="Path_3644" data-name="Path 3644" d="M132.828,478.709h7.69l3.658-29.663h-11.35Z" transform="translate(56.387 -83.084)" fill="#9e616a"/>
    <path id="Path_3645" data-name="Path 3645" d="M73.738,479.565l7.69-.055,3.451-29.687-10,2.294Z" transform="translate(67.299 -83.228)" fill="#9e616a"/>
    <path id="Path_3646" data-name="Path 3646" d="M102.843,260.191l-1.742,4.53.348,4.531,34.1,11.812-1.692-19.827-3.834-4.531Z" transform="translate(62.246 -47.492)" fill="#ffb6b6"/>
    <circle id="Ellipse_266" data-name="Ellipse 266" cx="12.18" cy="12.18" r="12.18" transform="translate(167.539 147.593)" fill="#9e616a"/>
    <path id="Path_3647" data-name="Path 3647" d="M262.076,677.962l12.157-.726v5.208l11.558,7.982a3.253,3.253,0,0,1-1.849,5.931H269.468l-2.495-5.152L266,696.357h-5.457Z" transform="translate(-74.809 -286.131)" fill="#0b2d61"/>
    <path id="Path_3648" data-name="Path 3648" d="M202.128,678.838l12.151-.811.036,5.208,11.613,7.9a3.253,3.253,0,0,1-1.807,5.943l-14.473.1-2.531-5.134-.938,5.159-5.457.038Z" transform="translate(-63.722 -286.277)" fill="#0b2d61"/>
    <path id="Path_3649" data-name="Path 3649" d="M202.34,626.508l5.6-44.76,6.662-47.192c-4.879-9.061,6.107-37.2,6.107-37.2l1.551.074,35.1,6.622-.008-.034c7.179,19.581,9.558,29.254,9.164,50.106L265.1,629.083h.444a2.776,2.776,0,0,1,0,5.552h-13.88a2.776,2.776,0,0,1,0-5.552h.358l-12.74-89.253-10.8,37.475-12.214,48.858c4.442-1.11,3.752,1.462,3.752,2.919a2.776,2.776,0,0,1-2.776,2.776h-13.88a2.773,2.773,0,0,1-1.024-5.352Z" transform="translate(-63.697 -252.914)" fill="#0b2d61"/>
    <path id="Path_3650" data-name="Path 3650" d="M221.913,483.75l1.11-11.1a2.213,2.213,0,0,1,2-1.663c.463-5.29,2.409-28.109,2.526-29.1l0-.042.885-18.909a2.8,2.8,0,0,1,2.611-2.66l4.675-.306a.247.247,0,0,0,.239-.247,3.932,3.932,0,0,1,3.932-3.932h13.842a3.681,3.681,0,0,1,3.651,3.222.244.244,0,0,0,.249.22h0a6.576,6.576,0,0,1,6.616,5.454c1.892,11.01,5.685,36,3.81,49.892-.653,4.836.754,1.006,1,5.052a2.978,2.978,0,0,1-.742,2.159,2.147,2.147,0,0,1,1.293,2.729l.243-.06a2.221,2.221,0,0,1-2.7,1.611l-36.214,4.907C229.762,490.671,221.614,484.94,221.913,483.75Z" transform="translate(-67.633 -237.774)" fill="#8aa1c5"/>
    <path id="Path_3651" data-name="Path 3651" d="M335.28,442.177a5.419,5.419,0,0,1-7.631,3.287l-14,12.777-1.859-9.833,13.588-10.594a5.448,5.448,0,0,1,9.9,4.363Z" transform="translate(-84.29 -241.343)" fill="#9e616a"/>
    <path id="Path_3652" data-name="Path 3652" d="M277.472,429.727s-4.882-11.032-11.047-8.839-2.982,12.9-2.982,12.9l23.165,34.906s33.412-21.433,29.349-21.585-5.278-7.541-5.278-7.541l-17.659,8.823-.6-3.141-.958.958-2.471-1.945Z" transform="translate(-75.196 -238.659)" fill="#8aa1c5"/>
    <circle id="Ellipse_267" data-name="Ellipse 267" cx="17.005" cy="17.005" r="17.005" transform="translate(463.824 144.957)" fill="#ffb6b6"/>
    <path id="Path_3653" data-name="Path 3653" d="M820.623,415.663a14.747,14.747,0,0,1-8.107,5.707,16.96,16.96,0,0,1-4.036.685,15.257,15.257,0,0,0-1.2-4.483,12.6,12.6,0,0,1-.623,4.473,14.992,14.992,0,0,1-5.9-1.581,13,13,0,0,1-6.956-9.331c-.72-4.651,1.388-9.219,2.151-13.863s-.671-10.527-5.218-11.747c-3.462-.93-3.074-.528-5.952,1.609,2.994,4.427-8.064,20.649-12.59,19.235-2.559-.8-4.2-3.147-4.725-3.147-3.557,6.127,3.14,16.451-3.609,18.595l.556-.556c4.074-5.011-4.441-15.618-.367-20.63,1.137-1.4,2.347-3.064,2.011-4.837-.318-1.686-2.994-2.577-3.777-1.193a6.366,6.366,0,0,0-4.116-8.365c-3.06-.738-3,.171-6.075.567a15.236,15.236,0,0,0-1.116-3.85,12.492,12.492,0,0,1-.458,3.924,4.927,4.927,0,0,1-2.98-1.077c-2.5-2.018-2-6.257.238-8.568s5.564-3.144,8.736-3.683c.922-6.421,18.638-7.091,20.987-.675,1-4.791,7-7.278,11.66-5.791s7.9,5.84,9.6,10.429,2.179,9.519,3.228,14.3,2.822,9.642,6.473,12.9,9.6,4.33,13.447,1.308a10.769,10.769,0,0,1-1.284,9.652Z" transform="translate(-285.229 -228.678)" fill="#242424"/>
    <path id="Path_3654" data-name="Path 3654" d="M1025.968,473.038l-2.381,11.945c-.179.913-.367,1.843-.571,2.764a11.649,11.649,0,0,0-5.985.334,55.867,55.867,0,0,1,4.109,6.873c-1.5,4.623-3.7,8.9-7.387,11.985a18.524,18.524,0,0,1-17.9,3.147l.106-.473c-3.963-7.689-1.81-17.383,3.115-24.485a47.605,47.605,0,0,1,8.846-9.352c3.327-2.772,6.922-5.259,10.485-7.713a4.884,4.884,0,0,1,7.558,4.974Z" transform="translate(-331.103 -247.281)" fill="#273a57"/>
    <path id="a4b268fa-75d0-4ac1-9d87-14bdca948464-2189" d="M996.985,544.309c-1-7.3-2.033-14.692-1.33-22.07a34.711,34.711,0,0,1,6.693-18.2,30.275,30.275,0,0,1,7.768-7.039c.777-.489,1.491.741.718,1.229a28.781,28.781,0,0,0-11.385,13.736c-2.479,6.3-2.877,13.177-2.446,19.873.258,4.05.806,8.072,1.358,12.091a.734.734,0,0,1-.5.876.716.716,0,0,1-.876-.5Z" transform="translate(-331.384 -252.774)" fill="#8aa1c5"/>
    <path id="Path_3656" data-name="Path 3656" d="M223.486,380.815c-1.868.9-3.959-.452-5.572-1.789l.577.5c-2.85,2.773-4.183,6.763-4.834,10.691s-.725,7.936-1.545,11.832-2.525,7.8-5.707,10.185c-4.263,3.192-10.144,2.988-15.376,2.009l-.2-.039a31.942,31.942,0,0,0,1.682-12.663,29.042,29.042,0,0,1-6.972,11.428,66.674,66.674,0,0,1-10.125-3.689c-2.116-.974-4.394-2.305-4.981-4.56-.589-2.238.778-4.585,2.606-6s4.071-2.15,6.154-3.157,4.136-2.43,4.969-4.587c1.92-4.961-3.549-10.653-1.418-15.529,1.051-2.4,3.626-3.7,6.045-4.708a88.737,88.737,0,0,1,11.354-3.83c3.394-.9,6.939-1.591,10.4-1s6.846,2.69,8.09,5.974c2.077.7,4.281,1.493,5.614,3.241S225.464,379.868,223.486,380.815Z" transform="translate(-58.102 -228.499)" fill="#262626"/>
    <path id="Path_3657" data-name="Path 3657" d="M250.895,376.511c-5.344-4.219-9.665-3.5-13-.878-.56-.623-2.945,1.092-3.753.845l-2.92,5.482c-1.5,2.652-2.119,5.359-1.876,6.883-2.764,7.752,3.791,12.987,11.543,15.751a14.792,14.792,0,0,0,9.593.139l.1-1.321.587,1.083s7.087,14.592,8.762,15.248c-1.016-2.636-3.7-15.164-4.444-17.776-1.026-3.553-.325-9.2.278-12.659a19.614,19.614,0,0,0,.058-6.455l-.015-.094,1.658,3.347,3.72-2.339C259.76,379.626,259.731,374.672,250.895,376.511Z" transform="translate(-68.888 -229.945)" fill="#262626"/>
  </g>
</svg>
