<svg xmlns="http://www.w3.org/2000/svg" width="451" height="434" viewBox="0 0 451 434">
  <g id="vision" transform="translate(-88.781 0)">
    <path id="Path_3162" data-name="Path 3162" d="M407.617,440.935a7.306,7.306,0,0,1,.477-11.193l-8.18-24.641,13.03,3.5,5.771,22.863a7.346,7.346,0,0,1-11.1,9.47Z" transform="translate(-283.658 -225.91)" fill="#a0616a"/>
    <path id="Path_3163" data-name="Path 3163" d="M430.238,293.415c2.162,1.239,14.954-1.832,17.452-.958-1.379,8.414,6.111,5.257-2.023,16.306s-24.515,44.18-28.236,56.563-.038,29.832-.6,35.7a60.9,60.9,0,0,0,.05,10.214c-4.394-.056-8.726.856-13.189.274-4.76-13.468-7.96-32.638-10.133-43.233s-2.253-6.114-1.256-11.412,1.238-1.448.191-6.516,3.187-11.436,7.1-15.067c1.687-4.852,3.867-9.376,5.537-14.177C417.373,310.436,418.178,304.269,430.238,293.415Z" transform="translate(-282.664 -211.988)" fill="#0b2d61"/>
    <path id="Path_3164" data-name="Path 3164" d="M570.145,477.664H559.333l-5.143-41.7h15.958Z" transform="translate(-67.52 -54.145)" fill="#ffb6b6"/>
    <path id="Path_3165" data-name="Path 3165" d="M838.346,693.258H803.484v-.441a13.57,13.57,0,0,1,13.568-13.569h0l6.368-4.831,11.881,4.832h3.043Z" transform="translate(-332.963 -259.258)" fill="#0b2d61"/>
    <path id="Path_3166" data-name="Path 3166" d="M513.005,477.664H502.193l-5.143-41.7h15.957Z" transform="translate(-60.51 -54.145)" fill="#ffb6b6"/>
    <path id="Path_3167" data-name="Path 3167" d="M781.206,693.258H746.344v-.441a13.57,13.57,0,0,1,13.568-13.569h0l6.368-4.831,11.881,4.832h3.043Z" transform="translate(-325.952 -259.258)" fill="#0b2d61"/>
    <path id="Path_3168" data-name="Path 3168" d="M775.128,424.569l70.325,1.758c13.356,7.254,13.559,22.956,9.183,41.6,0,0,1.477,11.08-1.477,14.035s-4.432,2.955-2.955,8.125-6.328,13.616-5.38,14.564,3.164,6.119,3.164,6.119l-7.387,42.1S835.43,626,833.953,627.479s-2.955,0-1.477,3.693,2.955,2.216,1.477,3.693a54.4,54.4,0,0,0-3.693,4.432H812.4s-1.346-7.387-1.346-8.125-1.477-5.171-1.477-5.909,1.306-2.044,1.306-2.044a24.3,24.3,0,0,0,.91-4.6c0-1.477,4.432-58.356,4.432-58.356l-8.864-73.868-21.422,72.39s0,63.526-1.477,65-1.477.739-.739,3.693,3.693,2.216,1.477,4.432-2.955-1.477-2.216,2.216l.739,3.693-22.16.317s-2.955-6.226-1.477-8.442,1.389-1.611-.414-5.238-2.541-4.365-1.8-5.1.739-4.668.739-4.668l3.693-70.678s.739-74.606.739-76.822a7.367,7.367,0,0,0-.614-3.323v-3.008l2.83-10.658Z" transform="translate(-327.413 -229.043)" fill="#0b2d61"/>
    <circle id="Ellipse_198" data-name="Ellipse 198" cx="21.85" cy="21.85" r="21.85" transform="translate(468.111 7.017)" fill="#ffb6b6"/>
    <path id="Path_3169" data-name="Path 3169" d="M808.031,273.189c-4.707,2.8-7.523,7.941-9.14,13.173a124.834,124.834,0,0,0-5.364,29.826l-1.707,30.306-21.146,64.53c18.326,15.507,87.212,3.524,87.212,3.524s2.115-.7,0-2.819-4.173-.241-2.059-2.356.657.241-.048-1.873,0-.7.7-1.41-5.457-7.049-5.457-7.049L856.666,362l7.049-74.714c-8.458-10.573-25.469-16.805-25.469-16.805l-4.4-7.912-21.977,1.758Z" transform="translate(-328.996 -208.03)" fill="#8aa1c5"/>
    <path id="Path_3170" data-name="Path 3170" d="M808.676,216.571a10.325,10.325,0,0,1,2.505.329,35.659,35.659,0,0,0,4.9.822A22.725,22.725,0,0,1,836.435,237c1.27-1.107,4.159-3.143,6.527-1.251h0c.036.03.057.046.14.006,1.573-.746,4.364-9.929,4.449-18.014.045-4.291-.631-9.771-4.1-11.507l-.183-.091-.048-.2c-.232-.965-2.823-2.613-7.325-3.9-8.183-2.331-20.14-2.668-27.008,4.014-.52,2.253-2.452,2.87-4.16,3.416-1.892.6-3.525,1.127-3.783,3.447a71.126,71.126,0,0,0,.047,9.915,10.126,10.126,0,0,1,3.6-5.053,7.131,7.131,0,0,1,4.09-1.215Z" transform="translate(-332.638 -200.527)" fill="#273a57"/>
    <path id="Path_3171" data-name="Path 3171" d="M753.412,349.689l35.693-22.859-17.977-23.9-17.752,21.836-55.31,3.392a10.541,10.541,0,1,0-.59,15.534Z" transform="translate(-317.944 -213.24)" fill="#ffb6b6"/>
    <path id="Path_3172" data-name="Path 3172" d="M832.02,291.58c2.072,12.537-37.049,36.477-37.049,36.477,0-2.943-23.35,19.272-24.4,16.832-3-6.936-5.1-23.365-9.287-25.994-2.394-1.5,14.416-15.63,14.416-15.63s8.8-8.864,20.346-20.045a26.938,26.938,0,0,1,24.95-7.293S829.949,279.043,832.02,291.58Z" transform="translate(-327.831 -209.823)" fill="#8aa1c5"/>
    <path id="Path_3173" data-name="Path 3173" d="M763.645,441.122A119.351,119.351,0,0,1,757,480.531c-.2.589-.413,1.169-.624,1.758a119.976,119.976,0,0,1-47.865,59.566c-1.5.967-3.024,1.89-4.571,2.787A118.865,118.865,0,0,1,646.1,560.657c-.668.009-1.336.018-2,.018-.862,0-1.714-.009-2.567-.026a118.993,118.993,0,0,1-57.843-16.333q-2.321-1.358-4.571-2.822a119.665,119.665,0,0,1-42.7-152.386c.281-.589.571-1.169.87-1.758a119.6,119.6,0,0,1,213.613,0c.3.589.589,1.169.87,1.758A119.039,119.039,0,0,1,763.645,441.122Z" transform="translate(-299.05 -215.936)" fill="#273a57"/>
    <path id="Path_3174" data-name="Path 3174" d="M727.949,502.4v1.758h10.707V502.4Zm-21.414,0v1.758h10.707V502.4Zm-21.414,0v1.758h10.707V502.4Zm-21.414,0v1.758h10.707V502.4Zm-21.414,0v1.758H653V502.4Zm-21.414,0v1.758h10.707V502.4Zm-21.414,0v1.758h10.707V502.4Zm-21.405,0v1.758h10.7V502.4Zm-21.414,0v1.758h10.707V502.4Zm-21.414,0v1.758h10.707V502.4Zm223.063,0h-8.931v1.758h8.307Z" transform="translate(-300.343 -237.904)" fill="#e6e6e6" opacity="0.15"/>
    <path id="Path_3175" data-name="Path 3175" d="M749.363,488.4v1.758H760.07V488.4Zm-21.414,0v1.758h10.707V488.4Zm-21.414,0v1.758h10.707V488.4Zm-21.414,0v1.758h10.707V488.4Zm-21.414,0v1.758h10.707V488.4Zm-21.414,0v1.758H653V488.4Zm-21.414,0v1.758h10.707V488.4Zm-21.414,0v1.758h10.707V488.4Zm-21.405,0v1.758h10.7V488.4Zm-21.414,0v1.758h10.707V488.4Zm-21.414,0v1.758h10.707V488.4Z" transform="translate(-300.346 -236.17)" fill="#e6e6e6" opacity="0.15"/>
    <path id="Path_3176" data-name="Path 3176" d="M749.363,459.4v1.758H760.07V459.4Zm-21.414,0v1.758h10.707V459.4Zm-21.414,0v1.758h10.707V459.4Zm-21.414,0v1.758h10.707V459.4Zm-21.414,0v1.758h10.707V459.4Zm-21.414,0v1.758H653V459.4Zm-21.414,0v1.758h10.707V459.4Zm-21.414,0v1.758h10.707V459.4Zm-21.405,0v1.758h10.7V459.4Zm-21.414,0v1.758h10.707V459.4Zm-21.414,0v1.758h10.707V459.4Z" transform="translate(-300.346 -232.58)" fill="#e6e6e6" opacity="0.15"/>
    <path id="Path_3177" data-name="Path 3177" d="M749.363,439.4v1.758H760.07V439.4Zm-21.414,0v1.758h10.707V439.4Zm-21.414,0v1.758h10.707V439.4Zm-21.414,0v1.758h10.707V439.4Zm-21.414,0v1.758h10.707V439.4Zm-21.414,0v1.758H653V439.4Zm-21.414,0v1.758h10.707V439.4Zm-21.414,0v1.758h10.707V439.4Zm-21.405,0v1.758h10.7V439.4Zm-21.414,0v1.758h10.707V439.4Zm-21.414,0v1.758h10.707V439.4Z" transform="translate(-300.346 -230.103)" fill="#e6e6e6" opacity="0.15"/>
    <path id="Path_3178" data-name="Path 3178" d="M752.534,396.4H749.7v1.758h3.7C753.123,397.568,752.833,396.988,752.534,396.4Zm-24.245,0v1.758H739V396.4Zm-21.414,0v1.758h10.707V396.4Zm-21.414,0v1.758h10.707V396.4Zm-21.414,0v1.758h10.707V396.4Zm-21.414,0v1.758h10.707V396.4Zm-21.414,0v1.758h10.707V396.4Zm-21.414,0v1.758h10.707V396.4Zm-21.405,0v1.758h10.7V396.4Zm-21.414,0v1.758h10.707V396.4Zm-18.065,0c-.3.589-.589,1.169-.87,1.758h8.228V396.4Z" transform="translate(-300.679 -224.779)" fill="#e6e6e6" opacity="0.15"/>
    <path id="Path_3179" data-name="Path 3179" d="M733.192,403.139v148.58c-1.5.967-3.024,1.89-4.571,2.787V403.139Z" transform="translate(-323.764 -225.921)" fill="#fff"/>
    <path id="Path_3180" data-name="Path 3180" d="M662.192,459.139V577.294c-.668.009-1.336.018-2,.018-.862,0-1.714-.009-2.567-.026V459.139Z" transform="translate(-315.108 -232.821)" fill="#fff"/>
    <path id="Path_3181" data-name="Path 3181" d="M591.192,403.139V554.18q-2.321-1.358-4.571-2.822V403.139Z" transform="translate(-306.452 -225.92)" fill="#fff"/>
    <circle id="Ellipse_199" data-name="Ellipse 199" cx="16.702" cy="16.702" r="16.702" transform="translate(389.836 155.958)" fill="#fff"/>
    <path id="Path_3183" data-name="Path 3183" d="M738.121,389.6a1.351,1.351,0,0,0-1.865,0,55.32,55.32,0,0,0-9.478,9.681l-2.026-3.92c-.779-1.508-3.056-.176-2.277,1.331l2.963,5.734a1.334,1.334,0,0,0,2.277,0,53.4,53.4,0,0,1,10.405-10.961A1.327,1.327,0,0,0,738.121,389.6Z" transform="translate(-323.004 -223.907)" fill="#0b2d61"/>
    <circle id="Ellipse_200" data-name="Ellipse 200" cx="16.702" cy="16.702" r="16.702" transform="translate(328.375 205.011)" fill="#fff"/>
    <path id="Path_3184" data-name="Path 3184" d="M668.121,445.6a1.351,1.351,0,0,0-1.865,0,55.32,55.32,0,0,0-9.478,9.681l-2.026-3.92c-.78-1.508-3.056-.176-2.277,1.331l2.963,5.734a1.334,1.334,0,0,0,2.277,0,53.4,53.4,0,0,1,10.405-10.961,1.326,1.326,0,0,0,0-1.865Z" transform="translate(-314.468 -230.845)" fill="#0b2d61"/>
    <circle id="Ellipse_201" data-name="Ellipse 201" cx="16.702" cy="16.702" r="16.702" transform="translate(266.036 159.462)" fill="#fff"/>
    <path id="Path_3185" data-name="Path 3185" d="M597.121,393.6a1.351,1.351,0,0,0-1.865,0,55.324,55.324,0,0,0-9.478,9.681l-2.026-3.92c-.779-1.508-3.056-.176-2.277,1.331l2.963,5.734a1.334,1.334,0,0,0,2.277,0,53.4,53.4,0,0,1,10.406-10.961,1.327,1.327,0,0,0,0-1.865Z" transform="translate(-305.81 -224.402)" fill="#0b2d61"/>
    <path id="Path_3186" data-name="Path 3186" d="M852.886,381.661l11-40.934L834.5,335.165l1.58,28.1-38.607,39.752A10.541,10.541,0,1,0,807.5,414.9Z" transform="translate(-330.91 -217.295)" fill="#ffb6b6"/>
    <path id="Path_3187" data-name="Path 3187" d="M873.117,288.591c9.974,7.874-2.828,51.915-2.828,51.915-1.982-2.175-4.285,29.971-6.708,28.876-6.885-3.111-19.5-13.838-24.37-12.964-2.782.5.133-21.263.133-21.263s.536-12.479,1.544-28.52a26.938,26.938,0,0,1,13.535-22.192S863.143,280.717,873.117,288.591Z" transform="translate(-337.139 -210.866)" fill="#8aa1c5"/>
    <path id="Path_3188" data-name="Path 3188" d="M209.416,192.771,221.5,246.716,144.042,241.9l21.064-52.98Z" transform="translate(-17.42 -23.472)" fill="#a0616a"/>
    <path id="Path_3189" data-name="Path 3189" d="M203.736,471.912h8.7l4.14-33.562H203.734Z" transform="translate(-24.741 -54.434)" fill="#a0616a"/>
    <path id="Path_3190" data-name="Path 3190" d="M467.81,672.06l13.755-.821v5.893l13.077,9.032a3.681,3.681,0,0,1-2.092,6.71H476.175l-2.823-5.829-1.1,5.829h-6.174Z" transform="translate(-291.761 -258.874)" fill="#8aa1c5"/>
    <path id="Path_3191" data-name="Path 3191" d="M110.182,467.092l8.5,1.844,11.161-31.922-12.55-2.722Z" transform="translate(-13.325 -53.943)" fill="#a0616a"/>
    <path id="Path_3192" data-name="Path 3192" d="M374.767,666.648l13.616,2.114-1.249,5.759L398,686.12a3.681,3.681,0,0,1-3.467,6.114l-16-3.472-1.523-6.3-2.313,5.463-6.034-1.309Z" transform="translate(-279.879 -258.319)" fill="#8aa1c5"/>
    <path id="Path_3193" data-name="Path 3193" d="M486.859,497.019c-6.107,33.561-7.633,48.052-7.633,48.052s4.58,5.339,1.527,8.392,0,9.152,0,9.152L473.887,636.6l-5.527-.9-13.314-2.141-4.8-.776,3.053-69.408s-3.053-6.107-1.527-7.633-1.527-10.678-1.527-10.678l-3.812-72.461-23.651,79.328s2.294,3.053,0,5.339-6.857,13.731-6.857,13.731L401.86,620.219l-1.194,4.179-7.335-1.373-7.983-1.5-1.467-.273-2.61-.495-1.68-.316-.571-.1-2.763-.52.836-3.71.435-1.953,11.9-52.846.273-1.22.29-1.288s-1.527-3.812.759-6.107a5.96,5.96,0,0,0,1.527-5.339,2.08,2.08,0,0,1-.2-.256,3.166,3.166,0,0,1-.546-1.245c-.2-.955-.026-2.294,1.518-3.838a6.509,6.509,0,0,0,1.083-1.552c2.32-4.392,3.488-13.7,3.488-13.7s2.064-73.7,8.819-84.956c.358-.589,7.529-11.886,7.9-12.117,7.625-4.571,67.029,1.743,67.029,1.743s3.6,9.666,3.76,10.672C486,447.765,492.036,468.549,486.859,497.019Z" transform="translate(-280.797 -229.462)" fill="#8aa1c5"/>
    <path id="Path_3194" data-name="Path 3194" d="M474.113,301.786s1.285-6.672-11.066-19.024c-6.539-2.18-17.869-.909-21.8,0-18.164,23.976-14.912,19.746-19.64,33.142-1.226,3.474-1.839,6.811-1.294,9.536,2.18,10.9,5.718,66.842,4.992,69.748s-5.812,6.539-.727,6.539,70.673-1.148,69.219-3.328S474.113,301.786,474.113,301.786Z" transform="translate(-286.101 -210.648)" fill="#0b2d61"/>
    <path id="Path_3195" data-name="Path 3195" d="M565.265,402.778a7.306,7.306,0,0,1-9.809-5.413l-25.7-3.652,8.937-10.107,23.04,5.017a7.346,7.346,0,0,1,3.536,14.154Z" transform="translate(-299.532 -223.218)" fill="#a0616a"/>
    <path id="Path_3196" data-name="Path 3196" d="M446.438,299.15c2.073-1.384,4.427-2.033,6.322-3.881,6.919,4.982,7.428-3.13,13.7,9.074s28.636,41.627,38.065,50.474,26.693,13.322,31.7,16.435a60.9,60.9,0,0,0,9.168,4.5c-2.007,3.91-3.12,8.194-5.629,11.93-14.178-1.737-32.767-7.411-43.221-10.184s-6.478-.707-10.777-3.959-.745-1.753-5.749-3.073-8.819-7.947-10.327-13.067c-3.593-3.671-6.672-7.638-10.227-11.272C455.352,330.42,450.782,314.783,446.438,299.15Z" transform="translate(-289.382 -212.33)" fill="#0b2d61"/>
    <circle id="Ellipse_202" data-name="Ellipse 202" cx="21.039" cy="21.039" r="21.039" transform="translate(152.346 21.06)" fill="#a0616a"/>
    <path id="Path_3197" data-name="Path 3197" d="M474.061,282.149c-1-1.424-8.453-15.545-10.669-20.885a24.425,24.425,0,0,0-.43,3.5l-.022.439-.436.056c-.655.084-16.129,1.962-24.181-7.169-4.771-5.409-5.853-13.522-3.22-24.118a4.2,4.2,0,0,1-1.356-.522,5.822,5.822,0,0,1-2.482-4.229l-.446.12c-14.326-6.971-1.984-27.365,11.1-17.225a6.323,6.323,0,0,1,3.455.2,6.41,6.41,0,0,1,3.957,5.244c6.761-3.556,15.709-2.978,20.337-.309,1.938,1.117,3.05,2.525,3.248,4.094,5.466.305,11.345,5.63,11.345,13.174v.525h-.525a12.127,12.127,0,0,0-10.565,6.655,15.453,15.453,0,0,0,.475,15.767,22.233,22.233,0,0,1,3.068,17l-1.974,8.65Z" transform="translate(-286.62 -201.593)" fill="#273a57"/>
    <circle id="Ellipse_203" data-name="Ellipse 203" cx="9.31" cy="9.31" r="9.31" transform="translate(272.909 340.42)" fill="#273a57"/>
    <circle id="Ellipse_204" data-name="Ellipse 204" cx="9.31" cy="9.31" r="9.31" transform="translate(335.251 349.833)" fill="#273a57"/>
    <circle id="Ellipse_205" data-name="Ellipse 205" cx="9.31" cy="9.31" r="9.31" transform="translate(397.592 338.668)" fill="#273a57"/>
  </g>
</svg>
