<svg xmlns="http://www.w3.org/2000/svg" width="610" height="605.845" viewBox="0 0 610 605.845">
  <g id="hybrid-app-development" transform="translate(-58.257 0)">
    <path id="Path_4658" data-name="Path 4658" d="M250.1,742.414c36,23.092,80.974,21.92,124.215,16.509,6.038-.755,12.029-1.582,17.962-2.445.036-.011.083-.011.119-.022.285-.043.571-.086.844-.117,1.224-.182,2.449-.363,3.662-.545l-.258.565-.812,1.754c.294-.588.588-1.165.882-1.753.086-.176.184-.353.27-.529,10.188-20.175,20.245-41.064,21.883-63.562,1.688-23.351-7.994-49.166-29.022-59.463a41.251,41.251,0,0,0-8.643-3.083c-1.241-.3-2.494-.539-3.76-.738-13.241-1.961-27.421,2.029-37.274,11.167-13.033,12.11-17.59,32.484-10.969,49-18.264-16.811-16.59-45.773-11.92-70.154s10.477-51.544-2.855-72.5c-7.412-11.663-19.707-18.483-33.215-20.769-.414-.066-.828-.132-1.242-.187-15.678-2.321-32.831,1.383-45.853,10.611-24.65,17.459-36.11,48.656-38.751,78.753C191.107,663.339,209.172,716.157,250.1,742.414Z" transform="translate(-136.5 -157.828)" fill="#f2f2f2"/>
    <path id="Path_4659" data-name="Path 4659" d="M266,664.858a109.691,109.691,0,0,0,9.226,30.457A95.245,95.245,0,0,0,291.3,718.637c13.263,14.309,30.34,24.683,48.63,31.223a175.632,175.632,0,0,0,43.263,9.155c6.038-.755,12.029-1.582,17.963-2.445.035-.011.083-.011.119-.022.285-.043.571-.086.844-.117,1.224-.182,2.449-.363,3.662-.545l-.258.565-.812,1.754c.294-.588.588-1.165.882-1.753.086-.176.184-.353.27-.529a96.229,96.229,0,0,1-15.782-126.108c-1.241-.305-2.494-.539-3.76-.738a101.52,101.52,0,0,0-8.42,15.815,99.477,99.477,0,0,0-5.233,62.258,101.7,101.7,0,0,0,28.466,49.265c-1.162-.019-2.336-.05-3.486-.093-21.766-.666-43.641-4.156-63.809-12.636-17.034-7.147-32.677-18.15-44.349-32.552-12.79-15.772-19.1-35.233-21.085-55.252-2.116-21.433-.509-43.445,3.266-64.6a270.026,270.026,0,0,1,19.323-62.94,1.942,1.942,0,0,0-.908-2.518,1.651,1.651,0,0,0-1.242-.186,1.437,1.437,0,0,0-.9.863c-1.108,2.485-2.193,4.969-3.231,7.479a273.088,273.088,0,0,0-17.889,65.181C263.666,620.755,262.574,643.226,266,664.858Z" transform="translate(-145.374 -157.92)" fill="#fff"/>
    <path id="Path_22" data-name="Path 22" d="M713.41,246.1h-3.331V154.928a52.792,52.792,0,0,0-52.816-52.769H463.928a52.793,52.793,0,0,0-52.816,52.769V655.106a52.792,52.792,0,0,0,52.816,52.769H657.263a52.792,52.792,0,0,0,52.815-52.768V311h3.331Z" transform="translate(-211.589 -102.16)" fill="#0b2d61"/>
    <path id="Path_23" data-name="Path 23" d="M661.541,117.918H636.306a18.723,18.723,0,0,1-17.352,25.792H508.195a18.723,18.723,0,0,1-17.35-25.792h-23.57a39.424,39.424,0,0,0-39.443,39.406V656.753a39.424,39.424,0,0,0,39.443,39.406H661.541a39.424,39.424,0,0,0,39.442-39.406h0V157.323a39.424,39.424,0,0,0-39.442-39.4Z" transform="translate(-213.737 -104.182)" fill="#fff"/>
    <path id="Path_4660" data-name="Path 4660" d="M976.125,772.816c-14.01,10.093-32.167,10.6-49.717,9.36-2.451-.173-4.884-.376-7.295-.595-.015,0-.034,0-.048-.006-.116-.011-.232-.022-.343-.029l-1.488-.14.116.222.365.689c-.131-.231-.263-.457-.394-.687-.039-.069-.082-.138-.12-.208-4.546-7.912-9.056-16.114-10.206-25.148-1.189-9.377,2.152-19.995,10.405-24.6a16.654,16.654,0,0,1,3.417-1.431c.494-.15.994-.272,1.5-.379a17.85,17.85,0,0,1,20.759,23.2c7-7.175,5.692-18.814,3.278-28.542s-5.346-20.551-.427-29.288a19.313,19.313,0,0,1,12.938-9.1c.166-.036.331-.071.5-.1a26.051,26.051,0,0,1,18.716,3.279c10.317,6.5,15.617,18.829,17.336,30.9C998.187,739.653,992.05,761.34,976.125,772.816Z" transform="translate(-327.801 -177.577)" fill="#f2f2f2"/>
    <path id="Path_4661" data-name="Path 4661" d="M973.138,741.741a44.284,44.284,0,0,1-3.056,12.479,38.451,38.451,0,0,1-5.97,9.752,49.27,49.27,0,0,1-18.925,13.646,70.911,70.911,0,0,1-17.242,4.633c-2.451-.173-4.884-.376-7.295-.595-.015,0-.034,0-.048-.006-.116-.011-.232-.022-.343-.029l-1.488-.14.116.222.365.69c-.131-.231-.263-.457-.394-.687-.039-.069-.082-.138-.12-.208a38.851,38.851,0,0,0,3.617-51.183c.494-.15.994-.272,1.5-.379a40.987,40.987,0,0,1,3.739,6.193,40.161,40.161,0,0,1,3.465,24.985,41.06,41.06,0,0,1-10.4,20.48c.468-.033.941-.071,1.4-.113A72,72,0,0,0,947.507,775a45.833,45.833,0,0,0,17.17-14.089c4.812-6.637,6.933-14.62,7.3-22.734a95.937,95.937,0,0,0-2.723-25.973,109.017,109.017,0,0,0-9.16-24.953.784.784,0,0,1,.311-1.035.667.667,0,0,1,.5-.1.58.58,0,0,1,.383.328c.5.978.992,1.956,1.465,2.945a110.252,110.252,0,0,1,8.631,25.888A88.746,88.746,0,0,1,973.138,741.741Z" transform="translate(-329.339 -177.652)" fill="#fff"/>
    <path id="Path_4663" data-name="Path 4663" d="M637.291,678.227H626.605l-5.084-41.218h15.772Z" transform="translate(-72.842 -82.304)" fill="#ffb8b8"/>
    <path id="Path_4664" data-name="Path 4664" d="M616.685,680.793h20.609v12.976H603.71A12.976,12.976,0,0,1,616.685,680.793Z" transform="translate(-70.46 -87.924)" fill="#01183a"/>
    <path id="Path_4665" data-name="Path 4665" d="M683.291,678.227H672.605l-5.084-41.218h15.772Z" transform="translate(-78.747 -82.304)" fill="#ffb8b8"/>
    <path id="Path_4666" data-name="Path 4666" d="M662.685,680.793h20.609v12.976H649.71A12.976,12.976,0,0,1,662.685,680.793Z" transform="translate(-76.46 -87.924)" fill="#01183a"/>
    <path id="Path_4667" data-name="Path 4667" d="M873.315,628.816a9.364,9.364,0,0,1-1.8-14.245l-7.036-99.853,20.268,1.966.557,97.787a9.415,9.415,0,0,1-11.991,14.346Z" transform="translate(-270.076 -155.509)" fill="#ffb8b8"/>
    <path id="Path_4668" data-name="Path 4668" d="M827.131,743.868l-11.764-.561a3.921,3.921,0,0,1-3.736-3.89l-.821-119.029a3.923,3.923,0,0,1,4.486-3.91l47.063,6.832a3.9,3.9,0,0,1,3.359,3.853l6.053,110.293a3.923,3.923,0,0,1-3.922,3.952H855.166a3.9,3.9,0,0,1-3.875-3.313l-7.825-49.742a3.051,3.051,0,0,0-6.043.112l-6.212,51.952a3.937,3.937,0,0,1-3.9,3.457Q827.225,743.873,827.131,743.868Z" transform="translate(-263.187 -168.71)" fill="#01183a"/>
    <path id="Path_4669" data-name="Path 4669" d="M835.222,610.929c-10.372-5.763-18.476-7.277-22.384-7.667a3.851,3.851,0,0,1-2.662-1.458,3.9,3.9,0,0,1-.812-2.965l11.277-83.722a28.955,28.955,0,0,1,16.878-22.625,28.159,28.159,0,0,1,27.366,2.145q.58.386,1.138.787a28.919,28.919,0,0,1,11.014,30.135c-6.915,28.289-9.291,74.667-9.7,83.677a3.892,3.892,0,0,1-2.544,3.491,39.3,39.3,0,0,1-13.271,2.363,33.231,33.231,0,0,1-16.3-4.162Z" transform="translate(-262.996 -152.31)" fill="#0b2d61"/>
    <path id="Path_4670" data-name="Path 4670" d="M869.285,547.131a3.906,3.906,0,0,1-1.62-2.964l-1.485-26.913a10.807,10.807,0,0,1,21.221-3.423l6.524,24.062a3.927,3.927,0,0,1-2.759,4.812l-18.558,5.032A3.907,3.907,0,0,1,869.285,547.131Z" transform="translate(-270.292 -154.313)" fill="#0b2d61"/>
    <circle id="Ellipse_478" data-name="Ellipse 478" cx="21.408" cy="21.408" r="21.408" transform="translate(560.25 286.101)" fill="#ffb8b8"/>
    <path id="Path_4671" data-name="Path 4671" d="M795.434,544.623a10.8,10.8,0,0,1-6.693-2.307l-36.424-28.735a8.927,8.927,0,0,1-.9.266,9.607,9.607,0,0,1-7.686-1.474,9.589,9.589,0,1,1,14.826-10.054h0a9.258,9.258,0,0,1,.2,1.266l37.028,21.362L805,519.641,815.2,533.005,801.7,542.631A10.786,10.786,0,0,1,795.434,544.623Z" transform="translate(-253.941 -152.905)" fill="#ffb8b8"/>
    <path id="Path_4672" data-name="Path 4672" d="M805.581,524.095a3.907,3.907,0,0,1,1.127-3.184l19.057-19.061a10.807,10.807,0,0,1,16.708,13.525L828.9,536.286a3.927,3.927,0,0,1-5.426,1.155l-16.129-10.467A3.907,3.907,0,0,1,805.581,524.095Z" transform="translate(-262.513 -153.385)" fill="#0b2d61"/>
    <path id="Path_4673" data-name="Path 4673" d="M851.762,471a3.464,3.464,0,0,0,4.96.285,38.724,38.724,0,0,0,11.046-14.425c2.783-6.634,3.191-14.73.023-20.948-2.678-5.257-7.484-8.6-12.283-11.338a20.042,20.042,0,0,0-5.969-2.523,7.839,7.839,0,0,0-6.236,1.226,6.576,6.576,0,0,0-2.508,6.3,19.485,19.485,0,0,0-8.544-6.412,9.906,9.906,0,0,0-6.584-.441c-3.082,1.029-5.363,4.141-6.632,7.484a16.683,16.683,0,0,0-1.094,8.075,9.7,9.7,0,0,0,3.721,6.687c2.514,1.734,5.752,1.558,8.676.791s5.761-2.069,8.735-2.432,6.271.424,8.043,3.077c1.248,1.868,1.542,4.329,1.8,6.675l1.324,12.2a16.163,16.163,0,0,0,1.114,5.09A2.832,2.832,0,0,0,851.762,471Z" transform="translate(-264.088 -143.466)" fill="#1e1e1e"/>
    <g id="hybrid-icon" transform="translate(255.354 414.521)">
      <path id="Path_4751" data-name="Path 4751" d="M82.08-208.481l-12.708,4.342-25.733.318L17.8-203.4l.635,8.684c.424,4.765,1.165,13.873,1.694,20.332l2.118,25.415c.635,7.519,1.588,19.273,2.118,25.945.635,6.672,2.224,26.9,3.706,45.006,1.377,18.108,2.859,36.323,3.283,40.559.318,4.448,1.165,7.942,1.8,8.154.741.212,7.73,2.33,15.567,4.765S68.313-18.5,74.667-16.6c21.815,6.777,19.591,6.672,33.358,2.33,6.672-2.012,20.756-6.354,31.24-9.531l19.061-5.824.741-6.672c.424-3.706,2.012-22.238,3.495-41.194s3.177-39.711,3.706-46.065c.529-6.46,1.483-17.9,2.118-25.415l2.118-25.415c.529-6.46,1.271-15.567,1.694-20.438l.635-8.684h-47.76l-13.555-4.13c-7.519-2.33-14.3-4.448-15.143-4.765C95.528-212.611,89.069-210.916,82.08-208.481Zm3.177,35.264c0,2.753-.424,3.071-3.706,3.389-2.012.212-4.024.953-4.448,1.588-.424.741-.847,7.836-.847,15.779v14.614h37.064l-.106-10.907c0-5.93-.424-12.919-.741-15.567-.741-4.554-.953-4.765-5.189-5.613-3.918-.741-4.554-1.271-4.554-3.495v-2.542h37.064v2.542c0,2.647-1.694,3.812-5.824,3.812-1.271,0-2.753.741-3.071,1.694-.847,2.118-.847,70.739,0,72.857.318.953,1.8,1.694,3.071,1.694,4.13,0,5.824,1.165,5.824,3.812v2.542H102.729v-2.542c0-2.224.635-2.753,4.554-3.495,4.236-.847,4.448-1.059,5.189-5.613.318-2.647.741-10.59.741-17.579.106-12.5,0-12.919-2.224-13.555-3.177-.847-11.543-.741-24.356.106l-10.378.635v16.52c0,9.107.424,17.049.847,17.791.424.635,2.436,1.377,4.448,1.588,3.283.318,3.706.635,3.706,3.283v3.071h-36v-3.071c0-2.647.424-2.965,4.236-3.495l4.236-.529v-75.187l-4.236-.529c-2.965-.424-4.342-1.059-4.554-2.436-.847-4.236-.106-4.448,18.426-4.342l17.9.212ZM54.017-75.686c0,3.918.318,4.659,1.271,3.706a6.512,6.512,0,0,1,4.024-1.271c4.448,0,5.295,1.8,5.295,11.331,0,8.684,0,8.789-2.647,8.789-2.542,0-2.647-.212-2.647-7.413,0-5.824-.318-7.413-1.588-7.413-2.33,0-3.706,3.495-3.706,9.425,0,5.083-.212,5.4-2.647,5.4H48.722V-80.663h2.647C53.805-80.663,54.017-80.239,54.017-75.686Zm35.476-.529c0,3.6.212,3.812,2.753,3.283,4.659-.847,7.307,2.647,7.307,9.743,0,5.083-.424,6.354-2.753,8.472A10.061,10.061,0,0,1,85.68-53.13c-1.8-1.059-2.012-2.33-2.012-14.4V-80.769l2.965.318C89.175-80.134,89.492-79.71,89.492-76.215Zm30.5-3.177c.741,2.436-.424,4.024-3.071,4.024-1.8,0-2.542-.635-2.542-1.906a4.155,4.155,0,0,1,.741-2.647C116.284-81.193,119.461-80.769,119.991-79.392Zm18.744,12.5v13.661l-2.859-.106a19.963,19.963,0,0,0-5.295.741c-3.706,1.165-7.73-3.495-7.73-9,0-7.307,3.177-11.649,8.578-11.649,1.483,0,2.012-.741,2.012-2.965,0-3.495.741-4.448,3.389-4.448C138.629-80.663,138.734-79.5,138.734-66.9Zm-65.656-.529,1.8,5.295,1.483-5.295c1.165-4.13,2.118-5.4,3.918-5.613,3.071-.424,3.071,1.059-.847,13.555-3.706,12.072-5.93,15.461-9.319,14.4-2.859-.953-2.965-2.224-.212-4.554,2.753-2.436,2.647-3.6-1.059-13.343A94.27,94.27,0,0,1,65.665-72.3c0-.635,1.271-.953,2.859-.741C70.854-72.827,71.6-71.874,73.078-67.426Zm39.394-5.189c1.271,1.165-.529,4.659-2.33,4.659-2.436,0-3.177,2.118-3.177,9.107,0,4.977-.212,5.718-2.118,5.718-2.012,0-2.118-.741-2.118-9.637V-72.4l2.542.635c1.483.318,2.965.212,3.283-.424A2.831,2.831,0,0,1,112.472-72.615Zm7.2,10.06c0,9.319-.106,9.531-2.33,9.213-2.33-.318-2.436-.847-2.753-9.637l-.318-9.213h2.753C119.673-72.191,119.673-72.191,119.673-62.555Z" transform="translate(0)" fill="#317cd9"/>
      <path id="Path_4752" data-name="Path 4752" d="M85.92-75.266c-.635,10.06-.635,9.954,1.588,9.637,1.906-.318,2.224-1.059,2.224-5.083,0-3.706-.424-4.765-1.8-5.083C86.873-76.007,86.026-75.8,85.92-75.266Z" transform="translate(3.996 8.052)" fill="#317cd9"/>
      <path id="Path_4753" data-name="Path 4753" d="M122.418-74.517a14.63,14.63,0,0,0-.212,5.083c.212,2.647.847,3.495,2.436,3.495,1.8,0,2.118-.847,2.436-5.083.318-4.448.106-4.977-1.906-4.977A3.039,3.039,0,0,0,122.418-74.517Z" transform="translate(6.15 8.045)" fill="#317cd9"/>
    </g>
  </g>
</svg>
