<svg id="logo-design" xmlns="http://www.w3.org/2000/svg" width="510" height="435.152" viewBox="0 0 510 435.152">
  <path id="Path_4479" data-name="Path 4479" d="M835.911,511.038a8.376,8.376,0,0,0-5.3-11.7l-1.853-29.709-12.358,9.3,3.655,26.786a8.422,8.422,0,0,0,15.858,5.319Z" transform="translate(-430.902 -235.702)" fill="#ffb8b8"/>
  <path id="Path_4480" data-name="Path 4480" d="M670.2,463.144l9.817,2.815,15.529-36.525L681.06,425.28Z" transform="translate(-211.191 -71.028)" fill="#ffb8b8"/>
  <path id="Path_4481" data-name="Path 4481" d="M0,0H32.1V12.4H12.4A12.4,12.4,0,0,1,0,0H0Z" transform="matrix(-0.961, -0.276, 0.276, -0.961, 485.152, 409.476)" fill="#0b2d61"/>
  <path id="Path_4482" data-name="Path 4482" d="M648.3,503.12H638.086l-4.859-39.39H648.3Z" transform="translate(-205.015 -77.449)" fill="#ffb8b8"/>
  <path id="Path_4483" data-name="Path 4483" d="M627.817,507.514h19.7v12.4h-32.1a12.4,12.4,0,0,1,12.4-12.4Z" transform="translate(-202.04 -84.762)" fill="#0b2d61"/>
  <path id="Path_4484" data-name="Path 4484" d="M851.368,506.183s-5.831,23.324,4.165,70.8l7.5,81.633,19.159.833-2.5-88.3,6.664-36.651,16.66,50.812-5.831,35.818,14.161,6.664,15.827-49.146s-1.666-68.3-8.33-76.635Z" transform="translate(-436.328 -241.111)" fill="#0b2d61"/>
  <circle id="Ellipse_468" data-name="Ellipse 468" cx="20.459" cy="20.459" r="20.459" transform="translate(418.773 91.294)" fill="#ffb8b8"/>
  <path id="Path_4485" data-name="Path 4485" d="M864.7,359.132s-1.249,2.748,13.744,1.05,18.326-6.664,18.326-6.664l26.239,115.1L921.344,478.8l-71.637,4.244V468.619L862.2,392.233Z" transform="translate(-436.333 -216.31)" fill="#e6e6e6"/>
  <path id="Path_4486" data-name="Path 4486" d="M868.464,480.408l-22.709-.429-.073-.316A119.315,119.315,0,0,1,846.514,432c4.586-20.31-5.835-47.854-10.529-58.753a5.846,5.846,0,0,1,2.358-7.3l16.075-9.644a8.185,8.185,0,0,1,12.143,5l2.811,11.026c12.944,13.919,12.037,42.468,8.99,63.989a302.479,302.479,0,0,1-9.8,43.8Z" transform="translate(-433.963 -216.579)" fill="#273a57"/>
  <path id="Path_4487" data-name="Path 4487" d="M838.946,365.518l-1.964,1.344a24.663,24.663,0,0,0-9.492,12.48,59.562,59.562,0,0,0-2.287,9.083c-1.666,10-9.163,52.478-9.163,52.478l-3.332,41.649,18.326-4.165,8.33-48.313,8.33-29.987Z" transform="translate(-430.273 -218.314)" fill="#273a57"/>
  <path id="Path_4488" data-name="Path 4488" d="M918.524,479.49l-.173-.479c-1.191-3.3-28.991-81.079-15.861-108.5L901.2,357.644a8.36,8.36,0,0,1,10.845-8.8l20.09,6.369a4.028,4.028,0,0,1,2.828,3.9c-.083,7.394-.492,26.237-2.483,41.506-2.462,18.876,5.745,66.039,5.828,66.514l.049.28Z" transform="translate(-444.562 -215.463)" fill="#273a57"/>
  <path id="Path_4489" data-name="Path 4489" d="M911.814,474.172a8.376,8.376,0,0,1,10.005-8.054l15.045-25.684,6.838,13.875-15.336,22.263a8.422,8.422,0,0,1-16.553-2.4Z" transform="translate(-446.706 -230.826)" fill="#ffb8b8"/>
  <path id="Path_4490" data-name="Path 4490" d="M932.785,356.518l1.077.249a8.242,8.242,0,0,1,5.879,5.176l18.45,49.969-21.658,47.48-7.913-19.575,10-21.658-17.909-22.907Z" transform="translate(-448.191 -216.81)" fill="#273a57"/>
  <path id="Path_4491" data-name="Path 4491" d="M896.393,320.047a50.545,50.545,0,0,0,2.627-9.375,16.9,16.9,0,0,0-1.091-9.546,20.755,20.755,0,0,0-5.641-6.763,53.022,53.022,0,0,0-5.048-3.8c-4.95-3.283-6.027-.3-11.964-.968s-12.59-2.379-17.349,1.164a19.427,19.427,0,0,0-7,20.535c1.327,4.514.271,6,4.367,8.442a15.977,15.977,0,0,1,4.322-10.938,16.617,16.617,0,0,1,10.778-5.1,33.312,33.312,0,0,1,9.393,1.114c3,.65,6.079,1.332,8.622,3.022,4.214,2.8,6.189,7.8,7.926,12.489" transform="translate(-436.424 -205.466)" fill="#444"/>
  <rect id="Rectangle_557" data-name="Rectangle 557" width="363" height="2" transform="translate(0 194)" fill="#273a57"/>
  <rect id="Rectangle_558" data-name="Rectangle 558" width="363" height="2" transform="translate(0 129)" fill="#273a57"/>
  <rect id="Rectangle_559" data-name="Rectangle 559" width="363" height="2" transform="translate(0 64)" fill="#273a57"/>
  <rect id="Rectangle_560" data-name="Rectangle 560" width="1.666" height="259.891" transform="translate(290.067)" fill="#273a57"/>
  <rect id="Rectangle_561" data-name="Rectangle 561" width="1.666" height="259.891" transform="translate(217.341)" fill="#273a57"/>
  <rect id="Rectangle_562" data-name="Rectangle 562" width="1.666" height="259.891" transform="translate(144.616)" fill="#273a57"/>
  <rect id="Rectangle_563" data-name="Rectangle 563" width="1.666" height="259.891" transform="translate(71.803)" fill="#273a57"/>
  <rect id="Rectangle_564" data-name="Rectangle 564" width="146" height="65" transform="translate(72 65)" fill="#fff"/>
  <path id="Path_4492" data-name="Path 4492" d="M409.215,338.862" transform="translate(-263.33 -213.862)" fill="#536dfe"/>
  <path id="Path_4493" data-name="Path 4493" d="M87,150v69.971L162.8,152.5Z" transform="translate(-14.53 -25.052)" fill="#fff"/>
  <path id="Path_4494" data-name="Path 4494" d="M481.6,341.3v2.5l-.95.841-1.916,1.7c-37.259,1.125-67.355,27.813-68.713,60.908l-1.707,1.516-.017.008V338.8Z" transform="translate(-263.153 -213.851)" fill="#fff"/>
  <path id="Path_4495" data-name="Path 4495" d="M481.179,345.8c-.175,0-.358,0-.533.008-39.633.25-71.845,28.838-72.336,64.123-.017.283-.017.558-.017.841,0,35.827,32.695,64.973,72.886,64.973s72.886-29.146,72.886-64.973S521.371,345.8,481.179,345.8Zm0,128.28c-39.267,0-71.22-28.4-71.22-63.307,0-.791.017-1.574.058-2.357,1.358-33.095,31.454-59.783,68.713-60.908.808-.033,1.624-.042,2.449-.042,39.267,0,71.22,28.4,71.22,63.307S520.446,474.079,481.179,474.079Z" transform="translate(-263.121 -215.02)" fill="#273a57"/>
  <path id="Path_4496" data-name="Path 4496" d="M446.958,414.871l-4.165-.023c0-.371.669-37.052,43.275-39.6l.248,4.158C447.675,381.718,446.97,413.519,446.958,414.871Z" transform="translate(-268.888 -219.939)" fill="#273a57"/>
  <path id="Path_4497" data-name="Path 4497" d="M529.408,414.44a35.432,35.432,0,0,0-11.645-25.081,44.512,44.512,0,0,0-30.321-11.62h-.083c-22.882,0-41.558,16.385-42.049,36.7-.017.275-.017.558-.017.833,0,10.629,4.973,20.233,12.953,27.064a44.684,44.684,0,0,0,29.113,10.471h.083c23.157-.042,41.982-16.86,41.982-37.534C529.425,415,529.425,414.715,529.408,414.44Z" transform="translate(-269.285 -220.354)" fill="#273a57"/>
  <path id="Path_4498" data-name="Path 4498" d="M517.763,389.359l-1.249,1.108L459.5,441.229l-1.249,1.108c-7.98-6.83-12.953-16.435-12.953-27.064,0-.275,0-.558.017-.833.491-20.316,19.167-36.7,42.049-36.7h.083a44.512,44.512,0,0,1,30.321,11.62Z" transform="translate(-269.29 -220.354)" fill="#fff"/>
</svg>
