<svg xmlns="http://www.w3.org/2000/svg" width="610" height="474.549" viewBox="0 0 610 474.549">
  <g id="Sitemap" transform="translate(-365.318)">
    <rect id="Rectangle_393" data-name="Rectangle 393" width="438.438" height="1.945" transform="translate(485.499 11.109)" fill="#273a57"/>
    <rect id="Rectangle_394" data-name="Rectangle 394" width="1.945" height="61.82" transform="translate(544.17 11.841)" fill="#273a57"/>
    <path id="Path_3536" data-name="Path 3536" d="M712.378,123H612.156V12.113H614.1V121.05h98.277Z" transform="translate(-6.719 -0.332)" fill="#273a57"/>
    <rect id="Rectangle_395" data-name="Rectangle 395" width="1.945" height="61.82" transform="translate(671.311 11.841)" fill="#273a57"/>
    <rect id="Rectangle_396" data-name="Rectangle 396" width="1.945" height="61.82" transform="translate(703.955 121.767)" fill="#273a57"/>
    <rect id="Rectangle_397" data-name="Rectangle 397" width="1.945" height="61.82" transform="translate(804.69 11.841)" fill="#273a57"/>
    <rect id="Rectangle_398" data-name="Rectangle 398" width="1.945" height="61.82" transform="translate(871.398 11.841)" fill="#273a57"/>
    <rect id="Rectangle_399" data-name="Rectangle 399" width="36.936" height="14.391" transform="translate(526.906 83.133)" fill="#fff"/>
    <rect id="Rectangle_400" data-name="Rectangle 400" width="36.936" height="14.391" transform="translate(653.364 83.133)" fill="#8aa1c5"/>
    <rect id="Rectangle_401" data-name="Rectangle 401" width="36.936" height="14.391" transform="translate(787.605 83.133)" fill="#273a57"/>
    <rect id="Rectangle_402" data-name="Rectangle 402" width="36.936" height="14.391" transform="translate(851.823 83.133)" fill="#fff"/>
    <rect id="Rectangle_403" data-name="Rectangle 403" width="36.936" height="14.391" transform="translate(938.382 5.312)" fill="#fff"/>
    <rect id="Rectangle_404" data-name="Rectangle 404" width="36.936" height="14.391" transform="translate(686.438 192.081)" fill="#8aa1c5"/>
    <rect id="Rectangle_405" data-name="Rectangle 405" width="59.212" height="23.069" transform="translate(413.618)" fill="#fff"/>
    <g id="Group_626" data-name="Group 626" transform="translate(365.318 80.671)">
      <path id="Path_3537" data-name="Path 3537" d="M282.481,240.984l3.868,34.893,49.407.851-5.963-41.741Z" transform="translate(-207.435 -116.208)" fill="#ffb7b7"/>
      <path id="Path_3538" data-name="Path 3538" d="M362.987,510.507a7.988,7.988,0,0,0-2.168-12.055l2.293-18.109-10.665-4.078-2.88,25.619a8.031,8.031,0,0,0,13.418,8.623Z" transform="translate(-310.2 -308.123)" fill="#ffb7b7"/>
      <path id="Path_3539" data-name="Path 3539" d="M351.976,506.3H362.42l4.968-40.283H351.974Z" transform="translate(-209.341 -122.546)" fill="#ffb7b7"/>
      <path id="Path_3540" data-name="Path 3540" d="M453.032,694.454H473.6a13.108,13.108,0,0,1,13.107,13.106v.427H453.033Z" transform="translate(-313.061 -314.109)" fill="#8aa1c5"/>
      <path id="Path_3541" data-name="Path 3541" d="M229.353,506.3H239.8l4.968-40.283H229.351Z" transform="translate(-205.977 -122.546)" fill="#ffb7b7"/>
      <path id="Path_3542" data-name="Path 3542" d="M330.408,694.454h20.568a13.108,13.108,0,0,1,13.107,13.106v.427H330.409Z" transform="translate(-309.697 -314.109)" fill="#8aa1c5"/>
      <path id="Path_3543" data-name="Path 3543" d="M348.605,493.691l4.593-53.137,13.4-48.532a18.331,18.331,0,0,1,15.825-13.29l.437-.042,2.381,36.427L368.105,450.33l-5.664,42.245Z" transform="translate(-310.196 -305.446)" fill="#0b2d61"/>
      <path id="Path_3544" data-name="Path 3544" d="M387.7,446.677l-7.035,12.662s-27.435,27.735-29.545,70.58l-25.47,145.826,23.6-.583,47.793-136.676,33.8,57.992,16.9,75.769,26.811-4.954-11.948-88.008L439.593,497.4l-2.331-44.587Z" transform="translate(-309.566 -307.312)" fill="#8aa1c5"/>
      <circle id="Ellipse_261" data-name="Ellipse 261" cx="20.922" cy="20.922" r="20.922" transform="translate(81.587 13.818)" fill="#ffb7b7"/>
      <path id="Path_3545" data-name="Path 3545" d="M329.037,385.642c3.887-7.593,5.214-16.214,8.205-24.2s8.427-15.913,16.668-18.115c4.674-1.249,9.642-.486,14.443-1.081,4.222-.523,8.767-2.678,10.384-6.428a26.481,26.481,0,0,1,1.362-10.986c3.012-8.558,10.194-15.313,18.568-18.806,6.8-2.837,14.634-3.638,21.58-1.175s12.776,8.485,14.025,15.748-2.755,15.373-9.658,17.953c-4.956,1.852-11.34,1.236-14.576,5.422-3.278,4.241-.928,10.421,2.049,14.878l-.2.207c-9.726.114-20.239-1.765-26.938-8.817a21.338,21.338,0,0,1-2-2.462c-.205.329-.42.65-.651.957-3.373,4.479-8.654,7.02-13.685,9.5s-10.25,5.254-13.272,9.978c-5.461,8.536-1.876,20.033-5,29.673a21.92,21.92,0,0,1-41.225,1.337C317.613,399.927,325.15,393.234,329.037,385.642Z" transform="translate(-309.113 -303.38)" fill="#202020"/>
      <path id="Path_3546" data-name="Path 3546" d="M466.644,510a7.988,7.988,0,0,0-7.5-9.685L452.8,483.2l-11.341,1.318,9.3,24.045A8.031,8.031,0,0,0,466.644,510Z" transform="translate(-312.744 -308.314)" fill="#ffb7b7"/>
      <path id="Path_3547" data-name="Path 3547" d="M385.814,449.453l-6.055-29.128-1.9-22.187a52.24,52.24,0,0,1,9.9-35.322l1.935-2.643,32.585,11.582L438.163,392.7c9.694,9.747,2.1,19.079,1.047,20.281l-.325,29.432-.366.049Z" transform="translate(-310.993 -304.938)" fill="#0b2d61"/>
      <path id="Path_3548" data-name="Path 3548" d="M446.933,500.86,422.7,445.022l-3.521-51.157-.71-10.752a10.276,10.276,0,0,1,20.439-2.039l7.628,57.027,13.13,56.891Z" transform="translate(-312.112 -305.267)" fill="#0b2d61"/>
    </g>
  </g>
</svg>
