<svg xmlns="http://www.w3.org/2000/svg" width="610" height="574.147" viewBox="0 0 610 574.147">
  <g id="graphic-designing" transform="translate(0)">
    <path id="Path_3342" data-name="Path 3342" d="M738.49,253.847a8.344,8.344,0,0,0,9.226,7.1,8.008,8.008,0,0,0,1.293-.282L766.4,284l14.95-4.657-27.282-29.4a8.321,8.321,0,0,0-8.716-5.219,7.963,7.963,0,0,0-6.894,8.905Q738.474,253.739,738.49,253.847Z" transform="translate(-293.041 -145.532)" fill="#a0616a"/>
    <path id="Path_3343" data-name="Path 3343" d="M862.389,359.464s-64.94-30.307-81.367-49.665l-29.435-36.548,14.929-12.213,27.668,31.869c-.252,6.7,32.45,13.562,50.031,23.322Z" transform="translate(-293.84 -146.816)" fill="#0b2d61"/>
    <path id="Path_3344" data-name="Path 3344" d="M634.057,605.619H621.319l-6.059-49.132h18.8Z" transform="translate(-49.542 -44.76)" fill="#a0616a"/>
    <path id="Path_3345" data-name="Path 3345" d="M886.745,759.476h-39.17v-.5a15.247,15.247,0,0,1,15.245-15.246h0l7.155-5.428,13.35,5.429h3.419Z" transform="translate(-301.782 -185.329)" fill="#8aa1c5"/>
    <path id="Path_3346" data-name="Path 3346" d="M599.988,593.483l-12.4,2.893-17.065-46.469,18.308-4.271Z" transform="translate(-45.841 -43.862)" fill="#a0616a"/>
    <path id="Path_3347" data-name="Path 3347" d="M856.964,747.128l-38.146,8.9-.112-.482a15.247,15.247,0,0,1,11.383-18.311h0l5.734-6.912,14.234,2.254,3.33-.777Z" transform="translate(-299.36 -184.669)" fill="#8aa1c5"/>
    <path id="Path_3348" data-name="Path 3348" d="M686.516,417.887H331.965a29.282,29.282,0,0,1-6.638-.841,29.636,29.636,0,0,1-22.713-28.9V267.63a29.766,29.766,0,0,1,29.746-29.719H686.516a29.361,29.361,0,0,1,13.707,3.355,28.485,28.485,0,0,1,4.754,3.1,29.417,29.417,0,0,1,11.285,23.262V388.142a29.779,29.779,0,0,1-29.746,29.745Z" transform="translate(-258.056 -144.908)" fill="#273a57"/>
    <path id="Path_3349" data-name="Path 3349" d="M695.235,420.766q24.147-58.688,50.876-116.216v65.024c-12.357,18.443-26.057,35.753-41.944,51.192Z" transform="translate(-289.551 -150.292)" fill="#fff"/>
    <path id="Path_3350" data-name="Path 3350" d="M729.9,246.935q-47.78,85.72-99.987,168.831h-6.06q53.077-84.416,101.727-171.651a25.9,25.9,0,0,1,4.32,2.82Z" transform="translate(-283.715 -145.409)" fill="#fff"/>
    <path id="Path_3351" data-name="Path 3351" d="M475.172,315.17A1074.175,1074.175,0,0,1,406.38,421.612H370.258q35.49-43.235,71.031-86.471c6.8-8.3,14.175-16.994,24.371-20.366Z" transform="translate(-263.364 -151.121)" fill="#fff"/>
    <path id="Path_3352" data-name="Path 3352" d="M426.506,307.69c-3.768,3.926-7.377,8.009-10.776,12.251-7.483,9.011-14.86,18.1-22.263,27.164-4.611,5.638-9.221,11.276-13.779,16.915a33.655,33.655,0,0,1-4.11-3.109,36.862,36.862,0,1,1,47.114-56.705,33.986,33.986,0,0,1,3.815,3.484Z" transform="translate(-262.743 -149.621)" fill="#0b2d61"/>
    <path id="Path_3353" data-name="Path 3353" d="M627.417,331.56l-69.24-25.319-34.383-12.567c-11.2-4.084-22.369-8.747-33.935-11.7a53.5,53.5,0,0,0-30.721.4,70.63,70.63,0,0,0-23.949,14.86q-4.585,4.229-8.879,8.721c-3.768,3.926-7.377,8.009-10.776,12.251-7.483,9.011-14.86,18.1-22.263,27.164-4.611,5.638-9.221,11.276-13.779,16.915q-22.843,27.941-45.422,56.014a26.4,26.4,0,0,1-6.007-.764q23.554-29.245,47.319-58.358c1.818-2.266,3.688-4.558,5.533-6.824Q392.494,338.16,404.1,324c5.981-7.3,11.909-14.649,18.39-21.525.58-.632,1.159-1.238,1.765-1.871,13.147-13.595,29.561-25.609,49.216-25.925,11.566-.184,22.737,3.478,33.487,7.351,11.566,4.189,23.106,8.457,34.673,12.7l69.714,25.5,17.442,6.376C631.869,327.713,630.552,332.719,627.417,331.56Z" transform="translate(-260.161 -147.874)" fill="#fff"/>
    <path id="Path_3354" data-name="Path 3354" d="M255.871,277.557V205.208a8.526,8.526,0,0,1,8.521-8.512h93.753v-1.835H264.392a10.363,10.363,0,0,0-10.356,10.347v72.349Z" transform="translate(-254.036 -141.649)" fill="#fff"/>
    <path id="Path_3355" data-name="Path 3355" d="M262.379,467.638a8.491,8.491,0,0,1-6.508-8.281v-72.34h-1.835v72.34a10.318,10.318,0,0,0,7.907,10.063,10.2,10.2,0,0,0,2.311.293h93.891v-1.835H264.266A8.377,8.377,0,0,1,262.379,467.638Z" transform="translate(-254.036 -156.947)" fill="#fff"/>
    <path id="Path_3356" data-name="Path 3356" d="M711.811,387.016v72.34a8.531,8.531,0,0,1-8.521,8.521H609.536v1.835h93.753a10.367,10.367,0,0,0,10.356-10.356v-72.34Z" transform="translate(-282.569 -156.947)" fill="#fff"/>
    <path id="Path_3357" data-name="Path 3357" d="M710.217,197.658a8.124,8.124,0,0,1,1.358.888,8.424,8.424,0,0,1,3.236,6.663v72.349h1.835v-72.35a10.242,10.242,0,0,0-3.929-8.1,9.916,9.916,0,0,0-1.655-1.08,10.222,10.222,0,0,0-4.772-1.168H612.537V196.7H706.29a8.41,8.41,0,0,1,3.927.962Z" transform="translate(-282.81 -141.649)" fill="#fff"/>
    <path id="Path_3358" data-name="Path 3358" d="M893.872,486.821l-79.253,3.972-5.5,26.6v23.693l-3.378,88.22L829.3,698.095h18.887l-1.918-8.714h0a9.093,9.093,0,0,0,.313-10.111l-1.515-2.422-2.467-10.4-5.5-38.525,23.571-86.837,3.03,158.383H884.21l3.009-3.437a11.53,11.53,0,0,0,.91-14h0v-3.841l-2.423-13.575L908.32,496.105Z" transform="translate(-298.32 -164.522)" fill="#8aa1c5"/>
    <path id="Path_3359" data-name="Path 3359" d="M859.185,306.795l-25.853,1.324-2.937,12.253L811.621,334.74a28.662,28.662,0,0,0-10.7,28.29l10.406,52.941-.677,33.135,1.5,13.569-.114,2.054-2.3,1.882a8.9,8.9,0,0,0-2.318,10.875h0s-11.329,24.493,5.063,25.739,26.532-15.8,42.194-9.173,29.645,7.4,33.939,0,17.357-5.678,18.927-12.145-6.382-13.788-7.451-23.428-3.82-54.586-3.82-54.586l7.7-44.127a29.231,29.231,0,0,0-16-31.3l-24.638-12Z" transform="translate(-297.877 -150.379)" fill="#0b2d61"/>
    <path id="Path_3360" data-name="Path 3360" d="M717.624,455.271a9.494,9.494,0,0,1,12.369-4.729,9.111,9.111,0,0,1,1.318.729l26.565-19.781,14.781,9.948L733.336,464.6a9.467,9.467,0,0,1-11.2,2.85,9.06,9.06,0,0,1-4.614-11.954Q717.571,455.383,717.624,455.271Z" transform="translate(-291.273 -160.58)" fill="#a0616a"/>
    <path id="Path_3361" data-name="Path 3361" d="M802.467,343.683s-34.436,62.7-47.771,81.145l-10.123,7.907.917,25.844L768.111,446.1s45.648-34.577,44.339-48.974S802.467,343.683,802.467,343.683Z" transform="translate(-293.26 -153.43)" fill="#0b2d61"/>
    <circle id="Ellipse_230" data-name="Ellipse 230" cx="24.428" cy="24.428" r="24.428" transform="translate(521.76 105.215)" fill="#a0616a"/>
    <path id="Path_3362" data-name="Path 3362" d="M854.688,297.406c-7.01-.23-7.647-2.082-14.657-2.312-2.232-.073-4.866-.379-5.945-2.334a5.152,5.152,0,0,1,.262-4.586,41.878,41.878,0,0,0,2.159-4.248,7.42,7.42,0,0,0-7.352-9.782c-2.133.092-4.137,1.1-6.264,1.279-2.917.251-9.369-9.381-8.026-11.984,1.307-2.533,3.939-4.444,4.352-7.264.271-1.845-.491-3.677-.595-5.539-.154-2.76,6.842,3.463,5.561,1.014-3.143-6.009,26.475-13.458,31.351-5.931,1.822,2.813,5.07,2.621,7.965,4.31,1.9,1.107,6.688,4.927,7.777,7.308a18.536,18.536,0,0,1,1.387,7.67c.044,12.213-1.817,23.446-11.668,30.665" transform="translate(-299.06 -145.354)" fill="#343434"/>
    <path id="Path_3365" data-name="Path 3365" d="M411.324,555.1a24,24,0,1,1,24-24A24,24,0,0,1,411.324,555.1Z" transform="translate(-264.767 -166.653)" fill="#0b2d61"/>
    <path id="Path_3366" data-name="Path 3366" d="M421.891,529.831h-7.1v-7.1a2.367,2.367,0,0,0-4.735,0v7.1h-7.1a2.367,2.367,0,0,0,0,4.735h7.1v7.1a2.367,2.367,0,1,0,4.735,0v-7.1h7.1a2.367,2.367,0,1,0,0-4.735Z" transform="translate(-265.848 -167.758)" fill="#fff"/>
    <path id="Path_3367" data-name="Path 3367" d="M487.871,555.1a24,24,0,1,1,24-24A24,24,0,0,1,487.871,555.1Z" transform="translate(-270.93 -166.653)" fill="#0b2d61"/>
    <path id="Path_3368" data-name="Path 3368" d="M498.438,530.685H479.5a2.367,2.367,0,0,0,0,4.735h18.939a2.367,2.367,0,1,0,0-4.735Z" transform="translate(-272.018 -168.618)" fill="#fff"/>
    <path id="Path_3369" data-name="Path 3369" d="M564.419,555.1a24,24,0,1,1,24-24A24,24,0,0,1,564.419,555.1Z" transform="translate(-277.093 -166.653)" fill="#0b2d61"/>
    <path id="Path_3370" data-name="Path 3370" d="M579.017,531.048l-6.8-9.931a2.018,2.018,0,1,0-3.329,2.281l4.4,6.422H556.046a2.367,2.367,0,0,0,0,4.735H573.5l-4.617,6.738a2.018,2.018,0,1,0,3.329,2.281l6.8-9.931a2.663,2.663,0,0,0,0-2.6Z" transform="translate(-278.186 -167.748)" fill="#fff"/>
    <circle id="Ellipse_231" data-name="Ellipse 231" cx="25.482" cy="25.482" r="25.482" transform="translate(191.459 0)" fill="#fff"/>
    <path id="Path_3371" data-name="Path 3371" d="M485.364,176.694a2.834,2.834,0,0,1-2.267-1.134l-6.952-9.269a2.834,2.834,0,1,1,4.535-3.4l4.548,6.064,11.681-17.521a2.835,2.835,0,1,1,4.717,3.145l-13.9,20.855a2.836,2.836,0,0,1-2.28,1.261Z" transform="translate(-271.891 -137.951)" fill="#0b2d61"/>
  </g>
</svg>
