<svg xmlns="http://www.w3.org/2000/svg" width="489.493" height="650" viewBox="0 0 489.493 650">
  <g id="Ios-native-development" transform="translate(-162.533)">
    <rect id="Rectangle_538" data-name="Rectangle 538" width="355.717" height="647.847" rx="58.728" transform="translate(176.053)" fill="#273a57"/>
    <path id="Path_4135" data-name="Path 4135" d="M786.549,213.925V720.52a56.667,56.667,0,0,1-56.615,56.587h-221.8A56.667,56.667,0,0,1,451.52,720.52V213.925a56.666,56.666,0,0,1,56.615-56.587h29v10.014a17.1,17.1,0,0,0,17.1,17.094H683.828a17.1,17.1,0,0,0,17.1-17.093V157.338h29A56.667,56.667,0,0,1,786.549,213.925Z" transform="translate(-269.463 -142.774)" fill="#fff"/>
    <path id="Path_4136" data-name="Path 4136" d="M444.885,273.794a4.37,4.37,0,0,1-4.365-4.365V260.7a4.365,4.365,0,0,1,8.729,0v8.729A4.37,4.37,0,0,1,444.885,273.794Z" transform="translate(-269.189 -142.364)" fill="#273a57"/>
    <path id="Path_4137" data-name="Path 4137" d="M444.885,316.094a4.37,4.37,0,0,1-4.365-4.365V287.7a4.365,4.365,0,1,1,8.729,0v24.029a4.37,4.37,0,0,1-4.365,4.365Z" transform="translate(-269.189 -139.918)" fill="#273a57"/>
    <path id="Path_4138" data-name="Path 4138" d="M444.885,349.072a4.37,4.37,0,0,1-4.365-4.365V320.679a4.365,4.365,0,0,1,8.729,0v24.029a4.37,4.37,0,0,1-4.365,4.364Z" transform="translate(-269.189 -136.929)" fill="#273a57"/>
    <path id="Path_4139" data-name="Path 4139" d="M772.885,333.962a4.37,4.37,0,0,1-4.365-4.365V270.967a4.365,4.365,0,1,1,8.729,0V329.6A4.37,4.37,0,0,1,772.885,333.962Z" transform="translate(-241.904 -141.438)" fill="#273a57"/>
    <path id="Path_4140" data-name="Path 4140" d="M620.666,170.637H586.84a2.728,2.728,0,1,1,0-5.456h33.826a2.728,2.728,0,0,1,0,5.456Z" transform="translate(-257.356 -150.619)" fill="#fff"/>
    <circle id="Ellipse_408" data-name="Ellipse 408" cx="2.182" cy="2.182" r="2.182" transform="translate(378.335 15.108)" fill="#fff"/>
    <path id="Path_4143" data-name="Path 4143" d="M523.023,181.82H493.562a5.456,5.456,0,1,1,0-10.912h29.461a5.456,5.456,0,0,1,0,10.912Z" transform="translate(-265.284 -150.097)" fill="#e6e6e6"/>
    <circle id="Ellipse_409" data-name="Ellipse 409" cx="4.91" cy="4.91" r="4.91" transform="translate(444.381 21.357)" fill="#e6e6e6"/>
    <circle id="Ellipse_410" data-name="Ellipse 410" cx="4.91" cy="4.91" r="4.91" transform="translate(459.546 21.357)" fill="#e6e6e6"/>
    <circle id="Ellipse_411" data-name="Ellipse 411" cx="4.91" cy="4.91" r="4.91" transform="translate(474.71 21.357)" fill="#e6e6e6"/>
    <path id="Path_4144" data-name="Path 4144" d="M710.559,250.793H525.389a13.549,13.549,0,0,0-13.53,13.53V384.689a13.549,13.549,0,0,0,13.53,13.53H710.559a13.542,13.542,0,0,0,13.53-13.53V264.323a13.542,13.542,0,0,0-13.53-13.53Z" transform="translate(-263.371 -142.475)" fill="#f2f2f2"/>
    <path id="Path_4148" data-name="Path 4148" d="M729.953,634.2H508.821a13.545,13.545,0,0,1-13.53-13.529v-29.8a13.545,13.545,0,0,1,13.529-13.53H729.953a13.545,13.545,0,0,1,13.529,13.53v29.8a13.545,13.545,0,0,1-13.529,13.53Z" transform="translate(-265.451 -113.282)" fill="#273a57"/>
    <path id="Path_4149" data-name="Path 4149" d="M729.953,494.2H508.821a13.545,13.545,0,0,1-13.53-13.529v-29.8a13.545,13.545,0,0,1,13.529-13.53H729.953a13.545,13.545,0,0,1,13.529,13.53v29.8A13.545,13.545,0,0,1,729.953,494.2Z" transform="translate(-265.451 -125.967)" fill="#f2f2f2"/>
    <path id="Path_4150" data-name="Path 4150" d="M729.953,564.2H508.821a13.545,13.545,0,0,1-13.53-13.529v-29.8a13.545,13.545,0,0,1,13.529-13.529H729.953a13.545,13.545,0,0,1,13.529,13.529v29.8A13.545,13.545,0,0,1,729.953,564.2Z" transform="translate(-265.451 -119.625)" fill="#f2f2f2"/>
    <path id="Path_4151" data-name="Path 4151" d="M639.328,599.211H574.173a2.915,2.915,0,1,1,0-5.829h65.154a2.915,2.915,0,1,1,0,5.829Z" transform="translate(-258.541 -111.81)" fill="#fff"/>
    <path id="Path_4152" data-name="Path 4152" d="M702.055,613.9H573.506a2.915,2.915,0,1,1,0-5.829H702.055a2.915,2.915,0,0,1,0,5.829Z" transform="translate(-258.871 -110.478)" fill="#fff"/>
    <circle id="Ellipse_412" data-name="Ellipse 412" cx="19.542" cy="19.542" r="19.542" transform="translate(261.986 472.952)" fill="#fff"/>
    <path id="Path_4153" data-name="Path 4153" d="M542.009,627.656a8.45,8.45,0,0,0-11.133,3.87,8.1,8.1,0,0,0-.479,1.251l-29.428,1.759-4.361,15.246,40.052-6.767a8.427,8.427,0,0,0,9.261-4.481,8.064,8.064,0,0,0-3.711-10.783Q542.111,627.7,542.009,627.656Z" transform="translate(-264.601 -108.782)" fill="#ffb6b6"/>
    <path id="Path_4154" data-name="Path 4154" d="M481.008,558.761h0a14.592,14.592,0,0,0-19.69,10l-8.09,32.673,1.522,57.159s42.23,8.1,49.319,2.895,6.424-9.086,7.089-5.209,3.708,5.5,3.751,3.962.386-1.279,2.153-1.744,9.564-3.338,9.564-3.338l.349-16.3s-12.89-4.887-16.018-3.429.666,3.878-3.127,1.458-4.207-10.056-4.856-3.174-2.547,8.164-5.391,5.1-16.019-1.105-16.019-1.105l8.384-63.538A14.592,14.592,0,0,0,481.008,558.761Z" transform="translate(-268.27 -115.085)" fill="#0b2d61"/>
    <path id="Path_4155" data-name="Path 4155" d="M502.035,563.805l.444-12.035-46.213-7.441-.655,17.763Z" transform="translate(-6.895 49.319)" fill="#ffb6b6"/>
    <path id="Path_4156" data-name="Path 4156" d="M731.671,720.58l-.438-19.271,8.238.3,13.3-17.815a5.149,5.149,0,0,1,9.273,3.27L761.2,709.96l-8.295,3.645L761,715.447l-.318,8.631Z" transform="translate(-245.121 -103.832)" fill="#01183a"/>
    <path id="Path_4157" data-name="Path 4157" d="M500.963,744.324,647.334,727.3s63.208,3.651,78.038-6l15.639-1.974.848-22.972s-9.563.071-15.061-2.491-1.677-5.7-6.919-2.614-4.688,3.453-8.742,2.037-189.916-9.014-189.916-9.014Z" transform="translate(-265.025 -103.6)" fill="#01183a"/>
    <path id="Path_4158" data-name="Path 4158" d="M439.309,582.13l8.511-8.522L419,536.724,406.441,549.3Z" transform="translate(-10.94 48.626)" fill="#ffb6b6"/>
    <path id="Path_4159" data-name="Path 4159" d="M669.833,728.583l12.785-14.425,5.833,5.826,21.867-4.015a5.15,5.15,0,0,1,4.574,8.7L698.7,740.881l-8.56-2.969,4.68,6.853-6.1,6.111Z" transform="translate(-250.289 -100.876)" fill="#01183a"/>
    <path id="Path_4160" data-name="Path 4160" d="M448.039,669.265l1.455,33.825c1.713,39.82,45.566,63.921,79.571,43.13q.94-.575,1.887-1.191s12.891-3.462,12.5-8.944,2.758-8.151,5.545-6.656,39.277-50.293,39.277-50.293,75.815,37.818,92.541,46.721l17.648-4.808s6.642,3.137,4.249-1.4-2.822-2.364-3.557-7.307-2.615-11.072-3.755-10.814-93.793-64.591-93.793-64.591-15.094-15.276-33.818-5.19c-.39,1.482-.057,1.533-.057,1.533l-61.852,50.4-8.74-16.6Z" transform="translate(-269.279 -108.702)" fill="#01183a"/>
    <path id="Path_4161" data-name="Path 4161" d="M491.025,552.978,464.506,540.55l-7.939,13.815s-21.323,30.429-21.632,52.381,3.475,28.48,3.475,28.48-9.194,6.873-4.6,11.075,14.774,6.014,6.957,7.836-5.836,20.261,2.894,23.535,55.61,3.245,55.61,3.245a8.349,8.349,0,0,1,2.062-8.221c3.634-3.643,6.908-1.029,3.634-6.7s-8.729-2.4-4.365-10.036,4.363-9.921,4.363-9.921,8.9-16.934-4.5-35.3c-.817-1.12-.13-1.163-.13-1.163L489.512,573.3Z" transform="translate(-269.992 -116.702)" fill="#0b2d61"/>
    <path id="Path_4162" data-name="Path 4162" d="M447.415,506.2c.224,5.6-3.306,13.538-5.044,18.324-1.859,5.116,6.2,11.908,11.353,13.395a7.626,7.626,0,0,1,2.5-4.579,13.059,13.059,0,0,0-.1,5.137l43.589,9.923c7.842-9.081,15.727-22.136,14.007-37.881a15.319,15.319,0,0,0-7.377-15.276l-22.036-13.018c-9.373-2.134-21.177-3.422-27.947,2.378A26.816,26.816,0,0,0,447.415,506.2Z" transform="translate(-269.189 -122.067)" fill="#232323"/>
    <circle id="Ellipse_413" data-name="Ellipse 413" cx="25.097" cy="25.097" r="25.097" transform="translate(192.002 371.341)" fill="#ffb6b6"/>
    <path id="Path_4163" data-name="Path 4163" d="M455.835,505.022l-1.211,5.32,21.172,4.82a7.808,7.808,0,0,1,2.6-5.685,13.3,13.3,0,0,0,.152,6.313c11.418,6.407,21.71,8.677,30.938,7.043a4.835,4.835,0,0,0,5.787-3.641h0c3.713-16.31-6.015-32.98-22.245-37.028a30.549,30.549,0,0,0-37.2,22.859Z" transform="translate(-268.124 -121.984)" fill="#232323"/>
    <path id="Path_4164" data-name="Path 4164" d="M467.63,471.067c2.792-.606,5.746-.46,8.27-2.35l-1.655,3.8a19.233,19.233,0,0,1,13.733,1.372,7.344,7.344,0,0,1,3.109,2.632,5.409,5.409,0,0,1,.409,4.658A5.065,5.065,0,0,1,488.529,484a9.78,9.78,0,0,1-3.629.38l-15.458-.36a11.557,11.557,0,0,1-5.7-1.108,5.7,5.7,0,0,1-2.645-5.656C461.588,473.8,464.837,471.673,467.63,471.067Z" transform="translate(-267.519 -123.113)" fill="#232323"/>
    <path id="Path_4165" data-name="Path 4165" d="M600.713,652.433a1.069,1.069,0,0,0-.205-.189,2.2,2.2,0,0,0-.672-.526L598,650.735,585.807,637.2a3.063,3.063,0,0,0-2.289-.219l-.031.009-5.223,1.615L573.772,640l-6.274,1.945-42.736,13.233-28.092,8.7a3.039,3.039,0,0,0-2,3.762,3.162,3.162,0,0,0,.642,1.14l.894.995,1.875,2.089,4.344,9,1.205,1.345a3.028,3.028,0,0,0,3.127.877l92.546-25.735a3.082,3.082,0,0,0,1.407-4.918Z" transform="translate(-264.94 -107.923)" fill="#ccc"/>
    <path id="Path_4166" data-name="Path 4166" d="M587.942,528.428l-1.792.29a1.886,1.886,0,0,0-1.221.758l-.79,1.1-7.122,17.81a1.886,1.886,0,0,0-.324,1.406l.834,5.074-3.154,90.572a1.907,1.907,0,0,0,.706,1.183l13.828,18.5.323.256.7.545a1.917,1.917,0,0,0,1.251.4l1.175-.056a1.888,1.888,0,0,0,1.381-.7,1.859,1.859,0,0,0,.392-1.495l-4.011-134.09a1.882,1.882,0,0,0-2.163-1.551Z" transform="translate(-258.094 -117.75)" fill="#ccc"/>
    <path id="Path_4167" data-name="Path 4167" d="M343.624,383.04l-6.309,19.219-2.441,76.767,9.82,8.729Z" transform="translate(-16.757 34.687)" fill="#0b2d61"/>
    <path id="Path_4168" data-name="Path 4168" d="M543.138,642.259a8.45,8.45,0,0,0-11.133,3.87,8.119,8.119,0,0,0-.479,1.251L502.1,649.139l-4.361,15.246,40.052-6.768a8.427,8.427,0,0,0,9.261-4.481,8.065,8.065,0,0,0-3.711-10.784Z" transform="translate(-264.507 -107.503)" fill="#ffb6b6"/>
    <path id="Path_4169" data-name="Path 4169" d="M482.137,573.363h0a14.592,14.592,0,0,0-19.69,10l-8.091,32.673,1.522,57.159s42.23,8.1,49.319,2.894,6.424-9.086,7.089-5.209,3.708,5.5,3.751,3.962.386-1.279,2.153-1.744,9.564-3.339,9.564-3.339l.349-16.3s-12.89-4.887-16.018-3.429.666,3.878-3.127,1.458-4.207-10.056-4.856-3.174-2.547,8.164-5.391,5.1-16.019-1.105-16.019-1.105l8.384-63.538a14.591,14.591,0,0,0-8.94-15.413Z" transform="translate(-268.176 -113.81)" fill="#0b2d61"/>
    <path id="Path_4171" data-name="Path 4171" d="M891.953,494.2H670.821a13.545,13.545,0,0,1-13.53-13.529v-29.8a13.545,13.545,0,0,1,13.529-13.53H891.953a13.545,13.545,0,0,1,13.529,13.53v29.8a13.545,13.545,0,0,1-13.53,13.53Z" transform="translate(-253.457 -125.967)" fill="#273a57"/>
    <path id="Path_4172" data-name="Path 4172" d="M801.328,459.211H736.174a2.915,2.915,0,0,1,0-5.829h65.154a2.915,2.915,0,1,1,0,5.829Z" transform="translate(-245.181 -124.501)" fill="#fff"/>
    <path id="Path_4173" data-name="Path 4173" d="M864.055,473.9H735.506a2.915,2.915,0,1,1,0-5.829H864.055a2.915,2.915,0,1,1,0,5.829Z" transform="translate(-246.592 -123.169)" fill="#fff"/>
    <circle id="Ellipse_414" data-name="Ellipse 414" cx="19.542" cy="19.542" r="19.542" transform="translate(437.409 320.265)" fill="#fff"/>
    <path id="Path_4174" data-name="Path 4174" d="M826.953,564.2H605.821a13.545,13.545,0,0,1-13.53-13.529v-29.8a13.545,13.545,0,0,1,13.53-13.529H826.953a13.545,13.545,0,0,1,13.529,13.529v29.8A13.545,13.545,0,0,1,826.953,564.2Z" transform="translate(-257.882 -119.625)" fill="#273a57"/>
    <path id="Path_4175" data-name="Path 4175" d="M736.328,529.211H671.173a2.915,2.915,0,1,1,0-5.829h65.154a2.915,2.915,0,0,1,0,5.829Z" transform="translate(-250.541 -118.155)" fill="#fff"/>
    <path id="Path_4176" data-name="Path 4176" d="M799.055,543.9H670.505a2.915,2.915,0,1,1,0-5.829H799.055a2.915,2.915,0,1,1,0,5.829Z" transform="translate(-250.958 -116.824)" fill="#fff"/>
    <circle id="Ellipse_415" data-name="Ellipse 415" cx="19.542" cy="19.542" r="19.542" transform="translate(367.023 396.608)" fill="#fff"/>
    <g id="Group_630" data-name="Group 630" transform="translate(324.98 144.01)">
      <g id="apple-logo-svgrepo-com" transform="translate(0 0)">
        <path id="Path_502" data-name="Path 502" d="M97.329,16.357a2.887,2.887,0,0,0,3.41-2.256,9.953,9.953,0,0,1,2.045-4.548h0a11.763,11.763,0,0,1,6.426-3.381,15.858,15.858,0,0,1-.518,3.247,2.891,2.891,0,1,0,5.573,1.54,23.3,23.3,0,0,0,.617-8.463A2.888,2.888,0,0,0,111.964,0c-.358.007-8.811.229-13.574,5.8h0a15.625,15.625,0,0,0-3.316,7.151A2.891,2.891,0,0,0,97.329,16.357Z" transform="translate(-67.662 0.001)" fill="#273a57" stroke="#273a57" stroke-width="1"/>
        <path id="Path_503" data-name="Path 503" d="M79.844,83.927a10.235,10.235,0,0,1-1.26-19.064A2.8,2.8,0,0,0,80.091,63.1a2.775,2.775,0,0,0-.347-2.286,20.191,20.191,0,0,0-16.925-9.2A19.844,19.844,0,0,0,52.5,55.061a19.842,19.842,0,0,0-10.316-3.445c-10.346,0-20.821,8.072-20.821,23.5,0,14.594,9.8,33.108,20.821,33.108A19.841,19.841,0,0,0,52.5,104.779a19.839,19.839,0,0,0,10.316,3.445c8.534,0,15.759-10.79,18.862-20.816A2.79,2.79,0,0,0,79.844,83.927ZM62.82,102.634c-2.469,0-5.617-1.274-8.636-3.495a2.838,2.838,0,0,0-3.36,0c-3.02,2.221-6.167,3.5-8.636,3.5-6.271,0-15.181-14.232-15.181-27.518,0-12.305,7.87-17.91,15.181-17.91,2.469,0,5.616,1.274,8.636,3.495a2.839,2.839,0,0,0,3.36,0c3.019-2.221,6.167-3.495,8.636-3.495a14.489,14.489,0,0,1,10.4,4.405,15.784,15.784,0,0,0,2.258,26.533C72.376,96.323,66.976,102.634,62.82,102.634Z" transform="translate(-21.367 -31.719)" fill="#273a57" stroke="#273a57" stroke-width="1"/>
      </g>
    </g>
  </g>
</svg>
