<svg xmlns="http://www.w3.org/2000/svg" width="610" height="525.071" viewBox="0 0 610 525.071">
  <g id="branding-design" transform="translate(0 0)">
    <circle id="Ellipse_505" data-name="Ellipse 505" cx="97.828" cy="97.828" r="97.828" transform="translate(200.78 107.637)" fill="#fff"/>
    <path id="Path_4891" data-name="Path 4891" d="M509.542,417.266a98.581,98.581,0,1,1,98.581-98.581A98.692,98.692,0,0,1,509.542,417.266Zm0-195.657a97.076,97.076,0,1,0,97.076,97.076,97.076,97.076,0,0,0-97.076-97.076Z" transform="translate(-198.15 -130.513)" fill="#273a57"/>
    <path id="Path_4892" data-name="Path 4892" d="M737.961,432.822h-610V100.957h610Zm-608.5-1.505H736.457V102.462H129.465Z" transform="translate(-127.961 -100.957)" fill="#bbceeb"/>
    <rect id="Rectangle_703" data-name="Rectangle 703" width="134" height="14" transform="translate(20 26.242)" fill="#273a57"/>
    <rect id="Rectangle_704" data-name="Rectangle 704" width="134" height="14" transform="translate(220.862 26.242)" fill="#273a57"/>
    <rect id="Rectangle_705" data-name="Rectangle 705" width="134" height="14" transform="translate(421.702 26.242)" fill="#273a57"/>
    <path id="Path_4893" data-name="Path 4893" d="M300.416,141.008H164.961V125.957H300.416ZM166.466,139.5H298.911v-12.04H166.466Z" transform="translate(-137.118 -107.144)" fill="#fff"/>
    <path id="Path_4894" data-name="Path 4894" d="M567.416,141.008H431.961V125.957H567.416ZM433.466,139.5H565.911v-12.04H433.466Z" transform="translate(-203.337 -107.144)" fill="#fff"/>
    <path id="Path_4895" data-name="Path 4895" d="M834.416,141.008H698.961V125.957H834.416ZM700.466,139.5H832.911v-12.04H700.466Z" transform="translate(-269.567 -107.144)" fill="#fff"/>
    <rect id="Rectangle_706" data-name="Rectangle 706" width="287.167" height="1.922" transform="translate(217.636 513.521)" fill="#273a57"/>
    <path id="Path_4896" data-name="Path 4896" d="M393.5,453.308,440.909,361.5l12.793,7.525L399.52,457.071Z" transform="translate(-97.542 -89.625)" fill="#e4efff"/>
    <path id="Path_4897" data-name="Path 4897" d="M483.971,603.266s8.738,6.866,9.73-7.824a16.849,16.849,0,0,1,6.13-12.108c3.957-3.161,9.65-5.323,16.5-1.138a14.208,14.208,0,0,1,7.132,13.941,21.425,21.425,0,0,1-10.71,16.747c-6.793,4.032-17.517,7.067-28.78-2.844C483.971,610.038,477.2,602.513,483.971,603.266Z" transform="translate(-215.459 -219.667)" fill="#273a57"/>
    <circle id="Ellipse_506" data-name="Ellipse 506" cx="18.261" cy="18.261" r="18.261" transform="translate(334.046 129.749)" fill="#ffb8b8"/>
    <path id="Path_4898" data-name="Path 4898" d="M583.586,307.627s4.806,24.989,2.883,29.794S613.38,335.5,613.38,335.5s-5.767-24.989-4.806-30.755S583.586,307.627,583.586,307.627Z" transform="translate(-240.893 -150.978)" fill="#ffb8b8"/>
    <path id="Path_4899" data-name="Path 4899" d="M413.479,323.215l1.922,25.949,9.54,40.754,2.954,11.146,4.806-17.3L427.9,344.359l-1.632-17.741Z" transform="translate(-102.482 -80.127)" fill="#ffb8b8"/>
    <path id="Path_4900" data-name="Path 4900" d="M670.169,419.063v26.911s-2.883,34.6-8.65,43.25-7.689-34.6-7.689-34.6l4.519-31.716Z" transform="translate(-258.299 -179.816)" fill="#ffb8b8"/>
    <path id="Path_4901" data-name="Path 4901" d="M561.068,529.11s-4.806,5.767-.961,64.394S558.185,694.42,570.679,694.42c0,0-3.844,12.494,6.728,13.455s15.378,1.922,16.339-.961,2.883-16.339,0-16.339c0,0,0,3.844,1.922-11.533s1.922-88.421,6.728-98.032l15.378,35.561s0,16.339,2.883,24.028,7.689,51.9,7.689,51.9l-.961,6.728s23.066,3.844,24.028,0,.961-9.611,0-11.533-.961-1.922.961-5.767,1.922-6.728.961-9.611-.961-65.355-.961-65.355-1.922-75.927-13.455-79.771S561.068,529.11,561.068,529.11Z" transform="translate(-234.725 -206.368)" fill="#bbceeb"/>
    <path id="Path_4902" data-name="Path 4902" d="M572.684,757.513,565,770.968s-12.014-4.325-9.611,6.728a192.062,192.062,0,0,0,35.08-.481s4.805,1.922,5.767-.961-2.4-12.975-5.286-12.975S572.684,757.513,572.684,757.513Z" transform="translate(-233.827 -263.695)" fill="#bbceeb"/>
    <path id="Path_4903" data-name="Path 4903" d="M650.76,751.228s-7.689,17.3-4.806,18.261,28.833,4.806,30.755,5.767,11.533,1.922,12.494-3.844-4.806-7.689-4.806-7.689-10.572-1.922-13.455-11.533S650.76,751.228,650.76,751.228Z" transform="translate(-256.196 -261.255)" fill="#bbceeb"/>
    <path id="Path_4904" data-name="Path 4904" d="M605.5,341.731s-25.95-4.806-31.716,0-29.794,14.417-29.794,19.223,12.494,51.9,12.494,51.9-6.728,71.121,0,73.044,18.261-3.844,31.716,2.883,51.9-5.767,51.9-5.767-14.416-61.51-10.572-73.044,6.728-50.938,6.728-50.938S619.921,341.731,605.5,341.731Z" transform="translate(-231.1 -160.137)" fill="#8aa1c5"/>
    <path id="Path_4905" data-name="Path 4905" d="M547.429,364.145l-6.728,1.922s-14.416,45.172-8.65,47.094,22.105,5.767,24.028,5.767S547.429,364.145,547.429,364.145Z" transform="translate(-227.781 -162.437)" fill="#8aa1c5"/>
    <path id="Path_4906" data-name="Path 4906" d="M646.167,357.759l15.378,5.767s20.183,37.483,15.378,42.288-25.95,9.611-25.95,9.611Z" transform="translate(-256.405 -164.615)" fill="#8aa1c5"/>
    <path id="Path_4907" data-name="Path 4907" d="M588.779,267.706a10.322,10.322,0,0,0-4.568.2,11.91,11.91,0,0,0-3.246,2.13,37.994,37.994,0,0,1-5.55,3.677,12.952,12.952,0,0,0-4.319,3.027,9.19,9.19,0,0,0-1.219,2.307,27.648,27.648,0,0,0-1.454,15.047,6.916,6.916,0,0,0,.64,2.066c1,1.84,3.205,2.566,5.064,3.53,3.529,1.832,6.2,4.916,9.1,7.642a17.784,17.784,0,0,0,3.594,2.77c4.129,2.251,9.176,1.517,13.81.721a2.489,2.489,0,0,0,2.484-2.513l3.658-16.454a26.844,26.844,0,0,0,.938-7.483c-.255-3.994-2.418-9.527-5.349-12.365C598.944,268.7,593.244,268.178,588.779,267.706Z" transform="translate(-237.026 -142.249)" fill="#2f2e41"/>
    <ellipse id="Ellipse_507" data-name="Ellipse 507" cx="26" cy="1.5" rx="26" ry="1.5" transform="translate(250.866 510.985)" fill="#273a57"/>
    <ellipse id="Ellipse_508" data-name="Ellipse 508" cx="26" cy="1.5" rx="26" ry="1.5" transform="translate(244.869 513.984)" fill="#273a57"/>
    <ellipse id="Ellipse_509" data-name="Ellipse 509" cx="14.298" cy="0.817" rx="14.298" ry="0.817" transform="translate(230.155 505.376)" fill="#273a57"/>
    <ellipse id="Ellipse_510" data-name="Ellipse 510" cx="14.298" cy="0.817" rx="14.298" ry="0.817" transform="translate(281.3 523.437)" fill="#273a57"/>
  </g>
</svg>
