<svg xmlns="http://www.w3.org/2000/svg" width="610" height="500.31" viewBox="0 0 610 500.31">
  <g id="click-funnels" transform="translate(0)">
    <path id="Path_5124" data-name="Path 5124" d="M594.455,282.532a102.222,102.222,0,0,0-14.969,29.66,180.975,180.975,0,0,0-6.653,28.436c-.708-.279-1.406-.579-2.093-.912a31.006,31.006,0,0,1,13.531-58.9,30.679,30.679,0,0,1,7.812,1C592.888,282.017,593.682,282.253,594.455,282.532Z" transform="translate(-275.122 -211.731)" fill="#fb7878"/>
    <path id="Path_5125" data-name="Path 5125" d="M324,619.094c2.132-17.146,12.759-34.04,29.111-39.62a79.608,79.608,0,0,0,0,54.657c2.513,6.8,6.015,14.1,3.652,20.945-1.471,4.262-5.068,7.523-9.09,9.563s-8.485,3.011-12.892,3.963l-.867.717C326.921,653.52,321.868,636.241,324,619.094Z" transform="translate(-291.661 -190.325)" fill="#8aa1c5"/>
    <path id="Path_5126" data-name="Path 5126" d="M352.592,579.823a68.044,68.044,0,0,0-16.916,38.295,29.3,29.3,0,0,0,.333,9.175,16.806,16.806,0,0,0,4.18,7.8c1.884,2.07,4.051,3.969,5.4,6.461a10.29,10.29,0,0,1,.5,8.4c-1.19,3.413-3.536,6.2-5.924,8.837-2.652,2.933-5.453,5.936-6.58,9.824-.137.471-.86.232-.723-.239,1.961-6.764,8.527-10.606,11.659-16.7,1.461-2.843,2.074-6.143.7-9.144-1.2-2.624-3.431-4.584-5.356-6.664A17.932,17.932,0,0,1,335.5,628.4a27.089,27.089,0,0,1-.685-9.128,66.015,66.015,0,0,1,4.821-20.061,69.249,69.249,0,0,1,12.452-19.955c.326-.365.827.209.5.571Z" transform="translate(-290.979 -190.35)" fill="#bbceeb"/>
    <path id="Path_5127" data-name="Path 5127" d="M336.205,611.921a10.209,10.209,0,0,1-7.771-10.694.381.381,0,0,1,.761.038,9.453,9.453,0,0,0,7.249,9.933c.477.113.235.836-.239.723Z" transform="translate(-291.303 -188.761)" fill="#bbceeb"/>
    <path id="Path_5128" data-name="Path 5128" d="M338.683,631.206a19.677,19.677,0,0,0,8.787-11.332c.138-.47.861-.231.723.239a20.466,20.466,0,0,1-9.167,11.774c-.422.251-.762-.431-.343-.68Z" transform="translate(-290.566 -187.392)" fill="#bbceeb"/>
    <path id="Path_5129" data-name="Path 5129" d="M342.645,591.72a5.779,5.779,0,0,0,5.476-.278c.419-.256.759.426.342.68a6.475,6.475,0,0,1-6.057.321.394.394,0,0,1-.242-.481.383.383,0,0,1,.481-.242Z" transform="translate(-290.299 -189.455)" fill="#bbceeb"/>
    <path id="Path_5130" data-name="Path 5130" d="M402.273,608.138c-.257.167-.514.334-.771.508a76.1,76.1,0,0,0-9.73,7.6c-.238.212-.476.431-.707.649a80.226,80.226,0,0,0-17.424,23.851,77.916,77.916,0,0,0-4.268,11.042c-1.575,5.225-2.866,11.016-5.984,15.29a13.357,13.357,0,0,1-1.041,1.285h-28.17c-.064-.032-.128-.058-.193-.09l-1.125.051c.045-.2.1-.4.142-.6.026-.116.058-.231.083-.347.019-.077.039-.154.051-.225.006-.026.013-.051.019-.071.013-.071.032-.135.045-.2q.424-1.726.874-3.451c0-.006,0-.006.006-.013a114.559,114.559,0,0,1,9.641-25.31c.129-.238.257-.482.4-.72a74.345,74.345,0,0,1,6.678-10.129,65.732,65.732,0,0,1,4.377-5.007A54.656,54.656,0,0,1,368.852,612c10.1-5.334,21.8-7.378,32.6-4.12C401.727,607.964,402,608.048,402.273,608.138Z" transform="translate(-290.978 -188.364)" fill="#8aa1c5"/>
    <path id="Path_5131" data-name="Path 5131" d="M402.2,608.4a68.044,68.044,0,0,0-36.562,20.392,29.3,29.3,0,0,0-5.258,7.526,16.806,16.806,0,0,0-1.356,8.74c.258,2.787.845,5.608.421,8.409a10.29,10.29,0,0,1-4.656,7.01c-3.005,2.009-6.553,2.818-10.051,3.489-3.883.745-7.928,1.457-11.169,3.882-.393.294-.826-.333-.434-.626,5.638-4.22,13.194-3.334,19.362-6.313,2.878-1.39,5.355-3.656,6.068-6.877.623-2.816.021-5.726-.265-8.545a17.934,17.934,0,0,1,1.007-8.6,27.089,27.089,0,0,1,4.949-7.7,66.014,66.014,0,0,1,15.928-13.115,69.248,69.248,0,0,1,21.957-8.436c.479-.1.535.665.058.759Z" transform="translate(-290.969 -188.268)" fill="#bbceeb"/>
    <path id="Path_5132" data-name="Path 5132" d="M366.31,624.945a10.209,10.209,0,0,1,.234-13.217c.325-.367.91.121.585.488a9.453,9.453,0,0,0-.193,12.3c.312.377-.315.809-.626.434Z" transform="translate(-288.703 -187.978)" fill="#bbceeb"/>
    <path id="Path_5133" data-name="Path 5133" d="M356.986,641.47a19.677,19.677,0,0,0,13.838-3.758c.394-.292.827.334.434.626a20.467,20.467,0,0,1-14.408,3.881c-.488-.054-.349-.8.136-.749Z" transform="translate(-289.247 -186.075)" fill="#bbceeb"/>
    <path id="Path_5134" data-name="Path 5134" d="M383.461,612.677a5.778,5.778,0,0,0,4.54,3.075c.488.048.349.8-.136.749a6.475,6.475,0,0,1-5.03-3.391.394.394,0,0,1,.1-.53.383.383,0,0,1,.53.1Z" transform="translate(-287.331 -187.911)" fill="#bbceeb"/>
    <path id="Path_5135" data-name="Path 5135" d="M601.894,629.5c-11.706-12.709-17.729-31.737-11.417-47.821A79.609,79.609,0,0,0,632.186,617c6.81,2.476,14.643,4.52,18.343,10.751,2.3,3.877,2.465,8.73,1.422,13.116s-3.186,8.42-5.308,12.4l-.013,1.125C630.051,649.519,613.6,642.207,601.894,629.5Z" transform="translate(-272.634 -190.164)" fill="#8aa1c5"/>
    <path id="Path_5136" data-name="Path 5136" d="M590.684,581.78a68.043,68.043,0,0,0,18.288,37.659,29.3,29.3,0,0,0,7.216,5.676,16.805,16.805,0,0,0,8.65,1.849c2.8-.1,5.647-.526,8.419.056a10.29,10.29,0,0,1,6.735,5.046c1.835,3.114,2.443,6.7,2.914,10.232.524,3.919,1.005,8,3.243,11.371.271.409-.379.805-.65.4-3.894-5.868-2.582-13.362-5.206-19.689-1.225-2.952-3.347-5.553-6.522-6.448-2.776-.782-5.715-.345-8.547-.22a17.934,17.934,0,0,1-8.525-1.492,27.088,27.088,0,0,1-7.408-5.377A66.018,66.018,0,0,1,597.1,604.195a69.25,69.25,0,0,1-7.179-22.4c-.068-.484.694-.5.761-.015Z" transform="translate(-272.486 -190.183)" fill="#bbceeb"/>
    <path id="Path_5137" data-name="Path 5137" d="M605.426,614.041a10.209,10.209,0,0,1-13.183-.982c-.348-.345.173-.9.521-.556a9.453,9.453,0,0,0,12.264.889C605.424,613.1,605.819,613.752,605.426,614.041Z" transform="translate(-272.306 -187.92)" fill="#bbceeb"/>
    <path id="Path_5138" data-name="Path 5138" d="M621.351,625.078a19.676,19.676,0,0,0-2.968-14.029c-.27-.41.38-.807.65-.4a20.467,20.467,0,0,1,3.059,14.6c-.082.484-.822.3-.74-.178Z" transform="translate(-270.412 -188.06)" fill="#bbceeb"/>
    <path id="Path_5139" data-name="Path 5139" d="M594.159,596.367a5.778,5.778,0,0,0,3.327-4.358c.076-.485.816-.3.74.178a6.475,6.475,0,0,1-3.67,4.83.394.394,0,0,1-.523-.126.383.383,0,0,1,.126-.523Z" transform="translate(-272.168 -189.43)" fill="#bbceeb"/>
    <path id="Path_5140" data-name="Path 5140" d="M643.46,564.678c-.039.3-.077.608-.111.917a76.1,76.1,0,0,0-.492,12.335c.008.319.021.641.038.959a80.228,80.228,0,0,0,6.938,28.711,77.91,77.91,0,0,0,5.667,10.393c2.969,4.579,6.553,9.307,7.8,14.448a13.383,13.383,0,0,1,.308,1.625l-18.207,21.5c-.066.028-.127.061-.193.089l-.688.892c-.123-.163-.247-.335-.369-.5-.072-.094-.139-.194-.211-.288-.047-.064-.093-.129-.138-.185-.016-.021-.031-.043-.042-.06-.046-.056-.082-.112-.123-.163q-1.043-1.439-2.069-2.9s0,0-.006-.013a114.55,114.55,0,0,1-13.082-23.715c-.1-.252-.2-.508-.292-.769a74.351,74.351,0,0,1-3.413-11.642,65.705,65.705,0,0,1-.991-6.576,54.653,54.653,0,0,1,1.022-17.058c2.46-11.158,8.46-21.4,17.926-27.537C642.975,564.983,643.214,564.83,643.46,564.678Z" transform="translate(-270.055 -191.406)" fill="#8aa1c5"/>
    <path id="Path_5141" data-name="Path 5141" d="M642.954,564.981a68.044,68.044,0,0,0-8.071,41.079,29.305,29.305,0,0,0,2.345,8.876,16.806,16.806,0,0,0,5.793,6.684c2.293,1.6,4.825,2.98,6.688,5.114a10.291,10.291,0,0,1,2.34,8.084c-.409,3.592-2.085,6.822-3.834,9.924-1.941,3.444-4.012,6.991-4.256,11.031-.03.49-.787.415-.758-.074.424-7.03,5.983-12.223,7.7-18.855.8-3.095.671-6.449-1.325-9.075-1.746-2.3-4.356-3.717-6.692-5.321a17.933,17.933,0,0,1-5.908-6.324,27.087,27.087,0,0,1-2.677-8.753,66.015,66.015,0,0,1,.287-20.631,69.251,69.251,0,0,1,7.754-22.207c.237-.427.853.022.617.446Z" transform="translate(-269.315 -191.43)" fill="#bbceeb"/>
    <path id="Path_5142" data-name="Path 5142" d="M634.716,599.613a10.209,10.209,0,0,1-9.934-8.721c-.07-.485.681-.616.75-.13a9.453,9.453,0,0,0,9.258,8.094c.49.006.414.764-.074.758Z" transform="translate(-269.949 -189.523)" fill="#bbceeb"/>
    <path id="Path_5143" data-name="Path 5143" d="M641.206,618.013a19.676,19.676,0,0,0,6.077-12.989c.031-.489.789-.415.758.074a20.467,20.467,0,0,1-6.351,13.5c-.357.337-.839-.253-.484-.588Z" transform="translate(-268.77 -188.482)" fill="#bbceeb"/>
    <path id="Path_5144" data-name="Path 5144" d="M636.547,578.576a5.779,5.779,0,0,0,5.281-1.477c.352-.342.834.249.484.588a6.476,6.476,0,0,1-5.838,1.646.393.393,0,0,1-.342-.416.383.383,0,0,1,.416-.342Z" transform="translate(-269.127 -190.413)" fill="#bbceeb"/>
    <circle id="Ellipse_548" data-name="Ellipse 548" cx="18.77" cy="18.77" r="18.77" transform="translate(196.451 375.263)" fill="#bbceeb"/>
    <circle id="Ellipse_549" data-name="Ellipse 549" cx="6.982" cy="6.982" r="6.982" transform="translate(194.297 218.089)" fill="#fff"/>
    <circle id="Ellipse_550" data-name="Ellipse 550" cx="6.982" cy="6.982" r="6.982" transform="translate(98.449 295.947)" fill="#273a57"/>
    <path id="Path_5145" data-name="Path 5145" d="M811.928,216.435H296.714a2.893,2.893,0,0,0-2.884,2.887v16.987a2.9,2.9,0,0,0,2.884,2.9H811.928a2.9,2.9,0,0,0,2.884-2.9V219.322a2.893,2.893,0,0,0-2.884-2.887Z" transform="translate(-293.83 -216.435)" fill="#0b2d61"/>
    <circle id="Ellipse_90" data-name="Ellipse 90" cx="4.101" cy="4.101" r="4.101" transform="translate(12.665 6.453)" fill="#fff"/>
    <circle id="Ellipse_91" data-name="Ellipse 91" cx="4.101" cy="4.101" r="4.101" transform="translate(28.232 6.453)" fill="#fff"/>
    <circle id="Ellipse_92" data-name="Ellipse 92" cx="4.101" cy="4.101" r="4.101" transform="translate(43.8 6.453)" fill="#fff"/>
    <path id="Path_5146" data-name="Path 5146" d="M764.221,221.165H746.29a1.325,1.325,0,0,0,0,2.651h17.931a1.325,1.325,0,1,0,0-2.65Z" transform="translate(-261.283 -216.089)" fill="#fff"/>
    <path id="Path_5147" data-name="Path 5147" d="M764.221,225.8H746.29a1.325,1.325,0,0,0,0,2.651h17.931a1.325,1.325,0,1,0,0-2.65Z" transform="translate(-261.283 -215.75)" fill="#fff"/>
    <path id="Path_5148" data-name="Path 5148" d="M764.222,230.445H746.291a1.331,1.331,0,0,0,0,2.661h17.931a1.331,1.331,0,1,0,0-2.661Z" transform="translate(-261.283 -215.411)" fill="#fff"/>
    <path id="Path_155" data-name="Path 155" d="M311.987,354.463c-1.489,0-2.694,1.939-2.691,4.32s1.206,4.3,2.691,4.3H514.244c1.489,0,2.694-1.939,2.691-4.32s-1.206-4.3-2.691-4.3Z" transform="translate(-292.7 -206.475)" fill="#273a57"/>
    <path id="Path_156" data-name="Path 156" d="M311.987,377.746c-1.489,0-2.694,1.939-2.691,4.32s1.206,4.3,2.691,4.3H514.244c1.489,0,2.694-1.939,2.691-4.32s-1.206-4.3-2.691-4.3Z" transform="translate(-292.7 -204.795)" fill="#273a57"/>
    <path id="Path_157" data-name="Path 157" d="M311.987,400.746c-1.489,0-2.694,1.939-2.691,4.32s1.206,4.3,2.691,4.3H441.812c1.489,0,2.694-1.939,2.691-4.32s-1.206-4.3-2.691-4.3Z" transform="translate(-292.7 -203.135)" fill="#273a57"/>
    <path id="Path_5149" data-name="Path 5149" d="M298.243,657.868c.068-.155.146-.3.216-.457C298.584,656.126,298.243,657.868,298.243,657.868Z" transform="translate(-293.508 -184.665)" fill="#f2f2f2"/>
    <path id="Path_5150" data-name="Path 5150" d="M334.93,648.05a52.618,52.618,0,0,0-7.647.553l-.365.053a33.7,33.7,0,0,0-28.332,34.435l.1,3.088c.064,1.952.132,4.051.188,6.38a2.054,2.054,0,0,0,2.059,2.03H710.537c28.879-.3,57.654-.686,85.52-1.137a84.761,84.761,0,0,0,15.646-1.405c7.744-1.589,13.119-4.738,16.434-9.627h0c4.122-6.063,4.252-13.7,4-22.325-.508-17.419-1.011-35.717-1.514-53.961-.444-16.078-.886-32.114-1.328-47.466-.273-9.111-.88-17.152-5.561-23.3-5.073-6.647-14.326-10.016-27.5-10.016h-.478c-41.291.255-82.2,24.864-101.8,61.237-2.257,4.189-4.36,8.673-6.395,13.01a179.729,179.729,0,0,1-9.821,18.955,61.947,61.947,0,0,1-6.488,8.766c-.159.191-.341.4-.534.589-.441.5-.9.978-1.351,1.405a42.2,42.2,0,0,1-8.274,6.52l-.29.169c-.218.135-.455.27-.692.394a37.734,37.734,0,0,1-5.11,2.367c-7.472,2.855-15.968,3.539-25.252,2.032a79.3,79.3,0,0,1-25.108-8.869c-8.6-4.709-16.643-10.581-24.425-16.259-3.418-2.5-6.954-5.074-10.484-7.518-.664-.46-1.317-.91-1.979-1.359-4.312-2.913-8.222-5.319-11.952-7.355a75.347,75.347,0,0,0-28.482-9.144c-10.269-.975-19.319.864-26.891,5.45a40.168,40.168,0,0,0-6.083,4.543c-8.969,8.073-14.5,19.988-19.845,31.511-6.651,14.332-13.529,29.154-27.109,36.838-15.671,8.874-38.545,5.187-54.728-1.224-5.088-2.016-10.17-4.335-15.085-6.579-1.985-.906-3.97-1.812-5.959-2.7-3.906-1.748-7.1-3.087-10.06-4.218l-.935-.36c-.52-.2-1.041-.392-1.571-.578a96.068,96.068,0,0,0-10.005-3.076l-.762-.193c-1.528-.349-2.956-.639-4.358-.883l-.56-.1A52.038,52.038,0,0,0,334.93,648.05Z" transform="translate(-293.484 -194.28)" fill="#8aa1c5"/>
    <path id="Path_5151" data-name="Path 5151" d="M546.863,661.541c-6.823-25.663,8.329-50.677,26.035-67.993,9.436-9.229,19.945-17.251,30.193-25.537a322.467,322.467,0,0,0,28.045-25.257c17.084-17.486,31.987-37.469,41.855-59.932,9.385-21.361,13.821-44.63,11.623-67.937-2.084-22.1-10.007-43.849-24.582-60.809q-2.724-3.17-5.732-6.077c-1.075-1.044-2.723.6-1.646,1.646,16.276,15.8,25.749,37.221,28.955,59.5,3.306,22.978-.1,46.4-8.693,67.885-9.153,22.884-23.708,43.3-40.587,61.125a299.387,299.387,0,0,1-27.077,25.1c-10.181,8.387-20.761,16.311-30.455,25.274-17.868,16.518-33.926,39.24-31.72,64.817a51.48,51.48,0,0,0,1.541,8.809,1.165,1.165,0,0,0,2.244-.619Z" transform="translate(-275.923 -207.264)" fill="#273a57"/>
    <path id="Path_5152" data-name="Path 5152" d="M615.558,516.171a1.165,1.165,0,0,1-2.007,1.18q-4.008-6.873-7.565-13.982c-1.6-3.219-3.133-6.481-4.571-9.776a244.335,244.335,0,0,1-20.131-116.471A229.42,229.42,0,0,1,586,344.683c.483-2.168,1-4.335,1.567-6.481.858-.139,1.7-.322,2.522-.537-5.043,18.285-7.072,37.568-7.136,56.433a242.217,242.217,0,0,0,8.166,63.215,237.8,237.8,0,0,0,24.445,58.858Z" transform="translate(-273.146 -207.746)" fill="#273a57"/>
    <path id="Path_5153" data-name="Path 5153" d="M766.406,457.548c-8.724,18.768-23.382,34.177-39.822,46.453-18.639,13.918-39.747,23.962-60.661,33.931-1.341.644-2.522-1.363-1.17-2.007,4.99-2.382,9.98-4.765,14.937-7.19,19.83-9.733,39.489-20.442,56.09-35.186,15.356-13.639,27.868-30.626,33.576-50.553,5.956-20.742,4.829-43.17-1.577-63.665A139.531,139.531,0,0,0,750.836,344.2q-3.606-5.457-7.63-10.613-2.93-3.75-6.052-7.351a200.558,200.558,0,0,0-22.127-21.73,127,127,0,0,0-27.149-17.92,77.507,77.507,0,0,0-32.2-7.79,57.838,57.838,0,0,0-30.057,7.941A67.982,67.982,0,0,0,609.051,300.6c-.311-.783-.655-1.556-1.041-2.307,8.2-9.067,18.425-16.193,30.325-19.573,21.987-6.245,45.2,1.084,63.751,13.21a170.867,170.867,0,0,1,25.249,20.582c2.887,2.8,5.7,5.687,8.4,8.66q4.893,5.344,9.346,11.063s.022.011.022.021q1.5,1.915,2.94,3.885c12.544,17.062,21.912,36.645,25.646,57.581C777.513,415.129,775.624,437.707,766.406,457.548Z" transform="translate(-271.26 -212.05)" fill="#273a57"/>
    <path id="Path_5154" data-name="Path 5154" d="M754.667,436.588c-8.713,18.768-23.372,34.177-39.822,46.453-17.824,13.3-37.9,23.071-57.9,32.611-.912.44-1.835.869-2.747,1.309a1.152,1.152,0,0,1-.955.043,1.115,1.115,0,0,1-.225-2.05c.772-.376,1.556-.74,2.329-1.105,1.331-.644,2.65-1.277,3.981-1.91q4.33-2.06,8.638-4.174c19.82-9.722,39.489-20.442,56.079-35.186,15.366-13.639,27.878-30.626,33.587-50.552,5.945-20.742,4.818-43.159-1.588-63.655a133.84,133.84,0,0,0-9.829-23.254c-2.286-4.249-4.786-8.4-7.469-12.415a169.788,169.788,0,0,0-13.328-17.437A199.39,199.39,0,0,0,703.3,283.546a126.941,126.941,0,0,0-27.159-17.92,77.472,77.472,0,0,0-32.192-7.8,57.877,57.877,0,0,0-30.068,7.941,70.194,70.194,0,0,0-20.421,18.618,102.22,102.22,0,0,0-14.969,29.66,180.964,180.964,0,0,0-6.653,28.436,237.266,237.266,0,0,0-2.629,35.122,242.748,242.748,0,0,0,8.166,63.225,238.373,238.373,0,0,0,24.445,58.858.983.983,0,0,1,.075.15,1.165,1.165,0,0,1-2.082,1.019Q595.8,494,592.258,486.872a244.165,244.165,0,0,1-24.713-126.247q.708-9.561,2.2-19.058,1.046-6.728,2.522-13.381a134.168,134.168,0,0,1,10.784-31.463,89.718,89.718,0,0,1,8.037-13.059c8.9-12.029,20.957-21.773,35.519-25.9,21.987-6.256,45.187,1.073,63.751,13.2a171.991,171.991,0,0,1,25.249,20.582,189.235,189.235,0,0,1,20.7,23.629,156.589,156.589,0,0,1,11.782,18.6s.022.011.022.021c2.092,3.9,4.013,7.876,5.73,11.943a125.876,125.876,0,0,1,8.112,27.02C765.784,394.169,763.9,416.736,754.667,436.588Z" transform="translate(-274.238 -213.582)" fill="#273a57"/>
    <path id="Path_5155" data-name="Path 5155" d="M675.07,435.563a44.351,44.351,0,0,0,28.082-10.251,43.037,43.037,0,0,0,14.868-26.6,43.922,43.922,0,0,0-.86-17.617,1.165,1.165,0,0,0-2.244.619,41.856,41.856,0,0,1-3.161,29.117,41.391,41.391,0,0,1-36.686,22.405,1.164,1.164,0,0,0,0,2.327Z" transform="translate(-266.422 -204.628)" fill="#273a57"/>
    <path id="Path_5156" data-name="Path 5156" d="M594.208,556.006l-7.491-13.186a1.165,1.165,0,0,0-2.01,1.175l7.491,13.186a1.165,1.165,0,0,0,2.01-1.175Z" transform="translate(-272.85 -192.926)" fill="#8aa1c5"/>
    <path id="Path_5157" data-name="Path 5157" d="M556.027,304.606c-2.242-1.582-4.694-3.232-7.437-3.166-6.639.16-10.218,9.892-16.85,9.55-4.229-.218-7.037-4.515-10.975-6.073-5.127-2.028-11.651,1.938-12.211,7.423l.658-.6a158.972,158.972,0,0,0,60.9,2.814Z" transform="translate(-278.354 -210.302)" fill="#273a57"/>
    <circle id="Ellipse_551" data-name="Ellipse 551" cx="6.703" cy="6.703" r="6.703" transform="translate(243.54 476.452)" fill="#0b2d61"/>
    <circle id="Ellipse_552" data-name="Ellipse 552" cx="6.703" cy="6.703" r="6.703" transform="translate(262.964 476.452)" fill="#fff" opacity="0.3"/>
    <circle id="Ellipse_553" data-name="Ellipse 553" cx="6.703" cy="6.703" r="6.703" transform="translate(282.386 476.452)" fill="#0b2d61"/>
    <circle id="Ellipse_554" data-name="Ellipse 554" cx="5.363" cy="5.363" r="5.363" transform="translate(264.365 477.793)" fill="#0b2d61"/>
    <path id="Path_5158" data-name="Path 5158" d="M545.662,454.767h-7.347l-3.5-28.341h10.843Z" transform="translate(38.57 30.742)" fill="#ffb6b6"/>
    <path id="Path_5159" data-name="Path 5159" d="M844.12,682.392h-5.269l-.941-4.975-2.409,4.975H821.527a3.141,3.141,0,0,1-1.784-5.727l11.16-7.708v-5.029l11.738.7Z" transform="translate(-256.01 -184.154)" fill="#273a57"/>
    <path id="Path_5160" data-name="Path 5160" d="M506.915,448.8,500,451.276l-12.845-25.5,10.21-3.655Z" transform="translate(35.087 30.427)" fill="#ffb6b6"/>
    <path id="Path_5161" data-name="Path 5161" d="M809.331,671.121l-4.551,2.655-3.319-3.823.426,5.511-12.071,7.042a3.141,3.141,0,0,1-4.427-4.047l5.756-12.281-2.534-4.344,10.492-5.31Z" transform="translate(-258.442 -184.695)" fill="#273a57"/>
    <path id="Path_5162" data-name="Path 5162" d="M846.261,665.7h-.088l-1.562-50.93a13.317,13.317,0,0,0-.175-12.585l-.224-.4.58-2.687a17.118,17.118,0,0,0-.978-10.3l-1.457-47.509c5.205-33.735-19.194-60.15-19.194-60.15h-39.04l-6.507,31.825-20.831,79.632a10.539,10.539,0,0,0-1.022,9.6l29.584,58.527-.228.115a1.928,1.928,0,0,0-.787,2.542c.387,1.12,1.366,1.8,2.188,1.515l11.532-5.833a1.928,1.928,0,0,0,.787-2.542c-.387-1.12-1.366-1.8-2.188-1.515l-1.334.675-8.926-44-.316-8.977.651-10.184,19.194-43.6,11.386,56.331,16.781,61.017A2.139,2.139,0,0,0,835.53,670h10.731a2.146,2.146,0,0,0,0-4.292Z" transform="translate(-260.638 -197.511)" fill="#273a57"/>
    <path id="Path_5163" data-name="Path 5163" d="M825.841,460.135,824.8,471.767s-.451,9.658-1.878,11.793-40.069,2.393-40.069,2.393-2.554-13.768-4.754-25.818Z" transform="translate(-258.953 -198.858)" fill="#ffb6b6"/>
    <circle id="Ellipse_555" data-name="Ellipse 555" cx="19.86" cy="19.86" r="19.86" transform="translate(527.673 149.175)" fill="#ffb6b6"/>
    <path id="Path_5164" data-name="Path 5164" d="M816.849,396.135l-15.94,1.875a3.253,3.253,0,0,0-2.8,2.536l-2.535,11.6-15.8,18.609s-5.674,10.639-3.546,22.7,3.062,21.018,3.062,21.018,42.388,15.893,43.807,13.765,1.879-11.793,1.879-11.793l5.674-63.127s-6.384-10.639-9.93-10.639C818.432,402.6,818.725,397.446,816.849,396.135Z" transform="translate(-259.125 -203.501)" fill="#0b2d61"/>
    <path id="Path_5165" data-name="Path 5165" d="M514.651,217.71,507.559,270.2l-7.44.387Z" transform="translate(36.035 15.69)" opacity="0.2"/>
    <ellipse id="Ellipse_556" data-name="Ellipse 556" cx="4.047" cy="4.857" rx="4.047" ry="4.857" transform="translate(515.687 265.107)" fill="#273a57"/>
    <path id="Path_5166" data-name="Path 5166" d="M805.442,533.894a8.14,8.14,0,0,0-1.069-12.435l13.287-64.3-14.335,4.522-10.69,62.21a8.184,8.184,0,0,0,12.807,10.008Z" transform="translate(-257.978 -199.101)" fill="#ffb6b6"/>
    <path id="Path_5167" data-name="Path 5167" d="M815.819,403.9s9.552-4.135,15.352,6.275-2.57,46.591-3.744,52.463-17.28,33.863-17.28,33.863l-16.1-3.219Z" transform="translate(-257.788 -203.002)" fill="#0b2d61"/>
    <path id="Path_5168" data-name="Path 5168" d="M797,357.754c6.886-4.736,12.951-5.458,17.932-4.114a6.549,6.549,0,0,1,2.619-2.326c3.885-9.789,15.709-15.669,25.855-12.811,10.212,2.876,17.259,14.189,15.337,24.623-1.191,6.468-5.261,12.068-6.9,18.438-3.169,12.33,4.562,26.454,16.656,30.428-11.451,2.3-24.056-4.7-28.164-15.629-2-5.311-2.116-11.109-2.369-16.776s-.71-11.505-3.279-16.564a16.927,16.927,0,0,0-8.1-7.859,6.461,6.461,0,0,1-.944,5.817c2.686,3.364,4.147,7,4.147,9.181,5.579,10.2-2.4,18.954-12.6,24.533a20.889,20.889,0,0,1-13.346,2.327l-.427-1.821-.578,1.64-1.929,5.5q-3.339,1.615-6.619,3.541c.831-3.9,1.5-7.8,1.966-11.605.64-5.183-1.592-12.9-3.2-17.592a27.7,27.7,0,0,1-1.516-8.989v-.134l-1.568,5.037-5.709-2.435C785.331,364.069,784.269,357.154,797,357.754Z" transform="translate(-258.503 -207.696)" fill="#2e2e2e"/>
  </g>
</svg>
