<svg id="web-development" xmlns="http://www.w3.org/2000/svg" width="610" height="411.281" viewBox="0 0 610 411.281">
  <rect id="Rectangle_62" data-name="Rectangle 62" width="609.74" height="289.701" transform="translate(0.26 16.738)" fill="#e5e5e5"/>
  <rect id="Rectangle_75" data-name="Rectangle 75" width="574.824" height="241.707" transform="translate(17.458 40.735)" fill="#fff"/>
  <rect id="Rectangle_80" data-name="Rectangle 80" width="609.74" height="25.937" fill="#0b2d61"/>
  <circle id="Ellipse_90" data-name="Ellipse 90" cx="4.807" cy="4.807" r="4.807" transform="translate(14.467 8.113)" fill="#fff"/>
  <circle id="Ellipse_91" data-name="Ellipse 91" cx="4.807" cy="4.807" r="4.807" transform="translate(32.714 8.113)" fill="#fff"/>
  <circle id="Ellipse_92" data-name="Ellipse 92" cx="4.807" cy="4.807" r="4.807" transform="translate(50.961 8.113)" fill="#fff"/>
  <path id="Path_680" data-name="Path 680" d="M332.013,298.519a2.37,2.37,0,0,0,0,4.74h64.759a2.37,2.37,0,0,0,0-4.74Z" transform="translate(-220.15 -202.039)" fill="#273a57"/>
  <path id="Path_680-2" data-name="Path 680" d="M281.513,343.519a2.37,2.37,0,0,0,0,4.74H419.522a2.37,2.37,0,0,0,0-4.74Z" transform="translate(-206.117 -214.445)" fill="#ccc"/>
  <path id="Path_680-3" data-name="Path 680" d="M281.513,369.519a2.37,2.37,0,0,0,0,4.74H419.522a2.37,2.37,0,0,0,0-4.74Z" transform="translate(-206.117 -221.613)" fill="#ccc"/>
  <path id="Path_680-4" data-name="Path 680" d="M281.513,395.519a2.37,2.37,0,0,0,0,4.74H419.522a2.37,2.37,0,1,0,0-4.74Z" transform="translate(-206.117 -228.781)" fill="#ccc"/>
  <path id="Path_680-5" data-name="Path 680" d="M281.513,421.519a2.37,2.37,0,0,0,0,4.74H419.522a2.37,2.37,0,0,0,0-4.74Z" transform="translate(-206.117 -235.949)" fill="#ccc"/>
  <path id="Path_680-6" data-name="Path 680" d="M281.513,447.519a2.37,2.37,0,0,0,0,4.74H419.522a2.37,2.37,0,0,0,0-4.74Z" transform="translate(-206.117 -243.117)" fill="#ccc"/>
  <path id="Path_680-7" data-name="Path 680" d="M281.513,473.519a2.37,2.37,0,0,0,0,4.74H419.522a2.37,2.37,0,0,0,0-4.74Z" transform="translate(-206.117 -250.285)" fill="#ccc"/>
  <path id="Path_3241" data-name="Path 3241" d="M829.007,430.9H620.063a5.273,5.273,0,0,1-5.268-5.268V302.723a5.273,5.273,0,0,1,5.268-5.268H829.007a5.273,5.273,0,0,1,5.268,5.268V425.632A5.273,5.273,0,0,1,829.007,430.9Z" transform="translate(-299.117 -201.803)" fill="#f1f1f1"/>
  <path id="Path_3242" data-name="Path 3242" d="M866.907,469.661H657.962a5.273,5.273,0,0,1-5.268-5.268V341.485a5.273,5.273,0,0,1,5.268-5.267H866.907a5.273,5.273,0,0,1,5.267,5.267V464.394a5.273,5.273,0,0,1-5.267,5.267Z" transform="translate(-309.531 -212.506)" fill="#fff"/>
  <path id="Path_3243" data-name="Path 3243" d="M866.227,470.775H657.283a7.068,7.068,0,0,1-7.06-7.06V340.806a7.068,7.068,0,0,1,7.06-7.06H866.227a7.068,7.068,0,0,1,7.06,7.06V463.715A7.068,7.068,0,0,1,866.227,470.775ZM657.283,337.332a3.479,3.479,0,0,0-3.475,3.475V463.715a3.479,3.479,0,0,0,3.475,3.475H866.227a3.479,3.479,0,0,0,3.475-3.475V340.806a3.479,3.479,0,0,0-3.475-3.475Z" transform="translate(-308.852 -211.827)" fill="#273a57"/>
  <circle id="Ellipse_208" data-name="Ellipse 208" cx="18.131" cy="18.131" r="18.131" transform="translate(434.68 188.611)" fill="#ff6583"/>
  <path id="Path_3244" data-name="Path 3244" d="M802.911,425.306a11.676,11.676,0,0,0-16.7-.3l-58.8,58.8c-7.532,7.568-15.4-4.007-20.42-8.674-12.083-11.95-25.134,10.457-33.255,16.874H862.7V489.6Z" transform="translate(-315.311 -236.028)" fill="#273a57"/>
  <path id="Path_3245" data-name="Path 3245" d="M524.283,492.227l-3.18-44.061,5.71-41.289-16.218-1.1-3.2,45.61,9.047,42.891a6.38,6.38,0,1,0,7.841-2.055Z" transform="translate(-269.145 -231.678)" fill="#9f616a"/>
  <path id="Path_3246" data-name="Path 3246" d="M508.955,403.994l3.808-16.482a12.69,12.69,0,0,1,24.974,4.277l-2.1,18.624Z" transform="translate(-269.58 -223.877)" fill="#273a57"/>
  <path id="Path_3247" data-name="Path 3247" d="M371.9,546.424h7.645l3.637-29.491H371.9Z" transform="translate(-102.532 -142.555)" fill="#9f616a"/>
  <path id="Path_3248" data-name="Path 3248" d="M547.665,719.471h15.058a9.6,9.6,0,0,1,9.6,9.6v.312H547.665Z" transform="translate(-280.251 -318.098)" fill="#01183a"/>
  <path id="Path_3249" data-name="Path 3249" d="M421.347,545.334l7.35-2.105-4.623-29.353-10.848,3.108Z" transform="translate(-113.928 -141.715)" fill="#9f616a"/>
  <path id="Path_3250" data-name="Path 3250" d="M599.342,718.288l14.475-4.146h0a9.6,9.6,0,0,1,11.867,6.583l.086.3-23.7,6.789Z" transform="translate(-294.5 -316.532)" fill="#01183a"/>
  <path id="Path_3251" data-name="Path 3251" d="M540.505,636.657l3.557-89.334L534.825,506.9c-12.43-20.84.98-54.081,1.117-54.415l.05-.122.13-.018,32.514-4.405.457,1.048a155.7,155.7,0,0,1,10.115,92.48l-3.384,17.308L592.549,626.3l-15.829,7.914-12.145-31.493-8.21,32.222Z" transform="translate(-275.279 -243.492)" fill="#01183a"/>
  <path id="Path_3252" data-name="Path 3252" d="M527.147,438.637l-10.607-31.08c-6.594-11.613-2.412-21.922,2.259-28.526,5.043-7.131,5.346-11.13,5.413-11.174l.054-.036L538.2,367.4,551.1,380.5c.811-.317,7.664,16.571,7.083,17.421l9.008,29.12Z" transform="translate(-270.744 -221.065)" fill="#273a57"/>
  <path id="Path_3253" data-name="Path 3253" d="M623.031,450.75l-34.942-27.028-26.946-31.8-11.637,11.35,31.839,32.815,37.985,21.877a6.38,6.38,0,1,0,3.7-7.212Z" transform="translate(-280.797 -227.83)" fill="#9f616a"/>
  <path id="Path_3254" data-name="Path 3254" d="M540.382,410.611l-9.736-13.833a12.69,12.69,0,0,1,19.848-15.749l12.473,13.988Z" transform="translate(-274.926 -223.631)" fill="#273a57"/>
  <circle id="Ellipse_209" data-name="Ellipse 209" cx="16.549" cy="16.549" r="16.549" transform="translate(242.313 109.498)" fill="#9f616a"/>
  <path id="Path_3255" data-name="Path 3255" d="M549.08,322.462H522.8V311.007c5.768-2.291,11.412-4.24,14.824,0a11.455,11.455,0,0,1,11.455,11.455Z" transform="translate(-273.396 -204.795)" fill="#01183a"/>
  <path id="Path_3256" data-name="Path 3256" d="M520.271,308.165c-24.077-.658-19.517,39.008-19.517,39.008s4.542.6,6.615.954l2.5-1.41,2.693,1.767c1.237.006,2.536-.018,3.883-.043l1.235-2.542,2.753,2.5c5.012.007,18.614.146,18.614.146S547.248,308.9,520.271,308.165Z" transform="translate(-267.23 -204.709)" fill="#01183a"/>
</svg>
