<svg xmlns="http://www.w3.org/2000/svg" width="610" height="414.02" viewBox="0 0 610 414.02">
  <g id="undraw_content_re_33px" transform="translate(0)">
    <path id="Path_4605" data-name="Path 4605" d="M844.65,146.935H430.036a5.961,5.961,0,0,0-5.956,5.956V302.76H524.421a10.258,10.258,0,0,1,10.246,10.246V439.8H844.65a5.951,5.951,0,0,0,4.529-2.09,1.41,1.41,0,0,0,.13-.164,5.576,5.576,0,0,0,.854-1.441,5.813,5.813,0,0,0,.451-2.261V152.891a5.963,5.963,0,0,0-5.963-5.956Z" transform="translate(-240.613 -146.935)" fill="#f2f2f2"/>
    <rect id="Rectangle_568" data-name="Rectangle 568" width="424.83" height="1.703" transform="translate(184.314 23.874)" fill="#ccc"/>
    <circle id="Ellipse_476" data-name="Ellipse 476" cx="5.108" cy="5.108" r="5.108" transform="translate(195.526 7.664)" fill="#ccc"/>
    <circle id="Ellipse_477" data-name="Ellipse 477" cx="5.108" cy="5.108" r="5.108" transform="translate(210.145 7.664)" fill="#ccc"/>
    <circle id="Ellipse_478" data-name="Ellipse 478" cx="5.108" cy="5.108" r="5.108" transform="translate(224.765 7.664)" fill="#ccc"/>
    <path id="Path_4606" data-name="Path 4606" d="M789.292,236.315H576.179a8.88,8.88,0,0,0,0,17.759H789.292a8.88,8.88,0,0,0,0-17.759Zm0,16.393H576.179a7.514,7.514,0,1,1,0-15.027H789.292a7.514,7.514,0,1,1,0,15.027Z" transform="translate(-285.304 -175.264)" fill="#ccc"/>
    <path id="Path_4607" data-name="Path 4607" d="M884.763,339.885H671.65a8.88,8.88,0,0,0,0,17.759H884.763a8.88,8.88,0,1,0,0-17.759Z" transform="translate(-316.265 -208.09)" fill="#fff"/>
    <path id="Path_4608" data-name="Path 4608" d="M884.763,387.885H671.65a8.88,8.88,0,0,0,0,17.759H884.763a8.88,8.88,0,0,0,0-17.759Z" transform="translate(-316.265 -223.303)" fill="#fff"/>
    <path id="Path_4609" data-name="Path 4609" d="M884.763,435.885H671.65a8.88,8.88,0,0,0,0,17.759H884.763a8.88,8.88,0,0,0,0-17.759Z" transform="translate(-316.265 -238.517)" fill="#fff"/>
    <path id="Path_4610" data-name="Path 4610" d="M576.7,318.385H479.688a7.858,7.858,0,0,0-7.848,7.848V357.1h1.366V326.233a6.492,6.492,0,0,1,6.482-6.482H576.7a6.488,6.488,0,0,1,6.482,6.482v97.007a6.488,6.488,0,0,1-6.482,6.482H549.8v1.366H576.7a7.853,7.853,0,0,0,7.848-7.848V326.233A7.853,7.853,0,0,0,576.7,318.385Z" transform="translate(-254.209 -201.275)" fill="#ccc"/>
    <path id="Path_4611" data-name="Path 4611" d="M249.976,439.112c-.343.014-14.966-1-15.339-1.013l1.314-13.113,8.329-.251,15.915-29.477a7.549,7.549,0,0,1,5.191-10.655c9.436-2.145,12.677,12.7,3.213,14.676L255.435,435.3a5.84,5.84,0,0,1-5.458,3.813Z" transform="translate(-177.83 -222.196)" fill="#ffb8b8"/>
    <path id="Path_4612" data-name="Path 4612" d="M195.522,462.424c-13.915.034-15.136-21-1.191-22.477,36.877-2.228,32.21-11.49,35.011,15.83a3.077,3.077,0,0,1-2.729,3.384l-29.884,3.2A11.357,11.357,0,0,1,195.522,462.424Z" transform="translate(-161.926 -238.754)" fill="#0b2d61"/>
    <path id="Path_4613" data-name="Path 4613" d="M184.5,376.043c19.17,10.908,3.432,39.69-16.095,29.441C149.237,394.576,164.975,365.794,184.5,376.043Z" transform="translate(-154.081 -218.862)" fill="#ffb8b8"/>
    <path id="Path_4614" data-name="Path 4614" d="M70.048,577.835h8.374l3.984-32.3H70.047Z" transform="translate(-22.201 -172.905)" fill="#ffb8b8"/>
    <path id="Path_4615" data-name="Path 4615" d="M218.893,746.35h26.319c-.1-13.58-17.7-9.667-26.319-10.167Z" transform="translate(-172.839 -333.644)" fill="#2f2e41"/>
    <path id="Path_4616" data-name="Path 4616" d="M17.048,577.835h8.374l3.984-32.3H17.047Z" transform="translate(-5.403 -172.905)" fill="#ffb8b8"/>
    <path id="Path_4617" data-name="Path 4617" d="M165.893,746.35h26.319c-.1-13.58-17.7-9.667-26.319-10.167Z" transform="translate(-156.041 -333.644)" fill="#2f2e41"/>
    <path id="Path_4618" data-name="Path 4618" d="M174.611,668.712c-2.024-.555-13.022,1.124-14.32-1.081-4.533-45.431-3.525-89.892,6.537-114.323l34.6-2.118c7.736,14.122,25.519,107.837,14.792,113.535l-13.794.492a3.428,3.428,0,0,1-3.442-2.614L187.44,596.95c-2.874-4.017-8.523,69.141-9.456,68.868a3.4,3.4,0,0,1-3.373,2.893Z" transform="translate(-153.449 -275.062)" fill="#2f2e41"/>
    <path id="Path_4619" data-name="Path 4619" d="M164.868,521.184c-17.467-18.274-6.325-67.266-6.889-66.224.048-1.2,4-19.683,14.238-22.716,8.119-2.68,17.106,5.336,18.214,13.443l12.163,71.825a2.526,2.526,0,0,1-.692,2.172C202.5,521.546,165.722,520.811,164.868,521.184Z" transform="translate(-152.587 -237.196)" fill="#0b2d61"/>
    <path id="Path_4620" data-name="Path 4620" d="M169.42,386.106c1.534-.97,2.29-2.633,3.183-4.148,4.7-2.68,10.11,3.8,15.084,1.384,14.066-13.5-.392-17.487-13.347-18.2a10.586,10.586,0,0,0-7.977,2.5c-25.878-1.976-13.467,32.433,2.865,36.978,2.884,1.263,5.047-1.293,2.5-3.617C168.213,397.317,163.854,389.892,169.42,386.106Z" transform="translate(-151.471 -216.071)" fill="#2f2e41"/>
    <path id="Path_4621" data-name="Path 4621" d="M478.749,373.065H291.592a11.628,11.628,0,0,0-11.612,11.612V621.014a11.628,11.628,0,0,0,11.612,11.612H478.749a11.628,11.628,0,0,0,11.612-11.612V384.677A11.628,11.628,0,0,0,478.749,373.065Zm10.246,247.949a10.258,10.258,0,0,1-10.246,10.246H291.592a10.258,10.258,0,0,1-10.246-10.246V384.677a10.258,10.258,0,0,1,10.246-10.246H478.749a10.258,10.258,0,0,1,10.246,10.246Z" transform="translate(-192.201 -218.606)" fill="#3f3d56"/>
    <path id="Path_4622" data-name="Path 4622" d="M214.564,508.416c-6.168.7-8.876-13.656-11.235-17.313l12.285-4.77,4,7.311,33.489.832a7.3,7.3,0,0,1,.651-.765h0c6.641-6.954,17.457,3.465,10.841,10.4a7.538,7.538,0,0,1-11.268-.326C252.5,503.849,215.373,508.438,214.564,508.416Z" transform="translate(-167.907 -254.506)" fill="#ffb8b8"/>
    <path id="Path_4623" data-name="Path 4623" d="M196.759,488.216c-2.054,1.979-17.821-25.8-18.973-26.586-7.967-12.384,10.789-24.61,18.894-12.294l16.391,25.19a3.077,3.077,0,0,1-.9,4.252C211.424,479.128,197.286,488.968,196.759,488.216Z" transform="translate(-159.199 -241.157)" fill="#0b2d61"/>
    <path id="Path_4624" data-name="Path 4624" d="M460.328,604.324H346.941c-11.583-.056-11.631-17.7,0-17.759H460.328C471.9,586.619,471.965,604.264,460.328,604.324Z" transform="translate(-211.39 -286.274)" fill="#ccc"/>
    <path id="Path_4625" data-name="Path 4625" d="M460.328,652.324H346.941c-11.583-.056-11.631-17.7,0-17.759H460.328C471.9,634.619,471.965,652.264,460.328,652.324Z" transform="translate(-211.39 -301.487)" fill="#ccc"/>
    <path id="Path_4626" data-name="Path 4626" d="M460.328,700.324H346.941c-11.583-.056-11.631-17.7,0-17.759H460.328C471.9,682.619,471.965,700.264,460.328,700.324Z" transform="translate(-211.39 -316.701)" fill="#ccc"/>
    <path id="Path_4627" data-name="Path 4627" d="M570.739,388.584A17.759,17.759,0,1,1,588.5,370.824,17.759,17.759,0,0,1,570.739,388.584Z" transform="translate(-280.029 -212.267)" fill="#0b2d61"/>
    <path id="Path_4628" data-name="Path 4628" d="M583.056,373.786h-7.514v-8.538a.683.683,0,1,0-1.366,0v8.538h-7.514a.683.683,0,0,0,0,1.366h7.514v8.538a.683.683,0,1,0,1.366,0v-8.538h7.514a.683.683,0,0,0,0-1.366Z" transform="translate(-284.151 -215.912)" fill="#fff"/>
    <path id="Path_4629" data-name="Path 4629" d="M458.039,516.507H348.75a11.283,11.283,0,0,1-11.27-11.27v-61.2a11.283,11.283,0,0,1,11.27-11.27H458.039a11.283,11.283,0,0,1,11.27,11.27v61.2a11.283,11.283,0,0,1-11.27,11.271Z" transform="translate(-211.149 -237.528)" fill="#0b2d61"/>
  </g>
</svg>
