<svg xmlns="http://www.w3.org/2000/svg" width="610.539" height="385.136" viewBox="0 0 610.539 385.136">
  <g id="mongodb-data" transform="translate(0.039)">
    <rect id="Rectangle_444" data-name="Rectangle 444" width="253.69" height="52.197" transform="translate(268.943 54.313)" fill="none" stroke="#273a57" stroke-miterlimit="10" stroke-width="1"/>
    <path id="Path_3694" data-name="Path 3694" d="M250.224,357.431c7.234-11.3,20.931-18.931,36.637-18.931,23.248,0,42.095,16.71,42.095,37.324,0,13.179-7.7,24.763-19.337,31.4" transform="translate(-133.459 -228.772)" fill="none" stroke="#ccc" stroke-miterlimit="10" stroke-width="1"/>
    <rect id="Rectangle_445" data-name="Rectangle 445" width="253.69" height="52.197" transform="translate(250.786 64.495)" fill="#fff"/>
    <circle id="Ellipse_319" data-name="Ellipse 319" cx="3.929" cy="3.929" r="3.929" transform="translate(85.627 6.674)" fill="#fff"/>
    <circle id="Ellipse_320" data-name="Ellipse 320" cx="3.929" cy="3.929" r="3.929" transform="translate(99.097 6.674)" fill="#fff"/>
    <circle id="Ellipse_321" data-name="Ellipse 321" cx="3.929" cy="3.929" r="3.929" transform="translate(112.567 6.674)" fill="#fff"/>
    <path id="Path_3776" data-name="Path 3776" d="M0,0H472.714V306.837H0Z" transform="translate(78.892 0.5)" fill="none" stroke="#273a57" stroke-width="1"/>
    <path id="Path_3775" data-name="Path 3775" d="M0,0H472.714" transform="translate(78.892 17.526)" fill="none" stroke="#273a57" stroke-width="1"/>
    <circle id="Ellipse_322" data-name="Ellipse 322" cx="3.929" cy="3.929" r="3.929" transform="translate(86.749 4.99)" fill="none" stroke="#273a57" stroke-miterlimit="10" stroke-width="1"/>
    <circle id="Ellipse_323" data-name="Ellipse 323" cx="3.929" cy="3.929" r="3.929" transform="translate(100.22 4.99)" fill="none" stroke="#273a57" stroke-miterlimit="10" stroke-width="1"/>
    <circle id="Ellipse_324" data-name="Ellipse 324" cx="3.929" cy="3.929" r="3.929" transform="translate(113.69 4.99)" fill="none" stroke="#273a57" stroke-miterlimit="10" stroke-width="1"/>
    <path id="Path_3695" data-name="Path 3695" d="M61.946,330.263a12.134,12.134,0,1,0-14.951-17.906l4.544,4.295L45.7,314.838a12.088,12.088,0,0,0,.24,9.244,11.9,11.9,0,0,0,1.77,2.851A12.132,12.132,0,0,0,61.946,330.263Z" transform="translate(-43.645 -215.04)" fill="#273a57"/>
    <path id="Path_3696" data-name="Path 3696" d="M132.031,357.537C127.6,354.428,127.6,347.9,128.7,342.6s2.781-11.082.282-15.884c-3.591-6.9-13.029-7.316-20.774-8.054a73.051,73.051,0,0,1-16.865-3.656,19.709,19.709,0,0,1-6.171-3.1c-2.58-2.11-4.094-5.221-5.507-8.24Q72.6,288.585,66.257,273.18" transform="translate(-53.016 -200.195)" fill="none" stroke="#8aa1c5" stroke-miterlimit="10" stroke-width="1"/>
    <path id="Path_3697" data-name="Path 3697" d="M60.6,327.579a12.134,12.134,0,1,0-14.951-17.906l4.544,4.295-5.838-1.814a12.088,12.088,0,0,0,.24,9.244,11.9,11.9,0,0,0,1.77,2.851,12.132,12.132,0,0,0,14.235,3.33Z" transform="translate(-43.056 -213.866)" fill="none" stroke="#8aa1c5" stroke-miterlimit="10" stroke-width="1"/>
    <path id="Path_3698" data-name="Path 3698" d="M46.768,272.459a12.12,12.12,0,0,1,.971-11.6l4.833,3.591-2.983-5.781a12.133,12.133,0,1,1-2.821,13.789Z" transform="translate(-44.009 -192.456)" fill="#273a57"/>
    <path id="Path_3699" data-name="Path 3699" d="M44.978,268.882a12.12,12.12,0,0,1,.971-11.6l4.833,3.591L47.8,255.093a12.133,12.133,0,1,1-2.821,13.789Z" transform="translate(-43.224 -190.891)" fill="none" stroke="#8aa1c5" stroke-miterlimit="10" stroke-width="1"/>
    <path id="Path_3700" data-name="Path 3700" d="M125.084,338.846a12.133,12.133,0,0,0-7.2-23.007l2.292,4.442-4.888-3.634-.03.013a12.133,12.133,0,1,0,9.83,22.186Z" transform="translate(-71.345 -218.797)" fill="#273a57"/>
    <path id="Path_3701" data-name="Path 3701" d="M123.146,335.343a12.133,12.133,0,0,0-7.2-23.007l2.292,4.442-4.889-3.634-.03.013a12.133,12.133,0,1,0,9.83,22.186Z" transform="translate(-70.495 -217.264)" fill="none" stroke="#8aa1c5" stroke-miterlimit="10" stroke-width="1"/>
    <path id="Path_3702" data-name="Path 3702" d="M143.161,381.357a12.127,12.127,0,1,0-4.894-8.473l9.535,2.125-8.32,2A12.019,12.019,0,0,0,143.161,381.357Z" transform="translate(-84.578 -237.97)" fill="#273a57"/>
    <path id="Path_3703" data-name="Path 3703" d="M141.819,378.673a12.128,12.128,0,1,0-4.894-8.473l9.535,2.125-8.319,2A12.02,12.02,0,0,0,141.819,378.673Z" transform="translate(-83.99 -236.796)" fill="none" stroke="#8aa1c5" stroke-miterlimit="10" stroke-width="1"/>
    <path id="Path_3713" data-name="Path 3713" d="M144.946,244.263a12.134,12.134,0,1,0-14.951-17.906l4.544,4.295-5.839-1.815a12.088,12.088,0,0,0,.24,9.244,11.9,11.9,0,0,0,1.77,2.851A12.132,12.132,0,0,0,144.946,244.263Z" transform="translate(-80.06 -177.507)" fill="#273a57"/>
    <path id="Path_3714" data-name="Path 3714" d="M168.173,225.908c-2.58-2.11-4.094-5.221-5.507-8.24q-7.063-15.083-13.408-30.488" transform="translate(-89.432 -162.655)" fill="none" stroke="#8aa1c5" stroke-miterlimit="10" stroke-width="1"/>
    <path id="Path_3715" data-name="Path 3715" d="M143.6,241.579a12.134,12.134,0,1,0-14.951-17.906l4.544,4.295-5.838-1.814a12.088,12.088,0,0,0,.24,9.244,11.9,11.9,0,0,0,1.77,2.851A12.132,12.132,0,0,0,143.6,241.579Z" transform="translate(-79.472 -176.33)" fill="none" stroke="#8aa1c5" stroke-miterlimit="10" stroke-width="1"/>
    <path id="Path_3716" data-name="Path 3716" d="M129.768,186.459a12.12,12.12,0,0,1,.971-11.6l4.833,3.591-2.983-5.781a12.133,12.133,0,1,1-2.821,13.789Z" transform="translate(-80.424 -154.86)" fill="#273a57"/>
    <path id="Path_3717" data-name="Path 3717" d="M127.979,182.882a12.12,12.12,0,0,1,.971-11.6l4.833,3.591-2.983-5.781a12.133,12.133,0,1,1-2.821,13.789Z" transform="translate(-79.639 -153.291)" fill="none" stroke="#8aa1c5" stroke-miterlimit="10" stroke-width="1"/>
    <path id="Path_3777" data-name="Path 3777" d="M0,0V290.247" transform="translate(227.371 17.526)" fill="none" stroke="#273a57" stroke-width="1"/>
    <rect id="Rectangle_447" data-name="Rectangle 447" width="82.505" height="11.225" transform="translate(280.608 160.373)" fill="#273a57" opacity="0.5"/>
    <rect id="Rectangle_448" data-name="Rectangle 448" width="82.505" height="11.225" transform="translate(410.563 160.373)" fill="#273a57" opacity="0.5"/>
    <rect id="Rectangle_449" data-name="Rectangle 449" width="82.505" height="11.225" transform="translate(285.109 154.749)" fill="none" stroke="#273a57" stroke-miterlimit="10" stroke-width="1"/>
    <rect id="Rectangle_450" data-name="Rectangle 450" width="82.505" height="11.225" transform="translate(280.608 247.551)" fill="#273a57" opacity="0.5"/>
    <rect id="Rectangle_451" data-name="Rectangle 451" width="82.505" height="11.225" transform="translate(285.109 241.926)" fill="none" stroke="#273a57" stroke-miterlimit="10" stroke-width="1"/>
    <rect id="Rectangle_452" data-name="Rectangle 452" width="212.156" height="11.225" transform="translate(281.099 202.837)" fill="#273a57" opacity="0.5"/>
    <rect id="Rectangle_453" data-name="Rectangle 453" width="212.156" height="11.225" transform="translate(285.603 198.338)" fill="none" stroke="#273a57" stroke-miterlimit="10" stroke-width="1"/>
    <rect id="Rectangle_454" data-name="Rectangle 454" width="82.505" height="11.225" transform="translate(415.064 154.749)" fill="none" stroke="#273a57" stroke-miterlimit="10" stroke-width="1"/>
    <ellipse id="Ellipse_380" data-name="Ellipse 380" cx="45.618" cy="42.543" rx="45.618" ry="42.543" transform="translate(99.016 115.447)" fill="#69b23f"/>
    <g id="mongodb-svgrepo-com" transform="translate(131.84 130.827)">
      <path id="Path_3811" data-name="Path 3811" d="M402.866,227.351c-2.957-13.051-9.946-17.342-10.7-18.982a19.84,19.84,0,0,1-1.657-3.214c-.014-.035-.036-.1-.061-.155a3.466,3.466,0,0,1-1.223,2.77c-1.693,1.324-10.382,8.614-11.089,23.442-.659,13.829,9.99,22.07,11.43,23.12l.164.116v-.01c.009.07.457,3.292.772,6.706h1.128a66.459,66.459,0,0,1,1.189-7.181l.091-.059a18.686,18.686,0,0,0,1.839-1.5l.066-.059a26.53,26.53,0,0,0,8.511-19.8A31.74,31.74,0,0,0,402.866,227.351Zm-12.482,19.173s0-19.4.64-19.392c.5,0,1.146,25.018,1.146,25.018C391.281,252.043,390.384,248.033,390.384,246.524Z" transform="translate(-378.109 -205)" fill="#fff"/>
    </g>
    <g id="Group_637" data-name="Group 637" transform="translate(497.919 142.313)">
      <path id="Path_4639" data-name="Path 4639" d="M316.181,464.035a9.211,9.211,0,0,1,10.2-9.209,8.873,8.873,0,0,1,1.21.223l31.172-26.72L356.9,418.289l15.364-4.979L376.9,429.4a9.333,9.333,0,0,1-3.959,10.416L334.594,464.07a8.787,8.787,0,0,1-.047.9,9.211,9.211,0,0,1-11.183,7.992,8.97,8.97,0,0,1-1.085-.313A9.239,9.239,0,0,1,316.181,464.035Z" transform="translate(-291.563 -346.336)" fill="#9f616a"/>
      <path id="Path_4640" data-name="Path 4640" d="M349.836,571.807H309.644c0,1.155-41.422,2.093-41.422,2.093a10.768,10.768,0,0,0-1.766,1.674,10.389,10.389,0,0,0-2.428,6.7v1.674a10.468,10.468,0,0,0,10.465,10.465h75.343A10.473,10.473,0,0,0,360.3,583.946v-1.674A10.479,10.479,0,0,0,349.836,571.807Z" transform="translate(-247.719 -423.12)" fill="#273a57"/>
      <rect id="Rectangle_636" data-name="Rectangle 636" width="10.883" height="70.32" transform="translate(58.398 170.873)" fill="#273a57"/>
      <path id="Path_4641" data-name="Path 4641" d="M286.312,741.891c0,1.317,16.491.509,36.835.509s36.835.807,36.835-.509-16.491-11.757-36.835-11.757S286.312,740.574,286.312,741.891Z" transform="translate(-258.889 -499.822)" fill="#273a57"/>
      <path id="Path_4642" data-name="Path 4642" d="M211.848,564.9H201.586L196.7,538.282H211.85Z" transform="translate(-174.601 -332.332)" fill="#9f616a"/>
      <path id="Path_4643" data-name="Path 4643" d="M438.164,741.313H405.071v-.419a12.88,12.88,0,0,1,12.88-12.881h20.213Z" transform="translate(-398.298 -498.794)" fill="#8aa1c5"/>
      <path id="Path_4644" data-name="Path 4644" d="M320.648,613.521l-20.461-45.882a16.815,16.815,0,0,1,7.383-21.585l44.38-23.8,20.252-1.722,18.681-1.7.135.228c.172.291,4.189,7.229,1.474,14.836-2.059,5.77-7.416,10.277-15.922,13.4-19.853,7.279-42.786,13.5-51.724,15.837a2.889,2.889,0,0,0-1.851,1.473,2.928,2.928,0,0,0-.164,2.343l19.008,42.707a3.767,3.767,0,0,1-3.189,5.047l-14.2,1.034q-.181.017-.36.017A3.765,3.765,0,0,1,320.648,613.521Z" transform="translate(-298.75 -397.458)" fill="#8aa1c5"/>
      <path id="Path_4645" data-name="Path 4645" d="M198.859,564.9H188.6l-4.883-26.619H198.86Z" transform="translate(-154.914 -332.332)" fill="#9f616a"/>
      <path id="Path_4646" data-name="Path 4646" d="M425.174,741.313H392.081v-.419a12.881,12.881,0,0,1,12.881-12.88h20.213Z" transform="translate(-378.611 -498.794)" fill="#8aa1c5"/>
      <path id="Path_4647" data-name="Path 4647" d="M314.153,618.607l-20.461-45.882a16.815,16.815,0,0,1,7.382-21.585l44.38-23.8,20.252-1.722,14.632-1.269,0-.2c.172.291,4.189,7.229,1.474,14.836-2.059,5.77-3.23,10.277-11.736,13.4-19.853,7.279-42.786,13.5-51.724,15.837a2.889,2.889,0,0,0-1.851,1.473,2.928,2.928,0,0,0-.164,2.343l19.009,42.707a3.767,3.767,0,0,1-3.189,5.047l-14.2,1.034q-.181.017-.36.017a3.765,3.765,0,0,1-3.438-2.233Z" transform="translate(-284.721 -400.032)" fill="#8aa1c5"/>
      <path id="Path_4648" data-name="Path 4648" d="M294.332,459.7c-.981-.694-15.069,6.7-17.58.837,11.72-29.3,3.644-41.952,10.823-58.754a20.922,20.922,0,0,1,13.869-11.87l18.626-.94.1.047a21.77,21.77,0,0,1,11.9,23.1c-.066,18.286-11.007,32.233-7.182,45.5a4.288,4.288,0,0,1-.405,3.335,4.088,4.088,0,0,1-2.608,1.933L297.281,459.6a4.156,4.156,0,0,1-3.363-.651Z" transform="translate(-226.34 -334.546)" fill="#bbceeb"/>
      <ellipse id="Ellipse_477" data-name="Ellipse 477" cx="20.561" cy="20.561" rx="20.561" ry="20.561" transform="translate(66.951 6.347)" fill="#9f616a"/>
      <path id="Path_4649" data-name="Path 4649" d="M293.443,329.183c-1.092.478-3.33-8.227-2.328-9.968,1.49-2.589,1.4-2.571,2.392-4.284s1.211-4.058-.07-5.565-4.246-1.307-4.831.582c.376-3.59-3.174-6.475-6.691-7.286s-7.227-.307-10.763-1.029c-4.1-.837-8.374-4.278-6.737-8.791a6.357,6.357,0,0,1,1.24-2.038c1.892-2.127,4.538-3.035,7.126-3.914,5.383-1.827,10.913-3.677,16.594-3.475A24.108,24.108,0,0,1,310.678,299a21.9,21.9,0,0,1,.907,3.37c1.95,10.485-4.139,20.826-14.028,24.819Z" transform="translate(-199.381 -283.402)" fill="#242424"/>
      <path id="Path_4652" data-name="Path 4652" d="M423.55,531.538c-.4,1.577-53.432,3.283-53.982,2.806a11.175,11.175,0,0,1-1.276-1.973c-.556-.993-1.07-1.988-1.07-1.988l.872-16.77,52.236-5.582s2.311,13.995,3.037,20.424A15.44,15.44,0,0,1,423.55,531.538Z" transform="translate(-364.183 -392.224)" fill="#273a57"/>
      <path id="Path_4653" data-name="Path 4653" d="M203.314,376.227l0,14.448,23.1-1.643-1.022-14.376Z" transform="translate(-192.569 -253.064)" fill="#8aa1c5" opacity="0.1"/>
      <path id="Path_4654" data-name="Path 4654" d="M163.115,381.665l-.14-.018,1.091,6.142,12.836-.913-.438-6.161Z" transform="translate(-122.264 -255.999)" fill="#8aa1c5" opacity="0.1"/>
      <path id="Path_4655" data-name="Path 4655" d="M422.479,550.731c-.4,1.577-53.432,3.283-53.982,2.806a11.17,11.17,0,0,1-1.276-1.973l55.074-3.916A15.44,15.44,0,0,1,422.479,550.731Z" transform="translate(-363.113 -411.416)" fill="#8aa1c5" opacity="0.1"/>
      <path id="Path_4656" data-name="Path 4656" d="M370.816,480.7l-44.731,8.348a8.823,8.823,0,0,1-.378.821,9.231,9.231,0,0,1-5.924,4.626,9.208,9.208,0,1,1,2.1-17.075,8.851,8.851,0,0,1,1.041.656L361.778,464.8l1.989-10.016,16.116,1.066-1.67,16.791A9.16,9.16,0,0,1,370.816,480.7Z" transform="translate(-290.157 -366.43)" fill="#9f616a"/>
      <path id="Path_4657" data-name="Path 4657" d="M330.285,443.516l-23.418-7.7,5.463-15.684a9.349,9.349,0,0,1,10.366-6.147h0a9.349,9.349,0,0,1,7.812,9.326Z" transform="translate(-240.014 -346.602)" fill="#bbceeb"/>
    </g>
  </g>
</svg>
