<svg xmlns="http://www.w3.org/2000/svg" width="489.494" height="650.002" viewBox="0 0 489.494 650.002">
  <g id="Ios-native-development" transform="translate(-162.533)">
    <rect id="Rectangle_538" data-name="Rectangle 538" width="355.554" height="647.85" rx="58.728" transform="translate(176.046)" fill="#fff"/>
    <path id="Path_4135" data-name="Path 4135" d="M786.4,213.927V720.534a56.654,56.654,0,0,1-56.589,56.589h-221.7a56.654,56.654,0,0,1-56.589-56.589V213.927a56.654,56.654,0,0,1,56.589-56.589H537.1v10.014a17.1,17.1,0,0,0,17.094,17.095H683.721a17.1,17.1,0,0,0,17.095-17.094V157.338h28.991A56.654,56.654,0,0,1,786.4,213.927Z" transform="translate(-269.472 -142.781)" fill="#01183a"/>
    <path id="Path_4136" data-name="Path 4136" d="M444.883,273.786a4.368,4.368,0,0,1-4.363-4.363V260.7a4.363,4.363,0,1,1,8.725,0v8.725A4.368,4.368,0,0,1,444.883,273.786Z" transform="translate(-269.193 -142.362)" fill="#fff"/>
    <path id="Path_4137" data-name="Path 4137" d="M444.883,316.079a4.368,4.368,0,0,1-4.363-4.363V287.7a4.363,4.363,0,1,1,8.725,0v24.018a4.368,4.368,0,0,1-4.363,4.363Z" transform="translate(-269.193 -139.914)" fill="#fff"/>
    <path id="Path_4138" data-name="Path 4138" d="M444.883,349.057a4.368,4.368,0,0,1-4.363-4.363V320.677a4.363,4.363,0,0,1,8.725,0v24.018a4.368,4.368,0,0,1-4.363,4.362Z" transform="translate(-269.193 -136.924)" fill="#fff"/>
    <path id="Path_4139" data-name="Path 4139" d="M772.883,333.932a4.368,4.368,0,0,1-4.363-4.363v-58.6a4.363,4.363,0,1,1,8.725,0v58.6a4.368,4.368,0,0,1-4.363,4.362Z" transform="translate(-241.9 -141.431)" fill="#fff"/>
    <path id="Path_4140" data-name="Path 4140" d="M620.649,170.634h-33.81a2.727,2.727,0,0,1,0-5.453h33.81a2.727,2.727,0,0,1,0,5.453Z" transform="translate(-257.349 -150.626)" fill="#fff"/>
    <circle id="Ellipse_408" data-name="Ellipse 408" cx="2.181" cy="2.181" r="2.181" transform="translate(378.336 15.101)" fill="#fff"/>
    <path id="Path_4143" data-name="Path 4143" d="M523.007,181.815H493.559a5.453,5.453,0,0,1,0-10.907h29.448a5.453,5.453,0,1,1,0,10.907Z" transform="translate(-265.311 -150.106)" fill="#273a57"/>
    <circle id="Ellipse_409" data-name="Ellipse 409" cx="4.908" cy="4.908" r="4.908" transform="translate(444.385 21.347)" fill="#273a57"/>
    <circle id="Ellipse_410" data-name="Ellipse 410" cx="4.908" cy="4.908" r="4.908" transform="translate(459.549 21.347)" fill="#273a57"/>
    <circle id="Ellipse_411" data-name="Ellipse 411" cx="4.908" cy="4.908" r="4.908" transform="translate(474.714 21.347)" fill="#273a57"/>
    <path id="Path_4144" data-name="Path 4144" d="M710.468,250.793H525.383a13.543,13.543,0,0,0-13.524,13.524v120.31a13.543,13.543,0,0,0,13.524,13.524H710.468a13.536,13.536,0,0,0,13.524-13.524V264.317a13.536,13.536,0,0,0-13.524-13.524Z" transform="translate(-263.34 -142.46)" fill="#273a57"/>
    <path id="Path_4148" data-name="Path 4148" d="M729.845,634.178H508.815a13.539,13.539,0,0,1-13.523-13.523V590.866a13.539,13.539,0,0,1,13.523-13.523h221.03a13.539,13.539,0,0,1,13.523,13.523v29.789a13.539,13.539,0,0,1-13.523,13.523Z" transform="translate(-265.482 -113.26)" fill="#fff"/>
    <path id="Path_4149" data-name="Path 4149" d="M729.845,494.178H508.815a13.539,13.539,0,0,1-13.523-13.523V450.866a13.539,13.539,0,0,1,13.523-13.523h221.03a13.539,13.539,0,0,1,13.523,13.523v29.789A13.539,13.539,0,0,1,729.845,494.178Z" transform="translate(-265.482 -125.952)" fill="#273a57"/>
    <path id="Path_4150" data-name="Path 4150" d="M729.845,564.178H508.815a13.539,13.539,0,0,1-13.523-13.523V520.866a13.539,13.539,0,0,1,13.523-13.523h221.03a13.539,13.539,0,0,1,13.523,13.523v29.789A13.539,13.539,0,0,1,729.845,564.178Z" transform="translate(-265.482 -119.606)" fill="#273a57"/>
    <path id="Path_4151" data-name="Path 4151" d="M639.3,599.208H574.172a2.913,2.913,0,0,1,0-5.827H639.3a2.913,2.913,0,0,1,0,5.827Z" transform="translate(-258.529 -111.806)" fill="#0b2d61"/>
    <path id="Path_4152" data-name="Path 4152" d="M701.995,613.9H573.5a2.913,2.913,0,1,1,0-5.827h128.49a2.913,2.913,0,0,1,0,5.827Z" transform="translate(-258.845 -110.475)" fill="#0b2d61"/>
    <circle id="Ellipse_412" data-name="Ellipse 412" cx="19.533" cy="19.533" r="19.533" transform="translate(261.99 472.967)" fill="#0b2d61"/>
    <path id="Path_4153" data-name="Path 4153" d="M541.988,627.655a8.446,8.446,0,0,0-11.128,3.869,8.1,8.1,0,0,0-.479,1.251l-29.414,1.758-4.359,15.239,40.033-6.764a8.423,8.423,0,0,0,9.257-4.479,8.061,8.061,0,0,0-3.709-10.779Q542.09,627.7,541.988,627.655Z" transform="translate(-264.633 -108.771)" fill="#ffb6b6"/>
    <path id="Path_4154" data-name="Path 4154" d="M481,558.76h0a14.585,14.585,0,0,0-19.681,9.993l-8.087,32.658,1.521,57.133s42.211,8.1,49.3,2.893,6.421-9.082,7.086-5.206,3.707,5.5,3.749,3.96.386-1.278,2.152-1.743,9.56-3.337,9.56-3.337l.349-16.289s-12.884-4.885-16.01-3.427.665,3.876-3.126,1.457-4.206-10.051-4.854-3.172-2.546,8.16-5.388,5.1-16.011-1.1-16.011-1.1l8.38-63.509A14.585,14.585,0,0,0,481,558.76Z" transform="translate(-268.28 -115.044)" fill="#bbceeb"/>
    <path id="Path_4155" data-name="Path 4155" d="M502.014,563.8l.444-12.03-46.191-7.437-.654,17.755Z" transform="translate(-6.88 49.347)" fill="#ffb6b6"/>
    <path id="Path_4156" data-name="Path 4156" d="M731.67,720.562l-.438-19.262,8.235.3L752.761,683.8a5.147,5.147,0,0,1,9.268,3.269l-.844,22.882-8.291,3.643,8.088,1.841-.318,8.627Z" transform="translate(-245.11 -103.797)" fill="#8aa1c5"/>
    <path id="Path_4157" data-name="Path 4157" d="M500.963,744.3l146.3-17.013s63.179,3.649,78-5.994l15.632-1.973.847-22.961s-9.559.07-15.055-2.49-1.676-5.694-6.916-2.613-4.686,3.451-8.737,2.036-189.829-9.01-189.829-9.01Z" transform="translate(-264.991 -103.566)" fill="#8aa1c5"/>
    <path id="Path_4158" data-name="Path 4158" d="M439.294,582.109l8.507-8.518L419,536.724l-12.556,12.571Z" transform="translate(-10.929 48.658)" fill="#ffb6b6"/>
    <path id="Path_4159" data-name="Path 4159" d="M669.833,728.577l12.779-14.419,5.83,5.823,21.857-4.013a5.147,5.147,0,0,1,4.572,8.7l-16.181,16.2-8.556-2.968,4.678,6.85-6.1,6.108Z" transform="translate(-250.275 -100.857)" fill="#8aa1c5"/>
    <path id="Path_4160" data-name="Path 4160" d="M448.039,669.246l1.454,33.81c1.712,39.8,45.545,63.891,79.534,43.11q.94-.575,1.886-1.19s12.885-3.46,12.494-8.94,2.757-8.147,5.542-6.653,39.259-50.269,39.259-50.269,75.781,37.8,92.5,46.7l17.64-4.806s6.639,3.136,4.247-1.4-2.82-2.363-3.555-7.3-2.614-11.067-3.754-10.809-93.75-64.561-93.75-64.561-15.087-15.269-33.8-5.188c-.39,1.481-.057,1.533-.057,1.533l-61.823,50.376-8.736-16.59Z" transform="translate(-269.286 -108.64)" fill="#8aa1c5"/>
    <path id="Path_4161" data-name="Path 4161" d="M491,552.973l-26.507-12.423-7.936,13.808s-21.313,30.415-21.623,52.357,3.473,28.467,3.473,28.467-9.19,6.87-4.595,11.07,14.767,6.011,6.954,7.832-5.833,20.252,2.892,23.524,55.584,3.243,55.584,3.243a8.345,8.345,0,0,1,2.061-8.218c3.633-3.641,6.9-1.028,3.633-6.7s-8.725-2.4-4.363-10.032,4.361-9.916,4.361-9.916,8.894-16.926-4.5-35.288c-.817-1.119-.13-1.162-.13-1.162l-10.817-36.249Z" transform="translate(-269.992 -116.596)" fill="#bbceeb"/>
    <path id="Path_4162" data-name="Path 4162" d="M447.413,506.188c.224,5.6-3.3,13.532-5.042,18.315-1.858,5.114,6.194,11.9,11.348,13.389a7.623,7.623,0,0,1,2.5-4.577,13.051,13.051,0,0,0-.1,5.135l43.569,9.919c7.838-9.077,15.719-22.126,14-37.864a15.312,15.312,0,0,0-7.374-15.269l-22.026-13.012c-9.369-2.133-21.167-3.421-27.935,2.376a26.8,26.8,0,0,0-8.941,21.589Z" transform="translate(-269.194 -122.047)" fill="#232323"/>
    <circle id="Ellipse_413" data-name="Ellipse 413" cx="25.085" cy="25.085" r="25.085" transform="translate(191.989 371.357)" fill="#ffb6b6"/>
    <path id="Path_4163" data-name="Path 4163" d="M455.835,505.011l-1.211,5.317,21.163,4.818a7.8,7.8,0,0,1,2.6-5.683,13.3,13.3,0,0,0,.152,6.31c11.413,6.4,21.7,8.673,30.924,7.04a4.833,4.833,0,0,0,5.785-3.639h0c3.711-16.3-6.012-32.965-22.234-37.011a30.535,30.535,0,0,0-37.181,22.849Z" transform="translate(-268.135 -121.972)" fill="#232323"/>
    <path id="Path_4164" data-name="Path 4164" d="M467.627,471.066c2.79-.606,5.744-.459,8.267-2.349l-1.655,3.8a19.224,19.224,0,0,1,13.726,1.371,7.34,7.34,0,0,1,3.107,2.631,5.406,5.406,0,0,1,.409,4.656,5.063,5.063,0,0,1-2.965,2.815,9.776,9.776,0,0,1-3.627.38l-15.451-.36a11.551,11.551,0,0,1-5.7-1.107,5.693,5.693,0,0,1-2.644-5.653C461.588,473.8,464.836,471.672,467.627,471.066Z" transform="translate(-267.533 -123.108)" fill="#232323"/>
    <path id="Path_4165" data-name="Path 4165" d="M600.665,652.425a1.071,1.071,0,0,0-.205-.189,2.2,2.2,0,0,0-.672-.526l-1.836-.983L585.765,637.2a3.061,3.061,0,0,0-2.288-.219l-.031.009-5.22,1.615L573.736,640l-6.272,1.944-42.717,13.227-28.079,8.693a3.038,3.038,0,0,0-2,3.761,3.16,3.16,0,0,0,.641,1.139l.893.994,1.874,2.088,4.342,9,1.2,1.345a3.026,3.026,0,0,0,3.126.877l92.5-25.723a3.08,3.08,0,0,0,1.406-4.916Z" transform="translate(-264.971 -107.865)" fill="#ccc"/>
    <path id="Path_4166" data-name="Path 4166" d="M587.935,528.428l-1.791.29a1.884,1.884,0,0,0-1.221.758l-.789,1.1-7.119,17.8a1.885,1.885,0,0,0-.324,1.405l.834,5.072-3.152,90.531a1.907,1.907,0,0,0,.705,1.182L588.9,665.061l.323.256.7.545a1.915,1.915,0,0,0,1.251.4l1.175-.056a1.887,1.887,0,0,0,1.38-.7,1.858,1.858,0,0,0,.392-1.494l-4.009-134.029a1.881,1.881,0,0,0-2.162-1.55Z" transform="translate(-258.091 -117.697)" fill="#ccc"/>
    <path id="Path_4167" data-name="Path 4167" d="M343.62,383.04l-6.306,19.21-2.44,76.732,9.816,8.725Z" transform="translate(-16.755 34.725)" fill="#0b2d61"/>
    <path id="Path_4168" data-name="Path 4168" d="M543.117,642.258a8.446,8.446,0,0,0-11.128,3.869,8.118,8.118,0,0,0-.479,1.251L502.1,649.135l-4.359,15.239,40.033-6.764a8.423,8.423,0,0,0,9.257-4.479,8.061,8.061,0,0,0-3.709-10.779Z" transform="translate(-264.539 -107.448)" fill="#ffb6b6"/>
    <path id="Path_4169" data-name="Path 4169" d="M482.124,573.362h0a14.585,14.585,0,0,0-19.681,9.993l-8.087,32.658,1.521,57.133s42.211,8.1,49.3,2.893,6.421-9.082,7.086-5.206,3.707,5.5,3.749,3.96.386-1.278,2.152-1.743,9.559-3.337,9.559-3.337l.349-16.289s-12.884-4.885-16.01-3.427.665,3.876-3.126,1.457-4.206-10.051-4.854-3.172-2.546,8.16-5.388,5.1-16.011-1.1-16.011-1.1l8.38-63.509a14.585,14.585,0,0,0-8.936-15.406Z" transform="translate(-268.187 -113.72)" fill="#bbceeb"/>
    <path id="Path_4171" data-name="Path 4171" d="M891.845,494.178H670.815a13.539,13.539,0,0,1-13.523-13.523V450.866a13.539,13.539,0,0,1,13.523-13.523h221.03a13.539,13.539,0,0,1,13.523,13.523v29.789A13.539,13.539,0,0,1,891.845,494.178Z" transform="translate(-253.341 -125.952)" fill="#fff"/>
    <path id="Path_4172" data-name="Path 4172" d="M801.3,459.208H736.172a2.913,2.913,0,0,1,0-5.827H801.3a2.913,2.913,0,1,1,0,5.827Z" transform="translate(-245.154 -124.498)" fill="#0b2d61"/>
    <path id="Path_4173" data-name="Path 4173" d="M863.994,473.9H735.5a2.913,2.913,0,1,1,0-5.827h128.49a2.913,2.913,0,0,1,0,5.827Z" transform="translate(-246.515 -123.166)" fill="#0b2d61"/>
    <circle id="Ellipse_414" data-name="Ellipse 414" cx="19.533" cy="19.533" r="19.533" transform="translate(437.421 320.275)" fill="#0b2d61"/>
    <path id="Path_4174" data-name="Path 4174" d="M826.845,564.178H605.815a13.539,13.539,0,0,1-13.523-13.523V520.866a13.539,13.539,0,0,1,13.523-13.523h221.03a13.539,13.539,0,0,1,13.523,13.523v29.789A13.539,13.539,0,0,1,826.845,564.178Z" transform="translate(-257.734 -119.606)" fill="#fff"/>
    <path id="Path_4175" data-name="Path 4175" d="M736.3,529.208H671.172a2.913,2.913,0,1,1,0-5.827H736.3a2.913,2.913,0,0,1,0,5.827Z" transform="translate(-250.521 -118.152)" fill="#0b2d61"/>
    <path id="Path_4176" data-name="Path 4176" d="M798.994,543.9H670.5a2.913,2.913,0,1,1,0-5.827h128.49a2.913,2.913,0,0,1,0,5.827Z" transform="translate(-250.913 -116.82)" fill="#0b2d61"/>
    <circle id="Ellipse_415" data-name="Ellipse 415" cx="19.533" cy="19.533" r="19.533" transform="translate(367.032 396.621)" fill="#0b2d61"/>
    <g id="Group_630" data-name="Group 630" transform="translate(324.991 144.02)">
      <g id="apple-logo-svgrepo-com" transform="translate(0 0)">
        <path id="Path_502" data-name="Path 502" d="M97.328,16.35a2.885,2.885,0,0,0,3.408-2.255,9.948,9.948,0,0,1,2.044-4.546h0a11.758,11.758,0,0,1,6.423-3.38,15.851,15.851,0,0,1-.518,3.246,2.89,2.89,0,1,0,5.571,1.539,23.29,23.29,0,0,0,.617-8.459A2.886,2.886,0,0,0,111.957,0c-.358.007-8.807.228-13.568,5.793h0a15.618,15.618,0,0,0-3.315,7.148A2.89,2.89,0,0,0,97.328,16.35Z" transform="translate(-67.674 0.001)" fill="#fff" stroke="#fff" stroke-width="1"/>
        <path id="Path_503" data-name="Path 503" d="M79.817,83.912a10.23,10.23,0,0,1-1.26-19.055,2.8,2.8,0,0,0,1.507-1.762,2.773,2.773,0,0,0-.347-2.285A20.182,20.182,0,0,0,62.8,51.616a19.834,19.834,0,0,0-10.311,3.443,19.833,19.833,0,0,0-10.311-3.443c-10.342,0-20.811,8.068-20.811,23.49,0,14.587,9.8,33.093,20.811,33.093a19.832,19.832,0,0,0,10.311-3.444A19.83,19.83,0,0,0,62.8,108.2c8.53,0,15.752-10.785,18.853-20.806A2.789,2.789,0,0,0,79.817,83.912ZM62.8,102.61c-2.468,0-5.614-1.273-8.632-3.493a2.837,2.837,0,0,0-3.359,0c-3.019,2.22-6.165,3.494-8.632,3.494C35.91,102.61,27,88.385,27,75.105c0-12.3,7.866-17.9,15.174-17.9,2.468,0,5.614,1.273,8.632,3.493a2.838,2.838,0,0,0,3.359,0c3.017-2.22,6.164-3.493,8.632-3.493a14.483,14.483,0,0,1,10.391,4.4,15.777,15.777,0,0,0,2.257,26.521C72.353,96.3,66.955,102.61,62.8,102.61Z" transform="translate(-21.367 -31.728)" fill="#fff" stroke="#fff" stroke-width="1"/>
      </g>
    </g>
  </g>
</svg>
