<svg xmlns="http://www.w3.org/2000/svg" width="796.424" height="489.452" viewBox="0 0 796.424 489.452">
  <g id="banner-card-design" transform="translate(0 -111.972)">
    <path id="Path_4971" data-name="Path 4971" d="M426.43,605.523H923.81a21.689,21.689,0,0,0,21.69-21.691V296.213a21.351,21.351,0,0,0-.76-5.69,21.683,21.683,0,0,0-20.93-16H729.54a60.38,60.38,0,0,0-8.18,25.01c-2.41,25.69,12.32,49.44,25.5,71.63s25.75,47.99,18.77,72.84c-4.72,16.76-17.51,28.89-33.38,36.16a93.665,93.665,0,0,1-48.59,7.4,152.119,152.119,0,0,1-29.26-6.68c-12.47-4.05-24.65-9.3-36.81-14.61-.01,0-.01,0-.02-.01-.21-.09-.43-.19-.64-.28-9.41-4.11-18.81-8.23-28.35-11.86a173.142,173.142,0,0,0-34.62-9.54c-17.99-2.82-36.13-1.8-52.18,6.36-26.16,13.29-40.18,42.01-51.15,69.23C439.55,547.693,429.62,576.133,426.43,605.523Z" transform="translate(-253.5 -161.551)" fill="#273a57"/>
    <path id="Path_4975" data-name="Path 4975" d="M467.81,604.813h29.41c5.03-16.936,12.29-34.889,18.92-51.249,12.72-31.368,28.97-64.466,59.3-79.782,12.95-6.54,27.07-9.094,41.49-8.955,19.92.189,40.4,5.536,59.15,12.623,7.67,2.892,15.27,6.073,22.84,9.323,28.52,12.255,56.73,25.6,87.4,29.211,38.81,4.562,84.44-12.8,95.04-50.2,8.09-28.635-6.48-58.363-21.76-83.937s-32.36-52.936-29.57-82.545c.01-.1.02-.209.04-.308,1.05-10.635,7.4-18.278,16.27-23.178H807.72c-.51,27.621,15.47,52,29.85,76.074,15.28,25.564,29.85,55.3,21.76,83.937-10.6,37.391-98.373-6.439-137.183-11.011-10.96-1.282,6.45,3.28-4,0-16.39-5.139-18.207,41.992-34.157,35.074-9.93-4.314-19.87-8.6-29.94-12.4-4.17-1.58-8.43-3.061-12.74-4.433-.01,0-.01,0-.02-.01-28.94-9.164-60.59-12.732-87.33.517-.18.089-.37.179-.55.268-30.33,15.306-46.58,48.4-59.3,79.772C483.6,549.529,472.99,577.46,467.81,604.813Z" transform="translate(-253.5 -161.551)" fill="#8aa1c5"/>
    <path id="Path_4972" data-name="Path 4972" d="M254.5,495.493v88.34a21.689,21.689,0,0,0,21.691,21.69H358.87c1.43-13.33.23-26.61-5.02-39-11.44-27.02-39.12-43-65.51-55.83C277.25,505.3,265.97,500.1,254.5,495.493Z" transform="translate(-253.5 -161.551)" fill="#273a57"/>
    <path id="Path_4973" data-name="Path 4973" d="M341.147,585.123h0a21.69,21.69,0,0,0,21.69,21.69h82.68c1.43-13.33.23-26.61-5.02-39-2.69-6.353-8.972-13.39-17.159-20.5C391.22,519.427,341.147,542.587,341.147,585.123Z" transform="translate(-253.5 -161.551)" fill="#273a57"/>
    <path id="Path_4974" data-name="Path 4974" d="M253.5,583.832V296.213a22.716,22.716,0,0,1,22.69-22.69H923.81a22.716,22.716,0,0,1,22.69,22.69V583.832a22.716,22.716,0,0,1-22.69,22.69H276.19A22.716,22.716,0,0,1,253.5,583.832Zm22.69-308.31a20.713,20.713,0,0,0-20.69,20.691V583.832a20.713,20.713,0,0,0,20.69,20.69H923.81a20.713,20.713,0,0,0,20.69-20.69V296.213a20.713,20.713,0,0,0-20.69-20.69Z" transform="translate(-253.5 -161.551)" fill="#e4efff"/>
    <path id="Path_4976" data-name="Path 4976" d="M468.13,398.661H276.838a5.91,5.91,0,0,0,0,11.82H468.13a5.91,5.91,0,1,0,0-11.82Z" transform="translate(-253.5 -161.551)" fill="#8aa1c5"/>
    <path id="Path_4977" data-name="Path 4977" d="M336.281,365.523h-59.31a5.91,5.91,0,0,0,0,11.82h59.31a5.91,5.91,0,0,0,0-11.82Z" transform="translate(-253.5 -161.551)" fill="#8aa1c5"/>
    <g id="Group_641" data-name="Group 641" transform="translate(376 155.263)">
      <path id="Path_4978" data-name="Path 4978" d="M307.579,539.18l-9.407-.079-4.164-37.129,13.883.117Z" transform="translate(-13.788 -112.475)" fill="#ffb6b6"/>
      <path id="Path_4979" data-name="Path 4979" d="M526.165,724.873a4.211,4.211,0,0,0,4.17,4.242l18.7.156,3.274-6.637,1.2,6.671,7.057.064-1.782-23.792-2.455-.163-10.014-.69-3.231-.216-.057,6.732-15.024,10.19a4.2,4.2,0,0,0-1.843,3.443Z" transform="translate(-262.505 -283.209)" fill="#8aa1c5"/>
      <path id="Path_4980" data-name="Path 4980" d="M430.579,539.18l-9.407-.079-4.164-37.129,13.883.117Z" transform="translate(-41.348 -112.475)" fill="#ffb6b6"/>
      <path id="Path_4981" data-name="Path 4981" d="M649.165,724.873a4.211,4.211,0,0,0,4.17,4.242l18.7.156,3.274-6.637,1.2,6.671,7.057.064-1.782-23.792-2.455-.163-10.014-.69-3.231-.216-.057,6.732-15.024,10.19A4.2,4.2,0,0,0,649.165,724.873Z" transform="translate(-290.066 -283.209)" fill="#8aa1c5"/>
      <path id="Path_4982" data-name="Path 4982" d="M535.686,314.4l42.337-32.582a8.623,8.623,0,0,0,1.621-11.989h0a8.623,8.623,0,0,0-12.43-1.446l-42.94,35.193-26.993,20.285a7.525,7.525,0,1,0,3.288,9.08Z" transform="translate(-253.5 -185.039)" fill="#ffb6b6"/>
      <path id="Path_4983" data-name="Path 4983" d="M593.974,337.255l-1.866,41.679,63.383,7.67c-4.987-16.747-13.166-40.009-9.418-51.664Z" transform="translate(-277.281 -200.401)" fill="#a0616a"/>
      <path id="Path_4984" data-name="Path 4984" d="M622.987,239.451H603.463L595.078,253.8l-4-.22c-7.786,3-10.89,6.1-15.187,14.372h0l-15.1,12.681L572.433,294.6c8.039-1.317,10.938-7.557,8.385-19.018,0,0-8.8,15.343,3.878,22.891,0,0-2.262,14.221,0,14.069s7.472-3.047,2.262-.153-4.317,3.019-4.147,3.957c2.813,15.5,5.141,27.138,5.141,27.138l55.091,5.432s-3.174-33.317-3-35.211-.985,2.737.173-1.894,2.894-2.894,1.158-4.631,11.938-3.232,6.6-11.578l17.846-4.656-9.976-23.709c0-8.005-12.857-14.495-20.862-14.495h-1.025Z" transform="translate(-270.265 -179.006)" fill="#e4efff"/>
      <path id="Path_4985" data-name="Path 4985" d="M635.808,369.97c-21.553,7.414-40.957,5.786-57.364-8.447,0,0-4.617,17.07-9.292,14.743s-2.364,4.186-3.648,6.574c-1.363,2.536.219,6.813-4.283,8.267s-2.811,5.728-4.269,8.873a412.548,412.548,0,0,0-29.719,92.677c-8.087,40.6,11.639,108.631,11.639,108.631l18.622-1.552,4.656-88.456,21.294-37.389s10.461-6.091,3.895-9.181-2.167-6.919,2.617-6.168S600.17,434.46,600.17,434.46c-6.821,17.142,35.693,168.378,35.693,168.378l17.846-1.552L643.623,390.232Z" transform="translate(-262.309 -206.358)" fill="#8aa1c5"/>
      <path id="Path_4986" data-name="Path 4986" d="M640.037,185.976c2.116,5.271,8.087,15.637,8.9,21.292l-.364-.358a25.537,25.537,0,0,1-2.36,3.374,16.4,16.4,0,0,0-5.568-3.829,19.629,19.629,0,0,1,1.955,7.532c-3.887,3.385-13.814,1.343-18.774,3.147-7.982,2.9-16.456,3.927-24.823,4.783-2.97.306-6.294.491-8.376-1.264s-.842-5-1.961-7.463c-7.976-17.509-.615-23.826,5.638-31.765,1.376-1.747,1.37-4.354,3.045-6.021,2.323-2.311,5.885-3.021,9.169-3.591a4.976,4.976,0,0,1-4.371-2.163,4.489,4.489,0,0,1,.06-4.685,8.087,8.087,0,0,1,5.969-3.362,22.666,22.666,0,0,1,6.908.594,12.361,12.361,0,0,1,4.183,1.337,3.423,3.423,0,0,1,1.782,3.47,4.435,4.435,0,0,1-2.622,2.826,11.608,11.608,0,0,1-2.965.812,23.256,23.256,0,0,1,13.641,2.388C634.363,175.836,637.913,180.707,640.037,185.976Z" transform="translate(-275.728 -161.551)" fill="#2f2e41"/>
      <circle id="Ellipse_522" data-name="Ellipse 522" cx="18.812" cy="18.812" r="18.812" transform="translate(317.002 16.354)" fill="#ffb6b6"/>
      <path id="Path_4987" data-name="Path 4987" d="M629.459,188.925c-1.091,3.3-4.208,4.359-7.089,5.021-.908.212-1.822.409-2.745.585-.34-.425-.7-.842-1.08-1.237a16.4,16.4,0,0,0-5.568-3.829,19.326,19.326,0,0,1,1.789,5.906q-2.612.379-5.254.62a5.94,5.94,0,0,1-6.976-4.28c-1.6,2.622-3.5,5.09-6.091,6.132a7.371,7.371,0,0,1-8.385-2.509,17.749,17.749,0,0,1-3.039-6.894c-.736-2.919-1.144-6.282.3-8.134,1.157-1.5,3.153-1.526,4.995-1.393a59.442,59.442,0,0,1,12,2.176l.331.745c-.673-4.043.787-7.932,3.487-9.315,1.822-.925,4.013-.77,6.143-.582a27.993,27.993,0,0,1,8.021,1.551,15.407,15.407,0,0,1,7.27,5.806C629.46,182.164,630.4,186.078,629.459,188.925Z" transform="translate(-275.543 -163.846)" fill="#2f2e41"/>
      <path id="Path_4988" data-name="Path 4988" d="M606.091,169.724c.186-.055-.3.016-.129.02a1.533,1.533,0,0,1-.246-.034c-.014,0-.2-.063-.077-.019a1.51,1.51,0,0,1-.718-.468A6.254,6.254,0,0,1,603.9,167.4a6.554,6.554,0,0,0-1.41-2.351,1.613,1.613,0,0,0-2.574.393,3.757,3.757,0,0,0,.23,2.6,8.087,8.087,0,0,0,1.188,2.3,7.4,7.4,0,0,0,3.4,2.494,7.736,7.736,0,0,0,4.862.139,1.175,1.175,0,0,0,.047-2.15l-2.658-1.088a1.164,1.164,0,0,0-.938,2.131l2.658,1.088.047-2.15a4.63,4.63,0,0,1-1.017.174,3.9,3.9,0,0,1-1.1-.046,4.833,4.833,0,0,1-1.02-.249,6.654,6.654,0,0,1-.621-.263q-.11-.054-.219-.111c.005,0-.3-.177-.168-.093a6.57,6.57,0,0,1-.963-.75,2.651,2.651,0,0,1-.289-.322,6.158,6.158,0,0,1-.42-.583,7.017,7.017,0,0,1-.788-1.982,2.511,2.511,0,0,0-.062-.338c-.1-.265.019.155-.095.269l-.49.361a.64.64,0,0,1-.548-.088q-.087-.122.038.041a3.8,3.8,0,0,1,.266.4,10.989,10.989,0,0,1,.476,1.008,11.063,11.063,0,0,0,1.1,2.083,3.747,3.747,0,0,0,4.1,1.57,1.173,1.173,0,0,0,.663-1.507,1.188,1.188,0,0,0-1.507-.663Z" transform="translate(-278.994 -162.228)" fill="#2f2e41"/>
      <path id="Path_4992" data-name="Path 4992" d="M705.332,349.242l-18.183-50.234a8.623,8.623,0,0,0-10.93-5.186h0a8.623,8.623,0,0,0-5.153,11.4l20.487,51.6,11.127,31.88a7.525,7.525,0,1,0,9.65-.375Z" transform="translate(-294.83 -191.081)" fill="#ffb6b6"/>
      <path id="Path_4993" data-name="Path 4993" d="M674.568,271.813l14.743,26.382s-33.976,11.633-34.059,9.7,1.688-28.813,1.688-28.813Z" transform="translate(-291.429 -186.257)" fill="#e4efff"/>
    </g>
  </g>
</svg>
