<svg xmlns="http://www.w3.org/2000/svg" width="610" height="478.761" viewBox="0 0 610 478.761">
  <g id="website-design" transform="translate(0 0)">
    <path id="Path_4240" data-name="Path 4240" d="M969.63,676.108c-2.461-19.788-14.724-39.285-33.6-45.724a91.872,91.872,0,0,1,0,63.077c-2.9,7.844-6.942,16.266-4.214,24.172,1.7,4.919,5.849,8.682,10.49,11.036s9.792,3.475,14.878,4.574l1,.828C966.258,715.838,972.09,695.9,969.63,676.108Z" transform="translate(-385.307 -257.208)" fill="#f0f0f0"/>
    <path id="Path_4241" data-name="Path 4241" d="M937.523,630.613a78.527,78.527,0,0,1,19.521,44.195,33.813,33.813,0,0,1-.385,10.588,19.394,19.394,0,0,1-4.824,9c-2.174,2.389-4.675,4.58-6.23,7.456a11.876,11.876,0,0,0-.58,9.695c1.373,3.939,4.081,7.15,6.837,10.2,3.06,3.384,6.293,6.851,7.594,11.338.158.544.992.267.835-.276-2.263-7.806-9.841-12.24-13.455-19.271-1.686-3.281-2.394-7.089-.813-10.552,1.382-3.028,3.959-5.291,6.181-7.69a20.7,20.7,0,0,0,5.044-8.62,31.261,31.261,0,0,0,.79-10.534,76.186,76.186,0,0,0-5.564-23.152,79.918,79.918,0,0,0-14.37-23.029c-.376-.421-.955.241-.582.659Z" transform="translate(-386.984 -257.062)" fill="#fff"/>
    <path id="Path_4242" data-name="Path 4242" d="M963.365,678.865a11.781,11.781,0,0,0,8.968-12.341.44.44,0,0,0-.878.044,10.909,10.909,0,0,1-8.366,11.463c-.55.131-.271.965.276.835Z" transform="translate(-393.541 -266.438)" fill="#fff"/>
    <path id="Path_4243" data-name="Path 4243" d="M954.734,710.782a22.708,22.708,0,0,1-10.14-13.078c-.16-.543-.994-.267-.835.276a23.619,23.619,0,0,0,10.58,13.587c.487.289.88-.5.4-.785Z" transform="translate(-388.62 -274.519)" fill="#fff"/>
    <path id="Path_4244" data-name="Path 4244" d="M949.57,650.658a6.669,6.669,0,0,1-6.32-.321c-.483-.3-.876.492-.4.785a7.473,7.473,0,0,0,6.991.37.454.454,0,0,0,.28-.555A.442.442,0,0,0,949.57,650.658Z" transform="translate(-388.335 -262.345)" fill="#fff"/>
    <path id="Path_4245" data-name="Path 4245" d="M860.264,677.3c.3.193.593.386.89.586a87.827,87.827,0,0,1,11.229,8.767c.275.245.549.5.816.749a92.589,92.589,0,0,1,20.108,27.525,89.919,89.919,0,0,1,4.925,12.743c1.817,6.03,3.308,12.713,6.905,17.646a15.422,15.422,0,0,0,1.2,1.483h32.51c.074-.037.148-.067.222-.1l1.3.059c-.052-.23-.111-.467-.163-.7-.03-.134-.067-.267-.1-.4-.022-.089-.045-.178-.059-.26-.007-.03-.015-.059-.022-.082-.015-.082-.037-.156-.052-.23q-.489-1.992-1.009-3.983c0-.007,0-.007-.007-.015a132.206,132.206,0,0,0-11.126-29.209c-.148-.274-.3-.556-.46-.831a85.8,85.8,0,0,0-7.707-11.69,75.836,75.836,0,0,0-5.051-5.778,63.073,63.073,0,0,0-15.784-11.823c-11.66-6.156-25.159-8.515-37.62-4.754C860.894,677.1,860.583,677.2,860.264,677.3Z" transform="translate(-367.061 -268.783)" fill="#f0f0f0"/>
    <path id="Path_4246" data-name="Path 4246" d="M860.229,678.283a78.526,78.526,0,0,1,42.2,23.533,33.816,33.816,0,0,1,6.068,8.686,19.394,19.394,0,0,1,1.565,10.087c-.3,3.216-.975,6.472-.486,9.7a11.875,11.875,0,0,0,5.374,8.09c3.468,2.318,7.563,3.252,11.6,4.026,4.481.86,9.149,1.681,12.889,4.48.453.339.953-.384.5-.722-6.507-4.87-15.227-3.848-22.345-7.286-3.322-1.6-6.18-4.219-7-7.936-.72-3.25-.024-6.608.305-9.862a20.7,20.7,0,0,0-1.162-9.92,31.261,31.261,0,0,0-5.711-8.887,76.183,76.183,0,0,0-18.382-15.136,79.917,79.917,0,0,0-25.339-9.736c-.553-.11-.617.767-.068.876Z" transform="translate(-366.953 -269.351)" fill="#fff"/>
    <path id="Path_4247" data-name="Path 4247" d="M912.311,699.422a11.781,11.781,0,0,0-.27-15.253c-.375-.423-1.05.14-.675.564a10.909,10.909,0,0,1,.222,14.189C911.228,699.358,911.952,699.856,912.311,699.422Z" transform="translate(-380.231 -271.061)" fill="#fff"/>
    <path id="Path_4248" data-name="Path 4248" d="M922.235,731.916a22.707,22.707,0,0,1-15.97-4.337c-.454-.338-.954.385-.5.722a23.62,23.62,0,0,0,16.628,4.479C922.956,732.718,922.8,731.854,922.235,731.916Z" transform="translate(-378.766 -282.289)" fill="#fff"/>
    <path id="Path_4249" data-name="Path 4249" d="M881.911,685.736a6.669,6.669,0,0,1-5.239,3.549c-.564.055-.4.92.157.865a7.473,7.473,0,0,0,5.8-3.913.454.454,0,0,0-.111-.611A.441.441,0,0,0,881.911,685.736Z" transform="translate(-371.208 -271.456)" fill="#fff"/>
    <path id="Path_1" data-name="Path 1" d="M652.445,198.457,264.461,127.373a5.96,5.96,0,0,0-2.388.028,4.926,4.926,0,0,0-1.96.915,4.609,4.609,0,0,0-1.326,1.652,5.146,5.146,0,0,0-.487,2.231V479.788a5.148,5.148,0,0,0,.486,2.232,4.61,4.61,0,0,0,1.325,1.653,4.925,4.925,0,0,0,1.959.917,5.961,5.961,0,0,0,2.388.03l387.987-71.085a1.835,1.835,0,0,0,.863-.438,3.282,3.282,0,0,0,.7-.89,4.992,4.992,0,0,0,.472-1.214,5.835,5.835,0,0,0,.174-1.409V202.42a5.84,5.84,0,0,0-.173-1.413,4.993,4.993,0,0,0-.473-1.215,3.287,3.287,0,0,0-.7-.89,1.838,1.838,0,0,0-.863-.438Z" transform="translate(-201.907 -127.265)" fill="#e4e4e4"/>
    <path id="Path_1-2" data-name="Path 1" d="M660.445,198.457,272.461,127.373a5.96,5.96,0,0,0-2.388.028,4.925,4.925,0,0,0-1.96.915,4.609,4.609,0,0,0-1.326,1.652,5.147,5.147,0,0,0-.487,2.231V479.788a5.149,5.149,0,0,0,.486,2.232,4.609,4.609,0,0,0,1.325,1.653,4.925,4.925,0,0,0,1.959.917,5.961,5.961,0,0,0,2.388.03l387.987-71.085a1.835,1.835,0,0,0,.863-.438,3.282,3.282,0,0,0,.7-.89,4.992,4.992,0,0,0,.472-1.214,5.826,5.826,0,0,0,.174-1.409V202.42a5.837,5.837,0,0,0-.173-1.413,4.993,4.993,0,0,0-.472-1.215,3.288,3.288,0,0,0-.7-.89,1.839,1.839,0,0,0-.863-.438Z" transform="translate(-203.973 -127.265)" fill="#fff"/>
    <path id="Path_2" data-name="Path 2" d="M660.445,198.457,272.461,127.373a5.96,5.96,0,0,0-2.388.028,4.925,4.925,0,0,0-1.96.915,4.609,4.609,0,0,0-1.326,1.652,5.147,5.147,0,0,0-.487,2.231V479.788a5.149,5.149,0,0,0,.486,2.232,4.609,4.609,0,0,0,1.325,1.653,4.925,4.925,0,0,0,1.959.917,5.961,5.961,0,0,0,2.388.03l387.987-71.085a1.835,1.835,0,0,0,.863-.438,3.282,3.282,0,0,0,.7-.89,4.992,4.992,0,0,0,.472-1.214,5.826,5.826,0,0,0,.174-1.409V202.42a5.837,5.837,0,0,0-.173-1.413,4.993,4.993,0,0,0-.472-1.215,3.288,3.288,0,0,0-.7-.89,1.839,1.839,0,0,0-.863-.438Zm1.476,211.252a3.9,3.9,0,0,1-.116.943,3.332,3.332,0,0,1-.315.811,2.186,2.186,0,0,1-.469.593,1.223,1.223,0,0,1-.575.291l-387.981,70.3a3.967,3.967,0,0,1-1.591-.022,3.283,3.283,0,0,1-1.3-.612,3.073,3.073,0,0,1-.881-1.1,3.432,3.432,0,0,1-.323-1.484V132.568a3.433,3.433,0,0,1,.323-1.483,3.072,3.072,0,0,1,.88-1.1,3.281,3.281,0,0,1,1.3-.613,3.968,3.968,0,0,1,1.591-.023l387.984,70.3a1.222,1.222,0,0,1,.575.291,2.189,2.189,0,0,1,.469.593,3.33,3.33,0,0,1,.316.81,3.89,3.89,0,0,1,.116.943V409.708Z" transform="translate(-203.973 -127.265)" fill="#cacaca"/>
    <path id="Path_3" data-name="Path 3" d="M182.271,268.173a16.218,16.218,0,0,1,1.469-6.874,14.49,14.49,0,0,1,3.985-5.137,14.9,14.9,0,0,1,5.85-2.9,17.236,17.236,0,0,1,7.068-.213,20.408,20.408,0,0,1,6.964,2.585,22.442,22.442,0,0,1,5.611,4.737,21.979,21.979,0,0,1,3.746,6.214,19.344,19.344,0,0,1,1.366,7.06,16.271,16.271,0,0,1-1.366,6.646,14.53,14.53,0,0,1-3.746,5.078,14.788,14.788,0,0,1-5.611,3.035,16.957,16.957,0,0,1-6.964.473h0a20.165,20.165,0,0,1-7.064-2.362,22.389,22.389,0,0,1-5.848-4.677,22.087,22.087,0,0,1-3.985-6.344A19.426,19.426,0,0,1,182.271,268.173Z" transform="translate(-182.271 -159.682)" fill="#e4e4e4"/>
    <path id="Path_3-2" data-name="Path 3" d="M182.271,365.173a16.218,16.218,0,0,1,1.469-6.874,14.491,14.491,0,0,1,3.985-5.137,14.9,14.9,0,0,1,5.85-2.9,17.236,17.236,0,0,1,7.068-.213,20.407,20.407,0,0,1,6.964,2.585,22.442,22.442,0,0,1,5.611,4.737,21.979,21.979,0,0,1,3.746,6.214,19.344,19.344,0,0,1,1.366,7.06,16.271,16.271,0,0,1-1.366,6.646,14.531,14.531,0,0,1-3.746,5.078,14.788,14.788,0,0,1-5.611,3.035,16.956,16.956,0,0,1-6.964.473h0a20.165,20.165,0,0,1-7.064-2.362,22.389,22.389,0,0,1-5.848-4.677,22.087,22.087,0,0,1-3.985-6.344,19.426,19.426,0,0,1-1.475-7.319Z" transform="translate(-182.271 -184.735)" fill="#e4e4e4"/>
    <path id="Path_3-3" data-name="Path 3" d="M182.271,462.173a16.218,16.218,0,0,1,1.469-6.874,14.49,14.49,0,0,1,3.985-5.137,14.9,14.9,0,0,1,5.85-2.9,17.236,17.236,0,0,1,7.068-.213,20.407,20.407,0,0,1,6.964,2.585,22.442,22.442,0,0,1,5.611,4.737,21.978,21.978,0,0,1,3.746,6.214,19.344,19.344,0,0,1,1.366,7.06,16.271,16.271,0,0,1-1.366,6.646,14.53,14.53,0,0,1-3.746,5.078,14.788,14.788,0,0,1-5.611,3.035,16.955,16.955,0,0,1-6.964.473h0a20.165,20.165,0,0,1-7.064-2.362,22.39,22.39,0,0,1-5.848-4.677,22.087,22.087,0,0,1-3.985-6.344A19.426,19.426,0,0,1,182.271,462.173Z" transform="translate(-182.271 -209.788)" fill="#e4e4e4"/>
    <path id="Path_3-4" data-name="Path 3" d="M188.271,268.173a16.218,16.218,0,0,1,1.469-6.874,14.49,14.49,0,0,1,3.985-5.137,14.9,14.9,0,0,1,5.85-2.9,17.236,17.236,0,0,1,7.068-.213,20.407,20.407,0,0,1,6.964,2.585,22.442,22.442,0,0,1,5.611,4.737,21.978,21.978,0,0,1,3.746,6.214,19.343,19.343,0,0,1,1.366,7.06,16.271,16.271,0,0,1-1.366,6.646,14.53,14.53,0,0,1-3.746,5.078,14.788,14.788,0,0,1-5.611,3.035,16.957,16.957,0,0,1-6.964.473h0a20.165,20.165,0,0,1-7.064-2.362,22.389,22.389,0,0,1-5.848-4.677,22.087,22.087,0,0,1-3.985-6.344A19.427,19.427,0,0,1,188.271,268.173Z" transform="translate(-183.82 -159.682)" fill="#273a57"/>
    <path id="Path_4" data-name="Path 4" d="M188.271,364.1a16.96,16.96,0,0,1,1.469-6.986,16.1,16.1,0,0,1,3.985-5.429,16.314,16.314,0,0,1,5.85-3.338,17.5,17.5,0,0,1,7.068-.735,19.105,19.105,0,0,1,6.964,2.07,20.159,20.159,0,0,1,5.611,4.322,19.925,19.925,0,0,1,3.746,5.934,18.564,18.564,0,0,1,1.366,6.967,16.985,16.985,0,0,1-1.366,6.75,16.144,16.144,0,0,1-9.357,8.8,17.353,17.353,0,0,1-6.964.987h0a19,19,0,0,1-7.064-1.839,20.185,20.185,0,0,1-9.832-10.3,18.617,18.617,0,0,1-1.475-7.208Z" transform="translate(-183.82 -184.153)" fill="#273a57"/>
    <path id="Path_5" data-name="Path 5" d="M188.271,460a17.736,17.736,0,0,1,5.454-12.818,18.11,18.11,0,0,1,29.235,6.1,17.882,17.882,0,0,1-16.317,24.7h0a18.146,18.146,0,0,1-16.9-10.885A17.823,17.823,0,0,1,188.271,460Z" transform="translate(-183.821 -208.592)" fill="#273a57"/>
    <path id="Path_6" data-name="Path 6" d="M202.75,271.336l5.386.828v-5.311a1.6,1.6,0,0,1,.138-.668,1.417,1.417,0,0,1,.381-.5,1.45,1.45,0,0,1,.565-.29,1.683,1.683,0,0,1,.692-.03,2.013,2.013,0,0,1,.692.248,2.234,2.234,0,0,1,.565.467,2.194,2.194,0,0,1,.382.621,1.922,1.922,0,0,1,.142.708v5.3l5.284.811a1.959,1.959,0,0,1,.681.243,2.186,2.186,0,0,1,.93,1.074,1.908,1.908,0,0,1,.137.7,1.6,1.6,0,0,1-.137.661,1.422,1.422,0,0,1-.371.5,1.44,1.44,0,0,1-.556.292,1.648,1.648,0,0,1-.681.036l-5.291-.791v5.291a1.609,1.609,0,0,1-.139.668,1.447,1.447,0,0,1-.38.507,1.476,1.476,0,0,1-.564.3,1.687,1.687,0,0,1-.691.04,1.985,1.985,0,0,1-.693-.237,2.185,2.185,0,0,1-.566-.46,2.151,2.151,0,0,1-.382-.617,1.9,1.9,0,0,1-.138-.71V275.7l-5.386-.808a2.04,2.04,0,0,1-.7-.245,2.243,2.243,0,0,1-.575-.468,2.187,2.187,0,0,1-.388-.622,1.914,1.914,0,0,1-.142-.717,1.6,1.6,0,0,1,.142-.673,1.44,1.44,0,0,1,.388-.507,1.487,1.487,0,0,1,.575-.3A1.724,1.724,0,0,1,202.75,271.336Z" transform="translate(-187.093 -162.927)" fill="#fff"/>
    <path id="Path_7" data-name="Path 7" d="M208.477,374.04l14.958,1.084h.055l-7.014-12.735a.561.561,0,0,0-.182-.2.547.547,0,0,0-.119-.06.518.518,0,0,0-.131-.029.484.484,0,0,0-.131.006.456.456,0,0,0-.119.04.437.437,0,0,0-.182.168l-4.773,7.846-.23.378Z" transform="translate(-189.039 -187.917)" fill="#fff"/>
    <path id="Path_8" data-name="Path 8" d="M196.968,374.406l13.2.957-2.529-3.839-.182-.277-3.317-5.036a.757.757,0,0,0-.216-.194.744.744,0,0,0-.128-.061.713.713,0,0,0-.142-.035.681.681,0,0,0-.142-.005.65.65,0,0,0-.136.024.615.615,0,0,0-.125.052.6.6,0,0,0-.111.079l-.011.013-.014.013-.011.014-.011.014Z" transform="translate(-186.067 -188.902)" fill="#fff"/>
    <path id="Ellipse_1" data-name="Ellipse 1" d="M209.64,359.661a2.388,2.388,0,0,1,.873.249,2.534,2.534,0,0,1,.711.538,2.5,2.5,0,0,1,.479.748,2.314,2.314,0,0,1,.176.88,2.1,2.1,0,0,1-.176.85,1.981,1.981,0,0,1-.479.668,2.008,2.008,0,0,1-.711.418,2.166,2.166,0,0,1-.873.1,2.385,2.385,0,0,1-.874-.247,2.532,2.532,0,0,1-.715-.537,2.5,2.5,0,0,1-.483-.749,2.314,2.314,0,0,1-.177-.884,2.1,2.1,0,0,1,.177-.853,1.981,1.981,0,0,1,.483-.668,2.01,2.01,0,0,1,.715-.414A2.168,2.168,0,0,1,209.64,359.661Z" transform="translate(-188.759 -187.285)" fill="#fff"/>
    <path id="Rectangle_2" data-name="Rectangle 2" d="M428.034,379.177,576.142,238.652l.635,1.113L428.96,380.366Z" transform="translate(-249.493 -156.034)" fill="#e6e6e6"/>
    <path id="Rectangle_3" data-name="Rectangle 3" d="M428.066,212.989l.929-1.113L576.771,365.283l-.637,1.057Z" transform="translate(-249.501 -149.118)" fill="#e6e6e6"/>
    <path id="Path_9" data-name="Path 9" d="M573.781,228.983,429.812,209.2a4.425,4.425,0,0,0-1.984.169,4.265,4.265,0,0,0-1.627.982,4.743,4.743,0,0,0-1.1,1.632,5.636,5.636,0,0,0-.406,2.135V369.1a5.894,5.894,0,0,0,.406,2.166,5.3,5.3,0,0,0,1.1,1.727,4.764,4.764,0,0,0,1.627,1.113,4.563,4.563,0,0,0,1.984.332l143.969-7.929a2.919,2.919,0,0,0,1.369-.445,3.949,3.949,0,0,0,1.113-1.054,5.259,5.259,0,0,0,.749-1.511,6.075,6.075,0,0,0,.275-1.814V234.091a6.3,6.3,0,0,0-.275-1.837,5.79,5.79,0,0,0-.749-1.572,4.463,4.463,0,0,0-1.113-1.146A3.154,3.154,0,0,0,573.781,228.983ZM429.812,372.841a3.259,3.259,0,0,1-1.416-.24,3.4,3.4,0,0,1-1.16-.8,3.789,3.789,0,0,1-.785-1.236,4.214,4.214,0,0,1-.289-1.545V214.314a4.029,4.029,0,0,1,.289-1.521,3.389,3.389,0,0,1,.785-1.167,3.047,3.047,0,0,1,1.16-.7,3.159,3.159,0,0,1,1.416-.124l143.969,19.511a2.251,2.251,0,0,1,.978.395,3.185,3.185,0,0,1,.8.816,4.136,4.136,0,0,1,.536,1.124,4.507,4.507,0,0,1,.2,1.314V361.734a4.342,4.342,0,0,1-.2,1.3,3.755,3.755,0,0,1-.536,1.08,2.817,2.817,0,0,1-.8.752,2.083,2.083,0,0,1-.978.314Z" transform="translate(-248.61 -148.417)" fill="#e6e6e6"/>
    <g id="b12ed9b2-cc32-4c4f-a9d5-2d1deb4d0e3e" transform="translate(172.746 223.798)">
      <path id="Path_14" data-name="Path 14" d="M424.228,447.579a2.2,2.2,0,0,0-1.058.411,3.332,3.332,0,0,0-.859.928,4.762,4.762,0,0,0-.573,1.3,5.6,5.6,0,0,0-.2,1.544,5.2,5.2,0,0,0,.223,1.474,3.914,3.914,0,0,0,.579,1.172,2.607,2.607,0,0,0,.851.759,1.929,1.929,0,0,0,1.038.234l252.041-20.87a.863.863,0,0,0,.533-.244,2.016,2.016,0,0,0,.438-.614,3.919,3.919,0,0,0,.3-.89,5.407,5.407,0,0,0,.116-1.081,5.246,5.246,0,0,0-.1-1.072,3.565,3.565,0,0,0-.285-.867,1.735,1.735,0,0,0-.426-.578.776.776,0,0,0-.53-.2h-.044Z" transform="translate(-421.539 -428.992)" fill="#e6e6e6"/>
    </g>
    <g id="e10bb4bc-6df1-41b6-ac46-84090840b498" transform="translate(172.746 240.609)">
      <path id="Path_15" data-name="Path 15" d="M424.228,477.183a2.257,2.257,0,0,0-1.058.44,3.47,3.47,0,0,0-.859.948,4.905,4.905,0,0,0-.573,1.32,5.654,5.654,0,0,0-.2,1.554,5.139,5.139,0,0,0,.222,1.468,3.788,3.788,0,0,0,.579,1.156,2.5,2.5,0,0,0,.849.735,1.9,1.9,0,0,0,1.038.205l252.042-27.8a.89.89,0,0,0,.533-.259,2.1,2.1,0,0,0,.438-.627,4.018,4.018,0,0,0,.3-.9,5.457,5.457,0,0,0,.116-1.085,5.2,5.2,0,0,0-.1-1.07,3.482,3.482,0,0,0-.285-.859,1.669,1.669,0,0,0-.428-.564.757.757,0,0,0-.53-.182h-.044Z" transform="translate(-421.539 -451.657)" fill="#e6e6e6"/>
    </g>
    <g id="e3c0a870-6a35-4470-a43f-0902a465f5fb" transform="translate(172.746 257.151)">
      <path id="Path_16" data-name="Path 16" d="M424.228,506.308a2.323,2.323,0,0,0-1.058.469,3.612,3.612,0,0,0-.859.972,5.053,5.053,0,0,0-.573,1.335,5.713,5.713,0,0,0-.2,1.558,5.075,5.075,0,0,0,.222,1.461,3.667,3.667,0,0,0,.579,1.141,2.407,2.407,0,0,0,.849.712,1.869,1.869,0,0,0,1.038.177l252.043-34.626a.918.918,0,0,0,.532-.273,2.177,2.177,0,0,0,.438-.639,4.121,4.121,0,0,0,.3-.91,5.505,5.505,0,0,0,.116-1.088,5.178,5.178,0,0,0-.1-1.067,3.393,3.393,0,0,0-.285-.852,1.6,1.6,0,0,0-.428-.552.742.742,0,0,0-.53-.168h-.044Z" transform="translate(-421.54 -473.958)" fill="#e6e6e6"/>
    </g>
    <path id="Path_17" data-name="Path 17" d="M217,456.006l-14.388-.172a2.048,2.048,0,0,0-.708.1,2.022,2.022,0,0,0-.61.324,1.988,1.988,0,0,0-.463.51,1.967,1.967,0,0,0-.263.655,1.913,1.913,0,0,0,.042.834,1.938,1.938,0,0,0,.156.391,1.972,1.972,0,0,0,.551.648,2,2,0,0,0,1.19.406l4.327.039a1.048,1.048,0,0,1,.957.636,1.023,1.023,0,0,1,.082.4v8.488a1.976,1.976,0,0,0,.441,1.29,2,2,0,0,0,1.171.7,1.938,1.938,0,0,0,2.077-1.092,1.914,1.914,0,0,0,.179-.808V460.8a1.017,1.017,0,0,1,1.018-1.016h.01l4.134.033a1.95,1.95,0,0,0,1.975-1.567A1.929,1.929,0,0,0,217,456.006Z" transform="translate(-186.99 -212.126)" fill="#fff"/>
    <path id="Ellipse_2" data-name="Ellipse 2" d="M222.07,471.484a1.91,1.91,0,1,1-1.759,1.167,1.91,1.91,0,0,1,1.759-1.167Z" transform="translate(-192.057 -216.168)" fill="#fff"/>
    <path id="Path_4250" data-name="Path 4250" d="M670.511,315.959a9.932,9.932,0,0,1-.321,1.53L700.182,353.4l11.2-1.93L716.506,368l-19.5,5.344a7.548,7.548,0,0,1-8.425-3.327l-27.875-45.348a9.9,9.9,0,1,1,9.8-8.7Z" transform="translate(-309.347 -173.133)" fill="#ffb6b6"/>
    <path id="Path_4251" data-name="Path 4251" d="M718.955,365.559A4.241,4.241,0,0,1,721.9,363.6l21.042-3.356a11.791,11.791,0,0,1,7.157,22.469l-19.225,9.347a4.246,4.246,0,0,1-5.905-2.542l-6.448-20.45a4.241,4.241,0,0,1,.438-3.508Z" transform="translate(-327.359 -187.293)" fill="#bbceeb"/>
    <path id="Path_4252" data-name="Path 4252" d="M533.814,620.3h-9.094L520.4,585.23h13.421Z" transform="translate(-140.569 -151.15)" fill="#ffb6b6"/>
    <path id="Path_4253" data-name="Path 4253" d="M713.674,767.565H684.353v-.371a11.413,11.413,0,0,1,11.412-11.412h17.91Z" transform="translate(-318.053 -289.595)" fill="#2f2e41"/>
    <path id="Path_4254" data-name="Path 4254" d="M661.814,620.3h-9.094L648.4,585.23h13.421Z" transform="translate(-175.144 -151.15)" fill="#ffb6b6"/>
    <path id="Path_4255" data-name="Path 4255" d="M841.674,767.565H812.353v-.371a11.413,11.413,0,0,1,11.412-11.412h17.91Z" transform="translate(-352.669 -289.595)" fill="#2f2e41"/>
    <path id="Path_4256" data-name="Path 4256" d="M717.986,467.77l39.4-11.387c14.355,10.181,24.266,30.589,21.056,56.994-5.173,42.551,24.773,97.262,37.688,152.7l-22.332.7L744.9,549.747l-28.67,119.466-19.949.627,13.34-164.492Z" transform="translate(-322.412 -212.268)" fill="#0b2d61"/>
    <circle id="Ellipse_418" data-name="Ellipse 418" cx="20.384" cy="20.384" r="20.384" transform="translate(393.431 111.253)" fill="#ffb6b6"/>
    <path id="Path_4257" data-name="Path 4257" d="M719.554,406.78c-4.506-7.909-6.732-17.514-2.81-25.728.987-2.068,3.68-4.023,5.089-5.831l15.75-23.483,17.784-2.861c15.39,12.908,2.243,57.007,14.852,85.934L717.556,463C721.32,448.621,726.4,418.8,719.554,406.78Z" transform="translate(-326.566 -184.502)" fill="#bbceeb"/>
    <path id="Path_4258" data-name="Path 4258" d="M721.314,287.472s1.381-2.557,9.642.742c2.892,1.154,4.248.889,4.436,3.4a47.931,47.931,0,0,0,9.937,25.986l.063.081,4.131-3.77,5.311,4.241,22.425.471S780.8,301.19,769,281.4s-36-8.953-36-8.953C716.475,273.39,721.314,287.472,721.314,287.472Z" transform="translate(-328.194 -163.997)" fill="#01183a"/>
    <path id="Path_9-2" data-name="Path 9" d="M599.472,251.7,455.5,231.926a4.426,4.426,0,0,0-1.984.169,4.265,4.265,0,0,0-1.627.982,4.742,4.742,0,0,0-1.1,1.632,5.638,5.638,0,0,0-.406,2.135V391.819a5.9,5.9,0,0,0,.406,2.166,5.3,5.3,0,0,0,1.1,1.727,4.764,4.764,0,0,0,1.627,1.113,4.563,4.563,0,0,0,1.984.332l143.97-7.929a2.919,2.919,0,0,0,1.368-.445,3.948,3.948,0,0,0,1.113-1.054,5.258,5.258,0,0,0,.749-1.511,6.076,6.076,0,0,0,.275-1.814V256.812a6.3,6.3,0,0,0-.275-1.837,5.792,5.792,0,0,0-.749-1.572,4.461,4.461,0,0,0-1.113-1.146A3.154,3.154,0,0,0,599.472,251.7Z" transform="translate(-255.64 -154.285)" fill="#0b2d61"/>
    <path id="Path_9-3" data-name="Path 9" d="M599.472,251.7,455.5,231.926a4.426,4.426,0,0,0-1.984.169,4.265,4.265,0,0,0-1.627.982,4.742,4.742,0,0,0-1.1,1.632,5.638,5.638,0,0,0-.406,2.135V391.819a5.9,5.9,0,0,0,.406,2.166,5.3,5.3,0,0,0,1.1,1.727,4.764,4.764,0,0,0,1.627,1.113,4.563,4.563,0,0,0,1.984.332l143.97-7.929a2.919,2.919,0,0,0,1.368-.445,3.948,3.948,0,0,0,1.113-1.054,5.258,5.258,0,0,0,.749-1.511,6.076,6.076,0,0,0,.275-1.814V256.812a6.3,6.3,0,0,0-.275-1.837,5.792,5.792,0,0,0-.749-1.572,4.461,4.461,0,0,0-1.113-1.146A3.154,3.154,0,0,0,599.472,251.7Z" transform="translate(-255.64 -154.285)" fill="#01183a" opacity="0.2"/>
    <path id="Path_9-4" data-name="Path 9" d="M607.472,251.7,463.5,231.926a4.426,4.426,0,0,0-1.984.169,4.265,4.265,0,0,0-1.627.982,4.742,4.742,0,0,0-1.1,1.632,5.638,5.638,0,0,0-.406,2.135V391.819a5.9,5.9,0,0,0,.406,2.166,5.3,5.3,0,0,0,1.1,1.727,4.765,4.765,0,0,0,1.627,1.113,4.564,4.564,0,0,0,1.984.332l143.969-7.929a2.919,2.919,0,0,0,1.368-.445,3.948,3.948,0,0,0,1.113-1.054,5.257,5.257,0,0,0,.749-1.511,6.078,6.078,0,0,0,.275-1.814V256.812a6.3,6.3,0,0,0-.275-1.837,5.793,5.793,0,0,0-.749-1.572,4.463,4.463,0,0,0-1.113-1.146A3.154,3.154,0,0,0,607.472,251.7Z" transform="translate(-257.829 -154.285)" fill="#0b2d61"/>
    <path id="Path_4259" data-name="Path 4259" d="M652.842,420.774a9.931,9.931,0,0,1,1.089,1.123l46.546-4.758,4.669-10.363,16.561,5-6.483,19.149a7.547,7.547,0,0,1-7.472,5.12l-53.182-2.279a9.9,9.9,0,1,1-1.728-13Z" transform="translate(-305.675 -199.456)" fill="#ffb6b6"/>
    <path id="Path_4260" data-name="Path 4260" d="M721.407,406.846a4.241,4.241,0,0,1,.022-3.535l9-19.316a11.791,11.791,0,1,1,22.626,6.643L750.037,411.8a4.245,4.245,0,0,1-5.411,3.471l-20.556-6.1a4.241,4.241,0,0,1-2.663-2.326Z" transform="translate(-328.008 -191.384)" fill="#bbceeb"/>
    <path id="Path_4261" data-name="Path 4261" d="M918.069,772.218h-282.6a.742.742,0,0,1,0-1.483h282.6a.742.742,0,0,1,0,1.483Z" transform="translate(-308.811 -293.457)" fill="#cacaca"/>
  </g>
</svg>
