<svg xmlns="http://www.w3.org/2000/svg" width="610" height="463.001" viewBox="0 0 610 463.001">
  <g id="Mysql-database-design" transform="translate(-60)">
    <path id="Path_4068" data-name="Path 4068" d="M250.771,595.4a2.852,2.852,0,0,1-2.067-4.943l.2-.777-.078-.186a7.658,7.658,0,0,0-14.127.052c-2.311,5.565-5.252,11.139-5.977,17.023a22.657,22.657,0,0,0,.4,7.792,90.835,90.835,0,0,1-8.263-37.727,87.671,87.671,0,0,1,.544-9.781q.451-3.994,1.25-7.93a91.888,91.888,0,0,1,18.222-38.944,24.454,24.454,0,0,0,10.17-10.552,18.652,18.652,0,0,0,1.7-5.1c-.5.065-1,.106-1.493.138l-.471.024-.058,0a2.826,2.826,0,0,1-2.321-4.6l.642-.789c.325-.406.657-.8.982-1.209a1.415,1.415,0,0,0,.105-.122c.373-.463.747-.917,1.12-1.38a8.17,8.17,0,0,0-2.679-2.589c-3.742-2.192-8.9-.674-11.607,2.711s-3.222,8.133-2.281,12.362a32.744,32.744,0,0,0,4.529,10.1c-.2.26-.414.511-.617.771a92.478,92.478,0,0,0-9.653,15.292,38.446,38.446,0,0,0-2.3-17.857c-2.2-5.3-6.315-9.764-9.941-14.345-4.356-5.5-13.288-3.1-14.055,3.875q-.011.1-.022.2.808.456,1.582.968a3.868,3.868,0,0,1-1.56,7.04l-.079.012a38.492,38.492,0,0,0,1.015,5.755,39.63,39.63,0,0,0,19.732,24.837c.317.162.625.325.942.479a94.4,94.4,0,0,0-5.081,23.912,89.532,89.532,0,0,0,.065,14.456l-.024-.17a23.658,23.658,0,0,0-8.076-13.661c-6.215-5.106-15-6.986-21.7-11.089a4.44,4.44,0,0,0-6.8,4.319l.027.179a26,26,0,0,1,2.914,1.4q.808.456,1.582.968a3.868,3.868,0,0,1-1.56,7.04l-.079.012-.162.024a38.525,38.525,0,0,0,7.086,11.1,39.665,39.665,0,0,0,28.766,12.622h.008a94.371,94.371,0,0,0,6.339,18.506H250.2c.081-.252.154-.511.227-.763a25.731,25.731,0,0,1-6.266-.373c1.68-2.062,3.36-4.14,5.041-6.2a1.4,1.4,0,0,0,.105-.122c.852-1.055,1.713-2.1,2.565-3.157h0a37.689,37.689,0,0,0-1.1-9.6Z" transform="translate(-110.811 -266.35)" fill="#f2f2f2"/>
    <path id="Path_4069" data-name="Path 4069" d="M514.689,648.554a.936.936,0,0,1-.939.939H168.6a.939.939,0,1,1,0-1.878H513.75a.936.936,0,0,1,.939.939Z" transform="translate(-107.665 -298.983)" fill="#ccc"/>
    <path id="Path_4070" data-name="Path 4070" d="M388.375,495.877a9.142,9.142,0,0,0-11.254,8.358L357.389,511.1l1.248,13.008,27.728-10.089a9.192,9.192,0,0,0,2.009-18.145Z" transform="translate(-149.027 -266.939)" fill="#ffb6b6"/>
    <path id="Path_4071" data-name="Path 4071" d="M340.473,529.591c-7.846,5.468-21.667,8.266-40.479,8.137a7.522,7.522,0,0,1-5.546-2.418c-5.033-5.241-4.837-17.206-4.805-18.362l-5.517-20.792c-.118-.318-3.172-8.849-.065-14.807a9.762,9.762,0,0,1,6.492-4.948c11.667-3.1,22.635,28.135,24.029,32.262l16.374-2.788,11.308-.465,11.5-6.35,6.477,15.5-16.029,11.714A20.253,20.253,0,0,1,340.473,529.591Z" transform="translate(-131.899 -262.844)" fill="#0b2d61"/>
    <path id="Path_4072" data-name="Path 4072" d="M228.268,641.782l12.061.564,7.913-46.253-17.8-.832Z" transform="translate(10.28 -203.151)" fill="#ffb6b6"/>
    <path id="Path_4073" data-name="Path 4073" d="M391.494,753.881l19.119-.246-.382,8.169,17.541,13.367a5.108,5.108,0,0,1-3.334,9.166l-22.7-1.061-3.535-8.263L396.3,783.02l-8.558-.4Z" transform="translate(-155.654 -321.34)" fill="#01183a"/>
    <path id="Path_4074" data-name="Path 4074" d="M372.394,519.422l4.394-11.247-41.288-22.3-20.858,13.11Z" transform="translate(-8.685 -180.081)" fill="#ffb6b6"/>
    <path id="Path_4075" data-name="Path 4075" d="M547.067,629.035l5.885-18.192,7.617,2.976,18.278-12.341a5.108,5.108,0,0,1,7.617,6.092l-8.27,21.166-8.96.7,6.978,4.368-3.118,7.98Z" transform="translate(-190.387 -289.075)" fill="#01183a"/>
    <path id="Path_4076" data-name="Path 4076" d="M254.961,585.906s5.009,31.978,28.688,34.346,45.5-8.3,45.5-8.3l66.3-20.419s70.52,20.037,82.359,23.194c0,0,8.166-18.536,7.893-19.732-2.518-11.017-5.8-3.564-5.8-3.564l-74.982-33.15s-11.839-3.157-32.361,5.525-75.5,29.611-75.5,29.611Z" transform="translate(-126.06 -280.036)" fill="#01183a"/>
    <path id="Path_4077" data-name="Path 4077" d="M255.238,590.947s-3.949,38.309,19.117,44.161c21.926,5.563,52.17-.144,52.17-.144l36.056-3.764s1.579,46.327,1.579,69.217a173.846,173.846,0,0,0,22.1,1.579c1.579,0,1.683-.827,1.683-.827L391,621.1a24.987,24.987,0,0,0-25.852-26.508q-2.553.1-5.356.362c-22.181,2.127-49.717-2.395-49.717-2.395Z" transform="translate(-126.064 -287.059)" fill="#01183a"/>
    <path id="Path_4078" data-name="Path 4078" d="M332.632,520.535s9.364,56.626,3.036,61.147-15.006,4.538-15.006,4.538l-2.018-31.265Z" transform="translate(-140.549 -272.195)" fill="#0b2d61"/>
    <path id="Path_4079" data-name="Path 4079" d="M316.578,432.424l12.52,11.9a36.9,36.9,0,0,1,7.261,43.887l-5.985,11.413Z" transform="translate(-140.107 -253.616)" fill="#0b2d61"/>
    <path id="Path_4080" data-name="Path 4080" d="M305.25,434.958l16.965,19.324a27.116,27.116,0,0,1,6.6,15.152h0a27.117,27.117,0,0,1-.309,7.643l-6.393,34.755-4.806,50.191s-37.1,11.241-40.9-6.117S305.25,434.958,305.25,434.958Z" transform="translate(-130.515 -254.157)" fill="#0b2d61"/>
    <path id="Path_4081" data-name="Path 4081" d="M284.551,561.957c-24.387-4.064-30.361-4.871-30.733-5.013l-.373-.142,2.444-14.668,10.322-25.364c.67-8.3,5.018-19.538,2.531-28.568-7.23-26.249,4.517-63.342,9.889-66.184l14.893-9.763,5.228,4.793,9.064,12.69c7.458,33.222,12.609,64.187,12.358,66.079l-4.6,32.524-5.424,12.476C293.693,548.756,304.758,565.325,284.551,561.957Z" transform="translate(-125.74 -249.371)" fill="#0b2d61"/>
    <path id="Path_4082" data-name="Path 4082" d="M348.47,568.4l38.291-10.245,3.371-.8,2.4-.571,2.8-.662.022-.005a1.589,1.589,0,0,1,1.189.2l14.218,17.047a1.254,1.254,0,0,1,.335.3.565.565,0,0,1,.1.106,1.623,1.623,0,0,1-.915,2.534l-57.123,13.146a1.609,1.609,0,0,1-1.617-.571l-.58-.751-3.161-15.222-.225-1.977a1.575,1.575,0,0,1-.3-.622,1.6,1.6,0,0,1,1.183-1.905Z" transform="translate(-146.872 -279.687)" fill="#e6e6e6"/>
    <path id="Path_4083" data-name="Path 4083" d="M351.963,592.823l.583.754a1.608,1.608,0,0,0,1.613.571L411.284,581a1.62,1.62,0,0,0,.913-2.532.484.484,0,0,0-.1-.107Z" transform="translate(-147.893 -284.383)" opacity="0.17"/>
    <path id="Path_4084" data-name="Path 4084" d="M407.538,531.716,406.5,458.893a1.662,1.662,0,0,1,.369-1.217l7.32-15.234.76-.924a1.683,1.683,0,0,1,1.125-.6l1.593-.148a1.663,1.663,0,0,1,1.817,1.492h0l1.435,77.053v.006l.711,7.419.842,8.81,0,.011,1.315,13.707a1.627,1.627,0,0,1-.44,1.292,1.651,1.651,0,0,1-1.251.536l-1.037-.021a1.688,1.688,0,0,1-1.076-.424l-.58-.521-.269-.245L408.088,532.8A1.653,1.653,0,0,1,407.538,531.716Z" transform="translate(-159.679 -255.38)" fill="#e6e6e6"/>
    <path id="Path_4085" data-name="Path 4085" d="M416.251,442.441l4.947,107.45.27.242.578.52a1.683,1.683,0,0,0,1.077.425l1.038.021a1.67,1.67,0,0,0,1.69-1.826l-4.309-107a1.664,1.664,0,0,0-1.815-1.5l-1.6.153a1.64,1.64,0,0,0-1.119.6Z" transform="translate(-161.783 -255.379)" opacity="0.17"/>
    <path id="Path_4086" data-name="Path 4086" d="M247.326,340.929l-6.694,16.524.828,49.43,7.247,10.481Z" transform="translate(7.618 -149.523)" fill="#0b2d61"/>
    <path id="Path_4087" data-name="Path 4087" d="M354.108,571.126a1.437,1.437,0,0,0-.988,1.775l2.949,12.29,2.763-.787-2.949-12.29a1.437,1.437,0,0,0-1.775-.988Z" transform="translate(-148.02 -282.845)" fill="#273a57"/>
    <path id="Path_4088" data-name="Path 4088" d="M361.111,569.132a1.437,1.437,0,0,0-.988,1.775l.629,2.211,2.763-.787-.629-2.211a1.437,1.437,0,0,0-1.775-.988Z" transform="translate(-149.539 -282.424)" fill="#273a57"/>
    <path id="Path_4089" data-name="Path 4089" d="M368.112,567.138a1.437,1.437,0,0,0-.988,1.775l.629,2.211,2.763-.787-.629-2.211A1.437,1.437,0,0,0,368.112,567.138Z" transform="translate(-151.063 -282.003)" fill="#2f2e41"/>
    <path id="Path_4090" data-name="Path 4090" d="M375.115,565.145a1.437,1.437,0,0,0-.988,1.775l.629,2.211,2.763-.787-.629-2.211A1.437,1.437,0,0,0,375.115,565.145Z" transform="translate(-152.587 -281.583)" fill="#2f2e41"/>
    <path id="Path_4091" data-name="Path 4091" d="M382.116,563.151a1.437,1.437,0,0,0-.988,1.775l.629,2.211,2.763-.787-.629-2.211A1.437,1.437,0,0,0,382.116,563.151Z" transform="translate(-154.111 -281.163)" fill="#2f2e41"/>
    <path id="Path_4092" data-name="Path 4092" d="M389.117,561.157a1.437,1.437,0,0,0-.988,1.775l.629,2.211,2.763-.787-.629-2.211A1.437,1.437,0,0,0,389.117,561.157Z" transform="translate(-155.635 -280.742)" fill="#273a57"/>
    <path id="Path_4093" data-name="Path 4093" d="M396.12,559.163a1.437,1.437,0,0,0-.988,1.775l.629,2.21,2.763-.787-.629-2.211A1.437,1.437,0,0,0,396.12,559.163Z" transform="translate(-157.159 -280.322)" fill="#273a57"/>
    <path id="Path_4094" data-name="Path 4094" d="M403.121,557.17a1.437,1.437,0,0,0-.988,1.775l.629,2.211,2.763-.787-.629-2.211A1.437,1.437,0,0,0,403.121,557.17Z" transform="translate(-158.683 -279.902)" fill="#273a57"/>
    <path id="Path_4095" data-name="Path 4095" d="M362.581,575.517a1.437,1.437,0,0,0-.988,1.775l.629,2.211,2.763-.787-.629-2.211A1.437,1.437,0,0,0,362.581,575.517Z" transform="translate(-149.859 -283.77)" fill="#273a57"/>
    <path id="Path_4096" data-name="Path 4096" d="M369.581,573.524a1.437,1.437,0,0,0-.988,1.775l.629,2.211,2.763-.787-.629-2.211A1.437,1.437,0,0,0,369.581,573.524Z" transform="translate(-151.383 -283.35)" fill="#273a57"/>
    <path id="Path_4097" data-name="Path 4097" d="M376.583,571.53a1.437,1.437,0,0,0-.988,1.775l.629,2.211,2.763-.787-.629-2.211A1.437,1.437,0,0,0,376.583,571.53Z" transform="translate(-152.907 -282.929)" fill="#2f2e41"/>
    <path id="Path_4098" data-name="Path 4098" d="M383.585,569.536a1.437,1.437,0,0,0-.988,1.775l.629,2.211,2.763-.787-.629-2.211a1.437,1.437,0,0,0-1.775-.988Z" transform="translate(-154.431 -282.509)" fill="#273a57"/>
    <path id="Path_4099" data-name="Path 4099" d="M390.587,567.542a1.437,1.437,0,0,0-.988,1.775l.629,2.211,2.763-.787-.629-2.211a1.437,1.437,0,0,0-1.775-.988Z" transform="translate(-155.955 -282.089)" fill="#273a57"/>
    <path id="Path_4100" data-name="Path 4100" d="M397.59,565.549a1.437,1.437,0,0,0-.988,1.775l.629,2.211,2.763-.787-.629-2.211a1.437,1.437,0,0,0-1.775-.988Z" transform="translate(-157.479 -281.668)" fill="#273a57"/>
    <path id="Path_4101" data-name="Path 4101" d="M404.591,563.555a1.437,1.437,0,0,0-.988,1.775l.63,2.211,2.763-.787-.629-2.211A1.437,1.437,0,0,0,404.591,563.555Z" transform="translate(-159.003 -281.248)" fill="#273a57"/>
    <path id="Path_4102" data-name="Path 4102" d="M364.049,581.9a1.437,1.437,0,0,0-.988,1.775l.629,2.211,2.763-.787-.629-2.211A1.437,1.437,0,0,0,364.049,581.9Z" transform="translate(-150.179 -285.116)" fill="#273a57"/>
    <path id="Path_4103" data-name="Path 4103" d="M371.051,579.909a1.437,1.437,0,0,0-.988,1.775l.629,2.21,2.763-.787-.629-2.211A1.437,1.437,0,0,0,371.051,579.909Z" transform="translate(-151.703 -284.696)" fill="#273a57"/>
    <path id="Path_4104" data-name="Path 4104" d="M378.053,577.915a1.437,1.437,0,0,0-.988,1.775l.629,2.211,2.763-.787-.629-2.211A1.437,1.437,0,0,0,378.053,577.915Z" transform="translate(-153.227 -284.276)" fill="#273a57"/>
    <path id="Path_4105" data-name="Path 4105" d="M385.054,575.921a1.437,1.437,0,0,0-.988,1.775l.63,2.211,2.763-.787-.629-2.211A1.437,1.437,0,0,0,385.054,575.921Z" transform="translate(-154.75 -283.855)" fill="#273a57"/>
    <path id="Path_4106" data-name="Path 4106" d="M392.056,573.928a1.437,1.437,0,0,0-.988,1.775l.629,2.211,2.763-.787-.629-2.211A1.437,1.437,0,0,0,392.056,573.928Z" transform="translate(-156.274 -283.435)" fill="#273a57"/>
    <path id="Path_4107" data-name="Path 4107" d="M399.059,571.934a1.437,1.437,0,0,0-.988,1.775l.629,2.21,2.763-.787-.629-2.211A1.437,1.437,0,0,0,399.059,571.934Z" transform="translate(-157.798 -283.015)" fill="#273a57"/>
    <path id="Path_4108" data-name="Path 4108" d="M406.06,569.94a1.437,1.437,0,0,0-.988,1.775l.629,2.211,2.763-.787-.629-2.211A1.437,1.437,0,0,0,406.06,569.94Z" transform="translate(-159.322 -282.594)" fill="#273a57"/>
    <path id="Path_4109" data-name="Path 4109" d="M374.821,555.223a9.142,9.142,0,0,0-13.935-1.529l-19.134-8.388-7.934,10.384,27.187,11.467a9.192,9.192,0,0,0,13.815-11.933Z" transform="translate(-143.897 -277.414)" fill="#ffb6b6"/>
    <path id="Path_4110" data-name="Path 4110" d="M313.273,545.442c-9.47-1.329-21.5-8.68-35.206-21.57a7.522,7.522,0,0,1-2.42-5.545c-.124-7.266,8.159-15.9,8.968-16.728l10.1-18.993c.13-.314,3.694-8.644,10.024-10.9a9.763,9.763,0,0,1,8.125.79c10.658,5.667-2.547,36.021-4.333,39.994l13.9,9.094,8.6,7.351,12.752,3.171-5.8,15.769-19.717-2.317a20.254,20.254,0,0,1-5-.116Z" transform="translate(-130.418 -261.787)" fill="#0b2d61"/>
    <ellipse id="Ellipse_398" data-name="Ellipse 398" cx="24.296" cy="23.766" rx="24.296" ry="23.766" transform="translate(151.444 158.477) rotate(-83.168)" fill="#ffb6b6"/>
    <path id="Path_4111" data-name="Path 4111" d="M231.6,350.778c4.571-4.2,7.222-10.174,11.065-15.1s9.992-9.013,15.739-7.07c3.961,1.339,6.672,5.3,7.783,9.489s.88,8.633.642,12.985c.965-8.887,7.844-16.791,16.238-18.658a20.475,20.475,0,0,1,21.863,10.184,12.388,12.388,0,0,1,16.377,1.614,13.8,13.8,0,0,1,.174,17.173,12.472,12.472,0,0,1-16.337,2.325l-2.077,1.5a8.168,8.168,0,0,1-5.55,8.89c-2.918.791-6.825.133-8.217,2.929-.972,1.954.127,4.3,1.386,6.037s2.783,3.567,2.7,5.758c-.13,3.306-3.789,5.195-6.947,5.517a19.461,19.461,0,0,1-18.927-10.7q-.1-.2-.223-.411a28.848,28.848,0,0,1-3.137-22.592c.422-1.484.314-2.638-.686-3.122-4.323-2.089-17.344-.352-21.519,2.128s-7.7,6-11.759,8.687-9.039,4.536-13.612,3.124c-3.663-1.131-6.523-4.231-8.273-7.767a40.5,40.5,0,0,1-3.174-11.437C212.832,358.028,224.4,357.383,231.6,350.778Z" transform="translate(-115.558 -231.621)" fill="#1a1a1a"/>
    <path id="Path_4112" data-name="Path 4112" d="M934.462,141.184H575.894a1.426,1.426,0,1,1,0-2.852H934.46a1.426,1.426,0,1,1,0,2.852Z" transform="translate(-265.886 -113.966)" fill="#cacaca"/>
    <ellipse id="Ellipse_399" data-name="Ellipse 399" cx="8.357" cy="8.543" rx="8.357" ry="8.543" transform="translate(328.986 0)" fill="#0b2d61"/>
    <ellipse id="Ellipse_400" data-name="Ellipse 400" cx="8.357" cy="8.543" rx="8.357" ry="8.543" transform="translate(357.596 0)" fill="#0b2d61"/>
    <ellipse id="Ellipse_401" data-name="Ellipse 401" cx="8.357" cy="8.543" rx="8.357" ry="8.543" transform="translate(386.206 0)" fill="#0b2d61"/>
    <path id="Path_4113" data-name="Path 4113" d="M1002.661,110.143H982.154a1.553,1.553,0,1,0,0,3.106h20.506a1.553,1.553,0,1,0,0-3.106Z" transform="translate(-351.466 -108.026)" fill="#0b2d61"/>
    <path id="Path_4114" data-name="Path 4114" d="M1002.661,117.528H982.154a1.553,1.553,0,1,0,0,3.106h20.506a1.553,1.553,0,1,0,0-3.106Z" transform="translate(-351.466 -109.582)" fill="#0b2d61"/>
    <path id="Path_4115" data-name="Path 4115" d="M1002.661,124.9H982.154a1.553,1.553,0,1,0,0,3.106h20.506a1.553,1.553,0,1,0,0-3.106Z" transform="translate(-351.466 -111.136)" fill="#0b2d61"/>
    <path id="Path_4116" data-name="Path 4116" d="M234.115,557.163l.012-.016-.012.032Z" transform="translate(-121.667 -279.908)" fill="#2f2e41"/>
    <circle id="Ellipse_402" data-name="Ellipse 402" cx="10.331" cy="10.331" r="10.331" transform="translate(523.33 62.121)" fill="#e6e7e8"/>
    <path id="Path_4117" data-name="Path 4117" d="M942.505,226.6h-94.33a3.076,3.076,0,0,1,0-6.153h94.33a3.076,3.076,0,0,1,0,6.153Z" transform="translate(-322.913 -131.282)" fill="#e6e7e8"/>
    <path id="Path_4118" data-name="Path 4118" d="M871.6,242H848.175a3.077,3.077,0,0,1,0-6.153H871.6a3.077,3.077,0,0,1,0,6.153Z" transform="translate(-321.834 -134.53)" fill="#e6e7e8"/>
    <circle id="Ellipse_403" data-name="Ellipse 403" cx="10.331" cy="10.331" r="10.331" transform="translate(523.33 223.34)" fill="#e6e7e8"/>
    <path id="Path_4119" data-name="Path 4119" d="M942.505,430.9h-94.33a3.076,3.076,0,1,1,0-6.153h94.331a3.076,3.076,0,0,1,0,6.153Z" transform="translate(-322.913 -174.358)" fill="#e6e7e8"/>
    <path id="Path_4120" data-name="Path 4120" d="M871.6,446.3H848.175a3.077,3.077,0,0,1,0-6.153H871.6a3.077,3.077,0,0,1,0,6.153Z" transform="translate(-321.834 -177.605)" fill="#e6e7e8"/>
    <circle id="Ellipse_404" data-name="Ellipse 404" cx="10.331" cy="10.331" r="10.331" transform="translate(358.553 198.873)" fill="#e6e7e8"/>
    <path id="Path_4121" data-name="Path 4121" d="M731.841,399.9h-94.33a3.076,3.076,0,0,1,0-6.153h94.33a3.076,3.076,0,1,1,0,6.153Z" transform="translate(-276.336 -167.821)" fill="#e6e7e8"/>
    <path id="Path_4122" data-name="Path 4122" d="M660.94,415.3H637.511a3.077,3.077,0,0,1,0-6.153H660.94a3.077,3.077,0,0,1,0,6.153Z" transform="translate(-275.927 -171.069)" fill="#e6e7e8"/>
    <circle id="Ellipse_405" data-name="Ellipse 405" cx="10.331" cy="10.331" r="10.331" transform="translate(523.33 136.648)" fill="#e6e7e8"/>
    <path id="Path_4123" data-name="Path 4123" d="M942.505,321.049h-94.33a3.076,3.076,0,1,1,0-6.153h94.331a3.076,3.076,0,0,1,0,6.153Z" transform="translate(-322.913 -151.197)" fill="#e6e7e8"/>
    <path id="Path_4124" data-name="Path 4124" d="M904.859,336.451H848.175a3.077,3.077,0,0,1,0-6.153h56.683a3.077,3.077,0,1,1,0,6.153Z" transform="translate(-322.913 -154.444)" fill="#e6e7e8"/>
    <path id="Path_4125" data-name="Path 4125" d="M889.065,351.853h-40.89a3.077,3.077,0,0,1,0-6.153h40.89a3.077,3.077,0,1,1,0,6.153Z" transform="translate(-322.896 -157.691)" fill="#e6e7e8"/>
    <g id="Group_632" data-name="Group 632" transform="translate(30 4.271)">
      <ellipse id="Ellipse_407" data-name="Ellipse 407" cx="40" cy="38" rx="40" ry="38" transform="translate(314 64)" fill="#dd8a00"/>
      <path id="mysql-svgrepo-com" d="M10.44,7.722a5.066,5.066,0,0,0-1.281.142v.071H9.23a9.83,9.83,0,0,0,1,1.281q.355.748.711,1.494l.071-.071a1.736,1.736,0,0,0,.641-1.565c-.177-.186-.2-.419-.356-.641-.2-.3-.6-.463-.853-.711Zm34.438,36.5c.336.246.561.628,1,.783v-.071c-.229-.291-.287-.692-.5-1-.308-.308-.618-.616-.925-.925a15.179,15.179,0,0,0-3.273-3.13c-.972-.7-3.151-1.642-3.558-2.775l-.071-.072a15.528,15.528,0,0,0,2.135-.5c1.07-.287,2.026-.212,3.13-.5q.748-.214,1.494-.427V35.33c-.558-.573-.956-1.331-1.565-1.85a45.706,45.706,0,0,0-5.123-3.842c-.992-.627-2.221-1.034-3.273-1.566-.354-.178-.975-.271-1.21-.569a15.15,15.15,0,0,1-1.28-2.419c-.893-1.72-1.771-3.6-2.562-5.408a29.066,29.066,0,0,0-1.565-3.558,31.43,31.43,0,0,0-12.1-11.67,14.52,14.52,0,0,0-3.985-1.28L9.3,3.025A12.462,12.462,0,0,1,7.879,1.958C6.094.831,1.515-1.622.194,1.6-.641,3.637,1.441,5.623,2.186,6.654A15.321,15.321,0,0,1,3.752,9c.245.535.287,1.071.5,1.637a37.671,37.671,0,0,0,1.635,4.2,14.933,14.933,0,0,0,1.139,1.921c.262.358.711.515.781,1.067a8.709,8.709,0,0,0-.71,2.348c-1.112,3.507-.693,7.865.925,10.46.5.8,1.665,2.506,3.272,1.85,1.406-.573,1.092-2.348,1.494-3.913.09-.356.035-.617.213-.854v.071l1.281,2.561a17.427,17.427,0,0,0,4.056,4.2c.738.558,1.32,1.523,2.277,1.85v-.072h-.071c-.186-.287-.476-.408-.711-.64a16.345,16.345,0,0,1-1.637-1.85,43.219,43.219,0,0,1-3.486-5.692c-.5-.958-.932-2.014-1.353-2.989-.162-.376-.16-.944-.5-1.139a14.22,14.22,0,0,0-1.494,2.135,18.288,18.288,0,0,0-.854,4.7c-.125.045-.069.014-.143.071-.991-.238-1.339-1.259-1.707-2.134a13.455,13.455,0,0,1-.285-8.325c.212-.659,1.172-2.735.782-3.344-.185-.608-.8-.959-1.137-1.423A11.145,11.145,0,0,1,6.881,13.7c-.761-1.726-1.117-3.663-1.92-5.407A15.855,15.855,0,0,0,3.4,5.871a14.063,14.063,0,0,1-1.708-2.42c-.163-.353-.384-.917-.143-1.28a.563.563,0,0,1,.428-.427c.413-.318,1.562.106,1.992.285a17.365,17.365,0,0,1,3.06,1.565c.464.308.933.9,1.493,1.068h.641c1,.23,2.125.072,3.06.356A18.493,18.493,0,0,1,16.7,7.153a27.751,27.751,0,0,1,9.748,10.673c.369.708.529,1.384.853,2.135.656,1.514,1.482,3.072,2.135,4.554a21.274,21.274,0,0,0,2.205,4.2c.484.646,2.353.993,3.2,1.352a18.879,18.879,0,0,1,2.134.853c1.078.65,2.121,1.423,3.131,2.135.5.356,2.057,1.136,2.134,1.778a14.352,14.352,0,0,0-6.048.855c-.464.2-1.2.2-1.281.782.255.267.3.668.5,1a7.827,7.827,0,0,0,1.636,1.922c.642.485,1.3,1,1.992,1.423,1.225.747,2.592,1.173,3.771,1.921.7.442,1.387,1,2.065,1.494Z" transform="translate(331 79)" fill="#fff" fill-rule="evenodd"/>
    </g>
  </g>
</svg>
