<svg xmlns="http://www.w3.org/2000/svg" width="610" height="764.652" viewBox="0 0 610 764.652">
  <g id="react-native-app-development" transform="translate(-97.834 13.993)">
    <path id="Path_4715" data-name="Path 4715" d="M111.33,620.9h10.964l5.218-42.289H111.33Z" transform="translate(2.114 92.711)" fill="#a0616a"/>
    <path id="Path_4716" data-name="Path 4716" d="M399.172,742.218l17.516-1.045v7.5l16.653,11.5a4.688,4.688,0,0,1-2.664,8.545H409.824l-3.594-7.423-1.4,7.423h-7.863Z" transform="translate(-289.306 -36.113)" fill="#01183a"/>
    <path id="Path_4717" data-name="Path 4717" d="M187.143,620.9h10.964l5.219-42.289H187.143Z" transform="translate(13.99 92.711)" fill="#a0616a"/>
    <path id="Path_4718" data-name="Path 4718" d="M474.986,742.218l17.516-1.045v7.5l16.653,11.5a4.688,4.688,0,0,1-2.664,8.545H485.638l-3.594-7.423-1.4,7.423h-7.863Z" transform="translate(-277.447 -36.113)" fill="#01183a"/>
    <path id="Path_4719" data-name="Path 4719" d="M118.834,400.2l58.292,1.461v-63l-47.882.237Z" transform="translate(3.29 55.173)" fill="#a0616a"/>
    <path id="Path_4720" data-name="Path 4720" d="M471.348,486.042,479.14,512l16.176,34.054,34.17,196.7-5.224,27.208-50.656-2.128L451.046,599.188l-.363,23.282-.176,11.269s8.228,73.3-1.363,87.521-.2,12.551-.2,12.551l-.457,29.343-60.021.426L401.712,679.1s6.724-5.309,3.126-10.645,3.487-11.872,3.487-11.872l-3.177-65.95s3.518-11.391-.62-12.872-.543-11.277-.543-11.277l-.615-12.765,13.616-51.485Z" transform="translate(-290.637 -76.079)" fill="#01183a"/>
    <path id="Path_4721" data-name="Path 4721" d="M412.9,485.082l-5.96-17.878-4.257-5.959-1.7-17.027c0-45.973,10.255-38.318,10.255-38.318l13.376-16.169,15.218-.476,12.026-.376,10,16.6,14.473,5.108L482,440.037l-10.35,31.423.456-2.335c4.872,8.994,3.633,10.347-.4,17.1l-.2,2.439c-.474,5.766,3.544,6.759-2.113,7.971-48.579,10.41-53.206,31.229-58.989,23.133-1.288-1.8,4.177-23.319,2.313-23.133C407.606,497.147,412.9,485.082,412.9,485.082Z" transform="translate(-288.677 -91.238)" fill="#8aa1c5"/>
    <circle id="Ellipse_480" data-name="Ellipse 480" cx="25.256" cy="25.256" r="25.256" transform="translate(128.742 241.431)" fill="#a0616a"/>
    <path id="Path_4722" data-name="Path 4722" d="M391.334,529.939l2.586-88.969,16.845,7.37-8.4,81.275a8.394,8.394,0,1,1-11.033.324Z" transform="translate(-290.61 -83.087)" fill="#a0616a"/>
    <path id="Path_4723" data-name="Path 4723" d="M412.8,403.2l-1.959.619a25.819,25.819,0,0,0-18.044,24.621l-3.685,16.872c5.338,9.158,13.229,13.7,24.214,12.633Z" transform="translate(-290.537 -88.992)" fill="#8aa1c5"/>
    <path id="Path_4724" data-name="Path 4724" d="M516.076,430.883A8.387,8.387,0,1,0,500,434.227l-16.517,26.027v-15.61l-18.632,2.014,2.608,27.82a10.5,10.5,0,0,0,19.6,4.181L509.388,439.1a8.389,8.389,0,0,0,6.689-8.214Z" transform="translate(-278.672 -85.974)" fill="#a0616a"/>
    <path id="Path_4725" data-name="Path 4725" d="M463.614,406.814l1.874.592a24.7,24.7,0,0,1,17.261,23.553l3.525,16.141c-5.106,8.761-12.655,13.1-23.164,12.085Z" transform="translate(-278.945 -88.426)" fill="#8aa1c5"/>
    <path id="Path_4726" data-name="Path 4726" d="M409.034,371.68c1.41-5.369,1.941-10.988,3.978-16.151a29.315,29.315,0,0,1,52.644-3.918,19.969,19.969,0,0,1,2.889,12.985c-.8,4.929-4.069,9.615-3.046,14.5.684,3.27,3.154,5.811,5.115,8.516s3.51,6.282,2.1,9.309c-1.535,3.288-5.8,4.26-9.413,3.951s-7.236-1.476-10.805-.821l1.7-6.66L441.5,405.61c.468-4.238-1.5-8.3-2.858-12.345s-1.991-8.912.7-12.22c1.609-1.978,4.088-2.978,6.3-4.244s4.409-3.164,4.634-5.7c.279-3.14-2.535-5.661-5.3-7.179s-5.945-2.791-7.5-5.536l3.34,7.169a21.1,21.1,0,0,1-17.5-11.852l-1.525,1c-12.682,14.222,3.559,35.532-5.962,42.988C420.013,390.231,406.862,379.948,409.034,371.68Z" transform="translate(-287.454 -99.353)" fill="#242424"/>
    <rect id="Rectangle_646" data-name="Rectangle 646" width="377" height="686.939" rx="58.728" transform="matrix(0.961, -0.278, 0.278, 0.961, 154.778, 90.779)" fill="#0b2d61"/>
    <path id="Path_4727" data-name="Path 4727" d="M733.323,141.333l-30.3,8.765,3.028,10.466a18.594,18.594,0,0,1-12.694,23.029L558.009,222.752a18.594,18.594,0,0,1-23.029-12.694l-3.028-10.466-30.3,8.765a61.627,61.627,0,0,0-42.024,76.238l153.15,529.392a61.625,61.625,0,0,0,76.238,42.024l231.665-67.023A61.626,61.626,0,0,0,962.71,712.75L809.559,183.357a61.625,61.625,0,0,0-76.236-42.024Z" transform="translate(-279.869 -130.337)" fill="#fff"/>
    <path id="Path_4728" data-name="Path 4728" d="M470.9,328.6a4.632,4.632,0,0,1-5.73-3.159l-2.572-8.889a4.627,4.627,0,0,1,8.889-2.572l2.572,8.889A4.632,4.632,0,0,1,470.9,328.6Z" transform="translate(-279.054 -103.471)" fill="#0b2d61"/>
    <path id="Path_4729" data-name="Path 4729" d="M482.908,370.116a4.632,4.632,0,0,1-5.73-3.159L470.1,342.49a4.627,4.627,0,0,1,8.889-2.572l7.079,24.468a4.632,4.632,0,0,1-3.159,5.73Z" transform="translate(-277.879 -99.413)" fill="#0b2d61"/>
    <path id="Path_4730" data-name="Path 4730" d="M492.073,401.8a4.632,4.632,0,0,1-5.73-3.159l-7.079-24.468a4.627,4.627,0,1,1,8.889-2.572l7.079,24.468a4.632,4.632,0,0,1-3.159,5.73Z" transform="translate(-276.443 -94.457)" fill="#0b2d61"/>
    <path id="Path_4731" data-name="Path 4731" d="M803.53,298.123a4.632,4.632,0,0,1-5.73-3.159l-17.272-59.7a4.627,4.627,0,1,1,8.889-2.572l17.272,59.7a4.632,4.632,0,0,1-3.159,5.73Z" transform="translate(-229.325 -116.191)" fill="#0b2d61"/>
    <path id="Path_4734" data-name="Path 4734" d="M793.815,289.227,529.062,365.821a16.047,16.047,0,0,1-19.852-10.943l-14.877-51.425A16.047,16.047,0,0,1,505.276,283.6l264.753-76.593a16.047,16.047,0,0,1,19.852,10.943l14.877,51.425A16.047,16.047,0,0,1,793.815,289.227Zm-287.9-3.4a13.732,13.732,0,0,0-9.364,16.987l14.877,51.425a13.732,13.732,0,0,0,16.987,9.364L793.172,287a13.732,13.732,0,0,0,9.364-16.987l-14.877-51.425a13.732,13.732,0,0,0-16.987-9.364Z" transform="translate(-274.192 -119.768)" fill="#0b2d61"/>
    <path id="Path_4735" data-name="Path 4735" d="M640.866,267.894l-44.443,12.858a4.627,4.627,0,1,1-2.572-8.889L638.295,259a4.627,4.627,0,1,1,2.572,8.889Z" transform="translate(-259.028 -111.579)" fill="#e6e6e6"/>
    <path id="Path_4736" data-name="Path 4736" d="M742.683,265.127,601.576,305.949A4.627,4.627,0,0,1,599,297.061l141.108-40.823a4.627,4.627,0,1,1,2.572,8.889Z" transform="translate(-258.23 -112.012)" fill="#e6e6e6"/>
    <path id="Path_4737" data-name="Path 4737" d="M635.729,625.874a1.727,1.727,0,0,1-1.235-.1L612.05,614.958a1.735,1.735,0,0,1-.81-2.316L622.052,590.2a1.735,1.735,0,1,1,3.126,1.506L615.12,612.585,636,622.644a1.735,1.735,0,0,1-.271,3.23Z" transform="translate(-255.809 -59.886)" fill="#0b2d61"/>
    <path id="Path_4738" data-name="Path 4738" d="M644.625,622.822a1.735,1.735,0,0,1-1.921-2.638l12.982-19.2L636.485,588a1.735,1.735,0,1,1,1.944-2.874l20.638,13.954a1.735,1.735,0,0,1,.466,2.409l-13.954,20.638a1.73,1.73,0,0,1-.954.694Z" transform="translate(-251.952 -60.573)" fill="#0b2d61"/>
    <path id="Path_4739" data-name="Path 4739" d="M902.041,663.322,637.288,739.916a16.047,16.047,0,0,1-19.853-10.943L579.093,596.438a16.047,16.047,0,0,1,10.943-19.852L854.79,499.992a16.047,16.047,0,0,1,19.852,10.943L912.984,643.47a16.047,16.047,0,0,1-10.943,19.852ZM590.68,578.808a13.731,13.731,0,0,0-9.364,16.987l38.342,132.533a13.731,13.731,0,0,0,16.987,9.364L901.4,661.1a13.731,13.731,0,0,0,9.364-16.987L872.419,511.579a13.732,13.732,0,0,0-16.987-9.364Z" transform="translate(-260.971 -73.992)" fill="#0b2d61"/>
    <path id="Path_4740" data-name="Path 4740" d="M727.627,571.879l-44.443,12.858a4.627,4.627,0,1,1-2.572-8.889l44.443-12.858a4.627,4.627,0,0,1,2.572,8.889Z" transform="translate(-245.454 -64.017)" fill="#e6e6e6"/>
    <path id="Path_4741" data-name="Path 4741" d="M829.444,569.113,688.337,609.935a4.627,4.627,0,1,1-2.572-8.889l141.108-40.823a4.627,4.627,0,0,1,2.572,8.889Z" transform="translate(-244.66 -64.453)" fill="#e6e6e6"/>
    <rect id="Rectangle_647" data-name="Rectangle 647" width="20.162" height="10.552" rx="2.88" transform="matrix(0.961, -0.278, 0.278, 0.961, 259.929, 316.949)" fill="#e6e6e6"/>
    <rect id="Rectangle_648" data-name="Rectangle 648" width="20.162" height="10.552" rx="2.88" transform="matrix(0.961, -0.278, 0.278, 0.961, 365.497, 286.407)" fill="#0b2d61"/>
    <rect id="Rectangle_649" data-name="Rectangle 649" width="20.162" height="10.552" rx="2.88" transform="matrix(0.961, -0.278, 0.278, 0.961, 395.408, 277.753)" fill="#e6e6e6"/>
    <rect id="Rectangle_650" data-name="Rectangle 650" width="70.283" height="10.552" rx="2.88" transform="matrix(0.961, -0.278, 0.278, 0.961, 288.397, 307.798)" fill="#e6e6e6"/>
    <rect id="Rectangle_651" data-name="Rectangle 651" width="70.283" height="10.552" rx="2.88" transform="matrix(0.961, -0.278, 0.278, 0.961, 429.153, 267.076)" fill="#f2f2f2"/>
    <rect id="Rectangle_652" data-name="Rectangle 652" width="20.162" height="10.552" rx="2.88" transform="matrix(0.961, -0.278, 0.278, 0.961, 266.925, 339.713)" fill="#e6e6e6"/>
    <rect id="Rectangle_653" data-name="Rectangle 653" width="20.162" height="10.552" rx="2.88" transform="matrix(0.961, -0.278, 0.278, 0.961, 372.494, 309.171)" fill="#0b2d61"/>
    <rect id="Rectangle_654" data-name="Rectangle 654" width="20.162" height="10.552" rx="2.88" transform="matrix(0.961, -0.278, 0.278, 0.961, 402.405, 300.517)" fill="#e6e6e6"/>
    <rect id="Rectangle_655" data-name="Rectangle 655" width="70.283" height="10.552" rx="2.88" transform="matrix(0.961, -0.278, 0.278, 0.961, 295.393, 330.562)" fill="#e6e6e6"/>
    <rect id="Rectangle_656" data-name="Rectangle 656" width="70.283" height="10.552" rx="2.88" transform="matrix(0.961, -0.278, 0.278, 0.961, 436.148, 289.839)" fill="#f2f2f2"/>
    <rect id="Rectangle_657" data-name="Rectangle 657" width="20.162" height="10.552" rx="2.88" transform="matrix(0.961, -0.278, 0.278, 0.961, 329.467, 346.406)" fill="#e6e6e6"/>
    <rect id="Rectangle_658" data-name="Rectangle 658" width="20.162" height="10.552" rx="2.88" transform="matrix(0.961, -0.278, 0.278, 0.961, 435.035, 315.864)" fill="#0b2d61"/>
    <rect id="Rectangle_659" data-name="Rectangle 659" width="20.162" height="10.552" rx="2.88" transform="matrix(0.961, -0.278, 0.278, 0.961, 464.946, 307.212)" fill="#e6e6e6"/>
    <rect id="Rectangle_660" data-name="Rectangle 660" width="70.283" height="10.552" rx="2.88" transform="matrix(0.961, -0.278, 0.278, 0.961, 357.933, 337.255)" fill="#e6e6e6"/>
    <rect id="Rectangle_661" data-name="Rectangle 661" width="70.283" height="10.552" rx="2.88" transform="matrix(0.961, -0.278, 0.278, 0.961, 498.69, 296.533)" fill="#f2f2f2"/>
    <rect id="Rectangle_662" data-name="Rectangle 662" width="20.162" height="10.552" rx="2.88" transform="matrix(0.961, -0.278, 0.278, 0.961, 292.591, 429.725)" fill="#0b2d61"/>
    <rect id="Rectangle_663" data-name="Rectangle 663" width="20.162" height="10.552" rx="2.88" transform="matrix(0.961, -0.278, 0.278, 0.961, 322.502, 421.072)" fill="#e6e6e6"/>
    <rect id="Rectangle_664" data-name="Rectangle 664" width="70.283" height="10.552" rx="2.88" transform="matrix(0.961, -0.278, 0.278, 0.961, 356.736, 412.083)" fill="#f2f2f2"/>
    <rect id="Rectangle_665" data-name="Rectangle 665" width="20.162" height="10.552" rx="2.88" transform="matrix(0.961, -0.278, 0.278, 0.961, 363.005, 384.566)" fill="#0b2d61"/>
    <rect id="Rectangle_666" data-name="Rectangle 666" width="20.162" height="10.552" rx="2.88" transform="matrix(0.961, -0.278, 0.278, 0.961, 392.916, 375.913)" fill="#0b2d61"/>
    <rect id="Rectangle_667" data-name="Rectangle 667" width="70.283" height="10.552" rx="2.88" transform="matrix(0.961, -0.278, 0.278, 0.961, 286.394, 407.646)" fill="#e6e6e6"/>
    <rect id="Rectangle_668" data-name="Rectangle 668" width="70.283" height="10.552" rx="2.88" transform="matrix(0.961, -0.278, 0.278, 0.961, 427.149, 366.924)" fill="#f2f2f2"/>
    <rect id="Rectangle_669" data-name="Rectangle 669" width="20.162" height="10.552" rx="2.88" transform="matrix(0.961, -0.278, 0.278, 0.961, 335.627, 367.699)" fill="#e6e6e6"/>
    <rect id="Rectangle_670" data-name="Rectangle 670" width="20.162" height="10.552" rx="2.88" transform="matrix(0.961, -0.278, 0.278, 0.961, 441.195, 337.157)" fill="#0b2d61"/>
    <rect id="Rectangle_671" data-name="Rectangle 671" width="20.162" height="10.552" rx="2.88" transform="matrix(0.961, -0.278, 0.278, 0.961, 471.107, 328.504)" fill="#e6e6e6"/>
    <rect id="Rectangle_672" data-name="Rectangle 672" width="70.283" height="10.552" rx="2.88" transform="matrix(0.961, -0.278, 0.278, 0.961, 364.583, 360.237)" fill="#e6e6e6"/>
    <rect id="Rectangle_673" data-name="Rectangle 673" width="70.283" height="10.552" rx="2.88" transform="matrix(0.961, -0.278, 0.278, 0.961, 505.338, 319.515)" fill="#f2f2f2"/>
    <circle id="Ellipse_481" data-name="Ellipse 481" cx="5.205" cy="5.205" r="5.205" transform="translate(314.845 371.839)" fill="#0b2d61"/>
    <circle id="Ellipse_482" data-name="Ellipse 482" cx="5.205" cy="5.205" r="5.205" transform="translate(308.739 350.732)" fill="#0b2d61"/>
    <path id="Path_4742" data-name="Path 4742" d="M612.8,180.7l-34.444,9.965a2.892,2.892,0,0,1-1.607-5.555l34.444-9.965A2.892,2.892,0,1,1,612.8,180.7Z" transform="translate(-261.507 -124.678)" fill="#fff"/>
    <circle id="Ellipse_483" data-name="Ellipse 483" cx="2.313" cy="2.313" r="2.313" transform="translate(365.945 45.79)" fill="#fff"/>
    <path id="Path_4745" data-name="Path 4745" d="M720.438,659.087a19.754,19.754,0,1,1,13.486-24.465A19.754,19.754,0,0,1,720.438,659.087Z" transform="translate(-242.649 -55.015)" fill="#e6e6e6"/>
    <path id="Path_4746" data-name="Path 4746" d="M720.5,634.675,714.88,636.3l-1.625-5.616a1.949,1.949,0,0,0-3.744,1.083l1.625,5.615-5.615,1.625a1.949,1.949,0,0,0,1.083,3.744l5.615-1.625,1.625,5.615a1.949,1.949,0,1,0,3.744-1.083l-1.625-5.615,5.616-1.625a1.949,1.949,0,1,0-1.083-3.744Z" transform="translate(-241.251 -53.616)" fill="#fff"/>
    <path id="Path_4747" data-name="Path 4747" d="M768.435,645.2a19.754,19.754,0,1,1,13.486-24.465A19.754,19.754,0,0,1,768.435,645.2Z" transform="translate(-235.14 -57.188)" fill="#e6e6e6"/>
    <path id="Path_4748" data-name="Path 4748" d="M768.494,620.068l-5.615,1.625-3.744,1.083-5.615,1.625a1.949,1.949,0,0,0,1.083,3.744l5.615-1.625,3.744-1.083,5.615-1.625a1.949,1.949,0,1,0-1.083-3.744Z" transform="translate(-233.741 -55.068)" fill="#fff"/>
    <path id="Path_4749" data-name="Path 4749" d="M816.434,631.315a19.754,19.754,0,1,1,13.486-24.465,19.754,19.754,0,0,1-13.486,24.465Z" transform="translate(-227.63 -59.36)" fill="#e6e6e6"/>
    <path id="Path_4750" data-name="Path 4750" d="M819.961,607.118l-7.651-6.3a1.661,1.661,0,0,0-2.11,2.565l4.948,4.072-4.271,1.236-3.744,1.083-5.615,1.625a1.949,1.949,0,0,0,1.083,3.744l5.615-1.625,3.744-1.083,4.442-1.285-2.109,6.384a1.661,1.661,0,1,0,3.154,1.042l3.108-9.408a2.191,2.191,0,0,0-.594-2.053Z" transform="translate(-226.231 -58.127)" fill="#fff"/>
    <g id="Group_229" data-name="Group 229" transform="matrix(0.225, -0.974, 0.974, 0.225, 247.825, 211.797)">
      <circle id="Ellipse_28" data-name="Ellipse 28" cx="4.685" cy="4.685" r="4.685" transform="translate(18.602 20.997)" fill="#273a57"/>
      <g id="Group_497" data-name="Group 497" transform="translate(0 0)">
        <path id="Path_756" data-name="Path 756" d="M43.678,11.669c-1.885-2.951-5.937-4.177-11.4-3.474-.193.023-.4.057-.59.079-.079-.181-.159-.363-.25-.545C29.091,2.747,25.879,0,22.383,0s-6.72,2.747-9.058,7.73c-.079.181-.17.363-.25.545-.2-.034-.4-.057-.59-.079-5.471-.715-9.512.522-11.4,3.474s-1.305,7.14,1.623,11.794c.386.613.806,1.226,1.26,1.828-.454.613-.874,1.214-1.26,1.827C-.218,31.772-.8,35.972,1.087,38.912,2.62,41.319,5.594,42.579,9.6,42.579a23.3,23.3,0,0,0,2.872-.193c.193-.023.4-.057.59-.079.08.182.159.363.25.545,2.35,4.983,5.562,7.73,9.058,7.73s6.72-2.747,9.058-7.73c.079-.182.17-.363.25-.545.2.034.4.057.591.079a21.373,21.373,0,0,0,2.872.193c4.007,0,6.981-1.26,8.513-3.667,1.884-2.951,1.305-7.14-1.623-11.794-.386-.613-.806-1.226-1.26-1.827.454-.613.874-1.215,1.26-1.828,2.962-4.665,3.542-8.854,1.646-11.794ZM15.379,8.7c1.918-4.086,4.472-6.425,7-6.425s5.085,2.339,7,6.425a.041.041,0,0,0,.012.023,40.222,40.222,0,0,0-7.027,2.395,39.284,39.284,0,0,0-7.026-2.395c.023,0,.023-.012.034-.023Zm17.231,16.6a49.939,49.939,0,0,1-.3,5.437,48.416,48.416,0,0,1-4.427,3.178,48.3,48.3,0,0,1-5.517,3.054,51.214,51.214,0,0,1-5.516-3.054,49.976,49.976,0,0,1-4.427-3.178,50.2,50.2,0,0,1,0-10.875,50.218,50.218,0,0,1,9.943-6.232,51.14,51.14,0,0,1,5.517,3.053,49.975,49.975,0,0,1,4.427,3.178,49.948,49.948,0,0,1,.3,5.438Zm2.168-3.3a36.752,36.752,0,0,1,3.133,3.3,36.807,36.807,0,0,1-3.133,3.3q.1-1.634.1-3.3T34.778,21.987ZM31.849,33.952a36.272,36.272,0,0,1-1.555,5.778,35.761,35.761,0,0,1-5.176-1.589c1.339-.7,2.679-1.476,4.007-2.315Q30.522,34.922,31.849,33.952Zm-12.2,4.188a33.55,33.55,0,0,1-5.176,1.589,36.271,36.271,0,0,1-1.555-5.778c.874.647,1.782,1.271,2.724,1.861C16.968,36.665,18.308,37.437,19.647,38.14Zm-9.66-9.547a36.869,36.869,0,0,1-3.133-3.3,36.816,36.816,0,0,1,3.133-3.3q-.1,1.635-.1,3.3t.1,3.3ZM12.916,16.63a36.246,36.246,0,0,1,1.555-5.778,35.635,35.635,0,0,1,5.176,1.589c-1.339.7-2.679,1.476-4.007,2.315Q14.243,15.659,12.916,16.63Zm16.2-1.873c-1.317-.84-2.656-1.623-4.007-2.315a33.541,33.541,0,0,1,5.176-1.589,36.34,36.34,0,0,1,1.555,5.778Q30.527,15.659,29.114,14.757ZM4.629,22.249c-2.407-3.814-3-7.231-1.635-9.365,1.09-1.7,3.451-2.622,6.641-2.622a20.583,20.583,0,0,1,2.554.17h.023a40.853,40.853,0,0,0-1.907,8.23,42.334,42.334,0,0,0-4.87,4.779c-.284-.386-.556-.783-.806-1.192Zm7.549,17.89a20.5,20.5,0,0,1-2.554.17c-3.19,0-5.551-.908-6.641-2.622-1.362-2.134-.772-5.551,1.634-9.365.25-.4.522-.806.806-1.2a42.26,42.26,0,0,0,4.87,4.779,40.87,40.87,0,0,0,1.907,8.23c0,.012-.012.012-.023.012Zm17.208,1.748c-1.918,4.086-4.472,6.425-7,6.425s-5.085-2.339-7-6.425a.041.041,0,0,0-.012-.023,40.188,40.188,0,0,0,7.027-2.4,39.25,39.25,0,0,0,7.026,2.4c-.023,0-.023.011-.034.023Zm10.75-13.553c2.407,3.814,3,7.231,1.635,9.365s-4.711,3.031-9.183,2.441h-.023a40.854,40.854,0,0,0,1.907-8.23,42.293,42.293,0,0,0,4.87-4.779C39.614,27.527,39.886,27.924,40.136,28.333Zm-5.676-9.66a40.838,40.838,0,0,0-1.907-8.23h.023c4.472-.579,7.821.306,9.183,2.441s.772,5.551-1.634,9.365c-.25.4-.522.806-.806,1.2a41.25,41.25,0,0,0-4.858-4.779Zm0,0" transform="translate(0 0)" fill="#273a57"/>
        <path id="Path_757" data-name="Path 757" d="M4.535,0A4.535,4.535,0,1,0,9.071,4.535,4.535,4.535,0,0,0,4.535,0Zm0,6.78A2.245,2.245,0,1,1,6.78,4.535,2.245,2.245,0,0,1,4.535,6.78Zm0,0" transform="translate(17.847 20.755)" fill="#273a57"/>
      </g>
    </g>
  </g>
</svg>
