<svg xmlns="http://www.w3.org/2000/svg" width="611.046" height="336.034" viewBox="0 0 611.046 336.034">
  <g id="shopify-development" transform="translate(0.038)">
    <rect id="Rectangle_444" data-name="Rectangle 444" width="247.471" height="50.918" transform="translate(261.829 52.993)" fill="none" stroke="#273a57" stroke-miterlimit="10" stroke-width="1"/>
    <path id="Path_3694" data-name="Path 3694" d="M250.224,356.967c7.057-11.027,20.418-18.467,35.739-18.467,22.678,0,41.063,16.3,41.063,36.409,0,12.856-7.515,24.156-18.863,30.635" transform="translate(-136.426 -231.565)" fill="none" stroke="#ccc" stroke-miterlimit="10" stroke-width="1"/>
    <rect id="Rectangle_445" data-name="Rectangle 445" width="247.471" height="50.918" transform="translate(244.276 62.862)" fill="#fff"/>
    <circle id="Ellipse_319" data-name="Ellipse 319" cx="3.833" cy="3.833" r="3.833" transform="translate(83.54 6.523)" fill="#fff"/>
    <circle id="Ellipse_320" data-name="Ellipse 320" cx="3.833" cy="3.833" r="3.833" transform="translate(96.68 6.523)" fill="#fff"/>
    <circle id="Ellipse_321" data-name="Ellipse 321" cx="3.833" cy="3.833" r="3.833" transform="translate(109.82 6.523)" fill="#fff"/>
    <path id="Path_3776" data-name="Path 3776" d="M0,0H460.593V299.316H0Z" transform="translate(76.97 0.5)" fill="none" stroke="#273a57" stroke-width="1"/>
    <path id="Path_3775" data-name="Path 3775" d="M0,0H460.593" transform="translate(76.97 17.109)" fill="none" stroke="#273a57" stroke-width="1"/>
    <circle id="Ellipse_322" data-name="Ellipse 322" cx="3.833" cy="3.833" r="3.833" transform="translate(84.635 4.88)" fill="none" stroke="#273a57" stroke-miterlimit="10" stroke-width="1"/>
    <circle id="Ellipse_323" data-name="Ellipse 323" cx="3.833" cy="3.833" r="3.833" transform="translate(97.775 4.88)" fill="none" stroke="#273a57" stroke-miterlimit="10" stroke-width="1"/>
    <circle id="Ellipse_324" data-name="Ellipse 324" cx="3.833" cy="3.833" r="3.833" transform="translate(110.915 4.88)" fill="none" stroke="#273a57" stroke-miterlimit="10" stroke-width="1"/>
    <path id="Path_3695" data-name="Path 3695" d="M61.528,329.694a11.837,11.837,0,1,0-14.585-17.467l4.433,4.189-5.7-1.77a11.792,11.792,0,0,0,.234,9.017,11.607,11.607,0,0,0,1.726,2.781A11.834,11.834,0,0,0,61.528,329.694Z" transform="translate(-43.664 -217.368)" fill="#273a57"/>
    <path id="Path_3696" data-name="Path 3696" d="M130.418,355.469c-4.322-3.033-4.323-9.4-3.249-14.57s2.713-10.81.275-15.494c-3.5-6.732-12.71-7.137-20.264-7.856a71.26,71.26,0,0,1-16.451-3.566,19.225,19.225,0,0,1-6.02-3.024c-2.517-2.058-3.994-5.093-5.372-8.038q-6.889-14.713-13.079-29.741" transform="translate(-53.329 -202.053)" fill="none" stroke="#8aa1c5" stroke-miterlimit="10" stroke-width="1"/>
    <path id="Path_3697" data-name="Path 3697" d="M60.186,327.01A11.837,11.837,0,1,0,45.6,309.543l4.433,4.189-5.7-1.77a11.792,11.792,0,0,0,.234,9.017,11.606,11.606,0,0,0,1.726,2.781,11.834,11.834,0,0,0,13.886,3.249Z" transform="translate(-43.056 -216.155)" fill="none" stroke="#8aa1c5" stroke-miterlimit="10" stroke-width="1"/>
    <path id="Path_3698" data-name="Path 3698" d="M46.742,272.041a11.823,11.823,0,0,1,.947-11.315l4.714,3.5-2.909-5.639a11.835,11.835,0,1,1-2.752,13.451Z" transform="translate(-44.039 -194.045)" fill="#273a57"/>
    <path id="Path_3699" data-name="Path 3699" d="M44.953,268.464a11.823,11.823,0,0,1,.947-11.315l4.714,3.5L47.7,255.013a11.835,11.835,0,1,1-2.752,13.451Z" transform="translate(-43.229 -192.429)" fill="none" stroke="#8aa1c5" stroke-miterlimit="10" stroke-width="1"/>
    <path id="Path_3700" data-name="Path 3700" d="M124.666,338.276a11.835,11.835,0,0,0-7.026-22.443l2.236,4.333-4.769-3.545-.03.013a11.836,11.836,0,1,0,9.589,21.643Z" transform="translate(-72.232 -221.248)" fill="#273a57"/>
    <path id="Path_3701" data-name="Path 3701" d="M122.728,334.773A11.835,11.835,0,0,0,115.7,312.33l2.236,4.333-4.769-3.545-.03.013a11.836,11.836,0,1,0,9.589,21.643Z" transform="translate(-71.355 -219.665)" fill="none" stroke="#8aa1c5" stroke-miterlimit="10" stroke-width="1"/>
    <path id="Path_3702" data-name="Path 3702" d="M143.04,380.819a11.83,11.83,0,1,0-4.774-8.266l9.3,2.073-8.116,1.952A11.725,11.725,0,0,0,143.04,380.819Z" transform="translate(-85.88 -241.048)" fill="#273a57"/>
    <path id="Path_3703" data-name="Path 3703" d="M141.7,378.135a11.83,11.83,0,1,0-4.774-8.266l9.3,2.073-8.116,1.952A11.725,11.725,0,0,0,141.7,378.135Z" transform="translate(-85.273 -239.835)" fill="none" stroke="#8aa1c5" stroke-miterlimit="10" stroke-width="1"/>
    <path id="Path_3704" data-name="Path 3704" d="M1079.615,584.535a11.395,11.395,0,1,0,4.565-21.425l-.54,5.847-2.043-5.366a11.352,11.352,0,0,0-6.691,5.535,11.174,11.174,0,0,0-1.081,2.96A11.393,11.393,0,0,0,1079.615,584.535Z" transform="translate(-508.445 -333.06)" fill="#273a57"/>
    <path id="Path_3705" data-name="Path 3705" d="M1092.021,648.223c-.271-5.076,4.552-8.859,9.106-11.118s9.8-4.368,11.9-9c3.018-6.653-2.146-13.868-6.089-20.017a68.608,68.608,0,0,1-7.073-14.58,18.5,18.5,0,0,1-1.286-6.357c.063-3.129,1.485-6.051,2.9-8.845q7.052-13.96,14.757-27.577" transform="translate(-516.789 -327.371)" fill="none" stroke="#8aa1c5" stroke-miterlimit="10" stroke-width="1"/>
    <path id="Path_3706" data-name="Path 3706" d="M1080.855,581.925a11.395,11.395,0,1,0,4.566-21.425l-.54,5.847-2.043-5.366a11.353,11.353,0,0,0-6.691,5.535,11.169,11.169,0,0,0-1.081,2.96,11.393,11.393,0,0,0,5.789,12.449Z" transform="translate(-509.006 -331.881)" fill="none" stroke="#8aa1c5" stroke-miterlimit="10" stroke-width="1"/>
    <path id="Path_3707" data-name="Path 3707" d="M1114.508,539.111a11.381,11.381,0,0,1,9.133-6l.148,5.652,2.543-5.554a11.394,11.394,0,1,1-11.824,5.907Z" transform="translate(-526.365 -319.516)" fill="#273a57"/>
    <path id="Path_3708" data-name="Path 3708" d="M1116.158,535.63a11.381,11.381,0,0,1,9.133-6l.147,5.652,2.543-5.554a11.394,11.394,0,1,1-11.824,5.907Z" transform="translate(-527.112 -317.943)" fill="none" stroke="#8aa1c5" stroke-miterlimit="10" stroke-width="1"/>
    <path id="Path_3709" data-name="Path 3709" d="M1110.632,637.455a11.394,11.394,0,0,0,12.826-18.656l-1.954,4.268-.148-5.719-.027-.015a11.394,11.394,0,1,0-10.7,20.122Z" transform="translate(-522.478 -356.969)" fill="#273a57"/>
    <path id="Path_3710" data-name="Path 3710" d="M1112.132,633.906a11.394,11.394,0,0,0,12.826-18.656L1123,619.518l-.148-5.719-.027-.015a11.394,11.394,0,1,0-10.7,20.122Z" transform="translate(-523.157 -355.366)" fill="none" stroke="#8aa1c5" stroke-miterlimit="10" stroke-width="1"/>
    <path id="Path_3711" data-name="Path 3711" d="M1089.324,676.648a11.389,11.389,0,1,0,3.425-8.527l3.956,8.277-6.3-4.988A11.287,11.287,0,0,0,1089.324,676.648Z" transform="translate(-515.57 -379.022)" fill="#273a57"/>
    <path id="Path_3712" data-name="Path 3712" d="M1090.564,674.037a11.389,11.389,0,1,0,3.425-8.527l3.956,8.277-6.3-4.988a11.289,11.289,0,0,0-1.081,5.238Z" transform="translate(-516.131 -377.841)" fill="none" stroke="#8aa1c5" stroke-miterlimit="10" stroke-width="1"/>
    <path id="Path_3713" data-name="Path 3713" d="M144.528,243.694a11.837,11.837,0,1,0-14.585-17.467l4.433,4.189-5.7-1.77a11.792,11.792,0,0,0,.234,9.017,11.607,11.607,0,0,0,1.726,2.781A11.834,11.834,0,0,0,144.528,243.694Z" transform="translate(-81.221 -178.562)" fill="#273a57"/>
    <path id="Path_3714" data-name="Path 3714" d="M167.709,224.959c-2.517-2.058-3.994-5.093-5.372-8.038q-6.889-14.713-13.079-29.741" transform="translate(-90.886 -163.244)" fill="none" stroke="#8aa1c5" stroke-miterlimit="10" stroke-width="1"/>
    <path id="Path_3715" data-name="Path 3715" d="M143.187,241.01A11.837,11.837,0,1,0,128.6,223.543l4.433,4.189-5.7-1.77a11.792,11.792,0,0,0,.234,9.017,11.607,11.607,0,0,0,1.726,2.781A11.834,11.834,0,0,0,143.187,241.01Z" transform="translate(-80.614 -177.347)" fill="none" stroke="#8aa1c5" stroke-miterlimit="10" stroke-width="1"/>
    <path id="Path_3716" data-name="Path 3716" d="M129.742,186.041a11.823,11.823,0,0,1,.947-11.315l4.714,3.5-2.909-5.639a11.835,11.835,0,1,1-2.752,13.451Z" transform="translate(-81.596 -155.204)" fill="#273a57"/>
    <path id="Path_3717" data-name="Path 3717" d="M127.953,182.464a11.823,11.823,0,0,1,.947-11.315l4.714,3.5-2.91-5.639a11.835,11.835,0,1,1-2.752,13.451Z" transform="translate(-80.787 -153.586)" fill="none" stroke="#8aa1c5" stroke-miterlimit="10" stroke-width="1"/>
    <path id="Path_3777" data-name="Path 3777" d="M0,0V283.132" transform="translate(221.612 17.109)" fill="none" stroke="#273a57" stroke-width="1"/>
    <rect id="Rectangle_447" data-name="Rectangle 447" width="80.483" height="10.95" transform="translate(273.459 156.31)" fill="#273a57" opacity="0.5"/>
    <rect id="Rectangle_448" data-name="Rectangle 448" width="80.483" height="10.95" transform="translate(400.097 156.31)" fill="#273a57" opacity="0.5"/>
    <rect id="Rectangle_449" data-name="Rectangle 449" width="80.483" height="10.95" transform="translate(277.844 150.829)" fill="none" stroke="#273a57" stroke-miterlimit="10" stroke-width="1"/>
    <rect id="Rectangle_450" data-name="Rectangle 450" width="80.483" height="10.95" transform="translate(273.459 241.272)" fill="#273a57" opacity="0.5"/>
    <rect id="Rectangle_451" data-name="Rectangle 451" width="80.483" height="10.95" transform="translate(277.844 235.791)" fill="none" stroke="#273a57" stroke-miterlimit="10" stroke-width="1"/>
    <rect id="Rectangle_452" data-name="Rectangle 452" width="206.956" height="10.95" transform="translate(273.845 197.695)" fill="#273a57" opacity="0.5"/>
    <rect id="Rectangle_453" data-name="Rectangle 453" width="206.956" height="10.95" transform="translate(278.232 193.31)" fill="none" stroke="#273a57" stroke-miterlimit="10" stroke-width="1"/>
    <rect id="Rectangle_454" data-name="Rectangle 454" width="80.483" height="10.95" transform="translate(404.483 150.829)" fill="none" stroke="#273a57" stroke-miterlimit="10" stroke-width="1"/>
    <path id="Path_3718" data-name="Path 3718" d="M974.035,355.535a11.234,11.234,0,0,0,.658,1.721,29,29,0,0,1,.358,21.827,42.31,42.31,0,0,1,5.889.347,12.462,12.462,0,0,0,5.819-.641,5.907,5.907,0,0,0,3.679-4.444c.359-2.741-1.636-5.132-3.388-7.213-1.785-2.12-3.509-4.458-4.037-7.223-.581-3.039.246-6.6-1.674-8.971a1.856,1.856,0,0,0-.638-.544,7.33,7.33,0,0,0-4.755.128A4.853,4.853,0,0,0,974.035,355.535Z" transform="translate(-463.357 -236.806)" fill="#171717"/>
    <path id="Path_3719" data-name="Path 3719" d="M1060.467,707.3a13.813,13.813,0,0,1-.645,2.687s-1.989,4.578-10.171,3.344c-5.345-.807-5.309-3.312-4.423-5.252a12.517,12.517,0,0,1,1.459-2.271c.8-1.075.716-5.175,1-8.915s1.968-3.933,1.968-3.933l.1,4.21c3.186-4.179,5.414.716,5.414.716s4.53.094,3.976-2.228c-.59-2.474-1.471-6.391-1.471-6.391s2.192,1.017,2.589,1.734-.079,10.31-.437,11.224a6.532,6.532,0,0,0,.518,4.1A1.563,1.563,0,0,1,1060.467,707.3Z" transform="translate(-495.418 -390.058)" fill="#0b2d61"/>
    <path id="Path_3720" data-name="Path 3720" d="M1062.667,690.482a4.461,4.461,0,0,1-3.119,4.251,6.008,6.008,0,0,1-5.247-.8,3.079,3.079,0,0,1-1.3-2.887l.126-1.058.458-3.857.63-5.314s6.78-3.453,6.328-2.149c-.169.487.205,2.68.743,5.235.382,1.827.845,3.838,1.254,5.543a4.4,4.4,0,0,1,.122,1.037Z" transform="translate(-499.129 -385.129)" fill="#fbbebe"/>
    <path id="Path_3721" data-name="Path 3721" d="M1052.26,697.571s5.871-6.9,10.677.627l-.806,4.819h-9.871Z" transform="translate(-498.802 -392.509)" opacity="0.1"/>
    <path id="Path_3722" data-name="Path 3722" d="M1052.26,698.444s5.871-6.9,10.677.627l-.806,4.819h-9.871Z" transform="translate(-498.802 -392.904)" fill="#0b2d61"/>
    <circle id="Ellipse_325" data-name="Ellipse 325" cx="0.597" cy="0.597" r="0.597" transform="translate(560.491 308.598)" fill="#f2f2f2"/>
    <circle id="Ellipse_326" data-name="Ellipse 326" cx="0.597" cy="0.597" r="0.597" transform="translate(552.859 307.641)" fill="#f2f2f2"/>
    <circle id="Ellipse_327" data-name="Ellipse 327" cx="0.597" cy="0.597" r="0.597" transform="translate(558.433 312.644)" fill="#f2f2f2"/>
    <circle id="Ellipse_328" data-name="Ellipse 328" cx="0.597" cy="0.597" r="0.597" transform="translate(553.221 311.943)" fill="#f2f2f2"/>
    <circle id="Ellipse_329" data-name="Ellipse 329" cx="0.597" cy="0.597" r="0.597" transform="translate(559.588 310.749)" fill="#f2f2f2"/>
    <circle id="Ellipse_330" data-name="Ellipse 330" cx="0.597" cy="0.597" r="0.597" transform="translate(552.859 309.792)" fill="#f2f2f2"/>
    <circle id="Ellipse_331" data-name="Ellipse 331" cx="0.597" cy="0.597" r="0.597" transform="translate(557.836 314.865)" fill="#f2f2f2"/>
    <circle id="Ellipse_332" data-name="Ellipse 332" cx="0.597" cy="0.597" r="0.597" transform="translate(553.221 314.094)" fill="#f2f2f2"/>
    <path id="Path_3723" data-name="Path 3723" d="M970.982,723.27l-8.12,2.746s-4.3-4.3-3.1-5.612c.509-.561.953-2.424,1.292-4.377.11-.616.208-1.244.294-1.841.282-1.942.444-3.573.444-3.573s9.433-4.537,7.881,0a11.177,11.177,0,0,0-.447,3.969,26.341,26.341,0,0,0,.5,3.974A37.856,37.856,0,0,0,970.982,723.27Z" transform="translate(-456.85 -398.805)" fill="#fbbebe"/>
    <path id="Path_3724" data-name="Path 3724" d="M970.982,729.412l-8.12,2.746s-4.3-4.3-3.1-5.612c.509-.561.953-2.424,1.292-4.377a8.489,8.489,0,0,1,.948,2.646c7.014,3.852,7.133,1.552,7.133,1.552a4.265,4.265,0,0,1,.595-1.669,37.844,37.844,0,0,0,1.256,4.714Z" transform="translate(-456.85 -404.946)" opacity="0.1"/>
    <path id="Path_3725" data-name="Path 3725" d="M961.022,735.311s-1.4,1.044-5.521,1.194a21.715,21.715,0,0,0-3.212.362,40.124,40.124,0,0,1-13.172.356,28.581,28.581,0,0,1-3.35-.658c-4.239-1.165-1.015-3.85-1.015-3.85s.2-.177.554-.442a11.573,11.573,0,0,1,4.671-2.216c2.656-.418,5.1-5.134,5.1-5.134l1.672-3.016c2.6-2.238,3.494,3.016,3.494,3.016,7.014,3.852,7.133,1.552,7.133,1.552.389-2.061,1.106-2.061,1.106-2.061s1.748,4.707,2.381,5.882a1.161,1.161,0,0,0,.155.239C961.439,730.952,961.022,735.311,961.022,735.311Z" transform="translate(-445.211 -404.576)" fill="#0b2d61"/>
    <circle id="Ellipse_333" data-name="Ellipse 333" cx="0.597" cy="0.597" r="0.597" transform="translate(504.52 321.719)" fill="#f2f2f2"/>
    <circle id="Ellipse_334" data-name="Ellipse 334" cx="0.597" cy="0.597" r="0.597" transform="translate(501.101 323.391)" fill="#f2f2f2"/>
    <circle id="Ellipse_335" data-name="Ellipse 335" cx="0.597" cy="0.597" r="0.597" transform="translate(502.939 322.535)" fill="#f2f2f2"/>
    <circle id="Ellipse_336" data-name="Ellipse 336" cx="0.597" cy="0.597" r="0.597" transform="translate(499.177 324.376)" fill="#f2f2f2"/>
    <path id="Path_3726" data-name="Path 3726" d="M971.153,710.613a11.176,11.176,0,0,0-.447,3.969c-2.118-.712-5.588-.588-7.878-.4.282-1.942.444-3.573.444-3.573S972.7,706.076,971.153,710.613Z" transform="translate(-458.334 -398.804)" opacity="0.1"/>
    <path id="Path_3727" data-name="Path 3727" d="M1061.785,683.9c-2.935,2.878-5.741,3.057-7.7,2.228l.63-5.314s6.78-3.453,6.328-2.149C1060.876,679.155,1061.248,681.347,1061.785,683.9Z" transform="translate(-499.626 -385.129)" opacity="0.1"/>
    <path id="Path_3728" data-name="Path 3728" d="M963.99,509.451s-4.657,2.627-5.493,7.762-2.269,11.7-3.343,12.9-4.418,5.015-3.1,7.045,1.552,8.956,1.552,8.956-.478,6.209.836,8.239,2.388,14.926-.478,18.747c0,0-.955,8.836-.6,9.672s-1.552,2.985-.955,4.776,3.463,34.748,3.1,36.061c0,0,9.075-1.313,11.463.836a23.518,23.518,0,0,0,0-6.09c-.478-2.507.358-12.418,1.433-14.926s1.313-12.06.955-13.015c0,0,1.911-8.478,1.194-10.15s3.1-17.075,3.1-17.075,1.911-3.7,1.433-4.179c0,0,3.1-2.03,2.746-3.582s2.866-3.343,2.866-3.343,2.866,7.045,3.821,8.12.993,8,2.168,9.433,2.728,8.956,4.28,10.985,7.761,7.4,8.717,13.493c0,0,5.612,8.717,5.373,11.463s6.329,7.762,12.657-1.552a8.275,8.275,0,0,1-3.343-6.806c0-4.657-5.015-19.583-5.015-19.583s-2.866-4.179-1.791-6.209.119-8,.119-8l2.269-3.7s.358-3.582.716-7.284-2.149-7.762-.955-9.553-.478-10.74-.478-10.74-1.486-15.426-3.7-16.365S963.99,509.451,963.99,509.451Z" transform="translate(-453.32 -308.692)" fill="#0b2d61"/>
    <path id="Path_3729" data-name="Path 3729" d="M980.528,439.185s-2.453.279-5.431.561c-4.308.406-9.717.817-10.362.394-1.089-.716,0-9.791,0-9.791s.375-9.911.017-16.836c-.291-5.619,3.429-9.746,4.841-11.1.33-.315.533-.48.533-.48l1.194.955,6.806,11.582Z" transform="translate(-458.978 -260.238)" fill="#fbbebe"/>
    <path id="Path_3730" data-name="Path 3730" d="M1020.594,384.241l-6.687,4.06-10.985,8.359s-11.344-5.97-8.478-9.433a5.369,5.369,0,0,0,1.048-2.343c.862-3.988-1.048-9.717-1.048-9.717s14.945-20.182,14.09-4.537c-.344,6.286,1.536,9.717,3.907,11.575A11.609,11.609,0,0,0,1020.594,384.241Z" transform="translate(-472.43 -243.413)" fill="#fbbebe"/>
    <path id="Path_3731" data-name="Path 3731" d="M1020.594,384.241l-6.687,4.06-10.985,8.359s-11.344-5.97-8.478-9.433a5.369,5.369,0,0,0,1.048-2.343c.862-3.988-1.048-9.717-1.048-9.717s14.945-20.182,14.09-4.537c-.344,6.286,1.536,9.717,3.907,11.575A11.609,11.609,0,0,0,1020.594,384.241Z" transform="translate(-472.43 -243.413)" opacity="0.1"/>
    <ellipse id="Ellipse_337" data-name="Ellipse 337" cx="13.829" cy="14.651" rx="13.829" ry="14.651" transform="translate(513.819 108.212)" opacity="0.1"/>
    <ellipse id="Ellipse_338" data-name="Ellipse 338" cx="13.829" cy="14.651" rx="13.829" ry="14.651" transform="translate(513.819 107.734)" fill="#fbbebe"/>
    <path id="Path_3732" data-name="Path 3732" d="M1020.594,398.72l-6.687,4.06-10.985,8.359s-11.344-5.97-8.478-9.433a5.369,5.369,0,0,0,1.048-2.343c12.514,10.7,16.316-.375,16.949-2.68A11.609,11.609,0,0,0,1020.594,398.72Z" transform="translate(-472.43 -257.88)" fill="#01183a" opacity="0.1"/>
    <path id="Path_3733" data-name="Path 3733" d="M984.66,439.185s-2.453.279-5.431.561c-.117-2.57-.506-5.476-.435-7.248.119-2.985.119-3.343-.836-5.015s-.836-2.985-.716-5.134c.115-2.059-.43-2.474-2.367-5.763l-.26-.447c-.951-1.638-1.223-4.6-1.232-7.4a.07.07,0,0,0,0-.031c0-.666.009-1.323.033-1.949,0-.026,0-.053,0-.079.069-1.891.224-3.5.306-4.27.33-.315.533-.48.533-.48l1.194.955,6.806,11.582Z" transform="translate(-463.11 -260.238)" opacity="0.1"/>
    <path id="Path_3734" data-name="Path 3734" d="M1017.621,400.07c-.009,0,1.442,1.093,1.433,1.09-4.323-1.865-6.775,7.53-7.432,10.486-.122.544-.182.869-.182.869s.076.793.172,2.054c.322,4.222.876,13.677-.411,15.977a3.565,3.565,0,0,0-.308.767,16.151,16.151,0,0,0-.148,5.536,55.487,55.487,0,0,0,1.053,6.235s2.866,7.284,1.672,12.06a17.71,17.71,0,0,0-.349,5.416,32.03,32.03,0,0,0,.757,4.941c.112.475.189.747.189.747q-2.7.924-5.28,1.533a51.219,51.219,0,0,1-10.212,1.383,45.337,45.337,0,0,1-29.436-9.333c-.2-.167-.351-.3-.447-.389-1.672-1.552,1.552-2.746,1.194-3.821s1.634-3.463,1.634-3.463-.439-3.94,1.352-4.776,3.1-3.7,4.115-6.09-.174-8.6-.055-11.582.119-3.343-.836-5.015-.836-2.985-.716-5.135c.115-2.059-.43-2.474-2.367-5.763l-.26-.447c-.951-1.638.531-4.46.521-7.259,0-.01.55.01.547,0,0-.666-1.119-1.564-1.095-2.19,0-.026-.547-.521-.547-.547a17.736,17.736,0,0,0-.262-4.213c9.553-4.9,11.821.205,11.821.205,13.971,12.024,17.142-3,17.142-3,7.6-2.6,17.605,4.4,18.176,4.807Z" transform="translate(-460.769 -257.43)" fill="#01183a"/>
    <path id="Path_3735" data-name="Path 3735" d="M964.673,466.919s-1.2,6.377,2.261,9.935a3.887,3.887,0,0,0,4.5.773,6.091,6.091,0,0,0,2.914-2.477C975.294,473.032,972.315,462.68,964.673,466.919Z" transform="translate(-459.078 -289.161)" fill="#fbbebe"/>
    <path id="Path_3736" data-name="Path 3736" d="M1046.475,446.085a3.564,3.564,0,0,0-.308.767l.547-13.961.172-2.782C1047.209,434.33,1047.762,443.785,1046.475,446.085Z" transform="translate(-496.045 -272.982)" opacity="0.1"/>
    <path id="Path_3737" data-name="Path 3737" d="M1035.105,489.1a17.72,17.72,0,0,0-.349,5.416c-.774,1.4-1.435,2.591-1.865,3.365l-.533.95a22.549,22.549,0,0,0-1.937,2.906,5.619,5.619,0,0,0-.809,2.362c0,1.836-1.851,14.076-10.627,11.031-5.667-1.965-2.049-7.988,1.225-12.01a44.978,44.978,0,0,1,3.492-3.811s1.013-1.29,1.984-2.639a16.028,16.028,0,0,0,1.717-2.734c.418-1.194,3.174-6.448,3.174-6.448s2.737-5.791,2.14-8.478a51.677,51.677,0,0,1-.337-8.206,55.46,55.46,0,0,0,1.053,6.235S1036.3,484.32,1035.105,489.1Z" transform="translate(-482.403 -291.348)" opacity="0.1"/>
    <path id="Path_3738" data-name="Path 3738" d="M1040.517,405.531s4.3,2.985,4.179,10.747-1.552,21.195-1.552,21.195l-.9,8.359s-1.135,3.4-.955,4.418-9.377,18.031-9.377,18.031-2.746,3.434-2.746,5.269-1.851,14.075-10.627,11.03,4.716-15.821,4.716-15.821,3.284-4.179,3.7-5.373,3.176-6.448,3.176-6.448,2.736-5.791,2.139-8.478-.239-12.441-.239-12.441l.6-15.262.239-3.881S1035.08,403.979,1040.517,405.531Z" transform="translate(-482.202 -261.776)" fill="#fbbebe"/>
    <path id="Path_3739" data-name="Path 3739" d="M977.007,455.565l6.516-2.367a3.084,3.084,0,0,1,3.171.657l8.647,8.167s.478,1.311-.159,1.253-9.951-9.372-9.951-9.372l-9.234,3.1h0a1.534,1.534,0,0,1,1.01-1.442Z" transform="translate(-464.293 -283.335)" fill="#0b2d61"/>
    <path id="Path_3740" data-name="Path 3740" d="M943.17,323.379l8.956-3.245-9.95-9.372-9.234,3.1Z" transform="translate(-421.237 -140.193)" fill="#4b4b5b"/>
    <circle id="Ellipse_339" data-name="Ellipse 339" cx="0.796" cy="0.796" r="0.796" transform="translate(507.684 208.458)" fill="#f2f2f2"/>
    <circle id="Ellipse_340" data-name="Ellipse 340" cx="0.796" cy="0.796" r="0.796" transform="translate(502.271 218.698)" fill="#f2f2f2"/>
    <circle id="Ellipse_341" data-name="Ellipse 341" cx="0.796" cy="0.796" r="0.796" transform="translate(545.513 222.421)" fill="#f2f2f2"/>
    <circle id="Ellipse_342" data-name="Ellipse 342" cx="0.796" cy="0.796" r="0.796" transform="translate(550.016 236.888)" fill="#f2f2f2"/>
    <circle id="Ellipse_343" data-name="Ellipse 343" cx="0.796" cy="0.796" r="0.796" transform="translate(548.264 232.816)" fill="#f2f2f2"/>
    <circle id="Ellipse_344" data-name="Ellipse 344" cx="0.796" cy="0.796" r="0.796" transform="translate(546.74 227.618)" fill="#f2f2f2"/>
    <circle id="Ellipse_345" data-name="Ellipse 345" cx="0.796" cy="0.796" r="0.796" transform="translate(504.798 213.306)" fill="#f2f2f2"/>
    <circle id="Ellipse_346" data-name="Ellipse 346" cx="0.796" cy="0.796" r="0.796" transform="translate(499.113 224.015)" fill="#f2f2f2"/>
    <path id="Path_3741" data-name="Path 3741" d="M1021.792,401.153l0,.007c-4.323-1.865-6.775,7.53-7.432,10.486l-6.789-9.717s-2.785,4.456-11.781,5.134-11.184-6.847-11.184-6.847c-1.235-.1-6.825,9.968-8.855,13.581l-.26-.447c-.95-1.638-1.223-4.6-1.232-7.4a.068.068,0,0,0,0-.031c.007-.65.019-1.3.033-1.949,0-.026,0-.053,0-.079.1-2.651.361-4.75.361-4.75,9.553-4.9,11.821.205,11.821.205,13.971,12.024,17.142-3,17.142-3C1011.22,393.748,1021.223,400.748,1021.792,401.153Z" transform="translate(-463.505 -257.465)" fill="#01183a"/>
    <path id="Path_3742" data-name="Path 3742" d="M964.293,565.065c.119.3,10.15,11.881,13.851,12.478S964.293,565.065,964.293,565.065Z" transform="translate(-458.997 -333.965)" opacity="0.1"/>
    <path id="Path_3743" data-name="Path 3743" d="M974.834,532.617s.1,8.166-2.406,10.011S974.834,532.617,974.834,532.617Z" transform="translate(-462.355 -319.305)" opacity="0.1"/>
    <path id="Path_3744" data-name="Path 3744" d="M985.148,537.913s-.239,9.612,3.343,11.881C988.492,549.794,981.924,543.406,985.148,537.913Z" transform="translate(-468.031 -321.697)" opacity="0.1"/>
    <path id="Path_3745" data-name="Path 3745" d="M970.576,628.095s-6.687,4.955-8.538,5.314S970.576,628.095,970.576,628.095Z" transform="translate(-457.877 -362.452)" opacity="0.1"/>
    <path id="Path_3746" data-name="Path 3746" d="M974.061,337.682c-1.441,1.214-.922,3.734.55,4.91s3.484,1.356,5.368,1.4c3.625.093,7.309-.117,10.824.775a8.774,8.774,0,0,1,4.152,2.127,9.344,9.344,0,0,1,2.158,4.293,23.511,23.511,0,0,1,.738,7.2,24.957,24.957,0,0,0-.107,4.88,15.6,15.6,0,0,0,1.523,4.341,180.367,180.367,0,0,0,9.224,17.112,3.184,3.184,0,0,0,1.2,1.315,3.251,3.251,0,0,0,2.737-.424,20.554,20.554,0,0,1-.845-5.185,2.318,2.318,0,0,0,2.45-.856,6.8,6.8,0,0,0,1.116-2.509l1.607-5.536c.5-1.712,1.234-3.677,2.943-4.181a10.66,10.66,0,0,0,1.806-.421,2.311,2.311,0,0,0,1.115-2.277,4.918,4.918,0,0,0-1.078-2.431c-2.417-3.252-6.448-5.181-8.335-8.767-1.62-3.08-1.339-6.786-.8-10.224s1.278-6.974.456-10.355a13.72,13.72,0,0,0-5.325-7.628,21.478,21.478,0,0,0-8.709-3.581,8.7,8.7,0,0,0-4.4.03c-1.086.367-2.016,1.091-3.075,1.528-2.408.991-5.183.4-7.709,1.03a10.366,10.366,0,0,0-5.7,4.12,21.868,21.868,0,0,0-2.986,6.494c-.465,1.518.281,2.126-1.075,2.951" transform="translate(-463.031 -223.838)" opacity="0.1"/>
    <path id="Path_3747" data-name="Path 3747" d="M974.5,336.81c-1.441,1.214-.922,3.734.55,4.91s3.484,1.356,5.368,1.4c3.625.094,7.309-.117,10.824.775a8.775,8.775,0,0,1,4.152,2.127,9.343,9.343,0,0,1,2.158,4.293,23.507,23.507,0,0,1,.738,7.2,24.956,24.956,0,0,0-.107,4.88,15.6,15.6,0,0,0,1.523,4.341,180.369,180.369,0,0,0,9.224,17.112,3.184,3.184,0,0,0,1.2,1.315,3.251,3.251,0,0,0,2.737-.424,20.553,20.553,0,0,1-.845-5.185,2.318,2.318,0,0,0,2.45-.856,6.8,6.8,0,0,0,1.116-2.509l1.607-5.536c.5-1.712,1.234-3.677,2.943-4.181a10.662,10.662,0,0,0,1.806-.421,2.312,2.312,0,0,0,1.115-2.277,4.92,4.92,0,0,0-1.078-2.431c-2.417-3.252-6.448-5.181-8.335-8.767-1.62-3.08-1.339-6.786-.8-10.224s1.278-6.974.456-10.355a13.72,13.72,0,0,0-5.325-7.628,21.48,21.48,0,0,0-8.709-3.581,8.7,8.7,0,0,0-4.4.03c-1.086.367-2.016,1.091-3.075,1.528-2.408.991-5.183.4-7.709,1.03a10.366,10.366,0,0,0-5.7,4.119,21.87,21.87,0,0,0-2.986,6.494c-.465,1.518.281,2.126-1.076,2.951" transform="translate(-463.228 -223.444)" fill="#171717"/>
    <path id="Path_3748" data-name="Path 3748" d="M972.471,465.582S983.4,458.3,986.5,462.776s-9.612,9.97-9.612,9.97Z" transform="translate(-462.697 -287.088)" fill="#fbbebe"/>
    <path id="Path_3749" data-name="Path 3749" d="M978.526,399.992c-.04.7-.175,1.563-.566,1.69,1.02-.024,2.024.726,3.036.5a3.1,3.1,0,0,0,1.917-1.977.921.921,0,0,1,.256-.422c.106-.062.222,0,.328.063a31.874,31.874,0,0,1,5.5,4.149c.56.521,1.181,1.086,1.794.814a13.7,13.7,0,0,0-1.173-5.745,7.343,7.343,0,0,0-3.13-3.424,9.588,9.588,0,0,0-3.681-.958,3.688,3.688,0,0,1-1.586-.395c-.543-.319-2.276-2.39-2.665-.882a16.552,16.552,0,0,0,.06,3.084C978.622,397.66,978.593,398.829,978.526,399.992Z" transform="translate(-465.181 -256.155)" fill="#1d1d1d"/>
    <g id="Group_627" data-name="Group 627" transform="translate(510.485 102.967)" opacity="0.1">
      <path id="Path_3750" data-name="Path 3750" d="M1011.208,397.253a3.186,3.186,0,0,1-1.2-1.315,180.389,180.389,0,0,1-9.224-17.112,15.607,15.607,0,0,1-1.523-4.341,24.97,24.97,0,0,1,.107-4.88,23.509,23.509,0,0,0-.738-7.2,9.345,9.345,0,0,0-2.158-4.293,8.774,8.774,0,0,0-4.152-2.127c-3.515-.892-7.2-.681-10.823-.775-1.883-.049-3.9-.229-5.368-1.4a3.709,3.709,0,0,1-1.226-3.934,2.369,2.369,0,0,1-.305.244c-1.405,1.223-.886,3.716.576,4.884s3.484,1.356,5.368,1.4c3.625.093,7.309-.117,10.824.775a8.775,8.775,0,0,1,4.152,2.127,9.345,9.345,0,0,1,2.158,4.293,23.505,23.505,0,0,1,.738,7.2,24.961,24.961,0,0,0-.107,4.88,15.607,15.607,0,0,0,1.523,4.341,180.331,180.331,0,0,0,9.224,17.112,3.185,3.185,0,0,0,1.2,1.315,3.251,3.251,0,0,0,2.737-.424c-.072-.24-.138-.482-.2-.724a2.181,2.181,0,0,1-1.582-.045Z" transform="translate(-973.77 -339.69)"/>
      <path id="Path_3751" data-name="Path 3751" d="M974.989,350.4c.058-.035.107-.07.157-.1.009-.008.017-.018.026-.026Z" transform="translate(-974.322 -339.871)"/>
      <path id="Path_3752" data-name="Path 3752" d="M976.8,340.507c-.05.034-.1.069-.157.1l.183-.13c-.01.008-.017.017-.026.026,1.133-.775.473-1.394.918-2.847a22.091,22.091,0,0,1,2.914-6.388,12.664,12.664,0,0,0-.884,1.088,21.871,21.871,0,0,0-2.986,6.494,10.162,10.162,0,0,0-.234,1.935A2.279,2.279,0,0,1,976.8,340.507Z" transform="translate(-975.017 -331.272)"/>
      <path id="Path_3753" data-name="Path 3753" d="M1060.587,401.485a10.663,10.663,0,0,1-1.806.421,3.482,3.482,0,0,0-2,1.764,2.868,2.868,0,0,1,1.042-.57,10.657,10.657,0,0,0,1.806-.421,2.037,2.037,0,0,0,.99-1.213Z" transform="translate(-1011.333 -363.035)"/>
      <path id="Path_3754" data-name="Path 3754" d="M1045.61,425.832q.021.621.08,1.24a2.69,2.69,0,0,0,1.415-.9,3.989,3.989,0,0,0,.474-.738A2.129,2.129,0,0,1,1045.61,425.832Z" transform="translate(-1006.277 -373.879)"/>
    </g>
    <path id="Path_3755" data-name="Path 3755" d="M967.644,465.727s2.881-1.166,4.573-.907" transform="translate(-460.513 -288.659)" opacity="0.1"/>
    <path id="Path_3756" data-name="Path 3756" d="M982.816,490.477s1.462,2.269,8.855,3.224S982.816,490.477,982.816,490.477Z" transform="translate(-467.378 -300.268)" opacity="0.1"/>
    <path id="Path_3757" data-name="Path 3757" d="M977.96,505.962s6.649,5.851,17.315,3.7S977.96,505.962,977.96,505.962Z" transform="translate(-465.181 -307.265)" opacity="0.1"/>
    <line id="Line_12" data-name="Line 12" y1="16.973" x2="109.499" transform="translate(482.939 318.568)" fill="none" stroke="#8aa1c5" stroke-miterlimit="10" stroke-width="1"/>
    <g id="shopify-logo-svgrepo-com" transform="translate(95.463 103.132)">
      <path id="Path_3878" data-name="Path 3878" d="M69.134,18.247a.867.867,0,0,0-.783-.728c-.326-.027-7.221-.538-7.221-.538S56.34,12.226,55.814,11.7a2.18,2.18,0,0,0-1.952-.249c-.059.017-1.046.322-2.68.828-1.6-4.6-4.423-8.834-9.39-8.834-.137,0-.278.006-.419.014A6.036,6.036,0,0,0,36.7.779c-11.57,0-17.1,14.464-18.831,21.814-4.5,1.393-7.69,2.384-8.1,2.512-2.51.787-2.589.866-2.918,3.231C6.6,30.126.038,80.906.038,80.906L51.2,90.493l27.723-6S69.2,18.7,69.134,18.247ZM48.355,13.153l-4.329,1.34c0-.305,0-.605,0-.934a21.236,21.236,0,0,0-1.034-6.991C45.553,6.89,47.258,9.8,48.355,13.153ZM39.819,7.137a21.462,21.462,0,0,1,1.174,7.794c0,.177,0,.338,0,.5L32.049,18.2C33.771,11.556,37,8.347,39.819,7.137ZM36.382,3.882a2.613,2.613,0,0,1,1.484.5C34.158,6.128,30.183,10.523,28.5,19.3l-7.068,2.189C23.4,14.794,28.071,3.882,36.381,3.882Z" fill="#37e142"/>
      <path id="Path_3879" data-name="Path 3879" d="M182.868,41.2c-.326-.027-7.221-.538-7.221-.538s-4.789-4.754-5.315-5.281a1.313,1.313,0,0,0-.739-.339l-3.869,79.132,27.721-6s-9.732-65.8-9.794-66.249a.867.867,0,0,0-.784-.728" transform="translate(-114.518 -23.682)" fill="#25c92f"/>
      <path id="Path_3880" data-name="Path 3880" d="M68.875,101.587l-3.418,10.168a15.725,15.725,0,0,0-6.666-1.6c-5.382,0-5.653,3.378-5.653,4.229,0,4.644,12.106,6.424,12.106,17.3,0,8.559-5.428,14.07-12.747,14.07a17.735,17.735,0,0,1-13.275-5.466l2.352-7.77s4.617,3.964,8.513,3.964a3.434,3.434,0,0,0,3.581-3.469c0-6.058-9.932-6.328-9.932-16.283,0-8.378,6.013-16.486,18.152-16.486,4.677,0,6.988,1.34,6.988,1.34" transform="translate(-27.082 -68.75)" fill="#fff"/>
    </g>
  </g>
</svg>
