<svg xmlns="http://www.w3.org/2000/svg" width="548.337" height="513.173" viewBox="0 0 548.337 513.173">
  <g id="Hire" transform="translate(-51.663 -0.002)">
    <path id="Path_2938" data-name="Path 2938" d="M844.548,506.536l-276.12,93.178a13.706,13.706,0,0,1-17.347-8.57L423.18,213.287a13.675,13.675,0,0,1,8.583-17.32l276.12-93.177a13.706,13.706,0,0,1,17.347,8.57l127.9,377.856a13.675,13.675,0,0,1-8.584,17.32Z" transform="translate(-253.852 -102.068)" fill="#273a57" opacity="0.5"/>
    <path id="Path_2939" data-name="Path 2939" d="M841.042,503.089l-267.71,90.334a9.261,9.261,0,0,1-11.721-5.79L436.551,218.2a9.239,9.239,0,0,1,5.8-11.7l267.71-90.334a9.261,9.261,0,0,1,11.721,5.79l125.06,369.436A9.239,9.239,0,0,1,841.042,503.089Z" transform="translate(-257.393 -105.609)" fill="#01183a"/>
    <path id="Path_2940" data-name="Path 2940" d="M785.186,646.271H493.722a13.7,13.7,0,0,1-13.685-13.685V233.117a13.7,13.7,0,0,1,13.685-13.685H785.186a13.7,13.7,0,0,1,13.685,13.685V632.586a13.7,13.7,0,0,1-13.685,13.686Z" transform="translate(-268.803 -133.378)" fill="#273a57"/>
    <path id="Path_2941" data-name="Path 2941" d="M783.871,640.517H501.284a9.257,9.257,0,0,1-9.247-9.247V240.679a9.257,9.257,0,0,1,9.247-9.247H783.871a9.257,9.257,0,0,1,9.247,9.247V631.27a9.258,9.258,0,0,1-9.247,9.247Z" transform="translate(-271.96 -136.501)" fill="#01183a"/>
    <path id="Path_2942" data-name="Path 2942" d="M737.413,377.038H550.771a5.928,5.928,0,1,1,0-11.857H737.413a5.928,5.928,0,1,1,0,11.857Z" transform="translate(-273.61 -110.838)" fill="#273a57"/>
    <path id="Path_2943" data-name="Path 2943" d="M761.868,404.085h-211.1a5.928,5.928,0,0,1,0-11.857h211.1a5.928,5.928,0,0,1,0,11.857Z" transform="translate(-285.61 -117.908)" fill="#273a57"/>
    <path id="Path_2944" data-name="Path 2944" d="M737.413,498.251H550.771a5.929,5.929,0,0,1,0-11.857H737.413a5.928,5.928,0,0,1,0,11.857Z" transform="translate(-273.61 -142.52)" fill="#fff"/>
    <path id="Path_2945" data-name="Path 2945" d="M761.868,525.3h-211.1a5.928,5.928,0,1,1,0-11.857h211.1a5.928,5.928,0,0,1,0,11.857Z" transform="translate(-285.61 -149.59)" fill="#273a57"/>
    <path id="Path_2946" data-name="Path 2946" d="M737.413,619.464H550.771a5.928,5.928,0,0,1,0-11.857H737.413a5.928,5.928,0,0,1,0,11.857Z" transform="translate(-273.61 -174.202)" fill="#273a57"/>
    <path id="Path_2947" data-name="Path 2947" d="M761.868,646.512h-211.1a5.928,5.928,0,1,1,0-11.857h211.1a5.928,5.928,0,0,1,0,11.857Z" transform="translate(-285.61 -181.271)" fill="#273a57"/>
    <path id="Path_2948" data-name="Path 2948" d="M382.611,456.3H339.7a3.333,3.333,0,0,1-3.329-3.329V434.478a24.782,24.782,0,0,1,49.564,0v18.494a3.333,3.333,0,0,1-3.329,3.329Z" transform="translate(-231.358 -182.499)" fill="#444"/>
    <path id="Path_2949" data-name="Path 2949" d="M478.116,593.006a7.439,7.439,0,0,1-6.857-9.115l-22.359-14.1,12.514-5.665,19.314,14.26a7.479,7.479,0,0,1-2.612,14.623Z" transform="translate(-260.658 -222.855)" fill="#ffb8b8"/>
    <path id="Path_2950" data-name="Path 2950" d="M442.017,561.471a3.99,3.99,0,0,1-2.086-.827L378.42,512.966l-7.931-14.1a7.825,7.825,0,0,1,.687-8.721h0a7.853,7.853,0,0,1,11.487-.893l68.561,55.607a4.019,4.019,0,0,1,1.028,5.654l-6.573,9.282a3.988,3.988,0,0,1-2.691,1.655,4.1,4.1,0,0,1-.971.028Z" transform="translate(-239.979 -202.782)" fill="#8aa1c5"/>
    <path id="Path_2951" data-name="Path 2951" d="M77.194,658.666l8.407,3.4,17.122-30.809-12.408-5.021Z" transform="translate(-20.089 -163.742)" fill="#ffb8b8"/>
    <path id="Path_2952" data-name="Path 2952" d="M268.629,767.259l16.556,6.7h0a11.382,11.382,0,0,1,6.281,14.821l-.139.343-27.108-10.969Z" transform="translate(-212.558 -275.947)" fill="#8aa1c5"/>
    <path id="Path_2953" data-name="Path 2953" d="M209.618,670.554h9.069L223,635.572H209.617Z" transform="translate(-54.582 -166.171)" fill="#ffb8b8"/>
    <path id="Path_2954" data-name="Path 2954" d="M400.876,780.927h17.861a11.382,11.382,0,0,1,11.382,11.382v.37H400.876Z" transform="translate(-248.152 -279.504)" fill="#8aa1c5"/>
    <path id="Path_2955" data-name="Path 2955" d="M378.524,706.4a21.511,21.511,0,0,1-9.084-2.445,3.675,3.675,0,0,1-1.976-2.582l-19.116-96.38-49.593,92.788a3.69,3.69,0,0,1-2.093,1.765c-10.681,3.569-16.506-2.046-18.516-4.625a3.633,3.633,0,0,1-.413-3.767l22.969-49.9,13.888-47.4,14.038-34.687.306.033,46.941,4.941,5.708,31.392,5.748,104.523a3.632,3.632,0,0,1-.672,2.337,9.567,9.567,0,0,1-8.135,4Z" transform="translate(-215.985 -221.794)" fill="#8aa1c5"/>
    <circle id="Ellipse_164" data-name="Ellipse 164" cx="18.169" cy="18.169" r="18.169" transform="translate(117.745 237.174)" fill="#ffb8b8"/>
    <path id="Path_2956" data-name="Path 2956" d="M376.347,557.909c-7.91,0-17.7-4.63-29.191-13.825l-.2-.157,8.127-64.11.379-.014c11.624-.42,21.083,2.531,28.915,9.045l.067.07,6.35,8.164,0,.149.9,50.147-.023.071a15.961,15.961,0,0,1-10.2,9.734,17.706,17.706,0,0,1-5.129.727Z" transform="translate(-234.114 -200.852)" fill="#0b2d61"/>
    <path id="Path_2957" data-name="Path 2957" d="M381.086,587.733a4.04,4.04,0,0,1-3.894-2.995L366.036,542.5l-7.067,38.477a4.016,4.016,0,0,1-4.513,3.259l-30.774-4.294a4.023,4.023,0,0,1-3.254-5.278l15.566-45.88-3.485-26.881a20.129,20.129,0,0,1,19.123-22.7l.312-.012,14.8,35.7,2.354-9.417,3.684-20.269.55.319a32.75,32.75,0,0,1,16.359,29.854l-.933,21.468,8.27,43.831a4.03,4.03,0,0,1-3.2,4.7l-11.994,2.285a3.973,3.973,0,0,1-.749.07Z" transform="translate(-227.15 -200.74)" fill="#8aa1c5"/>
    <path id="Path_2958" data-name="Path 2958" d="M396.207,438.669H369.971L369.7,434.9l-1.345,3.767h-4.04l-.533-7.465-2.666,7.465H353.3v-.37a19.626,19.626,0,0,1,19.6-19.6h3.7a19.626,19.626,0,0,1,19.6,19.6Z" transform="translate(-235.765 -184.831)" fill="#444"/>
    <path id="Path_2960" data-name="Path 2960" d="M387.537,593.368a8.278,8.278,0,0,0,9.447,8.2,13.937,13.937,0,0,0,12.777,8.369h0A13.937,13.937,0,0,0,423.7,596V583.929c0-3.108-2.52-4.148-5.628-4.148H401.452c-3.108,0-5.628,1.04-5.628,4.148v1.152A8.3,8.3,0,0,0,387.537,593.368Zm2.26,0a6.034,6.034,0,0,1,6.027-6.027V596a13.961,13.961,0,0,0,.413,3.369c-.137.009-.273.021-.413.021a6.034,6.034,0,0,1-6.027-6.027Z" transform="translate(-244.679 -226.949)" fill="#0b2d61"/>
    <path id="Path_2961" data-name="Path 2961" d="M384.841,589.531a7.439,7.439,0,0,0-11.147-2.419l-22.158-14.417.084,13.737,21.028,11.585a7.479,7.479,0,0,0,12.192-8.485Z" transform="translate(-235.305 -225.094)" fill="#ffb8b8"/>
    <path id="Path_2962" data-name="Path 2962" d="M352.6,575.372a3.33,3.33,0,0,1-2.354-.975l-28.214-28.214a7.461,7.461,0,0,1-2.01-6.977c2.415-10.559,8.3-35.787,10.785-42a21.953,21.953,0,0,1,9.513-11.081l.111-.056,8.932,1.65.787,27.551-10.79,23.121L362.3,560.051a3.317,3.317,0,0,1,.346,4.46l-7.417,9.571a3.331,3.331,0,0,1-2.422,1.283C352.736,575.37,352.667,575.372,352.6,575.372Z" transform="translate(-227.048 -202.514)" fill="#8aa1c5"/>
    <ellipse id="Ellipse_165" data-name="Ellipse 165" cx="10.357" cy="1.48" rx="10.357" ry="1.48" transform="translate(154.693 353.711)" fill="#2f2e41"/>
    <g id="Ellipse_166" data-name="Ellipse 166" transform="translate(318.235 118.002)" fill="none" stroke="#273a57" stroke-width="8">
      <circle cx="52" cy="52" r="52" stroke="none"/>
      <circle cx="52" cy="52" r="48" fill="none"/>
    </g>
    <g id="Group_611" data-name="Group 611" transform="translate(337.234 140.319)">
      <g id="Group_612" data-name="Group 612" transform="translate(0)">
        <g id="Group_611-2" data-name="Group 611">
          <path id="Path_2963" data-name="Path 2963" d="M55.211,41.814a32.218,32.218,0,0,0-12.29-7.709,18.7,18.7,0,1,0-21.158,0A32.393,32.393,0,0,0,0,64.684H5.053a27.288,27.288,0,0,1,54.577,0h5.053A32.131,32.131,0,0,0,55.211,41.814ZM32.342,32.342A13.644,13.644,0,1,1,45.986,18.7,13.66,13.66,0,0,1,32.342,32.342Z" transform="translate(0)" fill="#273a57"/>
        </g>
      </g>
    </g>
  </g>
</svg>
