<svg xmlns="http://www.w3.org/2000/svg" width="610" height="446.672" viewBox="0 0 610 446.672">
  <g id="mockups-design" transform="translate(0 0)">
    <path id="Path_4949" data-name="Path 4949" d="M794.632,575.871,788.6,577.8l-10.317-22.361,8.908-2.85Z" transform="translate(-200.504 -142.34)" fill="#ffb6b6"/>
    <path id="Path_4950" data-name="Path 4950" d="M987.108,737.622l-19.461,6.224-.079-.246a7.953,7.953,0,0,1,5.152-10h0l2.692-3.834,7.5.576,1.7-.543Z" transform="translate(-389.57 -298.733)" fill="#273a57"/>
    <path id="Path_4951" data-name="Path 4951" d="M719.868,583.587h-6.337l-3.014-24.441h9.352Z" transform="translate(-182.963 -144.037)" fill="#ffb6b6"/>
    <path id="Path_4952" data-name="Path 4952" d="M907.3,745.689H886.867v-.258a7.953,7.953,0,0,1,7.952-7.953h0l3.732-2.831,6.963,2.832H907.3Z" transform="translate(-368.777 -299.995)" fill="#273a57"/>
    <path id="Path_4953" data-name="Path 4953" d="M870.9,399.764a5.2,5.2,0,0,0,1.566,7.815L869.43,425.8,878.2,421.9l1.542-16.7a5.226,5.226,0,0,0-8.842-5.436Z" transform="translate(-364.264 -213.188)" fill="#ffb6b6"/>
    <path id="Path_4954" data-name="Path 4954" d="M957.954,594.532s1.478-19.247-3.76-22.821-48.426-5.374-48.426-5.374l-2.682,3.527s-.243,1.647-4.31,15.064l-1.657,74.894c-.164,7.3-1.437,16.475,1.612,18.351l1.482,7.411h8.152l4.5-12.46a16.384,16.384,0,0,0,2.347-10.5l2.459-11a1.332,1.332,0,0,1-.35-.627,6.424,6.424,0,0,1,1.028-4.7,8.285,8.285,0,0,1,.717-.913l9.01-40.3,12.154,47.146,7.5,16.747a4.285,4.285,0,0,0,1.1,4.821c-.5,1.373,1.659,2.337,2.586,4.112l2.9,5.447,8.152-4.447.741-4.447c.494-1.319-.834-2.193-1.812-4.932,1.825-1.938,1.726-3.826-.033-5.67l-3.082-13.289-.036-6.092-.038-6.512Z" transform="translate(-371.327 -256.426)" fill="#273a57"/>
    <circle id="Ellipse_520" data-name="Ellipse 520" cx="14.162" cy="14.162" r="14.162" transform="translate(538.377 194.978)" fill="#ffb6b6"/>
    <path id="Path_4955" data-name="Path 4955" d="M941.911,425.127l-.234-.468a84.384,84.384,0,0,1-3.732-8.283l-3.769.443-9.814,0,1.364-2.046-3.605.47a8.275,8.275,0,0,0-3.674,1.385,5.629,5.629,0,0,0-1.667,1.718c-1.288,2.205-3.255,5.813-3.275,5.849l-.188.345-1.635-2.75c-.021-.107-2.048-10.676,4.734-14.26a10.914,10.914,0,0,1,10.374-5.921,4.466,4.466,0,0,1,3.036-1.509c1.609-.084,3.279.761,4.956,2.522,2.228,2.339,5.279,5.542,7.124,9.1l.509.726A5.724,5.724,0,0,1,943.432,416a11.864,11.864,0,0,1-.4,6.052Z" transform="translate(-375.123 -213.787)" fill="#2f2e41"/>
    <path id="Path_4956" data-name="Path 4956" d="M959.79,463.707,944.4,459.4l-7.837-5.814-15.394,2.456-.067.087c-2.7,3.5-6.85,6.96-11.267,7.1a15.465,15.465,0,0,0-3.366.483l-1.478,27.022v24.16a1.417,1.417,0,0,1,.93,1.032,19.62,19.62,0,0,1-.121,7.434,12.424,12.424,0,0,1-.81,2.482,6.554,6.554,0,0,1,0,5.7c-1.316,1.254-1.146,2.621,0,4.062v5.073c24.986,20.847,51.043,3,51.043,3l-.836-39.681Z" transform="translate(-373.229 -227.488)" fill="#8aa1c5"/>
    <path id="Path_4957" data-name="Path 4957" d="M898.451,457.41,895,453.7l-19.027-2.155,1.785-29.223-10.374-7.4-4.7,25.359c-1.615,1.4-1.915,2.774-.765,4.128-1.293,2.587-1.626,4.69-1.186,6.4l-.973,5.25,35.206,24.66Z" transform="translate(-361.761 -217.57)" fill="#8aa1c5"/>
    <path id="Path_4958" data-name="Path 4958" d="M975.178,592.085a5.2,5.2,0,0,1,2.389-7.6l-1.084-18.439,8.309,4.8-.244,16.773a5.226,5.226,0,0,1-9.37,4.465Z" transform="translate(-391.426 -256.533)" fill="#ffb6b6"/>
    <path id="Path_4959" data-name="Path 4959" d="M970.351,471.854l5.783-4.611s5.913,3.262,7.713,9.11,4.949,39.139,4.949,39.139l.485,12.4c.622,1.966.459,3.72-1.023,5.117,2.228,2.3,1.9,4.225-1.148,5.737l-3.156,19.488-9.909-2.057,1.254-38.432L967.2,493Z" transform="translate(-389.574 -231.011)" fill="#8aa1c5"/>
    <path id="Path_4960" data-name="Path 4960" d="M373.155,236.841h-2.028V181.287a32.153,32.153,0,0,0-32.153-32.153h-117.7a32.153,32.153,0,0,0-32.154,32.153V486.063a32.154,32.154,0,0,0,32.154,32.154h117.7a32.153,32.153,0,0,0,32.154-32.153V276.386h2.028Z" transform="translate(-189.121 -149.133)" fill="#fff"/>
    <path id="Path_4961" data-name="Path 4961" d="M343.37,160.421H328.007a11.408,11.408,0,0,1-10.562,15.716H250.016a11.408,11.408,0,0,1-10.562-15.716H225.1a24.012,24.012,0,0,0-24.012,24.012V488.762A24.012,24.012,0,0,0,225.1,512.774H343.37a24.012,24.012,0,0,0,24.012-24.012h0V184.432a24.012,24.012,0,0,0-24.011-24.011Z" transform="translate(-192.219 -152.055)" fill="#01183a"/>
    <path id="Path_4962" data-name="Path 4962" d="M351.013,293.956a57.746,57.746,0,0,1-3.64,20.249,56.16,56.16,0,0,1-4.022,8.576,58.014,58.014,0,0,1-100.668,0q-.771-1.337-1.463-2.714a58,58,0,1,1,109.793-26.111Z" transform="translate(-201 -171.608)" fill="#273a57"/>
    <circle id="Ellipse_521" data-name="Ellipse 521" cx="11.088" cy="11.088" r="11.088" transform="translate(83.945 110.147)" fill="#ff6582"/>
    <path id="Path_4963" data-name="Path 4963" d="M243.389,335.365c4.885-5.279,11.416-13.661,17.541-7.6,3.074,2.857,7.885,9.936,12.49,5.308l35.962-35.962a7.139,7.139,0,0,1,10.21.183L349.542,329.5a56.174,56.174,0,0,1-4.022,8.576H244.852Z" transform="translate(-203.169 -186.716)" fill="#fff"/>
    <path id="Path_680" data-name="Path 680" d="M349.472,473.123a1.5,1.5,0,0,0,0,3h15.722a1.5,1.5,0,0,0,0-3Z" transform="translate(-230.049 -232.62)" fill="#fff"/>
    <path id="Path_680-2" data-name="Path 680" d="M253.9,443.43a1.5,1.5,0,1,0,0,3H341.14a1.5,1.5,0,0,0,0-3Z" transform="translate(-205.501 -224.969)" fill="#273a57"/>
    <path id="Path_680-3" data-name="Path 680" d="M253.9,458.277a1.5,1.5,0,1,0,0,3H341.14a1.5,1.5,0,1,0,0-3Z" transform="translate(-205.501 -228.794)" fill="#273a57"/>
    <path id="Path_680-4" data-name="Path 680" d="M349.472,568.39a1.5,1.5,0,0,0,0,3h15.722a1.5,1.5,0,0,0,0-3Z" transform="translate(-230.049 -257.169)" fill="#fff"/>
    <path id="Path_680-5" data-name="Path 680" d="M253.9,538.7a1.5,1.5,0,1,0,0,3H341.14a1.5,1.5,0,1,0,0-3Z" transform="translate(-205.501 -249.517)" fill="#273a57"/>
    <path id="Path_680-6" data-name="Path 680" d="M253.9,553.543a1.5,1.5,0,1,0,0,3H341.14a1.5,1.5,0,1,0,0-3Z" transform="translate(-205.501 -253.343)" fill="#273a57"/>
    <path id="Path_4964" data-name="Path 4964" d="M780.433,361.827l-11.971-5.413a9.755,9.755,0,0,1-13.767,8.525l-52.54-23.757a9.756,9.756,0,0,1-2.693-15.967l-11.181-5.056a20.534,20.534,0,0,0-27.17,10.25L553.887,567.54a20.534,20.534,0,0,0,10.25,27.17h0l92.153,41.669a20.534,20.534,0,0,0,27.17-10.25h0L790.682,389A20.534,20.534,0,0,0,780.433,361.827Z" transform="translate(-282.368 -192.225)" fill="#e4e4e4"/>
    <path id="Path_4965" data-name="Path 4965" d="M705.956,495.774a50.493,50.493,0,0,1-29.374-41.065c-.086-.875-.149-1.774-.186-2.671a49.775,49.775,0,0,1,4.434-22.866,50.336,50.336,0,1,1,81.611,56.191,48.917,48.917,0,0,1-6.249,5.345A50.5,50.5,0,0,1,705.956,495.774Zm40.867-90.38a48.91,48.91,0,0,0-64.642,24.389,48.307,48.307,0,0,0-4.3,22.192c.036.87.1,1.741.18,2.59a48.87,48.87,0,0,0,77.268,34.94,47.439,47.439,0,0,0,6.062-5.185,48.876,48.876,0,0,0-14.565-78.927Z" transform="translate(-314.561 -213.59)" fill="#fff"/>
    <rect id="Rectangle_707" data-name="Rectangle 707" width="1.482" height="98.458" transform="translate(394.951 189.803) rotate(-20.96)" fill="#fff"/>
    <rect id="Rectangle_708" data-name="Rectangle 708" width="98.458" height="1.482" transform="matrix(0.934, -0.358, 0.358, 0.934, 365.074, 253.161)" fill="#fff"/>
    <path id="Path_4966" data-name="Path 4966" d="M712.394,604.456l-86.976-39.328a2.673,2.673,0,0,1-1.333-3.533l8.182-18.095a2.673,2.673,0,0,1,3.533-1.333L722.776,581.5a2.673,2.673,0,0,1,1.333,3.533l-8.182,18.095a2.673,2.673,0,0,1-3.533,1.333Zm-77.2-60.938a1.189,1.189,0,0,0-1.571.593l-8.182,18.095a1.189,1.189,0,0,0,.593,1.571L713,603.1a1.189,1.189,0,0,0,1.571-.593l8.182-18.095a1.189,1.189,0,0,0-.593-1.571Z" transform="translate(-301.045 -250.278)" fill="#fff"/>
    <path id="Path_4967" data-name="Path 4967" d="M683.965,667.327,596.989,628a2.673,2.673,0,0,1-1.333-3.533l8.182-18.095a2.673,2.673,0,0,1,3.533-1.333l86.977,39.328a2.673,2.673,0,0,1,1.333,3.533L687.5,665.994a2.673,2.673,0,0,1-3.533,1.333ZM606.76,606.389a1.189,1.189,0,0,0-1.571.593l-8.182,18.095a1.189,1.189,0,0,0,.593,1.571l86.977,39.328a1.189,1.189,0,0,0,1.571-.593l8.182-18.095a1.189,1.189,0,0,0-.593-1.571Z" transform="translate(-293.726 -266.383)" fill="#fff"/>
    <path id="Path_4968" data-name="Path 4968" d="M622.372,510.187A57.81,57.81,0,0,0,611.1,485.779a76.434,76.434,0,0,0-20.613-18.155,91.406,91.406,0,0,0-26.389-10.82,145.492,145.492,0,0,0-35.391-3.571c-11.959.115-23.88,1.235-35.766,2.484q-2.266.238-4.532.481c-1.408.15-1.423,2.375,0,2.223,11.71-1.25,23.438-2.479,35.215-2.857a157.092,157.092,0,0,1,34.945,2.314,93.22,93.22,0,0,1,27.374,9.678,77.388,77.388,0,0,1,21.137,16.811A57.156,57.156,0,0,1,619.5,507.511c.277,1.081.516,2.171.726,3.267.269,1.4,2.412.809,2.144-.591Z" transform="translate(-265.87 -227.441)" fill="#fff"/>
    <path id="Path_4969" data-name="Path 4969" d="M493.175,435.647l-17.759,18.89a1.122,1.122,0,0,0,.225,1.746l16.022,7.658c1.285.614,2.414-1.3,1.122-1.92l-16.022-7.659.225,1.746,17.759-18.89c.98-1.042-.59-2.617-1.572-1.572Z" transform="translate(-262.803 -222.854)" fill="#fff"/>
    <path id="Path_4970" data-name="Path 4970" d="M891,750.251H552.088a.882.882,0,0,1,0-1.765H891a.882.882,0,1,1,0,1.765Z" transform="translate(-281.886 -303.578)" fill="#273a57"/>
  </g>
</svg>
