<svg id="service-details" xmlns="http://www.w3.org/2000/svg" width="610" height="375" viewBox="0 0 610 375">
  <rect id="Rectangle_728" data-name="Rectangle 728" width="22.449" height="19.808" transform="translate(486.712 355.192)" fill="#f0f0f0"/>
  <path id="Path_5362" data-name="Path 5362" d="M891.521,330.711a165.588,165.588,0,0,1-86.557,145.431c-1.486.809-2.991,1.6-4.5,2.361a162.939,162.939,0,0,1-17.279,7.549q-3.526,1.322-7.124,2.459c-.231.079-.469.158-.7.224a166.638,166.638,0,0,1-141.2-19.254q-4.15-2.7-8.128-5.642c-1.5-1.111-2.978-2.242-4.437-3.406q-6.19-4.892-11.885-10.37a164.87,164.87,0,0,1-50.966-119.352C558.746,239.189,633.237,165,725.132,165S891.521,239.189,891.521,330.711Z" transform="translate(-281.521 -165)" fill="#f2f2f2"/>
  <path id="Path_5363" data-name="Path 5363" d="M816.395,485.094l-3.75,14.182,14.242,66.838a167.077,167.077,0,0,1-116.471-5.989L721.534,513.5l.37-25.288,1.208-83.385.3-.158a.235.235,0,0,1,.06-.026L751.8,390.1l48.873-1.222,36.466,17.761-.277,1.037Z" transform="translate(-332.815 -242.41)" fill="#0b2d61"/>
  <path id="Path_5364" data-name="Path 5364" d="M898.748,688.431a11.936,11.936,0,0,1,3.187-18.023L894,628.741l20.345,8.479,4.414,38.268a12,12,0,0,1-20.013,12.943Z" transform="translate(-395.42 -323.9)" fill="#9e616a"/>
  <path id="Path_5365" data-name="Path 5365" d="M884.27,416.87l5.22-1.7s16.56,10.628,14.984,36.323c0,0,.621,13.3.028,22.145-.68,10.15,8.431,111.009,8.431,111.009H883.425l-12.646-91.336Z" transform="translate(-387.531 -251.342)" fill="#0b2d61"/>
  <path id="Path_5366" data-name="Path 5366" d="M830.425,302.4a33.879,33.879,0,1,1-33.879-33.879h0a33.794,33.794,0,0,1,33.879,33.71Z" transform="translate(-350.544 -200.468)" fill="#9e616a"/>
  <path id="Path_5367" data-name="Path 5367" d="M762.09,246.184c3.969-8.534,11.649-6.847,18.366-3.954,8.506-1.887,16.6-7.535,25.76-4.195,9.028,13.13,39.337,9.267,32.889,30.643-.008,5.122,9.638,2.141,7.954,10.53,5.11,16.144-18.446,46.719-31.968,40.281,3.344-6.129,10.984-20.051-.6-21.432-24.927,23.193-2.572-44.165-33.891-24.576C770.226,282.97,756.029,255.677,762.09,246.184Z" transform="translate(-349.881 -189.461)" fill="#2f2e41"/>
  <path id="Path_5368" data-name="Path 5368" d="M813.531,620.968l-54.08-10.711,13.867-70.014q28.7,10.856,54.08,10.711C812.612,572.638,805.9,595.92,813.531,620.968Z" transform="translate(-349.448 -293.834)" fill="#e4e4e4"/>
  <path id="Path_5369" data-name="Path 5369" d="M800.74,627.2l-54.08-10.711c-4.439-31.719-.4-55.6,13.867-70.014q28.7,10.856,54.08,10.711A192.864,192.864,0,0,0,800.74,627.2Z" transform="translate(-344.503 -295.95)" fill="#8aa1c5"/>
  <path id="Path_5370" data-name="Path 5370" d="M750.416,616.495a11.936,11.936,0,0,0-15.369-9.937l-25.116-34.18-7.643,20.674,25.022,29.289a12,12,0,0,0,23.106-5.845Z" transform="translate(-329.927 -304.751)" fill="#9e616a"/>
  <path id="Path_5371" data-name="Path 5371" d="M711.784,414.19l-4.549-3.073s-27.071,2.521-32.642,27.654c0,0-4.072,15.1-5.942,23.769-.962,4.459-13.79,47.539-13.79,47.539l43.5,47.539,11.885-17.827L698.362,510.08Z" transform="translate(-313.765 -249.57)" fill="#0b2d61"/>
  <rect id="Rectangle_729" data-name="Rectangle 729" width="22.449" height="19.808" transform="translate(0 83.22)" fill="#0b2d61"/>
  <rect id="Rectangle_730" data-name="Rectangle 730" width="22.449" height="19.808" transform="translate(48.199 162.151)" fill="#0b2d61"/>
  <rect id="Rectangle_731" data-name="Rectangle 731" width="22.449" height="19.808" transform="translate(83.193 296.993)" fill="#0b2d61"/>
  <path id="Path_5372" data-name="Path 5372" d="M262.21,222.649a2.509,2.509,0,1,0,0,5.018H445.4a2.509,2.509,0,0,0,0-5.018Z" transform="translate(-178.854 -184.585)" fill="#e4e4e4"/>
  <path id="Path_5373" data-name="Path 5373" d="M262.207,245.45a2.509,2.509,0,1,0-.011,5.018H378.012a2.509,2.509,0,1,0,0-5.018Z" transform="translate(-178.851 -192.332)" fill="#e4e4e4"/>
  <path id="Path_5374" data-name="Path 5374" d="M226.21,495.649a2.509,2.509,0,1,0,0,5.018H409.4a2.509,2.509,0,0,0,0-5.018Z" transform="translate(-166.623 -278.127)" fill="#e4e4e4"/>
  <path id="Path_5375" data-name="Path 5375" d="M226.207,518.45a2.509,2.509,0,0,0-.011,5.018H342.012a2.509,2.509,0,0,0,0-5.018Z" transform="translate(-166.621 -285.928)" fill="#e4e4e4"/>
  <path id="Path_5376" data-name="Path 5376" d="M384.21,690.649a2.509,2.509,0,0,0,0,5.018H567.4a2.509,2.509,0,1,0,0-5.018Z" transform="translate(-220.71 -344.932)" fill="#e4e4e4"/>
  <path id="Path_5377" data-name="Path 5377" d="M384.207,713.45a2.509,2.509,0,0,0-.011,5.018H500.012a2.509,2.509,0,0,0,0-5.018Z" transform="translate(-220.652 -352.679)" fill="#e4e4e4"/>
  <path id="Path_5378" data-name="Path 5378" d="M152.654,292.123a41.3,41.3,0,0,0,26.192-18.493,39.58,39.58,0,0,0,3.97-8.471.991.991,0,0,0-1.875-.639,39.305,39.305,0,0,1-20.288,22.821,37.207,37.207,0,0,1-8.369,2.836.991.991,0,0,0,.37,1.946Z" transform="translate(-142.098 -198.847)" fill="#8aa1c5"/>
  <path id="Path_5379" data-name="Path 5379" d="M181.767,267.235l10.712-6.033c.165-.093.629-.443.8-.4-.139-.034-.013.069-.009.195.006.169.027.34.033.51.039,1.043.058,2.087.087,3.13l.166,6c.035,1.263,2.012,1.413,1.977.135l-.2-7.042c-.045-1.614.359-5.193-2.256-4.884a7.647,7.647,0,0,0-2.621,1.226l-3.26,1.836-6.287,3.541c-1.107.624-.26,2.415.852,1.789Z" transform="translate(-151.911 -196.876)" fill="#8aa1c5"/>
  <path id="Path_5380" data-name="Path 5380" d="M212.607,426.4a41.3,41.3,0,0,0-25.413,19.527,39.52,39.52,0,0,0-3.624,8.618.991.991,0,0,0,1.91.527,39.321,39.321,0,0,1,19.4-23.607,37.185,37.185,0,0,1,8.253-3.154.991.991,0,0,0-.527-1.91Z" transform="translate(-152.98 -254.465)" fill="#8aa1c5"/>
  <path id="Path_5381" data-name="Path 5381" d="M192.613,460.63l-10.351,6.382c-.177.109-.352.229-.536.326s-.372.094-.253.21c-.16-.157-.119-.739-.131-.916l-.2-2.994-.4-5.987c-.085-1.265-2.067-1.275-1.981,0l.473,7.029c.108,1.6-.19,4.913,2.26,4.779,1.091-.06,2.13-.956,3.024-1.507l2.957-1.823,6.142-3.787c1.083-.668.089-2.382-1-1.71Z" transform="translate(-151.353 -264.815)" fill="#8aa1c5"/>
  <path id="Path_5382" data-name="Path 5382" d="M278.786,629.306a39.317,39.317,0,0,1,24.23,18.616,37.168,37.168,0,0,1,3.424,8.145.991.991,0,0,0,1.91-.526,41.294,41.294,0,0,0-20.311-24.791,39.5,39.5,0,0,0-8.727-3.354A.991.991,0,0,0,278.786,629.306Z" transform="translate(-185.27 -323.431)" fill="#8aa1c5"/>
  <path id="Path_5383" data-name="Path 5383" d="M306.008,663.34l6.142,3.787,2.957,1.823c.9.553,1.932,1.447,3.024,1.507,2.449.134,2.152-3.178,2.26-4.779l.473-7.029c.086-1.273-1.9-1.267-1.981,0l-.4,5.987-.193,2.864c-.015.219.043.864-.14,1.046.13-.13-.006-.068-.151-.156-.211-.128-.428-.25-.639-.38l-10.351-6.381c-1.088-.671-2.084,1.042-1,1.71Z" transform="translate(-194.627 -333.737)" fill="#8aa1c5"/>
  <circle id="Ellipse_564" data-name="Ellipse 564" cx="9.244" cy="9.244" r="9.244" transform="translate(35.654 37.978)" fill="#0b2d61"/>
  <circle id="Ellipse_565" data-name="Ellipse 565" cx="9.244" cy="9.244" r="9.244" transform="translate(19.808 218.281)" fill="#0b2d61"/>
  <circle id="Ellipse_566" data-name="Ellipse 566" cx="9.244" cy="9.244" r="9.244" transform="translate(119.292 346.291)" fill="#0b2d61"/>
</svg>
