<svg id="web-development" xmlns="http://www.w3.org/2000/svg" width="610" height="411.281" viewBox="0 0 610 411.281">
  <rect id="Rectangle_62" data-name="Rectangle 62" width="609.74" height="289.132" transform="translate(0.26 16.705)" fill="#273a57"/>
  <rect id="Rectangle_75" data-name="Rectangle 75" width="574.893" height="241.232" transform="translate(17.424 40.655)" fill="#01183a"/>
  <rect id="Rectangle_80" data-name="Rectangle 80" width="609.74" height="25.886" fill="#fff"/>
  <circle id="Ellipse_90" data-name="Ellipse 90" cx="4.798" cy="4.798" r="4.798" transform="translate(14.438 8.097)" fill="#0b2d61"/>
  <circle id="Ellipse_91" data-name="Ellipse 91" cx="4.798" cy="4.798" r="4.798" transform="translate(32.649 8.097)" fill="#0b2d61"/>
  <circle id="Ellipse_92" data-name="Ellipse 92" cx="4.798" cy="4.798" r="4.798" transform="translate(50.861 8.097)" fill="#0b2d61"/>
  <path id="Path_680" data-name="Path 680" d="M332.008,298.519a2.365,2.365,0,1,0,0,4.731H396.64a2.365,2.365,0,0,0,0-4.731Z" transform="translate(-220.122 -202.037)" fill="#fff"/>
  <path id="Path_680-2" data-name="Path 680" d="M281.508,343.519a2.365,2.365,0,1,0,0,4.731H419.246a2.365,2.365,0,0,0,0-4.731Z" transform="translate(-206.26 -214.442)" fill="#273a57"/>
  <path id="Path_680-3" data-name="Path 680" d="M281.508,369.519a2.365,2.365,0,1,0,0,4.731H419.246a2.365,2.365,0,0,0,0-4.731Z" transform="translate(-206.26 -221.61)" fill="#273a57"/>
  <path id="Path_680-4" data-name="Path 680" d="M281.508,395.519a2.365,2.365,0,1,0,0,4.731H419.246a2.365,2.365,0,0,0,0-4.731Z" transform="translate(-206.26 -228.777)" fill="#273a57"/>
  <path id="Path_680-5" data-name="Path 680" d="M281.508,421.519a2.365,2.365,0,1,0,0,4.731H419.246a2.365,2.365,0,0,0,0-4.731Z" transform="translate(-206.26 -235.945)" fill="#273a57"/>
  <path id="Path_680-6" data-name="Path 680" d="M281.508,447.519a2.365,2.365,0,0,0,0,4.731H419.246a2.365,2.365,0,0,0,0-4.731Z" transform="translate(-206.26 -243.112)" fill="#273a57"/>
  <path id="Path_680-7" data-name="Path 680" d="M281.508,473.519a2.365,2.365,0,1,0,0,4.731H419.246a2.365,2.365,0,0,0,0-4.731Z" transform="translate(-206.26 -250.28)" fill="#273a57"/>
  <path id="Path_3241" data-name="Path 3241" d="M828.586,430.637H620.052a5.263,5.263,0,0,1-5.257-5.257V302.713a5.263,5.263,0,0,1,5.257-5.257H828.586a5.263,5.263,0,0,1,5.257,5.257V425.38A5.263,5.263,0,0,1,828.586,430.637Z" transform="translate(-298.539 -201.713)" fill="#273a57"/>
  <path id="Path_3242" data-name="Path 3242" d="M866.486,469.4H657.952a5.263,5.263,0,0,1-5.257-5.257V341.475a5.263,5.263,0,0,1,5.257-5.257H866.486a5.263,5.263,0,0,1,5.257,5.257V464.142A5.263,5.263,0,0,1,866.486,469.4Z" transform="translate(-309.007 -212.389)" fill="#01183a"/>
  <path id="Path_3243" data-name="Path 3243" d="M865.8,470.506H657.269a7.054,7.054,0,0,1-7.046-7.046V340.792a7.054,7.054,0,0,1,7.046-7.046H865.8a7.054,7.054,0,0,1,7.046,7.046V463.459A7.054,7.054,0,0,1,865.8,470.506ZM657.269,337.325a3.472,3.472,0,0,0-3.468,3.468V463.459a3.472,3.472,0,0,0,3.468,3.468H865.8a3.472,3.472,0,0,0,3.468-3.468V340.792a3.472,3.472,0,0,0-3.468-3.468Z" transform="translate(-308.324 -211.707)" fill="#fff"/>
  <circle id="Ellipse_208" data-name="Ellipse 208" cx="18.095" cy="18.095" r="18.095" transform="translate(434.734 188.647)" fill="#ff6583"/>
  <path id="Path_3244" data-name="Path 3244" d="M802.657,425.3a11.653,11.653,0,0,0-16.666-.3L727.3,483.689c-7.518,7.553-15.365-4-20.38-8.657-12.059-11.927-25.084,10.437-33.19,16.841H862.326v-2.4Z" transform="translate(-314.817 -235.953)" fill="#0b2d61"/>
  <path id="Path_3245" data-name="Path 3245" d="M524.25,492.057l-3.173-43.975,5.7-41.208-16.186-1.093-3.2,45.52,9.03,42.806a6.368,6.368,0,1,0,7.826-2.051Z" transform="translate(-269.129 -231.57)" fill="#9f616a"/>
  <path id="Path_3246" data-name="Path 3246" d="M508.955,403.942l3.8-16.449a12.665,12.665,0,0,1,24.925,4.268l-2.093,18.587Z" transform="translate(-269.556 -223.851)" fill="#bbceeb"/>
  <path id="Path_3247" data-name="Path 3247" d="M371.9,546.366h7.63l3.63-29.433H371.9Z" transform="translate(-102.522 -142.483)" fill="#9f616a"/>
  <path id="Path_3248" data-name="Path 3248" d="M547.665,719.471h15.028a9.577,9.577,0,0,1,9.577,9.576v.312h-24.6Z" transform="translate(-280.228 -318.079)" fill="#8aa1c5"/>
  <path id="Path_3249" data-name="Path 3249" d="M421.331,545.272l7.336-2.1-4.614-29.3-10.827,3.1Z" transform="translate(-113.913 -141.639)" fill="#9f616a"/>
  <path id="Path_3250" data-name="Path 3250" d="M599.342,718.279l14.447-4.138h0a9.577,9.577,0,0,1,11.844,6.57l.086.3-23.653,6.776Z" transform="translate(-294.473 -316.504)" fill="#8aa1c5"/>
  <path id="Path_3251" data-name="Path 3251" d="M540.484,636.286l3.55-89.159-9.219-40.349c-12.405-20.8.978-53.975,1.115-54.308l.05-.121.13-.018,32.45-4.4.456,1.046a155.4,155.4,0,0,1,10.1,92.3l-3.377,17.275,16.692,67.395-15.8,7.9-12.121-31.431-8.193,32.158Z" transform="translate(-275.222 -243.086)" fill="#8aa1c5"/>
  <path id="Path_3252" data-name="Path 3252" d="M527.119,438.5l-10.587-31.019c-6.581-11.59-2.407-21.879,2.254-28.47,5.033-7.117,5.336-11.108,5.4-11.152l.054-.036,13.909-.422,12.873,13.08c.81-.316,7.649,16.539,7.07,17.386l8.991,29.063Z" transform="translate(-270.698 -221.005)" fill="#bbceeb"/>
  <path id="Path_3253" data-name="Path 3253" d="M622.887,450.635l-34.874-26.975L561.12,391.92l-11.614,11.328L581.282,436l37.911,21.834a6.368,6.368,0,1,0,3.694-7.2Z" transform="translate(-280.715 -227.763)" fill="#9f616a"/>
  <path id="Path_3254" data-name="Path 3254" d="M540.358,410.544l-9.717-13.806A12.665,12.665,0,0,1,550.45,381.02L562.9,394.98Z" transform="translate(-274.896 -223.604)" fill="#bbceeb"/>
  <circle id="Ellipse_209" data-name="Ellipse 209" cx="16.517" cy="16.517" r="16.517" transform="translate(242.34 109.516)" fill="#9f616a"/>
  <path id="Path_3255" data-name="Path 3255" d="M549.029,322.434H522.8V311c5.756-2.287,11.39-4.232,14.794,0a11.432,11.432,0,0,1,11.432,11.432Z" transform="translate(-273.374 -204.788)" fill="#202020"/>
  <path id="Path_3256" data-name="Path 3256" d="M520.233,308.165c-24.03-.656-19.479,38.931-19.479,38.931s4.534.6,6.6.952l2.5-1.407,2.688,1.763c1.234.006,2.531-.018,3.875-.043l1.232-2.537,2.748,2.492c5,.007,18.578.145,18.578.145S547.156,308.9,520.233,308.165Z" transform="translate(-267.198 -204.687)" fill="#202020"/>
</svg>
