<svg id="seo-services" xmlns="http://www.w3.org/2000/svg" width="610" height="527.879" viewBox="0 0 610 527.879">
  <rect id="Rectangle_709" data-name="Rectangle 709" width="609.74" height="390.72" transform="translate(0.26 0.346)" fill="#273a57"/>
  <rect id="Rectangle_710" data-name="Rectangle 710" width="574.849" height="318.599" transform="translate(17.705 49.352)" fill="#01183a"/>
  <rect id="Rectangle_711" data-name="Rectangle 711" width="609.74" height="25.918" fill="#fff"/>
  <circle id="Ellipse_523" data-name="Ellipse 523" cx="4.804" cy="4.804" r="4.804" transform="translate(14.457 8.447)" fill="#273a57"/>
  <circle id="Ellipse_524" data-name="Ellipse 524" cx="4.804" cy="4.804" r="4.804" transform="translate(32.69 8.447)" fill="#273a57"/>
  <circle id="Ellipse_525" data-name="Ellipse 525" cx="4.804" cy="4.804" r="4.804" transform="translate(50.924 8.447)" fill="#273a57"/>
  <rect id="Rectangle_712" data-name="Rectangle 712" width="147.796" height="252.485" transform="translate(69.969 82.349)" fill="#273a57"/>
  <rect id="Rectangle_713" data-name="Rectangle 713" width="123.163" height="69.499" transform="translate(243.172 82.373)" fill="#fff"/>
  <rect id="Rectangle_714" data-name="Rectangle 714" width="123.163" height="74.778" transform="translate(243.172 171.186)" fill="#273a57"/>
  <rect id="Rectangle_715" data-name="Rectangle 715" width="123.163" height="69.499" transform="translate(243.172 265.277)" fill="#273a57"/>
  <rect id="Rectangle_716" data-name="Rectangle 716" width="147.796" height="110.032" transform="translate(392.773 82.369)" fill="#273a57"/>
  <rect id="Rectangle_717" data-name="Rectangle 717" width="147.796" height="110.032" transform="translate(392.773 224.753)" fill="#273a57"/>
  <path id="Path_4994" data-name="Path 4994" d="M755.712,379.073V355.385a31.742,31.742,0,1,1,63.484,0v23.688a4.269,4.269,0,0,1-4.264,4.264H759.976A4.269,4.269,0,0,1,755.712,379.073Z" transform="translate(-272.129 -178.791)" fill="#212121"/>
  <path id="Path_4995" data-name="Path 4995" d="M591.937,534.395l-11.2,3.1-17.279-41.708,16.524-4.573Z" transform="translate(-29.715 -25.981)" fill="#ffb8b8"/>
  <path id="Path_4996" data-name="Path 4996" d="M14.106,0h22.4V14.106H0A14.106,14.106,0,0,1,14.106,0Z" transform="translate(528.545 514.285) rotate(-15.47)" fill="#8aa1c5"/>
  <path id="Path_4997" data-name="Path 4997" d="M469.379,543.394H457.762l-5.527-44.807h17.146Z" transform="translate(-23.898 -26.368)" fill="#ffb8b8"/>
  <path id="Path_4998" data-name="Path 4998" d="M448.53,542.372h22.4v14.106H434.424A14.106,14.106,0,0,1,448.53,542.372Z" transform="translate(-22.96 -28.665)" fill="#8aa1c5"/>
  <path id="Path_4999" data-name="Path 4999" d="M700.672,451.452a9.528,9.528,0,0,0,14.584.869l30.88,13.889-2.809-17.37-28.894-10.526a9.58,9.58,0,0,0-13.762,13.138Z" transform="translate(-269.205 -184.733)" fill="#ffb8b8"/>
  <path id="Path_5000" data-name="Path 5000" d="M765.809,555.7c-9.7,0-19.746-1.445-28.188-5.743a36.4,36.4,0,0,1-18.674-22.329c-4.4-13.928,1.147-27.611,6.511-40.843,3.323-8.2,6.463-15.944,7.277-23.578l.284-2.71c1.269-12.173,2.364-22.687,8.43-26.63,3.144-2.044,7.372-2.161,12.925-.357l52.157,16.943-1.918,99.007-.317.106C804.023,549.659,785.637,555.7,765.809,555.7Z" transform="translate(-270.086 -184.551)" fill="#e4efff"/>
  <path id="Path_5001" data-name="Path 5001" d="M754.595,400.753s25.583-7.58,45.481-4.738c0,0-11.37,62.537-7.58,83.382s-65.853,8.054-51.64-11.844l4.738-23.688s-9.475-9.475-.947-20.846Z" transform="translate(-271.217 -182.592)" fill="#bbceeb"/>
  <path id="Path_5002" data-name="Path 5002" d="M740.436,552l-31.53-5.912,11.008-84.715c.74-2.365,17.793-56.04,25.537-58.944a132.2,132.2,0,0,1,17.213-4.782l1.122-.224-6.322,9.484-25.171,60.314Z" transform="translate(-269.743 -182.716)" fill="#e4efff"/>
  <path id="Path_5003" data-name="Path 5003" d="M722.587,693.006l-40.739-6.79,22.862-93.354L738.73,465.2l.336,2.267c.027.169,3.2,16.847,50.362,9.447l.415-.065.115.4,57,201.385-46.42,7.737L758.194,539.439Z" transform="translate(-268.481 -186.361)" fill="#8aa1c5"/>
  <path id="Path_5004" data-name="Path 5004" d="M784.436,567.685l.025-.717c.028-.8,2.831-79.945,1.9-111.777-.939-31.94,9.4-59.6,9.506-59.876l.084-.222.229-.066c13.379-3.822,24.985,7.585,25.1,7.7l.163.163-3.81,31.435,16.313,114.312Z" transform="translate(-273.665 -182.554)" fill="#e4efff"/>
  <circle id="Ellipse_526" data-name="Ellipse 526" cx="23.272" cy="23.272" r="23.272" transform="translate(485.551 157.447)" fill="#ffb8b8"/>
  <path id="Path_5005" data-name="Path 5005" d="M747.787,357.753A25.138,25.138,0,0,1,772.9,332.643h4.738a25.138,25.138,0,0,1,25.109,25.109v.474H792.731l-3.415-9.562-.683,9.562h-5.174l-1.723-4.825-.345,4.825h-33.6Z" transform="translate(-271.688 -179.263)" fill="#212121"/>
  <path id="Path_5006" data-name="Path 5006" d="M779.865,387.055a4.2,4.2,0,0,1-.334-4.46c5.021-9.549,12.05-27.194,2.72-38.076l-.671-.782h27.087v40.669l-24.607,4.342a4.352,4.352,0,0,1-.755.067,4.246,4.246,0,0,1-3.441-1.758Z" transform="translate(-273.345 -179.852)" fill="#212121"/>
  <path id="Path_5007" data-name="Path 5007" d="M653.16,210.579a127.935,127.935,0,1,0,7.253,188.94L817.341,531.934a11.789,11.789,0,0,0,15.223-18.006l-.017-.015L675.618,381.5a127.942,127.942,0,0,0-22.458-170.92ZM643.043,368.748A95.85,95.85,0,1,1,631.6,233.679h0a95.85,95.85,0,0,1,11.443,135.068Z" transform="translate(-255.934 -171.213)" fill="#f2f2f2"/>
  <path id="Path_5008" data-name="Path 5008" d="M509.143,384.118a95.855,95.855,0,0,1-16.265-128.853q-2.749,2.769-5.315,5.8A95.85,95.85,0,1,0,634.074,384.689q2.56-3.035,4.821-6.215a95.855,95.855,0,0,1-129.752,5.644Z" transform="translate(-256.859 -175.185)" opacity="0.18"/>
  <path id="Path_5009" data-name="Path 5009" d="M789.806,493.618a9.528,9.528,0,0,0,11.772-8.653l32.626-9.056-13.262-11.563-28.949,10.372a9.58,9.58,0,0,0-2.187,18.9Z" transform="translate(-273.561 -186.225)" fill="#ffb8b8"/>
  <path id="Path_5010" data-name="Path 5010" d="M804.416,485.6l-1.986-18.861L829.683,451.7,811.915,430.2l2.9-24.162,7.22-3.094.225.289c3.4,4.378,33.263,42.9,33.263,47.667,0,4.892-5.712,19.257-13.527,23.164-7.538,3.769-35.846,11.1-37.047,11.406Z" transform="translate(-274.809 -182.989)" fill="#e4efff"/>
</svg>
