<svg xmlns="http://www.w3.org/2000/svg" width="610" height="638.357" viewBox="0 0 610 638.357">
  <g id="social-media-marketing" transform="translate(-85.884)">
    <path id="Path_3374" data-name="Path 3374" d="M202.721,523.418h9.273l4.414-35.77H202.721Z" transform="translate(38.8 98.752)" fill="#9e616a"/>
    <path id="Path_3375" data-name="Path 3375" d="M478.357,695.138l14.816-.884V700.6l14.086,9.728a3.965,3.965,0,0,1-2.253,7.228H487.366l-3.04-6.279-1.187,6.279h-6.651Z" transform="translate(-239.863 -79.319)" fill="#0b2d61"/>
    <path id="Path_3376" data-name="Path 3376" d="M115.658,516.88l8.616,3.43,17.328-31.6-12.716-5.062Z" transform="translate(9.975 97.412)" fill="#9e616a"/>
    <path id="Path_3377" data-name="Path 3377" d="M395.261,688.513l14.092,4.658-2.348,5.9,9.489,14.248a3.965,3.965,0,0,1-4.767,5.882l-16.388-6.523-.5-6.958-3.425,5.395-6.179-2.46Z" transform="translate(-270.092 -81.242)" fill="#0b2d61"/>
    <path id="Path_3378" data-name="Path 3378" d="M488.871,662l-15.465-72.166-24.148,80.182-38.236,76.034-.2.4-12.112-6.521c-1.709-30.873,2.35-59.8,17.2-85.1l7.031-69.436c.215-2.373,5.46-58.073,22.068-67.95l4.864-11.09,48.374-11.947.176.2a36.982,36.982,0,0,1,8.861,18.574l14.454,87.566.008.049-3.876,61.087,5.3,90.124H503.986Q486.186,718.514,488.871,662Z" transform="translate(-265.701 -146.27)" fill="#0b2d61"/>
    <path id="Path_3379" data-name="Path 3379" d="M643.121,408.685c0,20.511,30.457,56.53,37.138,37.138,8.179-23.742,25.625-38.792,37.138-37.138,20.3,2.917-16.627-37.138-37.138-37.138a37.138,37.138,0,0,0-37.138,37.138Z" transform="translate(-184.619 -186.512)" fill="#e6e6e6"/>
    <path id="Path_3380" data-name="Path 3380" d="M637.45,323.89c-4.816,19.937,16.627,37.138,37.138,37.138a37.137,37.137,0,0,0,37.137-37.137c0-20.511-27.645-18.957-37.138-37.138C663.72,265.938,647.8,281.033,637.45,323.89Z" transform="translate(-186.719 -197.237)" fill="#e6e6e6"/>
    <path id="Path_3381" data-name="Path 3381" d="M508.725,322.927a37.138,37.138,0,0,0,37.138,37.138c20.51,0,37.734-16.636,37.138-37.138-1.249-42.949-17.887-59.779-37.138-37.138C532.578,301.416,508.725,302.417,508.725,322.927Z" transform="translate(-229.195 -197.836)" fill="#e6e6e6"/>
    <path id="Path_3382" data-name="Path 3382" d="M507.677,408.685c-17.332-7.492,12.769,30.9,37.138,37.138,19.871,5.083,37.138-16.627,37.138-37.138a37.138,37.138,0,0,0-37.138-37.138C524.3,371.548,526.5,416.825,507.677,408.685Z" transform="translate(-231.252 -186.508)" fill="#e6e6e6"/>
    <path id="Path_3383" data-name="Path 3383" d="M970.911,220.927H365.725a2.412,2.412,0,0,1,0-4.824H970.911a2.412,2.412,0,0,1,0,4.824Z" transform="translate(-277.434 -174.89)" fill="#cacaca"/>
    <ellipse id="Ellipse_232" data-name="Ellipse 232" cx="14.134" cy="14.45" rx="14.134" ry="14.45" transform="translate(115.446 0)" fill="#273a57"/>
    <ellipse id="Ellipse_233" data-name="Ellipse 233" cx="14.134" cy="14.45" rx="14.134" ry="14.45" transform="translate(164.274 0)" fill="#273a57"/>
    <ellipse id="Ellipse_234" data-name="Ellipse 234" cx="14.134" cy="14.45" rx="14.134" ry="14.45" transform="translate(212.816 0)" fill="#273a57"/>
    <path id="Path_3384" data-name="Path 3384" d="M806.76,187.914H772.075a2.627,2.627,0,1,0,0,5.253H806.76a2.627,2.627,0,1,0,0-5.253Z" transform="translate(-142.687 -184.333)" fill="#273a57"/>
    <path id="Path_3385" data-name="Path 3385" d="M806.76,195.3H772.075a2.627,2.627,0,1,0,0,5.253H806.76a2.627,2.627,0,1,0,0-5.253Z" transform="translate(-142.687 -181.859)" fill="#273a57"/>
    <path id="Path_3386" data-name="Path 3386" d="M806.76,202.673H772.075a2.627,2.627,0,1,0,0,5.253H806.76a2.627,2.627,0,1,0,0-5.253Z" transform="translate(-142.687 -179.389)" fill="#273a57"/>
    <path id="Path_3387" data-name="Path 3387" d="M682.266,299.621H632.59a7.862,7.862,0,0,0-7.862,7.862v49.676a7.862,7.862,0,0,0,7.862,7.862h49.676a7.862,7.862,0,0,0,7.862-7.862V307.483a7.862,7.862,0,0,0-7.862-7.862Zm-9.328,16.771h-5.7c-3.89,0-4.647,1.842-4.647,4.561v5.766h9.276l-1.2,9.053h-8.089v23.605a28.01,28.01,0,0,1-10.464-.025v-23.58H644.7v-9.053h7.556v-6.7c0-8,5.559-12.374,12.718-12.374,3.442,0,7.125.258,7.969.379Z" transform="translate(-190.697 -190.087)" fill="#1c55ac"/>
    <path id="Path_3388" data-name="Path 3388" d="M589.189,299.621H539.513a7.862,7.862,0,0,0-7.862,7.862v49.676a7.862,7.862,0,0,0,7.862,7.862h49.676a7.862,7.862,0,0,0,7.862-7.862V307.483a7.862,7.862,0,0,0-7.862-7.862ZM564.351,349.76a17.44,17.44,0,1,1,17.44-17.44,17.44,17.44,0,0,1-17.44,17.44Zm19.62-34.88a4.36,4.36,0,1,1,4.36-4.36,4.36,4.36,0,0,1-4.36,4.36Z" transform="translate(-221.581 -190.087)" fill="#ff6584"/>
    <path id="Path_3389" data-name="Path 3389" d="M679.269,387.508a9.69,9.69,0,0,1,9.459,11.459l18.56,12.077L702.7,424.113,676.729,406.69a9.743,9.743,0,0,1,2.54-19.182Z" transform="translate(-175.83 -181.181)" fill="#ffb6b6"/>
    <path id="Path_3390" data-name="Path 3390" d="M681.743,415.134l13.247-15.295,17.117,7.938,34.979,27.837c4.586.536,39.381,5.027,38.742,17.805a10.348,10.348,0,0,1-3.7,7.821c-5.492,4.533-15.01,3.247-15.365,3.194L743.992,463.3c-1.191.287-13.553,3.127-20.1-.937C721.911,461.127,681.743,415.134,681.743,415.134Z" transform="translate(-172.07 -177.112)" fill="#0b2d61"/>
    <path id="Path_3391" data-name="Path 3391" d="M436.943,529.191h-10.85l-5.161-41.849h16.012Z" transform="translate(111.26 98.649)" fill="#ffb6b6"/>
    <path id="Path_3392" data-name="Path 3392" d="M721.211,716.543H686.227V716.1a13.617,13.617,0,0,1,13.616-13.616h0l6.39-4.848,11.923,4.849h3.054Z" transform="translate(-170.237 -78.186)" fill="#01183a"/>
    <path id="Path_3393" data-name="Path 3393" d="M528.8,522.451l-10.458,2.889L502.22,486.375l15.435-4.263Z" transform="translate(138.166 96.898)" fill="#ffb6b6"/>
    <path id="Path_3394" data-name="Path 3394" d="M812.273,708.175l-33.722,9.314-.118-.427a13.618,13.618,0,0,1,9.5-16.751h0l4.869-6.375,12.784,1.5,2.944-.813Z" transform="translate(-139.843 -79.425)" fill="#01183a"/>
    <path id="Path_3395" data-name="Path 3395" d="M718.006,514.211l81.984,4.183.027.074a80.731,80.731,0,0,1,3.32,42.591h0l2.51,20.914,12.549,65.253,16.731,83.657s21.751,5.856-6.693,15.895-22.587,4.183-18.4-3.346-20.5-92.441-20.5-92.441l-30.116-67.762L730.136,653.5l-3.346,77.8s8.784,10.457-16.313,14.64-23.842-3.765-17.986-9.621,10.875-83.657,10.875-83.657l5.856-73.618S707.549,536.379,718.006,514.211Z" transform="translate(-169.65 -139.636)" fill="#01183a"/>
    <path id="Path_3396" data-name="Path 3396" d="M791.874,452.734l-6.592-17.289-21.227-20.907-26.883-2.11-19.758,17.69-5.587,17.6c7.328,33.93,7.178,65.181-3.205,95.457a15.257,15.257,0,0,0,11.793,20.105c30.456,5.118,87.167,12.792,83.261-1.817-5.167-19.325-23.145-60.921-16.486-82.916a103.246,103.246,0,0,0,4.544-23.535Z" transform="translate(-163.355 -173.045)" fill="#0b2d61"/>
    <circle id="Ellipse_235" data-name="Ellipse 235" cx="23.993" cy="23.993" r="23.993" transform="translate(558.744 184.902)" fill="#ffb6b6"/>
    <path id="Path_3397" data-name="Path 3397" d="M738.818,420.087l18.289-.933c2.343-.12,4.9-.327,6.606-1.939a10.008,10.008,0,0,0,2.073-3.444c1.691-3.927,3.382-7.855,5.029-11.8,2.279-5.458,4.517-11.221,3.936-17.107a10.886,10.886,0,0,0-3.164-7.136,6.043,6.043,0,0,0-7.345-.744,12.42,12.42,0,0,0-6.165-8.951,19.033,19.033,0,0,0-10.856-2.3,26.2,26.2,0,0,0-14.921,5.881,32.386,32.386,0,0,1-3.807,3.016,5.976,5.976,0,0,1-4.646.86,3.362,3.362,0,0,1-2.468-3.665,6.469,6.469,0,0,0-1.655,8.54,5.97,5.97,0,0,1-5.834-.69,7.132,7.132,0,1,0,7.48,12.073c1.11,1.555.7,3.667.552,5.572s.366,4.272,2.2,4.8c2.482.712,4.493-2.631,7.076-2.6a3.883,3.883,0,0,1,3.08,1.984,11.463,11.463,0,0,1,1.233,3.6l3.3,14.879" transform="translate(-162.627 -188.446)" fill="#333"/>
    <path id="Path_3398" data-name="Path 3398" d="M647.229,452.007a47.117,47.117,0,0,1-25.734-7.628l-3.853-2.5,4.567.507c1.2.133,2.485.211,3.83.23a32,32,0,0,0,17.36-5.1,18.074,18.074,0,0,1-13.336-12l-.572-1.763,1.818.357a15.185,15.185,0,0,0,2.506.282,17.675,17.675,0,0,1-9.588-15.675v-1.867l1.625.719a14.979,14.979,0,0,0,3.044,1.294,17.919,17.919,0,0,1-2.148-20.87l.794-1.37,1,1.229a45.508,45.508,0,0,0,29.089,16.466,2.191,2.191,0,0,0,1.758-.525,2.248,2.248,0,0,0,.774-1.7,17.546,17.546,0,0,1,29.977-12.517,32.354,32.354,0,0,0,9.557-3.753l2.5-1.482-.912,2.761a17.751,17.751,0,0,1-4.145,6.828,32.562,32.562,0,0,0,4.884-1.7l3.39-1.49-2.043,3.089a34.773,34.773,0,0,1-8,8.539v1.575c0,23.627-17.972,48.066-48.048,48.066Z" transform="translate(-193.083 -182.259)" fill="#71b6e4"/>
    <path id="Path_3399" data-name="Path 3399" d="M658.3,422.425a9.69,9.69,0,0,1,10,10.99l19.121,11.169-3.953,13.275-26.781-16.151a9.743,9.743,0,0,1,1.613-19.282Z" transform="translate(-182.635 -169.591)" fill="#ffb6b6"/>
    <path id="Path_3400" data-name="Path 3400" d="M676.391,464.082,662.11,448.628l9.9-14.8,10.67,8.952,11.666,2.791,16.461,6.241c2.292-4.008,20.073-34.253,31.576-28.652a10.347,10.347,0,0,1,5.743,6.471c2.015,6.83-2.9,15.08-3.089,15.387l-9.981,20.5c-.2,1.208-2.44,13.693-8.745,18.117a7.972,7.972,0,0,1-6.262,1.384c-19.591-3.705-33.4-9.435-40.441-16.724a21.47,21.47,0,0,1-3.216-4.211Z" transform="translate(-178.332 -169.6)" fill="#0b2d61"/>
    <path id="Path_3401" data-name="Path 3401" d="M497.343,418.819c-2.2-4.728,1.291-10.007,2.536-15.1,2.323-9.5-4.223-19.781-13.1-23.073s-19.07-.54-26.692,5.219c-7.472,5.646-12.725,8.305-17.871,16.282-1.726,2.675-3.554,10.98-3.88,14.184s1.331,6.875,4.353,7.577a3.5,3.5,0,0,0,3.62,5.05c5.784-1.117,16.407,1.954,16.407,1.954l29.714,1.7c2.538.145,5.171.277,7.452-1.125a5.066,5.066,0,0,0,2.425-3.471C502.89,424.269,498.858,422.079,497.343,418.819Z" transform="translate(-252.555 -183.939)" fill="#1d1d1d"/>
    <path id="Path_3402" data-name="Path 3402" d="M508.976,445.814l-2.167,14.426L503.372,483.1l-.582,8.469-4.277,62.068-11.78,9.062a35.022,35.022,0,0,1-46.53-3.414L425.9,552.394c7.667-7.542,6.241-42.5,6.241-42.5l-.086-68.656,19.391-6.521,6.387-12.574h22.914l5.728,13.366,10.4,4.755,4.735,2.177Z" transform="translate(-256.469 -169.812)" fill="#e6e6e6"/>
    <circle id="Ellipse_236" data-name="Ellipse 236" cx="19.374" cy="19.374" r="19.374" transform="translate(194.143 207.37)" fill="#9e616a"/>
    <path id="Path_3403" data-name="Path 3403" d="M454.441,404.136a24.793,24.793,0,0,1-14.3-4.512l-.14-.1h0a18.845,18.845,0,0,1,18.845-18.845h7.692a18.7,18.7,0,0,1,18.674,18.756,4.307,4.307,0,0,1-4.252,4.245l-26.076.449Z" transform="translate(-251.982 -183.437)" fill="#1d1d1d"/>
    <path id="Path_3404" data-name="Path 3404" d="M503.6,469.709l-17.549.144-1.29,31.235L470.5,518.544a9.542,9.542,0,1,0,11.02,10.83l19.642-27.229Z" transform="translate(-244.497 -153.931)" fill="#9e616a"/>
    <path id="Path_3405" data-name="Path 3405" d="M442.394,472.518l-17.989-8.409-19.644,24.319-21.852,5.526a9.542,9.542,0,1,0,2.4,15.263l32-10.168Z" transform="translate(-275.519 -155.764)" fill="#9e616a"/>
    <path id="Path_3406" data-name="Path 3406" d="M466.925,424.762l6.708-8.368a4.843,4.843,0,0,0,1.346-2.7c.035-1.023-.929-2.118-1.9-1.8-.9.3-6.1-12.727-7.05-12.725-.985,0-1.306-1.31-1.318-2.294-.047-3.731,2.985.275,3.988-3.318s4.911-.5,8.279-2.109,7.945-.876,10.027,2.22c1.544,2.3,1.487,5.278,1.282,8.037a126.207,126.207,0,0,1-2.881,19.013c-.355,1.537-.882,3.254-2.3,3.948a5.472,5.472,0,0,1-2.455.367l-10.328-.051" transform="translate(-243.769 -180.144)" fill="#1d1d1d"/>
    <circle id="Ellipse_237" data-name="Ellipse 237" cx="9.547" cy="9.547" r="9.547" transform="translate(229.684 189.606)" fill="#1d1d1d"/>
    <path id="Path_3407" data-name="Path 3407" d="M500.856,480.247c-1.031,1.795-3.227,2.511-5.232,3.065-2.711.754-3.5,1.518-6.215,2.272-1.079.305-2.167.611-3.256.888a46.042,46.042,0,0,1-5.432,1.117c-1.537.22-3.351.22-4.354-.974a5.018,5.018,0,0,1-.754-3.466q.587-22,1.184-43.995l.831.286a10.788,10.788,0,0,1,1.165-.668,13.076,13.076,0,0,1,6.177-1.423,12.554,12.554,0,0,1,3.619.563,13.144,13.144,0,0,1,8.154,7.466,22.958,22.958,0,0,1,1.337,8.3c.01.43.01.859.019,1.289.057,3.666-1.8,7.333-1.747,11a8.616,8.616,0,0,0,.42,3.046c.382.974,1.127,1.785,1.413,2.8s-.181,2.377-1.222,2.454a4.007,4.007,0,0,1,3.9,5.986Z" transform="translate(-240.168 -164.649)" fill="#e6e6e6"/>
    <path id="Path_3408" data-name="Path 3408" d="M437.876,436.532A13,13,0,0,1,449.692,452.7a26.1,26.1,0,0,1-4.625,8.5l-6.417,8.931a8.554,8.554,0,0,0-1.478,2.691c-.27,1.013-.163,2.111-.533,3.091s-1.561,1.8-2.445,1.241a4.011,4.011,0,0,1-.431,7.132c-1.9.831-4.091.089-6.032-.653l-7.88-3.016a65.39,65.39,0,0,1-8.174-3.563c-1.364-.749-2.82-1.827-2.917-3.38-.076-1.209.947-2.138,1.459-3.235,6.418-13.74,15.855-24.674,27.577-33.99Z" transform="translate(-262.212 -164.946)" fill="#e6e6e6"/>
    <path id="Path_3409" data-name="Path 3409" d="M459.323,502.1c0-7.683-5.662-13.874-12.745-13.874-9.486-.455-19.135-.619-29-.619H414.5c-9.85,0-19.536.164-29,.619-6.973,0-12.636,6.209-12.636,13.91-.437,6.1-.619,12.18-.6,18.207s.164,12.18.583,18.207c0,7.7,5.662,13.946,12.636,13.946,9.941.455,20.155.656,30.533.656s20.574-.182,30.551-.656c6.991,0,12.745-6.245,12.745-13.946.4-6.1.6-12.18.582-18.3s-.164-12.162-.564-18.207Zm-51.58,35.085V503.58l24.8,16.787Z" transform="translate(-274.44 -147.988)" fill="#fb7878"/>
  </g>
</svg>
