<svg xmlns="http://www.w3.org/2000/svg" width="610" height="688.031" viewBox="0 0 610 688.031">
  <g id="mobile-app" transform="translate(-98.355)">
    <rect id="Rectangle_346" data-name="Rectangle 346" width="377.958" height="688.031" rx="58.728" transform="translate(104.732)" fill="#fff"/>
    <path id="Path_3257" data-name="Path 3257" d="M715.725,218.993V770.96a61.756,61.756,0,0,1-61.714,61.655H412.234A61.756,61.756,0,0,1,350.52,770.96V218.993a61.756,61.756,0,0,1,61.714-61.655H443.85v10.911a18.635,18.635,0,0,0,18.642,18.625h141.26a18.635,18.635,0,0,0,18.643-18.624V157.338h31.616A61.756,61.756,0,0,1,715.725,218.993Z" transform="translate(-239.412 -150.958)" fill="#273a57"/>
    <path id="Path_3258" data-name="Path 3258" d="M612.154,433.992c-14.016-6.319-29.64,7.985-19.243,21.368-35.126,32-87.283,43.254-132.69,29.87-1.12,2.7-2.3,5.371-3.5,8.042a329.122,329.122,0,0,1-76.024,105.75c42.306-35.183,94.434-5.457,139.267,6.118A15.93,15.93,0,0,1,527,633.459a91.567,91.567,0,0,0-17.635-4.6,13.89,13.89,0,0,0-12.35,23.092c-46.959,22.517-105.377,14.217-145.673-18.123V614.618a330.682,330.682,0,0,0,99.116-124.275,325.685,325.685,0,0,0,19.071-53.248,309.54,309.54,0,0,0,9.65-61.061c-7.726-22.776-6.433-49.515,6.433-70.194,5.313,9.65,20.622,12.149,22.23-1.235.345-5.4.6-10.8.919-16.17,57.7-4.452,47.849,76.34-22.747,88.977a324.88,324.88,0,0,1-10.052,61.434c-.488,2.011-1.034,3.992-1.608,5.974a138.016,138.016,0,0,1,49.314-41.76c18.64-8.731,40.353-10.6,61.061-13.958C609.914,384.994,627.75,413.773,612.154,433.992Z" transform="translate(-239.281 -130.417)" fill="#01183a" opacity="0.5"/>
    <path id="Path_3259" data-name="Path 3259" d="M344.158,274.885a4.643,4.643,0,0,1-4.638-4.638v-9.275a4.638,4.638,0,0,1,9.275,0v9.275A4.643,4.643,0,0,1,344.158,274.885Z" transform="translate(-241.165 -135.296)" fill="#01183a"/>
    <path id="Path_3260" data-name="Path 3260" d="M344.158,318.142a4.643,4.643,0,0,1-4.638-4.638V287.973a4.638,4.638,0,0,1,9.275,0V313.5a4.643,4.643,0,0,1-4.638,4.638Z" transform="translate(-241.165 -131.026)" fill="#01183a"/>
    <path id="Path_3261" data-name="Path 3261" d="M344.158,351.12a4.643,4.643,0,0,1-4.638-4.638V320.952a4.638,4.638,0,0,1,9.275,0v25.531a4.643,4.643,0,0,1-4.638,4.637Z" transform="translate(-241.165 -125.808)" fill="#01183a"/>
    <path id="Path_3262" data-name="Path 3262" d="M672.158,338.174a4.643,4.643,0,0,1-4.638-4.638v-62.3a4.638,4.638,0,0,1,9.275,0v62.3a4.643,4.643,0,0,1-4.638,4.637Z" transform="translate(-189.248 -133.682)" fill="#01183a"/>
    <path id="Path_3263" data-name="Path 3263" d="M521.951,170.978H486.01a2.9,2.9,0,0,1,0-5.8h35.941a2.9,2.9,0,0,1,0,5.8Z" transform="translate(-218.446 -149.708)" fill="#fff"/>
    <circle id="Ellipse_210" data-name="Ellipse 210" cx="2.319" cy="2.319" r="2.319" transform="translate(319.696 16.053)" fill="#fff"/>
    <path id="Path_3270" data-name="Path 3270" d="M448.152,712.362H407.885A19.887,19.887,0,0,1,388.02,692.5V652.23a19.887,19.887,0,0,1,19.865-19.865h40.268a19.887,19.887,0,0,1,19.865,19.865V692.5a19.887,19.887,0,0,1-19.865,19.864Z" transform="translate(-233.435 -75.889)" fill="#fff"/>
    <path id="Path_3271" data-name="Path 3271" d="M533.652,712.862H493.385A19.887,19.887,0,0,1,473.52,693V652.73a19.887,19.887,0,0,1,19.865-19.865h40.268a19.887,19.887,0,0,1,19.865,19.865V693a19.887,19.887,0,0,1-19.865,19.864Z" transform="translate(-219.974 -75.81)" fill="#01183a"/>
    <path id="Path_3272" data-name="Path 3272" d="M619.152,713.362H578.885A19.887,19.887,0,0,1,559.02,693.5V653.23a19.887,19.887,0,0,1,19.865-19.865h40.268a19.887,19.887,0,0,1,19.865,19.865V693.5A19.887,19.887,0,0,1,619.152,713.362Z" transform="translate(-206.454 -75.73)" fill="#01183a"/>
    <g id="Group_623" data-name="Group 623" transform="translate(266.873 511.996)">
      <circle id="Ellipse_211" data-name="Ellipse 211" cx="5.797" cy="5.797" r="5.797" fill="#01183a"/>
      <circle id="Ellipse_212" data-name="Ellipse 212" cx="5.797" cy="5.797" r="5.797" transform="translate(20.869)" fill="#01183a"/>
      <circle id="Ellipse_213" data-name="Ellipse 213" cx="5.797" cy="5.797" r="5.797" transform="translate(41.738)" fill="#01183a"/>
    </g>
    <path id="Path_3273" data-name="Path 3273" d="M668.958,727.528H391.976a23.849,23.849,0,0,1-23.822-23.822v-59.02a23.849,23.849,0,0,1,23.822-23.822H668.958a23.849,23.849,0,0,1,23.822,23.822v59.02A23.849,23.849,0,0,1,668.958,727.528ZM391.976,623.184a21.528,21.528,0,0,0-21.5,21.5v59.02a21.528,21.528,0,0,0,21.5,21.5H668.958a21.528,21.528,0,0,0,21.5-21.5v-59.02a21.528,21.528,0,0,0-21.5-21.5Z" transform="translate(-236.601 -77.722)" fill="#8aa1c5"/>
    <path id="Path_3274" data-name="Path 3274" d="M839.7,281.538a8.979,8.979,0,0,0-7.531,10.005,8.617,8.617,0,0,0,.318,1.388L807.566,311.9l5.178,16.034,31.333-29.682a8.954,8.954,0,0,0,5.518-9.436,8.569,8.569,0,0,0-9.658-7.318Q839.819,281.518,839.7,281.538Z" transform="translate(-167.136 -131.332)" fill="#ffb6b6"/>
    <path id="Path_3275" data-name="Path 3275" d="M686.989,366.187h0a15.075,15.075,0,0,0,15.294,14.459l47.058-.72,59.507-27.6s19.406-16.471,24.816-16.859,8.292,4.646,7.065.05-2.848-7.673,1.31-7.244,3.5-8.053,4.416-11.261-11.728-14.787-11.728-14.787-9.115.176-9.711,1.374,1.479,4.215-3.419,4.086-8.639.077-8.791,2.351.2,4.047-2.51,5.808-14.965,10.842-14.965,10.842l-96.938,24.259a15.075,15.075,0,0,0-11.4,15.239Z" transform="translate(-186.356 -128.049)" fill="#8aa1c5"/>
    <path id="Path_3276" data-name="Path 3276" d="M467.555,581.579h12.8l6.089-49.36H467.555Z" transform="translate(58.432 84.185)" fill="#ffb6b6"/>
    <path id="Path_3277" data-name="Path 3277" d="M705.472,719.238l20.445-1.22v8.759L745.354,740.2a5.471,5.471,0,0,1-3.109,9.974H717.9l-4.2-8.664-1.638,8.664h-9.177Z" transform="translate(-183.673 -62.238)" fill="#8aa1c5"/>
    <path id="Path_3278" data-name="Path 3278" d="M491.727,309.521l6.956-42.9L449.989,255.03v44.44Z" transform="translate(55.631 40.348)" fill="#ffb6b6"/>
    <path id="Path_3279" data-name="Path 3279" d="M674.654,489.365l23.807,154.751s-1.4,67.257,9.425,82.626l2.709,16.528h24.425s-.45-10.151,2.055-16.09,5.983-2,2.5-7.449-3.85-4.843-2.5-9.2S739.2,508.523,739.2,508.523Z" transform="translate(-188.157 -98.681)" fill="#8aa1c5"/>
    <path id="Path_3280" data-name="Path 3280" d="M446,513.173l7.415,10.429,43.756-23.639L486.223,484.57Z" transform="translate(54.998 76.59)" fill="#ffb6b6"/>
    <path id="Path_3281" data-name="Path 3281" d="M694.906,653.759l12.841,15.955-7.139,5.076.323,23.62a5.471,5.471,0,0,1-9.93,3.246l-14.1-19.837,4.63-8.44-8.01,3.686-5.318-7.479Z" transform="translate(-189.159 -72.48)" fill="#8aa1c5"/>
    <path id="Path_3282" data-name="Path 3282" d="M692.39,422.865l-.332,17.955s-44.008,38.619-10.824,85.692c0,0,4.181,13.552,9.987,12.922s8.763,2.609,7.284,5.627S753.444,584.8,753.444,584.8s-37.185,81.982-45.983,100.09l5.8,18.55s-3.071,7.175,1.653,4.457,2.4-3.089,7.62-4.063,11.653-3.211,11.335-4.411S798.774,597.3,798.774,597.3s15.629-16.626,4.186-36.111c-1.588-.356-1.63,0-1.63,0l-55.937-63.7-6.628-42.16Z" transform="translate(-189.244 -109.28)" fill="#8aa1c5"/>
    <path id="Path_3283" data-name="Path 3283" d="M741.1,325.407,712.926,312.2l-8.436,14.678s-22.656,32.331-22.985,55.656,3.692,30.261,3.692,30.261-9.769,7.3-4.884,11.767,15.7,6.39,7.392,8.326-6.2,21.528,3.075,25.006,59.087,3.448,59.087,3.448a8.871,8.871,0,0,1,2.191-8.735c3.862-3.871,7.34-1.093,3.862-7.119s-9.275-2.548-4.638-10.664,4.636-10.541,4.636-10.541,11.3-19.479-4.786-37.511-.138-1.236-.138-1.236L739.5,347Z" transform="translate(-187.489 -126.497)" fill="#8aa1c5"/>
    <path id="Path_3284" data-name="Path 3284" d="M839.287,432.862H799.018A19.887,19.887,0,0,1,779.153,413V372.73a19.887,19.887,0,0,1,19.865-19.865h40.268a19.887,19.887,0,0,1,19.865,19.865V413a19.887,19.887,0,0,1-19.864,19.864Z" transform="translate(-171.664 -120.041)" fill="#fff"/>
    <path id="Path_3285" data-name="Path 3285" d="M857.287,300.862H817.018A19.887,19.887,0,0,1,797.153,281V240.73a19.887,19.887,0,0,1,19.865-19.865h40.268A19.887,19.887,0,0,1,877.15,240.73V281a19.887,19.887,0,0,1-19.864,19.864Z" transform="translate(-168.795 -140.833)" fill="#fff"/>
    <path id="Path_9" data-name="Path 9" d="M765.235,319.359l.024,0a4.936,4.936,0,0,0,4.32-5.482l-3.227-27.353a36.81,36.81,0,0,0-4.567-13.926,37.4,37.4,0,0,0-21.831-17.316,36.83,36.83,0,0,0-14.71-1.268c-20.2,2.351-26.557,8.023-32.326,40.84s3.231,27.4,3.231,27.4a4.942,4.942,0,0,0,.615,1.873,5.024,5.024,0,0,0,2.939,2.325,4.962,4.962,0,0,0,1.967.169c24.682.941,49.642,2.149,63.566-7.254Z" transform="translate(-185.583 -135.713)" fill="#212121"/>
    <path id="Ellipse_1" data-name="Ellipse 1" d="M709.366,281.664a27.15,27.15,0,0,0,35.76,35.162,26.834,26.834,0,0,0,14.515-14.733A27.15,27.15,0,0,0,723.9,266.938a26.834,26.834,0,0,0-14.537,14.726Z" transform="translate(-182.969 -133.963)" fill="#ffb6b6"/>
    <path id="Path_10" data-name="Path 10" d="M772.466,286.615a29.116,29.116,0,0,0-3.612-11.014c-2.172-8.844-6.479-16.353-17.263-13.691a29.13,29.13,0,0,0-11.559-1.007l-5.478.618-.185.021a29.068,29.068,0,0,0-25.443,32.289l.065.548,11.587-1.319,2.648-11.5,2.094,10.961,5.985-.679,1.335-5.8,1.057,5.526c10.344,5.8,23.628,3.38,38.829-4.4Z" transform="translate(-182.766 -134.606)" fill="#212121"/>
    <path id="Path_13" data-name="Path 13" d="M742.534,318.01a4.857,4.857,0,0,1,.109,2.672,4.968,4.968,0,0,1-.5,1.291,5.023,5.023,0,0,1-.7.955,4.927,4.927,0,0,1-3.043,1.531q-.109.012-.218.02t-.219.01q-.111,0-.221,0t-.223-.009l-4.2-.262-7.089-11.428,1.307,11.08-19.086-1.16L702.9,275.693l31.349-3.545-.668.991a21.7,21.7,0,0,0-3.628,11.179,35.372,35.372,0,0,0,1.635,11.922,63.789,63.789,0,0,0,4.713,11.276,94.008,94.008,0,0,0,5.61,9.256A4.964,4.964,0,0,1,742.534,318.01Z" transform="translate(-183.668 -132.8)" fill="#212121"/>
    <path id="Path_3286" data-name="Path 3286" d="M804.124,349.23a8.978,8.978,0,0,0-5.146,11.417,8.617,8.617,0,0,0,.615,1.284l-20.139,23.992,8.578,14.5,24.035-35.848a8.953,8.953,0,0,0,3.307-10.419,8.568,8.568,0,0,0-11.032-5.014Q804.233,349.186,804.124,349.23Z" transform="translate(-171.616 -120.705)" fill="#ffb6b6"/>
    <path id="Path_3287" data-name="Path 3287" d="M711.012,345.182h0a15.5,15.5,0,0,0-6.669,22.5l19.3,30.109,45.216,40.578s37.1-26.666,38.26-35.941-2.319-11.594,1.159-9.275,6.956,1.159,5.8,0-.7-1.232.227-2.935,4.41-9.818,4.41-9.818l-12.32-12.173s-13.187,6.377-14.346,9.855,3.478,2.319-1.159,3.478-10.833-4.1-6,1.429,4.438,7.929,0,7.887-12.554,11.553-12.554,11.553l-42.9-52.881a15.5,15.5,0,0,0-18.424-4.361Z" transform="translate(-183.978 -121.479)" fill="#8aa1c5"/>
    <path id="Path_3290" data-name="Path 3290" d="M424.206,182.5H392.9a5.8,5.8,0,1,1,0-11.594h31.3a5.8,5.8,0,0,1,0,11.594Z" transform="translate(-233.581 -148.796)" fill="#e6e6e6"/>
    <circle id="Ellipse_214" data-name="Ellipse 214" cx="5.217" cy="5.217" r="5.217" transform="translate(390.342 22.693)" fill="#e6e6e6"/>
    <circle id="Ellipse_215" data-name="Ellipse 215" cx="5.217" cy="5.217" r="5.217" transform="translate(406.558 22.693)" fill="#e6e6e6"/>
    <circle id="Ellipse_216" data-name="Ellipse 216" cx="5.217" cy="5.217" r="5.217" transform="translate(422.774 22.693)" fill="#e6e6e6"/>
    <circle id="Ellipse_217" data-name="Ellipse 217" cx="13.913" cy="13.913" r="13.913" transform="translate(213.121 199.884)" fill="#01183a"/>
    <circle id="Ellipse_218" data-name="Ellipse 218" cx="13.913" cy="13.913" r="13.913" transform="translate(313.889 551.888)" fill="#fff" opacity="0.2"/>
    <g id="Group_622" data-name="Group 622" transform="translate(153.426 92.205)" opacity="0.2">
      <path id="Path_3264" data-name="Path 3264" d="M448.312,313.681H408.043a21.048,21.048,0,0,1-21.024-21.024V252.389a21.048,21.048,0,0,1,21.024-21.024h40.268a21.048,21.048,0,0,1,21.025,21.024v40.268A21.048,21.048,0,0,1,448.312,313.681Zm-40.268-80a18.727,18.727,0,0,0-18.705,18.705v40.268a18.727,18.727,0,0,0,18.705,18.705h40.268a18.727,18.727,0,0,0,18.705-18.705V252.389a18.727,18.727,0,0,0-18.705-18.705Z" transform="translate(-387.019 -231.365)" fill="#fff"/>
      <path id="Path_3265" data-name="Path 3265" d="M533.812,314.181H493.543a21.048,21.048,0,0,1-21.024-21.024V252.889a21.048,21.048,0,0,1,21.024-21.024h40.268a21.048,21.048,0,0,1,21.025,21.024v40.268A21.048,21.048,0,0,1,533.812,314.181Zm-40.268-80a18.727,18.727,0,0,0-18.7,18.705v40.268a18.727,18.727,0,0,0,18.705,18.705h40.268a18.727,18.727,0,0,0,18.705-18.705V252.889a18.727,18.727,0,0,0-18.705-18.705Z" transform="translate(-373.392 -231.286)" fill="#fff"/>
      <path id="Path_3266" data-name="Path 3266" d="M619.312,314.681H579.043a21.048,21.048,0,0,1-21.024-21.024V253.389a21.048,21.048,0,0,1,21.024-21.024h40.268a21.048,21.048,0,0,1,21.025,21.024v40.268a21.048,21.048,0,0,1-21.024,21.024Zm-40.268-80a18.727,18.727,0,0,0-18.7,18.705v40.268a18.727,18.727,0,0,0,18.705,18.705h40.268a18.726,18.726,0,0,0,18.705-18.705V253.389a18.726,18.726,0,0,0-18.705-18.705Z" transform="translate(-359.765 -231.206)" fill="#fff"/>
      <path id="Path_3267" data-name="Path 3267" d="M448.312,412.681H408.043a21.048,21.048,0,0,1-21.024-21.024V351.389a21.048,21.048,0,0,1,21.024-21.024h40.268a21.048,21.048,0,0,1,21.025,21.024v40.268A21.048,21.048,0,0,1,448.312,412.681Zm-40.268-80a18.727,18.727,0,0,0-18.705,18.705v40.268a18.727,18.727,0,0,0,18.705,18.705h40.268a18.727,18.727,0,0,0,18.705-18.705V351.389a18.727,18.727,0,0,0-18.705-18.705Z" transform="translate(-387.019 -215.586)" fill="#fff"/>
      <path id="Path_3268" data-name="Path 3268" d="M533.812,413.181H493.543a21.048,21.048,0,0,1-21.024-21.024V351.889a21.048,21.048,0,0,1,21.024-21.024h40.268a21.048,21.048,0,0,1,21.025,21.024v40.268a21.048,21.048,0,0,1-21.024,21.024Zm-40.268-80a18.727,18.727,0,0,0-18.7,18.705v40.268a18.727,18.727,0,0,0,18.705,18.705h40.268a18.727,18.727,0,0,0,18.705-18.705V351.889a18.727,18.727,0,0,0-18.705-18.705Z" transform="translate(-373.392 -215.507)" fill="#fff"/>
      <path id="Path_3269" data-name="Path 3269" d="M619.312,413.681H579.043a21.048,21.048,0,0,1-21.024-21.024V352.389a21.048,21.048,0,0,1,21.024-21.024h40.268a21.048,21.048,0,0,1,21.025,21.024v40.268A21.048,21.048,0,0,1,619.312,413.681Zm-40.268-80a18.727,18.727,0,0,0-18.7,18.705v40.268a18.727,18.727,0,0,0,18.705,18.705h40.268a18.726,18.726,0,0,0,18.705-18.705V352.389a18.726,18.726,0,0,0-18.705-18.705Z" transform="translate(-359.765 -215.427)" fill="#fff"/>
      <path id="Path_3291" data-name="Path 3291" d="M448.312,511.681H408.043a21.048,21.048,0,0,1-21.024-21.024V450.389a21.048,21.048,0,0,1,21.024-21.024h40.268a21.048,21.048,0,0,1,21.025,21.024v40.268A21.048,21.048,0,0,1,448.312,511.681Zm-40.268-80a18.727,18.727,0,0,0-18.705,18.705v40.268a18.726,18.726,0,0,0,18.705,18.705h40.268a18.726,18.726,0,0,0,18.705-18.705V450.389a18.727,18.727,0,0,0-18.705-18.705Z" transform="translate(-387.019 -199.808)" fill="#fff"/>
      <path id="Path_3292" data-name="Path 3292" d="M533.812,512.181H493.543a21.048,21.048,0,0,1-21.024-21.024V450.889a21.048,21.048,0,0,1,21.024-21.024h40.268a21.048,21.048,0,0,1,21.025,21.024v40.268A21.048,21.048,0,0,1,533.812,512.181Zm-40.268-80a18.727,18.727,0,0,0-18.7,18.705v40.268a18.726,18.726,0,0,0,18.705,18.705h40.268a18.726,18.726,0,0,0,18.705-18.705V450.889a18.727,18.727,0,0,0-18.705-18.705Z" transform="translate(-373.392 -199.728)" fill="#fff"/>
      <path id="Path_3293" data-name="Path 3293" d="M619.312,512.681H579.043a21.048,21.048,0,0,1-21.024-21.024V451.389a21.048,21.048,0,0,1,21.024-21.024h40.268a21.048,21.048,0,0,1,21.025,21.024v40.268a21.048,21.048,0,0,1-21.024,21.024Zm-40.268-80a18.727,18.727,0,0,0-18.7,18.706v40.268a18.726,18.726,0,0,0,18.705,18.705h40.268a18.726,18.726,0,0,0,18.705-18.705V451.389a18.726,18.726,0,0,0-18.705-18.705Z" transform="translate(-359.765 -199.648)" fill="#fff"/>
    </g>
    <circle id="Ellipse_219" data-name="Ellipse 219" cx="13.913" cy="13.913" r="13.913" transform="translate(313.889 316.868)" fill="#01183a"/>
  </g>
</svg>
