<svg xmlns="http://www.w3.org/2000/svg" width="610.539" height="368.533" viewBox="0 0 610.539 368.533">
  <g id="mongodb-data" transform="translate(0.039)">
    <rect id="Rectangle_444" data-name="Rectangle 444" width="251.325" height="51.711" transform="translate(265.248 53.811)" fill="none" stroke="#ccc" stroke-miterlimit="10" stroke-width="1"/>
    <path id="Path_3694" data-name="Path 3694" d="M250.224,357.254c7.167-11.2,20.736-18.754,36.3-18.754,23.031,0,41.7,16.555,41.7,36.976,0,13.056-7.632,24.532-19.157,31.112" transform="translate(-134.852 -230.099)" fill="none" stroke="#ccc" stroke-miterlimit="10" stroke-width="1"/>
    <rect id="Rectangle_445" data-name="Rectangle 445" width="251.325" height="51.711" transform="translate(247.465 63.727)" fill="#0b2d61"/>
    <circle id="Ellipse_319" data-name="Ellipse 319" cx="3.892" cy="3.892" r="3.892" transform="translate(84.833 6.616)" fill="#01183a"/>
    <circle id="Ellipse_320" data-name="Ellipse 320" cx="3.892" cy="3.892" r="3.892" transform="translate(98.178 6.616)" fill="#01183a"/>
    <circle id="Ellipse_321" data-name="Ellipse 321" cx="3.892" cy="3.892" r="3.892" transform="translate(111.523 6.616)" fill="#01183a"/>
    <path id="Path_3776" data-name="Path 3776" d="M0,0H466.885V303.978H0Z" transform="translate(78.161 0.5)" fill="none" stroke="#ccc" stroke-width="1"/>
    <path id="Path_3775" data-name="Path 3775" d="M0,0H466.885" transform="translate(78.161 17.367)" fill="none" stroke="#ccc" stroke-width="1"/>
    <circle id="Ellipse_322" data-name="Ellipse 322" cx="3.892" cy="3.892" r="3.892" transform="translate(85.946 4.948)" fill="none" stroke="#ccc" stroke-miterlimit="10" stroke-width="1"/>
    <circle id="Ellipse_323" data-name="Ellipse 323" cx="3.892" cy="3.892" r="3.892" transform="translate(99.29 4.948)" fill="none" stroke="#ccc" stroke-miterlimit="10" stroke-width="1"/>
    <circle id="Ellipse_324" data-name="Ellipse 324" cx="3.892" cy="3.892" r="3.892" transform="translate(112.635 4.948)" fill="none" stroke="#ccc" stroke-miterlimit="10" stroke-width="1"/>
    <path id="Path_3695" data-name="Path 3695" d="M61.787,330.047a12.021,12.021,0,1,0-14.812-17.739l4.5,4.255-5.784-1.8a11.976,11.976,0,0,0,.238,9.158,11.788,11.788,0,0,0,1.753,2.825A12.019,12.019,0,0,0,61.787,330.047Z" transform="translate(-43.652 -216.119)" fill="#e4efff"/>
    <path id="Path_3696" data-name="Path 3696" d="M131.418,356.751c-4.39-3.08-4.391-9.546-3.3-14.8s2.755-10.979.28-15.736c-3.557-6.837-12.908-7.248-20.58-7.978a72.37,72.37,0,0,1-16.708-3.622A19.524,19.524,0,0,1,85,311.547c-2.556-2.09-4.056-5.172-5.456-8.163q-7-14.943-13.283-30.2" transform="translate(-53.135 -201.087)" fill="none" stroke="#273a57" stroke-miterlimit="10" stroke-width="1"/>
    <path id="Path_3697" data-name="Path 3697" d="M60.445,327.363a12.021,12.021,0,1,0-14.812-17.739l4.5,4.255-5.784-1.8a11.976,11.976,0,0,0,.238,9.158,11.786,11.786,0,0,0,1.753,2.824,12.019,12.019,0,0,0,14.1,3.3Z" transform="translate(-43.056 -214.927)" fill="none" stroke="#273a57" stroke-miterlimit="10" stroke-width="1"/>
    <path id="Path_3698" data-name="Path 3698" d="M46.758,272.3a12.007,12.007,0,0,1,.962-11.491l4.788,3.557-2.955-5.727a12.019,12.019,0,1,1-2.795,13.66Z" transform="translate(-44.02 -193.192)" fill="#e4efff"/>
    <path id="Path_3699" data-name="Path 3699" d="M44.969,268.723a12.007,12.007,0,0,1,.962-11.491l4.788,3.557-2.955-5.727a12.019,12.019,0,1,1-2.795,13.66Z" transform="translate(-43.226 -191.604)" fill="none" stroke="#273a57" stroke-miterlimit="10" stroke-width="1"/>
    <path id="Path_3700" data-name="Path 3700" d="M124.925,338.629a12.019,12.019,0,0,0-7.136-22.793l2.271,4.4-4.843-3.6-.03.013a12.02,12.02,0,1,0,9.738,21.98Z" transform="translate(-71.682 -219.933)" fill="#e4efff"/>
    <path id="Path_3701" data-name="Path 3701" d="M122.987,335.126a12.019,12.019,0,0,0-7.136-22.793l2.271,4.4-4.843-3.6-.03.013a12.02,12.02,0,1,0,9.738,21.98Z" transform="translate(-70.822 -218.377)" fill="none" stroke="#273a57" stroke-miterlimit="10" stroke-width="1"/>
    <path id="Path_3702" data-name="Path 3702" d="M143.115,381.152a12.014,12.014,0,1,0-4.848-8.394l9.446,2.106-8.242,1.982A11.908,11.908,0,0,0,143.115,381.152Z" transform="translate(-85.073 -239.397)" fill="#e4efff"/>
    <path id="Path_3703" data-name="Path 3703" d="M141.773,378.468a12.014,12.014,0,1,0-4.848-8.394l9.446,2.106-8.242,1.982A11.908,11.908,0,0,0,141.773,378.468Z" transform="translate(-84.478 -238.205)" fill="none" stroke="#273a57" stroke-miterlimit="10" stroke-width="1"/>
    <path id="Path_3713" data-name="Path 3713" d="M144.787,244.047a12.021,12.021,0,1,0-14.812-17.739l4.5,4.255-5.784-1.8a11.975,11.975,0,0,0,.238,9.158,11.787,11.787,0,0,0,1.753,2.824A12.019,12.019,0,0,0,144.787,244.047Z" transform="translate(-80.501 -177.908)" fill="#e4efff"/>
    <path id="Path_3714" data-name="Path 3714" d="M168,225.547c-2.556-2.09-4.056-5.172-5.456-8.163q-7-14.943-13.283-30.2" transform="translate(-89.985 -162.879)" fill="none" stroke="#273a57" stroke-miterlimit="10" stroke-width="1"/>
    <path id="Path_3715" data-name="Path 3715" d="M143.446,241.363a12.021,12.021,0,1,0-14.812-17.739l4.5,4.255-5.784-1.8a11.975,11.975,0,0,0,.238,9.158,11.789,11.789,0,0,0,1.753,2.825A12.019,12.019,0,0,0,143.446,241.363Z" transform="translate(-79.906 -176.717)" fill="none" stroke="#273a57" stroke-miterlimit="10" stroke-width="1"/>
    <path id="Path_3716" data-name="Path 3716" d="M129.758,186.3a12.007,12.007,0,0,1,.962-11.491l4.788,3.557-2.955-5.727a12.019,12.019,0,1,1-2.795,13.66Z" transform="translate(-80.87 -154.991)" fill="#e4efff"/>
    <path id="Path_3717" data-name="Path 3717" d="M127.969,182.723a12.007,12.007,0,0,1,.962-11.491l4.788,3.557-2.955-5.727a12.019,12.019,0,1,1-2.795,13.66Z" transform="translate(-80.076 -153.403)" fill="none" stroke="#273a57" stroke-miterlimit="10" stroke-width="1"/>
    <path id="Path_3777" data-name="Path 3777" d="M0,0V287.542" transform="translate(224.731 17.367)" fill="none" stroke="#ccc" stroke-width="1"/>
    <rect id="Rectangle_447" data-name="Rectangle 447" width="81.736" height="11.121" transform="translate(277.248 158.501)" fill="#f2f2f2"/>
    <rect id="Rectangle_448" data-name="Rectangle 448" width="81.736" height="11.121" transform="translate(405.644 158.501)" fill="#f2f2f2"/>
    <rect id="Rectangle_449" data-name="Rectangle 449" width="81.736" height="11.121" transform="translate(281.694 152.943)" fill="none" stroke="#ccc" stroke-miterlimit="10" stroke-width="1"/>
    <rect id="Rectangle_450" data-name="Rectangle 450" width="81.736" height="11.121" transform="translate(277.248 244.658)" fill="#f2f2f2"/>
    <rect id="Rectangle_451" data-name="Rectangle 451" width="81.736" height="11.121" transform="translate(281.694 239.1)" fill="none" stroke="#ccc" stroke-miterlimit="10" stroke-width="1"/>
    <rect id="Rectangle_452" data-name="Rectangle 452" width="210.179" height="11.121" transform="translate(277.491 200.468)" fill="#f2f2f2"/>
    <rect id="Rectangle_453" data-name="Rectangle 453" width="210.179" height="11.121" transform="translate(281.937 196.021)" fill="none" stroke="#ccc" stroke-miterlimit="10" stroke-width="1"/>
    <rect id="Rectangle_454" data-name="Rectangle 454" width="81.736" height="11.121" transform="translate(410.091 152.943)" fill="none" stroke="#ccc" stroke-miterlimit="10" stroke-width="1"/>
    <ellipse id="Ellipse_380" data-name="Ellipse 380" cx="45.193" cy="42.146" rx="45.193" ry="42.146" transform="translate(97.83 114.074)" fill="#69b23f"/>
    <g id="mongodb-svgrepo-com" transform="translate(130.298 128.287)">
      <path id="Path_3811" data-name="Path 3811" d="M402.635,227.143c-2.93-12.929-9.853-17.181-10.6-18.8a19.655,19.655,0,0,1-1.641-3.184c-.014-.034-.035-.1-.061-.154a3.434,3.434,0,0,1-1.211,2.744c-1.678,1.312-10.285,8.534-10.985,23.224-.653,13.7,9.9,21.864,11.323,22.9l.162.115v-.01c.009.069.453,3.261.765,6.644h1.118a65.829,65.829,0,0,1,1.178-7.114l.091-.059a18.522,18.522,0,0,0,1.822-1.49l.065-.059a26.283,26.283,0,0,0,8.432-19.615,31.438,31.438,0,0,0-.457-5.142Zm-12.366,18.994s0-19.215.634-19.212c.495,0,1.135,24.785,1.135,24.785C391.158,251.6,390.269,247.632,390.269,246.137Z" transform="translate(-378.109 -205)" fill="#fff"/>
    </g>
    <g id="Group_637" data-name="Group 637" transform="translate(498.968 127.973)">
      <path id="Path_4639" data-name="Path 4639" d="M316.181,463.562a9.125,9.125,0,0,1,10.108-9.123,8.789,8.789,0,0,1,1.2.221l30.882-26.47-1.845-9.947,15.221-4.933,4.589,15.941a9.246,9.246,0,0,1-3.923,10.319L334.422,463.6a8.728,8.728,0,0,1-.047.895,9.126,9.126,0,0,1-11.079,7.917,8.887,8.887,0,0,1-1.075-.31A9.153,9.153,0,0,1,316.181,463.562Z" transform="translate(-291.792 -346.96)" fill="#9f616a"/>
      <path id="Path_4640" data-name="Path 4640" d="M349.036,571.807H309.219c0,1.145-41.036,2.073-41.036,2.073a10.664,10.664,0,0,0-1.75,1.659,10.293,10.293,0,0,0-2.405,6.635v1.659A10.371,10.371,0,0,0,274.395,594.2h74.641A10.376,10.376,0,0,0,359.4,583.833v-1.659A10.381,10.381,0,0,0,349.036,571.807Z" transform="translate(-247.871 -424.506)" fill="#444"/>
      <rect id="Rectangle_636" data-name="Rectangle 636" width="10.782" height="69.665" transform="translate(57.853 169.281)" fill="#444"/>
      <path id="Path_4641" data-name="Path 4641" d="M286.312,741.781c0,1.3,16.338.5,36.491.5s36.491.8,36.491-.5-16.338-11.648-36.491-11.648S286.312,740.477,286.312,741.781Z" transform="translate(-259.144 -501.968)" fill="#444"/>
      <path id="Path_4642" data-name="Path 4642" d="M211.707,564.654H201.54L196.7,538.282h15.006Z" transform="translate(-174.807 -334.251)" fill="#9f616a"/>
      <path id="Path_4643" data-name="Path 4643" d="M437.855,741.189H405.071v-.415a12.761,12.761,0,0,1,12.76-12.761h20.025Z" transform="translate(-398.361 -500.931)" fill="#273a57"/>
      <path id="Path_4644" data-name="Path 4644" d="M320.444,612.639l-20.27-45.454a16.658,16.658,0,0,1,7.314-21.384l43.967-23.576,20.063-1.706,18.507-1.682.133.226c.171.288,4.15,7.161,1.46,14.7-2.04,5.716-7.347,10.181-15.773,13.271-19.668,7.211-42.387,13.375-51.242,15.689a2.862,2.862,0,0,0-1.834,1.459,2.9,2.9,0,0,0-.163,2.321l18.831,42.309a3.732,3.732,0,0,1-3.159,5l-14.071,1.025q-.179.017-.357.017A3.729,3.729,0,0,1,320.444,612.639Z" transform="translate(-298.75 -398.589)" fill="#273a57"/>
      <path id="Path_4645" data-name="Path 4645" d="M198.718,564.654H188.551l-4.838-26.371h15.006Z" transform="translate(-155.182 -334.251)" fill="#9f616a"/>
      <path id="Path_4646" data-name="Path 4646" d="M424.865,741.189H392.081v-.415a12.76,12.76,0,0,1,12.76-12.76h20.025Z" transform="translate(-378.737 -500.931)" fill="#273a57"/>
      <path id="Path_4647" data-name="Path 4647" d="M313.949,617.726l-20.27-45.454a16.658,16.658,0,0,1,7.314-21.384l43.967-23.576,20.063-1.706,14.5-1.257,0-.2c.171.288,4.15,7.161,1.46,14.7-2.04,5.716-3.2,10.181-11.626,13.271-19.668,7.211-42.387,13.375-51.242,15.69a2.862,2.862,0,0,0-1.834,1.459,2.9,2.9,0,0,0-.163,2.321L334.941,613.9a3.732,3.732,0,0,1-3.159,5l-14.071,1.024q-.179.017-.357.017a3.73,3.73,0,0,1-3.405-2.212Z" transform="translate(-284.791 -401.189)" fill="#273a57"/>
      <path id="Path_4648" data-name="Path 4648" d="M294.168,459.042c-.972-.687-14.928,6.635-17.416.829,11.611-29.027,3.61-41.561,10.722-58.207a20.727,20.727,0,0,1,13.74-11.76l18.453-.931.1.046a21.567,21.567,0,0,1,11.793,22.88c-.066,18.115-10.9,31.932-7.115,45.072a4.248,4.248,0,0,1-.4,3.3,4.05,4.05,0,0,1-2.584,1.915l-24.365-3.25a4.117,4.117,0,0,1-3.331-.645Z" transform="translate(-226.81 -335.053)" fill="#0b2d61"/>
      <ellipse id="Ellipse_477" data-name="Ellipse 477" cx="20.37" cy="20.37" rx="20.37" ry="20.37" transform="translate(66.327 6.288)" fill="#9f616a"/>
      <path id="Path_4649" data-name="Path 4649" d="M293.169,328.756c-1.082.474-3.3-8.15-2.306-9.875,1.476-2.565,1.389-2.547,2.369-4.244s1.2-4.02-.07-5.513-4.206-1.3-4.786.577c.373-3.556-3.145-6.415-6.629-7.218s-7.159-.3-10.663-1.019c-4.066-.83-8.3-4.238-6.674-8.709a6.3,6.3,0,0,1,1.228-2.019c1.874-2.107,4.5-3.007,7.059-3.877,5.333-1.81,10.811-3.643,16.439-3.443a23.883,23.883,0,0,1,21.1,15.433,21.7,21.7,0,0,1,.9,3.338c1.932,10.387-4.1,20.632-13.9,24.588Z" transform="translate(-199.984 -283.402)" fill="#242424"/>
      <path id="Path_4652" data-name="Path 4652" d="M423.025,531.319c-.4,1.562-52.934,3.253-53.479,2.78a11.068,11.068,0,0,1-1.264-1.955c-.55-.983-1.06-1.969-1.06-1.969l.863-16.614,51.75-5.53s2.29,13.865,3.008,20.234A15.3,15.3,0,0,1,423.025,531.319Z" transform="translate(-364.212 -393.303)" fill="#01183a"/>
      <path id="Path_4653" data-name="Path 4653" d="M203.314,376.212l0,14.314L226.2,388.9l-1.013-14.242Z" transform="translate(-192.669 -254.197)" fill="#8aa1c5" opacity="0.1"/>
      <path id="Path_4654" data-name="Path 4654" d="M163.113,381.656l-.138-.017,1.081,6.085,12.716-.9-.434-6.1Z" transform="translate(-122.643 -257.161)" fill="#8aa1c5" opacity="0.1"/>
      <path id="Path_4655" data-name="Path 4655" d="M421.964,550.7c-.4,1.562-52.934,3.253-53.479,2.78a11.073,11.073,0,0,1-1.264-1.955l54.561-3.88A15.3,15.3,0,0,1,421.964,550.7Z" transform="translate(-363.151 -412.686)" fill="#0b2d61" opacity="0.1"/>
      <path id="Path_4656" data-name="Path 4656" d="M370.234,480.459l-44.314,8.27a8.732,8.732,0,0,1-.375.814,9.145,9.145,0,0,1-5.869,4.583,9.123,9.123,0,1,1,2.082-16.916,8.769,8.769,0,0,1,1.032.65l38.49-13.149,1.97-9.923,15.966,1.056-1.654,16.635A9.074,9.074,0,0,1,370.234,480.459Z" transform="translate(-290.327 -367.253)" fill="#9f616a"/>
      <path id="Path_4657" data-name="Path 4657" d="M330.067,443.239l-23.2-7.625,5.412-15.538a9.262,9.262,0,0,1,10.27-6.09h0a9.262,9.262,0,0,1,7.739,9.239Z" transform="translate(-240.637 -347.229)" fill="#0b2d61"/>
    </g>
  </g>
</svg>
