<svg xmlns="http://www.w3.org/2000/svg" width="610" height="478.329" viewBox="0 0 610 478.329">
  <g id="services_" data-name="services " transform="translate(-16.096 0)">
    <path id="Path_2887" data-name="Path 2887" d="M665.972,129.844c5.459,11.618-6.109,14.909-19.361,21.136s-23.168,13.032-28.628,1.414-9.889-34.677,8.858-43.486C646.235,99.8,660.513,118.226,665.972,129.844Z" transform="translate(-295.712 -106.46)" fill="#444"/>
    <circle id="Ellipse_156" data-name="Ellipse 156" cx="17.839" cy="17.839" r="17.839" transform="translate(325.391 10.552)" fill="#ffb8b8"/>
    <path id="Path_2888" data-name="Path 2888" d="M746.443,245.655c-.617-.806-1.235-1.6-1.859-2.368q-1.209-1.5-2.433-2.913c-9.246-10.67-19.081-17.388-29.91-18.107h-.015l-.16-.015-21.579,21.035-7.336,7.147.16.392,3.958,9.856h69.358a170.561,170.561,0,0,0-10.183-15.028Z" transform="translate(-315.032 -138.403)" fill="#8aa1c5"/>
    <path id="Path_2889" data-name="Path 2889" d="M621.225,144.713h0l6.386-3-.89-9.212,4.27,7.624,3.052-1.434-.519-5.374,2.491,4.447,22.679-10.657h0a18.885,18.885,0,0,0-25.123-9.06l-3.287,1.545a18.885,18.885,0,0,0-9.06,25.123Z" transform="translate(-297.39 -109.139)" fill="#444"/>
    <path id="Path_2890" data-name="Path 2890" d="M680.527,509.105H308.036a12,12,0,0,1-11.984-11.984V273.3a8.79,8.79,0,0,1,8.78-8.78H683.58a8.942,8.942,0,0,1,8.932,8.932v223.67a12,12,0,0,1-11.984,11.984Z" transform="translate(-207.982 -150.366)" fill="#273a57"/>
    <path id="Path_2891" data-name="Path 2891" d="M324.173,504.426H673.422a11.621,11.621,0,0,0,11.621-11.621V302.834a11.621,11.621,0,0,0-11.621-11.621H324.173a11.621,11.621,0,0,0-11.621,11.621V492.805A11.621,11.621,0,0,0,324.173,504.426Z" transform="translate(-212.498 -157.692)" fill="#01183a"/>
    <path id="Path_2892" data-name="Path 2892" d="M692.281,268.835H295.82v-6.1a12.038,12.038,0,0,1,12.028-12.021h372.4a12.038,12.038,0,0,1,12.028,12.021Z" transform="translate(-207.919 -146.24)" fill="#fff"/>
    <circle id="Ellipse_157" data-name="Ellipse 157" cx="3.111" cy="3.111" r="3.111" transform="translate(106.649 110.431)" fill="#999"/>
    <circle id="Ellipse_158" data-name="Ellipse 158" cx="3.111" cy="3.111" r="3.111" transform="translate(118.458 110.431)" fill="#999"/>
    <circle id="Ellipse_159" data-name="Ellipse 159" cx="3.111" cy="3.111" r="3.111" transform="translate(130.268 110.431)" fill="#999"/>
    <path id="Path_2893" data-name="Path 2893" d="M569.606,511.073H538.374a6.908,6.908,0,0,1-6.9-6.9V472.94a6.908,6.908,0,0,1,6.9-6.9h31.232a6.908,6.908,0,0,1,6.9,6.9v31.232A6.908,6.908,0,0,1,569.606,511.073Zm-31.232-43.58a5.454,5.454,0,0,0-5.448,5.448v31.232a5.454,5.454,0,0,0,5.448,5.448h31.232a5.454,5.454,0,0,0,5.448-5.448V472.94a5.454,5.454,0,0,0-5.448-5.447Z" transform="translate(-273.138 -205.666)" fill="#273a57"/>
    <path id="Path_2894" data-name="Path 2894" d="M567.538,505.641H548.653a2.181,2.181,0,0,1-2.179-2.179V480.219a2.181,2.181,0,0,1,2.179-2.179h13.684a2.185,2.185,0,0,1,1.365.481l5.2,4.179a2.168,2.168,0,0,1,.814,1.7v19.063A2.181,2.181,0,0,1,567.538,505.641Zm-18.885-26.148a.727.727,0,0,0-.726.726v23.243a.727.727,0,0,0,.726.726h18.885a.727.727,0,0,0,.726-.726V484.4a.722.722,0,0,0-.271-.566l-5.2-4.18a.727.727,0,0,0-.455-.16Z" transform="translate(-277.247 -208.944)" fill="#273a57"/>
    <path id="Path_2895" data-name="Path 2895" d="M565.822,491.493H554.2a.726.726,0,0,1,0-1.453h11.621a.726.726,0,0,1,0,1.453Z" transform="translate(-279.165 -212.209)" fill="#273a57"/>
    <path id="Path_2896" data-name="Path 2896" d="M565.822,497.493H554.2a.726.726,0,0,1,0-1.453h11.621a.726.726,0,0,1,0,1.453Z" transform="translate(-279.165 -213.863)" fill="#273a57"/>
    <path id="Path_2897" data-name="Path 2897" d="M565.822,503.493H554.2a.726.726,0,0,1,0-1.453h11.621a.726.726,0,0,1,0,1.453Z" transform="translate(-279.165 -215.517)" fill="#273a57"/>
    <path id="Path_2898" data-name="Path 2898" d="M671.606,511.073H640.374a6.908,6.908,0,0,1-6.9-6.9V472.94a6.908,6.908,0,0,1,6.9-6.9h31.232a6.908,6.908,0,0,1,6.9,6.9v31.232A6.908,6.908,0,0,1,671.606,511.073Zm-31.232-43.58a5.454,5.454,0,0,0-5.448,5.448v31.232a5.454,5.454,0,0,0,5.448,5.448h31.232a5.454,5.454,0,0,0,5.448-5.448V472.94a5.454,5.454,0,0,0-5.448-5.447Z" transform="translate(-301.274 -205.666)" fill="#273a57"/>
    <path id="Path_2899" data-name="Path 2899" d="M669.99,502.019H649.653a2.181,2.181,0,0,1-2.179-2.179V488.219a2.181,2.181,0,0,1,2.179-2.179H669.99a2.181,2.181,0,0,1,2.179,2.179V499.84A2.181,2.181,0,0,1,669.99,502.019Zm-20.337-14.527a.727.727,0,0,0-.726.726V499.84a.727.727,0,0,0,.726.726H669.99a.727.727,0,0,0,.726-.726V488.219a.727.727,0,0,0-.726-.726Z" transform="translate(-305.101 -211.13)" fill="#273a57"/>
    <path id="Path_2900" data-name="Path 2900" d="M659.822,496.493a2.182,2.182,0,0,1-1.155-.329l-10.852-6.782a.727.727,0,1,1,.77-1.232l10.852,6.782a.73.73,0,0,0,.77,0l10.851-6.782a.727.727,0,1,1,.77,1.232l-10.851,6.782a2.182,2.182,0,0,1-1.155.329Z" transform="translate(-305.101 -211.669)" fill="#273a57"/>
    <path id="Path_2901" data-name="Path 2901" d="M467.606,511.073H436.374a6.908,6.908,0,0,1-6.9-6.9V472.94a6.908,6.908,0,0,1,6.9-6.9h31.232a6.908,6.908,0,0,1,6.9,6.9v31.232A6.908,6.908,0,0,1,467.606,511.073Zm-31.232-43.58a5.454,5.454,0,0,0-5.447,5.448v31.232a5.454,5.454,0,0,0,5.447,5.448h31.232a5.454,5.454,0,0,0,5.447-5.448V472.94a5.454,5.454,0,0,0-5.447-5.447Z" transform="translate(-245.002 -205.666)" fill="#273a57"/>
    <path id="Path_2902" data-name="Path 2902" d="M465.99,502.019H445.653a2.181,2.181,0,0,1-2.179-2.179V488.219a2.181,2.181,0,0,1,2.179-2.179H465.99a2.181,2.181,0,0,1,2.179,2.179V499.84A2.181,2.181,0,0,1,465.99,502.019Zm-20.337-14.527a.727.727,0,0,0-.726.726V499.84a.727.727,0,0,0,.726.726H465.99a.727.727,0,0,0,.726-.726V488.219a.727.727,0,0,0-.726-.726Z" transform="translate(-248.845 -211.13)" fill="#273a57"/>
    <path id="Path_2903" data-name="Path 2903" d="M463.981,504.072H449.365a1.452,1.452,0,0,1-1.258-2.179l4.4-7.626a1.453,1.453,0,0,1,2.516,0l2.844,4.925,1.647-2.854a1.453,1.453,0,0,1,2.516,0l3.207,5.555a1.453,1.453,0,0,1-1.258,2.179Zm0-1.453h0l-3.207-5.555-2.276,3.943a.726.726,0,0,1-.629.363h0a.726.726,0,0,1-.629-.363l-3.472-6.015-4.4,7.626Z" transform="translate(-250.062 -213.189)" fill="#273a57"/>
    <ellipse id="Ellipse_160" data-name="Ellipse 160" cx="1.816" cy="0.363" rx="1.816" ry="0.363" transform="translate(213.479 277.832)" fill="#273a57"/>
    <path id="Path_2904" data-name="Path 2904" d="M763.874,635.209h-8.9l-4.236-34.347h13.142Z" transform="translate(-202.744 -165.767)" fill="#ffb8b8"/>
    <path id="Path_2905" data-name="Path 2905" d="M942,762.146H913.285v-.363a11.175,11.175,0,0,1,11.176-11.176H942Z" transform="translate(-378.596 -284.073)" fill="#8aa1c5"/>
    <path id="Path_2906" data-name="Path 2906" d="M813.874,635.209h-8.9l-4.236-34.347h13.142Z" transform="translate(-216.427 -165.767)" fill="#ffb8b8"/>
    <path id="Path_2907" data-name="Path 2907" d="M992,762.146H963.289v-.363a11.176,11.176,0,0,1,11.176-11.176H992Z" transform="translate(-392.281 -284.073)" fill="#8aa1c5"/>
    <path id="Path_2908" data-name="Path 2908" d="M977.606,684.37l-8.247-2.509a3.264,3.264,0,0,1-2.3-2.784l-7.689-72.871a.348.348,0,0,0-.348-.325.341.341,0,0,0-.371.3l-12.879,70.6a3.269,3.269,0,0,1-3.875,2.614l-10.54-2.171a3.28,3.28,0,0,1-2.6-3.422l7.834-115.714,53.122-5.732L981.82,681.441a3.266,3.266,0,0,1-4.214,2.928Z" transform="translate(-382.829 -229.818)" fill="#8aa1c5"/>
    <circle id="Ellipse_161" data-name="Ellipse 161" cx="17.839" cy="17.839" r="17.839" transform="translate(576.887 192.572)" fill="#ffb8b8"/>
    <path id="Path_2909" data-name="Path 2909" d="M939.433,525.119l11.518-72.525a27.5,27.5,0,0,1,34.868-22.08h0a27.414,27.414,0,0,1,19.321,31.423L993.09,526.7Z" transform="translate(-385.752 -195.658)" fill="#e4efff"/>
    <path id="Path_2910" data-name="Path 2910" d="M998.414,566.164a7.3,7.3,0,0,0,1.269-11.128l11.909-23.062-13.412,1.431-9.253,21.681a7.343,7.343,0,0,0,9.487,11.078Z" transform="translate(-398.765 -223.836)" fill="#ffb8b8"/>
    <path id="Path_2911" data-name="Path 2911" d="M1003.464,527.207a3.273,3.273,0,0,1-1.762-.836l-4.557-4.21a3.279,3.279,0,0,1-.793-3.671l9.106-21.585-1.292-42.65a10.529,10.529,0,0,1,20.865,2.846l2.209,26.811a33.682,33.682,0,0,1-6.492,22.8l-14.2,19.2a3.272,3.272,0,0,1-2.321,1.31A3.229,3.229,0,0,1,1003.464,527.207Z" transform="translate(-401.259 -199.972)" fill="#e4efff"/>
    <path id="Path_2912" data-name="Path 2912" d="M854.455,380.278a7.3,7.3,0,0,0,9.752,5.507L880.8,405.743l3.911-12.908-16.357-16.974a7.343,7.343,0,0,0-13.9,4.417Z" transform="translate(-362.157 -179.582)" fill="#ffb8b8"/>
    <path id="Path_2913" data-name="Path 2913" d="M872.225,393.4a3.273,3.273,0,0,1,1.457-1.3l5.654-2.554a3.279,3.279,0,0,1,3.69.7l16.327,16.8,39.778,15.439a10.529,10.529,0,1,1-10.756,18.1l-25.55-8.419A33.682,33.682,0,0,1,884.356,417.3L872.213,396.74a3.272,3.272,0,0,1-.3-2.648A3.23,3.23,0,0,1,872.225,393.4Z" transform="translate(-367.232 -184.493)" fill="#e4efff"/>
    <path id="Path_2914" data-name="Path 2914" d="M829.687,375.652l-.726,23.243-13.38,23.251,11.172-25.91Z" transform="translate(-220.49 -103.642)" opacity="0.1"/>
    <path id="Path_2915" data-name="Path 2915" d="M985.189,391.972a4.665,4.665,0,0,1-5.106-3.415,7.092,7.092,0,0,0-5.049-5.283c-3.273-.748-7.272.793-9.67-1.687a4.821,4.821,0,0,1-1.144-4.243c.442-2.409,2.165-4.23,4.041-5.685a24.741,24.741,0,0,1,13.7-5.121,49.16,49.16,0,0,1,7.714.384,34.143,34.143,0,0,1,7.891,1.442,18.577,18.577,0,0,1,11.623,13.568,21.447,21.447,0,0,1-4.4,17.527,23.026,23.026,0,0,1-8.833,6.725,3.446,3.446,0,0,1-2.619.133c-2.148-.854-1.8-3.515-.818-5.29,1.048-1.9,2.661-3.738,1.818-6.049a4.578,4.578,0,0,0-2.271-2.445c-2.135-1.089-4.524-.831-6.819-.566Z" transform="translate(-392.507 -178.201)" fill="#444"/>
    <path id="Path_2916" data-name="Path 2916" d="M758.586,388.614h-220.8A12,12,0,0,1,525.8,376.629V329.417a12,12,0,0,1,11.984-11.984h220.8a12,12,0,0,1,11.984,11.984v47.212A12,12,0,0,1,758.586,388.614Z" transform="translate(-271.961 -164.696)" fill="#01183a"/>
    <path id="Path_2917" data-name="Path 2917" d="M758.45,388.84h-220.8A12.362,12.362,0,0,1,525.3,376.492V329.281a12.362,12.362,0,0,1,12.348-12.348h220.8A12.362,12.362,0,0,1,770.8,329.281v47.212A12.362,12.362,0,0,1,758.45,388.84Zm-220.8-70.454a10.907,10.907,0,0,0-10.9,10.895v47.212a10.907,10.907,0,0,0,10.9,10.9h220.8a10.907,10.907,0,0,0,10.895-10.895V329.281a10.907,10.907,0,0,0-10.895-10.895Z" transform="translate(-271.825 -164.559)" fill="#fff"/>
    <path id="Path_2918" data-name="Path 2918" d="M741.838,381.1H574.781A12,12,0,0,1,562.8,369.113v-24.7a12,12,0,0,1,11.984-11.984H741.838a12,12,0,0,1,11.984,11.984v24.7A12,12,0,0,1,741.838,381.1Z" transform="translate(-282.054 -168.809)" fill="#273a57"/>
    <circle id="Ellipse_162" data-name="Ellipse 162" cx="14.332" cy="14.332" r="14.332" transform="translate(314.546 170.317)" fill="#ff6584"/>
    <path id="Path_2919" data-name="Path 2919" d="M739.786,383.051l-20.23-16.967L699.675,349.41a2.906,2.906,0,0,0-3.743.007l-19.817,16.75-4.84,4.092-7.3-6.121-22.18-18.6a2.905,2.905,0,0,0-3.742.007l-22.108,18.687L593.49,383.213a.726.726,0,0,0,.47,1.281l46.04-.089,14.573-.028-.143.121,43.44-.084,41.45-.08a.726.726,0,0,0,.465-1.283Z" transform="translate(-290.362 -172.226)" fill="#ccc"/>
    <path id="Path_2921" data-name="Path 2921" d="M757.377,217.528a8.15,8.15,0,0,0-5.266-3.7,7.481,7.481,0,0,0-1.205-.153l-55.339-49.478a6.548,6.548,0,0,0-4.089-1.954,5.57,5.57,0,0,0-.922-.029,6.577,6.577,0,0,0-4.329,11.244l21.187,18.471L742.2,222.249a8.65,8.65,0,0,0,.254,1.692,8.183,8.183,0,0,0,7.024,6.079,8.056,8.056,0,0,0,4.394-.726,8.284,8.284,0,0,0,2.818-2.157c.08-.094.152-.182.225-.283a8.2,8.2,0,0,0,.457-9.326Z" transform="translate(-315.345 -121.715)" fill="#ffb8b8"/>
    <path id="Path_2922" data-name="Path 2922" d="M648.963,273.793l-.516-20.962-.436-17.4-.3-12.173-.588-23.729a6.57,6.57,0,0,0-11.411-3.813,5.029,5.029,0,0,0-.545.7,6.49,6.49,0,0,0-1.133,4.394l1.293,34.624.647,17.4.828,22.189a8.742,8.742,0,0,0-.646,1.024,8.213,8.213,0,1,0,12.805-2.252Z" transform="translate(-301.375 -130.297)" fill="#ffb8b8"/>
    <path id="Path_2923" data-name="Path 2923" d="M699.044,205.659l-5.135-13.909L685.6,169.219a11.625,11.625,0,0,0-7.227-7.031c-.13-.044-.268-.087-.4-.124a11.61,11.61,0,0,0-9.616,1.322l-27.986,17.752a11.689,11.689,0,0,0-3.828,15.8,200.708,200.708,0,0,0,11.425,17.57c3.261,4.438,9.333,4.91,10.387,12.173H678.99l20.89-18.754Z" transform="translate(-301.71 -121.541)" fill="#bbceeb"/>
    <circle id="Ellipse_163" data-name="Ellipse 163" cx="16.83" cy="16.83" r="16.83" transform="translate(61.054 219.791)" fill="#a0616a"/>
    <path id="Path_2924" data-name="Path 2924" d="M323.21,416.578q.249.2.482.42a7.539,7.539,0,0,1-.3,11.246,7.065,7.065,0,0,1-.591.446l1.139,38.456a5.855,5.855,0,0,1-4.028,5.714l-.069.015L288.616,476.2a6.463,6.463,0,1,1-1.251-12.866l22.258-1.96,3.849-33.3a7.178,7.178,0,0,1-.706-.719,7.539,7.539,0,0,1,10.443-10.773Z" transform="translate(-204.007 -191.596)" fill="#a0616a"/>
    <path id="Path_2925" data-name="Path 2925" d="M139.327,636.965h8.4l4-32.4h-12.4Z" transform="translate(-33.724 -166.78)" fill="#a0616a"/>
    <path id="Path_2926" data-name="Path 2926" d="M317.242,751.858h16.545A10.543,10.543,0,0,1,344.331,762.4v.342H317.242Z" transform="translate(-213.781 -284.416)" fill="#bbceeb"/>
    <path id="Path_2927" data-name="Path 2927" d="M24.366,622.692l7.218,4.3,20.013-25.8-10.654-6.343Z" transform="translate(-2.263 -164.122)" fill="#a0616a"/>
    <path id="Path_2928" data-name="Path 2928" d="M202.529,734.889l14.215,8.464h0a10.543,10.543,0,0,1,3.665,14.453l-.175.294L196.96,744.243Z" transform="translate(-180.864 -279.772)" fill="#bbceeb"/>
    <path id="Path_2929" data-name="Path 2929" d="M300.906,681.661H291.5a3.078,3.078,0,0,1-3.066-2.758l-9.483-89.148a1.028,1.028,0,0,0-1.959-.314l-17.109,37.885L229.59,676.718a3.1,3.1,0,0,1-3.871,1.21l-12.1-5.324a3.085,3.085,0,0,1-1.405-4.4l27.845-46.625,8.54-39.284c-2.686-17.036,8.829-42.364,8.945-42.618l.057-.124,31.717-12.4.159.195c12.508,41.048,20.13,85.222,14.5,151.49a3.1,3.1,0,0,1-3.074,2.825Z" transform="translate(-184.919 -222.921)" fill="#bbceeb"/>
    <path id="Path_2930" data-name="Path 2930" d="M267.849,526.458l-.148-.31c-.071-.149-7.123-15.023-12.56-30.921a23.45,23.45,0,0,1,1.626-18.793,23.706,23.706,0,0,1,15.117-11.624h0a23.734,23.734,0,0,1,27.549,14.214c4.312,10.784,2.938,22.294,1.645,31.346l-.026.181-.165.079Z" transform="translate(-196.445 -205.178)" fill="#e4efff"/>
    <path id="Path_2931" data-name="Path 2931" d="M300.055,414.706H273.33v-11.65c5.866-2.33,11.606-4.312,15.075,0a11.649,11.649,0,0,1,11.649,11.649Z" transform="translate(-201.764 -187.544)" fill="#444"/>
    <path id="Path_2932" data-name="Path 2932" d="M263.589,401.185c-15.976,0-20.448,20.026-20.448,31.323,0,6.3,2.849,8.554,7.327,9.317l1.581-8.433,3.7,8.8c1.258.006,2.579-.018,3.949-.044l1.256-2.586,2.8,2.539c11.215.017,20.28,1.652,20.28-9.59C284.036,421.211,280.115,401.185,263.589,401.185Z" transform="translate(-193.502 -187.767)" fill="#444"/>
    <path id="Path_2934" data-name="Path 2934" d="M363.106,421.966H331.874a6.908,6.908,0,0,1-6.9-6.9V383.833a6.908,6.908,0,0,1,6.9-6.9h31.232a6.908,6.908,0,0,1,6.9,6.9v31.232A6.908,6.908,0,0,1,363.106,421.966Z" transform="translate(-216.176 -181.082)" fill="#01183a"/>
    <path id="Path_2935" data-name="Path 2935" d="M363.106,421.966H331.874a6.908,6.908,0,0,1-6.9-6.9V383.833a6.908,6.908,0,0,1,6.9-6.9h31.232a6.908,6.908,0,0,1,6.9,6.9v31.232A6.908,6.908,0,0,1,363.106,421.966Zm-31.232-43.58a5.454,5.454,0,0,0-5.447,5.448v31.232a5.454,5.454,0,0,0,5.447,5.448h31.232a5.454,5.454,0,0,0,5.447-5.448V383.833a5.454,5.454,0,0,0-5.447-5.448Z" transform="translate(-216.176 -181.082)" fill="#fff"/>
    <path id="Path_2936" data-name="Path 2936" d="M361.49,414.044H341.153a2.181,2.181,0,0,1-2.179-2.179V396.612a2.181,2.181,0,0,1,2.179-2.179h5.725a2.166,2.166,0,0,1,1.856,1.037l1.6,2.6h11.16a2.181,2.181,0,0,1,2.179,2.179v11.621A2.181,2.181,0,0,1,361.49,414.044Z" transform="translate(-220.027 -185.874)" fill="#fb7878"/>
    <path id="Path_2937" data-name="Path 2937" d="M346.622,430.567q.152.279.282.574a7.54,7.54,0,0,1-4.643,10.247,7.064,7.064,0,0,1-.718.181L327.67,477.454a5.855,5.855,0,0,1-5.929,3.7l-.07-.013L291.6,472.093a6.463,6.463,0,1,1,3.84-12.343l21.274,6.831,16.471-29.2a7.168,7.168,0,0,1-.371-.937,7.539,7.539,0,0,1,13.805-5.877Z" transform="translate(-205.521 -194.815)" fill="#a0616a"/>
  </g>
</svg>
