<svg xmlns="http://www.w3.org/2000/svg" width="610" height="413.897" viewBox="0 0 610 413.897">
  <g id="Html5_Development" data-name="Html5 Development" transform="translate(-165 -137)">
    <g id="undraw_static_website_re_x70h" transform="translate(165 137)">
      <path id="Path_4533" data-name="Path 4533" d="M897.033,469.5V634.408a16.89,16.89,0,0,1-16.869,16.869H753.67l1.175-1.487,140.7-178.4Z" transform="translate(-382.579 -258.367)" fill="#f2f2f2"/>
      <path id="Path_4534" data-name="Path 4534" d="M472.645,391.368H327.395a4.488,4.488,0,1,0,0,8.975h145.25a4.488,4.488,0,1,0,0-8.975Z" transform="translate(-271.305 -238.442)" fill="#e6e6e6"/>
      <path id="Path_4535" data-name="Path 4535" d="M372.43,357.524H327.395a4.488,4.488,0,1,0,0,8.975H372.43a4.488,4.488,0,1,0,0-8.975Z" transform="translate(-271.305 -229.8)" fill="#e6e6e6"/>
      <path id="Path_4536" data-name="Path 4536" d="M751.853,186H270.369A16.9,16.9,0,0,0,253.5,202.9V562.261a16.9,16.9,0,0,0,16.869,16.9H751.853a16.9,16.9,0,0,0,16.869-16.9V202.9A16.9,16.9,0,0,0,751.853,186Zm15.382,376.261a15.394,15.394,0,0,1-15.382,15.406H270.369a15.394,15.394,0,0,1-15.382-15.406V303.408a115.829,115.829,0,0,1,115.74-115.919H751.853A15.394,15.394,0,0,1,767.235,202.9Z" transform="translate(-253.5 -186)" fill="#e6e6e6"/>
      <path id="Path_4537" data-name="Path 4537" d="M737.749,272.756H316.4a.743.743,0,0,1,0-1.487H737.749a.743.743,0,0,1,0,1.487Z" transform="translate(-269.446 -207.874)" fill="#e6e6e6"/>
      <ellipse id="Ellipse_471" data-name="Ellipse 471" cx="6.287" cy="6.427" rx="6.287" ry="6.427" transform="translate(61.751 29.707)" fill="#e6e6e6"/>
      <ellipse id="Ellipse_472" data-name="Ellipse 472" cx="6.287" cy="6.427" rx="6.287" ry="6.427" transform="translate(83.471 29.707)" fill="#e6e6e6"/>
      <ellipse id="Ellipse_473" data-name="Ellipse 473" cx="6.287" cy="6.427" rx="6.287" ry="6.427" transform="translate(105.19 29.707)" fill="#e6e6e6"/>
      <path id="Path_4538" data-name="Path 4538" d="M435.034,237.93a.741.741,0,0,1-.531-.224l-4.242-4.337a.743.743,0,0,1,0-1.04l4.242-4.336a.743.743,0,1,1,1.063,1.04l-3.734,3.816,3.734,3.817a.743.743,0,0,1-.531,1.263Z" transform="translate(-298.791 -196.716)" fill="#e6e6e6"/>
      <path id="Path_4539" data-name="Path 4539" d="M446.085,237.93a.743.743,0,0,1-.531-1.263l3.733-3.817-3.733-3.816a.743.743,0,1,1,1.063-1.04l4.242,4.336a.743.743,0,0,1,0,1.04l-4.242,4.337A.741.741,0,0,1,446.085,237.93Z" transform="translate(-302.714 -196.716)" fill="#e6e6e6"/>
      <path id="Path_4540" data-name="Path 4540" d="M829.568,226.959H821.68a1.628,1.628,0,0,0-1.628,1.628v7.9a1.628,1.628,0,0,0,1.628,1.628h7.888a1.634,1.634,0,0,0,1.636-1.628v-7.9A1.634,1.634,0,0,0,829.568,226.959Z" transform="translate(-398.84 -196.507)" fill="#e6e6e6"/>
      <path id="Path_4541" data-name="Path 4541" d="M803.568,226.959H795.68a1.628,1.628,0,0,0-1.628,1.628v7.9a1.628,1.628,0,0,0,1.628,1.628h7.888a1.634,1.634,0,0,0,1.636-1.628v-7.9A1.634,1.634,0,0,0,803.568,226.959Z" transform="translate(-392.17 -196.507)" fill="#e6e6e6"/>
      <path id="Path_4542" data-name="Path 4542" d="M854.068,227.459H846.18a1.628,1.628,0,0,0-1.628,1.628v7.9a1.628,1.628,0,0,0,1.628,1.628h7.888a1.634,1.634,0,0,0,1.636-1.628v-7.9A1.634,1.634,0,0,0,854.068,227.459Z" transform="translate(-405.125 -196.636)" fill="#e6e6e6"/>
      <path id="Path_4543" data-name="Path 4543" d="M619.988,231.5H556.935a1.985,1.985,0,0,0,0,3.97h63.053a1.985,1.985,0,1,0,0-3.97Z" transform="translate(-330.832 -197.672)" fill="#e6e6e6"/>
      <path id="Path_4544" data-name="Path 4544" d="M395.958,595.931l-37.706-1.192c-5.23-.165-11.111-.157-14.841,2.546-4.234,3.067-3.593,8.5-.078,12.027s9.128,5.539,14.636,7.176c29.266,8.7,61.655,10.464,93.1,8.5s62.25-7.532,92.9-13.078c2.907-.526,6.2-1.283,7.387-3.306,1.147-1.957-.354-4.317-2.684-5.582s-5.286-1.691-8.136-2.067a764.076,764.076,0,0,0-155.757-4.443" transform="translate(-275.809 -290.172)" fill="#f2f2f2"/>
      <path id="Path_4545" data-name="Path 4545" d="M493.811,554.356v-8.922c-6.474.092-29.642-.066-35.686,0-.45,31.182-3.207,25.074,22.34,25.195a4.442,4.442,0,0,1,4.425,4.436v.134a4.435,4.435,0,0,1-4.435,4.435h-22.33v8.922h35.686c.05-.03-.036-8.615,0-8.922,1.509-25.847-1.477-16.551-23.171-17.587a3.788,3.788,0,0,1-3.594-3.788v-.111a3.792,3.792,0,0,1,3.791-3.792Z" transform="translate(-305.915 -277.739)" fill="#0b2d61"/>
      <path id="Path_4546" data-name="Path 4546" d="M552.811,554.356v-8.922c-6.474.092-29.642-.066-35.686,0-.454,31.453-3.255,24.965,23.012,25.2a3.792,3.792,0,0,1,3.753,3.791c0,.469,0,.948,0,1.418a3.791,3.791,0,0,1-3.791,3.79H517.124v8.922h35.686c.05-.03-.036-8.615,0-8.922,1.509-25.847-1.477-16.551-23.171-17.587a3.788,3.788,0,0,1-3.594-3.788v-.111a3.792,3.792,0,0,1,3.791-3.792Z" transform="translate(-321.05 -277.739)" fill="#0b2d61"/>
      <path id="Path_4547" data-name="Path 4547" d="M431.632,554.362V545.44H395.946c-.025,7.957.018,29.019,0,37.173-7,11.842,32.744,3.643,35.688,5.951,0,0,0-8.925,0-8.925-27.152-.142-27.835,4.941-26.961-19.65a5.832,5.832,0,0,1,5.824-5.629Z" transform="translate(-289.831 -277.744)" fill="#0b2d61"/>
      <path id="Path_4548" data-name="Path 4548" d="M519.958,452.682l-37.706-.994c-5.23-.138-11.111-.131-14.841,2.122-4.234,2.557-3.592,7.087-.078,10.025s9.128,4.617,14.636,5.982c29.266,7.251,61.655,8.723,93.1,7.082s62.25-6.279,92.9-10.9c2.907-.438,6.2-1.069,7.387-2.756,1.147-1.631-.354-3.6-2.685-4.653a27.832,27.832,0,0,0-8.136-1.723,915.536,915.536,0,0,0-155.757-3.7" transform="translate(-307.619 -253.767)" fill="#f2f2f2"/>
      <path id="Path_4549" data-name="Path 4549" d="M522.407,400.109c-.608,13.774,4.455,18.109-13.011,16.355-1.18-8.217,4.8-19.62-8.921-16.725,2.749,5.961-7.66,51.183,8.919,43.117.931-13.587-5.206-19.546,13.014-17.467,1.461,8.4-5.358,20.758,8.921,17.84C528.578,437.265,538.987,392.047,522.407,400.109Z" transform="translate(-316.667 -240.404)" fill="#0b2d61"/>
      <path id="Path_4550" data-name="Path 4550" d="M642.2,400.1c1.225.756-11.219,13.921-11.488,15-.373-.921-12.25-13.8-10.816-15-16.527-8.167-6.227,37.318-8.925,43.122,0,0,8.925,0,8.925,0v-28.25c12.54,16.914,10.211,14.068,22.3-.83v29.081c16.526,8.17,6.227-37.321,8.925-43.123C651.122,400.1,642.2,400.1,642.2,400.1Z" transform="translate(-345.015 -240.397)" fill="#0b2d61"/>
      <path id="Path_4551" data-name="Path 4551" d="M587.786,400.44H552.1c-2.1,12.507,4.836,8.312,13.384,8.921v34.2H574.4v-34.2C582.911,408.783,589.909,412.892,587.786,400.44Z" transform="translate(-330.004 -240.734)" fill="#0b2d61"/>
      <path id="Path_4552" data-name="Path 4552" d="M684.148,434.639a95.374,95.374,0,0,1,0-34.2h-8.922c.051,5.652-.016,28.461-.011,38.892a4.245,4.245,0,0,0,4.242,4.247c8.988.012,26.148-.054,31.455-.018v-8.922Z" transform="translate(-361.684 -240.734)" fill="#0b2d61"/>
      <path id="Path_4553" data-name="Path 4553" d="M365.86,448.44H329.6a6.691,6.691,0,0,0,0,13.382H365.86a6.691,6.691,0,1,0,0-13.382Z" transform="translate(-271.305 -253.013)" fill="#e6e6e6"/>
    </g>
    <g id="Group_633" data-name="Group 633" transform="translate(694.994 261.153)">
      <path id="Path_4554" data-name="Path 4554" d="M565.644,507.771h-7.361l-3.5-28.393h10.864Z" transform="translate(-533.135 -225.706)" fill="#ffb6b6"/>
      <path id="Path_4555" data-name="Path 4555" d="M815.43,709.675H792.794v-.286a8.811,8.811,0,0,1,8.81-8.811h0l4.135-3.137,7.715,3.137h1.976Z" transform="translate(-782.662 -419.931)" fill="#01183a"/>
      <path id="Path_4556" data-name="Path 4556" d="M600.644,507.771h-7.361l-3.5-28.393h10.864Z" transform="translate(-542.114 -225.706)" fill="#ffb6b6"/>
      <path id="Path_4557" data-name="Path 4557" d="M850.43,709.675H827.794v-.286a8.811,8.811,0,0,1,8.81-8.811h0l4.135-3.137,7.715,3.137h1.976Z" transform="translate(-791.641 -419.931)" fill="#01183a"/>
      <path id="Path_4558" data-name="Path 4558" d="M795.669,495.48s-7.082,21.752-5.775,24.615,3.538.633,1.308,2.863-4.177-.141-2.089,3.647,5.253,34.968,6.645,36.478,3.305,1.55,1.6,3.017-3.931-1.507-1.7,1.467,8.149,71.578,8.149,71.578h11.562s2.88-3.319,1.25-5.479.143-2.993,0-4.435a48.931,48.931,0,0,1,.5-5.971c.1-1.419,2.055-35.224-2.64-54.751l8.56-37.182,4.28,44.94s-4.77,37.7,0,49.813c0,0-3.845,3.2-2.14,5.058s3.193.369,1.706,1.856,2.23,6.691,2.23,6.691l12.639-.743,7.154-70.432s1.206-7.345,0-8.6-1.206,3.2-1.206-1.259V552.7s5.391-36.582,5.3-38.736-9.015-17.767-9.015-17.767Z" transform="translate(-782.976 -371.839)" fill="#01183a"/>
      <path id="Path_4559" data-name="Path 4559" d="M835.656,376.709,817.2,375.44l-5.522,8.707-13.3,5.407v42.894a41.334,41.334,0,0,1,2.119,12.877c-.051,8.546-2.247,18.612-1.487,20.817,7.435,21.561,48.325,0,48.325,0l-.743-23.047,1.009-52.087-8.356-6.664Z" transform="translate(-784.095 -337.327)" fill="#0b2d61"/>
      <path id="Path_4560" data-name="Path 4560" d="M794.086,503.2l-1.273-13.562-7.849-.354,1.855,14.29a4.56,4.56,0,1,0,7.266-.375Z" transform="translate(-780.653 -366.532)" fill="#ffb6b6"/>
      <path id="Path_4561" data-name="Path 4561" d="M796.46,392.886l-.218.037a12.63,12.63,0,0,0-9.356,7.158c-2.248,4.861-9.546,36.814-6.347,41.633,2.481,3.737,1.879,3.008.712,5.827s-3.045-.189-1.505,4.285,3.232,3.836,1.8,5.565-2.9,1.39-1.505,4.285a14,14,0,0,1,1.427,4.963c.263,1.09.034,8.759.034,8.759s8.384-.636,12.556,1.358c0,0-2.328-7.745-1.012-8.985s2.9-1.39,1.768-3.195-3.683-1.881-.9-2.782,1.886-17.067,1.886-17.067C800.384,432.728,798.573,412.99,796.46,392.886Z" transform="translate(-779.166 -341.802)" fill="#0b2d61"/>
      <path id="Path_4562" data-name="Path 4562" d="M870.1,504.352l.587-13.609,7.821-.75-1.132,14.366a4.56,4.56,0,1,1-7.275-.008Z" transform="translate(-802.257 -366.714)" fill="#ffb6b6"/>
      <path id="Path_4563" data-name="Path 4563" d="M859.426,394.6l.219.026a12.63,12.63,0,0,1,9.705,6.677c2.49,4.741,10.368,36.853,8.439,41.26-1.8,4.11-1.724,3.1-.417,5.856s3.032-.342,1.72,4.2-3.034,3.994-1.519,5.648,2.962,1.242,1.72,4.2a14,14,0,0,0-1.174,5.029c-.207,1.1.408,8.75.408,8.75s-8.4-.212-12.471,1.99c0,0,1.934-7.853.557-9.025s-2.962-1.242-1.927-3.1,3.584-2.064.76-2.824-2.745-16.95-2.745-16.95Z" transform="translate(-799.755 -342.241)" fill="#0b2d61"/>
      <circle id="Ellipse_474" data-name="Ellipse 474" cx="14.395" cy="14.395" r="14.395" transform="translate(28.392 6.596)" fill="#ffb6b6"/>
      <path id="Path_4564" data-name="Path 4564" d="M840.211,357.489c2-1.567,2.2-4.553,3.9-6.436,2.856-3.148,4.2-6.534,2.7-10.264-1.323-3.3-1.042-7.354-3.893-9.477,1.4-.507,1.729-1.559.494-1.579-.833-.013-3.938,1.579-2.444-.4s-1.334-1.2-1.147-2.012,1.387-1.261,1.916-.618a4.193,4.193,0,0,0-6.577.752c-1.684-2.523-3.471-4.26-6.047-2.658-2.53,1.573-2.5,3.517-5.218,3.049-1.279-.22-1.4,2.2-2.274,3.157a3.9,3.9,0,0,1-3.427,1.461c-1.275-.241-2.251-1.83-1.536-2.914l-3.006,6.857-1.211-1.486c-1.925,1.254-1.293,4.528.645,5.763s4.456.971,6.687.424a26.226,26.226,0,0,1,8.216-.681,7.4,7.4,0,0,1,5.587,9.59c1.619-1.589,4.613-.27,5.451,1.837s.224,4.482-.4,6.664" transform="translate(-787.405 -324.176)" fill="#1a1a1a"/>
    </g>
  </g>
</svg>
