<?xml version="1.0" encoding="utf-8"?>
<!-- Generator: Adobe Illustrator 26.0.2, SVG Export Plug-In . SVG Version: 6.00 Build 0)  -->
<svg version="1.1" id="Layer_1" xmlns:svgjs="http://svgjs.com/svgjs"
	 xmlns="http://www.w3.org/2000/svg" xmlns:xlink="http://www.w3.org/1999/xlink" x="0px" y="0px" viewBox="0 0 512 512"
	 style="enable-background:new 0 0 512 512;" xml:space="preserve">
<style type="text/css">
	.st0{fill:#E1F3FF;}
	.st1{fill:#045BB2;}
	.st2{fill:#022D62;}
</style>
<g>
	<g>
		<path class="st0" d="M344.9,321.3c-0.6,0.6-1.2,1.3-1.8,2c-0.5-0.7-1.1-1.4-1.8-2H344.9z"/>
		<path class="st0" d="M400.8,269.3c-5.9,0.4-10.4,5.5-10.4,11.4v11c0,0,0,0,0,0h22.5c0,0,0,0,0,0v-11.2
			C412.9,274.1,407.4,268.9,400.8,269.3z M400.8,269.3c-5.9,0.4-10.4,5.5-10.4,11.4v11c0,0,0,0,0,0h22.5c0,0,0,0,0,0v-11.2
			C412.9,274.1,407.4,268.9,400.8,269.3z M400.8,269.3c-5.9,0.4-10.4,5.5-10.4,11.4v11c0,0,0,0,0,0h22.5c0,0,0,0,0,0v-11.2
			C412.9,274.1,407.4,268.9,400.8,269.3z M427.9,329.2h-67.4c-4.2,0-7.5,3.4-7.5,7.5v89.9c0,4.1,3.3,7.5,7.5,7.5h67.4
			c4.1,0,7.5-3.4,7.5-7.5v-89.9C435.4,332.6,432,329.2,427.9,329.2z M427.9,329.2h-67.4c-4.2,0-7.5,3.4-7.5,7.5v89.9
			c0,4.1,3.3,7.5,7.5,7.5h67.4c4.1,0,7.5-3.4,7.5-7.5v-89.9C435.4,332.6,432,329.2,427.9,329.2z M400.8,269.3
			c-5.9,0.4-10.4,5.5-10.4,11.4v11c0,0,0,0,0,0h22.5c0,0,0,0,0,0v-11.2C412.9,274.1,407.4,268.9,400.8,269.3z M427.9,329.2h-67.4
			c-4.2,0-7.5,3.4-7.5,7.5v89.9c0,4.1,3.3,7.5,7.5,7.5h67.4c4.1,0,7.5-3.4,7.5-7.5v-89.9C435.4,332.6,432,329.2,427.9,329.2z
			 M412.9,291.8C412.9,291.8,412.9,291.8,412.9,291.8l0-11.2c0-6.5-5.5-11.7-12.1-11.2c-5.9,0.4-10.4,5.5-10.4,11.4v11c0,0,0,0,0,0
			H412.9z M218.8,77.9c-5.7-0.2-63.8-0.8-67,68.6c0,0-11.3,103.9,66.6,104.7h0.8c30.2-0.3,47-16.1,56.2-35.3
			c14.6-30.4,10.4-69.4,10.4-69.4C282.5,77.1,224.5,77.6,218.8,77.9z M263.2,426.1h-7.1l0-7V311.9l-14,44.2l-15.8-44.7
			c27.7-38.6-1.9-40.5-7.2-40.6c-0.1,0-0.1,0-0.2,0c-0.1,0-0.1,0-0.2,0c-3.7,0.1-18.9,1-18.9,14.2c0,6,3.1,14.4,11.7,26.4
			l-15.7,44.7l-27-85.4c0,0-33.9,16.4-64.3,35.6c-22.9,14.3-27.2,29.8-27.8,52.2l-0.1,75.6H264c-0.5-1.9-0.8-3.8-0.8-5.8V426.1z
			 M400.8,269.3c-5.9,0.4-10.4,5.5-10.4,11.4v11c0,0,0,0,0,0h22.5c0,0,0,0,0,0v-11.2C412.9,274.1,407.4,268.9,400.8,269.3z
			 M400.8,269.3c-5.9,0.4-10.4,5.5-10.4,11.4v11c0,0,0,0,0,0h22.5c0,0,0,0,0,0v-11.2C412.9,274.1,407.4,268.9,400.8,269.3z"/>
		<g>
			<g>
				<path class="st1" d="M275.4,215.9c-9.2,19.2-26,35-56.2,35.3h-0.8c-77.9-0.8-66.6-104.7-66.6-104.7c3.2-69.4,61.3-68.8,67-68.6
					c5.7-0.3,63.7-0.8,67,68.6C285.8,146.5,290,185.5,275.4,215.9z"/>
				<path class="st2" d="M264,434.1H76.6l0.1-75.6c0.6-22.4,4.9-37.9,27.8-52.2c30.4-19.2,64.3-35.6,64.3-35.6l27,85.4l15.7-44.7
					c-8.6-12-11.7-20.5-11.7-26.4c0-13.2,15.3-14.1,18.9-14.2c0.1,0,0.1,0,0.2,0c0.1,0,0.1,0,0.2,0c5.3,0.1,34.9,2,7.2,40.6
					l15.8,44.7l14-44.2v107.2l0,7h7.1v2.2C263.2,430.3,263.5,432.2,264,434.1z"/>
			</g>
		</g>
	</g>
	<g id="Documents_and_calculator_00000013884133709011437350000000613005701257083814_">
		<g>
			<path class="st1" d="M390.4,280.8v11c0,0,0,0,0,0h22.5c0,0,0,0,0,0v-11.2c0-6.5-5.5-11.7-12.1-11.2
				C394.9,269.8,390.4,274.9,390.4,280.8z"/>
		</g>
		<g>
			<path class="st1" d="M371.7,348h44.9c0,0,0,0,0,0v22.5c0,0,0,0,0,0h-44.9c0,0,0,0,0,0L371.7,348C371.7,348,371.7,348,371.7,348z"
				/>
		</g>
		<g>
			<path class="st2" d="M427.9,329.2h-67.4c-4.1,0-7.5,3.4-7.5,7.5v89.9c0,4.1,3.4,7.5,7.5,7.5h67.4c4.1,0,7.5-3.4,7.5-7.5v-89.9
				C435.4,332.6,432,329.2,427.9,329.2z M375.5,422.9h-7.4c-2.1,0-3.8-1.6-3.9-3.7c0-2.1,1.7-3.8,3.7-3.8h7.4c2.1,0,3.8,1.6,3.9,3.7
				C379.2,421.2,377.5,422.9,375.5,422.9z M375.5,407.9h-7.4c-2.1,0-3.8-1.6-3.9-3.7c0-2.1,1.7-3.8,3.7-3.8h7.4
				c2.1,0,3.8,1.6,3.9,3.7C379.2,406.2,377.5,407.9,375.5,407.9z M375.5,392.9h-7.4c-2.1,0-3.8-1.6-3.9-3.7c0-2.1,1.7-3.8,3.7-3.8
				h7.4c2.1,0,3.8,1.6,3.9,3.7C379.2,391.2,377.5,392.9,375.5,392.9z M397.9,422.9h-7.4c-2.1,0-3.8-1.6-3.9-3.7
				c0-2.1,1.7-3.8,3.7-3.8h7.4c2.1,0,3.8,1.6,3.9,3.7C401.7,421.2,400,422.9,397.9,422.9z M397.9,407.9h-7.4c-2.1,0-3.8-1.6-3.9-3.7
				c0-2.1,1.7-3.8,3.7-3.8h7.4c2.1,0,3.8,1.6,3.9,3.7C401.7,406.2,400,407.9,397.9,407.9z M397.9,392.9h-7.4c-2.1,0-3.8-1.6-3.9-3.7
				c0-2.1,1.7-3.8,3.7-3.8h7.4c2.1,0,3.8,1.6,3.9,3.7C401.7,391.2,400,392.9,397.9,392.9z M420.4,422.9h-7.4c-2.1,0-3.8-1.6-3.9-3.7
				c0-2.1,1.7-3.8,3.7-3.8h7.4c2.1,0,3.8,1.6,3.9,3.7C424.2,421.2,422.5,422.9,420.4,422.9z M420.4,407.9h-7.4
				c-2.1,0-3.8-1.6-3.9-3.7c0-2.1,1.7-3.8,3.7-3.8h7.4c2.1,0,3.8,1.6,3.9,3.7C424.2,406.2,422.5,407.9,420.4,407.9z M420.4,392.9
				h-7.4c-2.1,0-3.8-1.6-3.9-3.7c0-2.1,1.7-3.8,3.7-3.8h7.4c2.1,0,3.8,1.6,3.9,3.7C424.2,391.2,422.5,392.9,420.4,392.9z
				 M424.2,374.2c0,2.1-1.7,3.8-3.8,3.8H368c-2.1,0-3.8-1.7-3.8-3.8v-29.9c0-2.1,1.7-3.8,3.8-3.8h52.4c2.1,0,3.8,1.7,3.8,3.8V374.2z
				"/>
		</g>
		<g>
			<path class="st1" d="M382.9,321.7C382.9,321.7,383,321.7,382.9,321.7l0-44.9c0-8.3,6.7-15,15-15H278.1c-8.3,0-15,6.7-15,15v142.3
				c0,0,0,0,0,0h82.4c0,0,0,0,0,0v-82.4c0-8.3,6.7-15,15-15H382.9z M281.8,288h74.8c2.1,0,3.8,1.6,3.9,3.7c0,2.1-1.7,3.8-3.7,3.8
				h-74.8c-2.1,0-3.8-1.6-3.9-3.7C278,289.7,279.7,288,281.8,288z M334.3,389.2h-52.3c-2.1,0-3.8-1.6-3.9-3.7c0-2.1,1.7-3.8,3.7-3.8
				h52.3c2.1,0,3.8,1.6,3.9,3.7C338,387.5,336.3,389.2,334.3,389.2z M334.3,370.4h-52.3c-2.1,0-3.8-1.6-3.9-3.7
				c0-2.1,1.7-3.8,3.7-3.8h52.3c2.1,0,3.8,1.6,3.9,3.7C338,368.7,336.3,370.4,334.3,370.4z M334.3,351.7h-52.3
				c-2.1,0-3.8-1.6-3.9-3.7c0-2.1,1.7-3.8,3.7-3.8h52.3c2.1,0,3.8,1.6,3.9,3.7C338,350,336.3,351.7,334.3,351.7z M334.3,333h-52.3
				c-2.1,0-3.8-1.6-3.9-3.7c0-2.1,1.7-3.8,3.7-3.8h52.3c2.1,0,3.8,1.6,3.9,3.7C338,331.3,336.3,333,334.3,333z M356.7,314.3h-74.8
				c-2.1,0-3.8-1.6-3.9-3.7c0-2.1,1.7-3.8,3.7-3.8h74.8c2.1,0,3.8,1.6,3.9,3.7C360.5,312.5,358.8,314.3,356.7,314.3z"/>
		</g>
	</g>
</g>
</svg>
