<svg xmlns="http://www.w3.org/2000/svg" width="63.441" height="74.497" viewBox="0 0 63.441 74.497">
  <defs>
    <style>
      .cls-1 {
        fill: #fff;
      }

      .cls-2 {
        fill: #a4c639;
      }
    </style>
  </defs>
  <g id="Android_" data-name="Android " transform="translate(0 -0.858)">
    <path id="Path_3812" data-name="Path 3812" class="cls-1" d="M19.481.858A2.181,2.181,0,0,0,17.588,4.1l2.367,4.274a19.38,19.38,0,0,0-9.48,16.432c0,.029,0,.072,0,.115,0,.015,0,.024,0,.041v1.122A5.968,5.968,0,0,0,0,30V48.395A5.968,5.968,0,0,0,10.474,52.31v2.576A6.334,6.334,0,0,0,16.79,61.2h1.6v8.182a5.971,5.971,0,1,0,11.942,0V61.2h2.772v8.182a5.971,5.971,0,1,0,11.942,0V61.2h1.6a6.334,6.334,0,0,0,6.316-6.316V52.31a5.968,5.968,0,0,0,10.474-3.915V30a5.968,5.968,0,0,0-10.474-3.915V24.965c0-.065,0-.116,0-.156A19.381,19.381,0,0,0,43.48,8.384L45.853,4.1a2.188,2.188,0,0,0-3.827-2.123L39.544,6.464A22.823,22.823,0,0,0,23.9,6.457L21.415,1.981A2.189,2.189,0,0,0,19.481.858Z" transform="translate(0 0)"/>
    <path id="Path_3813" data-name="Path 3813" class="cls-2" d="M10.674,100.362a4.39,4.39,0,0,0-4.416,4.415V123.17a4.416,4.416,0,1,0,8.831,0V104.777a4.39,4.39,0,0,0-4.416-4.415Zm51.5,0a4.39,4.39,0,0,0-4.416,4.415V123.17a4.416,4.416,0,1,0,8.831,0V104.777a4.39,4.39,0,0,0-4.415-4.415Z" transform="translate(-4.703 -74.775)"/>
    <path id="Path_3814" data-name="Path 3814" class="cls-2" d="M84.682,184.818a4.39,4.39,0,0,0-4.416,4.416v18.392a4.416,4.416,0,0,0,8.831,0V189.234a4.39,4.39,0,0,0-4.415-4.416Zm14.714,0a4.39,4.39,0,0,0-4.416,4.416v18.392a4.416,4.416,0,0,0,8.831,0V189.234a4.39,4.39,0,0,0-4.415-4.416Z" transform="translate(-60.319 -138.242)"/>
    <path id="Path_3815" data-name="Path 3815" class="cls-2" d="M55.87,7.116a.631.631,0,0,0-.541.933l3.11,5.619A17.993,17.993,0,0,0,48.4,29.492H87.786A17.994,17.994,0,0,0,77.752,13.669l3.11-5.619a.631.631,0,0,0-.541-.933.618.618,0,0,0-.554.325l-3.151,5.68a21.225,21.225,0,0,0-17.04,0l-3.151-5.68a.618.618,0,0,0-.554-.325ZM48.4,31.047V59.589a4.75,4.75,0,0,0,4.76,4.76H83.026a4.75,4.75,0,0,0,4.76-4.76V31.047Z" transform="translate(-36.375 -4.703)"/>
    <path id="Path_3816" data-name="Path 3816" class="cls-1" d="M86.1,54.923a1.643,1.643,0,1,0,1.643,1.643A1.654,1.654,0,0,0,86.1,54.923Zm18.176,0a1.643,1.643,0,1,0,1.643,1.643,1.654,1.654,0,0,0-1.643-1.643Z" transform="translate(-63.467 -40.629)"/>
  </g>
</svg>
