<svg xmlns="http://www.w3.org/2000/svg" xmlns:xlink="http://www.w3.org/1999/xlink" width="70.041" height="75.177" viewBox="0 0 70.041 75.177">
  <defs>
    <style>
      .cls-1 {
        fill: none;
      }

      .cls-2 {
        clip-path: url(#clip-path);
      }

      .cls-3 {
        fill: #c3002f;
      }

      .cls-4 {
        fill: #dd0031;
      }

      .cls-5 {
        fill: #fffefe;
      }

      .cls-6 {
        fill: #dd0132;
      }

      .cls-7 {
        fill: #c30130;
      }
    </style>
    <clipPath id="clip-path">
      <rect id="Rectangle_448" data-name="Rectangle 448" class="cls-1" width="70.041" height="75.177"/>
    </clipPath>
  </defs>
  <g id="Angular_" data-name="Angular " transform="translate(0 -0.003)">
    <g id="Group_658" data-name="Group 658" class="cls-2" transform="translate(0 0.003)">
      <path id="Path_3793" data-name="Path 3793" class="cls-3" d="M761.89.036a3.8,3.8,0,0,1,1,.312q16.745,5.962,33.484,11.94c.62.221.551.041.461.8-.137,1.154-.262,2.309-.4,3.463q-.308,2.665-.621,5.329c-.162,1.4-.317,2.795-.478,4.192-.207,1.792-.42,3.583-.626,5.375-.2,1.716-.387,3.433-.585,5.149s-.406,3.461-.607,5.192c-.162,1.4-.317,2.795-.479,4.192-.207,1.792-.419,3.583-.625,5.375-.165,1.428-.324,2.856-.486,4.283-.105.927-.226,1.852-.312,2.78a.715.715,0,0,1-.437.618q-5.7,3.144-11.395,6.305-8.725,4.833-17.451,9.662c-.143.079-.27.207-.452.2,0-.214,0-.429,0-.643q0-14.053,0-28.107c.122-.006.244-.017.366-.017q4.225,0,8.451,0c.485,0,.391-.066.579.4q2.049,5.107,4.1,10.215c.165.411.144.357.526.357q3.7,0,7.394,0a.489.489,0,0,0,.35-.064c-.073-.173-.135-.328-.2-.48q-8.531-19.2-17.064-38.391-2.245-5.05-4.5-10.1,0-4.173,0-8.346" transform="translate(-726.852 -0.034)"/>
      <path id="Path_3794" data-name="Path 3794" class="cls-4" d="M35.038,46.425q0,14.053,0,28.107c0,.214,0,.429,0,.643-.155.031-.257-.082-.373-.147Q20.155,67,5.648,58.971a.681.681,0,0,1-.384-.606c-.191-1.764-.4-3.526-.606-5.289q-.292-2.531-.581-5.062-.305-2.644-.613-5.289c-.2-1.718-.391-3.436-.589-5.153-.2-1.733-.4-3.465-.6-5.2-.2-1.717-.391-3.436-.589-5.153q-.3-2.6-.6-5.2Q.783,19.494.493,16.963.28,15.116.066,13.27c-.024-.213-.038-.427-.063-.64a.2.2,0,0,1,.155-.238c.131-.042.257-.1.387-.144Q17.442,6.224,34.34.2a1.732,1.732,0,0,1,.7-.2q0,4.173,0,8.346c-.164.112-.193.3-.265.467q-7.9,17.694-15.787,35.391-2.83,6.346-5.654,12.693c-.063.142-.187.275-.129.482h7.632c.54,0,.431.024.613-.43q2.041-5.085,4.079-10.172c.178-.445.149-.374.512-.374q4.385,0,8.771,0c.076,0,.152.011.228.018" transform="translate(0 -0.003)"/>
      <path id="Path_3795" data-name="Path 3795" class="cls-5" d="M308.656,219.606c-.076-.006-.152-.017-.228-.017q-4.385,0-8.771,0c-.362,0-.333-.071-.512.374q-2.038,5.087-4.079,10.172c-.182.453-.074.429-.613.43h-7.632c-.058-.207.066-.34.129-.482q2.824-6.348,5.654-12.693,7.891-17.7,15.787-35.391c.072-.162.1-.355.265-.467q2.248,5.049,4.5,10.1,8.533,19.2,17.063,38.391c.068.152.129.307.2.48a.489.489,0,0,1-.35.064q-3.7,0-7.394,0c-.382,0-.361.054-.526-.357q-2.047-5.108-4.1-10.215c-.188-.468-.094-.4-.579-.4q-4.225,0-8.451,0c-.122,0-.244.011-.366.017m.054-21.96c-.005-.066-.05-.144-.1-.106a.557.557,0,0,0-.128.23q-3.049,7.336-6.094,14.674c-.044.106-.138.208-.049.359.646,0,1.3,0,1.958,0l4.355-.016c.107.006.213.016.32.016q2.823,0,5.647,0a.554.554,0,0,0,.356-.045,1.152,1.152,0,0,0-.148-.427q-2.057-4.954-4.117-9.906-1-2.391-2-4.778" transform="translate(-273.619 -173.184)"/>
      <path id="Path_3796" data-name="Path 3796" class="cls-6" d="M630.147,544.713q-2.177.008-4.355.016c-.656,0-1.313,0-1.958,0-.089-.151,0-.253.049-.359q3.045-7.337,6.094-14.673a.557.557,0,0,1,.128-.231c.05-.039.095.04.1.106a.963.963,0,0,0-.054.539q-.005,7.3,0,14.6" transform="translate(-595.113 -505.111)"/>
      <path id="Path_3797" data-name="Path 3797" class="cls-7" d="M761.734,547.115q0-7.3,0-14.6a.964.964,0,0,1,.054-.539q1,2.389,2,4.778,2.061,4.952,4.117,9.906a1.151,1.151,0,0,1,.148.427.554.554,0,0,1-.356.045q-2.823,0-5.647,0c-.107,0-.213-.011-.32-.016" transform="translate(-726.7 -507.513)"/>
    </g>
  </g>
</svg>
