<svg id="Bootstrap" xmlns="http://www.w3.org/2000/svg" width="85.329" height="67.997" viewBox="0 0 85.329 67.997">
  <defs>
    <style>
      .cls-1 {
        fill: #7e12f9;
      }

      .cls-2 {
        fill: #fff;
        stroke: #fff;
      }
    </style>
  </defs>
  <path id="Path_4104" data-name="Path 4104" class="cls-1" d="M9.413,8.886A8.5,8.5,0,0,1,17.723,0h49.89a8.5,8.5,0,0,1,8.31,8.886c-.155,4.441.046,10.194,1.494,14.884s3.9,7.679,7.913,8.061v4.333c-4.011.382-6.461,3.356-7.913,8.061s-1.649,10.443-1.494,14.884A8.5,8.5,0,0,1,67.612,68H17.723a8.5,8.5,0,0,1-8.31-8.886c.154-4.441-.046-10.194-1.494-14.884S4.011,36.547,0,36.165V31.832c4.011-.382,6.467-3.356,7.919-8.061S9.568,13.327,9.413,8.886Z" transform="translate(0 0)"/>
  <path id="Path_4105" data-name="Path 4105" class="cls-2" d="M192.767,131.622c7.882,0,12.632-3.859,12.632-10.225,0-4.812-3.389-8.3-8.422-8.847v-.2a8.08,8.08,0,0,0,6.6-7.869c0-5.464-4.313-9.023-10.886-9.023H177.9v36.165Zm-9.115-31.578H191.3c4.159,0,6.521,1.855,6.521,5.213,0,3.584-2.747,5.589-7.728,5.589h-6.445Zm0,26.992v-11.9h7.6c5.443,0,8.268,2,8.268,5.915s-2.747,5.99-7.934,5.99Z" transform="translate(-148.252 -79.548)"/>
</svg>
