<?xml version="1.0" encoding="utf-8"?>
<!-- Generator: Adobe Illustrator 26.0.2, SVG Export Plug-In . SVG Version: 6.00 Build 0)  -->
<svg version="1.1" id="Layer_1" xmlns:svgjs="http://svgjs.com/svgjs"
	 xmlns="http://www.w3.org/2000/svg" xmlns:xlink="http://www.w3.org/1999/xlink" x="0px" y="0px" viewBox="0 0 512 512"
	 style="enable-background:new 0 0 512 512;" xml:space="preserve">
<style type="text/css">
	.st0{fill:#045BB2;}
	.st1{fill:#022D62;}
</style>
<g>
	<g>
		<g>
			<path class="st0" d="M160.6,248.9L160.6,248.9c0.2,0,0.3,0,0.5,0s0.3,0,0.5,0l0,0C249.8,248,237,130.3,237,130.3
				c-3.7-78.6-69.4-78-75.9-77.7c-6.5-0.2-72.3-0.9-75.9,77.7C85.2,130.3,72.4,248,160.6,248.9z"/>
			<path class="st1" d="M218.1,270.9l-30.6,96.7L169.6,317c31.4-43.7-2.2-45.9-8.2-46l0,0c-0.1,0-0.1,0-0.2,0c-0.1,0-0.1,0-0.2,0
				l0,0c-6,0.1-39.6,2.2-8.2,46L135,367.6l-30.6-96.7c0,0-38.4,18.6-72.8,40.3C5.7,327.5,0.8,345,0.1,370.4L0,456.1h161.4h50.9
				c-0.6-2.1-0.9-4.3-0.9-6.6v-79.3c0-13.3,10.8-24.1,24.1-24.1h29.8c2.2,0,4.3,0.3,6.4,0.8v-12.5c0-11.6,8.2-21.2,19-23.5
				C256.4,289.4,218.1,270.9,218.1,270.9z"/>
			<path class="st0" d="M265.3,363.8h-29.8c-3.6,0-6.4,2.9-6.4,6.4v12.5v54.5v12.3c0,3.6,2.9,6.4,6.4,6.4h29.8
				c3.6,0,6.4-2.9,6.4-6.4v-12.3v-54.5v-12.3C271.7,366.7,268.8,363.8,265.3,363.8z"/>
			<path class="st0" d="M325.5,328.1h-29.8c-3.6,0-6.4,2.9-6.4,6.4v48.1v18.8v48c0,3.6,2.9,6.4,6.4,6.4h29.8c3.6,0,6.4-2.9,6.4-6.4
				v-48v-18.8v-48C332,331,329.1,328.1,325.5,328.1z"/>
			<path class="st0" d="M392.3,347.2v-53.1h20.6c3.8,0,6.2-4.2,4.1-7.4l-42-67.4c-1.9-3-6.4-3-8.3,0l-42,67.4
				c-2,3.2,0.3,7.4,4.1,7.4h20.6v155.4c0,3.6,2.9,6.4,6.4,6.4h29.9c3.6,0,6.4-2.8,6.4-6.4c-12-13.7-19.3-31.6-19.3-51.2
				C373,378.8,380.3,360.9,392.3,347.2z"/>
			<path class="st1" d="M450.9,337.2c-33.8,0-61.1,27.3-61.1,61.1s27.3,61.1,61.1,61.1s61.1-27.3,61.1-61.1S484.7,337.2,450.9,337.2
				z M468.5,422.5c-2.6,3.2-6.2,5.4-10.2,6.5c-1.8,0.5-2.5,1.4-2.5,3.2c0.1,1.8,0,3.6,0,5.4c0,1.6-0.8,2.5-2.4,2.5c-2,0-3.9,0-5.9,0
				c-1.7,0-2.5-1-2.5-2.6c0-1.4,0-2.6,0-4c0-2.9-0.1-3-2.9-3.5c-3.6-0.5-7.1-1.4-10.4-2.9c-2.6-1.3-2.8-1.9-2.1-4.6
				c0.5-2,1.2-4,1.7-6c0.7-2.3,1.4-2.6,3.5-1.5c3.7,1.9,7.4,2.9,11.5,3.5c2.6,0.3,5.1,0.1,7.5-0.9c4.5-2,5.2-7.2,1.4-10.3
				c-1.3-1-2.7-1.9-4.3-2.5c-4-1.8-8.1-3-11.7-5.2c-6.1-3.7-9.8-8.6-9.4-15.9c0.5-8.3,5.2-13.5,12.8-16.2c3.1-1.2,3.1-1,3.1-4.4
				c0-1.2,0-2.2,0-3.3c0.1-2.5,0.5-2.9,2.9-2.9c0.7,0,1.6,0,2.3,0c5.2,0,5.2,0,5.2,5.2c0,3.7,0,3.8,3.7,4.3c2.8,0.4,5.5,1.3,8.2,2.4
				c1.5,0.6,2,1.7,1.6,3.1c-0.6,2.3-1.3,4.5-2,6.8c-0.7,2.1-1.4,2.4-3.5,1.5c-4.1-2-8.4-2.8-13-2.5c-1.2,0.1-2.3,0.2-3.5,0.7
				c-3.9,1.7-4.5,6.1-1.3,8.7c1.7,1.4,3.7,2.3,5.7,3.1c3.5,1.5,6.9,2.8,10.3,4.6C473,400.3,475.8,413.5,468.5,422.5z"/>
		</g>
	</g>
</g>
</svg>
