<svg xmlns="http://www.w3.org/2000/svg" width="80.232" height="66.919" viewBox="0 0 80.232 66.919">
  <defs>
    <style>
      .cls-1 {
        fill: #394c60;
      }

      .cls-2 {
        fill: #3c9bd6;
      }

      .cls-3 {
        fill: #e74f38;
      }
    </style>
  </defs>
  <g id="_Click_Funnels" data-name=" Click Funnels" transform="translate(0)">
    <path id="Path_3976" data-name="Path 3976" class="cls-1" d="M75.644,0H4.588A4.609,4.609,0,0,0,0,4.588V62.331a4.609,4.609,0,0,0,4.588,4.588H75.644a4.609,4.609,0,0,0,4.588-4.588V4.588A4.609,4.609,0,0,0,75.644,0ZM71.3,4.409a2.927,2.927,0,1,1-2.927,2.927A2.941,2.941,0,0,1,71.3,4.409Zm-10.442,0a2.927,2.927,0,1,1-2.927,2.927A2.941,2.941,0,0,1,60.859,4.409Zm-10.442,0A2.927,2.927,0,1,1,47.49,7.336,2.941,2.941,0,0,1,50.417,4.409ZM74.34,60.981H5.854V14.213H74.34Z" transform="translate(0)"/>
    <path id="Path_3977" data-name="Path 3977" class="cls-2" d="M27.849,56.944a4.184,4.184,0,0,1,4.691-1.876A3.18,3.18,0,0,0,36.621,53a3.392,3.392,0,0,0-1.876-4.316,3.95,3.95,0,0,1-2.252-4.278,3.886,3.886,0,0,1,3.743-3.284,3.406,3.406,0,0,0-.056-6.811h-.056a4.045,4.045,0,0,1-3.846-3.246,4.432,4.432,0,0,1,0-1.642,3.82,3.82,0,0,1,2.064-2.814A3.421,3.421,0,0,0,35.8,22.12a3.346,3.346,0,0,0-4.25-2.073,3.846,3.846,0,0,1-2.655.075,4.775,4.775,0,0,1-1.876-1.51,4.362,4.362,0,0,1-.788-3.471H10.6c7.252,3.893,14.157,11.718,14.326,22.1C25.11,48.5,19.152,57.592,10.39,61.907H28.046A4,4,0,0,1,27.849,56.944Z" transform="translate(-0.643 -0.936)"/>
    <path id="Path_3978" data-name="Path 3978" class="cls-3" d="M52.021,19.653a3.989,3.989,0,0,1,.994,4.925,4.184,4.184,0,0,1-4.362,2.561A3.19,3.19,0,0,0,44.9,29.8a3.392,3.392,0,0,0,2.467,3.987,3.941,3.941,0,0,1,2.88,3.884,3.885,3.885,0,0,1-3.115,3.753,3.408,3.408,0,0,0,1.154,6.717,4.044,4.044,0,0,1,4.3,2.617,4.461,4.461,0,0,1,.244,1.623,3.831,3.831,0,0,1-1.6,3.124,3.421,3.421,0,0,0-.751,4.691,4.781,4.781,0,0,0,1.876,1.689H73.233C66.591,58.6,60.418,52.4,58.907,43.594c-2.139-12.487,3.753-23.37,13.65-28.454H51.271A3.335,3.335,0,0,0,52.021,19.653Z" transform="translate(-2.74 -0.936)"/>
    <path id="Path_3979" data-name="Path 3979" class="cls-2" d="M58.9,65.7h-.61A1.087,1.087,0,0,0,58.9,65.7Z" transform="translate(-3.605 -4.063)"/>
  </g>
</svg>
