<svg xmlns="http://www.w3.org/2000/svg" width="83.049" height="28.946" viewBox="0 0 83.049 28.946">
  <g id="cms-logo" transform="translate(0)">
    <path id="Path_3963" data-name="Path 3963" d="M14.493,28.9l-2.373-.166L9.913,28.2l-2.084-.876L5.956,26.114,4.248,24.7,2.79,22.99,1.623,21.117.749,19.034l-.541-2.25L0,14.452.208,12.12.749,9.871l.874-2.082L2.79,5.914,4.248,4.206,5.956,2.791,7.829,1.582,9.913.709,12.12.167,14.493,0h9V5h-8.5l-1.541.125-1.458.334-1.333.584-1.248.79L8.33,7.747,7.372,8.872l-.792,1.25-.542,1.332-.375,1.457-.125,1.541.125,1.541.375,1.457.542,1.334.792,1.249.958,1.125,1.083.916,1.248.792,1.333.583,1.458.333,1.541.125h8.5V4.374H28.7l6.081,10.745L40.4,4.374h5.33V24.365H40.525V15.494l-4.956,8.871H34.319L28.7,15.2v9.163H23.491v4.581l-9-.041ZM54.061,9.162H69.679V4.374H52.061l-.583.041-.542.125-.5.125-.457.25-.375.292-.333.416-.251.5-.124.582-.043.708v9.33H64.473v2.832H48.854v4.789H66.013l.5-.042.5-.083.5-.125.458-.167.459-.25.417-.375.333-.416.25-.542L69.6,21.7l.084-.792V11.954H54.061V9.162Z" transform="translate(0)"/>
    <path id="Path_3964" data-name="Path 3964" d="M119.552,28.9l2.333-.166,2.207-.541,2.083-.876,1.916-1.207,1.666-1.416,1.458-1.709,1.167-1.873.874-2.083.54-2.25L134,14.452,133.8,12.12l-.54-2.249-.874-2.082-1.167-1.875-1.458-1.708-1.666-1.415-1.916-1.208L124.092.709,121.885.167,119.552,0h-39.9V1.042L119.552,1l2.167.208,2.041.5,1.958.792,1.748,1.124,1.583,1.333L130.382,6.5l1.082,1.79L132.3,10.2l.5,2.082.166,2.166-.166,2.165-.5,2.084-.832,1.915-1.082,1.791-1.333,1.541-1.583,1.333-1.748,1.125-1.958.792-2.041.5-2.167.209h-39.9v1.041l39.9-.041ZM130.619,1.414a.969.969,0,1,1,1.938,0,.969.969,0,1,1-1.938,0Zm.972,1.2a1.193,1.193,0,1,0-1.212-1.2A1.191,1.191,0,0,0,131.59,2.609Zm-.253-1.1h.24l.363.6h.233l-.391-.606a.357.357,0,0,0,.356-.379c0-.271-.16-.391-.486-.391h-.524V2.1h.208v-.6Zm0-.177V.905h.284c.145,0,.3.031.3.2,0,.211-.158.224-.334.224Z" transform="translate(-50.956)"/>
  </g>
</svg>
