<?xml version="1.0" encoding="utf-8"?>
<!-- Generator: Adobe Illustrator 26.0.2, SVG Export Plug-In . SVG Version: 6.00 Build 0)  -->
<svg version="1.1" id="Layer_1" xmlns="http://www.w3.org/2000/svg" xmlns:xlink="http://www.w3.org/1999/xlink" x="0px" y="0px"
	 viewBox="0 0 1380.2 639.7" style="enable-background:new 0 0 1380.2 639.7;" xml:space="preserve">
<style type="text/css">
	.st0{fill:#0D2C40;}
	.st1{fill:#02D35F;}
</style>
<path class="st0" d="M443,473.6l100.5,7.4v85.8c0,0-187.7,184.9-461.2-34h93.2l10.3-84.3C185.7,448.5,292.1,556.4,443,473.6
	L443,473.6z"/>
<path class="st0" d="M102.8,77.2c0,0-204.1,190.1-37,433.4l93.3,8.9l8.9-90.2c0,0-85.8-140.5,25-251.5l-99.4-7.7L102.8,77.2z"/>
<path class="st0" d="M125,63.8c0,0,254.6-164.2,448.2,34l-85.8-5.9l-8.9,96.1c0,0-97.6-118.3-260.3-26.6l-99.1-4.4L125,63.8z"/>
<path class="st0" d="M500.7,211.8l5.9-99.1l90.2,8.9L869,424.8h-93.2l-8.9,84.3L500.7,211.8z"/>
<path class="st1" d="M468.2,457.3L812.8,77.2l91.7,8.9l-5.9,93.2L559.9,556.4l1.4-97.6L468.2,457.3z"/>
<path class="st1" d="M826.1,63.5l95.4,7.8l-6.6,91c0,0,140.9-89.9,244.1,5.5l100.9,4.4l9.1-88.6C1268.9,83.6,1111.3-94.2,826.1,63.5
	z"/>
<path class="st1" d="M1173.4,182.2l100.9,5.9l7.8-89.1c0,0,220.8,245.9-17.8,457.4l-97.6-6.8l8.9-100.9
	C1175.6,448.7,1307.6,300.9,1173.4,182.2L1173.4,182.2z"/>
<path class="st1" d="M892.7,448.5l-101.9-8.9l-5.7,89.9c0,0,180.8,208.6,453.7,42.1l-93.2-7.5l8.9-96.5
	C1154.5,467.5,1035.8,562.7,892.7,448.5L892.7,448.5z"/>
<path class="st0" d="M1021.7,293.1v33.6c-0.3,1.3-0.4,2.6-0.4,4c0,1.4,0.1,2.7,0.4,4v54.2h-25.2v-96.1L1021.7,293.1z"/>
<path class="st0" d="M1043.8,293.1c-8.3,1.1-16,4.7-22.1,10.4c-8.5,6.6-13.9,16.5-14.8,27.2c0.8,11.2,6.1,21.7,14.8,28.8
	c5.4,5.1,12.3,8.2,19.7,8.9c23.4,0.6,34.9-19.6,34.9-37.7C1076.2,312.7,1061.9,292,1043.8,293.1z M1036.2,347.4
	c-7.2-0.3-13.2-5.6-14.4-12.6c-0.3-1.3-0.4-2.7-0.4-4c0-1.3,0.1-2.7,0.4-4c1.3-7.1,7.2-12.3,14.4-12.6c9.2,0.9,16,9,15.1,18.2
	C1050.5,340.3,1044.2,346.7,1036.2,347.4L1036.2,347.4z M1126.3,321.8c-3.7-1.2-17.2-3.3-17.2-8.4c0-2.9,4.1-3.2,6.1-3.1
	c5.8,0,14.4,6.9,19.2,5.6c4.3-1.1,8-12.2,9.6-15.9c-12.1-6.9-26.3-9.5-40.1-7.3c-13,2.5-21.6,15.1-19.1,28.1c0.2,1.2,0.6,2.4,1,3.6
	c6.1,15.8,24.8,9.6,34.3,19.2c3.9,4-4.1,5.9-6.8,5.8c-8.1-1.2-15.9-4.2-22.8-8.6c-2.4,3.4-9.6,11.4-8.7,15.6
	c0.9,4.2,10.4,7.3,14.4,8.6c13.4,4.3,34,6,44-6.2C1152.9,344,1142,326.8,1126.3,321.8L1126.3,321.8z M930.8,266.5
	c-29.2,0-52.9,23.7-52.9,52.9s23.7,52.9,52.9,52.9s52.9-23.7,52.9-52.9l0,0C983.6,290.1,960,266.5,930.8,266.5z M930.8,346.3
	c-15,0-27.1-12.2-27-27.1c0-15,12.2-27.1,27.1-27c14.9,0,27,12.2,27,27.1C957.9,334.1,945.8,346.3,930.8,346.3
	C930.8,346.3,930.8,346.3,930.8,346.3L930.8,346.3z"/>
<path class="st1" d="M430.3,291.9h-30.1l31.9,83.3h13.7v-35.5L430.3,291.9z M461.2,292h30.1l-31.9,83.3h-13.7v-35.5L461.2,292z
	 M284,280.1c-10.1-7-21.9-11.4-34.1-12.6c-16.2-1.5-33.6,0.4-48.7,0.4v107.1h0.7c2.9,0.3,5.8,0.6,8.7,0.8c11.5,1,23.2,0.9,34.7-0.3
	c22.1-2.5,36.2-9.6,44.9-18.9c7.7-8.7,12.1-19.8,12.3-31.4v-2.5v-1.3C302.3,306.1,297.9,290.8,284,280.1L284,280.1z M259.5,345.6
	c-9.1,5.1-20.1,3.8-30.1,3.8v-55.8c10.6,0,22.6-1.4,31.9,5.1c15.5,10.9,14.9,37.4-1.9,46.8L259.5,345.6z M386.9,353.9
	c-2.5-2.1-5.6-5.6-8.9-6.1c-5.3-0.7-11.9,6.4-17.7,7c-9.1,0.9-15.7-5.4-19.2-13h55.5c0-15.4-1.3-31.6-14.4-42.1
	c-24.4-19.9-64.3-5.2-68.8,26.2c-4.8,33.1,21.2,54.4,52.9,50.3c7.9-1.1,15.2-4.4,21.2-9.6c2.2-1.9,5.3-4.6,3.7-7.7
	C390.1,356.9,388.6,355.3,386.9,353.9L386.9,353.9z M369.2,326.7h-28.3c1.4-7.8,9-13,16.8-11.6C363.5,316.2,368.1,320.8,369.2,326.7
	z"/>
</svg>
