<?xml version="1.0" encoding="utf-8"?>
<!-- Generator: Adobe Illustrator 26.0.2, SVG Export Plug-In . SVG Version: 6.00 Build 0)  -->
<svg version="1.1" id="Layer_1" xmlns="http://www.w3.org/2000/svg" xmlns:xlink="http://www.w3.org/1999/xlink" x="0px" y="0px"
	 viewBox="0 0 512 512" style="enable-background:new 0 0 512 512;" xml:space="preserve">
<style type="text/css">
	.st0{fill:url(#SVGID_1_);}
	.st1{fill:url(#SVGID_00000073700281017213791930000001727834609387820220_);}
	.st2{fill:#14559A;}
	.st3{fill:url(#SVGID_00000005972316729872843250000000363650723629164970_);}
	.st4{fill:#3092C4;}
	.st5{fill:#1969BC;}
	.st6{fill:url(#SVGID_00000036962467647668541670000012578688310392994742_);}
	.st7{fill:url(#SVGID_00000057846600211697176560000010100187425488499897_);}
	.st8{fill:url(#SVGID_00000151513513967089059940000006325315472427612058_);}
	.st9{fill:#2B74B1;}
	.st10{fill:#125A9E;}
	.st11{fill:url(#SVGID_00000021098760671642435920000017964776177493017263_);}
	.st12{fill:url(#SVGID_00000034049758284062355520000003563351917985177527_);}
	.st13{fill:#0D82CA;}
	.st14{fill:url(#SVGID_00000012467562766709799780000012205168223743929987_);}
	.st15{fill:#127BCA;}
	.st16{fill:url(#SVGID_00000076564164749617470960000014683863207927786648_);}
	.st17{fill:url(#SVGID_00000062182655213759932800000012049770484032625301_);}
	.st18{fill:#05A1E6;}
	.st19{fill:url(#SVGID_00000029729574306250994680000004226832448935155628_);}
	.st20{fill:url(#SVGID_00000011752527762971139590000007417268120666826157_);}
	.st21{fill:url(#SVGID_00000113353008726727961920000006217197260298228921_);}
	.st22{fill:#079AE1;}
	.st23{fill:#1E5CB3;}
	.st24{fill:#1D60B5;}
	.st25{fill:#175FAB;}
	.st26{fill:url(#SVGID_00000109014657618732765300000015090444411289586820_);}
	.st27{fill:#7DCBEC;}
	.st28{fill:#5EC5ED;}
	.st29{fill:url(#SVGID_00000039092428209601811370000009999734088532864652_);}
	.st30{fill:url(#SVGID_00000133520285066631728630000004882933337744431237_);}
	.st31{fill:url(#SVGID_00000048502163997467120140000003820259513196967862_);}
</style>
<g transform="translate(0.810127, 0.000000)">
	
		<linearGradient id="SVGID_1_" gradientUnits="userSpaceOnUse" x1="-3408.0178" y1="44.9582" x2="-3408.0178" y2="47.02" gradientTransform="matrix(45.6076 0 0 81.335 155664.5156 -3468.6086)">
		<stop  offset="0" style="stop-color:#0994DC"/>
		<stop  offset="0.35" style="stop-color:#66CEF5"/>
		<stop  offset="0.35" style="stop-color:#66CEF5"/>
		<stop  offset="0.8462" style="stop-color:#127BCA"/>
		<stop  offset="0.8462" style="stop-color:#127BCA"/>
		<stop  offset="1" style="stop-color:#127BCA"/>
	</linearGradient>
	<path class="st0" d="M201.5,214.6c12.7,38.7,17.5,107.9,54.5,107.9l0,0c2.8,0,5.7-0.3,8.5-0.8l0,0c-33.7-7.9-37.7-76.2-58.2-111.6
		l0,0C204.7,211.5,203.1,213,201.5,214.6"/>
	
		<linearGradient id="SVGID_00000005948449319797244190000015191944231067127986_" gradientUnits="userSpaceOnUse" x1="-3411.7161" y1="43.8218" x2="-3411.7161" y2="45.8835" gradientTransform="matrix(47.8692 0 0 83.4083 163555.5312 -3471.3352)">
		<stop  offset="0" style="stop-color:#0E76BC"/>
		<stop  offset="0.36" style="stop-color:#36AEE8"/>
		<stop  offset="0.36" style="stop-color:#36AEE8"/>
		<stop  offset="0.8462" style="stop-color:#00ADEF"/>
		<stop  offset="0.8462" style="stop-color:#00ADEF"/>
		<stop  offset="1" style="stop-color:#00ADEF"/>
	</linearGradient>
	<path style="fill:url(#SVGID_00000005948449319797244190000015191944231067127986_);" d="M206.3,210
		c20.6,35.4,24.5,103.8,58.2,111.6l0,0c2.6-0.5,5.3-1.2,8-2.1l0,0c-30.2-14.8-38.6-81.2-61.9-113.2l0,0
		C209.2,207.5,207.8,208.7,206.3,210"/>
	<path class="st2" d="M236,188.9c-2.8,0-5.7,0.3-8.5,0.8c-7.5,1.4-15.1,4.6-22.8,9.5c2.1,2.1,4.1,4.4,6,7
		c7.8-6.5,15.6-11.3,23.3-14.1c2.9-1.1,5.8-1.9,8.7-2.4C240.5,189.2,238.3,188.9,236,188.9"/>
	
		<linearGradient id="SVGID_00000070095956860076144420000017548917783735438008_" gradientUnits="userSpaceOnUse" x1="-3407.4978" y1="44.9986" x2="-3407.4978" y2="43.3794" gradientTransform="matrix(45.4522 0 0 84.5 155152.2812 -3483.7812)">
		<stop  offset="0" style="stop-color:#1C63B7"/>
		<stop  offset="0.5" style="stop-color:#33BDF2"/>
		<stop  offset="1" style="stop-color:#33BDF2;stop-opacity:0.4196"/>
	</linearGradient>
	<path style="fill:url(#SVGID_00000070095956860076144420000017548917783735438008_);" d="M296.1,305.8c3.1-2.5,6.2-5.2,9.3-8.1
		C292.5,259.1,287.9,189,250.6,189c-2.7,0-5.4,0.2-8,0.7C276.6,198.2,280.9,272.1,296.1,305.8"/>
	<path class="st4" d="M242.6,189.7c-2.1-0.5-4.3-0.8-6.6-0.8l14.7,0.1C248,189,245.3,189.2,242.6,189.7"/>
	<path class="st5" d="M295.5,314c-1.5-1.4-2.8-2.9-4.2-4.5c-6.3,4.4-12.5,7.8-18.7,10c2.2,1.1,4.5,1.9,7,2.4c1.9,0.4,3.9,0.6,6,0.6
		c7,0,12.5-0.8,17.2-3.1C300,318,297.7,316.2,295.5,314"/>
	
		<linearGradient id="SVGID_00000055701187870734713240000003303743927429495713_" gradientUnits="userSpaceOnUse" x1="-3406.771" y1="42.1448" x2="-3406.771" y2="44.2065" gradientTransform="matrix(45.0105 0 0 86.5982 153605.5312 -3483.1641)">
		<stop  offset="0" style="stop-color:#166AB8"/>
		<stop  offset="0.4" style="stop-color:#36AEE8"/>
		<stop  offset="0.4" style="stop-color:#36AEE8"/>
		<stop  offset="0.8462" style="stop-color:#0798DD"/>
		<stop  offset="0.8462" style="stop-color:#0798DD"/>
		<stop  offset="1" style="stop-color:#0798DD"/>
	</linearGradient>
	<path style="fill:url(#SVGID_00000055701187870734713240000003303743927429495713_);" d="M233.9,192.2
		c30.4,15.9,33.1,88,57.4,117.3l0,0c1.6-1.1,3.2-2.4,4.9-3.6l0,0c-15.2-33.7-19.5-107.6-53.5-116.1l0,0
		C239.7,190.3,236.8,191.1,233.9,192.2"/>
	
		<linearGradient id="SVGID_00000142135808640778302320000016875660108782845871_" gradientUnits="userSpaceOnUse" x1="-3425.2078" y1="39.626" x2="-3425.2078" y2="41.6878" gradientTransform="matrix(58.3509 0 0 92.0822 200114.8594 -3481.4453)">
		<stop  offset="0" style="stop-color:#124379"/>
		<stop  offset="0.39" style="stop-color:#1487CB"/>
		<stop  offset="0.39" style="stop-color:#1487CB"/>
		<stop  offset="0.7802" style="stop-color:#165197"/>
		<stop  offset="0.7802" style="stop-color:#165197"/>
		<stop  offset="1" style="stop-color:#165197"/>
	</linearGradient>
	<path style="fill:url(#SVGID_00000142135808640778302320000016875660108782845871_);" d="M210.6,206.3
		c23.3,32,31.7,98.3,61.9,113.2l0,0c6.2-2.2,12.5-5.6,18.7-10l0,0c-24.3-29.3-26.9-101.4-57.4-117.3l0,0
		C226.2,195,218.4,199.8,210.6,206.3"/>
	
		<linearGradient id="SVGID_00000026136863410118887020000009984190259088293519_" gradientUnits="userSpaceOnUse" x1="-3302.6533" y1="119.6039" x2="-3301.2708" y2="119.6039" gradientTransform="matrix(19.4176 0 0 30.9219 64304.3008 -3472.8293)">
		<stop  offset="0" style="stop-color:#33BDF2;stop-opacity:0.698"/>
		<stop  offset="1" style="stop-color:#1DACD8"/>
	</linearGradient>
	<path style="fill:url(#SVGID_00000026136863410118887020000009984190259088293519_);" d="M186.6,213.6c-3.7,8.3-7.4,19.1-11.9,33.3
		c9-12.7,17.9-23.6,26.8-32.4c-1.2-3.8-2.5-7.2-4-10.3C193.9,207,190.2,210.2,186.6,213.6"/>
	<path class="st9" d="M200.8,201.8c-1.1,0.8-2.2,1.6-3.2,2.4c1.4,3.1,2.7,6.6,4,10.3c1.6-1.6,3.2-3.1,4.8-4.6
		C204.6,207,202.8,204.3,200.8,201.8"/>
	<path class="st10" d="M204.6,199.3c-1.3,0.8-2.5,1.7-3.8,2.6c2,2.5,3.8,5.2,5.6,8.2c1.4-1.3,2.8-2.5,4.3-3.7
		C208.7,203.7,206.7,201.4,204.6,199.3"/>
	
		<linearGradient id="SVGID_00000044151001182685955270000018321995205853404585_" gradientUnits="userSpaceOnUse" x1="-3441.0359" y1="38.5203" x2="-3441.0359" y2="37.1697" gradientTransform="matrix(79.1425 0 0 98.6787 272708.2812 -3486.052)">
		<stop  offset="0" style="stop-color:#136AB4"/>
		<stop  offset="0.6" style="stop-color:#59CAF5;stop-opacity:0.549"/>
		<stop  offset="1" style="stop-color:#59CAF5;stop-opacity:0.2353"/>
	</linearGradient>
	<path style="fill:url(#SVGID_00000044151001182685955270000018321995205853404585_);" d="M412.2,186
		C395,252.4,359,305.7,328.9,319.2h-0.1c-0.5,0.2-1.1,0.5-1.6,0.7c-0.1,0-0.1,0.1-0.2,0.1c-0.2,0.1-0.3,0.1-0.5,0.2
		c-0.1,0-0.1,0.1-0.2,0.1c-0.3,0.1-0.5,0.2-0.8,0.3c-0.1,0-0.2,0.1-0.3,0.1c-0.1,0-0.2,0.1-0.4,0.1c-0.1,0-0.2,0.1-0.4,0.1
		c-0.1,0-0.2,0.1-0.3,0.1c-0.2,0.1-0.4,0.1-0.6,0.2c-0.1,0-0.2,0-0.3,0.1c-0.1,0-0.3,0.1-0.4,0.1s-0.2,0.1-0.3,0.1
		c-0.2,0-0.3,0.1-0.5,0.1s-0.4,0.1-0.6,0.1c1.4,0.5,2.8,0.8,4.3,0.8c28.6,0,57.4-51.2,105.1-136.4L412.2,186L412.2,186z"/>
	
		<linearGradient id="SVGID_00000077308415944951805870000005907783960700860825_" gradientUnits="userSpaceOnUse" x1="-3438.1187" y1="37.7302" x2="-3436.7371" y2="37.7302" gradientTransform="matrix(72.0226 0 0 99.1613 247701.625 -3483.9307)">
		<stop  offset="0" style="stop-color:#05A1E6;stop-opacity:0.2471"/>
		<stop  offset="1" style="stop-color:#05A1E6"/>
	</linearGradient>
	<path style="fill:url(#SVGID_00000077308415944951805870000005907783960700860825_);" d="M168.5,191.6L168.5,191.6
		c0.1,0,0.1,0,0.1-0.1l0,0c0.2-0.1,0.3-0.1,0.5-0.2h0.1c0,0,0.1,0,0.1-0.1c0.2-0.1,0.3-0.1,0.5-0.2l0,0c0.4-0.1,0.7-0.3,1.1-0.4
		c0.1,0,0.1,0,0.2,0c0.2,0,0.3-0.1,0.5-0.1c0.1,0,0.1,0,0.2-0.1c0.2,0,0.3-0.1,0.5-0.1c0.1,0,0.1,0,0.2,0c0.5-0.1,1-0.3,1.6-0.4
		c0.1,0,0.1,0,0.2,0c0.2,0,0.3-0.1,0.5-0.1c0.1,0,0.1,0,0.2-0.1c0.2,0,0.3,0,0.5-0.1h0.1c0.3-0.1,0.6-0.1,1-0.2h0.2
		c0.2,0,0.3,0,0.4-0.1c0.1,0,0.2,0,0.2,0c0.1,0,0.3,0,0.4-0.1c0.1,0,0.1,0,0.2,0c0.3,0,0.7-0.1,1-0.1c-1-0.1-2-0.2-3-0.2
		c-32.2,0-76.5,59.7-96.5,137.1h3.9c6.4-11.4,12.1-22.2,17.4-32.3C114.7,238.9,143.1,201.5,168.5,191.6"/>
	<path class="st13" d="M186.6,213.6c3.7-3.5,7.3-6.6,11-9.4c-0.8-1.8-1.7-3.5-2.6-5C192,202.8,189.3,207.5,186.6,213.6"/>
	<path class="st13" d="M189.2,192.1c2.1,1.8,4,4.2,5.7,7.1c0.5-0.7,1.1-1.3,1.7-1.9c-2.4-2.2-5-4.1-7.8-5.4
		C188.9,191.9,189,192,189.2,192.1C189.2,192,189.2,192.1,189.2,192.1"/>
	
		<linearGradient id="SVGID_00000139984899701590168170000010689529433379552186_" gradientUnits="userSpaceOnUse" x1="-3414.1248" y1="51.4807" x2="-3414.1248" y2="49.6318" gradientTransform="matrix(49.0511 0 0 73.8222 167601.1719 -3481.8704)">
		<stop  offset="0" style="stop-color:#318ED5"/>
		<stop  offset="1" style="stop-color:#38A7E4"/>
	</linearGradient>
	<path style="fill:url(#SVGID_00000139984899701590168170000010689529433379552186_);" d="M100.7,293.7
		c29.4-56.6,43.3-92.4,67.8-102.1l0,0C143.2,201.5,114.6,238.9,100.7,293.7"/>
	<path class="st15" d="M196.6,197.3c-0.6,0.6-1.1,1.2-1.7,1.9c0.9,1.5,1.8,3.2,2.6,5c1.1-0.8,2.2-1.6,3.2-2.4
		C199.5,200.2,198.1,198.7,196.6,197.3"/>
	
		<linearGradient id="SVGID_00000181082917941426365610000016450427936768746911_" gradientUnits="userSpaceOnUse" x1="-3408.5552" y1="65.832" x2="-3408.5552" y2="63.5098" gradientTransform="matrix(45.6036 0 0 57.1283 155585.4844 -3441.7991)">
		<stop  offset="0" style="stop-color:#05A1E6"/>
		<stop  offset="1" style="stop-color:#05A1E6;stop-opacity:0.549"/>
	</linearGradient>
	<path style="fill:url(#SVGID_00000181082917941426365610000016450427936768746911_);" d="M114,325.7L114,325.7
		c-0.2,0-0.4,0-0.5,0.1h-0.1c-0.2,0-0.3,0-0.5,0h-0.1c-0.4,0-0.7,0-1.1,0.1h-0.1c29.7-0.8,43.3-15.7,50-37.3
		c5.1-16.4,9.3-30.1,13-41.7c-12.4,17.5-24.9,38.4-37.5,61.8C131.1,320,121.9,324.7,114,325.7"/>
	
		<linearGradient id="SVGID_00000029724790999814832280000002775797595291293571_" gradientUnits="userSpaceOnUse" x1="-3418.8628" y1="46.7573" x2="-3418.8628" y2="45.3749" gradientTransform="matrix(52.5191 0 0 81.0936 179705.8906 -3466.0149)">
		<stop  offset="0" style="stop-color:#1959A6"/>
		<stop  offset="0.5" style="stop-color:#05A1E6"/>
		<stop  offset="0.5" style="stop-color:#05A1E6"/>
		<stop  offset="0.9176" style="stop-color:#7EC5EA"/>
		<stop  offset="1" style="stop-color:#7EC5EA"/>
	</linearGradient>
	<path style="fill:url(#SVGID_00000029724790999814832280000002775797595291293571_);" d="M114,325.7L114,325.7
		c7.9-1,17.1-5.7,23.2-17l0,0c12.6-23.4,25.1-44.3,37.5-61.8l0,0c4.5-14.2,8.3-25.1,11.9-33.3l0,0
		C161.8,237.2,136.9,276.4,114,325.7"/>
	<path class="st18" d="M100.7,293.7c-5.3,10.1-11,20.9-17.4,32.3h11.2C95.9,314.7,98,303.9,100.7,293.7"/>
	
		<linearGradient id="SVGID_00000178897348090508923160000018099000284454800056_" gradientUnits="userSpaceOnUse" x1="-3437.6807" y1="38.4052" x2="-3437.9756" y2="37.1774" gradientTransform="matrix(72.6768 0 0 99.0047 249994.1875 -3483.7478)">
		<stop  offset="0" style="stop-color:#165096"/>
		<stop  offset="1" style="stop-color:#0D82CA"/>
	</linearGradient>
	<path style="fill:url(#SVGID_00000178897348090508923160000018099000284454800056_);" d="M178,189.2c-0.1,0-0.2,0-0.2,0l0,0
		c-0.1,0-0.3,0-0.4,0.1l0,0c-0.1,0-0.2,0-0.2,0l0,0c-0.2,0-0.3,0-0.4,0.1l0,0c-0.1,0-0.1,0-0.2,0l0,0c-0.3,0.1-0.6,0.1-1,0.2l0,0
		h-0.1l0,0c-0.2,0-0.3,0.1-0.5,0.1l0,0c-0.1,0-0.2,0-0.2,0.1l0,0c-0.2,0-0.3,0.1-0.5,0.1l0,0c-0.1,0-0.1,0-0.2,0l0,0
		c-0.5,0.1-1,0.3-1.6,0.4l0,0c-0.1,0-0.1,0-0.2,0.1l0,0c-0.2,0-0.3,0.1-0.5,0.1l0,0c-0.1,0-0.1,0-0.2,0.1l0,0
		c-0.2,0-0.3,0.1-0.5,0.1l0,0c-0.1,0-0.1,0-0.2,0l0,0c-0.4,0.1-0.7,0.3-1.1,0.4l0,0l0,0l0,0c-0.2,0-0.3,0.1-0.5,0.2l0,0
		c-0.1,0-0.1,0.1-0.2,0.1l0,0c-0.2,0-0.3,0.1-0.5,0.2l0,0c-0.1,0-0.1,0-0.2,0.1l0,0c-24.5,9.7-38.5,45.5-67.8,102.1l0,0
		c-2.6,10.2-4.7,21-6.2,32.3l0,0H96c4.4,0,5.7,0,10.8,0l0,0h0.3h0.8h0.3h0.1h0.3h0.1h0.1h0.2h0.6h0.6h0.5h0.1h0.9l0,0
		c0.4,0,0.7,0,1.1-0.1l0,0h0.1l0,0c0.2,0,0.3,0,0.5,0l0,0h0.1l0,0c0.2,0,0.4,0,0.5-0.1l0,0c22.9-49.3,47.8-88.5,72.6-112.1l0,0
		c2.7-6.2,5.4-10.9,8.4-14.5l0,0c-1.7-2.9-3.6-5.3-5.7-7.1l0,0h-0.1l0,0c-0.1,0-0.2-0.1-0.4-0.2l0,0c-0.1-0.1-0.2-0.1-0.3-0.2l0,0
		c-0.1,0-0.2-0.1-0.3-0.2l0,0c-0.1,0-0.3-0.1-0.4-0.2l0,0c-0.1,0-0.2-0.1-0.3-0.1l0,0c-0.2-0.1-0.4-0.2-0.7-0.3l0,0
		c-0.1,0-0.2-0.1-0.3-0.1l0,0c-0.2-0.1-0.3-0.1-0.5-0.2l0,0c-0.1,0-0.2-0.1-0.3-0.1l0,0c-0.2-0.1-0.5-0.2-0.7-0.2l0,0h-0.1l0,0
		c-0.3-0.1-0.5-0.1-0.8-0.2l0,0c-0.1,0-0.1,0-0.2-0.1l0,0c-0.2-0.1-0.4-0.1-0.7-0.2l0,0c-0.1,0-0.1,0-0.2,0l0,0
		c-0.5-0.1-1.1-0.3-1.6-0.4l0,0c-0.1,0-0.1,0-0.2,0l0,0c-0.2,0-0.5-0.1-0.7-0.1l0,0c-0.1,0-0.1,0-0.1,0l0,0c-0.3,0-0.6-0.1-0.8-0.1
		l0,0h-0.1l0,0c-0.2,0-0.4,0-0.6-0.1l0,0C178.7,189.2,178.3,189.2,178,189.2"/>
	
		<linearGradient id="SVGID_00000153694622999782991590000017733110725474877087_" gradientUnits="userSpaceOnUse" x1="-3375.9985" y1="65.2448" x2="-3375.9985" y2="64.1349" gradientTransform="matrix(32.7663 0 0 57.2261 110972.4297 -3483.802)">
		<stop  offset="0" style="stop-color:#05A1E6"/>
		<stop  offset="0.8736" style="stop-color:#0495D6"/>
		<stop  offset="1" style="stop-color:#0495D6"/>
	</linearGradient>
	<path style="fill:url(#SVGID_00000153694622999782991590000017733110725474877087_);" d="M345,222.7c-5.6,18.1-10.2,33-14.2,45.3
		l0,0c15.5-21.3,30.8-48.2,45.3-79.1l0,0C359.1,194.3,350.1,206.4,345,222.7"/>
	
		<linearGradient id="SVGID_00000049928858204046544210000005747647410055968684_" gradientUnits="userSpaceOnUse" x1="-3426.4192" y1="38.0637" x2="-3426.8477" y2="39.5842" gradientTransform="matrix(60.2691 0 0 96.3231 206890.4688 -3486.0273)">
		<stop  offset="0" style="stop-color:#38A7E4;stop-opacity:0.3294"/>
		<stop  offset="0.9615" style="stop-color:#0E88D3"/>
		<stop  offset="0.9615" style="stop-color:#0E88D3"/>
		<stop  offset="1" style="stop-color:#0E88D3"/>
	</linearGradient>
	<path style="fill:url(#SVGID_00000049928858204046544210000005747647410055968684_);" d="M331.3,318c-0.8,0.4-1.6,0.8-2.4,1.1
		c30.1-13.4,66.1-66.8,83.3-133.2h-3.5C369.2,256.6,356.5,303.9,331.3,318"/>
	<path class="st22" d="M311.6,312.1c6.6-8,11.9-21.6,19.2-44c-8.4,11.6-16.9,21.5-25.4,29.6c0,0,0,0,0,0.1
		C307.2,303.2,309.3,308.1,311.6,312.1"/>
	<path class="st5" d="M311.6,312.1c-2.2,2.7-4.6,4.8-7.2,6.3c-0.6,0.3-1.2,0.6-1.8,0.9c2.8,1.5,5.8,2.5,9.2,2.9l0,0
		c0.5,0,1,0.1,1.5,0.1h0.1c0.2,0,0.5,0,0.7,0h0.1h0.7h0.8h0.2h0.6c0.1,0,0.2,0,0.3,0c0.2,0,0.4,0,0.5,0h0.1h0.2c0.2,0,0.4,0,0.6-0.1
		l0,0c0.1,0,0.1,0,0.2,0c0.2,0,0.4-0.1,0.6-0.1h0.2c0.2,0,0.5-0.1,0.7-0.1l0,0h0.1c0.5-0.1,0.9-0.2,1.4-0.3
		C317.6,320.3,314.4,316.9,311.6,312.1"/>
	<path class="st23" d="M256,322.4c2.8,0,5.7-0.3,8.5-0.8c2.6-0.5,5.3-1.2,8-2.1c2.2,1.1,4.5,1.9,7,2.4c1.9,0.4,3.9,0.6,6,0.6H256
		V322.4z"/>
	<path class="st23" d="M285.5,322.4c7,0,12.5-0.8,17.2-3.1c2.8,1.5,5.8,2.5,9.2,2.9l0,0c0.5,0,1,0.1,1.5,0.1h0.1c0.2,0,0.5,0,0.7,0
		h0.1h0.7L285.5,322.4L285.5,322.4z"/>
	<path class="st24" d="M315,322.4h0.8h0.2h0.6c0.1,0,0.2,0,0.3,0c0.2,0,0.4,0,0.5,0h0.1h0.2c0.2,0,0.4,0,0.6-0.1l0,0
		c0.1,0,0.1,0,0.2,0c0.2,0,0.4-0.1,0.6-0.1c0.1,0,0.1,0,0.2,0c0.2,0,0.5-0.1,0.7-0.1l0,0h0.1c0.5-0.1,0.9-0.2,1.4-0.3l0,0
		c1.4,0.5,2.8,0.8,4.3,0.8L315,322.4L315,322.4z"/>
	<path class="st25" d="M305.4,297.7L305.4,297.7c-3.1,2.9-6.2,5.6-9.3,8.1c-1.6,1.3-3.2,2.5-4.9,3.6c1.4,1.6,2.7,3.2,4.2,4.5
		c2.2,2.1,4.6,4,7.2,5.4c0.6-0.3,1.2-0.6,1.7-0.9c2.6-1.5,5-3.6,7.2-6.3C309.3,308.1,307.3,303.2,305.4,297.7"/>
	
		<linearGradient id="SVGID_00000072249585320637588720000018140350028143994530_" gradientUnits="userSpaceOnUse" x1="-3435.2878" y1="37.4229" x2="-3435.2878" y2="38.8355" gradientTransform="matrix(70.2816 0 0 98.1105 241797.5781 -3486.0781)">
		<stop  offset="0" style="stop-color:#168CD4"/>
		<stop  offset="0.5" style="stop-color:#1C87CC"/>
		<stop  offset="1" style="stop-color:#154B8D"/>
	</linearGradient>
	<path style="fill:url(#SVGID_00000072249585320637588720000018140350028143994530_);" d="M397.7,186H383h-1.5l0,0h-1.4l0,0H380
		c-0.9,0-1.9,0.1-2.8,0.1l0,0c-0.4,0.9-0.9,1.8-1.3,2.8l0,0c-14.5,31-29.8,57.8-45.3,79.1l0,0c-7.3,22.4-12.6,36-19.2,44l0,0
		c2.8,4.8,6.1,8.1,9.9,9.6l0,0c0.1,0,0.2,0,0.3-0.1l0,0h0.1l0,0c0.1,0,0.1,0,0.2,0l0,0c0.2,0,0.3-0.1,0.5-0.1l0,0
		c0.1,0,0.2,0,0.3-0.1l0,0c0.1,0,0.3-0.1,0.4-0.1l0,0c0.1,0,0.2-0.1,0.3-0.1l0,0c0.2-0.1,0.4-0.1,0.6-0.2l0,0c0.1,0,0.2-0.1,0.3-0.1
		l0,0c0.1,0,0.2-0.1,0.4-0.1l0,0c0.1,0,0.3-0.1,0.4-0.1l0,0c0.1,0,0.2-0.1,0.3-0.1l0,0c0.3-0.1,0.5-0.2,0.8-0.3l0,0
		c0.1,0,0.1-0.1,0.2-0.1l0,0c0.2-0.1,0.3-0.1,0.5-0.2l0,0c0.1,0,0.1,0,0.2-0.1l0,0c0.5-0.2,1.1-0.4,1.6-0.7l0,0h0.1l0,0
		c0.8-0.3,1.6-0.7,2.4-1.1l0,0c25.2-14.1,37.9-61.4,77.5-132l0,0L397.7,186L397.7,186z"/>
	<path class="st27" d="M179,189.1c0.1,0,0.1,0,0.2,0c0.2,0,0.3,0,0.5,0h0.2c0.3,0,0.6,0.1,0.8,0.1c0.1,0,0.1,0,0.1,0
		c0.2,0,0.5,0.1,0.7,0.1c0.1,0,0.1,0,0.2,0c0.5,0.1,1.1,0.2,1.6,0.4c0.1,0,0.1,0,0.1,0c0.2,0.1,0.4,0.1,0.7,0.2c0.1,0,0.1,0,0.2,0.1
		c0.3,0.1,0.5,0.1,0.8,0.2c0,0,0,0,0.1,0c0.2,0.1,0.4,0.2,0.7,0.2c0.1,0,0.2,0.1,0.3,0.1c0.2,0.1,0.3,0.1,0.5,0.2
		c0.1,0,0.2,0.1,0.3,0.1c0.2,0.1,0.4,0.2,0.6,0.3c0.1,0,0.2,0.1,0.3,0.1c0.1,0.1,0.3,0.1,0.4,0.2c0.1,0.1,0.2,0.1,0.3,0.2
		c0.1,0.1,0.2,0.1,0.3,0.2c2.8,1.4,5.4,3.2,7.8,5.4c0.9-0.9,1.8-1.8,2.8-2.5c-5.2-3.7-11.2-5.8-18-5.8
		C180.6,189.1,179.8,189.1,179,189.1"/>
	<path class="st28" d="M196.6,197.3c1.5,1.4,2.9,2.9,4.2,4.5c1.3-0.9,2.6-1.8,3.8-2.6c-1.7-1.7-3.4-3.2-5.3-4.5
		C198.4,195.6,197.5,196.4,196.6,197.3"/>
	
		<linearGradient id="SVGID_00000054259973053364672660000001560108516723197109_" gradientUnits="userSpaceOnUse" x1="-3376.7334" y1="-861.9089" x2="-3375.75" y2="-865.0248" gradientTransform="matrix(32.4594 0 0 -4.2491 109790.1406 -3479.6792)">
		<stop  offset="0" style="stop-color:#97D6EE"/>
		<stop  offset="0.7033" style="stop-color:#55C1EA"/>
		<stop  offset="1" style="stop-color:#55C1EA"/>
	</linearGradient>
	<path style="fill:url(#SVGID_00000054259973053364672660000001560108516723197109_);" d="M179,189.1c0.8-0.1,1.6-0.1,2.4-0.1
		c6.8,0,12.8,2.1,18,5.8c5.5-4.4,12.2-5.9,21.5-5.9H176C177,188.9,178,189,179,189.1"/>
	
		<linearGradient id="SVGID_00000122702808940373445200000010650892706154387366_" gradientUnits="userSpaceOnUse" x1="-3351.5891" y1="-491.0501" x2="-3350.637" y2="-489.5233" gradientTransform="matrix(26.4722 0 0 -7.484 88925.9531 -3476.4495)">
		<stop  offset="0" style="stop-color:#7ACCEC"/>
		<stop  offset="1" style="stop-color:#3FB7ED"/>
	</linearGradient>
	<path style="fill:url(#SVGID_00000122702808940373445200000010650892706154387366_);" d="M220.8,188.9c-9.3,0-15.9,1.5-21.5,5.9
		c1.8,1.3,3.6,2.8,5.3,4.5c7.7-4.9,15.3-8.1,22.8-9.5c2.9-0.5,5.7-0.8,8.5-0.8L220.8,188.9L220.8,188.9z"/>
	
		<linearGradient id="SVGID_00000116949037599078873510000005696219200215264898_" gradientUnits="userSpaceOnUse" x1="-3417.2246" y1="45.6265" x2="-3417.2246" y2="47.3074" gradientTransform="matrix(52.0449 0 0 80.6355 178190.5156 -3485.7566)">
		<stop  offset="0" style="stop-color:#1DA7E7"/>
		<stop  offset="1" style="stop-color:#37ABE7;stop-opacity:0"/>
	</linearGradient>
	<path style="fill:url(#SVGID_00000116949037599078873510000005696219200215264898_);" d="M330.8,268.1c4-12.3,8.5-27.2,14.2-45.3
		c5.1-16.3,14.1-28.5,31.1-33.8c0.4-0.9,0.9-1.8,1.3-2.8c-27.6,1.7-40.6,15.7-47.1,36.5c-11.4,36.4-18.3,59.9-24.9,74.9
		C313.9,289.5,322.4,279.6,330.8,268.1"/>
	<path d="M371.4,312.8h-3.1v9.7H367v-9.7h-3.1v-1.2h7.6v1.2H371.4z"/>
	<path d="M384.2,322.5h-1.3v-7.3c0-0.6,0-1.3,0.1-2.1l0,0c-0.1,0.5-0.2,0.8-0.3,1.1l-3.7,8.4h-0.6l-3.7-8.3
		c-0.1-0.2-0.2-0.6-0.3-1.1l0,0c0,0.4,0.1,1.1,0.1,2.1v7.3h-1.2v-10.9h1.7l3.3,7.6c0.3,0.6,0.4,1,0.5,1.3l0,0c0.2-0.6,0.4-1,0.5-1.3
		l3.4-7.6h1.6L384.2,322.5L384.2,322.5z"/>
</g>
</svg>
