<svg xmlns="http://www.w3.org/2000/svg" width="69.033" height="78.894" viewBox="0 0 69.033 78.894">
  <defs>
    <style>
      .cls-1 {
        fill: #00598e;
      }

      .cls-2 {
        fill: #fff;
      }

      .cls-3 {
        fill: #0073ba;
      }

      .cls-4 {
        fill: #004975;
      }

      .cls-5 {
        fill: #93c5e4;
      }

      .cls-6 {
        fill: none;
      }
    </style>
  </defs>
  <g id="druplicon-vector" transform="translate(-29 -23.1)">
    <path id="Path_4138" data-name="Path 4138" class="cls-1" d="M80.884,37.764c-4.033-2.513-7.823-3.5-11.634-6-2.351-1.6-5.624-5.391-8.361-8.665-.527,5.249-2.128,7.378-3.952,8.9-3.871,3.04-6.3,3.952-9.648,5.776C44.472,39.213,29.2,48.334,29.2,67.943s16.5,34.05,34.81,34.05,34.2-13.3,34.2-33.442S83.316,39.284,80.884,37.764Z" transform="translate(-0.18 0)"/>
    <path id="Path_4139" data-name="Path 4139" class="cls-2" d="M411.933,633.461a6.316,6.316,0,0,1,3.425.689,6,6,0,0,1,1.743,2.736,1.069,1.069,0,0,1-.608,1.52c-.527.3-.608.152-1.135-.831s-.993-1.976-3.648-1.976-3.5.912-4.783,1.976-1.743,1.439-2.209.831-.3-1.216.527-1.976a13.878,13.878,0,0,1,3.5-2.513,6.734,6.734,0,0,1,3.192-.456Z" transform="translate(-337.411 -548.503)"/>
    <path id="Path_4140" data-name="Path 4140" class="cls-2" d="M335.2,714.141c1.52,1.216,3.8,2.209,8.665,2.209s8.28-1.378,9.8-2.513c.689-.527.993-.081,1.064.223a1.179,1.179,0,0,1-.3,1.3,16.392,16.392,0,0,1-7.986,3.192c-4.114.375-9.648.608-12.992-2.432a1.1,1.1,0,0,1,0-1.6,1.785,1.785,0,0,1,1.135-.527c.446,0,.385,0,.618.152Z" transform="translate(-273.287 -620.518)"/>
    <path id="Path_4141" data-name="Path 4141" class="cls-3" d="M43.289,87.846c5.776-.081,6.84-1.064,11.938-3.344C82.741,72.189,87.838,60.941,88.821,58.356s2.432-6.77.912-11.4c-.294-.892-.507-1.611-.659-2.189a37.909,37.909,0,0,0-8.381-7c-3.952-2.513-7.834-3.5-11.634-6-2.351-1.52-5.624-5.391-8.361-8.665-.527,5.249-2.047,7.449-3.952,8.9-3.871,3.04-6.3,3.952-9.648,5.776C44.282,39.284,29,48.324,29,67.933a33.1,33.1,0,0,0,4.57,16.9l.75-.03C35.911,86.245,38.425,87.928,43.289,87.846Z"/>
    <path id="Path_4142" data-name="Path 4142" class="cls-4" d="M80.684,37.764c-3.952-2.513-7.823-3.5-11.634-6-2.351-1.52-5.624-5.391-8.361-8.665-.527,5.249-2.047,7.449-3.952,8.9-3.871,3.04-6.3,3.952-9.648,5.776C44.282,39.284,29,48.324,29,67.933a33.1,33.1,0,0,0,4.57,16.9,35.275,35.275,0,0,0,30.24,17.147c18.322,0,34.2-13.3,34.2-33.442a34.776,34.776,0,0,0-8.948-23.774A37.6,37.6,0,0,0,80.684,37.764Zm9.242,8.888a34.193,34.193,0,0,1,7.519,21.89,33.673,33.673,0,0,1-2.716,13.5A31.156,31.156,0,0,1,87.4,92.407a34.989,34.989,0,0,1-47.458-.5,33.108,33.108,0,0,1-2.523-45.482,36.109,36.109,0,0,1,9.931-8.168c.811-.436,1.561-.831,2.29-1.206a41.068,41.068,0,0,0,7.438-4.621c1.591-1.206,3.283-3.121,4-7.976,2.513,2.99,5.422,6.344,7.651,7.783a40.9,40.9,0,0,0,5.959,3.1,42.938,42.938,0,0,1,5.665,2.908l.071.041A36.574,36.574,0,0,1,89.926,46.652Z" transform="translate(0 0)"/>
    <path id="Path_4143" data-name="Path 4143" class="cls-5" d="M107.936,38a13.73,13.73,0,0,1,.912,5.391,4.849,4.849,0,0,1-1.6,3.425c-.527.385-.689.689-.689.76,0,.3.689.527.689,1.216,0,.831-.385,2.513-4.408,6.536a57.387,57.387,0,0,1-14.289,9.81c-4.479,2.209-6.607,2.047-7.215.983s.223-3.425,3.04-6.536,11.7-7.6,11.7-7.6l11.1-7.753.608-2.959" transform="translate(-46.862 -13.39)"/>
    <path id="Path_4144" data-name="Path 4144" class="cls-2" d="M122.722,37.2c-.689,5.016-2.209,6.536-4.256,8.128a47.934,47.934,0,0,1-7.519,4.56c-1.976.993-9.121,4.945-12.85,10.641-1.135,1.743,0,2.432.223,2.584s2.817.456,8.361-2.888,7.986-5.31,11.107-8.573c1.672-1.743,1.905-2.736,1.905-3.192,0-.527-.385-.76-.993-.912-.3-.081-.385-.223,0-.456s1.966-.993,2.351-1.3,2.209-1.52,2.28-3.5a14.051,14.051,0,0,0-.608-5.1Z" transform="translate(-61.648 -12.671)"/>
    <path id="Path_4145" data-name="Path 4145" class="cls-2" d="M176.764,480.048c.081-5.928,5.624-11.472,12.617-11.553,8.9-.081,15.049,8.817,19.538,8.736,3.8-.081,11.1-7.519,14.674-7.519,3.8,0,4.864,3.952,4.864,6.3a18.709,18.709,0,0,1-2.584,9.273c-1.824,2.665-2.959,3.648-5.087,3.5-2.736-.223-8.209-8.736-11.7-8.9-4.408-.152-13.985,9.2-21.5,9.2-4.56,0-5.928-.689-7.449-1.672-2.311-1.591-3.446-4.023-3.365-7.367Z" transform="translate(-132.786 -400.258)"/>
    <path id="Path_4146" data-name="Path 4146" class="cls-6" d="M130.163,239.089c1.52,4.641.081,8.817-.912,11.4s-6.08,13.833-33.594,26.146c-5.087,2.28-6.161,3.263-11.938,3.344-4.864.081-7.378-1.6-8.969-3.04l-.75.03a35.275,35.275,0,0,0,30.24,17.147c18.322,0,34.2-13.3,34.2-33.442a34.776,34.776,0,0,0-8.948-23.775C129.656,237.478,129.879,238.2,130.163,239.089Z" transform="translate(-40.44 -192.133)"/>
  </g>
</svg>
