<svg id="Figma" xmlns="http://www.w3.org/2000/svg" width="54.018" height="81.027" viewBox="0 0 54.018 81.027">
  <defs>
    <style>
      .cls-1 {
        fill: #0acf83;
      }

      .cls-2 {
        fill: #a259ff;
      }

      .cls-3 {
        fill: #f24e1e;
      }

      .cls-4 {
        fill: #ff7262;
      }

      .cls-5 {
        fill: #1abcfe;
      }
    </style>
  </defs>
  <path id="path0_fill" class="cls-1" d="M13.5,227.009a13.509,13.509,0,0,0,13.5-13.5V200H13.5a13.5,13.5,0,0,0,0,27.009Z" transform="translate(0 -145.982)"/>
  <path id="path1_fill" class="cls-2" d="M0,113.5A13.509,13.509,0,0,1,13.5,100h13.5v27.009H13.5A13.509,13.509,0,0,1,0,113.5Z" transform="translate(0 -72.991)"/>
  <path id="path1_fill_1_" class="cls-3" d="M0,13.5A13.509,13.509,0,0,1,13.5,0h13.5V27.009H13.5A13.509,13.509,0,0,1,0,13.5Z" transform="translate(0 0)"/>
  <path id="path2_fill" class="cls-4" d="M100,0h13.5a13.5,13.5,0,0,1,0,27.009H100Z" transform="translate(-72.991 0)"/>
  <path id="path3_fill" class="cls-5" d="M127.009,113.5A13.5,13.5,0,1,1,113.5,100,13.509,13.509,0,0,1,127.009,113.5Z" transform="translate(-72.991 -72.991)"/>
</svg>
