<svg xmlns="http://www.w3.org/2000/svg" width="83.098" height="24.095" viewBox="0 0 83.098 24.095">
  <defs>
    <style>
      .cls-1 {
        fill: #45535e;
      }

      .cls-2 {
        fill: #f8761f;
      }
    </style>
  </defs>
  <g id="hubspot" transform="translate(0)">
    <path id="Path_3982" data-name="Path 3982" class="cls-1" d="M.06,27.679h2.9v6.438H9.069V27.679h2.9v15.8h-2.9V36.908H2.958v6.573H.06ZM21.149,38.334a2.4,2.4,0,0,1-4.8,0v-6.8H13.6v6.8a5.148,5.148,0,0,0,10.3,0v-6.8H21.149v6.8M31.567,31.61a4.223,4.223,0,0,0-3.233,1.3V27.679H25.577V37.37a5.784,5.784,0,0,0,5.569,6.111,6.035,6.035,0,0,0,6.146-5.935,5.832,5.832,0,0,0-5.724-5.936Zm.068,9.32a3.386,3.386,0,0,1,0-6.77,3.408,3.408,0,0,1,0,6.77Zm10.286-8.626a1.7,1.7,0,0,1,1.934-1.825,4.129,4.129,0,0,1,2.594,1.363l1.8-2.11a5.693,5.693,0,0,0-4.22-2.044c-2.99,0-5.144,1.737-5.144,4.617,0,5.342,6.573,3.648,6.573,6.639a1.892,1.892,0,0,1-1.934,1.736c-1.627,0-2.155-.791-2.9-1.627l-2,2.066a5.912,5.912,0,0,0,4.749,2.353c2.836,0,5.122-1.759,5.122-4.507,0-5.935-6.573-4.088-6.573-6.66m13.83-.849a5.783,5.783,0,0,0-5.569,6.111v9.716H52.94V42.028a4.225,4.225,0,0,0,3.234,1.3A5.832,5.832,0,0,0,61.9,37.391a6.035,6.035,0,0,0-6.146-5.935Zm.49,9.321a3.387,3.387,0,0,1,0-6.771,3.409,3.409,0,0,1,0,6.771Zm25.948.155c-1.626,0-2.088-.7-2.088-1.781V34.38H82.63V31.962H80.1V28.775l-2.791,1.253v9.716c0,2.484,1.714,3.738,4.065,3.738a5.645,5.645,0,0,0,1.1-.088l.682-2.506c-.308.021-.659.043-.968.043" transform="translate(-0.06 -23.187)"/>
    <path id="Path_3983" data-name="Path 3983" class="cls-2" d="M354.474,11.336a6.063,6.063,0,0,0-2.2-2.187,5.91,5.91,0,0,0-2.226-.771V5.489a2.133,2.133,0,0,0,1.315-2,2.193,2.193,0,1,0-4.387,0,2.107,2.107,0,0,0,1.286,2v2.89a6.357,6.357,0,0,0-1.937.607c-1.256-.954-5.374-4.083-7.782-5.91a2.39,2.39,0,0,0,.1-.642,2.453,2.453,0,1,0-1.182,2.078l.508.386,6.985,5.033a5.857,5.857,0,0,0-.988,1.157,5.4,5.4,0,0,0-.9,2.912v.221a6.1,6.1,0,0,0,.382,2.1,5.523,5.523,0,0,0,.905,1.572l-2.318,2.324a1.873,1.873,0,1,0,1.148,1.2l2.4-2.4a6.157,6.157,0,0,0,1.065.583,6.226,6.226,0,0,0,2.491.523h.167a5.967,5.967,0,0,0,5.072-2.817,5.5,5.5,0,0,0,.865-2.965v-.054a5.813,5.813,0,0,0-.766-2.956Zm-2.928,5.027a3.047,3.047,0,0,1-2.243,1.168h-.139a3.032,3.032,0,0,1-1.417-.376,3.276,3.276,0,0,1-1.241-1.131,2.637,2.637,0,0,1-.517-1.539v-.167a3.153,3.153,0,0,1,.364-1.533,3.319,3.319,0,0,1,1.156-1.264,2.829,2.829,0,0,1,1.6-.483h.054a3.244,3.244,0,0,1,1.506.347,3.189,3.189,0,0,1,1.182,1.076,3.422,3.422,0,0,1,.53,1.511c.009.113.013.23.013.341a2.99,2.99,0,0,1-.849,2.05Z" transform="translate(-279.614 -0.002)"/>
  </g>
</svg>
