<svg id="Illustrator" xmlns="http://www.w3.org/2000/svg" width="56.821" height="48.375" viewBox="0 0 56.821 48.375">
  <defs>
    <style>
      .cls-1 {
        fill: #ff9a00;
      }
    </style>
  </defs>
  <g id="vlpf">
    <path id="Path_4099" data-name="Path 4099" class="cls-1" d="M77.723,93.81H61.868l-3.239,10.016a.746.746,0,0,1-.81.6H49.806c-.469,0-.6-.256-.469-.767l13.724-39.51c.128-.426.256-.9.426-1.407a14.887,14.887,0,0,0,.256-2.77.422.422,0,0,1,.341-.469H75.123c.341,0,.511.128.554.341l15.557,43.9c.128.469,0,.682-.426.682H81.9a.643.643,0,0,1-.682-.469L77.723,93.81ZM64.34,85.158H75.166c-.256-.9-.6-1.961-.98-3.069-.384-1.151-.767-2.387-1.151-3.665-.426-1.321-.81-2.6-1.236-3.921s-.81-2.557-1.151-3.793c-.341-1.193-.639-2.3-.938-3.324h-.085a52.33,52.33,0,0,1-1.449,5.5c-.639,2.046-1.279,4.177-1.961,6.308-.6,2.174-1.236,4.177-1.875,5.967Z" transform="translate(-49.29 -56.261)"/>
    <path id="Path_4100" data-name="Path 4100" class="cls-1" d="M162.939,62.6a5.275,5.275,0,0,1-3.793-1.492,5.537,5.537,0,0,1-1.449-3.921,5.014,5.014,0,0,1,1.534-3.793,5.458,5.458,0,0,1,3.793-1.492,5.1,5.1,0,0,1,3.879,1.492,5.859,5.859,0,0,1-.085,7.714A5.012,5.012,0,0,1,162.939,62.6Zm-4.774,37V66.775c0-.426.17-.6.554-.6h8.439c.384,0,.554.213.554.6V99.593c0,.469-.17.682-.554.682H158.8A.6.6,0,0,1,158.166,99.593Z" transform="translate(-111.491 -51.9)"/>
  </g>
</svg>
