<svg xmlns="http://www.w3.org/2000/svg" width="74.744" height="80.595" viewBox="0 0 74.744 80.595">
  <defs>
    <style>
      .cls-1, .cls-2 {
        fill: #0d1a2b;
      }

      .cls-2 {
        fill-rule: evenodd;
      }
    </style>
  </defs>
  <g id="Instapage" transform="translate(0)">
    <path id="Path_3980" data-name="Path 3980" class="cls-1" d="M98.439,151.36V86.923a1.037,1.037,0,0,0-.912-1.122l-4.137-.7a1.326,1.326,0,0,0-1.4,1.122V151.78a1.361,1.361,0,0,0,1.4,1.4l3.926-.491a1.356,1.356,0,0,0,1.122-1.332ZM87.151,145.4V92.673a1.067,1.067,0,0,0-1.122-1.122L82.1,91.06a1.326,1.326,0,0,0-1.4,1.122v53.639c0,.7.7,1.4,1.4,1.122l3.926-.491a.979.979,0,0,0,1.122-1.052Z" transform="translate(-80.7 -79.102)"/>
    <path id="Path_3981" data-name="Path 3981" class="cls-2" d="M164.125,84.857,114.2,76.584a1.187,1.187,0,0,0-1.4,1.122v78.249c0,.7.7,1.4,1.4,1.122l49.923-8.694c.491,0,.911-.7.911-1.122V85.979c0-.7-.421-1.122-.911-1.122Zm-5.259,56.794a1.037,1.037,0,0,1-.912,1.122l-35.2,5.048a1.326,1.326,0,0,1-1.4-1.122V88.083c0-.7.7-1.4,1.4-1.122l35.2,4.347a1.2,1.2,0,0,1,1.122,1.122v49.221Z" transform="translate(-90.293 -76.546)"/>
  </g>
</svg>
