<svg xmlns="http://www.w3.org/2000/svg" width="75.261" height="77.478" viewBox="0 0 75.261 77.478">
  <defs>
    <style>
      .cls-1 {
        fill: #ff2d20;
        fill-rule: evenodd;
      }
    </style>
  </defs>
  <path id="Laravel" class="cls-1" d="M75.219,17.528a1.227,1.227,0,0,1,.042.317v16.63a1.213,1.213,0,0,1-.609,1.052L60.694,43.563V59.492a1.216,1.216,0,0,1-.606,1.052L30.951,77.317a1.3,1.3,0,0,1-.212.088c-.027.009-.053.026-.082.033a1.22,1.22,0,0,1-.621,0c-.033-.009-.064-.027-.1-.039a1.26,1.26,0,0,1-.2-.082L.609,60.544A1.214,1.214,0,0,1,0,59.492V9.6a1.24,1.24,0,0,1,.042-.318c.009-.035.03-.067.042-.1a1.2,1.2,0,0,1,.077-.188,1.134,1.134,0,0,1,.083-.108,1.235,1.235,0,0,1,.108-.141,1.184,1.184,0,0,1,.12-.091.989.989,0,0,1,.133-.1h0L15.174.162a1.216,1.216,0,0,1,1.213,0L30.952,8.549h0a1.487,1.487,0,0,1,.133.1,1.435,1.435,0,0,1,.118.091,1.419,1.419,0,0,1,.109.142,1.119,1.119,0,0,1,.082.108,1.266,1.266,0,0,1,.079.188c.012.035.033.067.042.1a1.226,1.226,0,0,1,.042.317V40.762L43.7,33.773V17.843a1.225,1.225,0,0,1,.042-.315c.011-.036.03-.068.042-.1a1.368,1.368,0,0,1,.079-.188c.023-.039.056-.071.082-.108a1.247,1.247,0,0,1,.109-.141,1.164,1.164,0,0,1,.118-.091,1.224,1.224,0,0,1,.133-.1h0L58.875,8.406a1.214,1.214,0,0,1,1.213,0l14.566,8.386a1.339,1.339,0,0,1,.136.1c.038.03.082.058.117.091a1.416,1.416,0,0,1,.109.142.915.915,0,0,1,.082.108,1.2,1.2,0,0,1,.079.188.868.868,0,0,1,.042.1ZM72.833,33.773V19.944l-5.1,2.934-7.042,4.055V40.762l12.141-6.989ZM58.267,58.79V44.952L51.34,48.908,31.56,60.2V74.165ZM2.428,11.7V58.79l26.7,15.374V60.2L15.181,52.3l0,0-.006,0a58.745,58.745,0,0,0-.246-.188l0,0a1.155,1.155,0,0,1-.1-.127,1.3,1.3,0,0,1-.091-.118l0,0a.967.967,0,0,1-.064-.152.9.9,0,0,1-.058-.136v0a1.16,1.16,0,0,1-.024-.177,1.052,1.052,0,0,1-.018-.136V18.689L7.526,14.633,2.428,11.7ZM15.782,2.615,3.645,9.6l12.133,6.986L27.913,9.6,15.779,2.615Zm6.311,43.6,7.041-4.053V11.7l-5.1,2.934-7.042,4.055v30.46l5.1-2.936ZM59.481,10.859,47.346,17.844,59.481,24.83l12.133-6.987L59.481,10.859ZM58.267,26.933l-7.042-4.055-5.1-2.934V33.773l7.041,4.053,5.1,2.936V26.933ZM30.345,58.1l17.8-10.161,8.9-5.078L44.915,35.877,30.954,43.915,18.23,51.24,30.345,58.1Z" transform="translate(0 0)"/>
</svg>
