<svg width="63" height="48" viewBox="0 0 63 48" fill="none" xmlns="http://www.w3.org/2000/svg">
<path d="M62.4883 30.8359L54.6367 26.7383L31.8281 38.7305C31.5742 38.8594 31.2734 38.8594 31.0156 38.7305L8.14452 26.7383L0.289056 30.8359C0.0312432 30.9648 -0.0742256 31.2812 0.0546807 31.5391C0.105462 31.6445 0.187493 31.7266 0.289056 31.7773L30.9726 47.8633C31.2305 47.9922 31.5312 47.9922 31.7851 47.8633L62.4687 31.7773C62.7305 31.6641 62.8516 31.3594 62.7383 31.0977C62.6914 30.9844 62.6016 30.8906 62.4883 30.8359ZM6.03124 21.7461L30.9961 34.8047C31.25 34.9336 31.5508 34.9336 31.8047 34.8047L56.7734 21.7461C57.0312 21.6172 57.1367 21.3008 57.0078 21.043C56.957 20.9414 56.875 20.8594 56.7734 20.8086L49.6016 17.0508L31.8281 26.3984C31.5742 26.5273 31.2734 26.5273 31.0156 26.3984L13.2226 17.0938L6.05077 20.8516C5.80077 20.9531 5.68359 21.2422 5.78906 21.4922C5.83593 21.6055 5.92187 21.6953 6.03124 21.7461ZM11.4492 12.2734L30.9961 22.5156C31.25 22.6406 31.5508 22.6406 31.8047 22.5156L51.3516 12.2734C51.6094 12.1406 51.7148 11.8281 51.5859 11.5664C51.5351 11.4648 51.4531 11.3828 51.3516 11.332L31.8281 1.08984C31.5742 0.964844 31.2734 0.964844 31.0156 1.08984L11.4726 11.332C11.2109 11.457 11.0976 11.7695 11.2187 12.0312C11.2695 12.1328 11.3476 12.2188 11.4492 12.2734Z" fill="#316AB3"/>
</svg>