<svg id="Mongodb" xmlns="http://www.w3.org/2000/svg" width="36.943" height="82.304" viewBox="0 0 36.943 82.304">
  <defs>
    <style>
      .cls-1 {
        fill: #10aa50;
      }

      .cls-2 {
        fill: #b8c4c2;
      }

      .cls-3 {
        fill: #12924f;
      }
    </style>
  </defs>
  <path id="Path_3965" data-name="Path 3965" class="cls-1" d="M42.605,37.443C38.27,18.315,29.232,13.223,26.927,9.624A40.944,40.944,0,0,1,24.406,4.69a5.022,5.022,0,0,1-1.79,4.058C19.716,11.334,7.4,21.371,6.363,43.1,5.4,63.369,21.26,75.864,23.356,77.155a4.656,4.656,0,0,0,4.531-.711c7.647-5.248,18.094-19.239,14.727-39" transform="translate(-6.321 -4.69)"/>
  <path id="Path_3966" data-name="Path 3966" class="cls-2" d="M68.2,222.46c-.4,5.016-.685,7.93-1.7,10.8,0,0,.666,4.775,1.133,9.833h1.654a91.969,91.969,0,0,1,1.8-10.589C68.95,231.446,68.281,226.861,68.2,222.46Z" transform="translate(-49.457 -160.785)"/>
  <path id="Path_3967" data-name="Path 3967" class="cls-3" d="M74.22,77.5h0c-2.164-1-2.79-5.681-2.886-10.043A205.566,205.566,0,0,0,71.8,45.831c-.113-3.784.054-35.045-.932-39.621a38.033,38.033,0,0,0,2.325,4.5c2.305,3.6,11.345,8.695,15.679,27.823C92.25,58.261,81.859,72.215,74.22,77.5Z" transform="translate(-52.589 -5.78)"/>
</svg>
