<svg xmlns="http://www.w3.org/2000/svg" xmlns:xlink="http://www.w3.org/1999/xlink" width="80.231" height="54.488" viewBox="0 0 80.231 54.488">
  <defs>
    <style>
      .cls-1 {
        fill: none;
      }

      .cls-2 {
        clip-path: url(#clip-path);
      }

      .cls-3 {
        fill: #5d87a1;
      }

      .cls-3, .cls-6, .cls-7 {
        fill-rule: evenodd;
      }

      .cls-4, .cls-7 {
        fill: #00758f;
      }

      .cls-5, .cls-6 {
        fill: #f29111;
      }
    </style>
    <clipPath id="clip-path">
      <rect id="Rectangle_455" data-name="Rectangle 455" class="cls-1" width="80.231" height="54.488"/>
    </clipPath>
  </defs>
  <g id="Mysql" transform="translate(0)">
    <g id="Group_675" data-name="Group 675" class="cls-2" transform="translate(0)">
      <path id="Path_3968" data-name="Path 3968" class="cls-3" d="M113.855,11.573a3.558,3.558,0,0,0-.916.112v.045h.044a7.55,7.55,0,0,0,.715.917c.18.358.336.714.515,1.071.022-.021.044-.045.044-.045a1.255,1.255,0,0,0,.471-1.117,5.006,5.006,0,0,1-.268-.469c-.134-.223-.425-.335-.6-.514" transform="translate(-59.012 -6.047)"/>
      <path id="Path_3969" data-name="Path 3969" class="cls-4" d="M19.289,83.719h-3.1q-.164-7.837-.9-14.741h-.027L10.549,83.719H8.192L3.507,68.977H3.479q-.521,6.631-.657,14.741H0q.274-9.864,1.369-18.5H5.206l4.466,13.59H9.7l4.494-13.59h3.671q1.205,10.11,1.424,18.5" transform="translate(0 -34.08)"/>
      <path id="Path_3970" data-name="Path 3970" class="cls-4" d="M55.2,75.38q-1.891,10.259-4.987,14.912-2.413,3.583-5.289,3.584a5.214,5.214,0,0,1-1.89-.46V91.766a8.931,8.931,0,0,0,1.288.082,3.113,3.113,0,0,0,2.165-.741,2.7,2.7,0,0,0,.986-2.027,13.516,13.516,0,0,0-.767-3.15l-3.4-10.55h3.041l2.438,7.89a10.653,10.653,0,0,1,.685,3.755,51.51,51.51,0,0,0,2.8-11.645Z" transform="translate(-22.487 -39.387)"/>
      <path id="Path_3971" data-name="Path 3971" class="cls-5" d="M145.2,83.718h-8.8v-18.5h2.959v16.22H145.2Z" transform="translate(-71.271 -34.08)"/>
      <path id="Path_3972" data-name="Path 3972" class="cls-6" d="M114.88,83.865l-3.4-1.676a6.37,6.37,0,0,0,.851-.827q2.164-2.545,2.165-7.534,0-9.178-7.206-9.18a6.824,6.824,0,0,0-5.508,2.33q-2.166,2.548-2.164,7.508,0,4.878,1.917,7.152a6.572,6.572,0,0,0,5.289,2.055,8.529,8.529,0,0,0,2.422-.325l4.427,2.576Zm-11.015-4.147q-1.124-1.808-1.124-5.808,0-6.987,4.247-6.988a3.566,3.566,0,0,1,3.261,1.671q1.123,1.81,1.124,5.755,0,7.042-4.247,7.043a3.56,3.56,0,0,1-3.26-1.673" transform="translate(-52.051 -33.779)"/>
      <path id="Path_3973" data-name="Path 3973" class="cls-5" d="M84.206,78.32a4.911,4.911,0,0,1-1.725,3.864,6.8,6.8,0,0,1-4.629,1.506,9.28,9.28,0,0,1-5.261-1.727l.795-1.589a9.017,9.017,0,0,0,3.972,1.1,4.169,4.169,0,0,0,2.617-.738,2.519,2.519,0,0,0,1.007-2.054c0-1.1-.766-2.037-2.171-2.824-1.3-.712-3.89-2.2-3.89-2.2a4.43,4.43,0,0,1-2.109-3.936,4.6,4.6,0,0,1,1.574-3.63A5.94,5.94,0,0,1,78.454,64.7a8.421,8.421,0,0,1,4.685,1.372l-.714,1.587a9.069,9.069,0,0,0-3.56-.766,3.171,3.171,0,0,0-2.19.687,2.289,2.289,0,0,0-.83,1.752c0,1.1.783,2.046,2.227,2.848,1.314.712,3.97,2.227,3.97,2.227a4.369,4.369,0,0,1,2.165,3.91" transform="translate(-37.93 -33.808)"/>
      <path id="Path_3974" data-name="Path 3974" class="cls-7" d="M129.479,24.947a10.327,10.327,0,0,0-4.336.626c-.335.134-.87.134-.917.558.18.179.2.469.359.716a5.218,5.218,0,0,0,1.162,1.363c.469.358.938.714,1.431,1.027.87.539,1.854.85,2.7,1.387.493.312.983.714,1.477,1.05.244.179.4.469.714.58v-.068c-.157-.2-.2-.491-.357-.716-.223-.222-.447-.424-.671-.647a10.644,10.644,0,0,0-2.323-2.257c-.716-.493-2.281-1.164-2.57-1.988l-.045-.046a8.91,8.91,0,0,0,1.542-.36c.759-.2,1.452-.155,2.234-.356.358-.09.716-.2,1.075-.312v-.2c-.4-.4-.693-.939-1.118-1.318a29.931,29.931,0,0,0-3.688-2.748c-.694-.447-1.588-.737-2.325-1.117-.266-.135-.713-.2-.87-.425a8.98,8.98,0,0,1-.917-1.72c-.647-1.228-1.274-2.59-1.832-3.889a23.908,23.908,0,0,0-1.14-2.547,22.532,22.532,0,0,0-8.649-8.358,10.7,10.7,0,0,0-2.86-.917c-.56-.024-1.118-.067-1.676-.089a8.9,8.9,0,0,1-1.029-.784c-1.274-.8-4.558-2.547-5.5-.245-.6,1.453.894,2.883,1.408,3.621A10.458,10.458,0,0,1,101.9,6.443c.157.38.2.783.359,1.185a26.55,26.55,0,0,0,1.162,2.995,10.52,10.52,0,0,0,.826,1.384c.181.248.492.358.56.762a6.4,6.4,0,0,0-.515,1.676,9.845,9.845,0,0,0,.648,7.509c.357.559,1.207,1.789,2.347,1.318,1.006-.4.782-1.675,1.073-2.792.066-.27.021-.447.156-.626V19.9c.312.625.626,1.227.917,1.855a12.745,12.745,0,0,0,2.906,2.993c.535.4.959,1.1,1.63,1.342v-.068h-.044a2.449,2.449,0,0,0-.514-.446,10.976,10.976,0,0,1-1.163-1.341,28.574,28.574,0,0,1-2.5-4.068c-.359-.694-.67-1.453-.962-2.146-.134-.266-.134-.67-.358-.8a8.4,8.4,0,0,0-1.072,1.517,12.642,12.642,0,0,0-.626,3.376c-.089.023-.044,0-.089.044-.714-.179-.96-.915-1.229-1.539a9.667,9.667,0,0,1-.2-5.969c.156-.468.828-1.943.559-2.39-.135-.427-.582-.67-.827-1.007a8.894,8.894,0,0,1-.8-1.43c-.537-1.252-.806-2.638-1.386-3.889a11.937,11.937,0,0,0-1.117-1.721,11.053,11.053,0,0,1-1.23-1.742c-.111-.246-.267-.648-.089-.916a.358.358,0,0,1,.314-.292c.289-.245,1.117.066,1.407.2a11.32,11.32,0,0,1,2.212,1.117c.313.224.649.648,1.05.762h.47c.715.155,1.52.043,2.191.245a14.322,14.322,0,0,1,3.217,1.542,19.836,19.836,0,0,1,6.971,7.644c.268.513.381.983.626,1.518.469,1.1,1.051,2.215,1.519,3.287a14.685,14.685,0,0,0,1.588,2.995c.334.469,1.676.714,2.279.961a16.066,16.066,0,0,1,1.542.625c.76.469,1.518,1.006,2.235,1.521.357.268,1.474.827,1.541,1.274" transform="translate(-51.84 0)"/>
      <path id="Path_3975" data-name="Path 3975" class="cls-5" d="M162.245,101.474h.462V99.208h-.695l-.566,1.545-.616-1.545h-.67v2.266h.437V99.75h.025l.645,1.724h.334l.644-1.724Zm-3.731,0H159V99.593h.642v-.385h-1.8v.385h.667Z" transform="translate(-82.477 -51.837)"/>
    </g>
  </g>
</svg>
