<svg id="Photoshop" xmlns="http://www.w3.org/2000/svg" width="61.529" height="46.016" viewBox="0 0 61.529 46.016">
  <defs>
    <style>
      .cls-1 {
        fill: #31a8ff;
      }
    </style>
  </defs>
  <g id="Ps">
    <path id="Path_4096" data-name="Path 4096" class="cls-1" d="M54,104.067V60.224c0-.3.128-.469.426-.469.724,0,1.406,0,2.386-.043,1.023-.043,2.088-.043,3.238-.085s2.386-.043,3.707-.085,2.6-.043,3.877-.043a25.053,25.053,0,0,1,8.777,1.321,15.215,15.215,0,0,1,5.709,3.494,13.566,13.566,0,0,1,3.11,4.857,16.308,16.308,0,0,1,.98,5.539,15.233,15.233,0,0,1-2.556,9.075,14.6,14.6,0,0,1-6.86,5.2,27.614,27.614,0,0,1-9.587,1.449c-1.023,0-1.7,0-2.13-.043s-1.023-.043-1.832-.043v13.677a.53.53,0,0,1-.469.6H54.511C54.17,104.621,54,104.451,54,104.067Zm9.288-36.089V82.3c.6.043,1.15.085,1.662.085h2.258a15.916,15.916,0,0,0,4.9-.767A7.327,7.327,0,0,0,75.6,79.355a6.584,6.584,0,0,0,1.321-4.389,7.013,7.013,0,0,0-.98-3.792,6.179,6.179,0,0,0-2.983-2.429,12.5,12.5,0,0,0-5.028-.852c-1.108,0-2.088,0-2.9.043a9.755,9.755,0,0,0-1.747.043Z" transform="translate(-54 -59.5)"/>
    <path id="Path_4097" data-name="Path 4097" class="cls-1" d="M162.321,93.929a15.08,15.08,0,0,0-4.09-1.449,22.461,22.461,0,0,0-4.772-.554,8.579,8.579,0,0,0-2.556.3,2.188,2.188,0,0,0-1.321.852,2.258,2.258,0,0,0-.341,1.15,1.9,1.9,0,0,0,.426,1.108,4.808,4.808,0,0,0,1.449,1.15c.98.511,2,.98,3.025,1.406A30.86,30.86,0,0,1,160.7,101a9.914,9.914,0,0,1,3.366,3.536,9.2,9.2,0,0,1,.98,4.389,9.914,9.914,0,0,1-1.662,5.667,10.677,10.677,0,0,1-4.772,3.792,19.522,19.522,0,0,1-7.712,1.363,29.35,29.35,0,0,1-5.795-.554,17.188,17.188,0,0,1-4.346-1.363.838.838,0,0,1-.469-.81v-7.414a.463.463,0,0,1,.17-.383.324.324,0,0,1,.383.043,18.239,18.239,0,0,0,5.283,2.088,19.835,19.835,0,0,0,5.028.639,8.132,8.132,0,0,0,3.536-.6,1.979,1.979,0,0,0,1.15-1.79,2.257,2.257,0,0,0-1.023-1.7,18.07,18.07,0,0,0-4.176-2,26.07,26.07,0,0,1-6.05-3.068,11.033,11.033,0,0,1-3.238-3.622,9.143,9.143,0,0,1-.98-4.346,10.021,10.021,0,0,1,1.449-5.156,10.5,10.5,0,0,1,4.474-3.92,16.522,16.522,0,0,1,7.542-1.491,36.732,36.732,0,0,1,5.283.383,14.991,14.991,0,0,1,3.664.98.748.748,0,0,1,.426.383,2.138,2.138,0,0,1,.085.511V93.5a.524.524,0,0,1-.213.426A1.135,1.135,0,0,1,162.321,93.929Z" transform="translate(-103.522 -73.733)"/>
  </g>
</svg>
