<svg xmlns="http://www.w3.org/2000/svg" width="78" height="71.268" viewBox="0 0 78 71.268">
  <defs>
    <style>
      .cls-1 {
        fill: #3c8bd9;
      }

      .cls-2 {
        fill: #fabc04;
      }

      .cls-3 {
        fill: #34a852;
      }

      .cls-4 {
        fill: #e1c025;
      }
    </style>
  </defs>
  <g id="Sem-ppc" transform="translate(-1.402 -0.033)">
    <path id="Path_4391" data-name="Path 4391" class="cls-1" d="M84.106,9.007a14.1,14.1,0,0,1,3.33-5.277,13.042,13.042,0,0,1,20.513,3.047c3.141,5.717,6.471,11.309,9.707,16.963,5.4,9.392,10.869,18.785,16.209,28.209a12.986,12.986,0,1,1-22.712,12.6q-7.115-12.392-14.261-24.753a2.847,2.847,0,0,0-.346-.5,5.11,5.11,0,0,1-1.037-1.539c-2.1-3.707-4.272-7.382-6.377-11.057-1.351-2.387-2.764-4.743-4.115-7.131a13.008,13.008,0,0,1-1.728-6.911,9.631,9.631,0,0,1,.817-3.644" transform="translate(-56.161 0)"/>
    <path id="Path_4392" data-name="Path 4392" class="cls-2" d="M34.8,28.6a18.068,18.068,0,0,0-.6,3.455,13.57,13.57,0,0,0,1.885,7.382q5.183,8.906,10.335,17.874c.314.534.565,1.068.88,1.571-1.885,3.267-3.77,6.5-5.686,9.769-2.639,4.555-5.277,9.141-7.947,13.7-.126,0-.157-.063-.188-.157a1.948,1.948,0,0,1,.126-.722A12.643,12.643,0,0,0,30.593,69a11.972,11.972,0,0,0-7.382-3.8,12.749,12.749,0,0,0-10.084,2.8c-.534.408-.88,1.005-1.508,1.319a.209.209,0,0,1-.22-.157c1.508-2.607,2.984-5.215,4.492-7.822q9.33-16.209,18.691-32.387c.063-.126.157-.22.22-.346" transform="translate(-6.857 -19.593)"/>
    <path id="Path_4393" data-name="Path 4393" class="cls-3" d="M4.668,148.46c.6-.534,1.162-1.1,1.791-1.6a12.984,12.984,0,0,1,20.764,7.885,13.807,13.807,0,0,1-.5,6.691,3.286,3.286,0,0,1-.126.534c-.283.5-.534,1.037-.848,1.539-2.8,4.618-6.911,6.911-12.314,6.565A12.9,12.9,0,0,1,1.527,158.826a12.569,12.569,0,0,1,1.728-8.356c.314-.565.691-1.068,1.037-1.633.157-.126.094-.377.377-.377" transform="translate(0 -98.805)"/>
    <path id="Path_4394" data-name="Path 4394" class="cls-2" d="M11.035,157.726c-.126.126-.126.346-.346.377-.031-.22.094-.346.22-.5l.126.126" transform="translate(-6.366 -108.07)"/>
    <path id="Path_4395" data-name="Path 4395" class="cls-4" d="M81.486,199.834c-.126-.22,0-.377.126-.534l.126.126-.251.408" transform="translate(-54.892 -136.671)"/>
  </g>
</svg>
