<svg id="SEO" xmlns="http://www.w3.org/2000/svg" xmlns:xlink="http://www.w3.org/1999/xlink" width="88.723" height="35.589" viewBox="0 0 88.723 35.589">
  <defs>
    <style>
      .cls-1 {
        fill: none;
      }

      .cls-2 {
        clip-path: url(#clip-path);
      }

      .cls-3 {
        fill: #4485f4;
      }

      .cls-4 {
        fill: #f9bc07;
      }

      .cls-5 {
        fill: #e94336;
      }

      .cls-6 {
        fill: #37a854;
      }

      .cls-7 {
        fill: #4485f3;
      }

      .cls-8 {
        fill: #eb6054;
      }
    </style>
    <clipPath id="clip-path">
      <rect id="Rectangle_562" data-name="Rectangle 562" class="cls-1" width="88.723" height="35.589"/>
    </clipPath>
  </defs>
  <g id="Group_868" data-name="Group 868" class="cls-2">
    <path id="Path_4376" data-name="Path 4376" class="cls-3" d="M19.534,9.274a5.479,5.479,0,0,0-.724,0c-1.347.178-2.377.023-2.726-1.641a2.841,2.841,0,0,0-2.039-1.917,8.12,8.12,0,0,0-5.92.183A2.319,2.319,0,0,0,6.486,8.073a2.407,2.407,0,0,0,1.63,2.283,28.248,28.248,0,0,0,5.437,1.673A27.115,27.115,0,0,1,18.359,13.6a8.1,8.1,0,0,1,4.994,8.259,8.486,8.486,0,0,1-5.662,7.7,17.541,17.541,0,0,1-11.3.128A9.233,9.233,0,0,1,0,20.731c0-.564.171-.726.714-.722,1.388.011,2.778,0,4.165-.065.5-.024.6.2.71.588,1.223,4.381,5.132,6.237,9.335,4.436a4.356,4.356,0,0,0,1.89-1.5A2.925,2.925,0,0,0,15.7,18.907a23.1,23.1,0,0,0-4.661-1.43,26.263,26.263,0,0,1-5.9-2,7.683,7.683,0,0,1-1.889-12.5A9.924,9.924,0,0,1,9.263.514,17.885,17.885,0,0,1,16.176,1a8.332,8.332,0,0,1,6.27,7.191c.12.762.024,1.212-.922,1.1a16.643,16.643,0,0,0-1.991-.016" transform="translate(0 -0.32)"/>
    <path id="Path_4377" data-name="Path 4377" class="cls-4" d="M313.076,7.025a15.009,15.009,0,0,1,.088,15.958c-.292.512-.328.807.124,1.208.584.52,1.1,1.111,1.652,1.671l-2.072,2.063c-.67-.649-1.279-1.705-2.031-1.819-.622-.094-1.39.96-2.132,1.445-8.463,5.534-20.981,1.321-22.852-10.059-1-6.1,1.049-11.212,6.187-14.722,5.1-3.481,10.524-3.657,15.976-.662a12.824,12.824,0,0,1,3.155,2.548c-1.13,1.316-2.3,2.6-3.544,3.8a9.6,9.6,0,0,0-11.69-1.718,9.9,9.9,0,0,0-4.446,11.017,6.071,6.071,0,0,0,1.225,3.019,9.715,9.715,0,0,0,11.669,3.7,9.983,9.983,0,0,0,4.994-13.487q1.77-2.056,3.7-3.967" transform="translate(-233.856 0)"/>
    <path id="Path_4378" data-name="Path 4378" class="cls-5" d="M163.158,20.4q0,.439,0,.878A6.257,6.257,0,0,0,163,24a4.628,4.628,0,0,0,.163,2.361q0,.349,0,.7c.046.249-.255.578.171.74l14.86.012.359.358q0,2.173,0,4.346c-.173.024-.326.077-.382.268h-.337c-.238-.426-.647-.246-.98-.247-5.945-.011-11.89-.028-17.835.014-.915.007-1.164-.23-1.16-1.154.036-8.72.021-17.441.021-26.162,0-1.743,0-1.721,1.689-1.719,5.885.009,11.77.017,17.654-.021.588,0,.627.183.618.644-.026,1.357-.02,2.715-.026,4.073l-14.3,0c-.07-.086-.13-.074-.183.018a4.5,4.5,0,0,0-.121,2.105,22.937,22.937,0,0,0,.121,4.444c.053.092.114.1.184.017h12.682a.8.8,0,0,1,.567.87c-.044,1.372-.024,2.747-.03,4.12l-.259-.031c0-.044-.005-.088-.008-.131q0,.066,0,.131l-.259.028c-.106-.284-.349-.3-.6-.3q-5.831,0-11.662,0c-.6,0-1,.2-.789.913" transform="translate(-129.254 -2.859)"/>
    <path id="Path_4379" data-name="Path 4379" class="cls-6" d="M319.315,20.9a6.07,6.07,0,0,1-1.225-3.019c1.955-2.046,3.921-4.08,5.854-6.146.39-.417.636-.462,1.087-.087,1.066.883,2.188,1.7,3.275,2.557.257.2.432.361.733.03,1.718-1.894,3.455-3.77,5.186-5.652,1.247-1.207,2.414-2.488,3.544-3.8.545-.559,1.07-1.141,1.643-1.67.4-.367.468-.633-.013-.982a12.49,12.49,0,0,1-1.056-.984c1.469-.285,2.778-.533,4.084-.792,1.923-.381,1.921-.385,1.694,1.516-.16,1.341-.315,2.682-.494,4.207-.482-.445-.88-.778-1.234-1.152-.277-.292-.469-.268-.724.022-.654.745-1.329,1.471-2,2.205q-1.929,1.908-3.7,3.967c-.112.1-.232.19-.334.3-2.015,2.162-4.043,4.312-6.03,6.5-.418.46-.688.492-1.161.1-1-.826-2.064-1.572-3.063-2.4-.467-.385-.754-.386-1.178.078-1.609,1.757-3.261,3.474-4.9,5.207" transform="translate(-260.453 -0.122)"/>
    <path id="Path_4380" data-name="Path 4380" class="cls-7" d="M435.855,144.576l2.072-2.063a2.063,2.063,0,0,1,2.021.708c1.552,1.6,3.148,3.166,4.724,4.747,1.182,1.186,1.189,1.8.039,2.955-1.742,1.751-2.052,1.754-3.784.022-1.43-1.429-2.841-2.876-4.3-4.28a2.155,2.155,0,0,1-.777-2.089" transform="translate(-356.843 -116.652)"/>
    <path id="Path_4381" data-name="Path 4381" class="cls-8" d="M176.409,6.695c.006-1.358,0-2.716.026-4.073.009-.461-.03-.648-.618-.644-5.885.038-11.769.03-17.654.021-1.689,0-1.689-.024-1.689,1.719,0,8.721.014,17.441-.021,26.162,0,.924.245,1.16,1.16,1.154,5.945-.042,11.89-.025,17.835-.014.332,0,.742-.179.98.247-.269.02-.539.059-.808.059-6.189,0-12.377-.01-18.566.017-.707,0-.914-.171-.912-.9q.039-13.945,0-27.891c0-.714.184-.91.905-.907q9.373.045,18.747,0c.694,0,.954.142.911.888-.068,1.173-.009,2.353-.026,3.53,0,.225.187.581-.271.63" transform="translate(-127.85 -1.345)"/>
    <path id="Path_4382" data-name="Path 4382" class="cls-8" d="M186.861,92.66c-.207-.71.189-.912.789-.913q5.831-.006,11.662,0c.247,0,.489.012.6.3q-6.084.021-12.168.038c-.441,0-.853-.019-.879.58" transform="translate(-152.957 -75.121)"/>
    <path id="Path_4383" data-name="Path 4383" class="cls-8" d="M259.576,70.59c.005-1.373-.014-2.748.03-4.12a.8.8,0,0,0-.567-.87c.646-.167.922.024.891.746-.051,1.2,0,2.4-.024,3.594,0,.239.212.657-.329.651" transform="translate(-212.101 -53.666)"/>
    <path id="Path_4384" data-name="Path 4384" class="cls-8" d="M186.065,106.722a4.629,4.629,0,0,1-.163-2.361,6.257,6.257,0,0,1,.163-2.72,40.086,40.086,0,0,1,0,5.081" transform="translate(-152.157 -83.224)"/>
    <path id="Path_4385" data-name="Path 4385" class="cls-8" d="M269.953,163.912c.056-.191.209-.244.382-.268.074.377-.143.337-.382.268" transform="translate(-221.038 -133.992)"/>
    <path id="Path_4386" data-name="Path 4386" class="cls-8" d="M270.422,137.8l-.359-.358c.377-.138.482,0,.359.358" transform="translate(-221.128 -112.495)"/>
    <path id="Path_4387" data-name="Path 4387" class="cls-8" d="M187.007,134.274c-.426-.161-.125-.49-.171-.739l.171.739" transform="translate(-152.933 -109.339)"/>
    <path id="Path_4388" data-name="Path 4388" class="cls-8" d="M188.034,29.269c.053-.091.114-.1.184-.017l-.184.017" transform="translate(-153.963 -23.904)"/>
    <path id="Path_4389" data-name="Path 4389" class="cls-8" d="M260.533,92.631c0-.044,0-.087,0-.131,0,.044.005.088.008.131h-.005" transform="translate(-213.323 -75.739)"/>
    <path id="Path_4390" data-name="Path 4390" class="cls-8" d="M188.22,65.771c-.07.086-.13.075-.184-.017l.184.017" transform="translate(-153.965 -53.84)"/>
  </g>
</svg>
