<svg xmlns="http://www.w3.org/2000/svg" width="67.375" height="76.619" viewBox="0 0 67.375 76.619">
  <defs>
    <style>
      .cls-1 {
        fill: #95bf46;
      }

      .cls-2 {
        fill: #5e8e3e;
      }

      .cls-3 {
        fill: #fff;
      }
    </style>
  </defs>
  <g id="Shopify_" data-name="Shopify " transform="translate(-0.037 -0.779)">
    <path id="Path_3817" data-name="Path 3817" class="cls-1" d="M59.048,15.7a.74.74,0,0,0-.669-.622c-.278-.023-6.167-.46-6.167-.46s-4.09-4.06-4.539-4.51a1.86,1.86,0,0,0-1.667-.212l-2.289.707C42.35,6.669,39.939,3.056,35.7,3.056c-.117,0-.238,0-.358.012A5.155,5.155,0,0,0,31.348.779c-9.881,0-14.6,12.353-16.083,18.63-3.84,1.19-6.567,2.035-6.916,2.145-2.143.672-2.211.74-2.492,2.759-.212,1.529-5.82,44.9-5.82,44.9l43.7,8.187,23.677-5.122S59.1,16.083,59.048,15.7ZM41.3,11.348l-3.7,1.144c0-.26,0-.517,0-.8a18.137,18.137,0,0,0-.883-5.97C38.909,6,40.365,8.486,41.3,11.348Zm-7.29-5.139a18.33,18.33,0,0,1,1,6.657c0,.151,0,.289,0,.428l-7.636,2.365c1.47-5.675,4.227-8.416,6.636-9.45ZM31.076,3.43a2.231,2.231,0,0,1,1.267.428C29.177,5.348,25.782,9.1,24.349,16.6l-6.036,1.869C19.992,12.749,23.979,3.43,31.076,3.43Z" transform="translate(0 0)"/>
    <path id="Path_3818" data-name="Path 3818" class="cls-2" d="M180.366,40.3c-.278-.023-6.167-.46-6.167-.46s-4.09-4.06-4.539-4.51a1.119,1.119,0,0,0-.631-.29l-3.3,67.582L189.4,97.5s-8.312-56.194-8.364-56.579a.74.74,0,0,0-.669-.622" transform="translate(-121.987 -25.226)"/>
    <path id="Path_3819" data-name="Path 3819" class="cls-3" d="M64.547,101.391l-2.919,8.684a13.43,13.43,0,0,0-5.693-1.365c-4.6,0-4.828,2.885-4.828,3.612,0,3.966,10.339,5.486,10.339,14.776,0,7.309-4.636,12.016-10.887,12.016a15.145,15.145,0,0,1-11.337-4.669l2.008-6.636s3.943,3.385,7.27,3.385a2.933,2.933,0,0,0,3.058-2.962c0-5.174-8.482-5.4-8.482-13.906,0-7.155,5.136-14.08,15.5-14.08a12.754,12.754,0,0,1,5.968,1.144" transform="translate(-28.849 -73.233)"/>
  </g>
</svg>
