<?xml version="1.0" encoding="utf-8"?>
<!-- Generator: Adobe Illustrator 26.0.2, SVG Export Plug-In . SVG Version: 6.00 Build 0)  -->
<svg version="1.1" id="Layer_1" xmlns:svgjs="http://svgjs.com/svgjs"
	 xmlns="http://www.w3.org/2000/svg" xmlns:xlink="http://www.w3.org/1999/xlink" x="0px" y="0px" viewBox="0 0 512 512"
	 style="enable-background:new 0 0 512 512;" xml:space="preserve">
<style type="text/css">
	.st0{fill:#045BB2;}
	.st1{fill:#022D62;}
</style>
<g>
	<path class="st0" d="M118.8,75.9H87.2c-5.8,0-10.6,4.7-10.6,10.6v31.7h42.2V75.9z"/>
	<path class="st0" d="M139.9,75.9h42.2v42.2h-42.2V75.9z"/>
	<path class="st0" d="M245.4,86.5c0-5.8-4.7-10.6-10.6-10.6h-31.7v42.2h42.2V86.5z"/>
	<path class="st0" d="M76.6,425.5c0,5.8,4.7,10.6,10.6,10.6h31.7v-42.2H76.6V425.5z"/>
	<path class="st0" d="M139.9,393.9h42.2v42.2h-42.2V393.9z"/>
	<path class="st0" d="M203.2,436.1h31.7c5.8,0,10.6-4.7,10.6-10.6v-31.7h-42.2V436.1z"/>
	<path class="st0" d="M409.5,257.9c-0.2-0.1-0.3-0.2-0.5-0.3l-45.3-26.3l45.3-26.3c0.2-0.1,0.3-0.2,0.5-0.3
		c15.5-9.2,25.8-26.1,25.8-45.3c0-29.1-23.7-52.8-52.8-52.8c-29.1,0-52.8,23.7-52.8,52.8c0,13.4,5.1,25.7,13.4,35L321.7,207
		l-55.2-32v48.8l13.1,7.6l-110.8,64.3c-3.7,2.1-5.7,6.3-5.2,10.5c0.6,4.2,3.6,7.7,7.7,8.8c21.3,5.7,43.6,2.7,62.7-8.4l87.6-50.8
		l21.5,12.5c-8.3,9.3-13.4,21.6-13.4,35c0,29.1,23.7,52.8,52.8,52.8s52.8-23.7,52.8-52.8C435.4,284,425,267.2,409.5,257.9
		L409.5,257.9z M382.6,127.8c17.5,0,31.7,14.2,31.7,31.7s-14.2,31.7-31.7,31.7c-17.5,0-31.7-14.2-31.7-31.7S365.2,127.8,382.6,127.8
		z M382.6,334.9c-17.5,0-31.7-14.2-31.7-31.7c0-17.5,14.2-31.7,31.7-31.7c17.5,0,31.7,14.2,31.7,31.7
		C414.3,320.7,400.1,334.9,382.6,334.9z"/>
	<path class="st1" d="M192.5,338.9C192.5,338.9,192.5,338.9,192.5,338.9c-9,0-18-1.2-26.8-3.5c-12.4-3.3-21.5-13.7-23.2-26.4
		c-1.7-12.7,4.4-25.1,15.5-31.6l87.5-50.7v-87.4H76.6v233.5h168.8v-48.5l-1,0.6C228.6,334,210.6,338.9,192.5,338.9z"/>
</g>
</svg>
