<svg xmlns="http://www.w3.org/2000/svg" width="80.139" height="80.137" viewBox="0 0 80.139 80.137">
  <defs>
    <style>
      .cls-1 {
        fill: #00749a;
      }
    </style>
  </defs>
  <path id="wordpress" class="cls-1" d="M5.7,40.067A34.38,34.38,0,0,0,25.068,71L8.671,26.078A34.242,34.242,0,0,0,5.7,40.067Zm57.577-1.735c0,2.943-1.131,6.357-2.618,11.112L57.228,60.9,44.806,23.951c2.068-.109,3.934-.328,3.934-.328a1.42,1.42,0,0,0-.22-2.831s-5.566.436-9.161.436c-3.378,0-9.054-.436-9.054-.436a1.42,1.42,0,0,0-.217,2.831s1.754.219,3.6.328l5.356,14.672-7.523,22.56L19.008,23.952c2.072-.109,3.935-.328,3.935-.328a1.42,1.42,0,0,0-.221-2.831s-5.565.436-9.161.436c-.645,0-1.406-.016-2.212-.041a34.366,34.366,0,0,1,51.932-6.47c-.149-.009-.294-.027-.446-.027a5.952,5.952,0,0,0-5.771,6.1c0,2.831,1.633,5.229,3.375,8.061a18.1,18.1,0,0,1,2.835,9.48Zm-22.6,4.741L51.238,72.02a2.911,2.911,0,0,0,.245.474,34.382,34.382,0,0,1-21.125.547Zm29.558-19.5a34.379,34.379,0,0,1-12.882,46.2l10.5-30.356A32.424,32.424,0,0,0,70.461,27.11a26.38,26.38,0,0,0-.232-3.534ZM40.069,0A40.069,40.069,0,1,1,0,40.067,40.116,40.116,0,0,1,40.069,0Zm0,78.3A38.231,38.231,0,1,0,1.837,40.067,38.275,38.275,0,0,0,40.069,78.3Z"/>
</svg>
