<svg id="Xd" xmlns="http://www.w3.org/2000/svg" width="73.366" height="47.858" viewBox="0 0 73.366 47.858">
  <defs>
    <style>
      .cls-1 {
        fill: #ff61f6;
      }
    </style>
  </defs>
  <g id="Xd-2" data-name="Xd">
    <path id="Path_4102" data-name="Path 4102" class="cls-1" d="M72.694,60.62,60.287,81.092,73.522,102.8a.712.712,0,0,1,.083.5c-.041.165-.207.041-.455.083H63.679c-.662,0-1.117-.041-1.406-.455-.868-1.737-1.778-3.433-2.647-5.17-.868-1.7-1.82-3.433-2.812-5.211s-1.985-3.557-2.978-5.376h-.083c-.868,1.778-1.82,3.557-2.771,5.335s-1.9,3.557-2.812,5.294c-.951,1.737-1.9,3.515-2.854,5.211-.165.414-.5.455-.951.455h-9.1c-.165,0-.289.083-.289-.124a.574.574,0,0,1,.083-.455L47.922,81.8,35.391,60.579c-.124-.165-.165-.331-.083-.414A.48.48,0,0,1,35.721,60h9.388a2.441,2.441,0,0,1,.579.083,1.173,1.173,0,0,1,.414.372c.786,1.778,1.7,3.557,2.647,5.335.993,1.778,1.944,3.515,2.978,5.252.993,1.737,1.9,3.474,2.771,5.252h.083c.868-1.82,1.778-3.6,2.688-5.335s1.861-3.474,2.812-5.211,1.861-3.515,2.771-5.211a.7.7,0,0,1,.248-.414.789.789,0,0,1,.538-.083h8.726a.381.381,0,0,1,.455.289c.041.041-.041.207-.124.29Z" transform="translate(-34.961 -56.396)"/>
    <path id="Path_4103" data-name="Path 4103" class="cls-1" d="M147.709,99.141a20.561,20.561,0,0,1-8.892-1.861,14.418,14.418,0,0,1-6.245-5.625,17.9,17.9,0,0,1-2.275-9.429,16.985,16.985,0,0,1,2.275-8.726,17.174,17.174,0,0,1,6.576-6.41,21.155,21.155,0,0,1,10.463-2.4,7.385,7.385,0,0,1,.868.041c.372.041.786.041,1.282.083V51.746c0-.289.124-.455.414-.455h8.4a.371.371,0,0,1,.414.289V91.035c0,.744.041,1.572.083,2.481.083.868.124,1.7.165,2.4a.672.672,0,0,1-.414.662,31.585,31.585,0,0,1-6.741,1.985A36.48,36.48,0,0,1,147.709,99.141Zm4.053-8.271v-18.2a10.575,10.575,0,0,0-1.117-.207c-.455-.041-.91-.083-1.365-.083a10.2,10.2,0,0,0-4.673,1.075,9.271,9.271,0,0,0-3.515,3.06,9.168,9.168,0,0,0-1.365,5.252,11.524,11.524,0,0,0,.7,4.26,8.083,8.083,0,0,0,1.861,2.936,7.145,7.145,0,0,0,2.812,1.654,10.826,10.826,0,0,0,3.433.538c.62,0,1.2-.041,1.737-.083A3.617,3.617,0,0,0,151.762,90.869Z" transform="translate(-87.867 -51.284)"/>
  </g>
</svg>
