<svg xmlns="http://www.w3.org/2000/svg" width="610" height="476.525" viewBox="0 0 610 476.525">
  <g id="Instapage" transform="translate(-38.096)">
    <path id="Path_5169" data-name="Path 5169" d="M966.128,545.908a7.56,7.56,0,0,1,2.051-11.409l-4.948-26.405L976.1,513.5l2.726,24.246a7.6,7.6,0,0,1-12.7,8.161Z" transform="translate(-332.05 -225.165)" fill="#ffb6b6"/>
    <rect id="Rectangle_62" data-name="Rectangle 62" width="564.31" height="268.127" transform="translate(38.337 15.491)" fill="#e6e6e6"/>
    <rect id="Rectangle_75" data-name="Rectangle 75" width="531.995" height="223.706" transform="translate(54.495 38.484)" fill="#fff"/>
    <rect id="Rectangle_80" data-name="Rectangle 80" width="564.31" height="24.005" transform="translate(38.096)" fill="#0b2d61"/>
    <circle id="Ellipse_90" data-name="Ellipse 90" cx="4.449" cy="4.449" r="4.449" transform="translate(51.486 6.654)" fill="#fff"/>
    <circle id="Ellipse_91" data-name="Ellipse 91" cx="4.449" cy="4.449" r="4.449" transform="translate(68.374 6.654)" fill="#fff"/>
    <circle id="Ellipse_92" data-name="Ellipse 92" cx="4.449" cy="4.449" r="4.449" transform="translate(85.262 6.654)" fill="#fff"/>
    <path id="Path_142" data-name="Path 142" d="M236.963,374.365a2.335,2.335,0,1,0,0,4.669h128.11a2.335,2.335,0,1,0,0-4.669Z" transform="translate(-151.312 -191.965)" fill="#e6e6e6"/>
    <path id="Path_143" data-name="Path 143" d="M236.963,393a2.335,2.335,0,0,0,0,4.669h65.4a2.335,2.335,0,1,0,0-4.669Z" transform="translate(-151.312 -196.591)" fill="#e6e6e6"/>
    <path id="Path_154" data-name="Path 154" d="M391.5,424.037H342.838a2.38,2.38,0,0,1-2.377-2.377v-7.8a2.38,2.38,0,0,1,2.377-2.377H391.5a2.38,2.38,0,0,1,2.377,2.377v7.8A2.38,2.38,0,0,1,391.5,424.037Z" transform="translate(-177.534 -201.181)" fill="#0b2d61"/>
    <path id="Path_154-2" data-name="Path 154" d="M391.5,316.037H342.838a2.38,2.38,0,0,1-2.377-2.377v-7.8a2.38,2.38,0,0,1,2.377-2.377H391.5a2.38,2.38,0,0,1,2.377,2.377v7.8A2.38,2.38,0,0,1,391.5,316.037Z" transform="translate(-177.534 -174.369)" fill="#0b2d61"/>
    <path id="Path_142-2" data-name="Path 142" d="M521.444,234.962a3.046,3.046,0,1,0,0,6.093H776.235a3.046,3.046,0,0,0,0-6.093Z" transform="translate(-221.939 -157.354)" fill="#e6e6e6"/>
    <path id="Path_143-2" data-name="Path 143" d="M521.444,259.277a3.046,3.046,0,1,0,0,6.093H694.412a3.046,3.046,0,0,0,0-6.093Z" transform="translate(-221.724 -163.395)" fill="#e6e6e6"/>
    <path id="Path_142-3" data-name="Path 142" d="M521.444,283.042a3.046,3.046,0,1,0,0,6.093H776.235a3.046,3.046,0,0,0,0-6.093Z" transform="translate(-221.939 -169.294)" fill="#e6e6e6"/>
    <path id="Path_143-3" data-name="Path 143" d="M521.444,307.358a3.046,3.046,0,1,0,0,6.093H694.412a3.046,3.046,0,0,0,0-6.093Z" transform="translate(-221.724 -175.331)" fill="#e6e6e6"/>
    <path id="Path_154-3" data-name="Path 154" d="M845.5,355.8H796.838a2.38,2.38,0,0,1-2.378-2.377v-7.8a2.38,2.38,0,0,1,2.377-2.377H845.5a2.38,2.38,0,0,1,2.378,2.377v7.8A2.38,2.38,0,0,1,845.5,355.8Z" transform="translate(-290.368 -184.241)" fill="#0b2d61"/>
    <path id="Path_155" data-name="Path 155" d="M310.611,239.351c-.865,0-1.564,1.126-1.562,2.508s.7,2.5,1.562,2.5h73.811c.865,0,1.564-1.126,1.562-2.508s-.7-2.5-1.562-2.5Z" transform="translate(-169.734 -158.443)" fill="#e4e4e4"/>
    <path id="Path_156" data-name="Path 156" d="M310.611,258.643c-.865,0-1.564,1.126-1.562,2.508s.7,2.5,1.562,2.5h73.811c.865,0,1.564-1.126,1.562-2.508s-.7-2.5-1.562-2.5Z" transform="translate(-169.734 -163.237)" fill="#e4e4e4"/>
    <path id="Path_157" data-name="Path 157" d="M310.611,277.7c-.865,0-1.564,1.126-1.562,2.508s.7,2.5,1.562,2.5h31.761c.865,0,1.564-1.126,1.563-2.508s-.7-2.5-1.562-2.5Z" transform="translate(-169.736 -167.969)" fill="#e4e4e4"/>
    <circle id="Ellipse_557" data-name="Ellipse 557" cx="20.029" cy="20.029" r="20.029" transform="translate(83.321 77.603)" fill="#e4e4e4"/>
    <path id="Path_5170" data-name="Path 5170" d="M812.914,352.467a7.56,7.56,0,0,0,7.859,8.521l10.01,24.931,7.951-11.475L828.01,352.529a7.6,7.6,0,0,0-15.1-.062Z" transform="translate(-294.809 -184.873)" fill="#ffb6b6"/>
    <path id="Path_5171" data-name="Path 5171" d="M844.906,610.028H835.69l-4.385-35.551h13.6Z" transform="translate(-213.855 -142.614)" fill="#ffb6b6"/>
    <path id="Path_5172" data-name="Path 5172" d="M956.374,761.438H926.655v-.376a11.568,11.568,0,0,1,11.567-11.568h18.153Z" transform="translate(-322.972 -285.089)" fill="#273a57"/>
    <path id="Path_5173" data-name="Path 5173" d="M806.378,608.831l-8.787-2.782,6.549-35.216,12.969,4.106Z" transform="translate(-205.487 -141.709)" fill="#ffb6b6"/>
    <path id="Path_5174" data-name="Path 5174" d="M912.982,759.634l-28.333-8.97.114-.358a11.568,11.568,0,0,1,14.519-7.537h0l17.3,5.479Z" transform="translate(-312.691 -283.285)" fill="#273a57"/>
    <path id="Path_5175" data-name="Path 5175" d="M905.16,522.233s-13.675,21.473-8.843,40.638,10.095,56,10.095,56l26.2,62.356,19.532-.8-19.4-73.52.767-49.157S947,534.263,944.372,526.95,905.16,522.233,905.16,522.233Z" transform="translate(-315.185 -228.57)" fill="#273a57"/>
    <path id="Path_5176" data-name="Path 5176" d="M954.009,532.218s1.682,21.3-3.58,30.323S939.559,605.9,939.559,605.9l-8.945,68.673-18.527-6.029,15.8-76.94L940.3,531.081Z" transform="translate(-319.356 -230.877)" fill="#273a57"/>
    <path id="Path_5177" data-name="Path 5177" d="M957.8,391.936,943.349,382l-22-.639-7.66,7.51L902,394.841,900.918,492.1s35.007,16.78,53.841,8.68l9.06-75.761C967.578,409.979,957.8,391.936,957.8,391.936Z" transform="translate(-316.584 -193.706)" fill="#0b2d61"/>
    <path id="Path_5178" data-name="Path 5178" d="M885.17,417.31H846.612L821.28,373.7l16.472-6.525L851.7,392l20.191-1.827,12.607-.61a13.884,13.884,0,0,1,14.451,15.56h0A13.9,13.9,0,0,1,885.17,417.31Z" transform="translate(-296.975 -190.183)" fill="#0b2d61"/>
    <circle id="Ellipse_558" data-name="Ellipse 558" cx="19.073" cy="19.073" r="19.073" transform="translate(598.488 141.506)" fill="#ffb6b6"/>
    <path id="Path_5179" data-name="Path 5179" d="M961.461,332.971c-.586-4.187-3.422-8.163-7.455-9.432-1.6-4.653-5.846-8.078-10.535-9.571a20.578,20.578,0,0,0-23.657,8.628c-.359.564-1.462,1.95-1.431,2.623.039.855,1.347,1.738,2,2.277a29.4,29.4,0,0,0,5.24,3.234c6.858,3.556,4.575,9.144,4.482,15.476a8.249,8.249,0,0,0,3.606,7.462c3.787,2.537,9.206,1.527,13.327.509,4.675-1.155,8.563-5.263,11.229-9.223A17.528,17.528,0,0,0,961.461,332.971Z" transform="translate(-320.919 -176.73)" fill="#363636"/>
    <path id="Path_5180" data-name="Path 5180" d="M856.775,296.725l7.422,81.406-23.845-1.279Z" transform="translate(-216.1 -73.665)" fill="#0b2d61"/>
    <path id="Path_5182" data-name="Path 5182" d="M84.089,615.562h7.149l3.4-27.575H84.087Z" transform="translate(-28.496 -145.967)" fill="#9e616a"/>
    <path id="Path_5183" data-name="Path 5183" d="M195.326,753.293h14.079a8.973,8.973,0,0,1,8.972,8.972v.292H195.326Z" transform="translate(-141.557 -286.031)" fill="#8aa1c5"/>
    <path id="Path_5184" data-name="Path 5184" d="M171.738,615.562h7.149l3.4-27.575H171.736Z" transform="translate(-50.252 -145.967)" fill="#9e616a"/>
    <path id="Path_5185" data-name="Path 5185" d="M282.974,753.293h14.08a8.973,8.973,0,0,1,8.972,8.972v.292H282.974Z" transform="translate(-163.16 -286.032)" fill="#8aa1c5"/>
    <path id="Path_5186" data-name="Path 5186" d="M147.165,330l4.665,29.739-44.317.583,5.831-28.573Z" transform="translate(-34.311 -81.922)" fill="#9e616a"/>
    <path id="Path_5187" data-name="Path 5187" d="M257.756,491.627l14.115,37.584,1.749,155.756H261.667L233.093,559.826,206.852,681.7H195.19l8.164-137.036s-2.407-27.5,9.913-43.735l3-8.664Z" transform="translate(-141.524 -221.084)" fill="#8aa1c5"/>
    <path id="Path_5188" data-name="Path 5188" d="M194.192,505.374a8.748,8.748,0,0,0,5.605-12.187l18.854-61.467-13.867-2.749-17.243,60.25a8.8,8.8,0,0,0,6.652,16.153Z" transform="translate(-138.505 -205.523)" fill="#9e616a"/>
    <path id="Path_5189" data-name="Path 5189" d="M227.249,461.938a3.974,3.974,0,0,1-.771-.076h0a3.985,3.985,0,0,1-3.192-3.611c-.438-6-2.611-16.449-6.456-31.053a24.577,24.577,0,0,1,38.808-25.664,24.26,24.26,0,0,1,9.36,16.59c1.911,16.831-1.692,33.729-3.33,40.214a3.994,3.994,0,0,1-3.786,3.009l-30.549.59Z" transform="translate(-146.696 -197.438)" fill="#0b2d61"/>
    <path id="Path_5190" data-name="Path 5190" d="M325.57,410.1a8.576,8.576,0,0,0-.451,1.272L286.88,424.367l-7.389-6.455-11.2,9.878,11.97,12.7a6.515,6.515,0,0,0,7.7,1.333l40.918-20.9a8.548,8.548,0,1,0-3.314-10.82Z" transform="translate(-159.518 -199.592)" fill="#9e616a"/>
    <path id="Path_5191" data-name="Path 5191" d="M280.713,424.751l-13.94,12.175a3.665,3.665,0,0,1-5.494-.78l-9.971-15.526a10.177,10.177,0,1,1,15.37-13.345l14,11.927a3.665,3.665,0,0,1,.034,5.549Z" transform="translate(-154.834 -199.266)" fill="#0b2d61"/>
    <path id="Path_5192" data-name="Path 5192" d="M221.027,442.192,203.8,435.424a3.665,3.665,0,0,1-1.838-5.236l9.191-16a10.177,10.177,0,1,1,18.923,7.5l-4.14,17.921a3.665,3.665,0,0,1-4.91,2.585Z" transform="translate(-143.084 -200.256)" fill="#0b2d61"/>
    <circle id="Ellipse_559" data-name="Ellipse 559" cx="18.738" cy="18.738" r="18.738" transform="translate(71.975 157.72)" fill="#9e616a"/>
    <path id="Path_5194" data-name="Path 5194" d="M247.334,350.87,259.4,350.8a10.4,10.4,0,0,0-2.71-7.571,30.868,30.868,0,0,0-6.35-5.249c-2.306-1.583-4.7-3.2-7.436-3.754a20.922,20.922,0,0,0-6.994.181l-9.236,1.284c-3.379.47-6.915,1-9.66,3.028-3.712,2.741-5.132,7.543-6.325,12l-6.6,24.671,39,4.09a10.722,10.722,0,0,0,4.25-.123,3.653,3.653,0,0,0,2.718-2.971c.112-1.59-1.149-2.892-2.174-4.114a19.218,19.218,0,0,1-1.657-21.731Z" transform="translate(-143.731 -181.944)" fill="#1d1d1d"/>
  </g>
</svg>
