<svg xmlns="http://www.w3.org/2000/svg" xmlns:xlink="http://www.w3.org/1999/xlink" width="52.733" height="72.551" viewBox="0 0 52.733 72.551">
  <defs>
    <style>
      .cls-1 {
        fill: #2ac64b;
      }

      .cls-2 {
        fill: #008a5a;
      }

      .cls-3 {
        fill: #009550;
      }

      .cls-4 {
        fill: #00983e;
      }

      .cls-5 {
        fill: #009a37;
      }

      .cls-6 {
        fill: #00863f;
      }

      .cls-7 {
        fill: #06cbf6;
      }

      .cls-8 {
        fill: url(#linear-gradient);
      }

      .cls-9 {
        fill: #666565;
      }

      .cls-10, .cls-11, .cls-12, .cls-13, .cls-14, .cls-15, .cls-16, .cls-17, .cls-18, .cls-19 {
        fill-rule: evenodd;
      }

      .cls-10 {
        fill: url(#linear-gradient-2);
      }

      .cls-11 {
        fill: url(#linear-gradient-3);
      }

      .cls-12 {
        fill: url(#linear-gradient-4);
      }

      .cls-13 {
        fill: #97cc1a;
      }

      .cls-14 {
        fill: url(#linear-gradient-5);
      }

      .cls-15 {
        fill: url(#linear-gradient-6);
      }

      .cls-16 {
        fill: url(#linear-gradient-7);
      }

      .cls-17 {
        fill: url(#linear-gradient-8);
      }

      .cls-18 {
        fill: url(#linear-gradient-9);
      }

      .cls-19 {
        fill: url(#linear-gradient-10);
      }
    </style>
    <linearGradient id="linear-gradient" x1="0.044" y1="0.449" x2="0.941" y2="0.555" gradientUnits="objectBoundingBox">
      <stop offset="0" stop-color="#0288f7"/>
      <stop offset="1" stop-color="#2ee2bd"/>
    </linearGradient>
    <linearGradient id="linear-gradient-2" x1="0.935" y1="0.914" x2="0.312" y2="0.209" gradientUnits="objectBoundingBox">
      <stop offset="0" stop-color="#cb1918"/>
      <stop offset="0.388" stop-color="#a2183d"/>
      <stop offset="0.749" stop-color="#902869"/>
      <stop offset="1" stop-color="#73358a"/>
    </linearGradient>
    <linearGradient id="linear-gradient-3" x1="0.794" y1="0.904" x2="0.302" y2="0.299" xlink:href="#linear-gradient-2"/>
    <linearGradient id="linear-gradient-4" x1="1.236" y1="1.441" x2="-0.771" y2="-0.969" xlink:href="#linear-gradient-2"/>
    <linearGradient id="linear-gradient-5" x1="0.717" y1="0.183" x2="0.223" y2="0.636" gradientUnits="objectBoundingBox">
      <stop offset="0" stop-color="#add816"/>
      <stop offset="1" stop-color="#dbd704"/>
    </linearGradient>
    <linearGradient id="linear-gradient-6" x1="0.677" y1="0.798" x2="-1.508" y2="-1.713" gradientUnits="objectBoundingBox">
      <stop offset="0" stop-color="#e1282b"/>
      <stop offset="0.388" stop-color="#e3402a"/>
      <stop offset="0.702" stop-color="#e76226"/>
      <stop offset="1" stop-color="#f19a0a"/>
    </linearGradient>
    <linearGradient id="linear-gradient-7" x1="0.513" y1="0.561" x2="-2.69" y2="-3.98" xlink:href="#linear-gradient-6"/>
    <linearGradient id="linear-gradient-8" x1="1.008" y1="0.964" x2="0.016" y2="0.198" xlink:href="#linear-gradient-6"/>
    <linearGradient id="linear-gradient-9" x1="1.104" y1="1.199" x2="-0.17" y2="-0.119" xlink:href="#linear-gradient-6"/>
    <linearGradient id="linear-gradient-10" x1="1.175" y1="1.475" x2="-0.411" y2="-0.662" xlink:href="#linear-gradient-6"/>
  </defs>
  <g id="coreldraw-gs2019-2" transform="translate(0)">
    <g id="Group_718" data-name="Group 718">
      <path id="Path_4116" data-name="Path 4116" class="cls-1" d="M16254.845,8856.4c-.887-.4-1.654-.715-2.279-.949q-.2-1.477-.288-2.962a13.374,13.374,0,0,1,.08-2.41c.531.088,1.285.22,2.225.4a21.806,21.806,0,0,0,0,3.546Q16254.677,8855.223,16254.845,8856.4Zm8.761,5.174a51.356,51.356,0,0,0-6.173-3.9,29.776,29.776,0,0,1-.39-6.685c1.691.374,3.688.855,5.889,1.467A41.335,41.335,0,0,0,16263.605,8861.576Zm23.011,1.2c-.021.249-.051.5-.077.751a33.186,33.186,0,0,0-8.846,6.658c-.887.939-1.693,1.881-2.432,2.82-.828-1.047-1.713-2.108-2.651-3.175q-.631-.715-1.267-1.39a107.708,107.708,0,0,1-1.234-13.723A74.033,74.033,0,0,1,16286.616,8862.774Z" transform="translate(-16252.256 -8831.921)"/>
      <path id="Path_4117" data-name="Path 4117" class="cls-2" d="M16261.377,8607.33a19.907,19.907,0,0,0-.931,4.58c-.939-.182-1.693-.314-2.226-.4a13.715,13.715,0,0,1,.262-1.474A29.855,29.855,0,0,1,16261.377,8607.33Z" transform="translate(-16258.118 -8593.348)"/>
      <path id="Path_4118" data-name="Path 4118" class="cls-3" d="M16539.58,8258.36a28.993,28.993,0,0,0-3.229,12.254c0,.1-.01.209-.016.313-2.2-.611-4.2-1.093-5.887-1.466,0-.072.008-.141.012-.212a18.7,18.7,0,0,1,2.277-7.612A35.558,35.558,0,0,1,16539.58,8258.36Z" transform="translate(-16525.66 -8250.385)"/>
      <path id="Path_4119" data-name="Path 4119" class="cls-4" d="M17305.16,8314.31a74.019,74.019,0,0,0-16.508-8.058,50.464,50.464,0,0,1,1.373-13.918c.029-.108.059-.217.092-.323,4.32,2.554,9.951,5.4,15.3,6.652A79.393,79.393,0,0,1,17305.16,8314.31Z" transform="translate(-17270.799 -8283.456)"/>
      <path id="Path_4120" data-name="Path 4120" class="cls-5" d="M18478.189,8198.269a40.934,40.934,0,0,1-.932,6.533c-.617.023-1.326.063-2.113.132a41.623,41.623,0,0,0,.74-5.127,20.118,20.118,0,0,0-3.619-13.456c.643.183,1.252.362,1.82.537C18476.549,8190.01,18478.449,8194.021,18478.189,8198.269Zm-5.477,6.948a42.976,42.976,0,0,0-5.7,1.215,39.235,39.235,0,0,0,.506-8.5,27.832,27.832,0,0,0-3.979-13.526c1.834.3,3.572.659,5.176,1.035a19.4,19.4,0,0,1,4.693,11.127A31.666,31.666,0,0,1,18472.713,8205.217Z" transform="translate(-18425.48 -8177.698)"/>
      <path id="Path_4121" data-name="Path 4121" class="cls-6" d="M17389.887,8141.811c-5.346-1.251-10.977-4.1-15.3-6.652a17.989,17.989,0,0,1,.764-2.164q1.187-.2,2.445-.331a54.586,54.586,0,0,1,9.957-.048,19.209,19.209,0,0,1,1.02,2.866A38.67,38.67,0,0,1,17389.887,8141.811Z" transform="translate(-17355.271 -8126.604)"/>
      <path id="Path_4122" data-name="Path 4122" class="cls-7" d="M16284.595,7978.7a21.283,21.283,0,0,0-8.28,10.82,29.836,29.836,0,0,0-2.894,2.7C16274.981,7985.456,16281.213,7979.926,16284.595,7978.7Zm3.633,2.792a20.755,20.755,0,0,0-1.251,2.022,35.6,35.6,0,0,0-6.843,3.276,22.309,22.309,0,0,1,5.868-6.822C16286.556,7980.362,16287.313,7980.886,16288.228,7981.492Z" transform="translate(-16273.057 -7975.538)"/>
      <path id="Path_4123" data-name="Path 4123" class="cls-8" d="M17040.1,7804.181q-.855-.262-1.82-.538a20.807,20.807,0,0,0-5.6-5.493C17034.676,7798.87,17037.664,7801.093,17040.1,7804.181Zm-5.369-1.453c-1.605-.376-3.344-.733-5.176-1.035a16.274,16.274,0,0,0-7.621-6.7A23.488,23.488,0,0,1,17034.73,7802.728Zm-10.752-1.725a54.454,54.454,0,0,0-9.957.048q-1.257.127-2.445.331c2.371-5.591,6.229-6.391,6.229-6.391h.109S17021.6,7795.752,17023.979,7801Zm-10.191-6.009a15.948,15.948,0,0,0-7.121,5.951c-.916-.606-1.672-1.13-2.227-1.524A22.863,22.863,0,0,1,17013.787,7794.993Z" transform="translate(-16991.492 -7794.991)"/>
      <path id="Path_4124" data-name="Path 4124" class="cls-9" d="M17473.971,11644.6h3.965l1.467-6.4h-10.863l1.467,6.4Z" transform="translate(-17447.604 -11572.05)"/>
    </g>
    <path id="Path_4128" data-name="Path 4128" class="cls-10" d="M16559.252,9309.767c.762,1.578,1.49,2.985,2.117,4.16a58.639,58.639,0,0,0,3.148,5.276,33.087,33.087,0,0,1,1.158-3.355c-.816-1.876-1.637-3.89-2.418-5.988a83.287,83.287,0,0,1-4.045-14.334,51.511,51.511,0,0,0-6.174-3.895C16554.088,9298.114,16556.842,9304.79,16559.252,9309.767Z" transform="translate(-16547.861 -9265.87)"/>
    <path id="Path_4129" data-name="Path 4129" class="cls-11" d="M16277.859,9182.434q.647,1.131,1.347,2.277a80.835,80.835,0,0,0,6.931,9.545c.065-.325.143-.659.228-1-.905-1.244-1.789-2.509-2.549-3.682-1.09-1.677-2.667-4.108-4.31-7.1a57.818,57.818,0,0,1-6.864-19.371c-.887-.4-1.654-.715-2.278-.95C16271.263,9168.836,16273.818,9175.395,16277.859,9182.434Z" transform="translate(-16270.052 -9138.62)"/>
    <path id="Path_4130" data-name="Path 4130" class="cls-12" d="M17361.705,9919.188c.283,1.688.613,3.4.971,5.1.035.161.068.322.1.483a37.918,37.918,0,0,1,2.449-3.5q-1.283-1.623-2.65-3.176-.63-.713-1.268-1.389C17361.436,9917.529,17361.564,9918.358,17361.705,9919.188Z" transform="translate(-17342.221 -9880.183)"/>
    <path id="Path_4131" data-name="Path 4131" class="cls-13" d="M18585,9369.813a56.941,56.941,0,0,1-4.674,13.313c.381.384.756.767,1.115,1.145a56.944,56.944,0,0,0,5.674-14.591C18586.494,9369.7,18585.785,9369.743,18585,9369.813Zm-8.131,1.5a66.244,66.244,0,0,1-1.547,7.08c1.113,1,2.332,2.129,3.527,3.283a64.215,64.215,0,0,0,3.721-11.578A42.934,42.934,0,0,0,18576.865,9371.311Z" transform="translate(-18535.334 -9342.576)"/>
    <path id="Path_4132" data-name="Path 4132" class="cls-14" d="M17591.342,9637.877c-.887.939-1.693,1.882-2.432,2.821a75.672,75.672,0,0,1,7.348,11.174c.631-2.434,1.283-5.128,1.869-7.888.377-1.781.727-3.586,1.025-5.363.418-2.482.768-4.961,1.035-7.4A33.187,33.187,0,0,0,17591.342,9637.877Zm19.551,2.288c-.072.148-.145.3-.219.442a96.416,96.416,0,0,1-5.8,9.963c-1.639,2.522-3.844,5.479-5.594,7.74.064.167.125.322.182.471a87.629,87.629,0,0,0,10.021-13.074q1.23-2.021,2.3-3.988c.076-.137.148-.273.223-.409C17611.646,9640.931,17611.273,9640.549,17610.893,9640.165Zm-5-4.735-.084.308a114.615,114.615,0,0,1-7.74,19.761c.273.595.52,1.148.736,1.656a52.163,52.163,0,0,0,6.328-9.483c1.16-2.175,2.664-5.139,4.1-8.512l.189-.447C17608.219,9637.559,17607,9636.434,17605.889,9635.43Z" transform="translate(-17565.904 -9599.614)"/>
    <path id="Path_4133" data-name="Path 4133" class="cls-15" d="M17905.3,11048.272c1.688-1.749,3.133-3.3,4.445-4.866-.217-.508-.463-1.062-.736-1.656A46.513,46.513,0,0,1,17905.3,11048.272Z" transform="translate(-17876.848 -10985.866)"/>
    <path id="Path_4134" data-name="Path 4134" class="cls-16" d="M18025.7,11208.757c.09-.087,1.285-1.237,3.031-3.136-.059-.148-.117-.3-.182-.471C18026.984,11207.175,18025.791,11208.646,18025.7,11208.757Z" transform="translate(-17995.174 -11146.454)"/>
    <path id="Path_4135" data-name="Path 4135" class="cls-17" d="M17446.6,10185.394c1.994,9.333,4.73,17.894,4.73,17.894h2.158s1.387-4.348,2.91-10.223a75.753,75.753,0,0,0-7.35-11.174A38.05,38.05,0,0,0,17446.6,10185.394Z" transform="translate(-17426.043 -10140.807)"/>
    <path id="Path_4136" data-name="Path 4136" class="cls-18" d="M17220,10701.906a64.5,64.5,0,0,0,7.623,9.073,76.153,76.153,0,0,1-6.465-12.429A32.693,32.693,0,0,0,17220,10701.906Z" transform="translate(-17203.344 -10648.574)"/>
    <path id="Path_4137" data-name="Path 4137" class="cls-19" d="M17186.8,10970.3a89.878,89.878,0,0,0,6.125,6.665c-.145-.18-3.115-3.832-5.9-7.665Q17186.9,10969.811,17186.8,10970.3Z" transform="translate(-17170.715 -10914.664)"/>
  </g>
</svg>
