<svg class="fill-current" xmlns="http://www.w3.org/2000/svg" width="964.162" height="964.029" viewBox="0 0 964.162 964.029">
  <g id="Group_630" data-name="Group 630" transform="translate(0 -0.014)">
    <path id="Path_3707" data-name="Path 3707" d="M950.5,569.968a35.666,35.666,0,0,0-39.784-2.853C850.941,601.473,787.76,618.9,722.929,618.9c-208.308,0-377.773-169.475-377.773-377.788,0-65.116,17.448-128.212,51.863-187.527a35.666,35.666,0,0,0-40.73-52.167c-100.63,29.008-191.2,90.553-255.03,173.294C35.014,260.588,0,363.439,0,472.148,0,743.376,220.653,964.043,491.876,964.043c108.71,0,211.585-35,297.506-101.225A498.489,498.489,0,0,0,962.761,607.926,35.664,35.664,0,0,0,950.5,569.968ZM491.876,892.707c-231.89,0-420.544-188.663-420.544-420.558,0-156.445,89.521-298.814,225.58-370.364a430.306,430.306,0,0,0-23.088,139.325c0,247.645,201.47,449.119,449.105,449.119a431.649,431.649,0,0,0,139.558-23.173C790.946,803.142,648.454,892.707,491.876,892.707Z" transform="translate(0 0)"/>
  </g>
</svg>
