<?xml version="1.0" encoding="utf-8"?>
<!-- Generator: Adobe Illustrator 26.0.2, SVG Export Plug-In . SVG Version: 6.00 Build 0)  -->
<svg version="1.1" id="Layer_1" xmlns:svgjs="http://svgjs.com/svgjs"
	 xmlns="http://www.w3.org/2000/svg" xmlns:xlink="http://www.w3.org/1999/xlink" x="0px" y="0px" viewBox="0 0 512 512"
	 style="enable-background:new 0 0 512 512;" xml:space="preserve">
<style type="text/css">
	.st0{fill:#045BB2;}
	.st1{fill:#022D62;}
</style>
<g>
	<path class="st0" d="M334.2,362.6H177.9c-6,0-10.8,4.9-10.8,10.8v49.8c0,6,4.9,10.8,10.8,10.8h156.3c6,0,10.8-4.9,10.8-10.8v-49.8
		C345,367.5,340.2,362.6,334.2,362.6z"/>
	<path class="st1" d="M268.4,155.2c-2-3.1-6.9-1.7-6.9,2.1v72.3c6.9,2.3,11.9,8.7,11.9,16.4c0,9.5-7.7,17.3-17.2,17.3
		c-9.6,0-17.4-7.7-17.4-17.3c0-7.7,5-14.1,11.9-16.4v-72.3c0-3.8-4.8-5.2-6.9-2.1l-77.9,117.6c-4.9,7.4-2,17.4,6.1,21.1
		c21,9.7,31.2,35.9,19.5,57.9h129.2c-11.8-22-1.4-48.2,19.6-57.9c8.1-3.8,11.1-13.7,6.1-21.2L268.4,155.2z"/>
	<path class="st0" d="M416.2,111.8c9.3,0,16.9-7.6,16.9-17c0-9.3-7.6-17-16.9-17c-7.5,0-13.8,4.9-16,11.6H273.9v-5.8
		c0-3.2-2.6-5.8-5.8-5.8H244c-3.3,0-5.9,2.6-5.9,5.8v5.8H111.8c-2.3-6.7-8.5-11.6-16-11.6c-9.3,0-17,7.7-17,17c0,9.4,7.7,17,17,17
		c7.4,0,13.7-4.8,16-11.6h88.7c-51.9,20.5-90.3,68.2-96.9,126.7c0,0.2,0.1,0.4,0.1,0.6h-7.5c-3.3,0-5.9,2.6-5.9,5.8v22.4
		c0,3.3,2.6,5.9,5.9,5.9h24.1c3.2,0,5.8-2.6,5.8-5.9v-22.4c0-3.2-2.6-5.8-5.8-5.8h-5.7c7.7-66.1,59.3-117.1,123.6-125.8v4.3
		c0,3.3,2.6,5.9,5.9,5.9h24.1c3.2,0,5.8-2.6,5.8-5.9v-4.7c65.7,7.5,118.7,59.1,126.5,126.2h-5.6c-3.2,0-5.8,2.6-5.8,5.8v22.4
		c0,3.3,2.6,5.9,5.8,5.9h24.1c3.2,0,5.9-2.6,5.9-5.9v-22.4c0-3.2-2.7-5.8-5.9-5.8h-7.6c0-0.2,0.1-0.4,0.1-0.6
		c-6.5-58.5-44.9-106.2-96.8-126.7h85.8C402.5,107,408.8,111.8,416.2,111.8z"/>
</g>
</svg>
