<svg xmlns="http://www.w3.org/2000/svg" width="64.991" height="77.34" viewBox="0 0 64.991 77.34">
  <path id="Io" d="M58.338,72.87c-.035-6.337,2.832-11.12,8.633-14.642-3.246-4.645-8.15-7.2-14.625-7.7-6.13-.483-12.829,3.574-15.281,3.574-2.59,0-8.53-3.4-13.192-3.4C14.239,50.855,4,58.383,4,73.7a43.035,43.035,0,0,0,2.486,14.02C8.7,94.056,16.674,109.6,25,109.337c4.351-.1,7.425-3.091,13.088-3.091,5.491,0,8.34,3.091,13.192,3.091,8.392-.121,15.609-14.245,17.715-20.6C57.733,83.437,58.338,73.2,58.338,72.87ZM48.565,44.518A16.263,16.263,0,0,0,52.709,32a18.309,18.309,0,0,0-11.724,6.026,16.517,16.517,0,0,0-4.42,12.415C41.071,50.786,45.181,48.472,48.565,44.518Z" transform="translate(-4 -32)"/>
</svg>
