<svg xmlns="http://www.w3.org/2000/svg" xmlns:xlink="http://www.w3.org/1999/xlink" width="56.833" height="76.821" viewBox="0 0 56.833 76.821">
  <defs>
    <style>
      .cls-1 {
        fill: none;
      }

      .cls-2 {
        clip-path: url(#clip-path);
      }

      .cls-3 {
        fill: #ec262a;
      }

      .cls-4 {
        fill: #148dc8;
      }

      .cls-5 {
        fill: #eb2529;
      }

      .cls-6 {
        fill: #128cc7;
      }

      .cls-7 {
        fill: #158ec8;
      }

      .cls-8 {
        fill: #178fc8;
      }
    </style>
    <clipPath id="clip-path">
      <rect id="Rectangle_452" data-name="Rectangle 452" class="cls-1" width="56.833" height="76.821"/>
    </clipPath>
  </defs>
  <g id="Java" transform="translate(0)">
    <g id="Group_670" data-name="Group 670" class="cls-2" transform="translate(0)">
      <path id="Path_3941" data-name="Path 3941" class="cls-3" d="M76.432,39.728c-.219-.063-.368-.059-.435-.132a53.505,53.505,0,0,1-6.634-8.207c-1.963-3.207-1.836-5.084.484-8.066A47.7,47.7,0,0,1,76.912,16.6c.985-.839,1.978-1.67,3-2.462C84.5,10.588,87.08,6.145,86.148,0A2.236,2.236,0,0,1,87.16,1.667a12.85,12.85,0,0,1-3.543,13.126c-2.512,2.472-5.116,4.856-7.551,7.4-4.889,5.114-5.13,7.536-1.7,13.767a20.216,20.216,0,0,1,2.068,3.766" transform="translate(-49.777 0.001)"/>
      <path id="Path_3942" data-name="Path 3942" class="cls-4" d="M9.931,243.658A27.514,27.514,0,0,0,5.9,245.1c-.508.281-1.112.595-1.044,1.258.061.6.688.779,1.187.949a31.411,31.411,0,0,0,7.221,1.307,144.971,144.971,0,0,0,33.226-1.035,16.278,16.278,0,0,0,4.634-1.23c.843-.385,1.612-.836,1.36-2.1,1.143.749.982,1.436.193,2.108a13.186,13.186,0,0,1-4.762,2.347c-5.244,1.644-10.672,2.049-16.109,2.3a152.816,152.816,0,0,1-23.53-.488,25.979,25.979,0,0,1-6.786-1.409c-.651-.256-1.415-.537-1.488-1.377a1.984,1.984,0,0,1,1.167-1.824,16.219,16.219,0,0,1,8.758-2.248" transform="translate(0 -178.386)"/>
      <path id="Path_3943" data-name="Path 3943" class="cls-5" d="M110.015,86.051c2.4-2.945,1.819-5.658-.507-8.365a10.254,10.254,0,0,1-2.684-6.133,7.914,7.914,0,0,1,2.132-5.873c3.689-4.153,8.637-6.095,14-7.873a3.047,3.047,0,0,1-1.337,1.171,45.268,45.268,0,0,0-7.738,5.909,18.136,18.136,0,0,0-1.644,1.93,4.541,4.541,0,0,0-.246,5.586c.857,1.353,1.763,2.685,2.5,4.1,1.439,2.789,1.127,4.738-1.01,7.058a13.8,13.8,0,0,1-3.293,2.7l-.165-.216" transform="translate(-78.197 -42.322)"/>
      <path id="Path_3944" data-name="Path 3944" class="cls-6" d="M57.509,221.781c-.478,1.209.172,1.67,1.1,1.89a10.685,10.685,0,0,0,2.1.337,61.322,61.322,0,0,0,14.632-.779,1.8,1.8,0,0,1,1.392.194c1.071.629,2.169,1.211,3.4,1.893a38.5,38.5,0,0,1-6.633,1.827,36.251,36.251,0,0,1-15.364-.383,7.868,7.868,0,0,1-2.7-1.112c-1.383-.948-1.372-2.148.035-3.077a4.518,4.518,0,0,1,2.032-.789" transform="translate(-39.837 -162.37)"/>
      <path id="Path_3945" data-name="Path 3945" class="cls-6" d="M75.1,194.621a40.724,40.724,0,0,1-9.709,2.068,56.854,56.854,0,0,1-16.478-.876,8.7,8.7,0,0,1-1.641-.542c-1.651-.731-1.826-2.025-.417-3.166a5.607,5.607,0,0,1,1.382-.791c.5-.206,1.048-.3.81.583-.218.807.307,1.159.9,1.406a9.183,9.183,0,0,0,3,.605,80.98,80.98,0,0,0,17.177-.9c1.31-.2,2.425-.284,3.436.735a7.175,7.175,0,0,0,1.543.879" transform="translate(-33.607 -139.964)"/>
      <path id="Path_3946" data-name="Path 3946" class="cls-7" d="M34.718,157.886c-1.357.494-2.733.942-4.064,1.5-.751.315-1.886.6-1.789,1.538.095.91,1.24.816,2,.922a75.286,75.286,0,0,0,14.679.324,152.73,152.73,0,0,0,15.961-1.785,10.39,10.39,0,0,1-5.22,2.389c-6.9.865-13.8,1.721-20.779,1.384a58.561,58.561,0,0,1-10.217-1.1c-.784-.178-1.966-.2-2.069-1.153s1.025-1.235,1.763-1.581a24.724,24.724,0,0,1,9.734-2.442" transform="translate(-16.996 -115.591)"/>
      <path id="Path_3947" data-name="Path 3947" class="cls-8" d="M45.479,266.9a15.706,15.706,0,0,1,4.585.009c9.591.635,19.169.814,28.679-.937a27.7,27.7,0,0,0,9.9-3.5c.25-.156.561-.471.815-.13.241.322-.13.563-.335.767a13.486,13.486,0,0,1-5.681,3.135,60.736,60.736,0,0,1-14.23,2.253,77.263,77.263,0,0,1-22.1-1.187c-.472-.1-.938-.239-1.624-.415" transform="translate(-33.296 -191.953)"/>
      <path id="Path_3948" data-name="Path 3948" class="cls-4" d="M172.429,154.837c2.406-1.7,6.36-1.068,8.381,1.166,1.808,2,1.767,4.719-.216,7.16-2.218,2.73-5.275,4.153-8.5,5.279a1.443,1.443,0,0,1-.527.031,2.438,2.438,0,0,1-.429-.113,24.755,24.755,0,0,0,5.908-4.829,7.722,7.722,0,0,0,1.863-3.49c.581-2.819-1.126-4.934-4.246-5.2-.69-.058-1.388-.009-2.233-.009" transform="translate(-125.292 -112.651)"/>
      <path id="Path_3949" data-name="Path 3949" class="cls-5" d="M118.551,163.458h-.307l.142-.216.165.216" transform="translate(-86.569 -119.512)"/>
    </g>
  </g>
</svg>
