<svg class="fill-current" xmlns="http://www.w3.org/2000/svg" width="1000.065" height="993.532" viewBox="0 0 1000.065 993.532">
  <g id="Group_632" data-name="Group 632" transform="translate(-0.981 -0.981)">
    <g id="_34" data-name="34" transform="translate(0.981 0.981)">
      <path id="Path_3708" data-name="Path 3708" d="M571.642,287.821C571.642,131.071,444.571,4,287.821,4S4,131.071,4,287.821,131.071,571.642,287.821,571.642,571.642,444.571,571.642,287.821ZM287.821,500.687c-117.563,0-212.866-95.3-212.866-212.866s95.3-212.866,212.866-212.866,212.866,95.3,212.866,212.866S405.384,500.687,287.821,500.687Z" transform="translate(210.24 210.24)"/>
      <path id="Path_3709" data-name="Path 3709" d="M31.652,152.07h9.934a34.768,34.768,0,0,0,34.058-25.544l26.963-78.76A36.842,36.842,0,1,0,31.652,27.9L10.366,108.078A35.478,35.478,0,0,0,31.652,152.07Z" transform="translate(537.364 -0.981)"/>
      <path id="Path_3710" data-name="Path 3710" d="M78.363,14.3A35.478,35.478,0,0,0,34.371,38.423L7.408,118.6a35.478,35.478,0,0,0,24.125,43.992h9.934a34.768,34.768,0,0,0,36.9-24.125l22.706-80.18A35.478,35.478,0,0,0,78.363,14.3Z" transform="translate(348.742 830.734)"/>
      <path id="Path_3711" data-name="Path 3711" d="M139.815,31.341,59.636,10.054A36.842,36.842,0,0,0,39.768,81.01l80.179,22.706h9.934a35.824,35.824,0,1,0,9.934-70.955Z" transform="translate(829.389 537.675)"/>
      <path id="Path_3712" data-name="Path 3712" d="M118.012,101.016a35.824,35.824,0,1,0,9.934-70.955L47.766,7.355A36.842,36.842,0,1,0,27.9,78.31l80.179,22.706Z" transform="translate(-0.981 348.796)"/>
      <path id="Path_3713" data-name="Path 3713" d="M149.691,22.286a36.187,36.187,0,0,0-48.25-14.191L30.486,48.539a36.187,36.187,0,0,0-14.191,48.25,34.768,34.768,0,0,0,31.22,18.448,37.606,37.606,0,0,0,17.029-4.257L135.5,70.535A36.187,36.187,0,0,0,149.691,22.286Z" transform="translate(781.198 207.564)"/>
      <path id="Path_3714" data-name="Path 3714" d="M91.151,13.419,20.2,53.863A36.187,36.187,0,0,0,6,102.113a34.768,34.768,0,0,0,31.22,18.448,37.607,37.607,0,0,0,14.9-2.838l70.955-40.444A35.563,35.563,0,1,0,89.022,14.838Z" transform="translate(61.358 664.159)"/>
      <path id="Path_3715" data-name="Path 3715" d="M47.177,120.124a34.768,34.768,0,0,0,29.092,18.448A35.477,35.477,0,0,0,93.3,134.315a36.187,36.187,0,0,0,14.191-48.25L67.044,15.11A35.478,35.478,0,0,0,5.313,47.04Z" transform="translate(208.926 66.443)"/>
      <path id="Path_3716" data-name="Path 3716" d="M77.258,30.669A35.563,35.563,0,0,0,14.818,64.727l40.445,70.955a34.768,34.768,0,0,0,31.22,18.448,35.476,35.476,0,0,0,17.029-4.257,36.187,36.187,0,0,0,14.191-48.25Z" transform="translate(662.76 778.886)"/>
    </g>
  </g>
</svg>
