<svg xmlns="http://www.w3.org/2000/svg" width="76.43" height="50.148" viewBox="0 0 76.43 50.148">
  <defs>
    <style>
      .cls-1 {
        fill: #f2f2f2;
      }

      .cls-2 {
        fill: #3b8739;
      }

      .cls-3 {
        fill: #333;
      }

      .cls-4 {
        fill: #66a060;
      }

      .cls-5 {
        fill: #6da75d;
      }

      .cls-6 {
        fill: #55a344;
      }

      .cls-7 {
        fill: #639d57;
      }
    </style>
  </defs>
  <g id="Nodejs" transform="translate(0 -186.602)">
    <path id="Path_3778" data-name="Path 3778" class="cls-1" d="M958.239,444.064C958.275,444.731,958.119,441.731,958.239,444.064Z" transform="translate(-881.815 -236.108)"/>
    <path id="Path_3779" data-name="Path 3779" class="cls-2" d="M145.132,191.634v-9.942l-8.61-4.971-8.61,4.971v9.942l8.61,4.971Z" transform="translate(-108.806 21.403)"/>
    <path id="Path_3780" data-name="Path 3780" class="cls-3" d="M421.176,190.127l5.611,3.24-5.611,3.24-8.609-4.971v-9.942l8.609-4.971,5.218,3.014a38.023,38.023,0,0,1,.972,6.817l-3.19,1.842v-3.463l-3-1.731-3,1.731V188.4Z" transform="translate(-350.942 21.402)"/>
    <path id="Path_3781" data-name="Path 3781" class="cls-4" d="M462.356,233.255v-1.93l-1.671-.965-1.671.965v1.93l1.671.965Z" transform="translate(-390.45 -24.224)"/>
    <path id="Path_3782" data-name="Path 3782" class="cls-3" d="M15.04,181.694V194.8L9.3,191.529v-6.721L6.43,183.152l-2.867,1.656v6.721L.3,193.389a38.588,38.588,0,0,1,.691-13.527l5.436-3.139Z" transform="translate(0 21.402)"/>
    <rect id="Rectangle_445" data-name="Rectangle 445" class="cls-5" width="17.22" height="9.942" transform="matrix(0.5, 0.866, -0.866, 0.5, 27.716, 198.124)"/>
    <path id="Path_3783" data-name="Path 3783" class="cls-6" d="M127.912,219.942l2.956-4.821L127.912,210Z" transform="translate(-108.806 -6.905)"/>
    <path id="Path_3784" data-name="Path 3784" class="cls-7" d="M191.293,186.663l2.87-4.971-8.61-4.971Z" transform="translate(-157.837 21.403)"/>
    <path id="Path_3785" data-name="Path 3785" class="cls-3" d="M281.081,99.579v13.19l-2.886-1.667-8.611,4.971v9.942l8.611,4.971,8.609-4.971V102.643Zm-.016,23.121-2.87,1.658-2.87-1.658v-3.313l2.87-1.658,2.87,1.658Z" transform="translate(-229.316 87.023)"/>
    <g id="Group_656" data-name="Group 656" transform="translate(29.086 216.33)">
      <path id="Path_3786" data-name="Path 3786" class="cls-4" d="M248.468,342.91a1.675,1.675,0,0,0-1.724-1.453c-1.555,0-2.619.2-2.619,1.065s3.025.862,4.174,1.2a2.08,2.08,0,0,1,1.656,2.771c-.507,1.555-2.062,1.724-4.461,1.724a2.788,2.788,0,0,1-2.94-2.771h1.352s-.169,1.217,1.419,1.419,3.107.317,3.312-.912c.27-1.622-5.137-.811-5.61-2.4-.4-1.342-.169-3.109,2.535-3.38s4.191.923,4.191,2.7Z" transform="translate(-235.409 -333.93)"/>
      <path id="Path_3787" data-name="Path 3787" class="cls-4" d="M194.722,313.915l2.989,1.725a2.252,2.252,0,0,0,3.379-1.951V305.1h-1.218v8.249a1.23,1.23,0,0,1-1.845,1.065l-2.086-1.2v-8.8l7.624-4.4,7.624,4.4v8.8l-7.624,4.4-2.2-1.268-1.434.578,3.63,2.1,8.842-5.105v-10.21l-8.842-5.105-8.842,5.105v10.21Z" transform="translate(-194.722 -298.6)"/>
    </g>
  </g>
</svg>
