<svg xmlns="http://www.w3.org/2000/svg" xmlns:xlink="http://www.w3.org/1999/xlink" width="76.167" height="40.067" viewBox="0 0 76.167 40.067">
  <defs>
    <style>
      .cls-1 {
        fill: none;
      }

      .cls-2 {
        clip-path: url(#clip-path);
      }

      .cls-3 {
        fill: url(#radial-gradient);
      }

      .cls-4 {
        clip-path: url(#clip-path-2);
      }

      .cls-5 {
        fill: #6181b6;
      }

      .cls-6 {
        fill: #fff;
      }

      .cls-7 {
        fill: #000004;
      }
    </style>
    <clipPath id="clip-path">
      <ellipse id="Ellipse_319" data-name="Ellipse 319" class="cls-1" cx="38.083" cy="20.033" rx="38.083" ry="20.033"/>
    </clipPath>
    <radialGradient id="radial-gradient" cx="0.3" cy="0.176" r="1.248" gradientTransform="matrix(0.526, 0, 0, -1, 0, 2)" gradientUnits="objectBoundingBox">
      <stop offset="0" stop-color="#fff"/>
      <stop offset="0.5" stop-color="#4c6b97"/>
      <stop offset="1" stop-color="#231f20"/>
    </radialGradient>
    <clipPath id="clip-path-2">
      <rect id="Rectangle_454" data-name="Rectangle 454" class="cls-1" width="76.167" height="40.067"/>
    </clipPath>
  </defs>
  <g id="Php" transform="translate(0)">
    <g id="Group_672" data-name="Group 672" transform="translate(0 0)">
      <g id="Group_671" data-name="Group 671" class="cls-2">
        <rect id="Rectangle_453" data-name="Rectangle 453" class="cls-3" width="76.167" height="40.067" transform="translate(0 0)"/>
      </g>
    </g>
    <g id="Group_674" data-name="Group 674" transform="translate(0)">
      <g id="Group_673" data-name="Group 673" class="cls-4">
        <path id="Path_3950" data-name="Path 3950" class="cls-5" d="M47.4,47.89c20.211,0,36.6-8.3,36.6-18.546S67.607,10.8,47.4,10.8,10.8,19.1,10.8,29.344,27.185,47.89,47.4,47.89" transform="translate(-9.312 -9.311)"/>
        <path id="Path_3951" data-name="Path 3951" class="cls-6" d="M114.33,58.848l1.815-9.342c.41-2.109.069-3.682-1.012-4.675-1.047-.962-2.825-1.429-5.436-1.429h-3.144l.9-4.629a.6.6,0,0,0-.584-.709H102.53a.6.6,0,0,0-.584.482l-1.928,9.918a5.578,5.578,0,0,0-1.3-2.867c-1.273-1.457-3.286-2.2-5.984-2.2h-8.41a.6.6,0,0,0-.584.482l-3.9,20.076a.595.595,0,0,0,.584.709H84.8a.6.6,0,0,0,.584-.482l.944-4.856h3.255a14.057,14.057,0,0,0,4.264-.55,8.349,8.349,0,0,0,3.13-1.874,9.627,9.627,0,0,0,1.849-2.3l-.78,4.012a.595.595,0,0,0,.584.709h4.339a.6.6,0,0,0,.584-.482l2.141-11.02h2.977c1.269,0,1.64.253,1.741.361s.283.448.069,1.549l-1.726,8.883a.595.595,0,0,0,.584.709h4.408a.6.6,0,0,0,.584-.482M94.214,51.129a4.759,4.759,0,0,1-1.527,2.97,5.906,5.906,0,0,1-3.577.873H87.172l1.4-7.212H91.08c1.841,0,2.583.394,2.881.723a3.214,3.214,0,0,1,.253,2.646" transform="translate(-68.833 -32.82)"/>
        <path id="Path_3952" data-name="Path 3952" class="cls-6" d="M346.751,79.008c-1.273-1.457-3.286-2.2-5.984-2.2h-8.41a.6.6,0,0,0-.584.482l-3.9,20.076a.595.595,0,0,0,.584.709h4.373a.6.6,0,0,0,.584-.482l.944-4.856h3.255a14.058,14.058,0,0,0,4.264-.55,8.348,8.348,0,0,0,3.13-1.874,9.318,9.318,0,0,0,2.928-5.243c.5-2.558.1-4.6-1.182-6.067m-4.536,5.533a4.759,4.759,0,0,1-1.526,2.97,5.907,5.907,0,0,1-3.577.873h-1.938l1.4-7.212h2.506c1.841,0,2.583.394,2.881.723a3.214,3.214,0,0,1,.253,2.646" transform="translate(-282.7 -66.232)"/>
        <path id="Path_3953" data-name="Path 3953" class="cls-7" d="M94.8,84.3q2.492,0,3.323.92t.4,3.158a5.292,5.292,0,0,1-1.748,3.327,6.423,6.423,0,0,1-3.94,1h-2.66l1.633-8.4ZM84.149,101.208h4.373l1.037-5.338h3.746a13.415,13.415,0,0,0,4.08-.521A7.725,7.725,0,0,0,100.3,93.6a8.724,8.724,0,0,0,2.746-4.918q.694-3.57-1.047-5.561t-5.536-1.992h-8.41Z" transform="translate(-72.558 -69.957)"/>
        <path id="Path_3954" data-name="Path 3954" class="cls-7" d="M220.209,42.382h4.339l-1.037,5.338h3.865q3.648,0,5.033,1.272t.831,4.124l-1.815,9.342h-4.408l1.726-8.883a2.411,2.411,0,0,0-.217-2.067,3.049,3.049,0,0,0-2.177-.552h-3.468l-2.235,11.5h-4.339Z" transform="translate(-186.512 -36.544)"/>
        <path id="Path_3955" data-name="Path 3955" class="cls-7" d="M342.621,84.3q2.492,0,3.323.92t.4,3.158a5.292,5.292,0,0,1-1.748,3.327,6.423,6.423,0,0,1-3.94,1h-2.66l1.633-8.4Zm-10.656,16.908h4.373l1.037-5.338h3.746a13.415,13.415,0,0,0,4.08-.521,7.725,7.725,0,0,0,2.911-1.747,8.724,8.724,0,0,0,2.746-4.918q.694-3.57-1.047-5.561t-5.536-1.992h-8.41Z" transform="translate(-286.239 -69.957)"/>
      </g>
    </g>
  </g>
</svg>
