<svg id="Group_717" data-name="Group 717" xmlns="http://www.w3.org/2000/svg" xmlns:xlink="http://www.w3.org/1999/xlink" width="88.615" height="78.894" viewBox="0 0 88.615 78.894">
  <defs>
    <style>
      .cls-1 {
        fill: none;
      }

      .cls-2 {
        clip-path: url(#clip-path);
      }

      .cls-3 {
        fill: #62dafb;
      }

      .cls-4 {
        fill: #cbf2fd;
      }

      .cls-5 {
        fill: #61dafb;
      }
    </style>
    <clipPath id="clip-path">
      <rect id="Rectangle_449" data-name="Rectangle 449" class="cls-1" width="88.615" height="78.894"/>
    </clipPath>
  </defs>
  <g id="Group_659" data-name="Group 659" class="cls-2">
    <path id="Path_3798" data-name="Path 3798" class="cls-3" d="M28.363,80.526H25.052a1.594,1.594,0,0,0-.562-.157,8.383,8.383,0,0,1-3.16-1.46,9.686,9.686,0,0,1-3.12-4.226,17.406,17.406,0,0,1-1.179-5.641,34.474,34.474,0,0,1,.242-6.368,57.181,57.181,0,0,1,1.171-6.226c.121-.5.121-.5-.373-.641a52.074,52.074,0,0,1-6.306-2.241A30.562,30.562,0,0,1,5.015,49.7,14.169,14.169,0,0,1,1.1,45.271a8.373,8.373,0,0,1-.663-6.814,11.31,11.31,0,0,1,2.8-4.378,21.264,21.264,0,0,1,4.505-3.422,41.739,41.739,0,0,1,7.834-3.484c.9-.3,1.8-.567,2.705-.852.261-.083.269-.1.222-.361-.012-.064-.033-.127-.049-.191a48.7,48.7,0,0,1-1.412-8.813,26.994,26.994,0,0,1,.222-5.933,14.793,14.793,0,0,1,1.455-4.6A8.587,8.587,0,0,1,25.125,1.7l3.162.006c.476.1.956.173,1.427.289a21.863,21.863,0,0,1,5.945,2.563,44.859,44.859,0,0,1,7.406,5.656c.357.329.712.661,1.061,1,.13.126.238.147.362,0,.043-.049.095-.091.142-.136a52.775,52.775,0,0,1,4.055-3.556,34.686,34.686,0,0,1,6.592-4.21A17.981,17.981,0,0,1,60.363,1.7l3.161,0a8.764,8.764,0,0,1,3.224,1.211A9.338,9.338,0,0,1,70.3,7.276a18.556,18.556,0,0,1,1.324,6.762,33.332,33.332,0,0,1-.208,4.718,48.6,48.6,0,0,1-.782,4.9c-.163.77-.349,1.536-.522,2.3-.061.272-.058.273.2.361.05.017.1.033.15.048a51.352,51.352,0,0,1,7.389,2.714,28.3,28.3,0,0,1,6.112,3.715,13.889,13.889,0,0,1,3.389,3.855,8.482,8.482,0,0,1,.044,8.814,13.57,13.57,0,0,1-3.241,3.776,29,29,0,0,1-6.974,4.177,53.276,53.276,0,0,1-6.78,2.434c-.354.1-.357.1-.274.449.317,1.314.6,2.635.839,3.967a43.219,43.219,0,0,1,.649,5.826,25.3,25.3,0,0,1-.3,5.26,14.141,14.141,0,0,1-1.586,4.717A8.48,8.48,0,0,1,63.964,80.4c-.123.026-.267.015-.364.125H60.289a.346.346,0,0,0-.217-.079,16.96,16.96,0,0,1-3-.81A28.634,28.634,0,0,1,50.461,76a52.641,52.641,0,0,1-5.912-4.959c-.245-.235-.25-.237-.493,0q-1.033,1-2.117,1.947a39.63,39.63,0,0,1-7.918,5.549,19.451,19.451,0,0,1-4.865,1.791,2.542,2.542,0,0,0-.794.194M44.394,26.856c-2.212-.033-4.337.072-6.462.169-.485.022-.968.078-1.452.111a.455.455,0,0,0-.385.232c-.069.112-.148.217-.221.326a112.874,112.874,0,0,0-7.494,12.992.808.808,0,0,0,0,.8q2.337,4.76,5.105,9.281Q34.73,52.8,36.06,54.778a.612.612,0,0,0,.546.3c.669.027,1.335.1,2,.129,2.138.093,4.277.145,6.418.129,2.338-.017,4.673-.091,7.006-.257a.586.586,0,0,0,.511-.288c.547-.85,1.117-1.686,1.66-2.539a110.146,110.146,0,0,0,6.042-10.786.731.731,0,0,0,0-.736c-.47-.9-.911-1.805-1.377-2.7A110.214,110.214,0,0,0,52.613,27.5a.819.819,0,0,0-.7-.4c-.918-.047-1.834-.123-2.752-.151-1.614-.049-3.229-.133-4.761-.093M20.828,67.464c.035.5.028,1.33.117,2.154a13.292,13.292,0,0,0,.888,3.74,6.593,6.593,0,0,0,1.048,1.75A4.589,4.589,0,0,0,26.3,76.739a9.763,9.763,0,0,0,3.849-.694,22.462,22.462,0,0,0,4.641-2.405,45.336,45.336,0,0,0,6.279-5.062c.124-.117.242-.241.369-.355s.146-.238.008-.363c-.039-.035-.072-.076-.108-.115q-2.346-2.581-4.487-5.334-1.294-1.664-2.516-3.381a.629.629,0,0,0-.5-.332c-.536-.035-1.071-.1-1.606-.157-1.5-.16-3-.364-4.485-.6-1.7-.269-3.387-.585-5.066-.959-.35-.078-.38-.059-.462.283-.152.638-.3,1.276-.44,1.918a40.665,40.665,0,0,0-.947,8.282m46.953-.48a25.979,25.979,0,0,0-.186-3.1,46.262,46.262,0,0,0-.866-5.2c-.114-.512-.246-1.021-.362-1.533-.036-.16-.118-.225-.278-.192L65.859,57c-.836.17-1.671.346-2.508.508-1.766.343-3.544.611-5.327.839-1.015.13-2.033.247-3.052.333a.9.9,0,0,0-.741.41,88.928,88.928,0,0,1-5.623,7.152c-.467.534-.946,1.057-1.418,1.586-.188.211-.186.213.006.414.045.047.094.092.141.137a48.146,48.146,0,0,0,5.828,4.812,24,24,0,0,0,5.148,2.792,9.969,9.969,0,0,0,4,.753,4.579,4.579,0,0,0,3.177-1.368,7.072,7.072,0,0,0,1.649-3.011,18.307,18.307,0,0,0,.645-5.376M20.817,15.007c.015.335.036.649.041.964a30.886,30.886,0,0,0,.356,3.916c.242,1.7.59,3.385,1,5.055.084.343.138.38.453.269a2.471,2.471,0,0,1,.307-.067q3.234-.69,6.509-1.147c1.429-.2,2.863-.359,4.3-.508a.682.682,0,0,0,.543-.314c1.665-2.346,3.426-4.617,5.306-6.795.566-.656,1.149-1.3,1.725-1.944.257-.288.261-.293-.021-.565s-.574-.54-.863-.807a43.537,43.537,0,0,0-5.639-4.475A20.936,20.936,0,0,0,29.3,5.875a8.607,8.607,0,0,0-3.26-.4,4.564,4.564,0,0,0-3.321,1.806A7.9,7.9,0,0,0,21.424,10a19.272,19.272,0,0,0-.607,5m46.969-.542a18.711,18.711,0,0,0-.249-2.863A10.99,10.99,0,0,0,66.478,8.2a4.768,4.768,0,0,0-4.356-2.755,8.675,8.675,0,0,0-2.489.338,19.657,19.657,0,0,0-5.239,2.412,41.18,41.18,0,0,0-5.6,4.272c-.509.455-1,.927-1.5,1.4-.3.284-.3.287-.032.578Q49.6,17,51.731,19.737q1.332,1.709,2.583,3.477a.539.539,0,0,0,.444.266c.432.028.861.092,1.291.135,1.345.134,2.684.314,4.02.512,1.986.294,3.959.663,5.92,1.093.306.067.309.064.391-.252.218-.838.4-1.684.572-2.533a40.3,40.3,0,0,0,.832-7.969M3.85,41.095a5,5,0,0,0,.442,1.943,8.155,8.155,0,0,0,1.623,2.308,16.7,16.7,0,0,0,3.379,2.63,41.261,41.261,0,0,0,10.04,4.185c.275.08.281.072.375-.223a91.14,91.14,0,0,1,4.072-10.492.733.733,0,0,0,.008-.671,91.107,91.107,0,0,1-4.045-10.419c-.128-.4-.131-.4-.516-.291a47.151,47.151,0,0,0-6.8,2.487,23.948,23.948,0,0,0-5.5,3.355,10.113,10.113,0,0,0-2.41,2.784,5.22,5.22,0,0,0-.672,2.4m80.89-.048a4.941,4.941,0,0,0-.065-.772A6.032,6.032,0,0,0,83.509,37.8a13.329,13.329,0,0,0-3.174-2.922A28.535,28.535,0,0,0,75.5,32.245a49.3,49.3,0,0,0-6.154-2.195c-.335-.1-.356-.085-.455.228a88.757,88.757,0,0,1-4.008,10.35,1.025,1.025,0,0,0,.009.955c1.2,2.614,2.281,5.278,3.22,8,.274.794.53,1.594.8,2.391.089.265.093.263.359.194l.152-.042a48.142,48.142,0,0,0,6.51-2.365,25.6,25.6,0,0,0,5.323-3.121,11.06,11.06,0,0,0,2.676-2.864,4.928,4.928,0,0,0,.811-2.727M39.227,59.087a.908.908,0,0,0,.242.417Q41.623,62.321,44,64.952c.3.332.3.338.612-.007,1.609-1.768,3.13-3.61,4.582-5.509a.484.484,0,0,0,.167-.343c-3.372.125-6.737.133-10.134-.006m18.1-4.567a9.923,9.923,0,0,0,1.37-.152q3.14-.429,6.235-1.108c.318-.07.323-.074.222-.389q-1.14-3.542-2.58-6.975c-.028-.066-.034-.157-.171-.158-1.546,2.964-3.223,5.869-5.076,8.782m-26.077-26.8a.308.308,0,0,0-.3-.037c-.8.116-1.609.23-2.413.349-1.622.241-3.231.553-4.834.894-.335.071-.347.094-.244.419.739,2.327,1.6,4.611,2.532,6.865.037.089.05.208.214.24q2.331-4.469,5.042-8.73M65.206,29.04A56.21,56.21,0,0,0,57.349,27.7c1.824,2.876,3.516,5.8,5.086,8.812a60.008,60.008,0,0,0,2.772-7.471M31.287,54.521c-1.86-2.9-3.507-5.816-5.094-8.772,0-.008-.023-.01-.035-.01a.293.293,0,0,0-.049.007,1.382,1.382,0,0,0-.07.13c-.952,2.29-1.823,4.61-2.573,6.974-.016.05-.034.1-.049.15a.166.166,0,0,0,.138.233c.051.013.1.019.154.03,1.984.443,3.987.788,6,1.079a11.408,11.408,0,0,0,1.58.179M49.37,23.1a.858.858,0,0,0-.233-.419c-.7-.885-1.4-1.774-2.11-2.648-.8-.977-1.629-1.922-2.475-2.857-.228-.252-.247-.255-.486,0s-.476.525-.711.79q-2.066,2.328-3.948,4.806c-.06.078-.16.145-.106.324,3.337-.141,6.687-.143,10.07,0" transform="translate(0 -1.632)"/>
    <path id="Path_3799" data-name="Path 3799" class="cls-4" d="M640.107,0c0,.024,0,.049,0,.073L636.948.067q0-.034.006-.067Z" transform="translate(-611.822)"/>
    <path id="Path_3800" data-name="Path 3800" class="cls-4" d="M1530.23.069q0-.034,0-.069h3.153q0,.036,0,.072l-3.161,0" transform="translate(-1469.867)"/>
    <path id="Path_3801" data-name="Path 3801" class="cls-5" d="M931,800.667a7.888,7.888,0,1,1-7.926,7.809A7.9,7.9,0,0,1,931,800.667" transform="translate(-886.657 -769.082)"/>
  </g>
</svg>
