<svg id="Sketch" xmlns="http://www.w3.org/2000/svg" width="87.153" height="78.867" viewBox="0 0 87.153 78.867">
  <defs>
    <style>
      .cls-1 {
        fill: #fdb300;
      }

      .cls-2 {
        fill: #ea6c00;
      }

      .cls-3 {
        fill: #fdad00;
      }

      .cls-4 {
        fill: #fdd231;
      }

      .cls-5 {
        fill: #feeeb7;
      }
    </style>
  </defs>
  <path id="Path" class="cls-1" d="M19.015,2.6,43.577,0,68.138,2.6,87.153,28.123,43.577,78.867,0,28.123Z"/>
  <g id="Group" transform="translate(0 28.123)">
    <path id="Path-2" data-name="Path" class="cls-2" d="M17.651,0,43.577,50.745,0,0Z"/>
    <path id="Path-3" data-name="Path" class="cls-2" d="M17.651,50.745,43.577,0,0,50.745Z" transform="translate(87.153 50.745) rotate(180)"/>
    <path id="Path-4" data-name="Path" class="cls-3" d="M79.634,0h51.852L105.56,50.745Z" transform="translate(-61.983)"/>
  </g>
  <g id="Group-2" data-name="Group">
    <path id="Path-5" data-name="Path" class="cls-4" d="M105.56,0,81,2.6,79.634,28.123Z" transform="translate(-61.983)"/>
    <path id="Path-6" data-name="Path" class="cls-4" d="M25.926,28.123l-24.561-2.6L0,0Z" transform="translate(69.503 28.123) rotate(180)"/>
    <path id="Path-7" data-name="Path" class="cls-3" d="M0,0,19.015,25.526,17.651,0Z" transform="translate(87.153 28.123) rotate(180)"/>
    <path id="Path-8" data-name="Path" class="cls-3" d="M0,37.241,19.015,11.715,17.651,37.241Z" transform="translate(0 -9.118)"/>
    <path id="Path-9" data-name="Path" class="cls-5" d="M105.56,0,79.634,28.123h51.852Z" transform="translate(-61.983)"/>
  </g>
</svg>
