<svg xmlns="http://www.w3.org/2000/svg" width="77.635" height="77.635" viewBox="0 0 77.635 77.635">
  <defs>
    <style>
      .cls-1 {
        fill: #288cc0;
      }
    </style>
  </defs>
  <g id="unbounce" transform="translate(0)">
    <path id="Fill-1" class="cls-1" d="M16.818,235.6a38.818,38.818,0,1,0,38.818,38.818A38.806,38.806,0,0,0,16.818,235.6ZM6.094,301.73c.447-2.737.838-5.306,1.229-7.652-8.545-4.3-13.963-12.9-12.567-22.9,1.9-13.516,12.288-20.5,25.413-19.325a37,37,0,0,1,3.351-4.077c2.234-2.457,5.474-2.569,4.021.391-2.96,5.641-4.133,9.886-6.7,16.756-2.569,7.261-6.479,17.929-11.729,36.7C8.663,303.35,5.926,303.07,6.094,301.73Zm32.841-24.91c-1.731,12.9-13.8,20.275-25.8,18.99a56.079,56.079,0,0,1,2.29-6.591c.782-1.4,3.63-1.955,5.809-2.849a13.052,13.052,0,0,0,8.6-10.724,13.45,13.45,0,0,0-2.625-9.718c-1.452-1.843-2.793-2.96-2.346-4.636a55.814,55.814,0,0,1,2.458-6.926A22.261,22.261,0,0,1,38.935,276.819Z" transform="translate(22 -235.6)"/>
    <path id="Fill-2" class="cls-1" d="M24.114,292.129a13.069,13.069,0,0,0,2.4,9.383c1.285,1.676,2.234,2.681,2.681,3.407a139.426,139.426,0,0,1,4.189-17.649c.67-2.067,1.787-4.915,2.569-6.87-.949.335-2.346.67-3.407,1.117a12.884,12.884,0,0,0-8.434,10.612" transform="translate(1.69 -255.378)"/>
  </g>
</svg>
