<?xml version="1.0" encoding="utf-8"?>
<!-- Generator: Adobe Illustrator 18.1.1, SVG Export Plug-In . SVG Version: 6.00 Build 0)  -->
<svg version="1.1" id="Layer_1" xmlns="http://www.w3.org/2000/svg" xmlns:xlink="http://www.w3.org/1999/xlink" x="0px" y="0px"
	 viewBox="-50 -50 300 300" enable-background="new -50 -50 300 300" xml:space="preserve">
<path fill="#4353FF" d="M170,58.2c0,0-23.5,73.9-25.4,80c-0.7-6.2-18-138.8-18-138.8c-40.1,0-61.6,28.6-72.8,58.6
	c0,0-28.6,74-31,80.3c-0.2-5.7-4.4-79.4-4.4-79.4C16.1,22.2-17.7-0.3-45-0.3l33.1,200.8c41.9-0.2,64.6-28.6,76.5-58.6
	c0,0,25.3-65.2,26.2-68.3c0.2,2.8,18,127,18,127c42.1,0,64.7-26.7,77-55.7L245-0.3C203.3-0.4,181.4,28.1,170,58.2z"/>
</svg>
