<svg xmlns="http://www.w3.org/2000/svg" width="80.984" height="48.206" viewBox="0 0 80.984 48.206">
  <defs>
    <style>
      .cls-1 {
        fill: #7f54b3;
      }

      .cls-2 {
        fill: #fff;
      }
    </style>
  </defs>
  <g id="woocommerce-logo" transform="translate(0)">
    <path id="Path_3961" data-name="Path 3961" class="cls-1" d="M7.517,0H73.436a7.546,7.546,0,0,1,7.549,7.549V32.711a7.546,7.546,0,0,1-7.549,7.549H49.8l3.245,7.946L38.772,40.26H7.55A7.546,7.546,0,0,1,0,32.711V7.549A7.517,7.517,0,0,1,7.517,0Z" transform="translate(-0.001)"/>
    <path id="Path_3962" data-name="Path 3962" class="cls-2" d="M13.354,16.533a2.65,2.65,0,0,1,2.074-1.021,2.4,2.4,0,0,1,2.864,2.37Q19.823,28.2,21.617,35.363l7.209-13.728A3.125,3.125,0,0,1,31.3,19.66c1.448-.1,2.337.823,2.7,2.765a61.489,61.489,0,0,0,3.127,11.259q1.284-12.543,4.346-18.106a2.529,2.529,0,0,1,2.173-1.448,2.86,2.86,0,0,1,2.074.658,2.578,2.578,0,0,1,1.021,1.876,2.857,2.857,0,0,1-.329,1.58c-1.284,2.37-2.337,6.354-3.193,11.884a61.309,61.309,0,0,0-.922,12.543,3.907,3.907,0,0,1-.4,2.173,2.121,2.121,0,0,1-1.745,1.185,3.31,3.31,0,0,1-2.6-1.218q-4.592-4.691-7.275-14.024-3.21,6.321-4.74,9.481C23.593,43.988,21.947,45.9,20.564,46c-.889.066-1.646-.691-2.3-2.271q-2.518-6.469-5.432-24.986a2.8,2.8,0,0,1,.527-2.206ZM84.1,21.7a7.581,7.581,0,0,0-5.267-3.819,8.641,8.641,0,0,0-1.778-.2c-3.16,0-5.728,1.646-7.736,4.938a17.444,17.444,0,0,0-2.568,9.283,12.747,12.747,0,0,0,1.58,6.518A7.581,7.581,0,0,0,73.6,42.243a8.641,8.641,0,0,0,1.778.2c3.193,0,5.761-1.646,7.736-4.938a17.64,17.64,0,0,0,2.568-9.316A12.149,12.149,0,0,0,84.1,21.7ZM79.953,30.82a8.71,8.71,0,0,1-2.5,4.872,3.165,3.165,0,0,1-2.667,1.053c-.79-.165-1.448-.856-1.942-2.14a8.355,8.355,0,0,1-.593-3,11.447,11.447,0,0,1,.23-2.4,10.645,10.645,0,0,1,1.745-3.918c1.086-1.613,2.239-2.271,3.424-2.041.79.165,1.449.856,1.942,2.14a8.355,8.355,0,0,1,.593,3,11.551,11.551,0,0,1-.23,2.436ZM63.493,21.7a7.65,7.65,0,0,0-5.267-3.819,8.641,8.641,0,0,0-1.778-.2c-3.16,0-5.728,1.646-7.736,4.938a17.444,17.444,0,0,0-2.568,9.283,12.747,12.747,0,0,0,1.58,6.518,7.581,7.581,0,0,0,5.267,3.819,8.641,8.641,0,0,0,1.778.2c3.193,0,5.761-1.646,7.736-4.938a17.64,17.64,0,0,0,2.568-9.316,12.456,12.456,0,0,0-1.58-6.485ZM59.312,30.82a8.71,8.71,0,0,1-2.5,4.872,3.165,3.165,0,0,1-2.667,1.053c-.79-.165-1.448-.856-1.942-2.14a8.355,8.355,0,0,1-.593-3,11.448,11.448,0,0,1,.23-2.4,10.645,10.645,0,0,1,1.745-3.918c1.086-1.613,2.239-2.271,3.424-2.041.79.165,1.449.856,1.942,2.14a8.355,8.355,0,0,1,.593,3,9.724,9.724,0,0,1-.23,2.436Z" transform="translate(-8.743 -9.652)"/>
  </g>
</svg>
