<svg id="Zeplin" xmlns="http://www.w3.org/2000/svg" width="86.985" height="69.531" viewBox="0 0 86.985 69.531">
  <defs>
    <style>
      .cls-1 {
        fill: #fdbd39;
      }

      .cls-2 {
        fill: #f69833;
      }

      .cls-3 {
        fill: #fecf33;
      }

      .cls-4 {
        fill: #ee6723;
      }
    </style>
  </defs>
  <path id="Path_4108" data-name="Path 4108" class="cls-1" d="M243.193,1326.4l-4.55,1.663L238.4,1341.6l15.751-5.754c-5.407-1.811-9.35-5-10.958-9.444" transform="translate(-229.784 -1278.457)"/>
  <path id="Path_4109" data-name="Path 4109" class="cls-2" d="M15.791,930.3,0,936.068l8.859,10.214,4.55-1.663c-1.6-4.427-.614-9.426,2.382-14.32" transform="translate(0 -896.673)"/>
  <path id="Path_4110" data-name="Path 4110" class="cls-3" d="M379.584,285.008c-20.106,7.344-33.07,22.5-28.95,33.851l72.809-26.6c-4.12-11.349-23.753-14.6-43.859-7.254" transform="translate(-337.225 -270.916)"/>
  <path id="Path_4111" data-name="Path 4111" class="cls-4" d="M414.759,624.451c20.106-7.344,33.092-22.434,28.95-33.851L370.9,617.194c4.142,11.421,23.753,14.6,43.859,7.257" transform="translate(-357.495 -569.25)"/>
  <path id="Path_4112" data-name="Path 4112" class="cls-2" d="M443.806,590.5,371,617.1c1.424,3.932,6.863,5.869,14.49,5.869,7.438,0,16.958-1.84,26.883-5.465,20.106-7.344,34.249-19.239,31.433-27" transform="translate(-357.591 -569.154)"/>
  <path id="Path_4113" data-name="Path 4113" class="cls-1" d="M419.792,428.2c-7.435,0-16.958,1.84-26.883,5.465-20.106,7.344-34.249,19.235-31.433,27l72.809-26.6c-1.428-3.932-6.863-5.866-14.493-5.866" transform="translate(-348.067 -412.72)"/>
  <g id="Group_716" data-name="Group 716" transform="translate(28.156 0)">
    <path id="Path_4114" data-name="Path 4114" class="cls-4" d="M818.583,217.472c-2.143,0-5.3-1.934-9.393-5.75A121.485,121.485,0,0,1,793.58,193.1a121.607,121.607,0,0,1-12.093-21.093c-2.8-6.657-3.2-10.749-1.189-12.166a2.685,2.685,0,0,1,1.583-.466c1.637,0,4.832,1.218,10.734,7.03l.13.126-.018.181c-.04.419-.076.839-.108,1.254l-.065.82-.578-.582c-6.361-6.408-9.159-7.1-10.069-7.1a1.051,1.051,0,0,0-.614.155c-.875.614-.933,3.621,1.785,10.073a119.914,119.914,0,0,0,11.916,20.771,119.411,119.411,0,0,0,15.375,18.346c5.125,4.782,7.435,5.3,8.19,5.3a1.07,1.07,0,0,0,.629-.166c.922-.647.922-3.867-2.107-10.814l-.141-.318.3-.166c.3-.166.6-.329.875-.488l.365-.206.17.383c2.147,4.923,4.156,11.179,1.522,13.029A2.7,2.7,0,0,1,818.583,217.472Zm0-.759v0Z" transform="translate(-779.038 -153.612)"/>
    <path id="Path_4115" data-name="Path 4115" class="cls-4" d="M1142.5,54.891l-.029.376c-.51,6.289-1.847,13.85-5.338,14.157-.072.007-.145.007-.213.007-2.371,0-4.615-3.4-6.665-10.095a121.482,121.482,0,0,1-4.243-23.959,121.775,121.775,0,0,1,.033-24.335c.889-7.171,2.581-10.915,5.031-11.132.072-.007.148-.011.22-.011,1.72,0,4.312,1.948,6.965,11.02l-1.731.333a35.673,35.673,0,0,0-2.808-7.192c-.885-1.565-1.749-2.429-2.425-2.429a.461.461,0,0,0-.069,0c-1.062.094-2.609,2.667-3.47,9.621a120.039,120.039,0,0,0-.029,23.97,119.987,119.987,0,0,0,4.175,23.6,32.167,32.167,0,0,0,2.711,6.643c.846,1.438,1.666,2.23,2.306,2.23a.392.392,0,0,0,.065,0c1.016-.087,2.931-2.769,3.737-12.2Z" transform="translate(-1112.903 0.1)"/>
  </g>
</svg>
