<svg xmlns="http://www.w3.org/2000/svg" xmlns:xlink="http://www.w3.org/1999/xlink" width="610" height="605.845" viewBox="0 0 610 605.845">
  <defs>
    <linearGradient id="linear-gradient" x1="0.17" y1="1.143" x2="0.669" y2="0.458" gradientUnits="objectBoundingBox">
      <stop offset="0" stop-color="#1a237e" stop-opacity="0.4"/>
      <stop offset="1" stop-color="#1a237e" stop-opacity="0"/>
    </linearGradient>
  </defs>
  <g id="flutter-app-development" transform="translate(-58.257 0)">
    <path id="Path_4658" data-name="Path 4658" d="M250.1,742.414c36,23.092,80.974,21.92,124.215,16.509,6.038-.755,12.029-1.582,17.962-2.445.036-.011.083-.011.119-.022.285-.043.571-.086.844-.117,1.224-.182,2.449-.363,3.662-.545l-.258.565-.812,1.754c.294-.588.588-1.165.882-1.753.086-.176.184-.353.27-.529,10.188-20.175,20.245-41.064,21.883-63.562,1.688-23.351-7.994-49.166-29.022-59.463a41.251,41.251,0,0,0-8.643-3.083c-1.241-.3-2.494-.539-3.76-.738-13.241-1.961-27.421,2.029-37.274,11.167-13.033,12.11-17.59,32.484-10.969,49-18.264-16.811-16.59-45.773-11.92-70.154s10.477-51.544-2.855-72.5c-7.412-11.663-19.707-18.483-33.215-20.769-.414-.066-.828-.132-1.242-.187-15.678-2.321-32.831,1.383-45.853,10.611-24.65,17.459-36.11,48.656-38.751,78.753C191.107,663.339,209.172,716.157,250.1,742.414Z" transform="translate(-136.5 -157.828)" fill="#f2f2f2"/>
    <path id="Path_4659" data-name="Path 4659" d="M266,664.858a109.691,109.691,0,0,0,9.226,30.457A95.245,95.245,0,0,0,291.3,718.637c13.263,14.309,30.34,24.683,48.63,31.223a175.632,175.632,0,0,0,43.263,9.155c6.038-.755,12.029-1.582,17.963-2.445.035-.011.083-.011.119-.022.285-.043.571-.086.844-.117,1.224-.182,2.449-.363,3.662-.545l-.258.565-.812,1.754c.294-.588.588-1.165.882-1.753.086-.176.184-.353.27-.529a96.229,96.229,0,0,1-15.782-126.108c-1.241-.305-2.494-.539-3.76-.738a101.52,101.52,0,0,0-8.42,15.815,99.477,99.477,0,0,0-5.233,62.258,101.7,101.7,0,0,0,28.466,49.265c-1.162-.019-2.336-.05-3.486-.093-21.766-.666-43.641-4.156-63.809-12.636-17.034-7.147-32.677-18.15-44.349-32.552-12.79-15.772-19.1-35.233-21.085-55.252-2.116-21.433-.509-43.445,3.266-64.6a270.026,270.026,0,0,1,19.323-62.94,1.942,1.942,0,0,0-.908-2.518,1.651,1.651,0,0,0-1.242-.186,1.437,1.437,0,0,0-.9.863c-1.108,2.485-2.193,4.969-3.231,7.479a273.088,273.088,0,0,0-17.889,65.181C263.666,620.755,262.574,643.226,266,664.858Z" transform="translate(-145.374 -157.92)" fill="#fff"/>
    <path id="Path_22" data-name="Path 22" d="M713.41,246.1h-3.331V154.928a52.792,52.792,0,0,0-52.816-52.769H463.928a52.793,52.793,0,0,0-52.816,52.769V655.106a52.792,52.792,0,0,0,52.816,52.769H657.263a52.792,52.792,0,0,0,52.815-52.768V311h3.331Z" transform="translate(-211.589 -102.16)" fill="#0b2d61"/>
    <path id="Path_23" data-name="Path 23" d="M661.541,117.918H636.306a18.723,18.723,0,0,1-17.352,25.792H508.195a18.723,18.723,0,0,1-17.35-25.792h-23.57a39.424,39.424,0,0,0-39.443,39.406V656.753a39.424,39.424,0,0,0,39.443,39.406H661.541a39.424,39.424,0,0,0,39.442-39.406h0V157.323a39.424,39.424,0,0,0-39.442-39.4Z" transform="translate(-213.737 -104.182)" fill="#fff"/>
    <path id="Path_4660" data-name="Path 4660" d="M976.125,772.816c-14.01,10.093-32.167,10.6-49.717,9.36-2.451-.173-4.884-.376-7.295-.595-.015,0-.034,0-.048-.006-.116-.011-.232-.022-.343-.029l-1.488-.14.116.222.365.689c-.131-.231-.263-.457-.394-.687-.039-.069-.082-.138-.12-.208-4.546-7.912-9.056-16.114-10.206-25.148-1.189-9.377,2.152-19.995,10.405-24.6a16.654,16.654,0,0,1,3.417-1.431c.494-.15.994-.272,1.5-.379a17.85,17.85,0,0,1,20.759,23.2c7-7.175,5.692-18.814,3.278-28.542s-5.346-20.551-.427-29.288a19.313,19.313,0,0,1,12.938-9.1c.166-.036.331-.071.5-.1a26.051,26.051,0,0,1,18.716,3.279c10.317,6.5,15.617,18.829,17.336,30.9C998.187,739.653,992.05,761.34,976.125,772.816Z" transform="translate(-327.801 -177.577)" fill="#f2f2f2"/>
    <path id="Path_4661" data-name="Path 4661" d="M973.138,741.741a44.284,44.284,0,0,1-3.056,12.479,38.451,38.451,0,0,1-5.97,9.752,49.27,49.27,0,0,1-18.925,13.646,70.911,70.911,0,0,1-17.242,4.633c-2.451-.173-4.884-.376-7.295-.595-.015,0-.034,0-.048-.006-.116-.011-.232-.022-.343-.029l-1.488-.14.116.222.365.69c-.131-.231-.263-.457-.394-.687-.039-.069-.082-.138-.12-.208a38.851,38.851,0,0,0,3.617-51.183c.494-.15.994-.272,1.5-.379a40.987,40.987,0,0,1,3.739,6.193,40.161,40.161,0,0,1,3.465,24.985,41.06,41.06,0,0,1-10.4,20.48c.468-.033.941-.071,1.4-.113A72,72,0,0,0,947.507,775a45.833,45.833,0,0,0,17.17-14.089c4.812-6.637,6.933-14.62,7.3-22.734a95.937,95.937,0,0,0-2.723-25.973,109.017,109.017,0,0,0-9.16-24.953.784.784,0,0,1,.311-1.035.667.667,0,0,1,.5-.1.58.58,0,0,1,.383.328c.5.978.992,1.956,1.465,2.945a110.252,110.252,0,0,1,8.631,25.888A88.746,88.746,0,0,1,973.138,741.741Z" transform="translate(-329.339 -177.652)" fill="#fff"/>
    <path id="Path_4663" data-name="Path 4663" d="M637.291,678.227H626.605l-5.084-41.218h15.772Z" transform="translate(-72.842 -82.304)" fill="#ffb8b8"/>
    <path id="Path_4664" data-name="Path 4664" d="M616.685,680.793h20.609v12.976H603.71A12.976,12.976,0,0,1,616.685,680.793Z" transform="translate(-70.46 -87.924)" fill="#01183a"/>
    <path id="Path_4665" data-name="Path 4665" d="M683.291,678.227H672.605l-5.084-41.218h15.772Z" transform="translate(-78.747 -82.304)" fill="#ffb8b8"/>
    <path id="Path_4666" data-name="Path 4666" d="M662.685,680.793h20.609v12.976H649.71A12.976,12.976,0,0,1,662.685,680.793Z" transform="translate(-76.46 -87.924)" fill="#01183a"/>
    <path id="Path_4667" data-name="Path 4667" d="M873.315,628.816a9.364,9.364,0,0,1-1.8-14.245l-7.036-99.853,20.268,1.966.557,97.787a9.415,9.415,0,0,1-11.991,14.346Z" transform="translate(-270.076 -155.509)" fill="#ffb8b8"/>
    <path id="Path_4668" data-name="Path 4668" d="M827.131,743.868l-11.764-.561a3.921,3.921,0,0,1-3.736-3.89l-.821-119.029a3.923,3.923,0,0,1,4.486-3.91l47.063,6.832a3.9,3.9,0,0,1,3.359,3.853l6.053,110.293a3.923,3.923,0,0,1-3.922,3.952H855.166a3.9,3.9,0,0,1-3.875-3.313l-7.825-49.742a3.051,3.051,0,0,0-6.043.112l-6.212,51.952a3.937,3.937,0,0,1-3.9,3.457Q827.225,743.873,827.131,743.868Z" transform="translate(-263.187 -168.71)" fill="#01183a"/>
    <path id="Path_4669" data-name="Path 4669" d="M835.222,610.929c-10.372-5.763-18.476-7.277-22.384-7.667a3.851,3.851,0,0,1-2.662-1.458,3.9,3.9,0,0,1-.812-2.965l11.277-83.722a28.955,28.955,0,0,1,16.878-22.625,28.159,28.159,0,0,1,27.366,2.145q.58.386,1.138.787a28.919,28.919,0,0,1,11.014,30.135c-6.915,28.289-9.291,74.667-9.7,83.677a3.892,3.892,0,0,1-2.544,3.491,39.3,39.3,0,0,1-13.271,2.363,33.231,33.231,0,0,1-16.3-4.162Z" transform="translate(-262.996 -152.31)" fill="#0b2d61"/>
    <path id="Path_4670" data-name="Path 4670" d="M869.285,547.131a3.906,3.906,0,0,1-1.62-2.964l-1.485-26.913a10.807,10.807,0,0,1,21.221-3.423l6.524,24.062a3.927,3.927,0,0,1-2.759,4.812l-18.558,5.032A3.907,3.907,0,0,1,869.285,547.131Z" transform="translate(-270.292 -154.313)" fill="#0b2d61"/>
    <circle id="Ellipse_478" data-name="Ellipse 478" cx="21.408" cy="21.408" r="21.408" transform="translate(560.25 286.101)" fill="#ffb8b8"/>
    <path id="Path_4671" data-name="Path 4671" d="M795.434,544.623a10.8,10.8,0,0,1-6.693-2.307l-36.424-28.735a8.927,8.927,0,0,1-.9.266,9.607,9.607,0,0,1-7.686-1.474,9.589,9.589,0,1,1,14.826-10.054h0a9.258,9.258,0,0,1,.2,1.266l37.028,21.362L805,519.641,815.2,533.005,801.7,542.631A10.786,10.786,0,0,1,795.434,544.623Z" transform="translate(-253.941 -152.905)" fill="#ffb8b8"/>
    <path id="Path_4672" data-name="Path 4672" d="M805.581,524.095a3.907,3.907,0,0,1,1.127-3.184l19.057-19.061a10.807,10.807,0,0,1,16.708,13.525L828.9,536.286a3.927,3.927,0,0,1-5.426,1.155l-16.129-10.467A3.907,3.907,0,0,1,805.581,524.095Z" transform="translate(-262.513 -153.385)" fill="#0b2d61"/>
    <path id="Path_4673" data-name="Path 4673" d="M851.762,471a3.464,3.464,0,0,0,4.96.285,38.724,38.724,0,0,0,11.046-14.425c2.783-6.634,3.191-14.73.023-20.948-2.678-5.257-7.484-8.6-12.283-11.338a20.042,20.042,0,0,0-5.969-2.523,7.839,7.839,0,0,0-6.236,1.226,6.576,6.576,0,0,0-2.508,6.3,19.485,19.485,0,0,0-8.544-6.412,9.906,9.906,0,0,0-6.584-.441c-3.082,1.029-5.363,4.141-6.632,7.484a16.683,16.683,0,0,0-1.094,8.075,9.7,9.7,0,0,0,3.721,6.687c2.514,1.734,5.752,1.558,8.676.791s5.761-2.069,8.735-2.432,6.271.424,8.043,3.077c1.248,1.868,1.542,4.329,1.8,6.675l1.324,12.2a16.163,16.163,0,0,0,1.114,5.09A2.832,2.832,0,0,0,851.762,471Z" transform="translate(-264.088 -143.466)" fill="#1e1e1e"/>
    <g id="Group_638" data-name="Group 638" transform="translate(248.942 411.609)">
      <path id="Path_4674" data-name="Path 4674" d="M467.814,574.842h29.534v5.78h-23.54V598.1h21.26v5.707h-21.26v22.114h-5.993Z" transform="translate(-467.814 -574.842)" fill="#0b2d61"/>
      <path id="Path_4675" data-name="Path 4675" d="M509.881,574.842h6.061v51.075h-6.061Z" transform="translate(-473.214 -574.842)" fill="#0b2d61"/>
      <path id="Path_4676" data-name="Path 4676" d="M530.282,625.368q-3.463-3.85-3.46-10.773V591.7h6.061v21.973q0,5.207,2.353,7.633a8.43,8.43,0,0,0,6.347,2.427,9.382,9.382,0,0,0,5.454-1.64,11.117,11.117,0,0,0,3.707-4.28,12.245,12.245,0,0,0,1.32-5.566V591.7h6.066v36.381h-5.78V622.8h-.286a12.014,12.014,0,0,1-4.78,4.567,14,14,0,0,1-6.993,1.854Q533.746,629.221,530.282,625.368Z" transform="translate(-475.388 -577.006)" fill="#0b2d61"/>
      <path id="Path_4677" data-name="Path 4677" d="M582.984,626.983a9.32,9.32,0,0,1-3.174-1.96,8.924,8.924,0,0,1-2.14-3.2,12.115,12.115,0,0,1-.714-4.432V595.68H570.61v-5.493h6.348V579.914h6.061v10.273h8.847v5.493h-8.847v20.271a7.322,7.322,0,0,0,1.14,4.522,4.845,4.845,0,0,0,3.926,1.607,7.375,7.375,0,0,0,3.994-1.213v5.92a9.289,9.289,0,0,1-2.174.713,15.446,15.446,0,0,1-2.82.213,11.461,11.461,0,0,1-4.1-.731Z" transform="translate(-481.009 -575.493)" fill="#0b2d61"/>
      <path id="Path_4678" data-name="Path 4678" d="M612.524,626.983a9.318,9.318,0,0,1-3.174-1.96,8.923,8.923,0,0,1-2.14-3.2,12.113,12.113,0,0,1-.713-4.432V595.68H600.15v-5.493H606.5V579.914h6.061v10.273H621.4v5.493h-8.846v20.271a7.323,7.323,0,0,0,1.14,4.522,4.846,4.846,0,0,0,3.926,1.606,7.375,7.375,0,0,0,3.994-1.213v5.92a9.292,9.292,0,0,1-2.174.713,15.452,15.452,0,0,1-2.82.213,11.507,11.507,0,0,1-4.1-.731Z" transform="translate(-484.801 -575.493)" fill="#0b2d61"/>
      <path id="Path_4679" data-name="Path 4679" d="M637.735,626.553a17.321,17.321,0,0,1-6.454-6.881,20.834,20.834,0,0,1-2.32-9.88,21.7,21.7,0,0,1,2.174-9.7,17.55,17.55,0,0,1,6.173-7.061,16.438,16.438,0,0,1,9.274-2.64,17.515,17.515,0,0,1,9.274,2.387,15.856,15.856,0,0,1,6.027,6.6,21.244,21.244,0,0,1,2.106,9.633,7.185,7.185,0,0,1-.213,1.854H635.027a14.361,14.361,0,0,0,2,6.993,11.619,11.619,0,0,0,4.527,4.28,12.255,12.255,0,0,0,5.741,1.427q6.993,0,10.773-6.561l5.134,2.5a18.288,18.288,0,0,1-6.386,6.993,19.192,19.192,0,0,1-19.081.056Zm19.828-20.687a11.772,11.772,0,0,0-1.286-4.567,9.8,9.8,0,0,0-3.6-3.853,11.278,11.278,0,0,0-6.173-1.567,10.248,10.248,0,0,0-7.24,2.747,13.228,13.228,0,0,0-3.887,7.24Z" transform="translate(-488.498 -576.837)" fill="#0b2d61"/>
      <path id="Path_4680" data-name="Path 4680" d="M677.24,591.531h5.78v5.847h.287a9.893,9.893,0,0,1,4.14-4.993,11.6,11.6,0,0,1,6.42-2,10.608,10.608,0,0,1,4.28.786v6.493a11.363,11.363,0,0,0-5.134-1.14,8.479,8.479,0,0,0-4.853,1.5,10.843,10.843,0,0,0-3.533,4.039,11.658,11.658,0,0,0-1.32,5.471v20.378h-6.061V591.531Z" transform="translate(-494.696 -576.837)" fill="#0b2d61"/>
    </g>
    <path id="Path_4681" data-name="Path 4681" d="M412.253,337.858,491.619,417.6l-74.961-.872-27.893-27.893Z" transform="translate(-42.731 -43.668)" fill="#01579b"/>
    <path id="Path_4682" data-name="Path 4682" d="M444.422,371.716,388.765,390.37l34.052-40.537Z" transform="translate(-42.705 -45.194)" fill="url(#linear-gradient)"/>
    <path id="Path_4683" data-name="Path 4683" d="M477.29,149.89,318.625,308.572l-37.35-37.341L402.625,149.89Z" transform="translate(-28.881 -19.397)" fill="#54c5f8"/>
    <path id="Path_4684" data-name="Path 4684" d="M345.265,344.213l65.373-65.373H485.6L382.746,380.822Z" transform="translate(-37.128 -36.051)" fill="#54c5f8"/>
    <path id="Path_4685" data-name="Path 4685" d="M382.893,310.52l37.349,37.332-37,37.473-37.481-36.609Z" transform="translate(-37.158 -40.132)" fill="#29b6f6"/>
  </g>
</svg>
