<svg xmlns="http://www.w3.org/2000/svg" width="610.859" height="571.685" viewBox="0 0 610.859 571.685">
  <g id="Hire_" data-name="Hire " transform="translate(-0.001)">
    <path id="Path_2938" data-name="Path 2938" d="M892.676,552.654l-307.6,103.8a15.269,15.269,0,0,1-19.325-9.547L423.262,225.968a15.234,15.234,0,0,1,9.562-19.295l307.6-103.8a15.269,15.269,0,0,1,19.325,9.547l142.486,420.94a15.234,15.234,0,0,1-9.562,19.295Z" transform="translate(-292.18 -102.071)" fill="#e6e6e6"/>
    <path id="Path_2939" data-name="Path 2939" d="M887.218,547.263,588.983,647.9a10.317,10.317,0,0,1-13.057-6.45l-139.32-411.56a10.293,10.293,0,0,1,6.461-13.036L741.3,116.216a10.317,10.317,0,0,1,13.057,6.45l139.32,411.56A10.292,10.292,0,0,1,887.218,547.263Z" transform="translate(-294.573 -104.464)" fill="#fff"/>
    <path id="Path_2940" data-name="Path 2940" d="M819.98,694.94h-324.7a15.263,15.263,0,0,1-15.246-15.246V234.678a15.263,15.263,0,0,1,15.246-15.246h324.7a15.263,15.263,0,0,1,15.246,15.246V679.694A15.263,15.263,0,0,1,819.98,694.94Z" transform="translate(-302.271 -123.569)" fill="#ccc"/>
    <path id="Path_2941" data-name="Path 2941" d="M817.146,687.161H502.338a10.313,10.313,0,0,1-10.3-10.3V241.733a10.313,10.313,0,0,1,10.3-10.3H817.146a10.313,10.313,0,0,1,10.3,10.3V676.86a10.313,10.313,0,0,1-10.3,10.3Z" transform="translate(-304.419 -125.68)" fill="#fff"/>
    <path id="Path_2942" data-name="Path 2942" d="M759.371,378.39H551.447a6.6,6.6,0,1,1,0-13.209H759.371a6.6,6.6,0,1,1,0,13.209Z" transform="translate(-300.236 -81.84)" fill="#ccc"/>
    <path id="Path_2943" data-name="Path 2943" d="M786.614,405.437H551.447a6.6,6.6,0,0,1,0-13.209H786.614a6.6,6.6,0,0,1,0,13.209Z" transform="translate(-313.605 -86.632)" fill="#ccc"/>
    <path id="Path_2944" data-name="Path 2944" d="M759.371,499.6H551.447a6.6,6.6,0,0,1,0-13.209H759.371a6.6,6.6,0,0,1,0,13.209Z" transform="translate(-300.236 -103.314)" fill="#0b2d61"/>
    <path id="Path_2945" data-name="Path 2945" d="M786.614,526.651H551.447a6.6,6.6,0,0,1,0-13.209H786.614a6.6,6.6,0,0,1,0,13.209Z" transform="translate(-313.605 -108.105)" fill="#ccc"/>
    <path id="Path_2946" data-name="Path 2946" d="M759.371,620.816H551.447a6.6,6.6,0,0,1,0-13.209H759.371a6.6,6.6,0,0,1,0,13.209Z" transform="translate(-300.236 -124.787)" fill="#ccc"/>
    <path id="Path_2947" data-name="Path 2947" d="M786.614,647.864H551.447a6.6,6.6,0,1,1,0-13.209H786.614a6.6,6.6,0,0,1,0,13.209Z" transform="translate(-313.605 -129.579)" fill="#ccc"/>
    <path id="Path_2948" data-name="Path 2948" d="M387.882,461.615h-47.8a3.713,3.713,0,0,1-3.708-3.708V437.3a27.607,27.607,0,0,1,55.215,0v20.6a3.713,3.713,0,0,1-3.708,3.708Z" transform="translate(-276.937 -156.596)" fill="#444"/>
    <path id="Path_2949" data-name="Path 2949" d="M481.447,596.3a8.287,8.287,0,0,1-7.639-10.155L448.9,570.435l13.941-6.311,21.516,15.886a8.332,8.332,0,0,1-2.91,16.29Z" transform="translate(-296.747 -183.945)" fill="#ffb8b8"/>
    <path id="Path_2950" data-name="Path 2950" d="M450.289,569.944a4.445,4.445,0,0,1-2.324-.922L379.44,515.908l-8.835-15.713a8.717,8.717,0,0,1,.765-9.716h0a8.748,8.748,0,0,1,12.8-1l76.378,61.948a4.477,4.477,0,0,1,1.145,6.3l-7.323,10.34a4.443,4.443,0,0,1-3,1.843,4.564,4.564,0,0,1-1.082.031Z" transform="translate(-282.766 -170.359)" fill="#01183a"/>
    <path id="Path_2951" data-name="Path 2951" d="M77.194,662.364l9.366,3.79,19.074-34.321-13.823-5.593Z" transform="translate(-71.131 -111.01)" fill="#ffb8b8"/>
    <path id="Path_2952" data-name="Path 2952" d="M269.132,767.259l18.444,7.463h0a12.68,12.68,0,0,1,7,16.51l-.155.382-30.2-12.22Z" transform="translate(-264.221 -219.93)" fill="#01183a"/>
    <path id="Path_2953" data-name="Path 2953" d="M209.619,674.543h10.1l4.807-38.97H209.617Z" transform="translate(-94.457 -112.652)" fill="#ffb8b8"/>
    <path id="Path_2954" data-name="Path 2954" d="M400.876,780.927h19.9a12.68,12.68,0,0,1,12.68,12.68v.412H400.876Z" transform="translate(-288.291 -222.334)" fill="#01183a"/>
    <path id="Path_2955" data-name="Path 2955" d="M390.055,723.188a23.963,23.963,0,0,1-10.119-2.724,4.094,4.094,0,0,1-2.2-2.877l-21.3-107.369L301.191,713.587a4.111,4.111,0,0,1-2.332,1.966c-11.9,3.976-18.389-2.28-20.627-5.153a4.048,4.048,0,0,1-.46-4.2l25.587-55.587,15.471-52.8,15.638-38.643.341.036,52.293,5.5,6.359,34.971,6.4,116.441a4.046,4.046,0,0,1-.749,2.6,10.658,10.658,0,0,1-9.063,4.46Z" transform="translate(-266.537 -183.328)" fill="#01183a"/>
    <ellipse id="Ellipse_164" data-name="Ellipse 164" cx="20.241" cy="20.241" rx="20.241" ry="20.241" transform="translate(73.617 264.214)" fill="#ffb8b8"/>
    <path id="Path_2956" data-name="Path 2956" d="M379.7,566.82c-8.812,0-19.715-5.158-32.52-15.4l-.218-.175,9.053-71.42.423-.016c12.949-.468,23.487,2.82,32.212,10.076l.075.078,7.074,9.1,0,.166,1,55.865-.025.079a17.781,17.781,0,0,1-11.361,10.843,19.724,19.724,0,0,1-5.713.81Z" transform="translate(-278.8 -169.053)" fill="#0b2d61"/>
    <path id="Path_2957" data-name="Path 2957" d="M388.026,600.108a4.5,4.5,0,0,1-4.338-3.336l-12.428-47.048-7.873,42.864a4.474,4.474,0,0,1-5.028,3.63l-34.283-4.784a4.482,4.482,0,0,1-3.625-5.879l17.341-51.112L333.911,504.5a22.424,22.424,0,0,1,21.3-25.287l.348-.014,16.49,39.768,2.623-10.49,4.1-22.58.613.355a36.484,36.484,0,0,1,18.224,33.258l-1.04,23.915,9.213,48.828a4.49,4.49,0,0,1-3.566,5.234l-13.362,2.545a4.424,4.424,0,0,1-.835.078Z" transform="translate(-274.092 -168.993)" fill="#01183a"/>
    <path id="Path_2958" data-name="Path 2958" d="M401.1,440.947H371.871l-.3-4.2-1.5,4.2h-4.5l-.594-8.317-2.97,8.317H353.3v-.412A21.863,21.863,0,0,1,375.14,418.7h4.121A21.864,21.864,0,0,1,401.1,440.535Z" transform="translate(-279.916 -158.169)" fill="#444"/>
    <path id="Path_2960" data-name="Path 2960" d="M387.537,594.917a9.222,9.222,0,0,0,10.524,9.139,15.527,15.527,0,0,0,14.234,9.324h0a15.526,15.526,0,0,0,15.526-15.526V584.4c0-3.463-2.807-4.621-6.27-4.621H403.038c-3.462,0-6.27,1.159-6.27,4.621v1.284A9.242,9.242,0,0,0,387.537,594.917Zm2.518,0a6.722,6.722,0,0,1,6.714-6.714v9.651a15.553,15.553,0,0,0,.46,3.753c-.153.01-.3.023-.46.023a6.722,6.722,0,0,1-6.714-6.714Z" transform="translate(-285.943 -186.721)" fill="#0b2d61"/>
    <path id="Path_2961" data-name="Path 2961" d="M388.639,591.451a8.287,8.287,0,0,0-12.418-2.7l-24.684-16.061.094,15.3L375.057,600.9a8.332,8.332,0,0,0,13.582-9.453Z" transform="translate(-279.605 -185.463)" fill="#ffb8b8"/>
    <path id="Path_2962" data-name="Path 2962" d="M356.334,585.554a3.71,3.71,0,0,1-2.622-1.086L322.28,553.036a8.312,8.312,0,0,1-2.239-7.773c2.69-11.762,9.247-39.867,12.015-46.787a24.456,24.456,0,0,1,10.6-12.344l.124-.062,9.951,1.839L353.6,518.6l-12.02,25.758,25.559,24.127a3.7,3.7,0,0,1,.386,4.968l-8.263,10.663a3.711,3.711,0,0,1-2.7,1.43C356.489,585.552,356.411,585.554,356.334,585.554Z" transform="translate(-274.022 -170.186)" fill="#01183a"/>
    <ellipse id="Ellipse_165" data-name="Ellipse 165" cx="11.537" cy="1.648" rx="11.537" ry="1.648" transform="translate(114.778 394.039)" fill="#2f2e41"/>
    <g id="Ellipse_166" data-name="Ellipse 166" transform="translate(296.968 131.455)" fill="#fff" stroke="#ccc" stroke-width="8">
      <ellipse cx="57.929" cy="57.929" rx="57.929" ry="57.929" stroke="none"/>
      <ellipse cx="57.929" cy="57.929" rx="53.929" ry="53.929" fill="none"/>
    </g>
    <g id="Group_611" data-name="Group 611" transform="translate(318.134 156.316)">
      <g id="Group_612" data-name="Group 612" transform="translate(0)">
        <g id="Group_611-2" data-name="Group 611">
          <path id="Path_2963" data-name="Path 2963" d="M61.506,46.582a35.891,35.891,0,0,0-13.691-8.588,20.83,20.83,0,1,0-23.571,0A36.086,36.086,0,0,0,0,72.059H5.63a30.4,30.4,0,0,1,60.8,0h5.63A35.8,35.8,0,0,0,61.506,46.582ZM36.029,36.029a15.2,15.2,0,1,1,15.2-15.2A15.217,15.217,0,0,1,36.029,36.029Z" transform="translate(0)" fill="#ccc"/>
        </g>
      </g>
    </g>
  </g>
</svg>
