<?xml version="1.0" encoding="utf-8"?>
<!-- Generator: Adobe Illustrator 23.0.5, SVG Export Plug-In . SVG Version: 6.00 Build 0)  -->
<svg version="1.1" id="Layer_1" xmlns="http://www.w3.org/2000/svg" xmlns:xlink="http://www.w3.org/1999/xlink" x="0px" y="0px"
	 viewBox="0 0 895.3 189.9" style="enable-background:new 0 0 895.3 189.9;" xml:space="preserve">
<style type="text/css">
	.st0{fill:#022D62;}
	.st1{fill:#EC2B30;}
	.st2{display:none;}
	.st3{display:inline;fill:#E42527;}
	.st4{fill:#EE3139;}
	.st5{fill:#FFFFFF;}
</style>
<g>
	<title>company-logo</title>
	<g>
		<g>
			<rect x="652.5" y="21.7" class="st0" width="12" height="12"/>
			<rect x="688.3" y="30.7" class="st0" width="12" height="12"/>
			<rect x="633.9" y="30.7" class="st0" width="12" height="12"/>
			<rect x="614.3" class="st0" width="12" height="12"/>
			<rect x="595.6" y="30.7" class="st0" width="12" height="12"/>
			<rect x="576.2" class="st0" width="12" height="12"/>
			<rect x="558.1" y="21.7" class="st0" width="12" height="12"/>
			<rect x="539.5" y="30.7" class="st0" width="12" height="12"/>
		</g>
		<g>
			<rect x="539.5" y="13.1" class="st1" width="12" height="12"/>
			<rect x="595.6" y="12.5" class="st1" width="12" height="12"/>
			<rect x="576.2" y="21.7" class="st1" width="12" height="12"/>
			<rect x="614.3" y="21.7" class="st1" width="12" height="12"/>
			<rect x="633.9" y="12.5" class="st1" width="12" height="12"/>
			<rect x="670.1" y="21.7" class="st1" width="12" height="12"/>
			<rect x="688.3" y="13.1" class="st1" width="12" height="12"/>
		</g>
		<g>
			<path class="st0" d="M248.4,63.2h-9.6c-4.5,0-9.2,0.2-14.1,0.5c-4.9,0.3-8.9,1.6-12,3.7c-2.6,1.7-4.4,4.3-5.1,7.4
				c-1.5,6.4-1.5,13.1,0,19.6c0.6,3,2.5,5.7,5.1,7.4c3.1,2.1,7.1,3.3,12,3.6c4.9,0.3,9.7,0.4,14.1,0.4h9.6c3.3,0,6.8,0,10.3,0.1
				c3.5,0.1,6.9,0.3,10.4,0.8c3.2,0.4,6.4,1.1,9.5,2.1c2.8,0.9,5.4,2.1,7.8,3.8c2.1,1.5,3.8,3.4,5.1,5.6c1.3,2.2,2.2,4.5,2.8,7
				c0.6,2.6,1,5.3,1.1,7.9c0.1,2.8,0.2,5.5,0.2,8.1c0,2.6-0.1,5.4-0.2,8.1c-0.1,2.7-0.5,5.3-1.1,7.9c-0.6,2.5-1.5,4.8-2.8,7
				c-1.3,2.2-3,4.1-5.1,5.6c-2.3,1.8-5,3.1-7.8,4c-3.1,1-6.3,1.6-9.5,2c-3.4,0.4-6.9,0.6-10.4,0.7c-3.5,0.1-6.9,0.1-10.3,0.1h-9.6
				c-3.3,0-6.8,0-10.3-0.1c-3.5-0.1-7-0.3-10.4-0.7c-3.2-0.4-6.4-1-9.6-2c-2.8-0.8-5.4-2.2-7.7-4c-1.9-1.5-3.5-3.4-4.6-5.6
				c-1.4-2.8-2.1-6-2-9.1h16.7c0.9,1.9,2.5,3.4,4.4,4.3c2.1,1,4.4,1.7,6.8,2.1c2.7,0.4,5.4,0.6,8.1,0.7c2.9,0.1,5.7,0.1,8.5,0.1h9.6
				c4.7,0,9.4-0.2,14.2-0.5c4.2-0.1,8.3-1.4,11.9-3.7c2.6-1.7,4.5-4.3,5.2-7.4c1.6-6.4,1.6-13.1,0-19.5c-0.7-3-2.6-5.7-5.2-7.4
				c-3.1-2.1-7-3.3-11.9-3.6c-4.8-0.3-9.6-0.4-14.2-0.4h-9.6c-3.3,0-6.8,0-10.3-0.1c-3.5-0.1-6.9-0.3-10.4-0.8
				c-3.2-0.4-6.4-1.1-9.6-2.1c-2.8-0.8-5.3-2.1-7.7-3.8c-2.1-1.5-3.8-3.4-5-5.7c-1.2-2.2-2.1-4.6-2.7-7.1c-0.6-2.6-1-5.3-1.1-8
				c-0.1-2.8-0.2-5.5-0.2-8.1c0-2.6,0.1-5.4,0.2-8.1c0.1-2.7,0.5-5.3,1.1-7.9c0.6-2.5,1.5-4.8,2.7-7.1c1.2-2.2,2.9-4.2,5-5.7
				c2.3-1.8,4.9-3.2,7.7-4c3.1-1,6.3-1.6,9.6-2c3.4-0.4,6.8-0.6,10.4-0.7c3.5-0.1,6.9-0.1,10.3-0.1h9.6c3.3,0,6.7,0,10.3,0.1
				c3.5,0.1,7,0.3,10.4,0.7c3.2,0.4,6.4,1,9.5,2c2.8,0.9,5.4,2.2,7.8,4c2.1,1.6,3.8,3.7,5,6.2c1.5,2.8,2.2,5.8,2.2,8.9h-16.5
				c-0.8-1.9-2.3-3.4-4.2-4.4c-2.2-1.1-4.6-1.9-7-2.3c-2.8-0.5-5.7-0.7-8.6-0.8C254.1,63.2,251.2,63.2,248.4,63.2z"/>
			<path class="st0" d="M409.6,168.1c-2.1,2.1-4.7,3.8-7.5,5c-2.9,1.2-6,2.1-9.2,2.6c-3.3,0.5-6.7,0.8-10.1,0.9
				c-3.5,0.1-6.8,0.1-10,0.1h-9.3c-3.2,0-6.5,0-10-0.1c-3.4,0-6.7-0.3-10-0.9c-3.1-0.5-6.1-1.4-9.1-2.6c-5.6-2.3-10.1-6.7-12.5-12.3
				c-1.2-2.9-2.1-5.9-2.6-9c-0.5-3.3-0.8-6.5-0.9-9.8c-0.1-3.4-0.1-6.7-0.1-10s0-6.7,0.1-10c0.1-3.3,0.4-6.6,0.9-9.8
				c0.5-3.1,1.4-6.1,2.6-9c2.4-5.6,6.8-10,12.5-12.3c2.9-1.2,5.9-2.1,9.1-2.6c3.3-0.5,6.6-0.8,10-0.9c3.4-0.1,6.8-0.1,10-0.1h9.4
				c3.2,0,6.5,0,10,0.1c3.4,0.1,6.7,0.4,10.1,0.9c3.1,0.5,6.2,1.4,9.2,2.6c2.8,1.2,5.3,2.9,7.5,5c2.6,2.6,4.5,5.7,5.6,9.2
				c1.1,3.6,1.9,7.3,2.4,11l-14.9,1.6c-0.4-1.9-0.9-3.8-1.7-5.6c-0.7-1.7-1.9-3.3-3.3-4.6c-1.5-1.5-3.2-2.6-5.1-3.4
				c-2-0.8-4.1-1.4-6.2-1.8c-2.2-0.4-4.5-0.6-6.8-0.7c-2.3-0.1-4.5-0.1-6.7-0.1h-9.4c-2.3,0-4.5,0-6.8,0.1c-2.2,0.1-4.5,0.3-6.7,0.7
				c-2.1,0.4-4.2,1-6.2,1.8c-1.9,0.8-3.6,1.9-5.1,3.4c-2.9,3-4.7,6.8-5.1,11c-0.9,8.9-0.9,17.9,0,26.8c0.3,4.1,2.1,8,5.1,11
				c1.5,1.4,3.2,2.6,5.1,3.4c2,0.8,4.1,1.4,6.2,1.8c2.2,0.4,4.4,0.6,6.7,0.7c2.3,0.1,4.5,0.1,6.8,0.1h9.4c2.1,0,4.3,0,6.7-0.1
				c2.3-0.1,4.5-0.3,6.8-0.7c2.1-0.4,4.2-1,6.2-1.8c1.9-0.8,3.6-1.9,5.1-3.4c1.4-1.3,2.5-2.8,3.3-4.6c0.8-1.8,1.3-3.7,1.7-5.6
				l14.9,1.6c-0.5,3.7-1.3,7.4-2.4,11C414.1,162.4,412.2,165.5,409.6,168.1z"/>
			<path class="st0" d="M506.4,176.7v-2.2c-4.1,1.1-8.3,1.7-12.5,1.9c-4.5,0.2-8.9,0.3-13.2,0.3h-7.6c-2.8,0-5.7,0-8.8-0.1
				s-6-0.3-9-0.6c-2.8-0.3-5.6-0.8-8.3-1.6c-2.4-0.6-4.6-1.7-6.7-3.1c-3.4-2.3-5.7-5.8-6.4-9.8c-0.8-4.1-1.2-8.4-1.2-12.6
				c0-2.1,0.1-4.3,0.2-6.4c0.1-2.1,0.5-4.2,1-6.2c0.5-1.9,1.3-3.8,2.3-5.5c1-1.7,2.4-3.2,4.1-4.4c2-1.4,4.3-2.4,6.7-3.1
				c2.7-0.8,5.5-1.3,8.3-1.6c2.9-0.3,5.9-0.5,9-0.6s6-0.1,8.8-0.1h7.6c4.3,0,8.6,0.1,13.2,0.3c4.2,0.2,8.4,0.8,12.5,1.9V121
				c0-2.9-0.2-5.8-0.7-8.7c-0.4-2.7-1.9-5.2-4.1-6.9c-2.8-2-6.1-3.1-9.6-3.3c-3.9-0.3-7.6-0.5-11.4-0.5h-7.6
				c-3.7,0-7.5,0.2-11.3,0.5c-3.4,0.2-6.7,1.3-9.6,3.3c-0.8,0.5-1.5,1.2-2,2c-0.6,0.8-1,1.7-1.4,2.6l-15.3-2.4
				c0.4-2.6,1.1-5.2,2.2-7.6c1.1-2.4,2.8-4.5,4.8-6.3c2-1.6,4.2-2.9,6.7-3.7c2.7-0.9,5.4-1.5,8.2-1.9c2.9-0.4,5.9-0.6,8.9-0.7
				c3-0.1,6-0.1,9-0.1h7.6c2.9,0,5.9,0,9,0.1c3,0.1,5.9,0.3,8.9,0.7c2.7,0.4,5.5,1,8.1,1.8c2.4,0.8,4.7,2,6.7,3.7
				c1.8,1.5,3.3,3.4,4.4,5.6c1.1,2.1,1.8,4.4,2.3,6.8c0.5,2.4,0.7,4.9,0.8,7.4c0.1,2.5,0.1,5,0.1,7.6v55.8L506.4,176.7z
				 M473.1,135.3c-3.6,0-7.3,0.1-11.3,0.2c-3.3,0-6.6,0.8-9.7,2.2c-1.8,1-3.2,2.7-3.8,4.7c-0.7,2.1-1,4.3-1,6.4c0,2.2,0.3,4.3,1,6.4
				c0.6,2,2,3.6,3.8,4.6c3,1.5,6.3,2.2,9.7,2.3c3.9,0.2,7.7,0.3,11.3,0.3h7.6c3.6,0,7.3-0.1,11.3-0.3c3.3-0.1,6.6-0.8,9.7-2.3
				c1.8-1,3.2-2.6,3.8-4.6c0.7-2.1,1-4.2,1-6.4c0-2.2-0.3-4.4-1-6.4c-0.6-2-2-3.7-3.8-4.7c-3-1.4-6.3-2.2-9.7-2.2
				c-3.9-0.1-7.7-0.2-11.3-0.2L473.1,135.3z"/>
			<path class="st0" d="M552.6,53.3v123.4H538V53.3H552.6z"/>
			<path class="st0" d="M652.8,153.8l15.3,4.2c-1,4.4-3.5,8.4-7,11.3c-2.2,1.9-4.7,3.3-7.5,4.3c-3,1-6,1.8-9.2,2.2
				c-3.3,0.5-6.7,0.7-10.1,0.8c-3.4,0.1-6.8,0.1-10,0.1h-9.2c-3.3,0-6.7,0-10.1-0.1c-3.4-0.1-6.7-0.4-10-0.9
				c-3.1-0.5-6.2-1.4-9.2-2.6c-5.6-2.3-10.1-6.7-12.4-12.3c-1.2-2.9-2.1-5.9-2.6-9c-0.5-3.2-0.8-6.5-0.9-9.8
				c-0.1-3.4-0.1-6.7-0.1-10c0-3.3,0-6.6,0.1-10c0.1-3.3,0.4-6.6,0.9-9.8c0.5-3.1,1.4-6.1,2.6-9c2.4-5.6,6.8-10,12.4-12.3
				c2.9-1.2,6-2.1,9.2-2.6c3.3-0.5,6.7-0.8,10-0.9c3.4-0.1,6.7-0.1,10.1-0.1h9.2c3.3,0,6.7,0,10.1,0.1c3.3,0.1,6.7,0.4,10,0.9
				c3.1,0.5,6.2,1.4,9.2,2.6c5.6,2.3,10.1,6.7,12.5,12.3c1.2,2.9,2.1,5.9,2.6,9c0.5,3.3,0.8,6.5,0.9,9.8c0.1,3.4,0.1,6.7,0.1,10v7.4
				h-85c0.1,3.2,0.6,6.3,1.4,9.4c0.7,2.9,2.3,5.5,4.4,7.7c1.4,1.4,3.2,2.6,5.1,3.4c2,0.8,4.1,1.4,6.2,1.8c2.2,0.4,4.5,0.6,6.8,0.7
				c2.3,0.1,4.6,0.1,6.9,0.1h9.2c2.8,0,5.6-0.1,8.6-0.2c2.7-0.1,5.5-0.4,8.2-1c2.4-0.5,4.7-1.4,6.9-2.6
				C650.1,157.5,651.7,155.8,652.8,153.8z M649.4,107.5c-3-3-7-4.8-11.3-5.2c-4.5-0.5-9.1-0.8-13.7-0.8h-9.2c-2.3,0-4.5,0-6.9,0.1
				c-2.3,0.1-4.5,0.3-6.8,0.7c-2.1,0.4-4.2,1-6.2,1.8c-1.9,0.8-3.6,1.9-5.1,3.4c-2.1,2.1-3.6,4.8-4.4,7.6c-0.8,3.1-1.3,6.2-1.4,9.4
				h70.5c-0.1-3.2-0.6-6.3-1.4-9.4C653,112.3,651.5,109.6,649.4,107.5L649.4,107.5z"/>
			<path class="st0" d="M701.5,53.3v123.4H687V53.3H701.5z"/>
			<path class="st0" d="M808.9,95.8c2.1,2.1,3.8,4.6,5,7.4c1.2,2.9,2.1,5.9,2.6,9c0.5,3.3,0.8,6.5,0.9,9.8c0.1,3.4,0.1,6.7,0.1,10
				c0,3.3,0,6.6-0.1,10c-0.1,3.3-0.4,6.6-0.9,9.8c-0.5,3.1-1.4,6.1-2.6,9c-2.4,5.6-6.9,10-12.5,12.3c-2.9,1.2-6,2.1-9.2,2.6
				c-3.3,0.5-6.6,0.8-10,0.9c-3.4,0.1-6.8,0.1-10.1,0.1H763c-3.3,0-6.7,0-10.1-0.1c-3.4-0.1-6.7-0.4-10-0.9
				c-3.2-0.5-6.2-1.4-9.2-2.6c-5.6-2.3-10.1-6.7-12.5-12.3c-1.2-2.9-2.1-5.9-2.6-9c-0.5-3.3-0.8-6.5-0.9-9.8
				c-0.1-3.4-0.1-6.7-0.1-10c0-3.3,0-6.6,0.1-10c0.1-3.3,0.4-6.6,0.9-9.8c0.5-3.1,1.4-6.1,2.6-9c2.4-5.6,6.9-10,12.5-12.3
				c2.9-1.2,6-2.1,9.2-2.6c3.3-0.5,6.7-0.8,10-0.9c3.4-0.1,6.7-0.1,10.1-0.1h9.2c3.3,0,6.7,0,10.1,0.1c3.3,0.1,6.7,0.4,10,0.9
				c3.1,0.5,6.2,1.4,9.2,2.6C804.2,92,806.8,93.7,808.9,95.8z M762.9,101.6c-2.3,0-4.5,0-6.9,0.1c-2.3,0.1-4.5,0.3-6.8,0.7
				c-2.1,0.4-4.2,1-6.2,1.8c-1.9,0.8-3.6,1.9-5.1,3.4c-2.9,3-4.7,6.8-5.1,11c-0.9,8.9-0.9,17.9,0,26.8c0.3,4.1,2.1,8,5.1,11
				c1.5,1.4,3.2,2.6,5.1,3.4c2,0.8,4.1,1.4,6.2,1.8c2.2,0.4,4.5,0.6,6.8,0.7c2.3,0.1,4.6,0.1,6.9,0.1h9.2c2.3,0,4.5,0,6.9-0.1
				c2.3-0.1,4.5-0.3,6.8-0.7c2.1-0.4,4.2-1,6.2-1.8c1.9-0.8,3.6-1.9,5.1-3.4c2.9-3,4.8-6.8,5.2-11c1.1-8.9,1.1-17.9,0-26.8
				c-0.4-4.2-2.2-8-5.2-11c-3-3-7-4.8-11.3-5.2c-4.5-0.5-9.1-0.8-13.6-0.8H762.9z"/>
			<path class="st0" d="M857.5,87.2v-34H872v34h23.3v14.3H872v75.1h-14.5v-75.1H834V87.2H857.5z"/>
		</g>
	</g>
	<g class="st2">
		<path class="st3" d="M594.9,164v4h-13.3v32h-4.1v-32h-13.2v-4H594.9z"/>
		<path class="st3" d="M624.6,193.5l4.3,1.2c-0.3,1.3-1,2.4-2,3.2c-0.6,0.5-1.3,0.9-2.1,1.2c-0.8,0.3-1.7,0.5-2.6,0.6
			c-0.9,0.1-1.9,0.2-2.8,0.2c-1,0-1.9,0-2.8,0H614c-0.9,0-1.9,0-2.8,0c-0.9,0-1.9-0.1-2.8-0.3c-0.9-0.1-1.7-0.4-2.6-0.7
			c-1.6-0.7-2.8-1.9-3.5-3.5c-0.3-0.8-0.6-1.7-0.7-2.5c-0.2-0.9-0.2-1.8-0.3-2.8c0-1,0-1.9,0-2.8c0-0.9,0-1.9,0-2.8
			c0-0.9,0.1-1.9,0.3-2.8c0.1-0.9,0.4-1.7,0.7-2.5c0.3-0.8,0.8-1.5,1.4-2.1c0.6-0.6,1.3-1.1,2.1-1.4c0.8-0.3,1.7-0.6,2.6-0.7
			c0.9-0.2,1.9-0.2,2.8-0.3h2.8h2.6h2.8c0.9,0,1.9,0.1,2.8,0.3c0.9,0.1,1.8,0.4,2.6,0.7c1.6,0.7,2.8,1.9,3.5,3.5
			c0.3,0.8,0.6,1.7,0.7,2.5c0.1,0.9,0.2,1.8,0.3,2.8c0,1,0,1.9,0,2.8v2.1h-23.8c0,0.9,0.2,1.8,0.4,2.7c0.2,0.8,0.6,1.6,1.2,2.1
			c0.4,0.4,0.9,0.8,1.4,1c0.6,0.2,1.1,0.4,1.7,0.5c0.6,0.1,1.3,0.2,1.9,0.2h1.9h2.6c0.8,0,1.6,0,2.4,0c0.8,0,1.5-0.1,2.3-0.3
			c0.7-0.1,1.3-0.4,1.9-0.7C623.9,194.6,624.3,194.1,624.6,193.5z M623.6,180.5c-0.9-0.8-2-1.4-3.2-1.5c-1.3-0.1-2.6-0.2-3.8-0.2
			H614h-1.9c-0.6,0-1.3,0.1-1.9,0.2c-0.6,0.1-1.2,0.3-1.7,0.5c-0.5,0.2-1,0.5-1.4,1c-0.6,0.6-1,1.3-1.2,2.1
			c-0.2,0.9-0.4,1.8-0.4,2.7h19.8c0-0.9-0.2-1.8-0.4-2.7C624.6,181.8,624.2,181.1,623.6,180.5L623.6,180.5z"/>
		<path class="st3" d="M659.6,197.6c-0.6,0.6-1.3,1.1-2.1,1.4c-0.8,0.3-1.7,0.6-2.6,0.7c-0.9,0.2-1.9,0.2-2.8,0.3c-1,0-1.9,0-2.8,0
			h-2.6c-0.9,0-1.8,0-2.8,0c-0.9,0-1.9-0.1-2.8-0.3c-0.9-0.1-1.7-0.4-2.5-0.7c-0.8-0.3-1.5-0.8-2.1-1.4c-0.6-0.6-1.1-1.3-1.4-2.1
			c-0.3-0.8-0.6-1.7-0.7-2.5c-0.2-0.9-0.2-1.8-0.3-2.8c0-1,0-1.9,0-2.8c0-0.9,0-1.9,0-2.8c0-0.9,0.1-1.9,0.3-2.8
			c0.1-0.9,0.4-1.7,0.7-2.5c0.3-0.8,0.8-1.5,1.4-2.1c0.6-0.6,1.3-1.1,2.1-1.4c0.8-0.3,1.7-0.6,2.5-0.7c0.9-0.2,1.9-0.2,2.8-0.3h2.8
			h2.6h2.8c0.9,0,1.9,0.1,2.8,0.3c0.9,0.1,1.7,0.4,2.6,0.7c0.8,0.3,1.5,0.8,2.1,1.4c0.7,0.7,1.3,1.6,1.6,2.6c0.3,1,0.5,2.1,0.7,3.1
			l-4.2,0.4c-0.1-0.5-0.3-1.1-0.5-1.6c-0.2-0.5-0.5-0.9-0.9-1.3c-0.4-0.4-0.9-0.7-1.4-1c-0.6-0.2-1.1-0.4-1.7-0.5
			c-0.6-0.1-1.3-0.2-1.9-0.2h-1.9h-2.6c-0.6,0-1.3,0-1.9,0c-0.6,0-1.3,0.1-1.9,0.2c-0.6,0.1-1.2,0.3-1.7,0.5c-0.5,0.2-1,0.5-1.4,1
			c-0.8,0.8-1.3,1.9-1.4,3.1c-0.3,2.5-0.3,5,0,7.6c0.1,1.2,0.6,2.3,1.4,3.1c0.4,0.4,0.9,0.8,1.4,1c0.6,0.2,1.1,0.4,1.7,0.5
			c0.6,0.1,1.2,0.2,1.9,0.2h1.9h2.6h1.9c0.6,0,1.3-0.1,1.9-0.2c0.6-0.1,1.2-0.3,1.7-0.5c0.5-0.2,1-0.6,1.4-1
			c0.4-0.4,0.7-0.8,0.9-1.3c0.2-0.5,0.4-1,0.5-1.6l4.2,0.5c-0.1,1-0.4,2.1-0.7,3.1C660.9,195.9,660.3,196.8,659.6,197.6z"/>
		<path class="st3" d="M678,174.8h1.8h2c0.7,0,1.3,0.1,2,0.2c0.6,0.1,1.2,0.3,1.8,0.6c0.6,0.3,1.1,0.6,1.5,1.1
			c0.4,0.5,0.8,1.1,1,1.7c0.2,0.7,0.4,1.4,0.5,2.1c0.1,0.8,0.2,1.5,0.2,2.3c0,0.8,0,1.6,0,2.3V200h-4.1v-14.8c0-0.9,0-1.9-0.1-2.8
			c0-0.8-0.3-1.7-0.8-2.4c-0.4-0.6-1.1-0.9-1.8-1c-0.7-0.1-1.5-0.2-2.2-0.2H678c-1.1,0-2.2,0-3.3,0.1c-1,0-1.9,0.4-2.7,1
			c-0.7,0.6-1.1,1.4-1.2,2.4c-0.1,0.9-0.2,1.9-0.2,2.9V200h-4.1v-34.8h4.1v10.4c1.1-0.4,2.4-0.7,3.6-0.7
			C675.5,174.8,676.8,174.8,678,174.8z"/>
		<path class="st3" d="M706.1,174.8h2.1c1.4,0,2.8,0.1,4.2,0.3c1.3,0.1,2.5,0.7,3.4,1.7c0.4,0.5,0.8,1.1,1,1.7
			c0.3,0.7,0.4,1.4,0.5,2.1c0.1,0.8,0.2,1.5,0.2,2.3c0,0.8,0,1.6,0,2.3V200h-4.1v-14.8c0-0.9,0-1.9-0.1-2.8c0-0.9-0.4-1.7-0.9-2.4
			c-0.5-0.6-1.2-0.9-1.9-1c-0.8-0.1-1.6-0.1-2.4-0.1H706c-1.2,0-2.4,0-3.7,0.1c-1.1,0-2.2,0.4-3.2,1c-0.8,0.6-1.3,1.4-1.4,2.3
			c-0.1,1-0.2,1.9-0.2,2.9V200h-4.1v-25.2h4.1v1c1.3-0.5,2.7-0.8,4.1-0.8C703.2,174.8,704.7,174.8,706.1,174.8z"/>
		<path class="st3" d="M747.6,177.2c0.6,0.6,1.1,1.3,1.4,2.1c0.3,0.8,0.6,1.7,0.7,2.5c0.1,0.9,0.2,1.8,0.3,2.8c0,1,0,1.9,0,2.8
			s0,1.9,0,2.8c0,0.9-0.1,1.9-0.3,2.8c-0.2,0.9-0.4,1.7-0.7,2.5c-0.7,1.6-1.9,2.8-3.5,3.5c-0.8,0.3-1.7,0.6-2.6,0.7
			c-0.9,0.2-1.9,0.2-2.8,0.3c-1,0-1.9,0-2.8,0h-2.5c-0.9,0-1.9,0-2.8,0c-0.9,0-1.9-0.1-2.8-0.3c-0.9-0.1-1.8-0.4-2.6-0.7
			c-0.8-0.3-1.5-0.8-2.1-1.4c-0.6-0.6-1.1-1.3-1.4-2.1c-0.3-0.8-0.6-1.7-0.7-2.5c-0.2-0.9-0.2-1.8-0.3-2.8c0-1,0-1.9,0-2.8
			c0-0.9,0-1.9,0-2.8c0-0.9,0.1-1.9,0.3-2.8c0.1-0.9,0.4-1.7,0.7-2.5c0.3-0.8,0.8-1.5,1.4-2.1c0.6-0.6,1.3-1.1,2.1-1.4
			c0.8-0.3,1.7-0.6,2.6-0.7c0.9-0.2,1.9-0.2,2.8-0.3h2.8h2.6h2.8c0.9,0,1.9,0.1,2.8,0.3c0.9,0.1,1.7,0.4,2.6,0.7
			C746.3,176.1,747,176.6,747.6,177.2z M734.7,178.8h-1.9c-0.6,0-1.3,0.1-1.9,0.2c-0.6,0.1-1.2,0.3-1.7,0.5c-0.5,0.2-1,0.5-1.4,1
			c-0.8,0.8-1.3,1.9-1.4,3.1c-0.3,2.5-0.3,5,0,7.6c0.1,1.2,0.6,2.3,1.4,3.1c0.4,0.4,0.9,0.8,1.4,1c0.6,0.2,1.1,0.4,1.7,0.5
			c0.6,0.1,1.3,0.2,1.9,0.2h1.9h2.6h1.9c0.6,0,1.3-0.1,1.9-0.2c0.6-0.1,1.2-0.3,1.7-0.5c0.5-0.2,1-0.6,1.4-1
			c0.8-0.8,1.3-1.9,1.5-3.1c0.3-2.5,0.3-5,0-7.6c-0.1-1.2-0.6-2.3-1.5-3.1c-0.9-0.8-2-1.4-3.2-1.5c-1.3-0.1-2.6-0.2-3.8-0.2
			L734.7,178.8z"/>
		<path class="st3" d="M758.8,165.2V200h-4.1v-34.8H758.8z"/>
		<path class="st3" d="M789,177.2c0.6,0.6,1.1,1.3,1.4,2.1c0.3,0.8,0.6,1.7,0.7,2.5c0.2,0.9,0.2,1.8,0.3,2.8c0,1,0,1.9,0,2.8
			s0,1.9,0,2.8c0,0.9-0.1,1.9-0.3,2.8c-0.1,0.9-0.4,1.7-0.7,2.5c-0.3,0.8-0.8,1.5-1.4,2.1c-0.6,0.6-1.3,1.1-2.1,1.4
			c-0.8,0.3-1.7,0.6-2.6,0.7c-0.9,0.2-1.9,0.2-2.8,0.3c-1,0-1.9,0-2.8,0H776c-0.9,0-1.9,0-2.8,0c-0.9,0-1.9-0.1-2.8-0.3
			c-0.9-0.1-1.8-0.4-2.6-0.7c-1.6-0.7-2.8-1.9-3.5-3.5c-0.3-0.8-0.6-1.7-0.7-2.5c-0.2-0.9-0.2-1.8-0.3-2.8c0-1,0-1.9,0-2.8
			c0-0.9,0-1.9,0-2.8c0-0.9,0.1-1.9,0.3-2.8c0.1-0.9,0.4-1.7,0.7-2.5c0.3-0.8,0.8-1.5,1.4-2.1c0.6-0.6,1.3-1.1,2.1-1.4
			c0.8-0.3,1.7-0.6,2.6-0.7c0.9-0.2,1.9-0.2,2.8-0.3h2.8h2.6h2.8c0.9,0,1.9,0.1,2.8,0.3c0.9,0.1,1.8,0.4,2.6,0.7
			C787.6,176.1,788.3,176.6,789,177.2z M776,178.8h-1.9c-0.6,0-1.3,0.1-1.9,0.2c-0.6,0.1-1.2,0.3-1.7,0.5c-0.5,0.2-1,0.5-1.4,1
			c-0.8,0.8-1.3,1.9-1.4,3.1c-0.3,2.5-0.3,5,0,7.6c0.1,1.2,0.6,2.3,1.4,3.1c0.4,0.4,0.9,0.8,1.4,1c0.6,0.2,1.1,0.4,1.7,0.5
			c0.6,0.1,1.3,0.2,1.9,0.2h1.9h2.6h1.9c0.6,0,1.3-0.1,1.9-0.2c0.6-0.1,1.2-0.3,1.7-0.5c0.5-0.2,1-0.6,1.4-1
			c0.8-0.8,1.3-1.9,1.5-3.1c0.3-2.5,0.3-5,0-7.6c-0.2-2.5-2.2-4.4-4.6-4.6c-1.3-0.1-2.6-0.2-3.8-0.2L776,178.8z"/>
		<path class="st3" d="M800,202.8c0.1,0.5,0.3,1,0.5,1.5c0.2,0.4,0.6,0.8,1,1.1c0.4,0.3,0.9,0.6,1.4,0.7c0.6,0.2,1.1,0.3,1.7,0.4
			c0.6,0.1,1.2,0.1,1.8,0.1h1.8h2.5c1.2,0,2.4,0,3.7-0.1c1.1,0,2.2-0.4,3.1-1.1c0.7-0.6,1.2-1.4,1.3-2.3c0.1-1,0.2-1.9,0.2-2.9v-1.3
			c-1.3,0.6-2.6,0.9-4,1c-1.5,0.1-2.9,0.1-4.3,0.1h-2.5c-0.9,0-1.8,0-2.8,0c-0.9,0-1.8-0.1-2.7-0.3c-0.9-0.1-1.7-0.4-2.5-0.7
			c-0.8-0.3-1.5-0.8-2.1-1.4c-0.6-0.6-1.1-1.3-1.4-2.1c-0.3-0.8-0.6-1.7-0.7-2.5c-0.2-0.9-0.2-1.8-0.3-2.8c0-1,0-1.9,0-2.8
			s0-1.8,0-2.8c0-0.9,0.1-1.9,0.3-2.8c0.1-0.9,0.4-1.7,0.7-2.5c0.3-0.8,0.8-1.5,1.4-2.1c0.6-0.6,1.3-1.1,2.1-1.4
			c0.8-0.3,1.6-0.6,2.5-0.7c0.9-0.2,1.8-0.2,2.7-0.3h2.8h2.5c1.4,0,2.9,0,4.3,0.1c1.4,0.1,2.7,0.4,4,1v-1.2h4.1v25.4
			c0,0.8,0,1.6,0,2.4c0,0.8-0.1,1.6-0.3,2.3c-0.1,0.7-0.4,1.4-0.7,2.1c-0.3,0.7-0.8,1.2-1.4,1.7c-0.6,0.5-1.3,0.9-2.1,1.1
			c-0.8,0.3-1.7,0.5-2.5,0.6c-0.9,0.1-1.8,0.2-2.7,0.2h-2.7h-2.5h-2.8c-0.9,0-1.8-0.1-2.7-0.2c-0.9-0.1-1.7-0.3-2.5-0.6
			c-0.8-0.2-1.5-0.6-2.1-1.1c-0.8-0.6-1.4-1.5-1.7-2.5c-0.3-1-0.5-2-0.6-3.1L800,202.8z M808.2,178.8c-1.2,0-2.5,0.1-3.7,0.2
			c-1.1,0.1-2.2,0.6-3,1.4c-0.8,0.8-1.3,2-1.4,3.1c-0.1,1.3-0.2,2.5-0.2,3.8c0,1.3,0.1,2.5,0.2,3.8c0.1,1.2,0.6,2.3,1.4,3.1
			c0.8,0.8,1.9,1.3,3,1.4c1.2,0.1,2.5,0.2,3.7,0.2h2.5c1.2,0,2.5-0.1,3.7-0.2c1.2-0.1,2.3-0.6,3.1-1.4c0.8-0.9,1.3-2,1.4-3.1
			c0.1-1.3,0.2-2.5,0.2-3.8c0-1.3-0.1-2.6-0.2-3.8c-0.1-1.2-0.6-2.3-1.4-3.1c-0.8-0.8-1.9-1.3-3.1-1.4c-1.2-0.1-2.5-0.2-3.7-0.2
			H808.2z"/>
		<path class="st3" d="M832.2,163.8c0.3,0.3,0.4,0.6,0.5,1c0,0.4,0.1,0.7,0.1,1.1c0,0.4,0,0.8-0.1,1.2c0,0.4-0.2,0.7-0.5,1
			c-0.3,0.2-0.6,0.4-1,0.4c-0.4,0-0.7,0.1-1.1,0.1c-0.4,0-0.7,0-1.1-0.1c-0.3,0-0.7-0.2-1-0.4c-0.3-0.3-0.4-0.6-0.5-1
			c0-0.4,0-0.8,0-1.2c0-0.4,0-0.7,0-1.1c0-0.4,0.2-0.7,0.5-1c0.3-0.3,0.6-0.4,1-0.4h1.1c0.4,0,0.8,0,1.1,0
			C831.6,163.4,832,163.5,832.2,163.8z M828.2,174.8h4.1V200h-4.1L828.2,174.8z"/>
		<path class="st3" d="M860.5,193.5l4.3,1.2c-0.3,1.3-1,2.4-2,3.2c-0.6,0.5-1.3,0.9-2.1,1.2c-0.8,0.3-1.7,0.5-2.6,0.6
			c-0.9,0.1-1.9,0.2-2.8,0.2c-1,0-1.9,0-2.8,0h-2.6c-0.9,0-1.9,0-2.8,0c-0.9,0-1.9-0.1-2.8-0.3c-0.9-0.1-1.7-0.4-2.5-0.7
			c-0.8-0.3-1.5-0.8-2.1-1.4c-0.6-0.6-1.1-1.3-1.4-2.1c-0.3-0.8-0.6-1.7-0.7-2.5c-0.2-0.9-0.2-1.8-0.3-2.8c0-1,0-1.9,0-2.8
			s0-1.9,0-2.8c0-0.9,0.1-1.9,0.3-2.8c0.1-0.9,0.4-1.7,0.7-2.5c0.7-1.6,1.9-2.8,3.5-3.5c0.8-0.3,1.7-0.6,2.6-0.7
			c0.9-0.2,1.9-0.2,2.8-0.3h2.8h2.6h2.8c0.9,0,1.9,0.1,2.8,0.3c0.9,0.1,1.8,0.4,2.6,0.7c1.6,0.7,2.8,1.9,3.5,3.5
			c0.3,0.8,0.6,1.7,0.7,2.5c0.2,0.9,0.2,1.8,0.3,2.8c0,1,0,1.9,0,2.8v2.1h-23.9c0,0.9,0.2,1.8,0.4,2.7c0.2,0.8,0.6,1.6,1.2,2.1
			c0.4,0.4,0.9,0.8,1.4,1c0.6,0.2,1.1,0.4,1.7,0.5c0.6,0.1,1.3,0.2,1.9,0.2h1.9h2.6c0.8,0,1.6,0,2.4,0c0.8,0,1.5-0.1,2.3-0.3
			c0.7-0.1,1.3-0.4,1.9-0.7C859.7,194.6,860.2,194.1,860.5,193.5z M859.5,180.5c-0.9-0.8-2-1.4-3.2-1.5c-1.3-0.1-2.6-0.2-3.8-0.2
			h-2.6H848c-0.6,0-1.3,0.1-1.9,0.2c-0.6,0.1-1.2,0.3-1.7,0.5c-0.5,0.2-1,0.5-1.4,1c-0.6,0.6-1,1.3-1.2,2.1
			c-0.2,0.9-0.4,1.8-0.4,2.7h19.8c0-0.9-0.2-1.8-0.4-2.7C860.5,181.8,860.1,181.1,859.5,180.5L859.5,180.5z"/>
		<path class="st3" d="M879.4,196h2.5c0.9,0,1.8,0,2.8-0.1c0.8,0,1.6-0.2,2.3-0.5c0.4-0.3,0.8-0.7,0.9-1.1c0.2-0.5,0.2-1,0.3-1.5
			c0-0.5-0.1-1-0.3-1.5c-0.2-0.5-0.5-0.9-0.9-1.1c-0.7-0.3-1.5-0.5-2.3-0.5c-1,0-1.9,0-2.8,0h-1.8h-2.3c-0.8,0-1.6-0.1-2.3-0.1
			c-0.7-0.1-1.4-0.2-2.1-0.4c-0.6-0.2-1.2-0.5-1.7-0.8c-0.9-0.6-1.5-1.6-1.7-2.6c-0.4-2.2-0.4-4.5,0-6.7c0.2-1.1,0.8-2,1.7-2.6
			c0.5-0.4,1.1-0.6,1.7-0.8c0.7-0.2,1.4-0.3,2.1-0.4c0.8-0.1,1.5-0.1,2.3-0.1h2.3h1.8h2.3c0.8,0,1.6,0.1,2.3,0.1
			c0.7,0.1,1.4,0.2,2.1,0.4c0.6,0.2,1.2,0.5,1.7,0.8c0.7,0.5,1.3,1.2,1.5,2.1l-4.4,1.5c-0.6-0.5-1.3-0.8-2.1-0.8
			c-1-0.1-1.9-0.1-2.8-0.1h-2.5c-0.9,0-1.8,0-2.8,0.1c-0.8,0-1.6,0.2-2.3,0.5c-0.4,0.3-0.8,0.7-0.9,1.1c-0.2,0.5-0.3,1-0.3,1.5
			c0,0.5,0.1,1,0.3,1.5c0.1,0.5,0.5,0.9,0.9,1.1c0.7,0.3,1.5,0.5,2.3,0.5c1,0.1,1.9,0.1,2.8,0.1h1.8h2.3c0.8,0,1.6,0.1,2.3,0.1
			c0.7,0.1,1.4,0.2,2.1,0.4c0.6,0.2,1.2,0.5,1.7,0.8c0.4,0.3,0.8,0.7,1.1,1.2c0.3,0.5,0.5,0.9,0.6,1.5c0.1,0.5,0.2,1.1,0.3,1.6
			c0,0.6,0.1,1.1,0.1,1.7c0,1.1-0.1,2.2-0.3,3.3c-0.2,1.1-0.8,2-1.7,2.6c-0.5,0.4-1.1,0.6-1.7,0.8c-0.7,0.2-1.4,0.3-2.1,0.4
			c-0.7,0.1-1.5,0.1-2.3,0.1s-1.6,0-2.3,0h-1.8c-0.7,0-1.5,0-2.3,0s-1.6-0.1-2.3-0.1c-0.7-0.1-1.4-0.2-2.1-0.4
			c-0.6-0.2-1.2-0.5-1.7-0.8c-0.3-0.2-0.5-0.4-0.8-0.7c-0.2-0.3-0.4-0.6-0.5-0.9l4.2-2c0.6,0.5,1.4,0.7,2.1,0.8
			C877.6,195.9,878.5,196,879.4,196z"/>
	</g>
	<g>
		<path class="st0" d="M48.7,36.8c3.7,0,7.2,0,10.7,0c0.3,0.1,0.6,0.3,0.8,0.5c1.2,2.1,2.4,4.2,3.5,6.3c0.2,0.6,0.8,1,1.5,0.9
			c24,0,47.9,0,71.9-0.1c2.8,0,5.6,0.6,8.1,1.7c7.3,3.1,13.1,9,15.9,16.5c0.2,0.6,0.2,0.8-0.4,1.1C149.8,69,139,74.1,128.2,79.3
			L86.7,99.1c-0.3,0.1-0.6,0.3-1,0.5c0.3,0.2,0.5,0.4,0.8,0.6c13.7,9.8,28.2,18.4,42.3,27.6c6.6,4.2,13.1,8.5,19.8,12.6
			c0.6,0.3,0.9,1,0.8,1.6c-0.9,9.9-5.1,18.4-11.7,25.7c-5.2,5.8-11.6,10.1-18.6,13.4c-0.6,0.3-0.8-0.1-0.9-0.5
			c-4.6-9.6-9.2-19.1-13.9-28.7c-18.3-38-36.6-76-54.9-114C49,37.6,48.9,37.2,48.7,36.8z"/>
		<path class="st0" d="M80.5,134c-2-1.3-3.8-2.6-5.7-3.8C55.7,119,36.6,107.8,17.6,96.6c-0.5-0.2-0.8-0.7-0.7-1.2
			c0.7-8.6,2.6-17,5.5-25c1.8-5,4.5-9.6,7.8-13.7c4.2-4.9,9.3-8.2,15.7-9.2c1.8-0.3,1.8-0.3,2.6,1.4C65.1,83.6,81.5,118.4,98,153.2
			c5.5,11.6,11,23.3,16.5,35c0.1,0.3,0.2,0.5,0.4,0.9l-6,0.5c-1.2,0.1-2.4,0.2-3.6,0.3c-0.5,0.1-0.9-0.1-1.1-0.6
			c-1.2-2.5-2.4-4.9-3.6-7.3c-0.2-0.5-0.6-0.8-1.1-0.7c-32,0-64,0-96.1,0c-0.8,0-1.6,0-2.4,0c-0.8,0.1-0.9-0.3-1.1-0.9
			c-0.2-1.9,0.6-3.7,2.2-4.7l77.4-41.3C79.9,134.3,80.1,134.2,80.5,134z"/>
		<path class="st4" d="M4.8,156.4c0.3-1.6,0.6-3.1,0.9-4.5c2.5-11.8,5-23.5,7.5-35.3c0.1-0.5,0.2-0.6,0.7-0.3
			c11.1,6.7,22.3,13.4,33.4,20.1c0.1,0.1,0.3,0.2,0.4,0.3L4.8,156.4z"/>
		<path class="st4" d="M159.6,82.4c-0.9,4.7-1.8,9.1-2.7,13.6c-1.6,8.3-3.2,16.5-4.8,24.8c-0.2,1.2-0.2,1.2-1.3,0.6l-31.6-17.9
			c-0.3-0.1-0.5-0.3-0.8-0.5L159.6,82.4z"/>
	</g>
</g>
<g>
	<path class="st5" d="M293.6,545.7c21,0,41.2,0,61.4,0c1.8,0.3,3.5,1.4,4.4,3c6.8,12,13.6,23.9,20,36.1c1.4,3.4,4.9,5.6,8.6,5.2
		c137.6,0,275.2,0,412.9-0.3c16.1-0.1,32,3.3,46.7,9.9c42.1,17.8,75,52,91.3,94.6c1.4,3.4,1.1,4.9-2.4,6.6
		c-62.2,29.6-124.3,59.3-186.4,89L511.8,903.5c-1.7,0.8-3.3,1.6-5.5,2.6c1.7,1.3,3,2.3,4.4,3.2c78.8,56,161.7,105.9,242.8,158.3
		c37.7,24.4,75.5,48.5,113.4,72.4c3.4,1.8,5.2,5.6,4.4,9.4c-5.4,57-29.4,105.5-67.5,147.4c-30.1,33.3-66.8,57.8-107,77.2
		c-3.7,1.8-4.4-0.4-5.3-2.6c-26.5-55-53.1-109.9-79.7-164.9C506.7,988.4,401.6,770.1,296.6,551.7
		C295.6,549.9,294.8,548.1,293.6,545.7z"/>
	<path class="st5" d="M476.2,1103.8c-11.3-7.4-21.8-15-32.9-21.5c-109.6-64.5-219.1-129-328.5-193.3c-2.8-1.1-4.4-3.9-4-6.8
		c3.9-49.1,14.7-97.5,31.9-143.7c10.5-28.7,25.7-55.4,45.1-79c23.9-28.1,53.3-47,90.1-53c10.5-1.8,10.5-1.9,15.1,7.8
		c94.6,200,189.2,400,283.7,600c31.6,66.9,63.2,133.8,94.7,200.8c0.7,1.5,1.4,3.1,2.3,5.1l-34.3,3c-6.8,0.6-13.7,1-20.6,1.8
		c-2.6,0.7-5.3-0.7-6.1-3.3c-6.8-14.1-13.9-27.9-20.7-42c-0.9-2.6-3.5-4.3-6.3-4.1c-183.9,0-367.9,0-551.8,0
		c-4.4,0-9.1-0.2-13.6,0.2c-4.5,0.4-5.3-1.9-6.1-4.9c-1.1-10.7,3.7-21.1,12.5-27.2l444.5-237.1
		C472.7,1105.8,474.1,1105,476.2,1103.8z"/>
	<path class="st4" d="M41.7,1232.3c1.9-9.4,3.6-17.7,5.4-25.8c14.3-67.7,28.7-135.2,43.1-202.6c0.6-2.9,1.1-3.6,4-1.9
		c63.9,38.4,127.9,76.8,191.8,115.2c0.8,0.5,1.6,1.1,2.3,1.7L41.7,1232.3z"/>
	<path class="st4" d="M930.8,807.5c-5.3,26.8-10.3,52.5-15.3,78.3c-9.2,47.4-18.5,94.8-27.8,142.2c-1.3,6.8-1.2,6.8-7.2,3.5
		L698.7,928.9c-1.5-0.8-2.9-1.7-4.9-3L930.8,807.5z"/>
</g>
</svg>
