
<svg version="1.1" id="Layer_1" xmlns="http://www.w3.org/2000/svg" xmlns:xlink="http://www.w3.org/1999/xlink" x="0px" y="0px"
	 viewBox="0 0 1920 385" style="enable-background:new 0 0 1920 385;" xml:space="preserve">
<style type="text/css">
	.st0{fill:#FFFFFF;}
	.st1{fill:#EC2E32;}
	.st2{fill:#EE343A;}
</style>
<g>
	<g>
		<rect x="1413.3" y="45" class="st0" width="25" height="25"/>
		<rect x="1488" y="63.7" class="st0" width="25" height="25"/>
		<rect x="1374.5" y="63.7" class="st0" width="25" height="25"/>
		<rect x="1333.6" y="-0.3" class="st0" width="25" height="25"/>
		<rect x="1294.4" y="63.7" class="st0" width="25" height="25"/>
		<rect x="1254.1" y="-0.3" class="st0" width="25" height="25"/>
		<rect x="1216.3" y="45" class="st0" width="25" height="25"/>
		<rect x="1177.3" y="63.7" class="st0" width="25" height="25"/>
	</g>
	<g>
		<rect x="1177.3" y="27" class="st1" width="25" height="25"/>
		<rect x="1294.4" y="25.8" class="st1" width="25" height="25"/>
		<rect x="1254.1" y="45" class="st1" width="25" height="25"/>
		<rect x="1333.6" y="45" class="st1" width="25" height="25"/>
		<rect x="1374.5" y="25.8" class="st1" width="25" height="25"/>
		<rect x="1450" y="45" class="st1" width="25" height="25"/>
		<rect x="1487.8" y="27" class="st1" width="25" height="25"/>
	</g>
	<g>
		<path class="st0" d="M570,131.6h-20c-9.4,0-19.2,0.4-29.4,1c-10.2,0.6-18.6,3.3-25,7.7c-5.4,3.5-9.2,9-10.6,15.4
			c-3.1,13.4-3.1,27.3,0,40.9c1.3,6.3,5.2,11.9,10.6,15.4c6.5,4.4,14.8,6.9,25,7.5c10.2,0.6,20.2,0.8,29.4,0.8h20
			c6.9,0,14.2,0,21.5,0.2s14.4,0.6,21.7,1.7c6.7,0.8,13.4,2.3,19.8,4.4c5.8,1.9,11.3,4.4,16.3,7.9c4.4,3.1,7.9,7.1,10.6,11.7
			c2.7,4.6,4.6,9.4,5.8,14.6c1.3,5.4,2.1,11.1,2.3,16.5c0.2,5.8,0.4,11.5,0.4,16.9c0,5.4-0.2,11.3-0.4,16.9
			c-0.2,5.6-1,11.1-2.3,16.5c-1.3,5.2-3.1,10-5.8,14.6c-2.7,4.6-6.3,8.6-10.6,11.7c-4.8,3.8-10.4,6.5-16.3,8.3
			c-6.5,2.1-13.1,3.3-19.8,4.2c-7.1,0.8-14.4,1.3-21.7,1.5s-14.4,0.2-21.5,0.2h-20c-6.9,0-14.2,0-21.5-0.2
			c-7.3-0.2-14.6-0.6-21.7-1.5c-6.7-0.8-13.4-2.1-20-4.2c-5.8-1.7-11.3-4.6-16.1-8.3c-4-3.1-7.3-7.1-9.6-11.7
			c-2.9-5.8-4.4-12.5-4.2-19h34.8c1.9,4,5.2,7.1,9.2,9c4.4,2.1,9.2,3.5,14.2,4.4c5.6,0.8,11.3,1.3,16.9,1.5
			c6.1,0.2,11.9,0.2,17.7,0.2h20c9.8,0,19.6-0.4,29.6-1c8.8-0.2,17.3-2.9,24.8-7.7c5.4-3.5,9.4-9,10.9-15.4
			c3.3-13.4,3.3-27.3,0-40.7c-1.5-6.3-5.4-11.9-10.9-15.4c-6.5-4.4-14.6-6.9-24.8-7.5c-10-0.6-20-0.8-29.6-0.8h-20
			c-6.9,0-14.2,0-21.5-0.2c-7.3-0.2-14.4-0.6-21.7-1.7c-6.7-0.8-13.4-2.3-20-4.4c-5.8-1.7-11.1-4.4-16.1-7.9
			c-4.4-3.1-7.9-7.1-10.4-11.9c-2.5-4.6-4.4-9.6-5.6-14.8c-1.3-5.4-2.1-11.1-2.3-16.7c-0.2-5.8-0.4-11.5-0.4-16.9s0.2-11.3,0.4-16.9
			c0.2-5.6,1-11.1,2.3-16.5c1.3-5.2,3.1-10,5.6-14.8c2.5-4.6,6.1-8.8,10.4-11.9c4.8-3.8,10.2-6.7,16.1-8.3c6.5-2.1,13.1-3.3,20-4.2
			c7.1-0.8,14.2-1.3,21.7-1.5c7.3-0.2,14.4-0.2,21.5-0.2h20c6.9,0,14,0,21.5,0.2s14.6,0.6,21.7,1.5c6.7,0.8,13.4,2.1,19.8,4.2
			c5.8,1.9,11.3,4.6,16.3,8.3c4.4,3.3,7.9,7.7,10.4,12.9c3.1,5.8,4.6,12.1,4.6,18.6h-34.4c-1.7-4-4.8-7.1-8.8-9.2
			c-4.6-2.3-9.6-4-14.6-4.8c-5.8-1-11.9-1.5-17.9-1.7C581.9,131.6,575.9,131.6,570,131.6z"/>
		<path class="st0" d="M906.2,350.5c-4.4,4.4-9.8,7.9-15.7,10.4c-6.1,2.5-12.5,4.4-19.2,5.4c-6.9,1-14,1.7-21.1,1.9
			c-7.3,0.2-14.2,0.2-20.9,0.2H810c-6.7,0-13.6,0-20.9-0.2c-7.1,0-14-0.6-20.9-1.9c-6.5-1-12.7-2.9-19-5.4
			c-11.7-4.8-21.1-14-26.1-25.7c-2.5-6.1-4.4-12.3-5.4-18.8c-1-6.9-1.7-13.6-1.9-20.5c-0.2-7.1-0.2-14-0.2-20.9c0-6.9,0-14,0.2-20.9
			c0.2-6.9,0.8-13.8,1.9-20.5c1-6.5,2.9-12.7,5.4-18.8c5-11.7,14.2-20.9,26.1-25.7c6.1-2.5,12.3-4.4,19-5.4c6.9-1,13.8-1.7,20.9-1.9
			s14.2-0.2,20.9-0.2h19.6c6.7,0,13.6,0,20.9,0.2c7.1,0.2,14,0.8,21.1,1.9c6.5,1,12.9,2.9,19.2,5.4c5.8,2.5,11.1,6.1,15.7,10.4
			c5.4,5.4,9.4,11.9,11.7,19.2c2.3,7.5,4,15.2,5,23l-31.1,3.3c-0.8-4-1.9-7.9-3.5-11.7c-1.5-3.5-4-6.9-6.9-9.6
			c-3.1-3.1-6.7-5.4-10.6-7.1c-4.2-1.7-8.6-2.9-12.9-3.8c-4.6-0.8-9.4-1.3-14.2-1.5s-9.4-0.2-14-0.2h-19.6c-4.8,0-9.4,0-14.2,0.2
			c-4.6,0.2-9.4,0.6-14,1.5c-4.4,0.8-8.8,2.1-12.9,3.8c-4,1.7-7.5,4-10.6,7.1c-6.1,6.3-9.8,14.2-10.6,23c-1.9,18.6-1.9,37.4,0,55.9
			c0.6,8.6,4.4,16.7,10.6,23c3.1,2.9,6.7,5.4,10.6,7.1c4.2,1.7,8.6,2.9,12.9,3.8c4.6,0.8,9.2,1.3,14,1.5c4.8,0.2,9.4,0.2,14.2,0.2
			h19.6c4.4,0,9,0,14-0.2c4.8-0.2,9.4-0.6,14.2-1.5c4.4-0.8,8.8-2.1,12.9-3.8c4-1.7,7.5-4,10.6-7.1c2.9-2.7,5.2-5.8,6.9-9.6
			c1.7-3.8,2.7-7.7,3.5-11.7l31.1,3.3c-1,7.7-2.7,15.4-5,23C915.8,338.6,911.6,345,906.2,350.5z"/>
		<path class="st0" d="M1108.2,368.4v-4.6c-8.6,2.3-17.3,3.5-26.1,4c-9.4,0.4-18.6,0.6-27.5,0.6h-15.9c-5.8,0-11.9,0-18.4-0.2
			c-6.5-0.2-12.5-0.6-18.8-1.3c-5.8-0.6-11.7-1.7-17.3-3.3c-5-1.3-9.6-3.5-14-6.5c-7.1-4.8-11.9-12.1-13.4-20.5
			c-1.7-8.6-2.5-17.5-2.5-26.3c0-4.4,0.2-9,0.4-13.4c0.2-4.4,1-8.8,2.1-12.9c1-4,2.7-7.9,4.8-11.5c2.1-3.5,5-6.7,8.6-9.2
			c4.2-2.9,9-5,14-6.5c5.6-1.7,11.5-2.7,17.3-3.3c6.1-0.6,12.3-1,18.8-1.3s12.5-0.2,18.4-0.2h15.9c9,0,17.9,0.2,27.5,0.6
			c8.8,0.4,17.5,1.7,26.1,4v-4.6c0-6.1-0.4-12.1-1.5-18.2c-0.8-5.6-4-10.9-8.6-14.4c-5.8-4.2-12.7-6.5-20-6.9
			c-8.1-0.6-15.9-1-23.8-1h-15.9c-7.7,0-15.7,0.4-23.6,1c-7.1,0.4-14,2.7-20,6.9c-1.7,1-3.1,2.5-4.2,4.2c-1.3,1.7-2.1,3.5-2.9,5.4
			l-31.9-5c0.8-5.4,2.3-10.9,4.6-15.9s5.8-9.4,10-13.1c4.2-3.3,8.8-6.1,14-7.7c5.6-1.9,11.3-3.1,17.1-4c6.1-0.8,12.3-1.3,18.6-1.5
			c6.3-0.2,12.5-0.2,18.8-0.2h15.9c6.1,0,12.3,0,18.8,0.2c6.3,0.2,12.3,0.6,18.6,1.5c5.6,0.8,11.5,2.1,16.9,3.8
			c5,1.7,9.8,4.2,14,7.7c3.8,3.1,6.9,7.1,9.2,11.7c2.3,4.4,3.8,9.2,4.8,14.2c1,5,1.5,10.2,1.7,15.4c0.2,5.2,0.2,10.4,0.2,15.9v116.4
			L1108.2,368.4z M1038.9,282c-7.5,0-15.2,0.2-23.6,0.4c-6.9,0-13.8,1.7-20.2,4.6c-3.8,2.1-6.7,5.6-7.9,9.8c-1.5,4.4-2.1,9-2.1,13.4
			c0,4.6,0.6,9,2.1,13.4c1.3,4.2,4.2,7.5,7.9,9.6c6.3,3.1,13.1,4.6,20.2,4.8c8.1,0.4,16.1,0.6,23.6,0.6h15.9
			c7.5,0,15.2-0.2,23.6-0.6c6.9-0.2,13.8-1.7,20.2-4.8c3.8-2.1,6.7-5.4,7.9-9.6c1.5-4.4,2.1-8.8,2.1-13.4s-0.6-9.2-2.1-13.4
			c-1.3-4.2-4.2-7.7-7.9-9.8c-6.3-2.9-13.1-4.6-20.2-4.6c-8.1-0.2-16.1-0.4-23.6-0.4H1038.9z"/>
		<path class="st0" d="M1204.6,110.9v257.5h-30.3V110.9H1204.6z"/>
		<path class="st0" d="M1413.7,320.6l31.9,8.8c-2.1,9.2-7.3,17.5-14.6,23.6c-4.6,4-9.8,6.9-15.7,9c-6.3,2.1-12.5,3.8-19.2,4.6
			c-6.9,1-14,1.5-21.1,1.7c-7.1,0.2-14.2,0.2-20.9,0.2h-18.8c-6.9,0-14,0-21.1-0.2c-7.1-0.2-14-0.8-20.9-1.9
			c-6.5-1-12.9-2.9-19.2-5.4c-11.7-4.8-21.1-14-25.9-25.7c-2.5-6.1-4.4-12.3-5.4-18.8c-1-6.7-1.7-13.6-1.9-20.5
			c-0.2-7.1-0.2-14-0.2-20.9c0-6.9,0-13.8,0.2-20.9c0.2-6.9,0.8-13.8,1.9-20.5c1-6.5,2.9-12.7,5.4-18.8c5-11.7,14.2-20.9,25.9-25.7
			c6.1-2.5,12.5-4.4,19.2-5.4c6.9-1,14-1.7,20.9-1.9c7.1-0.2,14-0.2,21.1-0.2h19.2c6.9,0,14,0,21.1,0.2c6.9,0.2,14,0.8,20.9,1.9
			c6.5,1,12.9,2.9,19.2,5.4c11.7,4.8,21.1,14,26.1,25.7c2.5,6.1,4.4,12.3,5.4,18.8c1,6.9,1.7,13.6,1.9,20.5c0.2,7.1,0.2,14,0.2,20.9
			v15.4H1272c0.2,6.7,1.3,13.1,2.9,19.6c1.5,6.1,4.8,11.5,9.2,16.1c2.9,2.9,6.7,5.4,10.6,7.1c4.2,1.7,8.6,2.9,12.9,3.8
			c4.6,0.8,9.4,1.3,14.2,1.5c4.8,0.2,9.6,0.2,14.4,0.2h19.2c5.8,0,11.7-0.2,17.9-0.4c5.6-0.2,11.5-0.8,17.1-2.1
			c5-1,9.8-2.9,14.4-5.4C1408.1,328.3,1411.7,324.8,1413.7,320.6z M1406.6,224c-6.3-6.3-14.6-10-23.6-10.9c-9.4-1-19-1.7-28.6-1.7
			h-19.2c-4.8,0-9.4,0-14.4,0.2c-4.8,0.2-9.4,0.6-14.2,1.5c-4.4,0.8-8.8,2.1-12.9,3.8c-4,1.7-7.5,4-10.6,7.1
			c-4.4,4.4-7.5,10-9.2,15.9c-1.7,6.5-2.7,12.9-2.9,19.6h147.1c-0.2-6.7-1.3-13.1-2.9-19.6C1414.4,234,1411.2,228.4,1406.6,224
			L1406.6,224z"/>
		<path class="st0" d="M1515.6,110.9v257.5h-30.3V110.9H1515.6z"/>
		<path class="st0" d="M1739.7,199.6c4.4,4.4,7.9,9.6,10.4,15.4c2.5,6.1,4.4,12.3,5.4,18.8c1,6.9,1.7,13.6,1.9,20.5
			c0.2,7.1,0.2,14,0.2,20.9s0,13.8-0.2,20.9c-0.2,6.9-0.8,13.8-1.9,20.5c-1,6.5-2.9,12.7-5.4,18.8c-5,11.7-14.4,20.9-26.1,25.7
			c-6.1,2.5-12.5,4.4-19.2,5.4c-6.9,1-13.8,1.7-20.9,1.9c-7.1,0.2-14.2,0.2-21.1,0.2h-19.2c-6.9,0-14,0-21.1-0.2
			c-7.1-0.2-14-0.8-20.9-1.9c-6.7-1-12.9-2.9-19.2-5.4c-11.7-4.8-21.1-14-26.1-25.7c-2.5-6.1-4.4-12.3-5.4-18.8
			c-1-6.9-1.7-13.6-1.9-20.5c-0.2-7.1-0.2-14-0.2-20.9c0-6.9,0-13.8,0.2-20.9c0.2-6.9,0.8-13.8,1.9-20.5c1-6.5,2.9-12.7,5.4-18.8
			c5-11.7,14.4-20.9,26.1-25.7c6.1-2.5,12.5-4.4,19.2-5.4c6.9-1,14-1.7,20.9-1.9c7.1-0.2,14-0.2,21.1-0.2h19.2c6.9,0,14,0,21.1,0.2
			c6.9,0.2,14,0.8,20.9,1.9c6.5,1,12.9,2.9,19.2,5.4C1729.9,191.7,1735.1,195.2,1739.7,199.6z M1643.7,211.7c-4.8,0-9.4,0-14.4,0.2
			c-4.8,0.2-9.4,0.6-14.2,1.5c-4.4,0.8-8.8,2.1-12.9,3.8c-4,1.7-7.5,4-10.6,7.1c-6.1,6.3-9.8,14.2-10.6,23
			c-1.9,18.6-1.9,37.4,0,55.9c0.6,8.6,4.4,16.7,10.6,23c3.1,2.9,6.7,5.4,10.6,7.1c4.2,1.7,8.6,2.9,12.9,3.8
			c4.6,0.8,9.4,1.3,14.2,1.5c4.8,0.2,9.6,0.2,14.4,0.2h19.2c4.8,0,9.4,0,14.4-0.2c4.8-0.2,9.4-0.6,14.2-1.5
			c4.4-0.8,8.8-2.1,12.9-3.8c4-1.7,7.5-4,10.6-7.1c6.1-6.3,10-14.2,10.9-23c2.3-18.6,2.3-37.4,0-55.9c-0.8-8.8-4.6-16.7-10.9-23
			s-14.6-10-23.6-10.9c-9.4-1-19-1.7-28.4-1.7C1663.1,211.7,1643.7,211.7,1643.7,211.7z"/>
		<path class="st0" d="M1841.1,181.6v-71h30.3v71h48.6v29.8h-48.6v156.7h-30.3V211.5h-49v-29.8H1841.1z"/>
	</g>
</g>
<g>
	<path class="st0" d="M94.9,86.1c7.1,0,14,0,20.9,0c0.6,0.2,1.3,0.4,1.5,1c2.3,4,4.6,8.1,6.9,12.3c0.4,1.3,1.7,1.9,2.9,1.7
		c46.7,0,93.5,0,140.2-0.2c5.4,0,10.9,1,15.9,3.3c14.2,6.1,25.5,17.7,31.1,32.1c0.4,1.3,0.4,1.7-0.8,2.3c-21.1,10-42.2,20-63.4,30.3
		l-80.8,38.8c-0.6,0.2-1,0.6-1.9,0.8c0.6,0.4,1,0.8,1.5,1c26.7,19,54.9,35.9,82.4,53.8c12.7,8.3,25.7,16.5,38.6,24.6
		c1.3,0.6,1.9,1.9,1.5,3.1c-1.9,19.4-10,35.9-23,50.1c-10.2,11.3-22.7,19.6-36.3,26.3c-1.3,0.6-1.5-0.2-1.9-0.8
		c-9-18.6-17.9-37.4-27.1-55.9c-35.7-74.3-71.4-148.6-107.1-222.7C95.5,87.5,95.3,86.9,94.9,86.1z"/>
	<path class="st0" d="M157.1,275.8c-3.8-2.5-7.5-5-11.3-7.3c-37.1-21.9-74.5-43.8-111.6-65.7c-0.8-0.4-1.5-1.3-1.3-2.3
		c1.3-16.7,5-33.2,10.9-48.8c3.5-9.8,8.8-18.8,15.2-26.9c8.1-9.6,18.2-15.9,30.7-17.9c3.5-0.6,3.5-0.6,5.2,2.7
		c32.1,68,64.3,135.9,96.4,203.9c10.9,22.7,21.5,45.5,32.1,68.2c0.2,0.4,0.4,1,0.8,1.7l-11.7,1c-2.3,0.2-4.6,0.4-6.9,0.6
		c-0.8,0.2-1.9-0.2-2.1-1c-2.3-4.8-4.8-9.4-7.1-14.2c-0.2-0.8-1.3-1.5-2.1-1.5c-62.4,0-125,0-187.4,0c-1.5,0-3.1,0-4.6,0
		s-1.9-0.6-2.1-1.7c-0.4-3.5,1.3-7.1,4.2-9.2l151.1-80.6C155.8,276.4,156.2,276.2,157.1,275.8z"/>
	<path class="st2" d="M9.3,319.4c0.6-3.1,1.3-6.1,1.9-8.8c4.8-23,9.8-45.9,14.6-68.9c0.2-1,0.4-1.3,1.5-0.6
		c21.7,13.1,43.4,26.1,65.1,39.2c0.2,0.2,0.6,0.4,0.8,0.6L9.3,319.4z"/>
	<path class="st2" d="M311.5,175c-1.9,9.2-3.5,17.9-5.2,26.5c-3.1,16.1-6.3,32.1-9.4,48.2c-0.4,2.3-0.4,2.3-2.5,1.3l-61.8-34.8
		c-0.4-0.2-1-0.6-1.7-1L311.5,175z"/>
</g>
</svg>
