<svg xmlns="http://www.w3.org/2000/svg" width="610" height="529.336" viewBox="0 0 610 529.336">
  <g id="sem-ppc-management" transform="translate(0 0)">
    <path id="Path_22" data-name="Path 22" d="M784.185,226.56h-2.9V147.131A45.977,45.977,0,0,0,735.3,101.158H566.984A45.977,45.977,0,0,0,521,147.131V582.889a45.977,45.977,0,0,0,45.982,45.973H735.3a45.977,45.977,0,0,0,45.981-45.972V283.1h2.9Z" transform="translate(-275.975 -101.159)" fill="#273a57"/>
    <path id="Path_23" data-name="Path 23" d="M741.19,116.917h-21.97a16.311,16.311,0,0,1-15.107,22.471H607.686a16.311,16.311,0,0,1-15.105-22.471h-20.52a34.335,34.335,0,0,0-34.339,34.332V586.37A34.335,34.335,0,0,0,572.061,620.7H741.19a34.335,34.335,0,0,0,34.339-34.332h0V151.248a34.335,34.335,0,0,0-34.338-34.331Z" transform="translate(-280.005 -104.959)" fill="#fff"/>
    <path id="Path_5067" data-name="Path 5067" d="M624.815,245.457a6.53,6.53,0,0,1-4.877-2.123,8.136,8.136,0,0,1-1.93-6.229,9.416,9.416,0,0,1,2.525-5.679,7.582,7.582,0,0,1,5.491-2.433,6.841,6.841,0,0,1,5.1,2.248,7.985,7.985,0,0,1,1.964,6.1h0a9.069,9.069,0,0,1-2.726,5.95A8.064,8.064,0,0,1,624.815,245.457Zm1.209-13.72c-2.686,0-5.006,2.463-5.283,5.608a5.4,5.4,0,0,0,1.22,4.135,3.767,3.767,0,0,0,2.854,1.233c2.511,0,5.2-1.734,5.54-5.609a5.239,5.239,0,0,0-1.255-4.01,4.127,4.127,0,0,0-3.077-1.357Zm5.7,5.488Z" transform="translate(-299.334 -132.005)" fill="#0b2d61"/>
    <path id="Path_5068" data-name="Path 5068" d="M622.277,251.073a14.972,14.972,0,0,1-15.129-16.584,18.183,18.183,0,0,1,17.789-16.344c4.94,0,9,1.587,11.753,4.59a14.539,14.539,0,0,1,3.438,11.286c-.37,4.2-2.15,6.383-3.579,7.478A6.013,6.013,0,0,1,632,242.8c-2.258-.4-4.756-2.452-4.363-6.916l.727-8.254a1.372,1.372,0,1,1,2.733.241l-.727,8.253c-.2,2.219.593,3.7,2.109,3.974a3.311,3.311,0,0,0,2.4-.781c.991-.76,2.232-2.337,2.514-5.54a11.685,11.685,0,0,0-2.728-9.192c-2.216-2.42-5.58-3.7-9.73-3.7a15.429,15.429,0,0,0-15.055,13.84,12.23,12.23,0,0,0,12.4,13.6,13.769,13.769,0,0,0,6.267-1.136,1.372,1.372,0,0,1,1.063,2.53,16.46,16.46,0,0,1-7.33,1.35Z" transform="translate(-296.707 -129.388)" fill="#0b2d61"/>
    <path id="Path_5069" data-name="Path 5069" d="M607.586,515.6a1.372,1.372,0,0,1-.97-2.342l8.918-8.918a1.372,1.372,0,1,1,1.94,1.94l-8.918,8.918A1.367,1.367,0,0,1,607.586,515.6Zm22.638-3.43a1.372,1.372,0,0,1-.97-2.342l7.546-7.546a1.372,1.372,0,1,1,1.94,1.94l-7.546,7.546a1.368,1.368,0,0,1-.97.4Zm-4.116,0a1.368,1.368,0,0,1-.97-.4l-5.488-5.488a1.372,1.372,0,1,1,1.94-1.94l5.488,5.488a1.372,1.372,0,0,1-.97,2.342Z" transform="translate(-296.503 -197.853)" fill="#0b2d61"/>
    <path id="Path_5070" data-name="Path 5070" d="M649.42,503.32a3.43,3.43,0,1,1,3.43-3.43,3.43,3.43,0,0,1-3.43,3.43Zm0-4.116a.686.686,0,1,0,.686.686.686.686,0,0,0-.686-.686Z" transform="translate(-306.098 -196.543)" fill="#0b2d61"/>
    <path id="Path_5071" data-name="Path 5071" d="M634.052,518.688a3.43,3.43,0,1,1,3.43-3.43A3.43,3.43,0,0,1,634.052,518.688Zm0-4.116a.686.686,0,1,0,.686.686.686.686,0,0,0-.686-.686Z" transform="translate(-302.39 -200.252)" fill="#0b2d61"/>
    <path id="Path_5072" data-name="Path 5072" d="M621.4,506.032a3.43,3.43,0,1,1,3.43-3.43,3.43,3.43,0,0,1-3.43,3.43Zm0-4.116a.686.686,0,1,0,.686.686.686.686,0,0,0-.686-.686Z" transform="translate(-299.336 -197.198)" fill="#0b2d61"/>
    <path id="Path_5073" data-name="Path 5073" d="M604.22,523.208a3.43,3.43,0,1,1,3.43-3.43,3.43,3.43,0,0,1-3.43,3.43Zm0-4.116a.686.686,0,1,0,.686.686.686.686,0,0,0-.686-.686Z" transform="translate(-295.191 -201.342)" fill="#0b2d61"/>
    <path id="Path_5074" data-name="Path 5074" d="M766.212,655.22H737.4a4.807,4.807,0,0,1-4.8-4.8v-20.58a4.807,4.807,0,0,1,4.8-4.8h28.812a4.807,4.807,0,0,1,4.8,4.8v20.58a4.807,4.807,0,0,1-4.8,4.8ZM737.4,627.78a2.06,2.06,0,0,0-2.058,2.058v20.58a2.06,2.06,0,0,0,2.058,2.058h28.812a2.06,2.06,0,0,0,2.058-2.058v-20.58a2.06,2.06,0,0,0-2.058-2.058Z" transform="translate(-327 -227.572)" fill="#0b2d61"/>
    <path id="Path_5075" data-name="Path 5075" d="M753.55,644.616a1.369,1.369,0,0,1-.842-.289l-12.348-9.6a1.372,1.372,0,0,1,1.685-2.166l11.506,8.949,11.506-8.949a1.372,1.372,0,0,1,1.685,2.166l-12.348,9.6A1.37,1.37,0,0,1,753.55,644.616Z" transform="translate(-328.744 -229.314)" fill="#0b2d61"/>
    <path id="Path_5076" data-name="Path 5076" d="M911.161,689.359l-158.708.063a.759.759,0,0,1,0-1.518l158.708-.063a.759.759,0,0,1,0,1.518Z" transform="translate(-331.64 -242.738)" fill="#ccc"/>
    <circle id="Ellipse_537" data-name="Ellipse 537" cx="10.624" cy="10.624" r="10.624" transform="translate(566.784 435.238)" fill="#fff"/>
    <path id="Path_5077" data-name="Path 5077" d="M905.678,421.359l-160.226.063a.759.759,0,1,1,0-1.518l160.226-.063a.759.759,0,1,1,0,1.518Z" transform="translate(-329.952 -178.055)" fill="#ccc"/>
    <circle id="Ellipse_538" data-name="Ellipse 538" cx="10.624" cy="10.624" r="10.624" transform="translate(566.784 232.68)" fill="#fff"/>
    <path id="Path_5078" data-name="Path 5078" d="M416.027,284.359l160.226.063a.759.759,0,0,0,0-1.518l-160.226-.063a.759.759,0,0,0,0,1.518Z" transform="translate(-250.437 -144.998)" fill="#ccc"/>
    <circle id="Ellipse_539" data-name="Ellipse 539" cx="10.624" cy="10.624" r="10.624" transform="translate(153.296 128.738)" fill="#fff"/>
    <path id="Path_5079" data-name="Path 5079" d="M416.027,555.359l160.226.063a.759.759,0,0,0,0-1.518l-160.226-.063a.759.759,0,0,0,0,1.518Z" transform="translate(-250.437 -210.388)" fill="#ccc"/>
    <circle id="Ellipse_540" data-name="Ellipse 540" cx="10.624" cy="10.624" r="10.624" transform="translate(153.296 334.346)" fill="#fff"/>
    <path id="Path_5080" data-name="Path 5080" d="M747.058,668.221a34.149,34.149,0,1,1,34.149-34.149A34.149,34.149,0,0,1,747.058,668.221Zm0-66.779a32.631,32.631,0,1,0,32.631,32.631,32.631,32.631,0,0,0-32.631-32.631Z" transform="translate(-322.254 -221.519)" fill="#ccc"/>
    <path id="Path_5081" data-name="Path 5081" d="M617.058,534.221a34.149,34.149,0,1,1,34.149-34.148A34.149,34.149,0,0,1,617.058,534.221Zm0-66.779a32.631,32.631,0,1,0,32.631,32.631,32.631,32.631,0,0,0-32.631-32.631Z" transform="translate(-290.884 -189.182)" fill="#ccc"/>
    <path id="Path_5082" data-name="Path 5082" d="M738.059,400.221a34.149,34.149,0,1,1,34.149-34.148,34.148,34.148,0,0,1-34.149,34.148Zm0-66.779a32.631,32.631,0,1,0,32.631,32.631,32.631,32.631,0,0,0-32.631-32.631Z" transform="translate(-320.082 -156.846)" fill="#ccc"/>
    <path id="Path_5083" data-name="Path 5083" d="M618.058,263.138a34.149,34.149,0,1,1,34.149-34.148,34.148,34.148,0,0,1-34.149,34.148Zm0-66.779a32.631,32.631,0,1,0,32.631,32.631A32.631,32.631,0,0,0,618.058,196.359Z" transform="translate(-291.125 -123.75)" fill="#ccc"/>
    <path id="Path_5084" data-name="Path 5084" d="M333.327,562.873a8.362,8.362,0,0,1-3.265-5.98,7.8,7.8,0,0,1-.019-.82l-35.338-23.8a6.49,6.49,0,0,1-2.532-7.338l16.89-41.962a7.36,7.36,0,1,1,13.677,5.442L309.1,523.088l27.517,24.993a7.944,7.944,0,0,1,1.1-.17,8.348,8.348,0,0,1,2.264,16.515,8.645,8.645,0,0,1-1.629.156A8.245,8.245,0,0,1,333.327,562.873Z" transform="translate(-220.635 -192.18)" fill="#a0616a"/>
    <path id="Path_5085" data-name="Path 5085" d="M295.532,508.547a3.651,3.651,0,0,1,.077-3.043l8.063-16.479a10.151,10.151,0,1,1,19.367,6.092L320.1,513.285a3.655,3.655,0,0,1-4.715,2.9l-17.594-5.591a3.651,3.651,0,0,1-2.254-2.046Z" transform="translate(-221.448 -193.037)" fill="#bbceeb"/>
    <path id="Path_5086" data-name="Path 5086" d="M170.908,672.547h9.3l4.426-35.885H170.906Z" transform="translate(-41.239 -153.632)" fill="#a0616a"/>
    <path id="Path_5087" data-name="Path 5087" d="M365.781,781.106H384.1a11.676,11.676,0,0,1,11.676,11.676v.379h-30Z" transform="translate(-238.486 -265.228)" fill="#8aa1c5"/>
    <path id="Path_5088" data-name="Path 5088" d="M51.025,664.22l9.011,2.315,13.219-33.654-13.3-3.417Z" transform="translate(-12.304 -151.896)" fill="#a0616a"/>
    <path id="Path_5089" data-name="Path 5089" d="M246.039,771.767l17.745,4.56h0a11.676,11.676,0,0,1,8.4,14.215l-.094.367-29.055-7.466Z" transform="translate(-208.861 -262.976)" fill="#8aa1c5"/>
    <circle id="Ellipse_541" data-name="Ellipse 541" cx="18.638" cy="18.638" r="18.638" transform="translate(85.336 235.513)" fill="#a0616a"/>
    <path id="Path_5090" data-name="Path 5090" d="M318.163,521.788a67.332,67.332,0,0,1-11.183-15.355,24.827,24.827,0,0,1-1.169-20.092,25.378,25.378,0,0,1,14.412-14.68A24.951,24.951,0,0,1,351.8,483.382c4.664,9.127,6.491,18.05,5.432,26.524-2.025,16.2-3.21,24.571-3.523,24.884l-.1.1-34.672,1.541Z" transform="translate(-223.616 -190.124)" fill="#bbceeb"/>
    <path id="Path_5091" data-name="Path 5091" d="M306.127,551.2l31.027-1.544a3.036,3.036,0,0,1,3.174,2.762L354.6,712.411a3.035,3.035,0,0,1-3.088,3.3l-12.122-.258a3.035,3.035,0,0,1-2.881-2.3l-23.158-93.311a3.035,3.035,0,0,0-5.7-.538l-43.884,95.312a3.035,3.035,0,0,1-3.523,1.668l-12.2-3.182a3.032,3.032,0,0,1-2.2-3.561c4.014-18.947,28.056-127.454,58.327-157.488A2.991,2.991,0,0,1,306.127,551.2Z" transform="translate(-209.52 -209.415)" fill="#8aa1c5"/>
    <path id="Path_5092" data-name="Path 5092" d="M386.3,551.92a8.362,8.362,0,0,1-5.128-4.487,7.862,7.862,0,0,1-.3-.762L339.488,536.53a6.49,6.49,0,0,1-4.909-6.014l1.369-45.211a7.36,7.36,0,1,1,14.715.386l-.832,37.248L384.284,536.9a8.159,8.159,0,0,1,.975-.541h0A8.355,8.355,0,1,1,386.3,551.92Z" transform="translate(-230.958 -192.131)" fill="#a0616a"/>
    <path id="Path_5093" data-name="Path 5093" d="M330.258,507.209a3.651,3.651,0,0,1-.951-2.891l2.051-18.231a10.152,10.152,0,1,1,20.288-.776l3.338,18.1a3.655,3.655,0,0,1-3.466,4.316l-18.45.651a3.651,3.651,0,0,1-2.811-1.169Z" transform="translate(-229.679 -191.5)" fill="#bbceeb"/>
    <path id="Path_5094" data-name="Path 5094" d="M297.352,451.446l1.947-6.294,1.332,7.064,10.937-.29-.05-6.965,4.158,6.873,9.911-2.191a41.267,41.267,0,0,1-5.614-9.013,14.82,14.82,0,0,1-.582-10.592c3.128-8.323,14.989-5.994,21.476-6.065,1.892-.021,4.029-.157,5.268-1.7a6.66,6.66,0,0,0,1.039-4.372c-.244-7.934-5.007-15.5-11.741-18.657a18.2,18.2,0,0,0-10.552-1.429,19.076,19.076,0,0,0-5.382,1.7c-1.516.74-3.107,2.5-4.739,2.456-1.371-.04-3.187-1.468-4.679-1.712a14.463,14.463,0,0,0-5.406.189,16.979,16.979,0,0,0-9.164,5.484c-5.069,5.89-6.576,14.57-5.692,22.561s3.873,15.506,6.829,22.892" transform="translate(-220.084 -172.687)" fill="#2f2e41"/>
    <path id="Path_5095" data-name="Path 5095" d="M807.241,798.359H198.759a.759.759,0,0,1,0-1.518H807.241a.759.759,0,0,1,0,1.518Z" transform="translate(-198 -269.023)" fill="#273a57"/>
    <path id="Path_5096" data-name="Path 5096" d="M972.571,779.029a14.653,14.653,0,0,0,4.838-7.282c.617-2.9-.617-6.3-3.377-7.421-3.1-1.2-6.413.958-8.92,3.125s-5.392,4.649-8.681,4.183a13.191,13.191,0,0,0,4.044-12.36,5.039,5.039,0,0,0-1.134-2.52c-1.714-1.839-4.838-1.046-6.9.4-6.552,4.611-8.378,13.506-8.4,21.519-.668-2.9-.113-5.909-.126-8.819s-.832-6.3-3.326-7.837a10.08,10.08,0,0,0-5.04-1.2c-2.948-.1-6.224.189-8.24,2.343-2.52,2.671-1.852,7.169.328,10.079s5.481,4.788,8.517,6.829a18.8,18.8,0,0,1,6.1,5.808,5.56,5.56,0,0,1,.453,1.033h18.458a51.364,51.364,0,0,0,11.415-7.887Z" transform="translate(-373.597 -259.098)" fill="#273a57"/>
    <path id="Path_5097" data-name="Path 5097" d="M732.668,390.89a2.063,2.063,0,0,1-1.875-2.9l2.374-5.3a17.762,17.762,0,1,1,6.715,3.74l-6.06,4.1A2.057,2.057,0,0,1,732.668,390.89Zm12.252-36.628a15.212,15.212,0,0,0-9.477,27.118l.748.6-2.555,5.7,5.863-3.969.579.194a15.216,15.216,0,1,0,4.842-29.64Z" transform="translate(-325.697 -161.603)" fill="#0b2d61"/>
    <circle id="Ellipse_542" data-name="Ellipse 542" cx="2.468" cy="2.468" r="2.468" transform="translate(416.756 204.589)" fill="#0b2d61"/>
    <circle id="Ellipse_543" data-name="Ellipse 543" cx="2.468" cy="2.468" r="2.468" transform="translate(409.764 204.589)" fill="#0b2d61"/>
    <circle id="Ellipse_544" data-name="Ellipse 544" cx="2.468" cy="2.468" r="2.468" transform="translate(423.748 204.589)" fill="#0b2d61"/>
  </g>
</svg>
