<svg xmlns="http://www.w3.org/2000/svg" width="560" height="673.498" viewBox="0 0 560 673.498">
  <g id="mobile-application-design" transform="translate(-82.618)">
    <path id="Path_4802" data-name="Path 4802" d="M656.14,245.4h-3.7V144.165a58.662,58.662,0,0,0-58.73-58.594H378.724A58.662,58.662,0,0,0,320,144.165v555.4a58.662,58.662,0,0,0,58.729,58.594H593.706a58.662,58.662,0,0,0,58.729-58.594v-382.1h3.7Z" transform="translate(-237.377 -85.571)" fill="#273a57"/>
    <path id="Path_4803" data-name="Path 4803" d="M597.365,102.066H569.3A20.792,20.792,0,0,1,550.01,130.7H426.85a20.792,20.792,0,0,1-19.292-28.637H381.348a43.806,43.806,0,0,0-43.858,43.753V700.346A43.806,43.806,0,0,0,381.348,744.1H597.365a43.806,43.806,0,0,0,43.858-43.753h0V145.819a43.806,43.806,0,0,0-43.858-43.753Z" transform="translate(-238.709 -86.787)" fill="#fff"/>
    <path id="Path_4805" data-name="Path 4805" d="M621.587,262.132H359.56a4.858,4.858,0,0,1-4.852-4.852v-65a4.858,4.858,0,0,1,4.852-4.852H621.587a4.858,4.858,0,0,1,4.852,4.852v65a4.858,4.858,0,0,1-4.852,4.853ZM359.56,189.37a2.915,2.915,0,0,0-2.911,2.911v65a2.915,2.915,0,0,0,2.911,2.911H621.587a2.914,2.914,0,0,0,2.911-2.911v-65a2.914,2.914,0,0,0-2.911-2.911Z" transform="translate(-239.981 -93.078)" fill="#8aa1c5"/>
    <path id="Path_4806" data-name="Path 4806" d="M621.587,535.366H359.56a4.858,4.858,0,0,1-4.852-4.852V410.2a4.858,4.858,0,0,1,4.852-4.852H621.587a4.858,4.858,0,0,1,4.852,4.852V530.513A4.858,4.858,0,0,1,621.587,535.366ZM359.56,407.288a2.915,2.915,0,0,0-2.911,2.911V530.513a2.915,2.915,0,0,0,2.911,2.911H621.587a2.915,2.915,0,0,0,2.911-2.911V410.2a2.915,2.915,0,0,0-2.911-2.911Z" transform="translate(-239.981 -109.981)" fill="#8aa1c5"/>
    <path id="Path_4807" data-name="Path 4807" d="M631.073,371.09H514.617a4.858,4.858,0,0,1-4.852-4.852v-65a4.858,4.858,0,0,1,4.852-4.852H631.073a4.858,4.858,0,0,1,4.852,4.852v65A4.858,4.858,0,0,1,631.073,371.09ZM514.617,298.329a2.915,2.915,0,0,0-2.911,2.911v65a2.915,2.915,0,0,0,2.911,2.911H631.073a2.914,2.914,0,0,0,2.911-2.911v-65a2.915,2.915,0,0,0-2.911-2.911Z" transform="translate(-251.906 -101.612)" fill="#e6e6e6"/>
    <path id="Path_4808" data-name="Path 4808" d="M476.017,705.012H359.56a4.858,4.858,0,0,1-4.852-4.852V578.875a4.858,4.858,0,0,1,4.852-4.852H476.017a4.858,4.858,0,0,1,4.852,4.852V700.159A4.858,4.858,0,0,1,476.017,705.012ZM359.56,575.964a2.915,2.915,0,0,0-2.911,2.911V700.159a2.914,2.914,0,0,0,2.911,2.911H476.017a2.915,2.915,0,0,0,2.911-2.911V578.875a2.915,2.915,0,0,0-2.911-2.911Z" transform="translate(-239.969 -123.12)" fill="#e6e6e6"/>
    <path id="Path_4809" data-name="Path 4809" d="M631.073,705.012H514.617a4.858,4.858,0,0,1-4.852-4.852V578.875a4.858,4.858,0,0,1,4.852-4.852H631.073a4.858,4.858,0,0,1,4.852,4.852V700.159a4.858,4.858,0,0,1-4.852,4.853ZM514.617,575.964a2.915,2.915,0,0,0-2.911,2.911V700.159a2.915,2.915,0,0,0,2.911,2.911H631.073a2.915,2.915,0,0,0,2.911-2.911V578.875a2.915,2.915,0,0,0-2.911-2.911Z" transform="translate(-251.906 -123.12)" fill="#e6e6e6"/>
    <circle id="Ellipse_492" data-name="Ellipse 492" cx="19.766" cy="19.766" r="19.766" transform="translate(138.597 318.285)" fill="#8aa1c5"/>
    <path id="Path_4810" data-name="Path 4810" d="M450.823,437.133a3.294,3.294,0,0,0,0,6.589h155.3a3.294,3.294,0,0,0,0-6.589Z" transform="translate(-247.181 -112.236)" fill="#8aa1c5"/>
    <path id="Path_4811" data-name="Path 4811" d="M450.822,458.471a3.294,3.294,0,0,0-.014,6.589H517.65a3.294,3.294,0,1,0,0-6.589Z" transform="translate(-247.11 -113.854)" fill="#8aa1c5"/>
    <path id="Path_4812" data-name="Path 4812" d="M385.075,492.585c-2.506,0-4.545,1.478-4.545,3.294s2.039,3.294,4.545,3.294h214.27c2.506,0,4.545-1.478,4.545-3.294s-2.039-3.294-4.545-3.294Z" transform="translate(-241.887 -116.442)" fill="#ccc"/>
    <path id="Path_4813" data-name="Path 4813" d="M385.075,513.924c-2.506,0-4.545,1.478-4.545,3.294s2.039,3.294,4.545,3.294h214.27c2.506,0,4.545-1.478,4.545-3.294s-2.039-3.294-4.545-3.294Z" transform="translate(-241.887 -118.06)" fill="#ccc"/>
    <circle id="Ellipse_493" data-name="Ellipse 493" cx="19.766" cy="19.766" r="19.766" transform="translate(140.537 109.175)" fill="#8aa1c5"/>
    <path id="Path_4814" data-name="Path 4814" d="M452.919,210.834a3.294,3.294,0,0,0,0,6.589h155.3a3.294,3.294,0,0,0,.014-6.589H452.919Z" transform="translate(-247.342 -94.803)" fill="#8aa1c5"/>
    <path id="Path_4815" data-name="Path 4815" d="M452.919,232.172a3.294,3.294,0,0,0,0,6.589h66.828a3.294,3.294,0,0,0,.014-6.589H452.919Z" transform="translate(-247.27 -96.69)" fill="#8aa1c5"/>
    <path id="Path_4816" data-name="Path 4816" d="M476.865,372.182H367.619l25.709-44.531a5.25,5.25,0,0,1,9.093,0L413.4,346.674l18.674-32.345a6.573,6.573,0,0,1,11.385,0Zm-105.885-1.941H473.5L441.783,315.3a4.631,4.631,0,0,0-8.022,0L413.4,350.555,400.74,328.621a3.308,3.308,0,0,0-5.731,0Z" transform="translate(-240.923 -102.715)" fill="#e6e6e6"/>
    <path id="Path_4817" data-name="Path 4817" d="M627.731,372.182H518.485l25.709-44.531a5.25,5.25,0,0,1,9.094,0l10.983,19.023,18.674-32.344a6.573,6.573,0,0,1,11.385,0Zm-105.885-1.941H624.37L592.648,315.3a4.631,4.631,0,0,0-8.022,0L564.27,350.556l-12.664-21.934a3.308,3.308,0,0,0-5.731,0Z" transform="translate(-252.552 -102.715)" fill="#e6e6e6"/>
    <path id="Path_4818" data-name="Path 4818" d="M476.017,371.09H359.56a4.858,4.858,0,0,1-4.852-4.852v-65a4.858,4.858,0,0,1,4.852-4.852H476.017a4.858,4.858,0,0,1,4.852,4.852v65A4.858,4.858,0,0,1,476.017,371.09ZM359.56,298.329a2.915,2.915,0,0,0-2.911,2.911v65a2.914,2.914,0,0,0,2.911,2.911H476.017a2.914,2.914,0,0,0,2.911-2.911v-65a2.915,2.915,0,0,0-2.911-2.911Z" transform="translate(-239.969 -101.612)" fill="#e6e6e6"/>
    <path id="Path_4819" data-name="Path 4819" d="M386.473,601.024a3.294,3.294,0,0,0,0,6.589H453.3a3.294,3.294,0,0,0,0-6.589Z" transform="translate(-242.071 -124.666)" fill="#e6e6e6"/>
    <path id="Path_4820" data-name="Path 4820" d="M386.473,621.977a3.294,3.294,0,0,0,0,6.589H453.3a3.294,3.294,0,0,0,0-6.589Z" transform="translate(-242.071 -126.256)" fill="#e6e6e6"/>
    <path id="Path_4821" data-name="Path 4821" d="M421.157,685.133A20.736,20.736,0,1,1,441.893,664.4h0A20.76,20.76,0,0,1,421.157,685.133Zm0-39.531a18.8,18.8,0,1,0,18.8,18.8h0a18.817,18.817,0,0,0-18.8-18.8Z" transform="translate(-243.344 -127.966)" fill="#e6e6e6"/>
    <path id="Path_4822" data-name="Path 4822" d="M608.357,687.909a3.294,3.294,0,0,0,0-6.589H541.53a3.294,3.294,0,1,0,0,6.589Z" transform="translate(-254.017 -131.027)" fill="#e6e6e6"/>
    <path id="Path_4823" data-name="Path 4823" d="M608.357,666.955a3.294,3.294,0,0,0,0-6.589H541.53a3.294,3.294,0,1,0,0,6.589Z" transform="translate(-254.017 -129.167)" fill="#e6e6e6"/>
    <path id="Path_4824" data-name="Path 4824" d="M576.214,601.024a20.736,20.736,0,1,1-20.736,20.736h0A20.76,20.76,0,0,1,576.214,601.024Zm0,39.531a18.8,18.8,0,1,0-18.8-18.8h0A18.817,18.817,0,0,0,576.214,640.555Z" transform="translate(-255.294 -124.727)" fill="#e6e6e6"/>
    <path id="Path_4825" data-name="Path 4825" d="M588.227,709.125H573.233L566.1,651.292h22.129Z" transform="translate(-56.477 -49.55)" fill="#ffb8b8"/>
    <path id="Path_4826" data-name="Path 4826" d="M556.373,709.1h33.333v18.207H542.583v-4.417a13.79,13.79,0,0,1,13.79-13.79Z" transform="translate(-54.739 -53.81)" fill="#01183a"/>
    <path id="Path_4827" data-name="Path 4827" d="M652.921,709.125H637.927l-7.133-57.833h22.129Z" transform="translate(-61.523 -49.55)" fill="#ffb8b8"/>
    <path id="Path_4828" data-name="Path 4828" d="M621.068,709.1H654.4v18.207H607.278v-4.417a13.79,13.79,0,0,1,13.79-13.79Z" transform="translate(-59.79 -53.81)" fill="#01183a"/>
    <path id="Path_4829" data-name="Path 4829" d="M776.237,615.286a11.468,11.468,0,0,0-.988-17.557l6.424-25.407-14.488-7.669-8.567,36.007a11.53,11.53,0,0,0,17.62,14.626Z" transform="translate(-270.559 -121.986)" fill="#ffb8b8"/>
    <path id="Path_4830" data-name="Path 4830" d="M653.238,485.836l-1.223,85.61-1.224,112.515-26.905-2.446L610.433,526.2l-17.122,155.32H565.534l-2.8-156.542,9.785-34.244Z" transform="translate(-56.507 -37.356)" fill="#01183a"/>
    <path id="Path_4831" data-name="Path 4831" d="M786.372,564.22l-.394-.177L801.312,459.16l-7.8-31.7a6.938,6.938,0,0,1,4.3-8.15l14.026-5.259,4.955-13.627,39.1,4.213.961,10.65c4.237,1.359,39.124,12.978,36.717,26.216-2.376,13.067-16.4,54.178-17.116,56.262L874,556.721l-.3.151c-.364.182-27.311,13.432-56.586,13.43C806.8,570.3,796.2,568.657,786.372,564.22Z" transform="translate(-273.041 -109.67)" fill="#0b2d61"/>
    <path id="Path_4832" data-name="Path 4832" d="M758.217,576.79,770.543,497.9c.073-.464,7.366-46.644,9.785-61.154,2.5-14.981,14.094-15.154,14.211-15.154h6.382l7.465,33.593-14.706,67.4-13.568,55.854Z" transform="translate(-270.718 -111.267)" fill="#0b2d61"/>
    <path id="Path_4833" data-name="Path 4833" d="M844.528,578.185a11.468,11.468,0,0,1,14-10.639l15.165-21.372,15.236,6.048L867.089,582.1a11.53,11.53,0,0,1-22.562-3.918Z" transform="translate(-277.355 -120.565)" fill="#ffb8b8"/>
    <path id="Path_4834" data-name="Path 4834" d="M862.489,551.777l26.964-45.349-10.986-29.295,14.962-39.9.552.237c.362.155,8.863,3.949,10.123,17.534L921.3,509.042l-45.888,59.53Z" transform="translate(-278.68 -112.417)" fill="#0b2d61"/>
    <circle id="Ellipse_494" data-name="Ellipse 494" cx="28.149" cy="28.149" r="28.149" transform="translate(523.569 267.389) rotate(-61.337)" fill="#ffb8b8"/>
    <path id="Path_4835" data-name="Path 4835" d="M817.306,345.849c2.914,3.448,7.845,4.422,12.394,4.82,9.239.81,22.672-.5,31.7-2.589.644,6.246-1.113,12.98,2.566,18.117a84.11,84.11,0,0,0,2.988-19.067,18.25,18.25,0,0,0-1.056-8.166c-1.124-2.539-3.575-4.694-6.4-4.717a16.035,16.035,0,0,1,7.153-3.058l-8.938-4.492,2.3-2.356-16.182-.99,4.687-2.978a101.63,101.63,0,0,0-21.292-.672c-3.3.243-6.745.707-9.417,2.618s-4.216,5.708-2.557,8.513a12.36,12.36,0,0,0-9.42,7.474c-1.191,3.02-1.082,6.374-.715,9.592a67.99,67.99,0,0,0,3.565,15.081" transform="translate(-274.433 -103.34)" fill="#232323"/>
  </g>
</svg>
