<svg id="seo-services" xmlns="http://www.w3.org/2000/svg" width="610" height="527.793" viewBox="0 0 610 527.793">
  <rect id="Rectangle_718" data-name="Rectangle 718" width="609.739" height="391.137" transform="translate(0.261 0.346)" fill="#e6e6e6"/>
  <rect id="Rectangle_719" data-name="Rectangle 719" width="574.811" height="318.939" transform="translate(17.724 49.404)" fill="#fff"/>
  <rect id="Rectangle_720" data-name="Rectangle 720" width="609.739" height="25.946" fill="#0b2d61"/>
  <circle id="Ellipse_527" data-name="Ellipse 527" cx="4.809" cy="4.809" r="4.809" transform="translate(14.472 8.456)" fill="#fff"/>
  <circle id="Ellipse_528" data-name="Ellipse 528" cx="4.809" cy="4.809" r="4.809" transform="translate(32.725 8.456)" fill="#fff"/>
  <circle id="Ellipse_529" data-name="Ellipse 529" cx="4.809" cy="4.809" r="4.809" transform="translate(50.979 8.456)" fill="#fff"/>
  <rect id="Rectangle_721" data-name="Rectangle 721" width="147.954" height="252.754" transform="translate(70.044 82.241)" fill="#e6e6e6"/>
  <rect id="Rectangle_722" data-name="Rectangle 722" width="123.295" height="69.573" transform="translate(243.044 82.343)" fill="#0b2d61"/>
  <rect id="Rectangle_723" data-name="Rectangle 723" width="123.295" height="74.857" transform="translate(243.044 171.122)" fill="#e6e6e6"/>
  <rect id="Rectangle_724" data-name="Rectangle 724" width="123.295" height="69.573" transform="translate(243.044 265.183)" fill="#e6e6e6"/>
  <rect id="Rectangle_725" data-name="Rectangle 725" width="147.954" height="110.149" transform="translate(392.263 82.328)" fill="#e6e6e6"/>
  <rect id="Rectangle_726" data-name="Rectangle 726" width="147.954" height="110.149" transform="translate(392.263 224.642)" fill="#e6e6e6"/>
  <path id="Path_5011" data-name="Path 5011" d="M755.712,379.132V355.419a31.776,31.776,0,1,1,63.552,0v23.713A4.273,4.273,0,0,1,815,383.4H759.98A4.273,4.273,0,0,1,755.712,379.132Z" transform="translate(-272.492 -178.838)" fill="#2f2e41"/>
  <path id="Path_5012" data-name="Path 5012" d="M591.967,534.441l-11.208,3.1-17.3-41.753L580,491.212Z" transform="translate(-29.985 -26.134)" fill="#ffb8b8"/>
  <path id="Path_5013" data-name="Path 5013" d="M14.121,0H36.548V14.121H0A14.121,14.121,0,0,1,14.121,0Z" transform="translate(528.275 514.184) rotate(-15.47)" fill="#0b2d61"/>
  <path id="Path_5014" data-name="Path 5014" d="M469.4,543.441H457.768l-5.533-44.854H469.4Z" transform="translate(-23.987 -26.513)" fill="#ffb8b8"/>
  <path id="Path_5015" data-name="Path 5015" d="M448.545,542.372h22.427v14.121H434.424A14.121,14.121,0,0,1,448.545,542.372Z" transform="translate(-23.065 -28.767)" fill="#0b2d61"/>
  <path id="Path_5016" data-name="Path 5016" d="M700.674,451.468a9.538,9.538,0,0,0,14.6.87l30.913,13.9-2.812-17.388-28.924-10.537a9.59,9.59,0,0,0-13.777,13.152Z" transform="translate(-269.327 -184.794)" fill="#ffb8b8"/>
  <path id="Path_5017" data-name="Path 5017" d="M765.86,555.833c-9.712,0-19.767-1.447-28.218-5.75a36.438,36.438,0,0,1-18.694-22.353c-4.4-13.943,1.149-27.641,6.518-40.887,3.327-8.208,6.47-15.961,7.285-23.6l.285-2.713c1.27-12.186,2.367-22.711,8.439-26.659,3.148-2.046,7.379-2.163,12.939-.358l52.212,16.961-1.92,99.113-.317.106C804.116,549.784,785.709,555.833,765.86,555.833Z" transform="translate(-270.518 -184.686)" fill="#2f2e41"/>
  <path id="Path_5018" data-name="Path 5018" d="M754.612,400.759s25.61-7.588,45.53-4.743c0,0-11.382,62.6-7.588,83.471s-65.923,8.063-51.7-11.857l4.743-23.713s-9.485-9.485-.949-20.868Z" transform="translate(-271.629 -182.685)" fill="#8aa1c5"/>
  <path id="Path_5019" data-name="Path 5019" d="M740.47,552.162l-31.564-5.918,11.02-84.806c.741-2.368,17.812-56.1,25.565-59.007a132.333,132.333,0,0,1,17.231-4.787l1.123-.225-6.329,9.494-25.2,60.378Z" transform="translate(-269.877 -182.862)" fill="#e4efff"/>
  <path id="Path_5020" data-name="Path 5020" d="M722.63,693.249l-40.782-6.8L704.735,593,738.79,465.2l.336,2.269c.027.169,3.208,16.865,50.415,9.457l.415-.065.115.4,57.057,201.6-46.469,7.745L758.275,539.519Z" transform="translate(-268.691 -186.713)" fill="#0b2d61"/>
  <path id="Path_5021" data-name="Path 5021" d="M784.436,567.87l.025-.717c.029-.8,2.834-80.031,1.9-111.9-.94-31.974,9.411-59.664,9.516-59.94l.084-.222.229-.066c13.393-3.826,25.012,7.593,25.128,7.709l.163.163-3.814,31.469L833.994,548.8Z" transform="translate(-273.97 -182.718)" fill="#e4efff"/>
  <circle id="Ellipse_530" data-name="Ellipse 530" cx="23.297" cy="23.297" r="23.297" transform="translate(485.17 157.401)" fill="#ffb8b8"/>
  <path id="Path_5022" data-name="Path 5022" d="M747.787,357.779a25.165,25.165,0,0,1,25.136-25.136h4.743A25.164,25.164,0,0,1,802.8,357.779v.474H792.779l-3.419-9.572-.684,9.572H783.5l-1.725-4.83-.345,4.83h-33.64Z" transform="translate(-272.084 -179.298)" fill="#2f2e41"/>
  <path id="Path_5023" data-name="Path 5023" d="M779.866,387.1a4.205,4.205,0,0,1-.334-4.465c5.026-9.559,12.063-27.223,2.722-38.117l-.671-.783H808.7v40.712L784.067,388.8a4.355,4.355,0,0,1-.755.067,4.251,4.251,0,0,1-3.444-1.76Z" transform="translate(-273.693 -179.898)" fill="#2f2e41"/>
  <path id="Path_5024" data-name="Path 5024" d="M653.384,210.611a128.072,128.072,0,1,0,7.261,189.141L817.74,532.308a11.8,11.8,0,1,0,15.239-18.025l-.017-.015-157.1-132.556a128.078,128.078,0,0,0-22.482-171.1ZM643.257,368.948A95.952,95.952,0,1,1,631.8,233.736h0a95.952,95.952,0,0,1,11.455,135.212Z" transform="translate(-256.385 -171.203)" fill="#8aa1c5"/>
  <path id="Path_5025" data-name="Path 5025" d="M509.19,384.256a95.957,95.957,0,0,1-16.282-128.991q-2.752,2.771-5.321,5.805A95.952,95.952,0,1,0,634.254,384.827q2.562-3.038,4.827-6.222a95.957,95.957,0,0,1-129.891,5.65Z" transform="translate(-257.013 -175.243)" opacity="0.3"/>
  <path id="Path_5026" data-name="Path 5026" d="M789.814,493.649a9.538,9.538,0,0,0,11.785-8.663l32.661-9.066-13.276-11.575L792,474.73a9.59,9.59,0,0,0-2.189,18.92Z" transform="translate(-273.868 -186.292)" fill="#ffb8b8"/>
  <path id="Path_5027" data-name="Path 5027" d="M804.418,485.69l-1.988-18.882,27.282-15.052-17.787-21.532,2.9-24.187,7.228-3.1.225.289c3.408,4.382,33.3,42.951,33.3,47.718,0,4.9-5.718,19.277-13.542,23.189-7.546,3.773-35.884,11.107-37.086,11.418Z" transform="translate(-274.896 -183.077)" fill="#e4efff"/>
</svg>
