<svg xmlns="http://www.w3.org/2000/svg" width="610" height="309.814" viewBox="0 0 610 309.814">
  <g id="infographic-design" transform="translate(0 -0.002)">
    <path id="Path_4850" data-name="Path 4850" d="M986.665,610.279c-17.777,12.807-40.815,13.45-63.084,11.876-3.109-.219-6.2-.477-9.256-.755-.018,0-.043,0-.062-.008-.147-.014-.294-.028-.435-.036l-1.888-.178.148.282.464.875c-.167-.293-.333-.579-.5-.872-.049-.088-.1-.175-.153-.263-5.769-10.039-11.49-20.446-12.95-31.91-1.509-11.9,2.731-25.371,13.2-31.219a21.128,21.128,0,0,1,4.336-1.816c.626-.19,1.261-.345,1.9-.481a22.65,22.65,0,0,1,26.34,29.443c8.878-9.1,7.222-23.873,4.16-36.216s-6.783-26.077-.542-37.163c3.469-6.171,9.57-10,16.417-11.542.21-.045.42-.09.63-.13a33.055,33.055,0,0,1,23.748,4.161c13.092,8.25,19.815,23.892,22,39.214C1014.654,568.2,1006.872,595.717,986.665,610.279Z" transform="translate(-401.957 -312.952)" fill="#f2f2f2"/>
    <path id="Path_4851" data-name="Path 4851" d="M988.269,571.111a56.194,56.194,0,0,1-3.878,15.835,48.792,48.792,0,0,1-7.576,12.374A62.514,62.514,0,0,1,952.8,616.635a89.976,89.976,0,0,1-21.878,5.878c-3.11-.219-6.2-.477-9.256-.755-.018,0-.043,0-.061-.008-.147-.014-.294-.028-.435-.036l-1.888-.177.148.282.464.875c-.167-.293-.333-.579-.5-.872-.049-.088-.1-.175-.153-.263a49.294,49.294,0,0,0,4.591-64.945c.626-.19,1.261-.345,1.9-.481a52.016,52.016,0,0,1,4.744,7.858,50.96,50.96,0,0,1,4.4,31.7,52.1,52.1,0,0,1-13.2,25.987c.594-.042,1.194-.09,1.78-.144,11.116-.942,22.209-3.331,32.291-8.226a58.158,58.158,0,0,0,21.787-17.877c6.106-8.421,8.8-18.551,9.259-28.846a121.738,121.738,0,0,0-3.455-32.956,138.328,138.328,0,0,0-11.623-31.662,1,1,0,0,1,.395-1.313.846.846,0,0,1,.63-.13.736.736,0,0,1,.486.416c.635,1.24,1.259,2.481,1.859,3.737a139.9,139.9,0,0,1,10.952,32.848C988.25,548.486,989.427,559.951,988.269,571.111Z" transform="translate(-409.305 -313.31)" fill="#fff"/>
    <path id="Path_4854" data-name="Path 4854" d="M230.649,222.062H136.107A10.949,10.949,0,0,0,125.174,233V381.561a10.949,10.949,0,0,0,10.933,10.933h94.542a10.949,10.949,0,0,0,10.933-10.933V233A10.949,10.949,0,0,0,230.649,222.062Zm9.647,159.5a9.659,9.659,0,0,1-9.647,9.647H136.107a9.659,9.659,0,0,1-9.647-9.647V233a9.659,9.659,0,0,1,9.647-9.647h94.542A9.659,9.659,0,0,1,240.3,233Z" transform="translate(-125.174 -213.557)" fill="#0b2d61"/>
    <path id="Path_4855" data-name="Path 4855" d="M545.649,392.494H451.107a10.946,10.946,0,0,1-10.933-10.933V233a10.946,10.946,0,0,1,10.933-10.933h94.542A10.946,10.946,0,0,1,556.583,233V381.561A10.946,10.946,0,0,1,545.649,392.494ZM451.107,223.348A9.658,9.658,0,0,0,441.46,233V381.561a9.658,9.658,0,0,0,9.647,9.647h94.542a9.658,9.658,0,0,0,9.647-9.647V233a9.658,9.658,0,0,0-9.647-9.647Z" transform="translate(-237.896 -213.557)" fill="#0b2d61"/>
    <path id="Path_4856" data-name="Path 4856" d="M371.049,355.348H331.817a.643.643,0,0,1,0-1.286h39.232a.643.643,0,1,1,0,1.286Z" transform="translate(-198.864 -260.779)" fill="#0b2d61"/>
    <path id="Path_4857" data-name="Path 4857" d="M379.818,363.2a.643.643,0,0,1-.39-1.155l20.467-15.592a1.929,1.929,0,0,0,0-3.069L379.427,327.79a.643.643,0,1,1,.779-1.023l20.467,15.592a3.215,3.215,0,0,1,0,5.116l-20.467,15.592a.639.639,0,0,1-.389.132Z" transform="translate(-216.028 -250.982)" fill="#0b2d61"/>
    <path id="Path_4858" data-name="Path 4858" d="M685.049,355.348H645.817a.643.643,0,1,1,0-1.286h39.232a.643.643,0,1,1,0,1.286Z" transform="translate(-311.187 -260.779)" fill="#0b2d61"/>
    <path id="Path_4859" data-name="Path 4859" d="M693.818,363.2a.643.643,0,0,1-.39-1.155l20.467-15.592a1.929,1.929,0,0,0,0-3.069L693.427,327.79a.643.643,0,1,1,.779-1.023l20.467,15.592a3.215,3.215,0,0,1,0,5.116l-20.467,15.592a.639.639,0,0,1-.389.132Z" transform="translate(-328.342 -250.982)" fill="#0b2d61"/>
    <path id="Path_4860" data-name="Path 4860" d="M533.151,297.362h-22.51a5.473,5.473,0,0,1-5.467-5.467V270.029a5.473,5.473,0,0,1,5.467-5.467h22.51a5.473,5.473,0,0,1,5.467,5.467V291.9a5.473,5.473,0,0,1-5.467,5.467Z" transform="translate(-261.102 -228.723)" fill="#0b2d61"/>
    <path id="Path_4861" data-name="Path 4861" d="M537.688,297.219a.641.641,0,0,1-.455-.188L506.363,266.16a.643.643,0,0,1,.909-.909l30.871,30.871a.643.643,0,0,1-.455,1.1Z" transform="translate(-261.459 -228.902)" fill="#fff"/>
    <path id="Path_4862" data-name="Path 4862" d="M506.817,297.219a.643.643,0,0,1-.455-1.1l30.871-30.871a.643.643,0,0,1,.909.909l-30.871,30.871a.641.641,0,0,1-.455.188Z" transform="translate(-261.459 -228.902)" fill="#fff"/>
    <path id="Path_4863" data-name="Path 4863" d="M535.517,359.141h-41.8a8.039,8.039,0,0,1,0-16.079h41.8a8.039,8.039,0,0,1,0,16.078Zm-41.8-14.792a6.753,6.753,0,1,0,0,13.506h41.8a6.753,6.753,0,1,0,0-13.506Z" transform="translate(-254.141 -256.85)" fill="#0b2d61"/>
    <path id="Path_4864" data-name="Path 4864" d="M535.517,397.141h-41.8a8.039,8.039,0,0,1,0-16.079h41.8a8.039,8.039,0,0,1,0,16.078Zm-41.8-14.792a6.753,6.753,0,1,0,0,13.506h41.8a6.753,6.753,0,1,0,0-13.506Z" transform="translate(-254.141 -270.443)" fill="#0b2d61"/>
    <path id="Path_4865" data-name="Path 4865" d="M535.517,435.141h-41.8a8.039,8.039,0,1,1,0-16.078h41.8a8.039,8.039,0,0,1,0,16.078Zm-41.8-14.792a6.753,6.753,0,1,0,0,13.506h41.8a6.753,6.753,0,1,0,0-13.506Z" transform="translate(-254.141 -284.035)" fill="#0b2d61"/>
    <path id="Path_4866" data-name="Path 4866" d="M849.182,208.988l-93.266,15.479a10.949,10.949,0,0,0-9,12.576L771.245,383.6a10.949,10.949,0,0,0,12.576,9l93.266-15.479a10.949,10.949,0,0,0,9-12.576L861.758,217.984a10.949,10.949,0,0,0-12.576-9Zm35.631,155.767a9.659,9.659,0,0,1-7.937,11.1L783.61,391.33a9.659,9.659,0,0,1-11.1-7.938L748.189,236.832a9.659,9.659,0,0,1,7.938-11.1l93.266-15.479a9.659,9.659,0,0,1,11.1,7.938Z" transform="translate(-347.758 -208.839)" fill="#0b2d61"/>
    <path id="Path_4867" data-name="Path 4867" d="M852.385,293.651l-41.24,6.844a8.039,8.039,0,1,1-2.633-15.862l41.24-6.844a8.039,8.039,0,1,1,2.633,15.862ZM808.724,285.9a6.753,6.753,0,0,0,2.211,13.324l41.24-6.844a6.753,6.753,0,1,0-2.211-13.324Z" transform="translate(-367.228 -233.404)" fill="#ccc"/>
    <path id="Path_4868" data-name="Path 4868" d="M859.917,339.03l-41.24,6.844a8.039,8.039,0,0,1-2.633-15.862l41.24-6.844a8.039,8.039,0,1,1,2.632,15.862Zm-43.662-7.748a6.753,6.753,0,0,0,2.211,13.324l41.24-6.845a6.753,6.753,0,1,0-2.211-13.324Z" transform="translate(-369.922 -249.697)" fill="#ccc"/>
    <path id="Path_4869" data-name="Path 4869" d="M867.448,384.409l-41.24,6.844a8.039,8.039,0,0,1-2.633-15.862l41.24-6.844a8.039,8.039,0,1,1,2.633,15.862Zm-43.662-7.748A6.753,6.753,0,0,0,826,389.985l41.24-6.844a6.753,6.753,0,1,0-2.211-13.324Z" transform="translate(-372.617 -265.93)" fill="#ccc"/>
    <path id="Path_4870" data-name="Path 4870" d="M874.979,429.789l-41.24,6.844a8.039,8.039,0,0,1-2.633-15.862l41.24-6.844a8.039,8.039,0,1,1,2.633,15.862Zm-43.662-7.748a6.753,6.753,0,0,0,2.211,13.324l41.24-6.845a6.753,6.753,0,1,0-2.211-13.324Z" transform="translate(-375.311 -282.164)" fill="#ccc"/>
    <path id="Path_4871" data-name="Path 4871" d="M863.335,235.724,749.766,254.573a.643.643,0,1,1-.211-1.269l113.569-18.849a.643.643,0,1,1,.211,1.269Z" transform="translate(-348.413 -217.976)" fill="#0b2d61"/>
    <circle id="Ellipse_503" data-name="Ellipse 503" cx="4.502" cy="4.502" r="4.502" transform="translate(409.285 20.011)" fill="#0b2d61"/>
    <path id="Path_4872" data-name="Path 4872" d="M901.337,219.048l-12.689,2.106a.643.643,0,1,1-.211-1.269l12.689-2.106a.643.643,0,0,1,.211,1.269Z" transform="translate(-398.12 -212.025)" fill="#0b2d61"/>
    <path id="Path_4873" data-name="Path 4873" d="M902.32,224.967l-12.689,2.106a.643.643,0,1,1-.211-1.269l12.689-2.106a.643.643,0,0,1,.211,1.269Z" transform="translate(-398.47 -214.137)" fill="#0b2d61"/>
    <path id="Path_4874" data-name="Path 4874" d="M903.3,230.886l-12.689,2.106a.643.643,0,1,1-.211-1.269l12.689-2.106a.643.643,0,0,1,.211,1.269Z" transform="translate(-398.821 -216.25)" fill="#0b2d61"/>
    <path id="Path_4875" data-name="Path 4875" d="M223.376,339.374H175.141a5.473,5.473,0,0,1-5.467-5.467V285.029a5.473,5.473,0,0,1,5.467-5.467h48.236a5.473,5.473,0,0,1,5.467,5.467v48.879a5.473,5.473,0,0,1-5.467,5.467Z" transform="translate(-141.055 -234.076)" fill="#0b2d61"/>
    <path id="Path_4876" data-name="Path 4876" d="M220.017,420.141h-41.8a8.039,8.039,0,0,1,0-16.079h41.8a8.039,8.039,0,1,1,0,16.078Zm-41.8-14.792a6.753,6.753,0,1,0,0,13.506h41.8a6.753,6.753,0,1,0,0-13.506Z" transform="translate(-141.233 -278.67)" fill="#0b2d61"/>
    <path id="Path_4877" data-name="Path 4877" d="M227.914,338.945a.641.641,0,0,1-.455-.188l-56.6-56.6a.643.643,0,0,1,.91-.909l56.6,56.6a.643.643,0,0,1-.455,1.1Z" transform="translate(-141.411 -234.611)" fill="#fff"/>
    <path id="Path_4878" data-name="Path 4878" d="M171.317,338.945a.643.643,0,0,1-.455-1.1l56.6-56.6a.643.643,0,0,1,.91.909l-56.6,56.6A.641.641,0,0,1,171.317,338.945Z" transform="translate(-141.411 -234.611)" fill="#fff"/>
    <path id="Path_4879" data-name="Path 4879" d="M918.443,446.91a6.909,6.909,0,0,0-5.756-8.894l-33.014-38.578-7.7,8.085,32.884,36.989a6.946,6.946,0,0,0,13.586,2.4Z" transform="translate(-392.436 -277.039)" fill="#a0616a"/>
    <path id="Path_4880" data-name="Path 4880" d="M885.283,402.073l-11.8,8.625a2.894,2.894,0,0,1-4.269-.99l-6.782-12.9a8.038,8.038,0,1,1,13.006-9.447l10.2,10.342a2.894,2.894,0,0,1-.354,4.368Z" transform="translate(-388.338 -271.517)" fill="#0b2d61"/>
    <circle id="Ellipse_504" data-name="Ellipse 504" cx="15.796" cy="15.796" r="15.796" transform="translate(458.389 73.243)" fill="#a0616a"/>
    <path id="Path_4881" data-name="Path 4881" d="M857.082,430.2a2.923,2.923,0,0,1-.489-.041L828.877,425.5a2.889,2.889,0,0,1-2.414-2.809c-.084-6.341.39-22.348,6.6-34.007a17.037,17.037,0,0,1,31.64,11.825,252.751,252.751,0,0,0-4.761,27.147,2.892,2.892,0,0,1-2.863,2.55Z" transform="translate(-376.032 -269.959)" fill="#01183a"/>
    <path id="Path_4882" data-name="Path 4882" d="M776.33,374.486a6.759,6.759,0,0,1,.154,1.055l27.628,15.938,6.715-3.866,7.159,9.372-11.223,8a5.145,5.145,0,0,1-6.173-.15L772.1,382.359a6.751,6.751,0,1,1,4.229-7.873Z" transform="translate(-353.351 -266.237)" fill="#a0616a"/>
    <path id="Path_4883" data-name="Path 4883" d="M827.477,395.372a2.891,2.891,0,0,1,1.422-1.945l12.678-7.089a8.038,8.038,0,1,1,9.857,12.7l-10.109,10.5a2.894,2.894,0,0,1-4.376-.24l-8.929-11.573A2.891,2.891,0,0,1,827.477,395.372Z" transform="translate(-376.365 -271.73)" fill="#0b2d61"/>
    <path id="Path_4884" data-name="Path 4884" d="M676.132,452.814h-7.885L666.391,422.5l9.742-.1Z" transform="translate(-238.35 -151.123)" fill="#a0616a"/>
    <path id="Path_4885" data-name="Path 4885" d="M795.731,684.742H770.307v-.322a9.9,9.9,0,0,1,9.9-9.9h15.528Z" transform="translate(-355.935 -375.408)" fill="#01183a"/>
    <path id="Path_4886" data-name="Path 4886" d="M792.081,452.814H784.2L780.445,422.4h11.637Z" transform="translate(-279.269 -151.123)" fill="#a0616a"/>
    <path id="Path_4887" data-name="Path 4887" d="M912.731,684.742H887.307v-.322a9.9,9.9,0,0,1,9.9-9.9h15.528Z" transform="translate(-397.908 -375.408)" fill="#01183a"/>
    <path id="Path_4888" data-name="Path 4888" d="M866.241,579.888a2.909,2.909,0,0,1-2.735-1.938l-25.127-71.792a1.608,1.608,0,0,0-2.8-.433l-24.51,32.68a2.274,2.274,0,0,0-.4.859l-7.81,34.845a2.9,2.9,0,0,1-2.693,2.258l-9.354.425a2.861,2.861,0,0,1-2.184-.85,2.9,2.9,0,0,1-.838-2.188l1.631-31.8a74.218,74.218,0,0,1,7.784-29.566,166.79,166.79,0,0,0,17.452-65.715l.02-.356,28.782,4.579,4.321,5.982a82.729,82.729,0,0,0,6.254,7.728c5.5,5.966,7.155,13.945,7.571,19.588a163.046,163.046,0,0,0,2.939,20.638l14.274,70.142a2.894,2.894,0,0,1-2.42,3.62l-9.785,1.276A2.856,2.856,0,0,1,866.241,579.888Z" transform="translate(-362.257 -293.968)" fill="#01183a"/>
    <path id="Path_4889" data-name="Path 4889" d="M889.011,319.458a70.041,70.041,0,0,1-2.769-11.67,7.9,7.9,0,0,1,2.086-6.38c3.144-2.978,8.485-1.56,11.773,1.259,4.751,4.074,7.121,10.334,8.017,16.529s.5,12.493.717,18.748,1.11,12.687,4.3,18.072,9.107,9.519,15.348,9.061a10.8,10.8,0,0,0,6.762-2.866A7.84,7.84,0,0,0,937.6,355.4c3.19,5.713,1.573,13.455-3.185,17.946s-12.078,5.76-18.334,3.843-11.4-6.725-14.48-12.5A38.38,38.38,0,0,1,897.56,345.7c.125-5.023.979-10.087.13-15.04s-3.948-9.981-8.836-11.147Z" transform="translate(-397.517 -241.378)" fill="#2f2e41"/>
    <path id="Path_4890" data-name="Path 4890" d="M849,330.5a6.252,6.252,0,0,1-6.888,4.029,8.077,8.077,0,0,1-6.1-5.6,11.537,11.537,0,0,1,.9-8.458,13.171,13.171,0,0,1,7.536-6.712,10.814,10.814,0,0,1,9.833,1.571,3.616,3.616,0,0,1,2.527-2.643,6.91,6.91,0,0,1,3.792.056,15.625,15.625,0,0,1,8.7,6.327,25.426,25.426,0,0,1,3.942,10.16c.97,5.447.612,11.4-2.446,16.008s-9.317,7.331-14.394,5.134a6.707,6.707,0,0,1,1.3-4.65,14.185,14.185,0,0,0,2.229-4.384c.333-1.615-.306-3.591-1.868-4.119-1.333-.451-2.754.279-4.158.368a4.556,4.556,0,0,1-4.37-6.565Z" transform="translate(-379.3 -245.905)" fill="#2f2e41"/>
  </g>
</svg>
