<svg xmlns="http://www.w3.org/2000/svg" width="802.999" height="514" viewBox="0 0 802.999 514">
  <g id="slider_2" data-name="slider 2" transform="translate(4726.052 16126)">
    <g id="undraw_work_time_re_hdyv" transform="translate(-4726.052 -16126)">
      <path id="Path_3042" data-name="Path 3042" d="M341.3,346.74a132.606,132.606,0,0,1,10.975-41.851q2.477-5.533,5.453-10.823a.808.808,0,0,0-1.395-.815,134.439,134.439,0,0,0-14.96,41.27q-1.123,6.067-1.688,12.219C339.591,347.775,341.207,347.768,341.3,346.74Z" transform="translate(-288.535 -206.202)" fill="#e6e6e6"/>
      <circle id="Ellipse_180" data-name="Ellipse 180" cx="10.229" cy="10.229" r="10.229" transform="translate(62.877 70.083)" fill="#e6e6e6"/>
      <path id="Path_3043" data-name="Path 3043" d="M342.22,345.483a86.03,86.03,0,0,1,7.12-27.151q1.607-3.59,3.537-7.021a.524.524,0,0,0-.9-.529,87.217,87.217,0,0,0-9.705,26.774q-.729,3.936-1.1,7.927c-.062.671.986.667,1.048,0Z" transform="translate(-288.407 -204.689)" fill="#e6e6e6"/>
      <circle id="Ellipse_181" data-name="Ellipse 181" cx="6.636" cy="6.636" r="6.636" transform="translate(60.372 95.044)" fill="#e6e6e6"/>
      <path id="Path_3044" data-name="Path 3044" d="M342.007,344.826a86.03,86.03,0,0,1-11.085-25.787q-.941-3.819-1.529-7.712a.524.524,0,0,0-1.039.139,87.217,87.217,0,0,0,8.815,27.08q1.846,3.552,4.012,6.924c.364.567,1.188-.081.826-.644Z" transform="translate(-289.516 -204.658)" fill="#e6e6e6"/>
      <circle id="Ellipse_182" data-name="Ellipse 182" cx="6.636" cy="6.636" r="6.636" transform="translate(32.192 94.579)" fill="#e6e6e6"/>
      <path id="Path_3045" data-name="Path 3045" d="M322.169,348.954V335.916a4.9,4.9,0,0,1,4.89-4.89h30.424a4.895,4.895,0,0,1,4.889,4.89v13.039a4.9,4.9,0,0,1-4.89,4.889H327.059a4.895,4.895,0,0,1-4.889-4.889Z" transform="translate(-290.051 -202.934)" fill="#f2f2f2"/>
      <path id="Path_3046" data-name="Path 3046" d="M355.1,276.047H342.059a4.9,4.9,0,0,1-4.889-4.889V217.916a4.9,4.9,0,0,1,4.89-4.89H355.1a4.9,4.9,0,0,1,4.889,4.89v53.241A4.9,4.9,0,0,1,355.1,276.047Z" transform="translate(-288.753 -213.026)" fill="#f2f2f2"/>
      <rect id="Rectangle_319" data-name="Rectangle 319" width="21.731" height="4.346" transform="translate(48.96 10.322)" fill="#ccc"/>
      <rect id="Rectangle_320" data-name="Rectangle 320" width="21.731" height="4.346" transform="translate(48.96 44.005)" fill="#ccc"/>
      <path id="Path_3047" data-name="Path 3047" d="M385.1,276.047H372.059a4.9,4.9,0,0,1-4.89-4.889V217.916a4.9,4.9,0,0,1,4.89-4.89H385.1a4.9,4.9,0,0,1,4.89,4.89v53.241A4.9,4.9,0,0,1,385.1,276.047Z" transform="translate(-286.156 -213.026)" fill="#f2f2f2"/>
      <rect id="Rectangle_321" data-name="Rectangle 321" width="21.731" height="4.346" transform="translate(81.556 10.322)" fill="#ccc"/>
      <rect id="Rectangle_322" data-name="Rectangle 322" width="21.731" height="4.346" transform="translate(81.556 44.005)" fill="#ccc"/>
      <path id="Path_3048" data-name="Path 3048" d="M415.1,276.047H402.059a4.9,4.9,0,0,1-4.889-4.889V217.916a4.9,4.9,0,0,1,4.89-4.89H415.1a4.895,4.895,0,0,1,4.889,4.89v53.241A4.9,4.9,0,0,1,415.1,276.047Z" transform="translate(-283.559 -213.026)" fill="#f2f2f2"/>
      <rect id="Rectangle_323" data-name="Rectangle 323" width="21.731" height="4.346" transform="translate(114.153 10.322)" fill="#ccc"/>
      <rect id="Rectangle_324" data-name="Rectangle 324" width="21.731" height="4.346" transform="translate(114.153 44.005)" fill="#ccc"/>
      <path id="Path_3049" data-name="Path 3049" d="M431.1,357.046H418.059a4.895,4.895,0,0,1-4.89-4.889V298.915a4.9,4.9,0,0,1,4.89-4.889H431.1a4.9,4.9,0,0,1,4.89,4.89v53.241A4.9,4.9,0,0,1,431.1,357.046Z" transform="translate(-282.174 -206.106)" fill="#f2f2f2"/>
      <rect id="Rectangle_325" data-name="Rectangle 325" width="21.731" height="4.346" transform="translate(131.538 98.333)" fill="#ccc"/>
      <rect id="Rectangle_326" data-name="Rectangle 326" width="21.731" height="4.346" transform="translate(131.538 131.896)" fill="#ccc"/>
      <path id="Path_3050" data-name="Path 3050" d="M461.1,357.046H448.059a4.895,4.895,0,0,1-4.889-4.889V298.915a4.9,4.9,0,0,1,4.89-4.889H461.1a4.9,4.9,0,0,1,4.889,4.89v53.241A4.9,4.9,0,0,1,461.1,357.046Z" transform="translate(-279.578 -206.106)" fill="#f2f2f2"/>
      <rect id="Rectangle_327" data-name="Rectangle 327" width="21.731" height="4.346" transform="translate(164.135 98.333)" fill="#ccc"/>
      <rect id="Rectangle_328" data-name="Rectangle 328" width="21.731" height="4.346" transform="translate(164.135 131.896)" fill="#ccc"/>
      <path id="Path_3051" data-name="Path 3051" d="M491.1,357.046H478.059a4.895,4.895,0,0,1-4.89-4.889V298.915a4.9,4.9,0,0,1,4.89-4.889H491.1a4.9,4.9,0,0,1,4.889,4.89v53.241A4.9,4.9,0,0,1,491.1,357.046Z" transform="translate(-276.981 -206.106)" fill="#f2f2f2"/>
      <rect id="Rectangle_329" data-name="Rectangle 329" width="21.731" height="4.346" transform="translate(196.732 98.333)" fill="#ccc"/>
      <rect id="Rectangle_330" data-name="Rectangle 330" width="21.731" height="4.346" transform="translate(196.732 131.896)" fill="#ccc"/>
      <path id="Path_3052" data-name="Path 3052" d="M352.1,438.047H339.059a4.9,4.9,0,0,1-4.889-4.89V379.916a4.9,4.9,0,0,1,4.89-4.89H352.1a4.9,4.9,0,0,1,4.889,4.889v53.241a4.9,4.9,0,0,1-4.889,4.889Z" transform="translate(-289.013 -199.185)" fill="#f2f2f2"/>
      <rect id="Rectangle_331" data-name="Rectangle 331" width="21.731" height="4.346" transform="translate(45.7 186.174)" fill="#ccc"/>
      <rect id="Rectangle_332" data-name="Rectangle 332" width="21.731" height="4.346" transform="translate(45.7 219.827)" fill="#ccc"/>
      <path id="Path_3053" data-name="Path 3053" d="M382.1,438.047H369.059a4.9,4.9,0,0,1-4.889-4.89V379.916a4.9,4.9,0,0,1,4.89-4.89H382.1a4.9,4.9,0,0,1,4.889,4.889v53.241a4.9,4.9,0,0,1-4.89,4.889Z" transform="translate(-286.416 -199.185)" fill="#f2f2f2"/>
      <rect id="Rectangle_333" data-name="Rectangle 333" width="21.731" height="4.346" transform="translate(78.297 186.174)" fill="#ccc"/>
      <rect id="Rectangle_334" data-name="Rectangle 334" width="21.731" height="4.346" transform="translate(78.297 219.827)" fill="#ccc"/>
      <path id="Path_3054" data-name="Path 3054" d="M412.1,438.047H399.059a4.9,4.9,0,0,1-4.889-4.89V379.916a4.9,4.9,0,0,1,4.889-4.89H412.1a4.9,4.9,0,0,1,4.889,4.889v53.241a4.9,4.9,0,0,1-4.89,4.889Z" transform="translate(-283.819 -199.185)" fill="#f2f2f2"/>
      <rect id="Rectangle_335" data-name="Rectangle 335" width="21.731" height="4.346" transform="translate(110.894 186.174)" fill="#ccc"/>
      <rect id="Rectangle_336" data-name="Rectangle 336" width="21.731" height="4.346" transform="translate(110.894 219.827)" fill="#ccc"/>
      <path id="Path_3055" data-name="Path 3055" d="M445.1,276.047H432.059a4.9,4.9,0,0,1-4.889-4.889V217.916a4.9,4.9,0,0,1,4.89-4.89H445.1a4.9,4.9,0,0,1,4.889,4.89v53.241A4.9,4.9,0,0,1,445.1,276.047Z" transform="translate(-280.962 -213.026)" fill="#f2f2f2"/>
      <rect id="Rectangle_337" data-name="Rectangle 337" width="21.731" height="4.346" transform="translate(146.75 10.322)" fill="#ccc"/>
      <rect id="Rectangle_338" data-name="Rectangle 338" width="21.731" height="4.346" transform="translate(146.75 44.005)" fill="#ccc"/>
      <path id="Path_3056" data-name="Path 3056" d="M475.1,276.047H462.059a4.9,4.9,0,0,1-4.889-4.889V217.916a4.9,4.9,0,0,1,4.889-4.89H475.1a4.9,4.9,0,0,1,4.89,4.89v53.241A4.9,4.9,0,0,1,475.1,276.047Z" transform="translate(-278.366 -213.026)" fill="#f2f2f2"/>
      <rect id="Rectangle_339" data-name="Rectangle 339" width="21.731" height="4.346" transform="translate(179.347 10.322)" fill="#ccc"/>
      <rect id="Rectangle_340" data-name="Rectangle 340" width="21.731" height="4.346" transform="translate(179.347 44.005)" fill="#ccc"/>
      <path id="Path_3057" data-name="Path 3057" d="M505.1,276.047H492.059a4.895,4.895,0,0,1-4.89-4.889V217.916a4.895,4.895,0,0,1,4.89-4.89H505.1a4.9,4.9,0,0,1,4.89,4.89v53.241A4.9,4.9,0,0,1,505.1,276.047Z" transform="translate(-275.769 -213.026)" fill="#f2f2f2"/>
      <rect id="Rectangle_341" data-name="Rectangle 341" width="21.731" height="4.346" transform="translate(211.944 10.322)" fill="#ccc"/>
      <rect id="Rectangle_342" data-name="Rectangle 342" width="21.731" height="4.346" transform="translate(211.944 44.005)" fill="#ccc"/>
      <path id="Path_3058" data-name="Path 3058" d="M535.1,276.047H522.059a4.9,4.9,0,0,1-4.89-4.889V217.916a4.895,4.895,0,0,1,4.89-4.89H535.1a4.9,4.9,0,0,1,4.89,4.89v53.241A4.9,4.9,0,0,1,535.1,276.047Z" transform="translate(-273.172 -213.026)" fill="#f2f2f2"/>
      <rect id="Rectangle_343" data-name="Rectangle 343" width="21.731" height="4.346" transform="translate(244.541 10.322)" fill="#ccc"/>
      <rect id="Rectangle_344" data-name="Rectangle 344" width="21.731" height="4.346" transform="translate(244.541 44.005)" fill="#ccc"/>
      <path id="Path_3059" data-name="Path 3059" d="M603.366,272.7H293.7a1.087,1.087,0,0,1,0-2.173h309.67a1.087,1.087,0,0,1,0,2.173Z" transform="translate(-292.61 -208.049)" fill="#ccc"/>
      <path id="Path_3060" data-name="Path 3060" d="M603.366,353.7H293.7a1.087,1.087,0,0,1,0-2.173h309.67a1.087,1.087,0,0,1,0,2.173Z" transform="translate(-292.61 -201.174)" fill="#ccc"/>
      <path id="Path_3061" data-name="Path 3061" d="M603.366,434.7H293.7a1.087,1.087,0,0,1,0-2.173h309.67a1.087,1.087,0,0,1,0,2.173Z" transform="translate(-292.61 -194.243)" fill="#ccc"/>
      <path id="Path_3062" data-name="Path 3062" d="M572.985,592.72c0-8.4-31.621-15.212-70.626-15.212s-70.626,6.811-70.626,15.212c0,5.384,13,10.112,32.6,12.815V688.88a7.063,7.063,0,0,0,14.125,0V607.036c7.467.578,15.513.9,23.9.9s16.437-.317,23.9-.9V688.88a7.063,7.063,0,0,0,14.125,0V605.535C559.985,602.831,572.985,598.1,572.985,592.72Z" transform="translate(-280.568 -181.943)" fill="#ccc"/>
      <path id="Path_3063" data-name="Path 3063" d="M319.563,465h13.321l6.337-51.381h-19.66Z" transform="translate(-40.735 35.336)" fill="#a0616a"/>
      <path id="Path_3064" data-name="Path 3064" d="M0,0H41.866V16.175H16.176A16.176,16.176,0,0,1,0,0H0Z" transform="translate(317.837 512.706) rotate(179.997)" fill="#273a57"/>
      <path id="Path_3065" data-name="Path 3065" d="M339.927,458.438l12.71-3.989L343.3,403.528l-18.758,5.886Z" transform="translate(-40.304 34.463)" fill="#a0616a"/>
      <path id="Path_3066" data-name="Path 3066" d="M0,0H41.866V16.175H16.176A16.175,16.175,0,0,1,0,0H0Z" transform="translate(340.548 493.025) rotate(162.577)" fill="#273a57"/>
      <path id="Path_3067" data-name="Path 3067" d="M567.8,653.631l-24.368-63.967c-5.467,1.284-51.315,11.429-66.67-4.92-5.262-5.6-6.289-13.722-3.051-24.13l8.961-11.261.279.015c3.388.178,83.052,4.643,88.512,28.673,4.6,20.258,13.013,58.028,15.481,69.122a4.907,4.907,0,0,1-3.058,5.632l-9.8,3.675a4.846,4.846,0,0,1-1.708.311,4.9,4.9,0,0,1-4.578-3.148Z" transform="translate(-277.093 -184.38)" fill="#273a57"/>
      <path id="Path_3068" data-name="Path 3068" d="M554.8,660.631l-24.369-63.967c-5.467,1.284-51.315,11.428-66.67-4.92-5.262-5.6-6.289-13.722-3.051-24.13l8.961-11.261.279.015c3.388.178,83.052,4.643,88.513,28.673,4.6,20.258,13.013,58.028,15.481,69.122a4.907,4.907,0,0,1-3.058,5.632l-9.8,3.675a4.85,4.85,0,0,1-1.708.311,4.9,4.9,0,0,1-4.578-3.148Z" transform="translate(-278.219 -183.774)" fill="#273a57"/>
      <path id="Path_3069" data-name="Path 3069" d="M583.822,511.562a11.428,11.428,0,0,0-.961,1.523l-53.59,5.646-7.714-10.577-17.483,9.556,15.152,25.666,65.723-16.758a11.4,11.4,0,1,0-1.126-15.056Z" transform="translate(-274.306 -187.887)" fill="#a0616a"/>
      <path id="Path_3070" data-name="Path 3070" d="M460.749,578.2a4.9,4.9,0,0,1-1.976-4.725c3.023-19.931-.455-48.481-3.906-68.923A26.942,26.942,0,0,1,484.812,473.3a86.794,86.794,0,0,1,10.771,2.123h0a26.725,26.725,0,0,1,20.19,26.586c-.516,19.726,3.489,44.338,5.235,54a4.91,4.91,0,0,1-.906,3.815,4.772,4.772,0,0,1-3.363,1.9c-19.35,1.975-40.216,11.411-50.932,16.86a4.89,4.89,0,0,1-2.227.544A4.812,4.812,0,0,1,460.749,578.2Z" transform="translate(-278.598 -190.838)" fill="#0b2d61"/>
      <path id="Path_3071" data-name="Path 3071" d="M509.477,526.1a4.858,4.858,0,0,1-2.688-2.6L496,498.565a12.5,12.5,0,0,1,22.934-9.927l10.791,24.928A4.9,4.9,0,0,1,527.179,520l-13.96,6.043a4.855,4.855,0,0,1-3.742.059Z" transform="translate(-275.094 -190.111)" fill="#0b2d61"/>
      <path id="Path_3072" data-name="Path 3072" d="M536.822,509.562a11.431,11.431,0,0,0-.961,1.523l-53.59,5.646-7.714-10.577-17.483,9.556,15.152,25.666,65.723-16.757a11.4,11.4,0,1,0-1.126-15.056Z" transform="translate(-278.374 -188.058)" fill="#a0616a"/>
      <path id="Path_3073" data-name="Path 3073" d="M462.477,527.1a4.857,4.857,0,0,1-2.688-2.6L449,499.565a12.5,12.5,0,1,1,22.934-9.927l10.791,24.928A4.9,4.9,0,0,1,480.179,521l-13.96,6.043a4.856,4.856,0,0,1-3.742.059Z" transform="translate(-279.162 -190.025)" fill="#0b2d61"/>
      <circle id="Ellipse_183" data-name="Ellipse 183" cx="26.687" cy="26.687" r="26.687" transform="translate(177.541 220.706)" fill="#a0616a"/>
      <path id="Path_3074" data-name="Path 3074" d="M464.053,462.191a2.32,2.32,0,0,1,2.017-3.063,5.357,5.357,0,0,1,3.777,1.863,15.033,15.033,0,0,0,3.337,2.865c1.291.651,3.042.558,3.778-.683.691-1.165.218-2.725-.2-4.078a40.1,40.1,0,0,1-1.771-10.616c-.121-4.021.447-8.217,2.673-11.352,2.873-4.047,8.01-5.584,12.871-5.472s9.644,1.612,14.459,2.561c1.662.327,3.616.495,4.728-.793,1.182-1.37.748-3.587.245-5.437-1.3-4.8-2.689-9.762-5.721-13.639a20.534,20.534,0,0,0-13.1-7.378,31.443,31.443,0,0,0-14.628,1.661A39.22,39.22,0,0,0,457.3,422.015a31.767,31.767,0,0,0-6.061,23.47A28.976,28.976,0,0,0,461.98,463.8Z" transform="translate(-278.905 -196.474)"/>
      <path id="Path_3075" data-name="Path 3075" d="M369.357,521.193a132.607,132.607,0,0,1,10.975-41.851q2.477-5.533,5.452-10.823a.808.808,0,0,0-1.395-.815,134.438,134.438,0,0,0-14.96,41.27q-1.123,6.067-1.688,12.219c-.1,1.035,1.52,1.028,1.615,0Z" transform="translate(-286.107 -191.294)" fill="#3f3d56"/>
      <circle id="Ellipse_184" data-name="Ellipse 184" cx="10.229" cy="10.229" r="10.229" transform="translate(93.36 259.392)" fill="#fb7878"/>
      <path id="Path_3076" data-name="Path 3076" d="M370.275,519.936a86.027,86.027,0,0,1,7.12-27.151q1.607-3.59,3.537-7.021a.524.524,0,0,0-.9-.529,87.218,87.218,0,0,0-9.7,26.774q-.729,3.936-1.1,7.927C369.165,520.607,370.213,520.6,370.275,519.936Z" transform="translate(-285.978 -189.773)" fill="#3f3d56"/>
      <circle id="Ellipse_185" data-name="Ellipse 185" cx="6.636" cy="6.636" r="6.636" transform="translate(90.856 284.423)" fill="#fb7878"/>
      <path id="Path_3077" data-name="Path 3077" d="M370.062,519.279a86.028,86.028,0,0,1-11.085-25.787q-.941-3.819-1.53-7.712a.524.524,0,0,0-1.039.14A87.216,87.216,0,0,0,365.224,513q1.846,3.551,4.012,6.924c.364.567,1.188-.081.826-.644Z" transform="translate(-287.088 -189.742)" fill="#3f3d56"/>
      <circle id="Ellipse_186" data-name="Ellipse 186" cx="6.636" cy="6.636" r="6.636" transform="translate(62.676 283.957)" fill="#fb7878"/>
      <path id="Path_3078" data-name="Path 3078" d="M350.224,523.407V510.369a4.9,4.9,0,0,1,4.889-4.89h30.424a4.895,4.895,0,0,1,4.89,4.89v13.039a4.9,4.9,0,0,1-4.889,4.89H355.114A4.9,4.9,0,0,1,350.224,523.407Z" transform="translate(-287.623 -188.013)" fill="#ccc"/>
      <rect id="Rectangle_345" data-name="Rectangle 345" width="93.444" height="7.606" rx="3.5" transform="translate(245.696 331.619)" fill="#ccc"/>
      <path id="Path_3079" data-name="Path 3079" d="M662.5,530.875h-96.7a7.071,7.071,0,0,1-7.063-7.063V470.571a7.071,7.071,0,0,1,7.063-7.063h96.7a7.071,7.071,0,0,1,7.063,7.063v53.242a7.071,7.071,0,0,1-7.063,7.063Z" transform="translate(-269.574 -191.628)" fill="#ccc"/>
      <circle id="Ellipse_187" data-name="Ellipse 187" cx="6.519" cy="6.519" r="6.519" transform="translate(338.053 299.049)" fill="#fff"/>
      <path id="Path_3080" data-name="Path 3080" d="M891.985,592.72c0-8.4-31.621-15.212-70.626-15.212s-70.626,6.811-70.626,15.212c0,5.384,13,10.112,32.6,12.815V688.88a7.063,7.063,0,0,0,14.125,0V607.036c7.467.578,15.513.9,23.9.9s16.437-.317,23.9-.9V688.88a7.063,7.063,0,0,0,14.125,0V605.535C878.985,602.831,891.985,598.1,891.985,592.72Z" transform="translate(-252.955 -181.943)" fill="#ccc"/>
      <circle id="Ellipse_188" data-name="Ellipse 188" cx="30.424" cy="30.424" r="30.424" transform="translate(545.789 210.945)" fill="#444"/>
      <path id="Path_3081" data-name="Path 3081" d="M525.143,466H511.822l-6.337-51.381h19.66Z" transform="translate(-24.641 35.422)" fill="#ffb8b8"/>
      <path id="Path_3082" data-name="Path 3082" d="M503.849,458.4h25.691v16.176H487.673A16.175,16.175,0,0,1,503.849,458.4Z" transform="translate(-26.183 39.213)" fill="#273a57"/>
      <path id="Path_3083" data-name="Path 3083" d="M505.451,459.438l-12.709-3.989,9.336-50.922,18.758,5.886Z" transform="translate(-25.744 34.549)" fill="#ffb8b8"/>
      <path id="Path_3084" data-name="Path 3084" d="M16.176,0H41.866V16.175H0A16.176,16.176,0,0,1,16.176,0Z" transform="translate(443.621 478.675) rotate(17.423)" fill="#273a57"/>
      <path id="Path_3085" data-name="Path 3085" d="M739.259,657.78a4.845,4.845,0,0,1-1.708-.311l-9.8-3.675a4.907,4.907,0,0,1-3.058-5.632c2.467-11.094,10.876-48.863,15.481-69.122,5.461-24.03,85.124-28.495,88.512-28.673l.279-.015,8.961,11.261c3.238,10.408,2.212,18.527-3.051,24.13-15.356,16.349-61.2,6.2-66.67,4.92l-24.368,63.967A4.9,4.9,0,0,1,739.259,657.78Z" transform="translate(-255.218 -184.294)" fill="#2c3f5d"/>
      <path id="Path_3086" data-name="Path 3086" d="M752.259,664.78a4.849,4.849,0,0,1-1.708-.311l-9.8-3.675a4.907,4.907,0,0,1-3.058-5.632c2.467-11.094,10.876-48.863,15.481-69.122,5.461-24.029,85.124-28.495,88.513-28.673l.279-.015,8.961,11.261c3.238,10.408,2.212,18.527-3.051,24.13-15.356,16.348-61.2,6.2-66.67,4.92l-24.369,63.967A4.9,4.9,0,0,1,752.259,664.78Z" transform="translate(-254.093 -183.688)" fill="#2c3f5d"/>
      <path id="Path_3087" data-name="Path 3087" d="M726.627,512.562a11.436,11.436,0,0,1,.962,1.523l53.589,5.646,7.714-10.577,17.484,9.556-15.152,25.666L725.5,527.618a11.4,11.4,0,1,1,1.126-15.057Z" transform="translate(-256.815 -187.802)" fill="#ffb8b8"/>
      <path id="Path_3088" data-name="Path 3088" d="M844.189,580.132a4.889,4.889,0,0,1-2.227-.544c-10.716-5.449-31.582-14.885-50.932-16.86a4.772,4.772,0,0,1-3.363-1.9,4.91,4.91,0,0,1-.906-3.815c1.746-9.665,5.751-34.278,5.235-54a26.725,26.725,0,0,1,20.191-26.586h0a86.787,86.787,0,0,1,10.771-2.123A26.942,26.942,0,0,1,852.9,505.551c-3.451,20.442-6.929,48.993-3.906,68.923a4.9,4.9,0,0,1-1.976,4.725A4.812,4.812,0,0,1,844.189,580.132Z" transform="translate(-249.843 -190.753)" fill="#0b2d61"/>
      <path id="Path_3089" data-name="Path 3089" d="M793.987,527.444a4.884,4.884,0,0,1-1.941-.405L778.086,521a4.9,4.9,0,0,1-2.545-6.429l10.791-24.928a12.5,12.5,0,0,1,22.934,9.927l-10.791,24.928a4.9,4.9,0,0,1-4.488,2.951Z" transform="translate(-250.842 -190.025)" fill="#0b2d61"/>
      <circle id="Ellipse_189" data-name="Ellipse 189" cx="26.687" cy="26.687" r="26.687" transform="translate(548.415 221.792)" fill="#ffb8b8"/>
      <path id="Path_3090" data-name="Path 3090" d="M796.893,431.318a96.258,96.258,0,0,0,41.643,13.721l-4.39-5.26a32.257,32.257,0,0,0,9.965,1.979c3.4-.053,6.965-1.363,8.9-4.163a10.15,10.15,0,0,0,.68-9.377,19.225,19.225,0,0,0-6.048-7.563,36.008,36.008,0,0,0-33.514-5.99,21.521,21.521,0,0,0-10.01,6.421c-2.53,3.121-7.4,5.9-6.105,9.7Z" transform="translate(-248.959 -195.936)" fill="#444"/>
      <path id="Path_3091" data-name="Path 3091" d="M833.744,411.836a82.019,82.019,0,0,0-29.84-19.3c-7.213-2.672-15.065-4.323-22.606-2.806s-14.673,6.735-16.777,14.134c-1.72,6.05.056,12.565,2.726,18.26s6.234,10.977,8.393,16.885a38.538,38.538,0,0,1-38.778,51.679c7.41.994,14.24,4.476,21.482,6.329s15.791,1.728,21.173-3.461c5.695-5.49,5.809-14.416,5.533-22.321l-1.228-35.253c-.209-5.993-.387-12.178,1.774-17.771s7.3-10.492,13.294-10.441c4.545.039,8.567,2.792,12.212,5.507s7.5,5.612,12.029,6.016,9.7-2.946,9.357-7.478" transform="translate(-254.155 -198)" fill="#444"/>
      <path id="Path_3092" data-name="Path 3092" d="M482.2,281.087l61.448,1.451,8.9,65.689L495.8,349.5Z" transform="translate(-26.657 24.011)" fill="#e6e6e6"/>
      <path id="Path_3093" data-name="Path 3093" d="M773.627,510.562a11.43,11.43,0,0,1,.962,1.523l53.589,5.646,7.714-10.577,17.484,9.556-15.152,25.666L772.5,525.618a11.4,11.4,0,1,1,1.126-15.056Z" transform="translate(-252.747 -187.973)" fill="#ffb8b8"/>
      <path id="Path_3094" data-name="Path 3094" d="M840.987,528.444a4.884,4.884,0,0,1-1.941-.405L825.086,522a4.9,4.9,0,0,1-2.545-6.429l10.791-24.928a12.5,12.5,0,0,1,22.934,9.927l-10.791,24.928a4.9,4.9,0,0,1-4.488,2.951Z" transform="translate(-246.774 -189.94)" fill="#0b2d61"/>
      <path id="Path_3095" data-name="Path 3095" d="M758.246,524.508H325.795a7.063,7.063,0,0,0,0,14.125h12.5V692.382a7.063,7.063,0,1,0,14.125,0V552.2l79.179,143.511a7.063,7.063,0,0,0,12.233-7.063L361.058,538.633H739.231v.091L656.512,688.653a7.062,7.062,0,1,0,12.232,7.063L739.231,567.96V692.382a7.063,7.063,0,0,0,14.125,0V542.357l2.055-3.724h2.835a7.063,7.063,0,0,0,0-14.125Z" transform="translate(-290.349 -186.531)" fill="#01183a"/>
    </g>
    <g id="Group_620" data-name="Group 620" transform="translate(-4074.241 -16063.3)">
      <path id="Path_3103" data-name="Path 3103" d="M74.444,403.053h72.078a11,11,0,0,0,10.988-10.988V319.988A11,11,0,0,0,146.522,309H74.444a11,11,0,0,0-10.988,10.988v72.078A11,11,0,0,0,74.444,403.053Z" transform="translate(-6.321 -96.152)" fill="#01183a"/>
      <g id="Group_614" data-name="Group 614" transform="translate(67.57 75.158)">
        <path id="Path_3104" data-name="Path 3104" d="M127.008,309.661A8.933,8.933,0,0,1,124,296.3L112.051,216l17.661.113,7.37,78.828a8.981,8.981,0,0,1-10.074,14.72Z" transform="translate(-99.252 -159.896)" fill="#ffb6b6"/>
        <path id="Path_3105" data-name="Path 3105" d="M134.639,152.23s5.279-1.436,6.046,10.129c.614,9.259,9.84,65.669,7.26,78.291a8.135,8.135,0,0,1,4.6,8.85l-26.669-2.4c-3.658-4.84-3.677-10.261-1.581-11.393l-2.142-16.622-12.379-54.147,21.03-11.74,3.834-.97Z" transform="translate(-109.775 -152.173)" fill="#e6e6e6"/>
      </g>
      <g id="Group_615" data-name="Group 615" transform="translate(44.325 391.297)">
        <path id="Path_3106" data-name="Path 3106" d="M165.151,551.317H155.016l-4.821-39.09h14.958Z" transform="translate(-134.533 -512.226)" fill="#ffb6b6"/>
        <path id="Path_3107" data-name="Path 3107" d="M162.15,556.79v-6.87l2.664.163,10.845.643,2.51.154,1.919,23.01.1,1.234H173l-.231-1.225-1.045-5.568-2.7,5.568-.591,1.225H149.351a4.311,4.311,0,0,1-4.283-4.292c-.805-3.761,15.06-11.891,17.082-14.041Z" transform="translate(-145.038 -516.787)" fill="#273a57"/>
      </g>
      <g id="Group_616" data-name="Group 616" transform="translate(93.829 381.095)">
        <path id="Path_3108" data-name="Path 3108" d="M121.445,538.272l-11.323,2.237L99.574,504.47l11.366-3.85Z" transform="translate(-95.834 -500.62)" fill="#ffb6b6"/>
        <path id="Path_3109" data-name="Path 3109" d="M101.567,547.208l-1.847-6.618,2.61-.559,10.619-2.3,2.459-.526,8.033,21.648.431,1.161-6.931,1.934-.552-1.118-2.5-5.083-1.1,6.089-.24,1.339-18.376,5.128a4.311,4.311,0,0,1-5.279-2.983c-1.786-3.406,11.31-15.5,12.679-18.116Z" transform="translate(-88.721 -505.047)" fill="#273a57"/>
      </g>
      <path id="Path_3110" data-name="Path 3110" d="M103.672,301.44l-.261-2.742,11.272-30.9,48.038,9.263s24.758,30.5,19.253,50.687c-1.493,5.475-4.685,70.007-3.724,72.082,22.128,47.793,15.946,81.506,15.946,81.506a49.429,49.429,0,0,1-18.973,9.122c-3.126.789-26.895-106.43-26.895-106.43s1.047,6.691,2.507,16.864c4.511,31.428,11.6,94.7,5.3,97.975a31.925,31.925,0,0,1-16.3,3.532s-25.98-78.063-20.475-96.415" transform="translate(-78.923 -91.354)" fill="#273a57"/>
      <path id="Path_3111" data-name="Path 3111" d="M137.861,152.713,152.7,136.757h0l11.278-.656,15.2,15.733,5.635,15.894h0a80.774,80.774,0,0,1,4.133,48.386L180.286,254.8s-1.333,4.559,2.16,5.106,3.075,7.268,3.075,7.268-.711,5.824,2.681,6.337,12.439.513,4.523,10.69S122.2,255.887,122.2,255.887l-.3-47.714s-17.635-23.686,1.357-37.252l14.607-18.208Z" transform="translate(-89.515 -74.953)" fill="#e6e6e6"/>
      <path id="Path_3112" data-name="Path 3112" d="M139.444,333.053h72.078a11,11,0,0,0,10.988-10.987V249.988A11,11,0,0,0,211.522,239H139.444a11,11,0,0,0-10.988,10.988v72.078A11,11,0,0,0,139.444,333.053Z" transform="translate(-128.456 -87.602)" fill="#0b2d61"/>
      <g id="Group_617" data-name="Group 617" transform="translate(19.627 77.044)">
        <path id="Path_3113" data-name="Path 3113" d="M172.809,292.872a8.933,8.933,0,0,1,1.839-13.574l16.809-79.423,16.513,6.266-20.585,76.448a8.981,8.981,0,0,1-14.576,10.283Z" transform="translate(-170.501 -159.828)" fill="#ffb6b6"/>
        <path id="Path_3114" data-name="Path 3114" d="M180.064,154.5s-4.984-2.256-7.577,9.04c-2.076,9.044-20.141,63.274-19.6,76.145a8.135,8.135,0,0,0-5.946,8.007l26.711,1.868c4.38-4.2,5.26-9.547,3.37-11l4.753-16.071L202.6,171l-18.9-14.93-3.631-1.567Z" transform="translate(-144.417 -154.316)" fill="#e6e6e6"/>
      </g>
      <g id="Group_618" data-name="Group 618" transform="translate(31.149 0)">
        <ellipse id="Ellipse_193" data-name="Ellipse 193" cx="21.48" cy="21.48" rx="21.48" ry="21.48" transform="translate(10.633 7.758)" fill="#ffb6b6"/>
        <path id="Path_3118" data-name="Path 3118" d="M187.133,98.844c-.062,0-.211,0-.492.009C185.824,98.905,186.931,98.861,187.133,98.844Z" transform="translate(-175.112 -70.445)" fill="#2f2e41"/>
        <path id="Path_3119" data-name="Path 3119" d="M117.129,92.887a2.258,2.258,0,0,0,1.406.958,13.567,13.567,0,0,1,5.248-4.087,23.407,23.407,0,0,0-2.241,4.773,44.642,44.642,0,0,0,5.652.422c.343,0,.642,0,.879-.009.352-.624.914-1.635,1.4-2.681.044,2.857,4.026,11.278,3.7,18.4-.4,8.518-.844,17.809-.844,17.809a31.956,31.956,0,0,0,5.142.774,45.3,45.3,0,0,0,4.668-13.009c.1-.483.176-.967.255-1.45.185.554.36,1.116.51,1.688a34.378,34.378,0,0,1,1.169,7.586,43.249,43.249,0,0,1-.079,5.327c10.847,2.206,24.261,1.978,33.965-3.411a15.484,15.484,0,0,1-.73-2.734c-.527-3.059,3.727-3.49,6.557-1.617a23.5,23.5,0,0,0,6.135-10.952c-18.494-8.113.976-18.1-13.308-32.488,1.723-12.5-32.787-16.112-39.467-5-1.459-1.108-6-1.055-7.937-.246a17.53,17.53,0,0,0-4.887,3.49c-.976.9-.519,2.681.105,4.017-3.068-1.468-9.915,6.162-7.3,12.447Z" transform="translate(-116.544 -66.536)"/>
      </g>
    </g>
  </g>
</svg>
