<svg xmlns="http://www.w3.org/2000/svg" width="491.04" height="485.701" viewBox="0 0 491.04 485.701">
  <g id="talk" transform="translate(-18.507 0)">
    <path id="Path_2964" data-name="Path 2964" d="M800.926,251.136c-3.112,34.286-11.977,70.439-25.881,105.323-17.193,43.137-40.684,81.133-67.933,109.878l-1.512-1.319c27.117-28.607,50.5-66.434,67.623-109.394C788.7,316.8,797.9,276.4,799.851,238.811l1.932.324Q801.477,245.091,800.926,251.136Z" transform="translate(-321.967 -162.298)" fill="#f2f2f2"/>
    <path id="Path_2965" data-name="Path 2965" d="M806.936,506.327c-38.273,60.89-84.706,104.4-130.747,122.5l-.931-1.707c45.722-17.982,91.883-61.265,129.982-121.877Z" transform="translate(-315.577 -217.79)" fill="#f2f2f2"/>
    <path id="Path_2966" data-name="Path 2966" d="M799.751,305.2c-3.112,34.286-11.977,70.439-25.881,105.323-17.193,43.137-40.684,81.132-67.933,109.878l-1.512-1.319c27.117-28.607,50.5-66.434,67.623-109.394,15.474-38.821,24.677-79.22,26.628-116.813l1.932.323Q800.3,299.154,799.751,305.2Z" transform="translate(-321.722 -173.484)" fill="#f2f2f2"/>
    <path id="Path_2967" data-name="Path 2967" d="M273.229,407.488H248.117a3.553,3.553,0,0,1-2.791-1.344,3.481,3.481,0,0,1-.681-2.958,68.291,68.291,0,0,0-.438-32.007,3.56,3.56,0,0,1,1.381-3.741c12.912-9.287,23.081-9.017,30.225.8a3.567,3.567,0,0,1,.625,1.508,111.756,111.756,0,0,1,.313,34.683,3.546,3.546,0,0,1-3.522,3.057Z" transform="translate(-225.597 -187.826)" fill="#e6e6e6"/>
    <path id="Path_2968" data-name="Path 2968" d="M268.349,387.156H259.71a1.8,1.8,0,1,1,0-3.6h8.638a1.8,1.8,0,1,1,0,3.6Z" transform="translate(-228.502 -192.639)" fill="#fff"/>
    <path id="Path_2969" data-name="Path 2969" d="M268.349,395.156H259.71a1.8,1.8,0,0,1,0-3.6h8.638a1.8,1.8,0,0,1,0,3.6Z" transform="translate(-228.502 -194.307)" fill="#fff"/>
    <path id="Path_2970" data-name="Path 2970" d="M268.349,403.156H259.71a1.8,1.8,0,1,1,0-3.6h8.638a1.8,1.8,0,0,1,0,3.6Z" transform="translate(-228.502 -195.976)" fill="#fff"/>
    <path id="Path_2971" data-name="Path 2971" d="M851.229,549.488H826.117a3.553,3.553,0,0,1-2.791-1.344,3.48,3.48,0,0,1-.681-2.957,68.292,68.292,0,0,0-.438-32.007,3.56,3.56,0,0,1,1.381-3.741c12.912-9.287,23.081-9.017,30.225.8a3.567,3.567,0,0,1,.625,1.508,111.757,111.757,0,0,1,.313,34.683,3.546,3.546,0,0,1-3.522,3.057Z" transform="translate(-346.406 -217.412)" fill="#e6e6e6"/>
    <path id="Path_2972" data-name="Path 2972" d="M846.349,529.156H837.71a1.8,1.8,0,0,1,0-3.6h8.638a1.8,1.8,0,1,1,0,3.6Z" transform="translate(-349.156 -222.251)" fill="#fff"/>
    <path id="Path_2973" data-name="Path 2973" d="M846.349,537.156H837.71a1.8,1.8,0,0,1,0-3.6h8.638a1.8,1.8,0,0,1,0,3.6Z" transform="translate(-349.156 -223.92)" fill="#fff"/>
    <path id="Path_2974" data-name="Path 2974" d="M846.349,545.156H837.71a1.8,1.8,0,0,1,0-3.6h8.638a1.8,1.8,0,1,1,0,3.6Z" transform="translate(-349.156 -225.588)" fill="#fff"/>
    <path id="Path_2976" data-name="Path 2976" d="M410.935,675.826l-1.566-21.784a70.466,70.466,0,0,0-33.083-7.419c16.132,12.47,14.84,37.393,26.013,54.449A42.386,42.386,0,0,0,433.9,719.8l13.426,7.724A71.024,71.024,0,0,0,430.793,670.4a68.6,68.6,0,0,0-12.924-11.366C414.935,667.464,410.935,675.826,410.935,675.826Z" transform="translate(-253.185 -247.295)" fill="#f2f2f2"/>
    <path id="Path_2977" data-name="Path 2977" d="M769.919,679.826l1.566-21.783a70.467,70.467,0,0,1,33.083-7.419c-16.133,12.47-14.84,37.393-26.013,54.449A42.386,42.386,0,0,1,746.95,723.8l-13.426,7.724A71.024,71.024,0,0,1,750.061,674.4a68.6,68.6,0,0,1,12.924-11.366C765.92,671.464,769.919,679.826,769.919,679.826Z" transform="translate(-327.67 -248.136)" fill="#f2f2f2"/>
    <circle id="Ellipse_167" data-name="Ellipse 167" cx="15.002" cy="15.002" r="15.002" transform="translate(277.879 155.102)" fill="#0b2d61"/>
    <path id="Path_2978" data-name="Path 2978" d="M596.97,349.272a1.213,1.213,0,0,0-1.675,0,49.689,49.689,0,0,0-8.513,8.7l-1.82-3.521c-.7-1.355-2.745-.158-2.045,1.2l2.661,5.15a1.2,1.2,0,0,0,2.045,0,47.966,47.966,0,0,1,9.346-9.845,1.191,1.191,0,0,0,0-1.675Z" transform="translate(-296.386 -185.413)" fill="#fff"/>
    <path id="Path_2979" data-name="Path 2979" d="M499.956,397.95l-22.623-35.527,26.2-14.03,6.876,27.106,48.445,26.178a10.475,10.475,0,1,1-5.961,14.251Z" transform="translate(-274.283 -185.241)" fill="#a0616a"/>
    <path id="Path_2980" data-name="Path 2980" d="M456.064,309.655c-7.108,10.436,18.152,48.372,18.152,48.372,1.231-2.653,12.994,27.135,14.964,25.375,5.6-5,14.366-18.931,19.238-19.552,2.786-.355-6.463-20.117-6.463-20.117s-4.227-11.67-9.963-26.576a26.769,26.769,0,0,0-19.444-17S463.173,299.218,456.064,309.655Z" transform="translate(-269.604 -175.184)" fill="#233551"/>
    <path id="Path_2981" data-name="Path 2981" d="M236.174,589.447h10.744l5.111-41.441H236.172Z" transform="translate(-49.385 -114.161)" fill="#a0616a"/>
    <path id="Path_2982" data-name="Path 2982" d="M453.368,737.105h3.024l11.807-4.8,6.328,4.8h0a13.485,13.485,0,0,1,13.484,13.483v.439H453.369Z" transform="translate(-269.315 -265.327)" fill="#273a57"/>
    <path id="Path_2983" data-name="Path 2983" d="M299.391,589.447h10.744l5.112-41.441H299.389Z" transform="translate(-62.605 -114.161)" fill="#a0616a"/>
    <path id="Path_2984" data-name="Path 2984" d="M516.585,737.105h3.024l11.807-4.8,6.328,4.8h0a13.485,13.485,0,0,1,13.484,13.483v.439H516.586Z" transform="translate(-282.531 -265.327)" fill="#273a57"/>
    <path id="Path_2985" data-name="Path 2985" d="M504.217,455.889l-69.884,1.747c-13.272,7.209-13.474,22.812-9.125,41.336,0,0-1.468,11.011,1.468,13.947s4.4,2.936,2.936,8.074,6.288,13.531,5.346,14.473-3.144,6.08-3.144,6.08l7.34,41.84s5.138,72.67,6.606,74.138,2.936,0,1.468,3.67-2.936,2.2-1.468,3.67a54.069,54.069,0,0,1,3.67,4.4h17.747s1.338-7.34,1.338-8.074,1.468-5.138,1.468-5.872-1.3-2.032-1.3-2.032a24.144,24.144,0,0,1-.9-4.575c0-1.468-4.4-57.989-4.4-57.989l8.809-73.4,21.287,71.936s0,63.128,1.468,64.6,1.468.734.734,3.67-3.67,2.2-1.468,4.4,2.936-1.468,2.2,2.2l-.734,3.67,22.021.315s2.936-6.187,1.468-8.389-1.38-1.6.411-5.2,2.525-4.338,1.791-5.072-.734-4.638-.734-4.638l-3.67-70.234s-.734-74.138-.734-76.34a7.32,7.32,0,0,1,.61-3.3v-2.989l-2.812-10.592Z" transform="translate(-262.863 -207.165)" fill="#273a57"/>
    <circle id="Ellipse_168" data-name="Ellipse 168" cx="21.713" cy="21.713" r="21.713" transform="translate(177.659 58.836)" fill="#a0616a"/>
    <path id="Path_2986" data-name="Path 2986" d="M471.782,287.215c4.678,2.781,7.476,7.891,9.082,13.09a124.048,124.048,0,0,1,5.331,29.639l1.7,30.116L508.9,424.184c-18.211,15.409-86.664,3.5-86.664,3.5s-2.1-.7,0-2.8,4.147-.24,2.046-2.341-.653.24.048-1.862,0-.7-.7-1.4,5.422-7,5.422-7l-5.6-36.808-7-74.245c8.405-10.506,25.309-16.7,25.309-16.7l4.368-7.862,21.839,1.747Z" transform="translate(-261.566 -170.232)" fill="#273a57"/>
    <path id="Path_2987" data-name="Path 2987" d="M484.07,225.172a10.062,10.062,0,0,1,3.575,5.022,70.677,70.677,0,0,0,.046-9.853c-.256-2.306-1.879-2.825-3.759-3.426-1.7-.543-3.617-1.156-4.134-3.395-6.825-6.64-18.707-6.305-26.839-3.989-4.474,1.275-7.049,2.912-7.279,3.871l-.048.2-.182.091c-3.449,1.724-4.12,7.17-4.076,11.435.084,8.035,2.858,17.16,4.421,17.9.083.039.1.024.139-.006h0c2.353-1.881,5.224.143,6.486,1.243a22.583,22.583,0,0,1,20.221-19.155,35.431,35.431,0,0,0,4.874-.817,10.261,10.261,0,0,1,2.49-.327A7.085,7.085,0,0,1,484.07,225.172Z" transform="translate(-266.801 -156.158)"/>
    <path id="Path_2988" data-name="Path 2988" d="M661.7,455.549l41.768-42.415,11-33.923-17.709-7.163c-8.773,8.849-17.8,35.938-17.8,35.938l-28.508,38.262c-.228.085-.455.174-.678.28a8.438,8.438,0,1,0,11.925,9.021Z" transform="translate(-309.327 -190.145)" fill="#ffb8b8"/>
    <path id="Path_2989" data-name="Path 2989" d="M704.453,366.129l22.4,6.478.083-.016c8.232-1.6,14.744-15.279,18.757-26.474a15.473,15.473,0,0,0-8.381-19.39h0a15.507,15.507,0,0,0-16.183,2.468l-11.166,9.614Z" transform="translate(-321.799 -180.493)" fill="#0b2d61"/>
    <path id="Path_2990" data-name="Path 2990" d="M454.785,586.515H442.74l-5.729-46.455h17.775Z" transform="translate(-91.381 -112.489)" fill="#ffb8b8"/>
    <path id="Path_2991" data-name="Path 2991" d="M673.728,734.817h-3.39L657.1,729.434l-7.094,5.382h0a15.116,15.116,0,0,0-15.116,15.115v.492l38.835,0Z" transform="translate(-307.261 -264.723)" fill="#01183a"/>
    <path id="Path_2992" data-name="Path 2992" d="M522.468,586.515H510.423l-5.729-46.455H522.47Z" transform="translate(-105.533 -112.489)" fill="#ffb8b8"/>
    <path id="Path_2993" data-name="Path 2993" d="M741.411,734.817h-3.39l-13.235-5.382-7.094,5.382h0a15.116,15.116,0,0,0-15.116,15.115v.492l38.835,0Z" transform="translate(-321.41 -264.723)" fill="#01183a"/>
    <path id="Path_2994" data-name="Path 2994" d="M744.518,486.494s1.406,16.876-2.109,33.049-3.516,61.722-3.516,61.722l-7.735,88.758-23.2-2.11-6.329-148.371-22.5,49.926,2.109,7.032-2.81,1.758s2.107,13.712.7,13.712-4.922,2.109-4.922,2.109l2.813,72.427-23.908-.7-8.438-101.96,9.142-58.364.7-11.251,3.164.13,1.611-4.7,2.959-8.087Z" transform="translate(-309.233 -212.569)" fill="#01183a"/>
    <path id="Path_2995" data-name="Path 2995" d="M749.107,449.188l.125-.176c6.693-9.371-3.373-31.888-4.892-35.152l6.395-2.075-1.44-12.241-.682-5.457L753.5,389.2l.014-.122,2.813-24.611,4.09-16.346a35.888,35.888,0,0,0-10.186-34.779l-9.453-8.913-11.488-17H710.763l-6.352,12A27,27,0,0,0,683.518,327l1.44,31.469-5.636,39.182,0,7.091-6.343,7.049,1.385,6.925-4.827,2.069-2.132,9.946c-.882,1.164-6.7,8.927-6.7,11.049,0,.319.235.627.74.968,3.968,2.687,25.9,8.164,35.6,4.28,10.339-4.134,51.438,2.068,51.852,2.131Z" transform="translate(-312.581 -172.46)" fill="#0b2d61"/>
    <circle id="Ellipse_169" data-name="Ellipse 169" cx="24.536" cy="24.536" r="24.536" transform="translate(380.51 60.003)" fill="#ffb8b8"/>
    <path id="Path_2996" data-name="Path 2996" d="M721.553,265.928a66.726,66.726,0,0,0,11.327-1.086c3.7-.853,11.865-7.166,14.091-10.9h0c1.653-2.771,2.646-7.058,3.187-10.165a29.83,29.83,0,0,0-5.827-23.539,9.424,9.424,0,0,0-3.889-3.15c-.138-.05-.279-.093-.422-.13a11.628,11.628,0,0,1-5.875-3.429,9.581,9.581,0,0,0-.987-.964,14.322,14.322,0,0,0-6.051-2.845c-3.576-.859-8.691.217-15.2,3.2-3.271,1.5-6.9,1.081-9.7.549a.911.911,0,0,0-.85.316,6.43,6.43,0,0,1-4.324,1.854c-.994.069-2,1.474-3.217,3.3-.276.415-.6.9-.831,1.2l-.047-.555-.547.635a7.8,7.8,0,0,0,3.85,12.618,15.219,15.219,0,0,0,3.072.409c.628.04,1.277.082,1.9.173a11.765,11.765,0,0,1,8.937,7.406,3.077,3.077,0,0,0,4.681,1.373,5.083,5.083,0,0,1,4.609-.963,3.375,3.375,0,0,1,1.535,1.653,4.4,4.4,0,0,0,1.718,1.9c2.555,1.235,2.877,6.988,2.1,11.812-.753,4.649-2.392,8.041-3.985,8.248-1.226.159-1.365.25-1.448.47l-.074.2.143.179A5.025,5.025,0,0,0,721.553,265.928Z" transform="translate(-318.861 -156.456)" fill="#444"/>
    <path id="Path_2997" data-name="Path 2997" d="M677.737,376.281l-11.794-15.027c-12.013,3.308-33.329,22.308-33.329,22.308l-43.776,19a8.434,8.434,0,1,0,5.124,13.665l57.345-16Z" transform="translate(-295.519 -187.936)" fill="#ffb8b8"/>
    <path id="Path_2998" data-name="Path 2998" d="M695.242,370.8l18.609-20.744,1.033-14.7a15.509,15.509,0,0,0-7.7-14.448h0a15.472,15.472,0,0,0-20.555,4.873c-6.575,9.91-13.649,23.308-10.009,30.862l.037.077Z" transform="translate(-315.778 -179.113)" fill="#0b2d61"/>
    <path id="Path_2999" data-name="Path 2999" d="M469.408,456.348l-48.365-24.77c-3.44-1.762-4.58-6.435-2.54-10.418l31.535-61.575c2.04-3.982,6.5-5.789,9.938-4.027l48.365,24.77c3.44,1.762,4.58,6.435,2.54,10.418L479.347,452.32C477.307,456.3,472.849,458.109,469.408,456.348Z" transform="translate(-261.783 -186.558)" fill="#e6e6e6"/>
    <path id="Path_3000" data-name="Path 3000" d="M463.134,447.074l-32.86-16.829c-3.222-1.65-4.29-6.027-2.379-9.757l26.2-51.155c1.91-3.73,6.086-5.421,9.307-3.771l39.688,20.326c3.222,1.65,4.289,6.027,2.379,9.756l-14.233,27.79C482.728,440.048,477.487,454.424,463.134,447.074Z" transform="translate(-263.767 -188.671)" fill="#fff"/>
    <path id="Path_3001" data-name="Path 3001" d="M485.4,428.732,456.29,413.826a1.82,1.82,0,0,1,1.642-3.206l29.105,14.906a1.82,1.82,0,0,1-1.642,3.206Z" transform="translate(-269.767 -198.247)" fill="#0b2d61"/>
    <path id="Path_3002" data-name="Path 3002" d="M458.823,425.25l-6.642-3.4a1.82,1.82,0,0,1,1.642-3.206l6.642,3.4a1.82,1.82,0,0,1-1.642,3.206Z" transform="translate(-268.92 -199.933)" fill="#0b2d61"/>
    <path id="Path_3003" data-name="Path 3003" d="M466.478,439.3l-18.406-9.427a1.82,1.82,0,0,1,1.642-3.206l18.406,9.427a1.82,1.82,0,0,1-1.642,3.206Z" transform="translate(-268.055 -201.599)" fill="#0b2d61"/>
    <path id="Path_3004" data-name="Path 3004" d="M499.982,400.25l-29.105-14.906a1.82,1.82,0,0,1,1.642-3.206l29.105,14.906a1.82,1.82,0,0,1-1.642,3.206Z" transform="translate(-272.817 -192.31)" fill="#0b2d61"/>
    <path id="Path_3005" data-name="Path 3005" d="M473.41,396.768l-6.642-3.4a1.82,1.82,0,0,1,1.642-3.206l6.642,3.4a1.82,1.82,0,0,1-1.642,3.206Z" transform="translate(-271.971 -193.994)" fill="#0b2d61"/>
    <path id="Path_3006" data-name="Path 3006" d="M481.065,410.816l-18.406-9.427a1.82,1.82,0,0,1,1.642-3.206l18.406,9.427a1.82,1.82,0,0,1-1.642,3.206Z" transform="translate(-271.105 -195.66)" fill="#0b2d61"/>
    <path id="Path_3007" data-name="Path 3007" d="M429.573,403.181,418.647,362.5l29.2-5.527-1.57,27.921,38.364,39.5a10.475,10.475,0,1,1-9.961,11.807Z" transform="translate(-262.034 -187.011)" fill="#a0616a"/>
    <path id="Path_3008" data-name="Path 3008" d="M413.856,304.884c-9.911,7.824,2.81,51.589,2.81,51.589,1.97-2.161,4.258,29.783,6.665,28.7,6.842-3.091,19.382-13.752,24.217-12.883,2.765.5-.132-21.13-.132-21.13s-.533-12.4-1.534-28.341a26.769,26.769,0,0,0-13.45-22.053S423.767,297.06,413.856,304.884Z" transform="translate(-260.263 -175.131)" fill="#233551"/>
    <path id="Path_3009" data-name="Path 3009" d="M616.052,515.083,589.659,502.62a4.13,4.13,0,0,1-2.266-2.8,4.045,4.045,0,0,1,.752-3.446,79.417,79.417,0,0,0,15.328-33.363,4.1,4.1,0,0,1,4.021-3.309c13.461.046,23.521,4.961,29.9,14.607a4.154,4.154,0,0,1,.544,3.455,129.912,129.912,0,0,1-16.667,35.852,4.121,4.121,0,0,1-5.219,1.465Z" transform="translate(-297.297 -208.447)" fill="#d9d9d9"/>
    <path id="Path_3010" data-name="Path 3010" d="M627.854,504.1l-20.18-9.529a2.093,2.093,0,1,1,1.788-3.786l20.18,9.529a2.093,2.093,0,0,1-1.788,3.786Z" transform="translate(-301.333 -214.945)" fill="#fff"/>
    <path id="Path_3011" data-name="Path 3011" d="M631.824,495.693l-20.18-9.529a2.093,2.093,0,0,1,1.788-3.786l20.18,9.529a2.093,2.093,0,1,1-1.788,3.786Z" transform="translate(-302.163 -213.192)" fill="#fff"/>
    <path id="Path_3012" data-name="Path 3012" d="M539.909,215.78l-1.879.206c-8.376-32.913-24.61-55.715-46.95-65.941-28.4-13-63.517-4.27-98.883,24.58-35.546,29-67.013,74.8-88.6,128.973l-1.823-.834c21.686-54.41,53.315-100.433,89.06-129.592,35.924-29.306,71.758-38.1,100.9-24.759C514.712,158.931,531.371,182.227,539.909,215.78Z" transform="translate(-237.731 -142.337)" fill="#f2f2f2"/>
    <path id="Path_3013" data-name="Path 3013" d="M327,289.394c-4.913,10.349-9.585,21.07-13.888,31.866-24.762,62.126-37.31,125.574-36.285,183.486l-1.935-.207c-1.026-58.128,11.558-121.794,36.4-184.113,4.315-10.826,9-21.578,13.928-31.956Z" transform="translate(-232.062 -172.594)" fill="#f2f2f2"/>
    <path id="Path_3014" data-name="Path 3014" d="M325.819,343.458c-4.912,10.349-9.585,21.07-13.888,31.866-24.762,62.126-37.31,125.574-36.285,183.486l-1.935-.206c-1.026-58.128,11.558-121.794,36.4-184.113,4.315-10.826,9-21.578,13.928-31.956Z" transform="translate(-231.815 -183.788)" fill="#f2f2f2"/>
    <ellipse id="Ellipse_170" data-name="Ellipse 170" cx="6.993" cy="8.05" rx="6.993" ry="8.05" transform="translate(24.712 171.823) rotate(-56.364)" fill="#ccc"/>
    <ellipse id="Ellipse_171" data-name="Ellipse 171" cx="6.993" cy="8.05" rx="6.993" ry="8.05" transform="translate(481.224 288.235) rotate(-56.364)" fill="#ccc"/>
  </g>
</svg>
