<svg xmlns="http://www.w3.org/2000/svg" width="610" height="688.031" viewBox="0 0 610 688.031">
  <g id="mobile-app" transform="translate(-98.355)">
    <rect id="Rectangle_346" data-name="Rectangle 346" width="378.212" height="688.031" rx="58.728" transform="translate(104.736)" fill="#01183a"/>
    <path id="Path_3257" data-name="Path 3257" d="M715.97,218.993v551.96a61.776,61.776,0,0,1-61.755,61.654H412.275a61.777,61.777,0,0,1-61.755-61.654V218.993a61.776,61.776,0,0,1,61.755-61.655h31.638v10.911a18.641,18.641,0,0,0,18.654,18.625H603.922a18.641,18.641,0,0,0,18.655-18.624V157.338h31.638A61.777,61.777,0,0,1,715.97,218.993Z" transform="translate(-239.403 -150.954)" fill="#fff"/>
    <path id="Path_3258" data-name="Path 3258" d="M612.329,434.09c-14.025-6.323-29.66,7.99-19.256,21.383-35.149,32.017-87.341,43.283-132.779,29.89-1.121,2.7-2.3,5.374-3.506,8.047a329.342,329.342,0,0,1-76.075,105.821c42.334-35.207,94.5-5.461,139.361,6.122a15.94,15.94,0,0,1,7.041,28.338,91.623,91.623,0,0,0-17.646-4.6A13.9,13.9,0,0,0,497.11,652.2c-46.99,22.532-105.448,14.226-145.77-18.135V614.837a330.9,330.9,0,0,0,99.182-124.359,325.906,325.906,0,0,0,19.084-53.284,309.751,309.751,0,0,0,9.657-61.1c-7.731-22.791-6.438-49.548,6.438-70.241,5.317,9.657,20.635,12.157,22.245-1.236.345-5.4.6-10.806.92-16.181,57.739-4.455,47.881,76.391-22.762,89.037a325.1,325.1,0,0,1-10.059,61.475c-.489,2.012-1.035,3.995-1.609,5.978a138.109,138.109,0,0,1,49.348-41.788c18.652-8.737,40.38-10.605,61.1-13.968C610.088,385.059,627.936,413.857,612.329,434.09Z" transform="translate(-239.272 -130.545)" fill="#f2f2f2"/>
    <path id="Path_3259" data-name="Path 3259" d="M344.161,274.9a4.646,4.646,0,0,1-4.641-4.641v-9.281a4.641,4.641,0,0,1,9.281,0v9.281A4.646,4.646,0,0,1,344.161,274.9Z" transform="translate(-241.165 -135.298)" fill="#01183a"/>
    <path id="Path_3260" data-name="Path 3260" d="M344.161,318.165a4.646,4.646,0,0,1-4.641-4.641V287.976a4.641,4.641,0,0,1,9.281,0v25.548a4.646,4.646,0,0,1-4.641,4.641Z" transform="translate(-241.165 -131.032)" fill="#01183a"/>
    <path id="Path_3261" data-name="Path 3261" d="M344.161,351.143a4.646,4.646,0,0,1-4.641-4.641V320.955a4.641,4.641,0,0,1,9.281,0V346.5a4.646,4.646,0,0,1-4.641,4.64Z" transform="translate(-241.165 -125.814)" fill="#01183a"/>
    <path id="Path_3262" data-name="Path 3262" d="M672.161,338.222a4.646,4.646,0,0,1-4.641-4.641V271.243a4.641,4.641,0,1,1,9.281,0v62.339a4.646,4.646,0,0,1-4.641,4.64Z" transform="translate(-189.252 -133.692)" fill="#01183a"/>
    <path id="Path_3263" data-name="Path 3263" d="M521.977,170.982H486.012a2.9,2.9,0,0,1,0-5.8h35.965a2.9,2.9,0,0,1,0,5.8Z" transform="translate(-218.454 -149.698)" fill="#fff"/>
    <circle id="Ellipse_210" data-name="Ellipse 210" cx="2.32" cy="2.32" r="2.32" transform="translate(319.694 16.063)" fill="#fff"/>
    <path id="Path_3264" data-name="Path 3264" d="M448.353,313.736h-40.3A21.062,21.062,0,0,1,387.019,292.7V252.4a21.062,21.062,0,0,1,21.038-21.038h40.3A21.062,21.062,0,0,1,469.391,252.4v40.3a21.062,21.062,0,0,1-21.038,21.038Zm-40.3-80.051A18.739,18.739,0,0,0,389.34,252.4v40.3a18.739,18.739,0,0,0,18.718,18.718h40.3A18.739,18.739,0,0,0,467.071,292.7V252.4a18.739,18.739,0,0,0-18.718-18.718Z" transform="translate(-233.558 -139.098)" fill="#e6e6e6"/>
    <path id="Path_3265" data-name="Path 3265" d="M533.853,314.236h-40.3A21.062,21.062,0,0,1,472.519,293.2V252.9a21.062,21.062,0,0,1,21.038-21.038h40.3A21.062,21.062,0,0,1,554.891,252.9v40.3A21.062,21.062,0,0,1,533.853,314.236Zm-40.3-80.051A18.739,18.739,0,0,0,474.84,252.9v40.3a18.739,18.739,0,0,0,18.718,18.718h40.3A18.739,18.739,0,0,0,552.571,293.2V252.9a18.739,18.739,0,0,0-18.718-18.718Z" transform="translate(-220.149 -139.018)" fill="#e6e6e6"/>
    <path id="Path_3266" data-name="Path 3266" d="M619.353,314.736h-40.3A21.062,21.062,0,0,1,558.019,293.7V253.4a21.062,21.062,0,0,1,21.038-21.038h40.3A21.062,21.062,0,0,1,640.391,253.4v40.3a21.062,21.062,0,0,1-21.038,21.038Zm-40.3-80.051A18.739,18.739,0,0,0,560.341,253.4v40.3a18.739,18.739,0,0,0,18.718,18.718h40.3A18.739,18.739,0,0,0,638.071,293.7V253.4a18.739,18.739,0,0,0-18.718-18.718Z" transform="translate(-206.639 -138.938)" fill="#e6e6e6"/>
    <path id="Path_3267" data-name="Path 3267" d="M448.353,412.736h-40.3A21.062,21.062,0,0,1,387.019,391.7V351.4a21.062,21.062,0,0,1,21.038-21.038h40.3A21.062,21.062,0,0,1,469.391,351.4v40.3a21.062,21.062,0,0,1-21.038,21.038Zm-40.3-80.051A18.739,18.739,0,0,0,389.34,351.4v40.3a18.739,18.739,0,0,0,18.718,18.718h40.3A18.739,18.739,0,0,0,467.071,391.7V351.4a18.739,18.739,0,0,0-18.718-18.718Z" transform="translate(-233.558 -123.619)" fill="#e6e6e6"/>
    <path id="Path_3268" data-name="Path 3268" d="M533.853,413.236h-40.3A21.062,21.062,0,0,1,472.519,392.2V351.9a21.062,21.062,0,0,1,21.038-21.038h40.3A21.062,21.062,0,0,1,554.891,351.9v40.3a21.062,21.062,0,0,1-21.038,21.038Zm-40.3-80.051A18.739,18.739,0,0,0,474.84,351.9v40.3a18.739,18.739,0,0,0,18.718,18.718h40.3A18.739,18.739,0,0,0,552.571,392.2V351.9a18.739,18.739,0,0,0-18.718-18.718Z" transform="translate(-220.149 -123.54)" fill="#e6e6e6"/>
    <path id="Path_3269" data-name="Path 3269" d="M619.353,413.736h-40.3A21.062,21.062,0,0,1,558.019,392.7V352.4a21.062,21.062,0,0,1,21.038-21.038h40.3A21.062,21.062,0,0,1,640.391,352.4v40.3A21.062,21.062,0,0,1,619.353,413.736Zm-40.3-80.051A18.739,18.739,0,0,0,560.341,352.4v40.3a18.739,18.739,0,0,0,18.718,18.718h40.3A18.739,18.739,0,0,0,638.071,392.7V352.4a18.739,18.739,0,0,0-18.718-18.718Z" transform="translate(-206.639 -123.461)" fill="#e6e6e6"/>
    <path id="Path_3270" data-name="Path 3270" d="M448.193,712.416H407.9a19.9,19.9,0,0,1-19.878-19.878V652.243A19.9,19.9,0,0,1,407.9,632.365h40.295a19.9,19.9,0,0,1,19.878,19.878v40.3a19.9,19.9,0,0,1-19.878,19.878Z" transform="translate(-233.397 -75.978)" fill="#0b2d61"/>
    <path id="Path_3271" data-name="Path 3271" d="M533.693,712.916H493.4a19.9,19.9,0,0,1-19.878-19.878V652.743A19.9,19.9,0,0,1,493.4,632.865h40.295a19.9,19.9,0,0,1,19.878,19.878v40.3a19.9,19.9,0,0,1-19.878,19.878Z" transform="translate(-219.99 -75.897)" fill="#e6e6e6"/>
    <path id="Path_3272" data-name="Path 3272" d="M619.193,713.416H578.9a19.9,19.9,0,0,1-19.878-19.878V653.243A19.9,19.9,0,0,1,578.9,633.365h40.295a19.9,19.9,0,0,1,19.878,19.878v40.3A19.9,19.9,0,0,1,619.193,713.416Z" transform="translate(-206.479 -75.817)" fill="#e6e6e6"/>
    <circle id="Ellipse_211" data-name="Ellipse 211" cx="5.801" cy="5.801" r="5.801" transform="translate(266.883 511.99)" fill="#ccc"/>
    <circle id="Ellipse_212" data-name="Ellipse 212" cx="5.801" cy="5.801" r="5.801" transform="translate(287.731 511.99)" fill="#e6e6e6"/>
    <circle id="Ellipse_213" data-name="Ellipse 213" cx="5.801" cy="5.801" r="5.801" transform="translate(308.58 511.99)" fill="#e6e6e6"/>
    <path id="Path_3273" data-name="Path 3273" d="M669.159,727.6H391.992a23.865,23.865,0,0,1-23.838-23.838V644.7a23.865,23.865,0,0,1,23.838-23.838H669.159A23.865,23.865,0,0,1,693,644.7v59.059A23.865,23.865,0,0,1,669.159,727.6ZM391.992,623.185A21.542,21.542,0,0,0,370.474,644.7v59.059a21.542,21.542,0,0,0,21.518,21.517H669.159a21.542,21.542,0,0,0,21.518-21.517V644.7a21.542,21.542,0,0,0-21.518-21.517Z" transform="translate(-236.579 -77.819)" fill="#e6e6e6"/>
    <path id="Path_3274" data-name="Path 3274" d="M839.724,281.538a8.985,8.985,0,0,0-7.536,10.012,8.621,8.621,0,0,0,.318,1.389l-24.94,18.985,5.181,16.045,31.354-29.7a8.96,8.96,0,0,0,5.522-9.442,8.574,8.574,0,0,0-9.665-7.323Q839.84,281.518,839.724,281.538Z" transform="translate(-167.182 -131.339)" fill="#ffb6b6"/>
    <path id="Path_3275" data-name="Path 3275" d="M686.989,366.229h0a15.085,15.085,0,0,0,15.3,14.469l47.089-.721,59.546-27.617s19.419-16.482,24.833-16.87,8.3,4.649,7.07.05-2.85-7.678,1.311-7.249,3.5-8.058,4.419-11.268-11.736-14.8-11.736-14.8-9.121.176-9.718,1.375,1.48,4.218-3.421,4.089-8.644.077-8.8,2.353.2,4.05-2.512,5.812S795.4,326.7,795.4,326.7l-97,24.276a15.085,15.085,0,0,0-11.41,15.249Z" transform="translate(-186.495 -128.064)" fill="#0b2d61"/>
    <path id="Path_3276" data-name="Path 3276" d="M467.555,581.613h12.806l6.093-49.393h-18.9Z" transform="translate(58.423 84.136)" fill="#ffb6b6"/>
    <path id="Path_3277" data-name="Path 3277" d="M705.474,719.239l20.458-1.221v8.765l19.45,13.433a5.475,5.475,0,0,1-3.111,9.98H717.915l-4.2-8.67-1.639,8.67h-9.183Z" transform="translate(-183.696 -62.26)" fill="#0b2d61"/>
    <path id="Path_3278" data-name="Path 3278" d="M491.755,309.557l6.961-42.926-48.727-11.6V299.5Z" transform="translate(55.608 40.331)" fill="#ffb6b6"/>
    <path id="Path_3279" data-name="Path 3279" d="M674.654,489.365l23.823,154.854s-1.4,67.3,9.431,82.681l2.711,16.539H735.06s-.45-10.158,2.057-16.1,5.987-2.005,2.506-7.454-3.853-4.846-2.506-9.208,2.132-202.141,2.132-202.141Z" transform="translate(-188.189 -98.88)" fill="#0b2d61"/>
    <path id="Path_3280" data-name="Path 3280" d="M446,513.192l7.42,10.436L497.2,499.973l-10.952-15.4Z" transform="translate(54.973 76.505)" fill="#ffb6b6"/>
    <path id="Path_3281" data-name="Path 3281" d="M694.924,653.759l12.85,15.966-7.143,5.079.323,23.636a5.475,5.475,0,0,1-9.937,3.248L676.9,681.838l4.633-8.446-8.016,3.688L668.2,669.6Z" transform="translate(-189.177 -72.551)" fill="#0b2d61"/>
    <path id="Path_3282" data-name="Path 3282" d="M692.406,422.865l-.332,17.967s-44.037,38.644-10.831,85.749c0,0,4.184,13.561,9.994,12.931s8.768,2.611,7.289,5.631S753.5,584.9,753.5,584.9s-37.21,82.037-46.013,100.157l5.8,18.563s-3.073,7.18,1.654,4.46,2.4-3.091,7.625-4.065,11.661-3.213,11.343-4.414,64.952-102.188,64.952-102.188,15.639-16.637,4.188-36.136c-1.589-.356-1.631,0-1.631,0l-55.975-63.742-6.632-42.188Z" transform="translate(-189.398 -109.531)" fill="#0b2d61"/>
    <path id="Path_3283" data-name="Path 3283" d="M741.146,325.415l-28.2-13.215-8.441,14.688s-22.672,32.353-23,55.693,3.695,30.281,3.695,30.281-9.775,7.308-4.887,11.775,15.708,6.395,7.4,8.331-6.2,21.543,3.077,25.023,59.126,3.45,59.126,3.45a8.877,8.877,0,0,1,2.192-8.741c3.864-3.873,7.345-1.094,3.864-7.124s-9.281-2.55-4.641-10.671,4.639-10.548,4.639-10.548,11.3-19.492-4.789-37.537-.138-1.236-.138-1.236l-11.506-38.559Z" transform="translate(-187.53 -126.532)" fill="#0b2d61"/>
    <path id="Path_3284" data-name="Path 3284" d="M839.327,432.916h-40.3a19.9,19.9,0,0,1-19.878-19.878V372.743a19.9,19.9,0,0,1,19.878-19.878h40.3A19.9,19.9,0,0,1,859.2,372.743v40.3a19.9,19.9,0,0,1-19.877,19.878Z" transform="translate(-171.732 -120.061)" fill="#01183a"/>
    <path id="Path_3285" data-name="Path 3285" d="M857.327,300.916h-40.3a19.9,19.9,0,0,1-19.878-19.878V240.743a19.9,19.9,0,0,1,19.878-19.878h40.3A19.9,19.9,0,0,1,877.2,240.743v40.3a19.9,19.9,0,0,1-19.877,19.878Z" transform="translate(-168.849 -140.78)" fill="#01183a"/>
    <path id="Path_9" data-name="Path 9" d="M765.285,319.4l.025,0a4.939,4.939,0,0,0,4.323-5.486L766.4,286.543a36.834,36.834,0,0,0-4.57-13.935,37.427,37.427,0,0,0-21.845-17.328,36.855,36.855,0,0,0-14.72-1.268c-20.218,2.353-26.575,8.029-32.347,40.867s3.234,27.413,3.234,27.413a4.948,4.948,0,0,0,.615,1.875,5.028,5.028,0,0,0,2.941,2.326,4.965,4.965,0,0,0,1.968.169c24.7.941,49.675,2.15,63.609-7.259Z" transform="translate(-185.623 -135.723)" fill="#01183a"/>
    <path id="Ellipse_1" data-name="Ellipse 1" d="M709.368,281.675a27.168,27.168,0,0,0,35.784,35.185,26.852,26.852,0,0,0,14.525-14.743,27.168,27.168,0,0,0-35.761-35.178,26.852,26.852,0,0,0-14.547,14.736Z" transform="translate(-182.997 -133.97)" fill="#ffb6b6"/>
    <path id="Path_10" data-name="Path 10" d="M772.509,286.633a29.138,29.138,0,0,0-3.614-11.021c-2.173-8.849-6.484-16.364-17.274-13.7a29.15,29.15,0,0,0-11.567-1.008l-5.482.619-.185.021a29.088,29.088,0,0,0-25.46,32.311l.065.548,11.6-1.32,2.649-11.506,2.1,10.968,5.989-.68,1.336-5.805,1.058,5.53c10.351,5.807,23.644,3.382,38.855-4.407Z" transform="translate(-182.8 -134.61)" fill="#01183a"/>
    <path id="Path_13" data-name="Path 13" d="M742.561,318.04a4.86,4.86,0,0,1,.109,2.674,4.973,4.973,0,0,1-.5,1.292,5.03,5.03,0,0,1-.7.956,4.93,4.93,0,0,1-3.045,1.532q-.109.012-.218.02t-.219.01q-.111,0-.222,0t-.223-.009l-4.2-.262-7.093-11.436,1.308,11.087-19.1-1.161L702.9,275.7l31.37-3.548-.669.992a21.713,21.713,0,0,0-3.631,11.187,35.4,35.4,0,0,0,1.636,11.93,63.836,63.836,0,0,0,4.716,11.283,94.077,94.077,0,0,0,5.614,9.262A4.962,4.962,0,0,1,742.561,318.04Z" transform="translate(-183.688 -132.808)" fill="#01183a"/>
    <path id="Path_3286" data-name="Path 3286" d="M804.141,349.23a8.985,8.985,0,0,0-5.149,11.425,8.622,8.622,0,0,0,.616,1.285l-20.153,24.008,8.584,14.512,24.051-35.872a8.96,8.96,0,0,0,3.31-10.426,8.574,8.574,0,0,0-11.039-5.017Q804.25,349.186,804.141,349.23Z" transform="translate(-171.684 -120.718)" fill="#ffb6b6"/>
    <path id="Path_3287" data-name="Path 3287" d="M711.018,345.183h0a15.514,15.514,0,0,0-6.673,22.511l19.313,30.129L768.9,438.428s37.125-26.684,38.285-35.965-2.32-11.6,1.16-9.281,6.961,1.16,5.8,0-.705-1.233.228-2.937,4.413-9.825,4.413-9.825l-12.328-12.182s-13.2,6.381-14.356,9.861,3.48,2.32-1.16,3.48-10.84-4.1-6,1.43,4.441,7.934,0,7.893-12.563,11.56-12.563,11.56l-42.931-52.917a15.514,15.514,0,0,0-18.436-4.364Z" transform="translate(-184.106 -121.503)" fill="#0b2d61"/>
    <path id="Path_3290" data-name="Path 3290" d="M424.231,182.51H392.907a5.8,5.8,0,1,1,0-11.6h31.324a5.8,5.8,0,0,1,0,11.6Z" transform="translate(-233.544 -148.781)" fill="#e6e6e6"/>
    <circle id="Ellipse_214" data-name="Ellipse 214" cx="5.221" cy="5.221" r="5.221" transform="translate(390.338 22.708)" fill="#e6e6e6"/>
    <circle id="Ellipse_215" data-name="Ellipse 215" cx="5.221" cy="5.221" r="5.221" transform="translate(406.554 22.708)" fill="#e6e6e6"/>
    <circle id="Ellipse_216" data-name="Ellipse 216" cx="5.221" cy="5.221" r="5.221" transform="translate(422.77 22.708)" fill="#e6e6e6"/>
    <circle id="Ellipse_217" data-name="Ellipse 217" cx="13.922" cy="13.922" r="13.922" transform="translate(213.118 199.878)" fill="#ccc"/>
    <circle id="Ellipse_218" data-name="Ellipse 218" cx="13.922" cy="13.922" r="13.922" transform="translate(313.882 551.797)" fill="#ccc"/>
    <path id="Path_3291" data-name="Path 3291" d="M448.353,511.736h-40.3A21.062,21.062,0,0,1,387.019,490.7V450.4a21.062,21.062,0,0,1,21.038-21.038h40.3A21.062,21.062,0,0,1,469.391,450.4v40.3a21.062,21.062,0,0,1-21.038,21.038Zm-40.3-80.051A18.739,18.739,0,0,0,389.34,450.4v40.3a18.739,18.739,0,0,0,18.718,18.718h40.3A18.739,18.739,0,0,0,467.071,490.7V450.4a18.739,18.739,0,0,0-18.718-18.718Z" transform="translate(-233.558 -107.972)" fill="#e6e6e6"/>
    <path id="Path_3292" data-name="Path 3292" d="M533.853,512.236h-40.3A21.062,21.062,0,0,1,472.519,491.2V450.9a21.062,21.062,0,0,1,21.038-21.038h40.3A21.062,21.062,0,0,1,554.891,450.9v40.3A21.062,21.062,0,0,1,533.853,512.236Zm-40.3-80.051A18.739,18.739,0,0,0,474.84,450.9v40.3a18.739,18.739,0,0,0,18.718,18.718h40.3A18.739,18.739,0,0,0,552.571,491.2V450.9a18.739,18.739,0,0,0-18.718-18.718Z" transform="translate(-220.149 -107.893)" fill="#e6e6e6"/>
    <path id="Path_3293" data-name="Path 3293" d="M619.353,512.736h-40.3A21.062,21.062,0,0,1,558.019,491.7V451.4a21.062,21.062,0,0,1,21.038-21.038h40.3A21.062,21.062,0,0,1,640.391,451.4v40.3a21.062,21.062,0,0,1-21.038,21.038Zm-40.3-80.051A18.739,18.739,0,0,0,560.341,451.4v40.3a18.739,18.739,0,0,0,18.718,18.718h40.3A18.738,18.738,0,0,0,638.071,491.7V451.4a18.739,18.739,0,0,0-18.718-18.718Z" transform="translate(-206.639 -107.814)" fill="#e6e6e6"/>
    <circle id="Ellipse_219" data-name="Ellipse 219" cx="13.922" cy="13.922" r="13.922" transform="translate(313.882 316.859)" fill="#ccc"/>
  </g>
</svg>
