<svg xmlns="http://www.w3.org/2000/svg" width="526.633" height="594" viewBox="0 0 526.633 594">
  <g id="undraw_home_screen_re_640d" transform="translate(-98.355)">
    <rect id="Rectangle_346" data-name="Rectangle 346" width="326" height="594" rx="58.728" transform="translate(103.855)" fill="#01183a"/>
    <path id="Path_3257" data-name="Path 3257" d="M665.52,210.568v476.54a53.292,53.292,0,0,1-53.23,53.23H403.75a53.292,53.292,0,0,1-53.23-53.23V210.568a53.292,53.292,0,0,1,53.23-53.23h27.27v9.42a16.081,16.081,0,0,0,16.079,16.08H568.94a16.081,16.081,0,0,0,16.08-16.079v-9.421h27.27A53.292,53.292,0,0,1,665.52,210.568Z" transform="translate(-241.165 -151.835)" fill="#fff"/>
    <path id="Path_3258" data-name="Path 3258" d="M576.3,413.958c-12.089-5.45-25.565,6.887-16.6,18.431-30.3,27.6-75.284,37.308-114.449,25.764-.966,2.329-1.982,4.632-3.022,6.936A283.877,283.877,0,0,1,376.658,556.3c36.49-30.346,81.452-4.707,120.122,5.277A13.74,13.74,0,0,1,502.849,586a78.977,78.977,0,0,0-15.21-3.964,11.981,11.981,0,0,0-10.652,19.917c-40.5,19.422-90.891,12.263-125.647-15.631V569.753a285.224,285.224,0,0,0,85.49-107.191,280.91,280.91,0,0,0,16.449-45.928,266.988,266.988,0,0,0,8.324-52.667c-6.664-19.645-5.549-42.708,5.549-60.544,4.583,8.324,17.787,10.479,19.174-1.065.3-4.657.52-9.315.793-13.947,49.768-3.84,41.271,65.846-19.62,76.746a280.218,280.218,0,0,1-8.67,52.989c-.421,1.734-.892,3.443-1.387,5.153a119.043,119.043,0,0,1,42.535-36.02c16.077-7.531,34.806-9.141,52.667-12.04C574.368,371.7,589.752,396.518,576.3,413.958Z" transform="translate(-241.165 -151.835)" fill="#f2f2f2"/>
    <path id="Path_3259" data-name="Path 3259" d="M343.52,272.335a4,4,0,0,1-4-4v-8a4,4,0,0,1,8,0v8A4,4,0,0,1,343.52,272.335Z" transform="translate(-241.165 -151.835)" fill="#01183a"/>
    <path id="Path_3260" data-name="Path 3260" d="M343.52,313.357a4,4,0,0,1-4-4V287.335a4,4,0,0,1,8,0v22.022a4,4,0,0,1-4,4Z" transform="translate(-241.165 -151.835)" fill="#01183a"/>
    <path id="Path_3261" data-name="Path 3261" d="M343.52,346.335a4,4,0,0,1-4-4V320.314a4,4,0,0,1,8,0v22.022a4,4,0,0,1-4,4Z" transform="translate(-241.165 -151.835)" fill="#01183a"/>
    <path id="Path_3262" data-name="Path 3262" d="M671.52,328.335a4,4,0,0,1-4-4V270.6a4,4,0,1,1,8,0v53.733a4,4,0,0,1-4,4Z" transform="translate(-241.165 -151.835)" fill="#01183a"/>
    <path id="Path_3263" data-name="Path 3263" d="M516.612,170.181h-31a2.5,2.5,0,0,1,0-5h31a2.5,2.5,0,0,1,0,5Z" transform="translate(-241.165 -151.835)" fill="#fff"/>
    <circle id="Ellipse_210" data-name="Ellipse 210" cx="2" cy="2" r="2" transform="translate(289.447 13.846)" fill="#fff"/>
    <path id="Path_3264" data-name="Path 3264" d="M439.886,302.365H405.153a18.154,18.154,0,0,1-18.134-18.134V249.5a18.154,18.154,0,0,1,18.134-18.134h34.732A18.154,18.154,0,0,1,458.02,249.5v34.732a18.154,18.154,0,0,1-18.134,18.134Zm-34.732-69A16.152,16.152,0,0,0,389.02,249.5v34.732a16.152,16.152,0,0,0,16.134,16.134h34.732a16.152,16.152,0,0,0,16.134-16.134V249.5a16.152,16.152,0,0,0-16.134-16.134Z" transform="translate(-241.165 -151.835)" fill="#e6e6e6"/>
    <path id="Path_3265" data-name="Path 3265" d="M525.386,302.865H490.653a18.154,18.154,0,0,1-18.134-18.134V250a18.154,18.154,0,0,1,18.134-18.134h34.732A18.154,18.154,0,0,1,543.52,250v34.732A18.154,18.154,0,0,1,525.386,302.865Zm-34.732-69A16.152,16.152,0,0,0,474.52,250v34.732a16.152,16.152,0,0,0,16.134,16.134h34.732a16.152,16.152,0,0,0,16.134-16.134V250a16.152,16.152,0,0,0-16.134-16.134Z" transform="translate(-241.165 -151.835)" fill="#e6e6e6"/>
    <path id="Path_3266" data-name="Path 3266" d="M610.886,303.365H576.153a18.154,18.154,0,0,1-18.134-18.134V250.5a18.154,18.154,0,0,1,18.134-18.134h34.732A18.154,18.154,0,0,1,629.02,250.5v34.732a18.154,18.154,0,0,1-18.134,18.134Zm-34.732-69A16.152,16.152,0,0,0,560.02,250.5v34.732a16.152,16.152,0,0,0,16.134,16.134h34.732a16.152,16.152,0,0,0,16.134-16.134V250.5a16.152,16.152,0,0,0-16.134-16.134Z" transform="translate(-241.165 -151.835)" fill="#e6e6e6"/>
    <path id="Path_3267" data-name="Path 3267" d="M439.886,401.365H405.153a18.154,18.154,0,0,1-18.134-18.134V348.5a18.154,18.154,0,0,1,18.134-18.134h34.732A18.154,18.154,0,0,1,458.02,348.5v34.732a18.154,18.154,0,0,1-18.134,18.134Zm-34.732-69A16.152,16.152,0,0,0,389.02,348.5v34.732a16.152,16.152,0,0,0,16.134,16.134h34.732a16.152,16.152,0,0,0,16.134-16.134V348.5a16.152,16.152,0,0,0-16.134-16.134Z" transform="translate(-241.165 -151.835)" fill="#e6e6e6"/>
    <path id="Path_3268" data-name="Path 3268" d="M525.386,401.865H490.653a18.154,18.154,0,0,1-18.134-18.134V349a18.154,18.154,0,0,1,18.134-18.134h34.732A18.154,18.154,0,0,1,543.52,349v34.732a18.154,18.154,0,0,1-18.134,18.134Zm-34.732-69A16.152,16.152,0,0,0,474.52,349v34.732a16.152,16.152,0,0,0,16.134,16.134h34.732a16.152,16.152,0,0,0,16.134-16.134V349a16.152,16.152,0,0,0-16.134-16.134Z" transform="translate(-241.165 -151.835)" fill="#e6e6e6"/>
    <path id="Path_3269" data-name="Path 3269" d="M610.886,402.365H576.153a18.154,18.154,0,0,1-18.134-18.134V349.5a18.154,18.154,0,0,1,18.134-18.134h34.732A18.154,18.154,0,0,1,629.02,349.5v34.732A18.154,18.154,0,0,1,610.886,402.365Zm-34.732-69A16.152,16.152,0,0,0,560.02,349.5v34.732a16.152,16.152,0,0,0,16.134,16.134h34.732a16.152,16.152,0,0,0,16.134-16.134V349.5a16.152,16.152,0,0,0-16.134-16.134Z" transform="translate(-241.165 -151.835)" fill="#e6e6e6"/>
    <path id="Path_3270" data-name="Path 3270" d="M439.886,701.365H405.154a17.153,17.153,0,0,1-17.134-17.134V649.5a17.153,17.153,0,0,1,17.134-17.134h34.732A17.153,17.153,0,0,1,457.02,649.5v34.732a17.153,17.153,0,0,1-17.134,17.134Z" transform="translate(-241.165 -151.835)" fill="#0b2d61"/>
    <path id="Path_3271" data-name="Path 3271" d="M525.386,701.865H490.654a17.153,17.153,0,0,1-17.134-17.134V650a17.153,17.153,0,0,1,17.134-17.134h34.732A17.153,17.153,0,0,1,542.52,650v34.732a17.153,17.153,0,0,1-17.134,17.134Z" transform="translate(-241.165 -151.835)" fill="#e6e6e6"/>
    <path id="Path_3272" data-name="Path 3272" d="M610.886,702.365H576.154a17.153,17.153,0,0,1-17.134-17.134V650.5a17.153,17.153,0,0,1,17.134-17.134h34.732A17.153,17.153,0,0,1,628.02,650.5v34.732A17.153,17.153,0,0,1,610.886,702.365Z" transform="translate(-241.165 -151.835)" fill="#e6e6e6"/>
    <circle id="Ellipse_211" data-name="Ellipse 211" cx="5" cy="5" r="5" transform="translate(243.855 442.03)" fill="#ccc"/>
    <circle id="Ellipse_212" data-name="Ellipse 212" cx="5" cy="5" r="5" transform="translate(261.855 442.03)" fill="#e6e6e6"/>
    <circle id="Ellipse_213" data-name="Ellipse 213" cx="5" cy="5" r="5" transform="translate(279.855 442.03)" fill="#e6e6e6"/>
    <path id="Path_3273" data-name="Path 3273" d="M627.606,712.865H388.7a20.571,20.571,0,0,1-20.547-20.547V641.412A20.571,20.571,0,0,1,388.7,620.865h238.9a20.571,20.571,0,0,1,20.547,20.547v50.906A20.571,20.571,0,0,1,627.606,712.865Zm-238.9-90a18.568,18.568,0,0,0-18.547,18.547v50.906A18.568,18.568,0,0,0,388.7,710.865H627.606a18.568,18.568,0,0,0,18.547-18.547V641.412a18.568,18.568,0,0,0-18.547-18.547Z" transform="translate(-241.165 -151.835)" fill="#e6e6e6"/>
    <path id="Path_3274" data-name="Path 3274" d="M835.285,281.522a7.744,7.744,0,0,0-6.5,8.63,7.435,7.435,0,0,0,.274,1.2l-21.5,16.365,4.466,13.83,27.025-25.6a7.723,7.723,0,0,0,4.76-8.139,7.391,7.391,0,0,0-8.331-6.312Q835.385,281.505,835.285,281.522Z" transform="translate(-241.165 -151.835)" fill="#ffb6b6"/>
    <path id="Path_3275" data-name="Path 3275" d="M686.987,357.394h0a13,13,0,0,0,13.191,12.471l40.589-.621,51.326-23.8s16.738-14.207,21.4-14.541,7.152,4.007,6.094.043-2.457-6.618,1.13-6.248,3.016-6.946,3.809-9.713-10.116-12.754-10.116-12.754-7.862.152-8.376,1.185,1.276,3.636-2.949,3.524-7.451.066-7.583,2.028.176,3.491-2.165,5.01-12.908,9.351-12.908,9.351L696.822,344.25a13,13,0,0,0-9.835,13.144Z" transform="translate(-241.165 -151.835)" fill="#0b2d61"/>
    <path id="Path_3276" data-name="Path 3276" d="M467.555,574.794h11.038l5.252-42.574h-16.29Z" fill="#ffb6b6"/>
    <path id="Path_3277" data-name="Path 3277" d="M705.118,719.07l17.634-1.052v7.555l16.765,11.579a4.719,4.719,0,0,1-2.682,8.6H715.841l-3.619-7.473-1.413,7.473h-7.916Z" transform="translate(-241.165 -151.835)" fill="#0b2d61"/>
    <path id="Path_3278" data-name="Path 3278" d="M485.989,302.03l6-37-42-10v38.331Z" fill="#ffb6b6"/>
    <path id="Path_3279" data-name="Path 3279" d="M674.654,489.365l20.534,133.477s-1.208,58.011,8.129,71.267l2.337,14.256h21.067s-.388-8.756,1.773-13.878,5.16-1.728,2.16-6.425-3.321-4.177-2.16-7.937,1.838-174.236,1.838-174.236Z" transform="translate(-241.165 -151.835)" fill="#0b2d61"/>
    <path id="Path_3280" data-name="Path 3280" d="M446,509.241l6.4,9,37.741-20.389-9.44-13.277Z" fill="#ffb6b6"/>
    <path id="Path_3281" data-name="Path 3281" d="M691.235,653.759l11.076,13.762-6.157,4.378.279,20.373a4.719,4.719,0,0,1-8.565,2.8L675.7,677.962l3.994-7.28-6.909,3.179L668.2,667.41Z" transform="translate(-241.165 -151.835)" fill="#0b2d61"/>
    <path id="Path_3282" data-name="Path 3282" d="M689.154,422.865l-.286,15.487s-37.958,33.31-9.336,73.912c0,0,3.606,11.689,8.614,11.146s7.558,2.25,6.283,4.853,47.386,34.273,47.386,34.273-32.073,70.712-39.661,86.331l5,16s-2.648,6.189,1.426,3.844,2.07-2.664,6.572-3.5,10.051-2.769,9.777-3.8,55.985-88.081,55.985-88.081,13.48-14.34,3.61-31.147c-1.37-.307-1.406,0-1.406,0L734.87,487.23l-5.717-36.364Z" transform="translate(-241.165 -151.835)" fill="#0b2d61"/>
    <path id="Path_3283" data-name="Path 3283" d="M732.559,323.591l-24.3-11.391-7.276,12.661s-19.542,27.887-19.825,48,3.185,26.1,3.185,26.1-8.426,6.3-4.213,10.15,13.539,5.512,6.376,7.181-5.348,18.569,2.652,21.569,50.964,2.974,50.964,2.974a7.651,7.651,0,0,1,1.89-7.534c3.331-3.339,6.331-.943,3.331-6.141s-8-2.2-4-9.2,4-9.092,4-9.092,9.742-16.8-4.128-32.355-.119-1.066-.119-1.066l-9.918-33.236Z" transform="translate(-241.165 -151.835)" fill="#0b2d61"/>
    <path id="Path_3284" data-name="Path 3284" d="M831.02,421.865H796.287a17.153,17.153,0,0,1-17.134-17.134V370a17.153,17.153,0,0,1,17.134-17.134h34.732A17.153,17.153,0,0,1,848.153,370v34.732a17.153,17.153,0,0,1-17.133,17.134Z" transform="translate(-241.165 -151.835)" fill="#01183a"/>
    <path id="Path_3285" data-name="Path 3285" d="M849.02,289.865H814.287a17.153,17.153,0,0,1-17.134-17.134V238a17.153,17.153,0,0,1,17.134-17.134h34.732A17.153,17.153,0,0,1,866.153,238v34.732a17.153,17.153,0,0,1-17.133,17.134Z" transform="translate(-241.165 -151.835)" fill="#01183a"/>
    <path id="Path_9" data-name="Path 9" d="M755.029,310.342l.021,0a4.257,4.257,0,0,0,3.726-4.729l-2.783-23.593a31.749,31.749,0,0,0-3.939-12.012,32.26,32.26,0,0,0-18.829-14.936,31.767,31.767,0,0,0-12.688-1.093C703.111,256,697.631,260.9,692.655,289.2s2.787,23.629,2.787,23.629a4.265,4.265,0,0,0,.53,1.616,4.333,4.333,0,0,0,2.535,2.005,4.279,4.279,0,0,0,1.7.146c21.289.811,42.818,1.854,54.828-6.257Z" transform="translate(-241.165 -151.835)" fill="#01183a"/>
    <path id="Ellipse_1" data-name="Ellipse 1" d="M709.095,279.346a23.418,23.418,0,0,0,30.844,30.328,23.145,23.145,0,0,0,12.52-12.708,23.418,23.418,0,0,0-30.825-30.322,23.145,23.145,0,0,0-12.539,12.7Z" transform="translate(-241.165 -151.835)" fill="#ffb6b6"/>
    <path id="Path_10" data-name="Path 10" d="M763.7,283.055a25.115,25.115,0,0,0-3.115-9.5c-1.873-7.628-5.589-14.1-14.89-11.809a25.126,25.126,0,0,0-9.97-.869l-4.725.533-.159.018A25.072,25.072,0,0,0,708.9,289.28l.056.473,9.994-1.138,2.284-9.918,1.806,9.454,5.162-.586,1.151-5,.912,4.767c8.922,5.005,20.38,2.915,33.491-3.8Z" transform="translate(-241.165 -151.835)" fill="#01183a"/>
    <path id="Path_13" data-name="Path 13" d="M737.086,311.7a4.189,4.189,0,0,1,.094,2.3,4.284,4.284,0,0,1-.434,1.113,4.334,4.334,0,0,1-.6.824,4.25,4.25,0,0,1-2.625,1.32q-.094.01-.188.017t-.189.009q-.1,0-.191,0t-.192-.008l-3.622-.226-6.114-9.857,1.127,9.557-16.462-1L702.9,275.206l27.039-3.058-.577.855a18.715,18.715,0,0,0-3.13,9.643,30.51,30.51,0,0,0,1.41,10.283,55.021,55.021,0,0,0,4.065,9.726,81.086,81.086,0,0,0,4.839,7.984A4.279,4.279,0,0,1,737.086,311.7Z" transform="translate(-241.165 -151.835)" fill="#01183a"/>
    <path id="Path_3286" data-name="Path 3286" d="M800.733,349.143a7.744,7.744,0,0,0-4.438,9.848,7.434,7.434,0,0,0,.531,1.108l-17.371,20.694,7.4,12.509,20.731-30.92a7.723,7.723,0,0,0,2.853-8.986,7.391,7.391,0,0,0-9.515-4.325Q800.827,349.1,800.733,349.143Z" transform="translate(-241.165 -151.835)" fill="#ffb6b6"/>
    <path id="Path_3287" data-name="Path 3287" d="M709.758,344.993h0a13.373,13.373,0,0,0-5.752,19.4l16.647,25.97,39,35s32-23,33-31-2-10,1-8,6,1,5,0-.608-1.063.2-2.531,3.8-8.469,3.8-8.469l-10.626-10.5s-11.374,5.5-12.374,8.5,3,2-1,3-9.343-3.535-5.172,1.232,3.828,6.839,0,6.8-10.828,9.965-10.828,9.965l-37-45.612a13.372,13.372,0,0,0-15.891-3.761Z" transform="translate(-241.165 -151.835)" fill="#0b2d61"/>
    <path id="Path_3290" data-name="Path 3290" d="M419.106,180.908h-27a5,5,0,1,1,0-10h27a5,5,0,0,1,0,10Z" transform="translate(-241.165 -151.835)" fill="#e6e6e6"/>
    <circle id="Ellipse_214" data-name="Ellipse 214" cx="4.5" cy="4.5" r="4.5" transform="translate(350.441 19.573)" fill="#e6e6e6"/>
    <circle id="Ellipse_215" data-name="Ellipse 215" cx="4.5" cy="4.5" r="4.5" transform="translate(364.441 19.573)" fill="#e6e6e6"/>
    <circle id="Ellipse_216" data-name="Ellipse 216" cx="4.5" cy="4.5" r="4.5" transform="translate(378.441 19.573)" fill="#e6e6e6"/>
    <circle id="Ellipse_217" data-name="Ellipse 217" cx="12" cy="12" r="12" transform="translate(197.441 172.573)" fill="#ccc"/>
    <circle id="Ellipse_218" data-name="Ellipse 218" cx="12" cy="12" r="12" transform="translate(284.441 476.573)" fill="#ccc"/>
    <path id="Path_3291" data-name="Path 3291" d="M439.886,500.365H405.153a18.154,18.154,0,0,1-18.134-18.134V447.5a18.154,18.154,0,0,1,18.134-18.134h34.732A18.154,18.154,0,0,1,458.02,447.5v34.732a18.154,18.154,0,0,1-18.134,18.134Zm-34.732-69A16.152,16.152,0,0,0,389.02,447.5v34.732a16.152,16.152,0,0,0,16.134,16.134h34.732a16.152,16.152,0,0,0,16.134-16.134V447.5a16.152,16.152,0,0,0-16.134-16.134Z" transform="translate(-241.165 -151.835)" fill="#e6e6e6"/>
    <path id="Path_3292" data-name="Path 3292" d="M525.386,500.865H490.653a18.154,18.154,0,0,1-18.134-18.134V448a18.154,18.154,0,0,1,18.134-18.134h34.732A18.154,18.154,0,0,1,543.52,448v34.732A18.154,18.154,0,0,1,525.386,500.865Zm-34.732-69A16.152,16.152,0,0,0,474.52,448v34.732a16.152,16.152,0,0,0,16.134,16.134h34.732a16.152,16.152,0,0,0,16.134-16.134V448a16.152,16.152,0,0,0-16.134-16.134Z" transform="translate(-241.165 -151.835)" fill="#e6e6e6"/>
    <path id="Path_3293" data-name="Path 3293" d="M610.886,501.365H576.153a18.154,18.154,0,0,1-18.134-18.134V448.5a18.154,18.154,0,0,1,18.134-18.134h34.732A18.154,18.154,0,0,1,629.02,448.5v34.732a18.154,18.154,0,0,1-18.134,18.134Zm-34.732-69A16.152,16.152,0,0,0,560.02,448.5v34.732a16.152,16.152,0,0,0,16.134,16.134h34.732a16.152,16.152,0,0,0,16.134-16.134V448.5a16.152,16.152,0,0,0-16.134-16.134Z" transform="translate(-241.165 -151.835)" fill="#e6e6e6"/>
    <circle id="Ellipse_219" data-name="Ellipse 219" cx="12" cy="12" r="12" transform="translate(284.441 273.573)" fill="#ccc"/>
  </g>
</svg>
