<svg xmlns="http://www.w3.org/2000/svg" width="610.826" height="464.461" viewBox="0 0 610.826 464.461">
  <g id="game-design" transform="translate(-133.505 0)">
    <ellipse id="Ellipse_419" data-name="Ellipse 419" cx="96.447" cy="11.215" rx="96.447" ry="11.215" transform="translate(205.649 441.658)" fill="#e6e6e6"/>
    <ellipse id="Ellipse_420" data-name="Ellipse 420" cx="96.447" cy="11.215" rx="96.447" ry="11.215" transform="translate(551.437 442.032)" fill="#e6e6e6"/>
    <path id="Path_4262" data-name="Path 4262" d="M751.986,388.5H263.426a5.177,5.177,0,0,1-5.171-5.171V144.557a5.177,5.177,0,0,1,5.171-5.171h488.56a5.177,5.177,0,0,1,5.171,5.171V383.325a5.177,5.177,0,0,1-5.171,5.17ZM263.426,141.454a3.106,3.106,0,0,0-3.1,3.1V383.325a3.106,3.106,0,0,0,3.1,3.1h488.56a3.106,3.106,0,0,0,3.1-3.1V144.557a3.106,3.106,0,0,0-3.1-3.1Z" transform="translate(-124.75 -139.386)" fill="#e6e6e6"/>
    <circle id="Ellipse_421" data-name="Ellipse 421" cx="8.019" cy="8.019" r="8.019" transform="translate(357.753 87.709)" fill="#3f3d56"/>
    <circle id="Ellipse_422" data-name="Ellipse 422" cx="5.155" cy="5.155" r="5.155" transform="translate(360.617 90.573)" fill="#0b2d61"/>
    <circle id="Ellipse_423" data-name="Ellipse 423" cx="8.019" cy="8.019" r="8.019" transform="translate(392.12 87.709)" fill="#3f3d56"/>
    <circle id="Ellipse_424" data-name="Ellipse 424" cx="5.155" cy="5.155" r="5.155" transform="translate(394.984 90.573)" fill="#0b2d61"/>
    <path id="Path_4263" data-name="Path 4263" d="M561.947,268.191a15.425,15.425,0,0,0-15.408,13.978l-1.6,16.434a14.048,14.048,0,0,0,13.982,15.412h42.23A14.048,14.048,0,0,0,615.13,298.6l-1.6-16.434a15.425,15.425,0,0,0-15.408-13.978Z" transform="translate(-197.077 -171.89)" fill="#3f3d56"/>
    <path id="Path_4264" data-name="Path 4264" d="M596.6,294.712a7.483,7.483,0,0,1,10.452-1.545,7.483,7.483,0,1,0-10.452,1.545Z" transform="translate(-209.367 -175.176)" fill="#fff"/>
    <path id="Path_4265" data-name="Path 4265" d="M573.249,296.644A7.483,7.483,0,0,1,583.7,295.1a7.483,7.483,0,1,0-10.452,1.545Z" transform="translate(-203.474 -175.664)" fill="#fff"/>
    <circle id="Ellipse_425" data-name="Ellipse 425" cx="2.757" cy="2.757" r="2.757" transform="translate(371.969 110.747)" fill="#3f3d56"/>
    <circle id="Ellipse_426" data-name="Ellipse 426" cx="2.757" cy="2.757" r="2.757" transform="translate(389.823 108.647)" fill="#3f3d56"/>
    <circle id="Ellipse_427" data-name="Ellipse 427" cx="2.864" cy="2.864" r="2.864" transform="translate(380.27 120.358)" fill="#8aa1c5"/>
    <path id="Path_4266" data-name="Path 4266" d="M576.852,310.328a6.31,6.31,0,0,0,6.275,5.728h11.456a6.309,6.309,0,0,0,6.275-5.728Z" transform="translate(-205.148 -182.523)" fill="#fff"/>
    <path id="Path_4267" data-name="Path 4267" d="M349.231,270.8a8.019,8.019,0,0,1-16.038,0c0-4.429,3.59-22.912,8.019-22.912S349.231,266.371,349.231,270.8Z" transform="translate(-143.66 -166.766)" fill="#e6e6e6"/>
    <path id="Path_4268" data-name="Path 4268" d="M347.333,271.766a5.155,5.155,0,0,1-10.31,0c0-2.847,2.308-20.048,5.155-20.048S347.333,268.919,347.333,271.766Z" transform="translate(-144.627 -167.733)" fill="#fff"/>
    <path id="Path_4269" data-name="Path 4269" d="M379.16,270.22a8.019,8.019,0,0,0,16.038,0c0-4.429-3.59-24.63-8.019-24.63S379.16,265.791,379.16,270.22Z" transform="translate(-155.26 -166.186)" fill="#e6e6e6"/>
    <path id="Path_4270" data-name="Path 4270" d="M382.99,271.186a5.155,5.155,0,1,0,10.31,0c0-2.847-2.308-21.766-5.155-21.766S382.99,268.339,382.99,271.186Z" transform="translate(-156.227 -167.153)" fill="#fff"/>
    <path id="Path_4271" data-name="Path 4271" d="M336.947,279.3a15.425,15.425,0,0,0-15.408,13.978l-1.6,16.434a14.048,14.048,0,0,0,13.982,15.412h42.23a14.048,14.048,0,0,0,13.982-15.412l-1.6-16.434A15.425,15.425,0,0,0,373.119,279.3Z" transform="translate(-140.298 -174.693)" fill="#e6e6e6"/>
    <path id="Path_4272" data-name="Path 4272" d="M371.6,305.821a7.483,7.483,0,0,1,10.452-1.545,7.483,7.483,0,1,0-10.452,1.545Z" transform="translate(-152.588 -177.979)" fill="#fff"/>
    <path id="Path_4273" data-name="Path 4273" d="M348.249,307.753a7.483,7.483,0,0,1,10.452-1.545,7.483,7.483,0,1,0-10.452,1.545Z" transform="translate(-146.695 -178.467)" fill="#fff"/>
    <circle id="Ellipse_428" data-name="Ellipse 428" cx="2.757" cy="2.757" r="2.757" transform="translate(203.748 123.635)" fill="#e6e6e6"/>
    <circle id="Ellipse_429" data-name="Ellipse 429" cx="2.757" cy="2.757" r="2.757" transform="translate(222.175 122.107)" fill="#e6e6e6"/>
    <circle id="Ellipse_430" data-name="Ellipse 430" cx="2.864" cy="2.864" r="2.864" transform="translate(212.049 128.664)" fill="#fff"/>
    <path id="Path_4274" data-name="Path 4274" d="M374.714,315.824a3.634,3.634,0,0,1,3.055.224c1.049.431,2.067.919,3.148,1.27a12.781,12.781,0,0,0,6.29.548c3.815-.713,7.016-4.123,6.159-8.167-.229-1.081-1.886-.624-1.657.457a4.835,4.835,0,0,1-1.54,4.441,7.276,7.276,0,0,1-5.048,1.742,15.008,15.008,0,0,1-5.862-1.5c-1.75-.775-3.586-1.447-5.412-.5-.981.511-.113,1.994.867,1.484Z" transform="translate(-153.811 -182.208)" fill="#fff"/>
    <path id="Path_4275" data-name="Path 4275" d="M353.942,314.341c-1.779-.926-3.58-.311-5.294.444a15.349,15.349,0,0,1-5.98,1.554,7.308,7.308,0,0,1-4.968-1.67,4.852,4.852,0,0,1-1.62-4.513c.229-1.079-1.427-1.54-1.657-.457-.857,4.044,2.344,7.454,6.159,8.167a12.756,12.756,0,0,0,6.29-.548c1.081-.353,2.1-.839,3.148-1.27a3.636,3.636,0,0,1,3.055-.224c.98.51,1.85-.973.867-1.484Z" transform="translate(-143.936 -182.209)" fill="#fff"/>
    <ellipse id="Ellipse_431" data-name="Ellipse 431" cx="4.582" cy="2.291" rx="4.582" ry="2.291" transform="translate(211.012 136.969)" fill="#fff"/>
    <circle id="Ellipse_432" data-name="Ellipse 432" cx="16.177" cy="16.177" r="16.177" transform="translate(506.074 86.494)" fill="#3f3d56"/>
    <circle id="Ellipse_433" data-name="Ellipse 433" cx="10.399" cy="10.399" r="10.399" transform="translate(511.851 92.272)" fill="#0b2d61"/>
    <circle id="Ellipse_434" data-name="Ellipse 434" cx="16.177" cy="16.177" r="16.177" transform="translate(563.926 86.494)" fill="#3f3d56"/>
    <circle id="Ellipse_435" data-name="Ellipse 435" cx="10.399" cy="10.399" r="10.399" transform="translate(569.704 92.272)" fill="#0b2d61"/>
    <path id="Path_4276" data-name="Path 4276" d="M788.133,269.816q-.375,0-.746.018c-9.321.438-15.765,9.562-13.494,18.612l.329,1.311c1.169,4.658,1.964,9.393,2.752,14.13a14.044,14.044,0,0,0,13.857,11.752h30.774a14.046,14.046,0,0,0,13.959-12.477,97.345,97.345,0,0,1,2.473-12.7l.507-2.019c2.272-9.051-4.172-18.175-13.494-18.613q-.371-.017-.746-.017Z" transform="translate(-254.756 -172.3)" fill="#3f3d56"/>
    <path id="Path_4277" data-name="Path 4277" d="M821.985,296.337a7.483,7.483,0,0,1,10.452-1.545,7.483,7.483,0,1,0-10.452,1.545Z" transform="translate(-266.242 -175.586)" fill="#fff"/>
    <path id="Path_4278" data-name="Path 4278" d="M798.632,298.269a7.483,7.483,0,0,1,10.452-1.545,7.483,7.483,0,1,0-10.452,1.545Z" transform="translate(-260.349 -176.074)" fill="#fff"/>
    <circle id="Ellipse_436" data-name="Ellipse 436" cx="2.757" cy="2.757" r="2.757" transform="translate(537.613 111.962)" fill="#3f3d56"/>
    <circle id="Ellipse_437" data-name="Ellipse 437" cx="2.757" cy="2.757" r="2.757" transform="translate(555.466 111.007)" fill="#3f3d56"/>
    <path id="Path_4279" data-name="Path 4279" d="M819.421,305.157a2.864,2.864,0,1,1-5.048-1.853c.525-.619,1.131,1.28,2.006,1.28.906,0,1.893-1.87,2.417-1.213a2.852,2.852,0,0,1,.625,1.786Z" transform="translate(-264.915 -180.719)" fill="#8aa1c5"/>
    <path id="Path_4280" data-name="Path 4280" d="M684.346,171.8h13.747a6.874,6.874,0,0,1-6.874,6.874h0a6.874,6.874,0,0,1-6.874-6.874Z" transform="translate(-139.005 -43.354)" fill="#fff"/>
    <ellipse id="Ellipse_438" data-name="Ellipse 438" cx="3.723" cy="6.301" rx="3.723" ry="6.301" transform="translate(545.735 88.351)" fill="#8aa1c5"/>
    <ellipse id="Ellipse_439" data-name="Ellipse 439" cx="6.301" cy="3.723" rx="6.301" ry="3.723" transform="matrix(0.574, -0.819, 0.819, 0.574, 548.522, 98.823)" fill="#8aa1c5"/>
    <path id="Path_4281" data-name="Path 4281" d="M397.217,331.027H300.426a5.177,5.177,0,0,1-5.171-5.171V221.665a5.177,5.177,0,0,1,5.171-5.171h96.792a5.177,5.177,0,0,1,5.171,5.171V325.856A5.177,5.177,0,0,1,397.217,331.027ZM300.426,218.563a3.106,3.106,0,0,0-3.1,3.1V325.856a3.106,3.106,0,0,0,3.1,3.1h96.791a3.106,3.106,0,0,0,3.1-3.1V221.665a3.106,3.106,0,0,0-3.1-3.1Z" transform="translate(-134.087 -158.844)" fill="#e6e6e6"/>
    <path id="Path_4282" data-name="Path 4282" d="M622.217,331.027H525.426a5.177,5.177,0,0,1-5.171-5.171V221.665a5.177,5.177,0,0,1,5.171-5.171h96.792a5.177,5.177,0,0,1,5.171,5.171V325.856A5.177,5.177,0,0,1,622.217,331.027ZM525.426,218.563a3.106,3.106,0,0,0-3.1,3.1V325.856a3.106,3.106,0,0,0,3.1,3.1h96.792a3.106,3.106,0,0,0,3.1-3.1V221.665a3.106,3.106,0,0,0-3.1-3.1Z" transform="translate(-190.866 -158.844)" fill="#e6e6e6"/>
    <path id="Path_4283" data-name="Path 4283" d="M847.217,331.027H750.426a5.177,5.177,0,0,1-5.171-5.171V221.665a5.177,5.177,0,0,1,5.171-5.171h96.791a5.177,5.177,0,0,1,5.171,5.171V325.856A5.177,5.177,0,0,1,847.217,331.027ZM750.426,218.563a3.106,3.106,0,0,0-3.1,3.1V325.856a3.106,3.106,0,0,0,3.1,3.1h96.791a3.106,3.106,0,0,0,3.1-3.1V221.665a3.106,3.106,0,0,0-3.1-3.1Z" transform="translate(-247.645 -158.844)" fill="#e6e6e6"/>
    <path id="Path_4284" data-name="Path 4284" d="M784.65,385.468a.748.748,0,0,0-.748.748V392.2a.748.748,0,0,0,.748.748H832.5a.748.748,0,0,0,.748-.748v-5.981a.748.748,0,0,0-.748-.748Z" transform="translate(-257.397 -201.485)" fill="#3f3d56"/>
    <path id="Path_4285" data-name="Path 4285" d="M559.65,385.468a.748.748,0,0,0-.748.748V392.2a.748.748,0,0,0,.748.748H607.5a.748.748,0,0,0,.748-.748v-5.981a.748.748,0,0,0-.748-.748Z" transform="translate(-200.618 -201.485)" fill="#0b2d61"/>
    <path id="Path_4286" data-name="Path 4286" d="M334.65,385.468a.748.748,0,0,0-.748.748V392.2a.748.748,0,0,0,.748.748H382.5a.748.748,0,0,0,.748-.748v-5.981a.748.748,0,0,0-.748-.748Z" transform="translate(-143.84 -201.485)" fill="#e6e6e6"/>
    <path id="Path_4296" data-name="Path 4296" d="M955.507,723.339s-16.58,1.275-14.88,7.227,14.88,5.1,14.88,5.1,10.2-.85,15.73.85,11.9,0,12.329-2.976-2.976-5.1-2.976-5.1l-2.126-4.251Z" transform="translate(-296.916 -286.747)" fill="#2f2e41"/>
    <path id="Path_4297" data-name="Path 4297" d="M900.718,545.642l-1.7,6.8s-7.652,15.73,1.7,15.73,5.952-14.455,5.952-14.455l.85-6.8Z" transform="translate(-285.703 -241.905)" fill="#9f616a"/>
    <path id="Path_4298" data-name="Path 4298" d="M1009.734,538.25l1.7,6.8s7.652,15.73-1.7,15.73-5.952-14.455-5.952-14.455l-.85-6.8Z" transform="translate(-312.669 -240.039)" fill="#9f616a"/>
    <circle id="Ellipse_441" data-name="Ellipse 441" cx="18.281" cy="18.281" r="18.281" transform="translate(634.572 146.011)" fill="#9f616a"/>
    <path id="Path_4299" data-name="Path 4299" d="M945.5,376.892s2.126,9.778.85,14.455,26.359-.85,26.359-.85-9.778-16.155-9.353-16.58Z" transform="translate(-298.177 -198.569)" fill="#9f616a"/>
    <path id="Path_4300" data-name="Path 4300" d="M941.8,391.686s-7.654-2.119-10.2.434-17.422,9.793-17.422,9.793L924.435,464.4l44.206-9.817,7.6-59.1s-12.062-7.059-14.11-5.648S941.8,391.686,941.8,391.686Z" transform="translate(-290.272 -202.539)" fill="#ccc"/>
    <path id="Path_4301" data-name="Path 4301" d="M914.023,406.249l-2.042-1.093s-7.736,1.526-7.306,7.478,2.16,39.111,2.16,39.111l-6.75,59.95,12.331,2.115L924.7,463.633Z" transform="translate(-286.716 -206.453)" fill="#ccc"/>
    <path id="Path_4302" data-name="Path 4302" d="M991.915,398.789l2.04-1.1s7.739,1.513,7.319,7.465-2.091,39.114-2.091,39.114l6.855,59.938-12.327,2.136-12.373-50.155Z" transform="translate(-307.22 -204.57)" fill="#ccc"/>
    <path id="Path_4303" data-name="Path 4303" d="M926,479.378l-1.7,25.933-5.527,51.867,8.078,107.559,28.059.85-8.5-102.458,8.5-35.286,27.793-1.029s1.967-40.634-13.763-53.388Z" transform="translate(-291.433 -223.681)" fill="#01183a"/>
    <path id="Path_4304" data-name="Path 4304" d="M842.626,397l-4.464,93.743-1.488,47.4,25.083,2.551,6.329-139.406-9.73-9.817Z" transform="translate(-177.445 -98.788)" fill="#01183a"/>
    <path id="Path_4305" data-name="Path 4305" d="M954.1,326.634s-16.58-2.126-21.257,5.952c0,0-1.275,5.952-5.527,8.078s.85,9.353,2.126,11.479,4.677,14.455.85,17.431,6.8,11.479,6.8,11.479,5.1,6.8.85,11.9,5.527,6.8,5.527,6.8-2.126,14.455,1.7,10.628c0,0,1.7,32.735,17.856,12.329s22.957-30.185,16.155-38.262-1.7-15.3-1.7-15.3,2.126-4.251-2.551-10.628S970.253,326.634,954.1,326.634Z" transform="translate(-293.168 -186.574)" fill="#444"/>
    <path id="Path_4306" data-name="Path 4306" d="M926.507,726.751s-16.58,1.275-14.88,7.227,14.88,5.1,14.88,5.1,10.2-.85,15.73.85,11.9,0,12.329-2.976-2.976-5.1-2.976-5.1l-2.126-4.251Z" transform="translate(-289.598 -287.608)" fill="#2f2e41"/>
    <path id="Path_4307" data-name="Path 4307" d="M547.021,114.755l-24.272-14.623,7.088,27.437,4.273-10,7.127,9.556,2.114-1.576L536.224,116Z" transform="translate(-98.226 -25.268)" fill="#0b2d61"/>
    <path id="Path_4308" data-name="Path 4308" d="M599.108,114.755l24.272-14.623-7.088,27.437-4.273-10-7.127,9.556-2.114-1.576L609.906,116Z" transform="translate(-117.495 -25.268)" fill="#3f3d56"/>
    <g id="undraw_innovative_b409" transform="translate(194.783 125.545)">
      <path id="Path_4314" data-name="Path 4314" d="M393.5,439.169,433.608,361.5l10.823,6.366-45.837,74.486Z" transform="translate(-337.795 -238.27)" fill="#273a57"/>
      <path id="Path_4315" data-name="Path 4315" d="M483.508,599.663s7.392,5.808,8.231-6.619a14.255,14.255,0,0,1,5.186-10.243c3.347-2.674,8.164-4.5,13.958-.963a12.02,12.02,0,0,1,6.033,11.794,18.125,18.125,0,0,1-9.061,14.168c-5.747,3.411-14.819,5.979-24.348-2.406C483.508,605.393,477.778,599.027,483.508,599.663Z" transform="translate(-451.039 -381.894)" fill="#0b2d61"/>
      <circle id="Ellipse_443" data-name="Ellipse 443" cx="15.449" cy="15.449" r="15.449" transform="translate(87.938 3.772)" fill="#ffb8b8"/>
      <path id="Path_4316" data-name="Path 4316" d="M583.586,306.878s4.065,21.14,2.439,25.206,22.766-1.626,22.766-1.626-4.879-21.14-4.065-26.019S583.586,306.878,583.586,306.878Z" transform="translate(-488.33 -280.338)" fill="#ffb8b8"/>
      <path id="Path_4317" data-name="Path 4317" d="M413.479,323.215l1.626,21.953,8.071,34.477,2.5,9.43,4.066-14.635L425.675,341.1l-1.381-15.009Z" transform="translate(-345.055 -224.358)" fill="#ffb8b8"/>
      <path id="Path_4318" data-name="Path 4318" d="M667.653,419.063V441.83s-2.439,29.271-7.318,36.589-6.5-29.271-6.5-29.271l3.823-26.832Z" transform="translate(-513.854 -323.459)" fill="#ffb8b8"/>
      <path id="Path_4319" data-name="Path 4319" d="M560.69,528.611s-4.065,4.879-.813,54.477-1.626,85.374,8.944,85.374c0,0-3.252,10.57,5.692,11.383s13.009,1.626,13.822-.813,2.439-13.822,0-13.822c0,0,0,3.252,1.626-9.757s1.626-74.8,5.692-82.935L608.662,602.6s0,13.822,2.439,20.327,6.5,43.907,6.5,43.907l-.813,5.692s19.514,3.252,20.327,0,.813-8.131,0-9.757-.813-1.626.813-4.879a9.846,9.846,0,0,0,.813-8.131c-.813-2.439-.813-55.29-.813-55.29s-1.626-64.234-11.383-67.486S560.69,528.611,560.69,528.611Z" transform="translate(-479.257 -362.268)" fill="#01183a"/>
      <path id="Path_4320" data-name="Path 4320" d="M569.971,757.513l-6.5,11.383s-10.164-3.659-8.131,5.692a162.472,162.472,0,0,0,29.677-.406s4.066,1.626,4.879-.813-2.033-10.977-4.472-10.977S569.971,757.513,569.971,757.513Z" transform="translate(-477.967 -446.441)" fill="#01183a"/>
      <path id="Path_4321" data-name="Path 4321" d="M649.92,750.678s-6.5,14.636-4.065,15.449,24.393,4.065,26.019,4.878,9.757,1.626,10.57-3.252-4.065-6.5-4.065-6.5-8.944-1.626-11.383-9.757S649.92,750.678,649.92,750.678Z" transform="translate(-510.758 -441.999)" fill="#01183a"/>
      <path id="Path_4322" data-name="Path 4322" d="M596.032,341.4s-21.953-4.065-26.832,0-25.206,12.2-25.206,16.262,10.57,43.907,10.57,43.907-5.692,60.168,0,61.794,15.449-3.252,26.832,2.439,43.907-4.878,43.907-4.878-12.2-52.037-8.944-61.794,5.692-43.094,5.692-43.094S608.228,341.4,596.032,341.4Z" transform="translate(-473.943 -294.582)" fill="#bbceeb"/>
      <path id="Path_4323" data-name="Path 4323" d="M544.851,364.145l-5.692,1.626s-12.2,38.215-7.318,39.841,18.7,4.878,20.327,4.878S544.851,364.145,544.851,364.145Z" transform="translate(-469.109 -303.503)" fill="#bbceeb"/>
      <path id="Path_4324" data-name="Path 4324" d="M646.167,357.759l13.009,4.879s17.075,31.71,13.009,35.776-21.953,8.131-21.953,8.131Z" transform="translate(-511.07 -301.183)" fill="#bbceeb"/>
      <path id="Path_4325" data-name="Path 4325" d="M585.574,267.68a8.731,8.731,0,0,0-3.864.171,10.075,10.075,0,0,0-2.746,1.8,32.142,32.142,0,0,1-4.7,3.111,10.958,10.958,0,0,0-3.654,2.561,7.775,7.775,0,0,0-1.031,1.952,23.39,23.39,0,0,0-1.23,12.73,5.844,5.844,0,0,0,.542,1.748c.845,1.557,2.712,2.171,4.284,2.987,2.985,1.55,5.248,4.159,7.7,6.465a15.047,15.047,0,0,0,3.041,2.344c3.493,1.9,7.762,1.283,11.683.61a2.106,2.106,0,0,0,2.1-2.126l3.1-13.92a22.714,22.714,0,0,0,.793-6.331c-.216-3.379-2.045-8.06-4.525-10.461C594.174,268.525,589.352,268.08,585.574,267.68Z" transform="translate(-482.657 -267.54)" fill="#444"/>
      <ellipse id="Ellipse_444" data-name="Ellipse 444" cx="22" cy="1" rx="22" ry="1" transform="translate(17.217 326.455)" fill="#0b2d61"/>
      <ellipse id="Ellipse_445" data-name="Ellipse 445" cx="22" cy="1.5" rx="22" ry="1.5" transform="translate(12.217 328.455)" fill="#0b2d61"/>
      <ellipse id="Ellipse_446" data-name="Ellipse 446" cx="12.096" cy="0.691" rx="12.096" ry="0.691" transform="translate(0 321.71)" fill="#0b2d61"/>
      <ellipse id="Ellipse_447" data-name="Ellipse 447" cx="12.096" cy="0.691" rx="12.096" ry="0.691" transform="translate(43.291 336.989)" fill="#0b2d61"/>
    </g>
  </g>
</svg>
