<svg xmlns="http://www.w3.org/2000/svg" width="503.768" height="620.021" viewBox="0 0 503.768 620.021">
  <g id="mission" transform="translate(-51.171)">
    <path id="Path_3120" data-name="Path 3120" d="M60.29,430.033l11.4,5.5L98.332,394.19,81.51,386.071Z" transform="translate(-2.977 -19.066)" fill="#ffb6b6"/>
    <path id="Path_3121" data-name="Path 3121" d="M328.839,566.883,363.888,583.8l.214-.443a15.149,15.149,0,0,0-7.056-20.227h0l-4.057-7.947-14.29-.909-3.059-1.477Z" transform="translate(-277.668 -144.22)" fill="#8aa1c5"/>
    <path id="Path_3122" data-name="Path 3122" d="M149.536,445.993H162.19l6.021-48.816H149.533Z" transform="translate(-7.385 -19.614)" fill="#ffb6b6"/>
    <path id="Path_3123" data-name="Path 3123" d="M424.076,584.319h38.918v-.492a15.149,15.149,0,0,0-15.147-15.148h0l-7.109-5.393-13.264,5.394h-3.4Z" transform="translate(-282.371 -144.738)" fill="#8aa1c5"/>
    <path id="Path_3124" data-name="Path 3124" d="M433.244,333.046l14.5,100.009,1.232,22.479-7.605,70.147,3.087,6.8-8.626,5.32H418.282l-.932-74.1L404.189,401.64l-2.036,70.339-2.817,5.435c-10.5,23.814-24.635,31.612-34.631,49.412l-17.553-9.508.368-7.091c-3.526-1.785,5.294-7,6.142-10.864l1.535-6.912,10.239-21.21.391-7.469-2.8-50.8,1.319-68.411,23.024-17.606Z" transform="translate(-278.55 -133.067)" fill="#8aa1c5"/>
    <circle id="Ellipse_194" data-name="Ellipse 194" cx="22.804" cy="22.804" r="22.804" transform="translate(109.833 12.588)" fill="#ffb6b6"/>
    <path id="Path_3125" data-name="Path 3125" d="M415.058,344.694a128.456,128.456,0,0,1-52.924-11.48l-.267-.137.082-.289c.807-2.827,1.572-7.568.188-8.26a.948.948,0,0,1-.59-.7c-.079-.568.49-1.087,1.277-1.807,1.528-1.4,3.622-3.308,2.394-6.376-2.164-5.411,3.921-33.137,4.315-34.914l-2.6-44.2a36.765,36.765,0,0,1,27.186-37.572l.058-.015.06,0c.845.048,1.74-2.823,2.419-4.924,1-3.1,1.665-5.012,2.794-4.931,8.745.564,14.572.933,18.455,1.174,7.362.457,8.652,9.412,8.811,10.842a44.05,44.05,0,0,1,19.967,47.664l-3.669,15.778-3.243,7.581,1.069,14.957c5.03,4.182,3.588,12.738,3.3,14.183,4.793,4.958,1.849,10.793,1.136,12.028a11.684,11.684,0,0,1,2.107,10.894l4.414,14.345-.333.116A110.179,110.179,0,0,1,415.058,344.694Z" transform="translate(-279.283 -126.259)" fill="#e4efff"/>
    <path id="Path_3126" data-name="Path 3126" d="M560.8,195.137a8.878,8.878,0,0,0-13.6-.525L475.092,195l-20.487,9.9-2.657,11.343,33.1-1.384,63.187-7.217A8.926,8.926,0,0,0,560.8,195.136Z" transform="translate(-283.748 -126.387)" fill="#ffb6b6"/>
    <path id="Path_3127" data-name="Path 3127" d="M478.406,218.863,450.338,232.14l-26.022-10.893-.026-.21a19.39,19.39,0,0,1,9.841-19.413,53.093,53.093,0,0,1,17.49-6.055c17.213-2.56,20.7-3.544,20.737-3.554l.379-.11Z" transform="translate(-282.374 -126.398)" fill="#e4efff"/>
    <path id="Path_3128" data-name="Path 3128" d="M393.722,172.721a2.567,2.567,0,0,1-.828-.134,5.428,5.428,0,0,1-2.5-2.224c-4.042-5.813-5.993-13.564-5.8-23.036.082-4.008.535-9.131,3.342-13.216,2.36-3.434,7.134-6.16,11.584-4.792a4.809,4.809,0,0,1,2.4-4.44,12.6,12.6,0,0,1,5.5-1.39c4.519-.424,9.19-.861,13.766.006,5.131.973,9.326,3.618,11.509,7.255l.045.114.444,2.156a2.047,2.047,0,0,0,2.725,1.5,1.857,1.857,0,0,1,2.492,2l-.124.857,1.291-.241a1.858,1.858,0,0,1,2.084,2.47l-.365.986a1.955,1.955,0,0,1,1.421.626,1.8,1.8,0,0,1,.244,2.117,16.832,16.832,0,0,1-5.946,5.982,14.053,14.053,0,0,1-4.345,1.709,83.45,83.45,0,0,1-30.274.91,17.068,17.068,0,0,1,.677,6.128A6.441,6.441,0,0,1,399.2,163.5a9.327,9.327,0,0,1-1.413.341,8.286,8.286,0,0,0-1.349.328,3.947,3.947,0,0,0-1.156,6.746l1-1.041-.325,1.324a1.9,1.9,0,0,1-.968,1.206A2.661,2.661,0,0,1,393.722,172.721Z" transform="translate(-280.421 -122.995)" fill="#2a2a2a"/>
    <ellipse id="Ellipse_195" data-name="Ellipse 195" cx="130.234" cy="128.246" rx="130.234" ry="128.246" transform="translate(135.775 71.163)" fill="#e6e6e6"/>
    <path id="Path_3129" data-name="Path 3129" d="M657.142,327.243a104.516,104.516,0,0,1-9.889,44.494c-.2.429-.408.859-.615,1.288a107.442,107.442,0,0,1-46.334,47.85c-.422.222-.844.444-1.267.658a108.74,108.74,0,0,1-49.8,11.972,110.464,110.464,0,0,1-17.932-1.46c-.472-.079-.945-.157-1.41-.243a108.2,108.2,0,0,1-58.341-30.813c-.329-.336-.658-.68-.995-1.023a105.3,105.3,0,0,1-28.122-57.418c-.064-.472-.136-.945-.193-1.417a105.14,105.14,0,0,1,11.685-63.758c.222-.422.458-.844.687-1.259a107.341,107.341,0,0,1,33.117-36.194c.393-.272.787-.537,1.181-.8A108.315,108.315,0,0,1,532.833,222.2c.472-.064.945-.136,1.417-.2a110.1,110.1,0,0,1,14.984-1.016,108.868,108.868,0,0,1,45.718,9.982c.437.2.866.4,1.3.608a107.962,107.962,0,0,1,35.085,26.72c.315.358.63.723.93,1.088a105.032,105.032,0,0,1,23.084,48.466v.007c.093.465.172.93.25,1.4A104.994,104.994,0,0,1,657.142,327.243Z" transform="translate(-283.223 -127.834)" fill="#fff"/>
    <path id="Path_3130" data-name="Path 3130" d="M566.047,322.531a13.209,13.209,0,0,1,2.791,6.387l51.992-9.806a64.755,64.755,0,0,0-14.2-29.968Z" transform="translate(-289.382 -131.2)" fill="#0b2d61"/>
    <path id="Path_3131" data-name="Path 3131" d="M618.381,318.7c-.064-.472-.15-.937-.236-1.4v-.007a66.213,66.213,0,0,0-14.5-30.619c-.308-.365-.622-.73-.937-1.081a68.218,68.218,0,0,0-21.367-16.315h-.007c-.429-.208-.852-.415-1.288-.615a68.857,68.857,0,0,0-38.183-5.632c-.472.057-.945.129-1.417.208a68.008,68.008,0,0,0-26.426,10.147c-.4.258-.8.522-1.2.794a67.675,67.675,0,0,0-21.2,23.17q-.343.623-.687,1.267a65.915,65.915,0,0,0-6.913,39.9q.086.719.215,1.417a66.216,66.216,0,0,0,17.524,35.077c.322.344.651.687.995,1.023a68.112,68.112,0,0,0,35.814,18.977c.472.093.945.172,1.417.25a68.932,68.932,0,0,0,42.441-6.512c.422-.215.837-.436,1.259-.665h.007A67.729,67.729,0,0,0,612.363,358.6q.322-.644.623-1.288a65.836,65.836,0,0,0,5.4-38.605Zm-6.7,38.011q-.3.655-.623,1.288a66.37,66.37,0,0,1-28.036,28.823c-.422.222-.844.444-1.267.658a67.338,67.338,0,0,1-41.518,6.361c-.472-.072-.952-.15-1.417-.243a66.665,66.665,0,0,1-35.006-18.541c-.343-.336-.673-.68-1-1.023a64.907,64.907,0,0,1-17.152-34.276c-.079-.465-.15-.937-.215-1.41a64.558,64.558,0,0,1,6.755-39.042c.215-.422.444-.844.68-1.267a66.284,66.284,0,0,1,20.78-22.7c.394-.272.787-.537,1.188-.787a66.623,66.623,0,0,1,25.8-9.9c.465-.079.937-.15,1.417-.207a67.354,67.354,0,0,1,37.367,5.517c.436.193.866.4,1.288.608A66.684,66.684,0,0,1,601.608,286.5c.315.358.63.723.93,1.088a64.754,64.754,0,0,1,14.2,29.968c.086.465.165.93.236,1.41a64.493,64.493,0,0,1-5.3,37.746Z" transform="translate(-285.3 -129.878)" fill="#ccc"/>
    <path id="Path_3132" data-name="Path 3132" d="M546.671,317.509l-1.166.83L514,274.245l-.837-1.166-23.019-32.215c.393-.272.787-.537,1.181-.8l23.034,32.222.83,1.174Z" transform="translate(-285.634 -128.776)" fill="#ccc"/>
    <path id="Path_3133" data-name="Path 3133" d="M539.284,325.133l-.694,1.259-47.807-26.262-1.259-.694-34.942-19.2c.222-.422.458-.844.687-1.259l34.941,19.192,1.252.694Z" transform="translate(-283.878 -130.698)" fill="#ccc"/>
    <path id="Path_3134" data-name="Path 3134" d="M538.068,337l-54.434,6.383-1.417.172-39.736,4.658c-.064-.472-.136-.945-.193-1.417L482,342.133l1.417-.165,54.484-6.39Z" transform="translate(-283.271 -133.493)" fill="#ccc"/>
    <path id="Path_3135" data-name="Path 3135" d="M543.053,342.072l-39.794,36.873-1.052.973-29.138,27c-.329-.336-.658-.68-.995-1.023l29.138-27,1.045-.973,39.822-36.9Z" transform="translate(-284.742 -133.762)" fill="#ccc"/>
    <path id="Path_3136" data-name="Path 3136" d="M602.108,232.089l-16.981,35.664h-.007l-.615,1.3-23.213,48.759L560,317.192l23.213-48.752.615-1.3,16.981-35.657C601.248,231.682,601.678,231.881,602.108,232.089Z" transform="translate(-289.084 -128.352)" fill="#ccc"/>
    <path id="Path_3137" data-name="Path 3137" d="M638.3,261.316l-30.691,25.253-1.109.916L564.548,322l-.909-1.1L605.572,286.4l1.1-.909,30.7-25.26C637.686,260.586,638,260.951,638.3,261.316Z" transform="translate(-289.264 -129.772)" fill="#ccc"/>
    <path id="Path_3138" data-name="Path 3138" d="M661.807,313.766l-39.292,7.406-1.4.265-53.768,10.14-.265-1.4,53.8-10.147,1.4-.258v-.007l39.278-7.4C661.649,312.829,661.728,313.294,661.807,313.766Z" transform="translate(-289.434 -132.347)" fill="#ccc"/>
    <path id="Path_3139" data-name="Path 3139" d="M653.413,377.526c-.2.429-.408.859-.615,1.288l-36.351-16.473-1.3-.594-49.1-22.247.594-1.3,49.124,22.262,1.3.594Z" transform="translate(-289.383 -133.622)" fill="#ccc"/>
    <path id="Path_3140" data-name="Path 3140" d="M606.166,426.911c-.422.222-.844.444-1.267.658l-18.676-34.827-.68-1.267-25.525-47.6,1.259-.673,25.532,47.614.673,1.259h.007Z" transform="translate(-289.085 -133.87)" fill="#ccc"/>
    <path id="Path_3141" data-name="Path 3141" d="M551.759,345.11l-8.995,52.809-.243,1.417L535.9,438.163c-.472-.079-.945-.157-1.41-.243l6.612-38.834.243-1.41,8.995-52.809Z" transform="translate(-287.824 -133.952)" fill="#ccc"/>
    <path id="Path_3142" data-name="Path 3142" d="M552.32,315.8l-1.417.2-7.578-53.339-.2-1.417-5.538-39c.472-.064.945-.136,1.417-.2l5.538,38.992.2,1.417Z" transform="translate(-287.977 -127.887)" fill="#ccc"/>
    <ellipse id="Ellipse_196" data-name="Ellipse 196" cx="13.596" cy="13.388" rx="13.596" ry="13.388" transform="translate(252.414 186.021)" fill="#fb7878"/>
    <path id="Path_3143" data-name="Path 3143" d="M571.552,601.446l-10.176,8.521-37.711-35.2,15.02-12.577Z" transform="translate(-25.861 -27.763)" fill="#a0616a"/>
    <path id="Path_3144" data-name="Path 3144" d="M856.943,736.678l-31.294,26.2-.331-.4a15.888,15.888,0,0,1,1.981-22.38h0l2.085-9.123,14.3-4.594,2.732-2.287Z" transform="translate(-302.003 -152.68)" fill="#01183a"/>
    <path id="Path_3145" data-name="Path 3145" d="M477.375,635.006H464.1l-6.315-51.2h19.59Z" transform="translate(-22.608 -28.831)" fill="#a0616a"/>
    <path id="Path_3146" data-name="Path 3146" d="M751.775,774.08H710.958v-.516a15.888,15.888,0,0,1,15.886-15.886h0l7.456-5.656,13.911,5.657h3.563Z" transform="translate(-296.539 -154.059)" fill="#01183a"/>
    <path id="Path_3147" data-name="Path 3147" d="M783.917,502.845c3.206,4.008,1.6,17.634,1.6,17.634l.786,84.865c13.627,11.222,24.063,57.815,24.063,57.815L823.38,687.1c-1.6,4.809-12,23.616-15.21,22.815-1.488-.372-20.006-17.45-32.321-42.778-14.226-29.257-22.392-67.3-22.392-67.3s1.6,109.014,1.6,113.823-21.642,2.4-26.452,2.4-29.565-196.385-29.565-196.385V508.457l4.008-5.611S780.71,498.838,783.917,502.845Z" transform="translate(-295.95 -141.665)" fill="#01183a"/>
    <path id="Path_3148" data-name="Path 3148" d="M606.56,311.312l-9.72,4.536,10.833-2.268s7.96.324,7.96-2.916l12.961-7.128s11.017,5.832,14.257,2.592-2.592-9.72-2.592-9.72,3.9-2.153,3.572-3.021-5.516.429-5.516.429S626,286.687,626.649,299l-12.961,8.593S607.207,307.424,606.56,311.312Z" transform="translate(-290.903 -131.329)" fill="#01183a"/>
    <path id="Path_3149" data-name="Path 3149" d="M788.261,523.385c-17.011,8.44-37.253,10.993-56.319,8.752-16.437-1.935-19.855-20.3-35.111-26.816,4.821-13.852,4.879-32.24,4.065-37.4-1.394-8.812-1.653-70.227,3.453-76.623,6.7-8.391,16.918-12.873,16.454-23.6l1.432,1.47c-1.809-4.761,1.695-10.211,6.308-12.365s9.943-1.88,15.027-1.563l12.84.8a11.543,11.543,0,0,0,1.727,10.408c7.587-2.094,15.59,3.471,18.979,10.566s3.307,15.295,3.154,23.161c-.175,9.1,6.57,73.019-1.591,77.064,4.209,1.06,10.159,23.508,6.567,21.075C786.908,499.484,786.506,510.353,788.261,523.385Z" transform="translate(-295.841 -134.454)" fill="#0b2d61"/>
    <path id="Path_3150" data-name="Path 3150" d="M618.574,301.172a13.077,13.077,0,0,1,16.687,11.12l72.176,63.461L694.4,384.411l-71.638-57.464a13.148,13.148,0,0,1-4.194-25.774Z" transform="translate(-291.506 -131.768)" fill="#a0616a"/>
    <path id="Path_3151" data-name="Path 3151" d="M698.275,356.773c-1.58.091-38.881-27.127-39.836-25.865L655.933,344.5h0l-6.895,9.118h0l14.9,15.8,4.259,3.493,2.738,2.895c-.958,1.281,5.4,8.145,5.744,9.712a5.478,5.478,0,0,0,2.724,3.643l24.254,13.16a15.212,15.212,0,0,0,18.2-24.377l-3.577-3.618-5.48-5.554-10.255-10.385A5.45,5.45,0,0,0,698.275,356.773Z" transform="translate(-293.481 -133.26)" fill="#0b2d61"/>
    <circle id="Ellipse_197" data-name="Ellipse 197" cx="26.31" cy="26.31" r="26.31" transform="translate(418.722 160.98)" fill="#a0616a"/>
    <path id="Path_3152" data-name="Path 3152" d="M772.867,310.037c-1.463-5.806-6.92-10.871-12.879-10.284.736-4.473-2.241-8.977-6.255-11.085s-8.807-2.2-13.28-1.464a79.022,79.022,0,0,0-7.708,1.8c-2.153.579-12.247-2.876-14.386-2.246-1.829.539-6.229,7.091-7.618,8.4s-2.123,3.507-1.2,5.173c.916,1.645,3.01,2.181,4.887,2.335s3.892.127,5.45,1.185c2,1.359,2.568,4.07,2.487,6.488s-.636,4.857-.184,7.234,2.375,4.751,4.789,4.588c1.807-1.905,5.109-1.783,7.182-.171a9.134,9.134,0,0,1,3.121,6.959,28.3,28.3,0,0,1-1.214,7.757c-.434,1.737-.762,3.844.525,5.089a5.212,5.212,0,0,0,2.633,1.1c3.8.807,18.054-.288,21.852.519l-.294-.58c2.752-5.318,6.4-10.133,9.108-15.474S774.33,315.842,772.867,310.037Z" transform="translate(-296.449 -131.078)"/>
    <path id="Path_3153" data-name="Path 3153" d="M816.586,534.124a13.077,13.077,0,0,1-8.94-17.95l-31.019-90.965,15.613-1.023,33.536,85.495a13.148,13.148,0,0,1-9.19,24.443Z" transform="translate(-299.782 -137.869)" fill="#a0616a"/>
    <path id="Path_3154" data-name="Path 3154" d="M768.49,435.1c1.416.708,20.223,42.879,21.679,42.26l8.94-10.544h0l10.518-4.477h0l-5.064-21.122-1.955-5.149-.934-3.873c1.468-.634-.629-9.752-.149-11.282a5.479,5.479,0,0,0-.549-4.515l-14.487-23.485A15.212,15.212,0,1,0,758.568,405l1.3,4.919,1.989,7.544,3.726,14.112A5.45,5.45,0,0,0,768.49,435.1Z" transform="translate(-298.828 -135.872)" fill="#0b2d61"/>
    <path id="Path_3159" data-name="Path 3159" d="M422.905,350.5a8.878,8.878,0,0,1-5.087-12.627l-23.973-68.007,2.4-22.626,9.781-6.331,9.873,31.628,14.538,61.914a8.926,8.926,0,0,1-7.531,16.048Z" transform="translate(-280.878 -128.818)" fill="#ffb6b6"/>
    <path id="Path_3160" data-name="Path 3160" d="M105.247,99.089l22.673-8.776,13.164,43.881L110.7,143.823Z" transform="translate(-5.198 -4.46)" fill="#e4efff"/>
  </g>
</svg>
