<svg xmlns="http://www.w3.org/2000/svg" width="610.651" height="524.948" viewBox="0 0 610.651 524.948">
  <g id="offshore-team" transform="translate(-109.468 0)">
    <circle id="Ellipse_268" data-name="Ellipse 268" cx="7.344" cy="7.344" r="7.344" transform="translate(296.179 50.549)" fill="#273a57"/>
    <circle id="Ellipse_269" data-name="Ellipse 269" cx="7.344" cy="7.344" r="7.344" transform="translate(266.912 50.549)" fill="#273a57"/>
    <circle id="Ellipse_270" data-name="Ellipse 270" cx="7.344" cy="7.344" r="7.344" transform="translate(237.644 50.549)" fill="#273a57"/>
    <circle id="Ellipse_271" data-name="Ellipse 271" cx="7.344" cy="7.344" r="7.344" transform="translate(208.375 50.549)" fill="#273a57"/>
    <circle id="Ellipse_272" data-name="Ellipse 272" cx="7.344" cy="7.344" r="7.344" transform="translate(296.179 81.21)" fill="#273a57"/>
    <circle id="Ellipse_273" data-name="Ellipse 273" cx="7.344" cy="7.344" r="7.344" transform="translate(266.912 81.21)" fill="#273a57"/>
    <circle id="Ellipse_274" data-name="Ellipse 274" cx="7.344" cy="7.344" r="7.344" transform="translate(237.644 81.21)" fill="#273a57"/>
    <circle id="Ellipse_275" data-name="Ellipse 275" cx="7.344" cy="7.344" r="7.344" transform="translate(208.375 81.21)" fill="#273a57"/>
    <circle id="Ellipse_276" data-name="Ellipse 276" cx="7.344" cy="7.344" r="7.344" transform="translate(296.179 111.87)" fill="#273a57"/>
    <circle id="Ellipse_277" data-name="Ellipse 277" cx="7.344" cy="7.344" r="7.344" transform="translate(266.912 111.87)" fill="#273a57"/>
    <circle id="Ellipse_278" data-name="Ellipse 278" cx="7.344" cy="7.344" r="7.344" transform="translate(237.644 111.87)" fill="#273a57"/>
    <circle id="Ellipse_279" data-name="Ellipse 279" cx="7.344" cy="7.344" r="7.344" transform="translate(208.375 111.87)" fill="#273a57"/>
    <circle id="Ellipse_280" data-name="Ellipse 280" cx="7.344" cy="7.344" r="7.344" transform="translate(296.179 142.531)" fill="#273a57"/>
    <circle id="Ellipse_281" data-name="Ellipse 281" cx="7.344" cy="7.344" r="7.344" transform="translate(266.912 142.531)" fill="#273a57"/>
    <circle id="Ellipse_282" data-name="Ellipse 282" cx="7.344" cy="7.344" r="7.344" transform="translate(237.644 142.531)" fill="#273a57"/>
    <circle id="Ellipse_283" data-name="Ellipse 283" cx="7.344" cy="7.344" r="7.344" transform="translate(208.375 142.531)" fill="#273a57"/>
    <circle id="Ellipse_284" data-name="Ellipse 284" cx="7.344" cy="7.344" r="7.344" transform="translate(296.179 173.192)" fill="#273a57"/>
    <circle id="Ellipse_285" data-name="Ellipse 285" cx="7.344" cy="7.344" r="7.344" transform="translate(266.912 173.192)" fill="#273a57"/>
    <circle id="Ellipse_286" data-name="Ellipse 286" cx="7.344" cy="7.344" r="7.344" transform="translate(237.644 173.192)" fill="#273a57"/>
    <circle id="Ellipse_287" data-name="Ellipse 287" cx="7.344" cy="7.344" r="7.344" transform="translate(208.375 173.192)" fill="#273a57"/>
    <circle id="Ellipse_288" data-name="Ellipse 288" cx="7.344" cy="7.344" r="7.344" transform="translate(296.179 203.853)" fill="#273a57"/>
    <circle id="Ellipse_289" data-name="Ellipse 289" cx="7.344" cy="7.344" r="7.344" transform="translate(266.912 203.853)" fill="#273a57"/>
    <circle id="Ellipse_290" data-name="Ellipse 290" cx="7.344" cy="7.344" r="7.344" transform="translate(237.644 203.853)" fill="#273a57"/>
    <circle id="Ellipse_291" data-name="Ellipse 291" cx="7.344" cy="7.344" r="7.344" transform="translate(208.375 203.853)" fill="#273a57"/>
    <path id="Path_3659" data-name="Path 3659" d="M375.19,582.959v2.271a14.207,14.207,0,0,0,14.195,14.195h102.2a14.2,14.2,0,0,0,14.195-14.195v-2.271a14.093,14.093,0,0,0-3.294-9.085,14.6,14.6,0,0,0-2.4-2.271s-56.189-1.272-56.189-2.839H389.385a14.214,14.214,0,0,0-14.195,14.195Z" transform="translate(-136.197 -171.423)" fill="#ccc"/>
    <rect id="Rectangle_442" data-name="Rectangle 442" width="14.763" height="95.389" transform="translate(297.73 427.438)" fill="#ccc"/>
    <path id="Path_3660" data-name="Path 3660" d="M488.846,680.512c0,1.6-22.37.617-49.966.617s-49.966.978-49.966-.617,22.37-14.244,49.966-14.244S488.846,678.916,488.846,680.512Z" transform="translate(-134.337 -158.202)" fill="#ccc"/>
    <path id="Path_3661" data-name="Path 3661" d="M466.138,594.471a12.2,12.2,0,0,0-4.323-18.2L430.526,469.656,406.7,481.325l38.248,101.13a12.265,12.265,0,0,0,21.19,12.016Z" transform="translate(-131.925 -184.86)" fill="#a0616a"/>
    <path id="Path_3662" data-name="Path 3662" d="M438.373,490.576l-26.667,7.219a5.47,5.47,0,0,1-6.862-4.64L401.622,465.8a15.191,15.191,0,1,1,29.35-7.853l10.986,25.16a5.47,5.47,0,0,1-3.584,7.467Z" transform="translate(-132.684 -187.975)" fill="#0b2d61"/>
    <path id="Path_3663" data-name="Path 3663" d="M313.516,454.412h13.922l6.624-36.107H313.514Z" transform="translate(27.666 56.716)" fill="#a0616a"/>
    <path id="Path_3664" data-name="Path 3664" d="M462.051,664.962H489.47a17.472,17.472,0,0,1,17.473,17.473V683l-44.89,0Z" transform="translate(-124.42 -158.38)" fill="#8aa1c5"/>
    <path id="Path_3665" data-name="Path 3665" d="M490.64,667.611q-.243,0-.489-.023l-19.267-1.4a5.11,5.11,0,0,1-4.326-6.847l25.785-57.931a3.972,3.972,0,0,0-.223-3.178,3.918,3.918,0,0,0-2.511-2c-12.125-3.169-43.234-11.609-70.164-21.483-11.537-4.231-18.8-10.344-21.6-18.172-3.683-10.319,1.765-19.73,2-20.125l.183-.309,25.34,2.3,27.471,2.337,60.2,32.282a22.809,22.809,0,0,1,10.014,29.28L495.3,664.583a5.107,5.107,0,0,1-4.663,3.029Z" transform="translate(-133.298 -175.846)" fill="#8aa1c5"/>
    <circle id="Ellipse_292" data-name="Ellipse 292" cx="27.891" cy="27.891" r="27.891" transform="translate(268.588 192.204)" fill="#a0616a"/>
    <path id="Path_3666" data-name="Path 3666" d="M306.516,453.412h13.922l6.624-36.107H306.514Z" transform="translate(26.717 56.581)" fill="#a0616a"/>
    <path id="Path_3667" data-name="Path 3667" d="M455.051,663.962H482.47a17.472,17.472,0,0,1,17.473,17.473V682l-44.89,0Z" transform="translate(-125.369 -158.515)" fill="#8aa1c5"/>
    <path id="Path_3668" data-name="Path 3668" d="M483.64,670.611q-.243,0-.489-.023l-19.267-1.4a5.11,5.11,0,0,1-4.326-6.847l25.785-57.932a3.972,3.972,0,0,0-.223-3.178,3.919,3.919,0,0,0-2.511-2c-12.125-3.169-43.234-11.609-70.164-21.483-11.537-4.231-18.8-10.344-21.6-18.172-3.683-10.319,1.766-19.73,2-20.125l.183-.309,25.34,2.3,27.471,2.337,60.2,32.282a22.809,22.809,0,0,1,10.014,29.28L488.3,667.583a5.107,5.107,0,0,1-4.663,3.028Z" transform="translate(-134.247 -175.439)" fill="#8aa1c5"/>
    <path id="Path_3669" data-name="Path 3669" d="M438.878,452.388l-29.525-10.22s-18.535,14.24-9.631,49.567a87.454,87.454,0,0,1-3.861,54.872,56.53,56.53,0,0,1-2.974,6.281s32.932,39.746,63.593,10.22l-11.924-57.347S463.293,467.719,438.878,452.388Z" transform="translate(-133.798 -188.587)" fill="#0b2d61"/>
    <path id="Path_3670" data-name="Path 3670" d="M434.188,446.9c-3.97-5.942-7.1-14.181-2.732-19.834,4.314-5.58,12.823-4.758,19.43-7.228,9.2-3.439,14.54-14.251,12.876-23.933s-9.437-17.709-18.7-20.993-19.7-2.216-28.768,1.566c-11.162,4.656-20.737,13.661-24.752,25.07s-1.869,25.106,6.461,33.874c8.93,9.4,22.945,11.906,35.91,11.754" transform="translate(-134.246 -197.971)" fill="#2a2a2a"/>
    <path id="Path_3671" data-name="Path 3671" d="M421.418,395.259c-5,4.072-12.634,2.263-18-1.31s-9.726-8.663-15.536-11.465c-10.242-4.94-22.625-1.656-32.593,3.816s-18.8,13.031-29.334,17.325-23.965,4.506-31.938-3.6a29.221,29.221,0,0,0,42.823,34.489c11.537-7.027,17.909-21.762,30.849-25.641,7.16-2.146,14.849-.418,22.086,1.455s14.783,3.9,22.086,2.3,14.135-8.157,13.206-15.574Z" transform="translate(-147.421 -197.008)" fill="#2a2a2a"/>
    <path id="Path_3672" data-name="Path 3672" d="M486.233,632.271a190.219,190.219,0,0,1,0-57.887,4.886,4.886,0,0,1,4.812-4.095h45.279a4.822,4.822,0,0,1,3.81,1.847,4.9,4.9,0,0,1,.917,4.207,116.2,116.2,0,0,0,0,53.969,4.9,4.9,0,0,1-.917,4.207,4.822,4.822,0,0,1-3.81,1.847H491.045a4.886,4.886,0,0,1-4.812-4.095Z" transform="translate(-121.442 -171.216)" fill="#0b2d61"/>
    <path id="Path_3673" data-name="Path 3673" d="M521.052,595.938h-23.76a3.41,3.41,0,0,1-3.407-3.407V591.2a3.41,3.41,0,0,1,3.407-3.407h23.76a3.41,3.41,0,0,1,3.407,3.407v1.331a3.41,3.41,0,0,1-3.407,3.407Z" transform="translate(-120.104 -168.842)" fill="#fff"/>
    <path id="Path_3674" data-name="Path 3674" d="M521.052,608.283h-23.76a3.41,3.41,0,0,1-3.407-3.407v-1.331a3.41,3.41,0,0,1,3.407-3.407h23.76a3.411,3.411,0,0,1,3.407,3.407v1.331a3.41,3.41,0,0,1-3.407,3.407Z" transform="translate(-120.104 -167.169)" fill="#fff"/>
    <path id="Path_3675" data-name="Path 3675" d="M506.7,588.436a12.2,12.2,0,0,0-8.733-16.542l-56.933-95.416L420.88,493.729l62.3,88.367a12.265,12.265,0,0,0,23.52,6.341Z" transform="translate(-130.002 -183.935)" fill="#a0616a"/>
    <path id="Path_3676" data-name="Path 3676" d="M453.813,494.573,429.8,508.225a5.47,5.47,0,0,1-7.8-2.778l-9.955-25.681a15.191,15.191,0,1,1,26.457-14.937l16.923,21.617a5.47,5.47,0,0,1-1.605,8.126Z" transform="translate(-131.468 -186.562)" fill="#0b2d61"/>
    <path id="Path_3677" data-name="Path 3677" d="M729.559,519.614H268.511a7.381,7.381,0,1,0,0,14.763h13.059V695.062a7.381,7.381,0,1,0,14.763,0V548.56l82.751,149.986a7.381,7.381,0,1,0,12.785-7.381l-86.5-156.788H700.6v.1L614.151,691.165a7.381,7.381,0,1,0,12.784,7.381L700.6,565.026V695.062a7.381,7.381,0,1,0,14.763,0V538.268l2.148-3.892h12.047a7.381,7.381,0,1,0,0-14.763Z" transform="translate(-151.662 -178.087)" fill="#444"/>
    <rect id="Rectangle_443" data-name="Rectangle 443" width="97.66" height="7.949" rx="3.5" transform="translate(293.432 336.985)" fill="#ccc"/>
    <path id="Path_3678" data-name="Path 3678" d="M571.578,531.02H470.511a7.39,7.39,0,0,1-7.381-7.381V468a7.39,7.39,0,0,1,7.381-7.381H571.578A7.39,7.39,0,0,1,578.96,468v55.644A7.39,7.39,0,0,1,571.578,531.02Z" transform="translate(-124.274 -186.086)" fill="#ccc"/>
    <circle id="Ellipse_293" data-name="Ellipse 293" cx="6.814" cy="6.814" r="6.814" transform="translate(389.957 302.918)" fill="#fff"/>
    <path id="Path_3679" data-name="Path 3679" d="M626.55,426.7v-199.3a8.551,8.551,0,0,1,8.541-8.541H792.63a8.551,8.551,0,0,1,8.541,8.541V426.7a8.551,8.551,0,0,1-8.541,8.541H635.092A8.551,8.551,0,0,1,626.55,426.7Zm8.541-205.939a6.651,6.651,0,0,0-6.643,6.643V426.7a6.651,6.651,0,0,0,6.643,6.643H792.63a6.651,6.651,0,0,0,6.643-6.643v-199.3a6.651,6.651,0,0,0-6.643-6.643Z" transform="translate(-261.098 -218.864)" fill="#273a57"/>
    <path id="Path_3680" data-name="Path 3680" d="M711.215,304.858V263.936a4.275,4.275,0,0,1,4.271-4.271h34.677a4.275,4.275,0,0,1,4.271,4.271v40.922a4.275,4.275,0,0,1-4.271,4.271H715.486a4.275,4.275,0,0,1-4.271-4.27Z" transform="translate(-249.619 -213.332)" fill="#0b2d61"/>
    <path id="Path_3681" data-name="Path 3681" d="M651.88,321.572V280.65a4.275,4.275,0,0,1,4.271-4.271h34.677a4.275,4.275,0,0,1,4.271,4.271v40.922a4.275,4.275,0,0,1-4.271,4.271H656.151A4.275,4.275,0,0,1,651.88,321.572Z" transform="translate(-257.664 -211.066)" fill="#ccc"/>
    <path id="Path_3682" data-name="Path 3682" d="M699.515,372.551V331.629a4.275,4.275,0,0,1,4.271-4.271h34.677a4.275,4.275,0,0,1,4.271,4.271v40.922a4.275,4.275,0,0,1-4.271,4.271H703.786a4.275,4.275,0,0,1-4.271-4.27Z" transform="translate(-251.205 -204.154)" fill="#ff6584"/>
    <circle id="Ellipse_294" data-name="Ellipse 294" cx="7.344" cy="7.344" r="7.344" transform="translate(705.431 6.079)" fill="#273a57"/>
    <circle id="Ellipse_295" data-name="Ellipse 295" cx="7.344" cy="7.344" r="7.344" transform="translate(705.431 35.347)" fill="#273a57"/>
    <circle id="Ellipse_296" data-name="Ellipse 296" cx="7.344" cy="7.344" r="7.344" transform="translate(705.431 64.615)" fill="#273a57"/>
    <circle id="Ellipse_297" data-name="Ellipse 297" cx="7.344" cy="7.344" r="7.344" transform="translate(705.431 93.883)" fill="#273a57"/>
    <circle id="Ellipse_298" data-name="Ellipse 298" cx="7.344" cy="7.344" r="7.344" transform="translate(674.77 6.079)" fill="#273a57"/>
    <circle id="Ellipse_299" data-name="Ellipse 299" cx="7.344" cy="7.344" r="7.344" transform="translate(674.77 35.347)" fill="#273a57"/>
    <circle id="Ellipse_300" data-name="Ellipse 300" cx="7.344" cy="7.344" r="7.344" transform="translate(674.77 64.615)" fill="#273a57"/>
    <circle id="Ellipse_301" data-name="Ellipse 301" cx="7.344" cy="7.344" r="7.344" transform="translate(674.77 93.883)" fill="#273a57"/>
    <circle id="Ellipse_302" data-name="Ellipse 302" cx="7.344" cy="7.344" r="7.344" transform="translate(644.109 6.079)" fill="#273a57"/>
    <circle id="Ellipse_303" data-name="Ellipse 303" cx="7.344" cy="7.344" r="7.344" transform="translate(644.109 35.347)" fill="#273a57"/>
    <circle id="Ellipse_304" data-name="Ellipse 304" cx="7.344" cy="7.344" r="7.344" transform="translate(644.109 64.615)" fill="#273a57"/>
    <circle id="Ellipse_305" data-name="Ellipse 305" cx="7.344" cy="7.344" r="7.344" transform="translate(644.109 93.883)" fill="#273a57"/>
    <circle id="Ellipse_306" data-name="Ellipse 306" cx="7.344" cy="7.344" r="7.344" transform="translate(613.448 6.079)" fill="#273a57"/>
    <circle id="Ellipse_307" data-name="Ellipse 307" cx="7.344" cy="7.344" r="7.344" transform="translate(613.448 35.347)" fill="#273a57"/>
    <circle id="Ellipse_308" data-name="Ellipse 308" cx="7.344" cy="7.344" r="7.344" transform="translate(613.448 64.615)" fill="#273a57"/>
    <circle id="Ellipse_309" data-name="Ellipse 309" cx="7.344" cy="7.344" r="7.344" transform="translate(613.448 93.883)" fill="#273a57"/>
    <circle id="Ellipse_310" data-name="Ellipse 310" cx="7.344" cy="7.344" r="7.344" transform="translate(582.787 6.079)" fill="#273a57"/>
    <circle id="Ellipse_311" data-name="Ellipse 311" cx="7.344" cy="7.344" r="7.344" transform="translate(582.787 35.347)" fill="#273a57"/>
    <circle id="Ellipse_312" data-name="Ellipse 312" cx="7.344" cy="7.344" r="7.344" transform="translate(582.787 64.615)" fill="#273a57"/>
    <circle id="Ellipse_313" data-name="Ellipse 313" cx="7.344" cy="7.344" r="7.344" transform="translate(582.787 93.883)" fill="#273a57"/>
    <circle id="Ellipse_314" data-name="Ellipse 314" cx="7.344" cy="7.344" r="7.344" transform="translate(552.127 6.079)" fill="#273a57"/>
    <circle id="Ellipse_315" data-name="Ellipse 315" cx="7.344" cy="7.344" r="7.344" transform="translate(552.127 35.347)" fill="#273a57"/>
    <circle id="Ellipse_316" data-name="Ellipse 316" cx="7.344" cy="7.344" r="7.344" transform="translate(552.127 64.615)" fill="#273a57"/>
    <circle id="Ellipse_317" data-name="Ellipse 317" cx="7.344" cy="7.344" r="7.344" transform="translate(552.127 93.883)" fill="#273a57"/>
    <path id="Path_3683" data-name="Path 3683" d="M823.547,470.913a12.495,12.495,0,0,1,8.821-16.425,12.029,12.029,0,0,1,1.648-.268l27.6-48.374-6.969-11.972,17.347-13.383,13.272,18.433a12.66,12.66,0,0,1-.3,15.113l-37.889,48.5a11.963,11.963,0,0,1,.353,1.175A12.5,12.5,0,0,1,836.8,479.035a12.153,12.153,0,0,1-1.529.1,12.532,12.532,0,0,1-11.727-8.218Z" transform="translate(-234.491 -196.95)" fill="#ffb8b8"/>
    <path id="Path_3684" data-name="Path 3684" d="M626.833,457.3H612.911l-6.623-53.7h20.547Z" transform="translate(-91.62 54.723)" fill="#ffb8b8"/>
    <path id="Path_3685" data-name="Path 3685" d="M605.381,447.384h26.85v16.905H588.476A16.905,16.905,0,0,1,605.381,447.384Z" transform="translate(-94.035 60.659)" fill="#273a57"/>
    <path id="Path_3686" data-name="Path 3686" d="M727.833,457.3H713.911l-6.623-53.7h20.547Z" transform="translate(-77.926 54.723)" fill="#ffb8b8"/>
    <path id="Path_3687" data-name="Path 3687" d="M706.381,447.384h26.85v16.905H689.476A16.905,16.905,0,0,1,706.381,447.384Z" transform="translate(-80.341 60.659)" fill="#273a57"/>
    <path id="Path_3688" data-name="Path 3688" d="M874.251,385.933l-31.257,11.878-7.631-21.2a12.682,12.682,0,0,1,5.68-15.33h0a12.682,12.682,0,0,1,16.2,3.162Z" transform="translate(-232.888 -199.778)" fill="#0b2d61"/>
    <path id="Path_3689" data-name="Path 3689" d="M780.756,656.927l-26.214-5.979a5.663,5.663,0,0,1-4.329-6.381c10.519-66.67,20.639-105.713,46.718-155.294.364-.924,4.436-19.689,7.094-32.12a5.646,5.646,0,0,1,4.785-5.705l48.881-7.523a6.325,6.325,0,0,1,2.3-.345l.489.093-.006.481c-.006.5-.5.573-.686.6l-.65.1a7.591,7.591,0,0,1,2.016,1.37c21.417,25.759,32.554,110.2,46.7,203.48a5.092,5.092,0,0,1-1.48,4.142,5.6,5.6,0,0,1-4.017,1.818l-31.23.761a5.658,5.658,0,0,1-5.718-4.79L844.365,530.07a4.513,4.513,0,0,0-8.511-1.312c-16.97,34.561-32.8,64.45-48.383,124.081a5.624,5.624,0,0,1-5.442,4.231,5.713,5.713,0,0,1-1.273-.143Z" transform="translate(-244.341 -188.396)" fill="#273a57"/>
    <path id="Path_3690" data-name="Path 3690" d="M800,469.984a5.677,5.677,0,0,1-2.366-4.03c-4-37.372-1.215-66.618,8.524-89.41a28.38,28.38,0,0,1,18.813-16.1l25.266-1.275.131.063a29.531,29.531,0,0,1,16.147,31.329c-8.126,21.421-14.931,43.723-9.742,61.715a5.817,5.817,0,0,1-.55,4.523,5.546,5.546,0,0,1-3.538,2.622l-48.124,11.448a5.638,5.638,0,0,1-4.561-.883Z" transform="translate(-238.141 -199.841)" fill="#0b2d61"/>
    <path id="Path_3691" data-name="Path 3691" d="M797.689,416.993l-48.46-38.231a11.956,11.956,0,0,1-1.177.347,12.522,12.522,0,0,1-10.013-1.921,12.392,12.392,0,0,1-5.254-8.782,12.493,12.493,0,0,1,24.569-4.316,12.013,12.013,0,0,1,.26,1.649l48.241,27.83,12.005-6.912,13.3,17.411-18.64,13.285a12.426,12.426,0,0,1-14.83-.362Z" transform="translate(-246.706 -200.48)" fill="#ffb8b8"/>
    <path id="Path_3692" data-name="Path 3692" d="M827.912,408l-27.65-18.8,12.994-18.4a12.682,12.682,0,0,1,15.817-4.134h0a12.682,12.682,0,0,1,6.694,15.084Z" transform="translate(-237.545 -198.992)" fill="#0b2d61"/>
    <circle id="Ellipse_318" data-name="Ellipse 318" cx="27.891" cy="27.891" r="27.891" transform="translate(575.774 94.106)" fill="#ffb8b8"/>
    <path id="Path_3693" data-name="Path 3693" d="M830.791,326.746c-7.169,4.906-16.581,9.95-23.9,4.725-4.807-3.431-6.322-9.784-4.373-15.359,3.506-10.026,13.138-14.439,22.349-17.823,11.974-4.4,25.012-7.9,37.373-4.747s23.286,15.118,21.054,27.678c-1.794,10.1-11.322,18.5-9.969,28.673,1.361,10.234,12.87,15.621,23.031,17.45s21.531,2.417,28.833,9.715c9.315,9.31,6.989,25.952-1.776,35.782s-21.993,14.286-34.81,17.315c-16.982,4.013-35.35,6.123-51.479-.538s-28.68-24.59-24.008-41.4c1.974-7.1,6.623-13.1,11.116-18.947s9.043-11.953,10.757-19.122c1.428-5.974.371-12.91-3.591-17.391a5.038,5.038,0,0,1-.675-5.89Z" transform="translate(-237.352 -208.903)" fill="#1a1a1a"/>
  </g>
</svg>
