<svg xmlns="http://www.w3.org/2000/svg" width="610" height="449.208" viewBox="0 0 610 449.208">
  <g id="android-native-development" transform="translate(0.01 0.02)">
    <path id="Path_4686" data-name="Path 4686" d="M63.3,476c9.651,41.285,30.083,76.972,62.373,94.271,67.1,35.949,218.442,17.41,331.39-3.895a258.589,258.589,0,0,0,147.073-84.144Z" transform="translate(-56.711 -237.011)" fill="#0b2d61" opacity="0.1"/>
    <path id="Path_4687" data-name="Path 4687" d="M668.09,90.948H606.114a5.361,5.361,0,0,1,0-10.722h10.714a5.361,5.361,0,0,1,0-10.722h-7.651a5.361,5.361,0,0,1,0-10.722h32.348a85.548,85.548,0,0,0-25.231-6.961c-88.2-11.339-119.694-3.839-130.8,3.895A123.475,123.475,0,0,1,440.156,75.6c-54.421,11.234-156.2,24.754-248.44-4.329-45.847-14.466-79.924,9.971-100.346,50.788H678.849c-.767-11.862-3.064-22.812-7.278-32.4a5.324,5.324,0,0,1-3.481,1.291Z" transform="translate(-69.163 -46.05)" fill="#0b2d61" opacity="0.1"/>
    <path id="Path_4688" data-name="Path 4688" d="M52.774,321.15a273.424,273.424,0,0,0,2.4,72.026L599.314,413.09a255.968,255.968,0,0,0,37.807-57.7Zm215.213,51.384H257.274a5.361,5.361,0,0,1,0,10.722H195.3a5.361,5.361,0,0,1,0-10.722h10.714a5.361,5.361,0,0,1,0-10.722h-7.65a5.361,5.361,0,0,1,0-10.722h61.976a5.361,5.361,0,0,1,0,10.722h7.65a5.361,5.361,0,0,1,0,10.722Z" transform="translate(-51.45 -168.229)" fill="#0b2d61" opacity="0.1"/>
    <path id="Path_4689" data-name="Path 4689" d="M662.3,183.34,68.212,197.806C60.989,216.39,56.224,237.405,54,259.194H651.891a254.127,254.127,0,0,0,8.635-39.132A185.569,185.569,0,0,0,662.3,183.34ZM174.609,230.723H163.895a5.361,5.361,0,0,1,0,10.722H101.917a5.361,5.361,0,0,1,0-10.722h10.714a5.361,5.361,0,0,1,0-10.722H104.98a5.361,5.361,0,0,1,0-10.722h61.978a5.361,5.361,0,0,1,0,10.722h7.651a5.361,5.361,0,0,1,0,10.722Z" transform="translate(-52.586 -107.025)" fill="#0b2d61" opacity="0.1"/>
    <g id="Group_639" data-name="Group 639" transform="translate(372.946 224.477)" opacity="0.1">
      <path id="Path_4690" data-name="Path 4690" d="M729,590.445s15.69-38.67,44.99-53.014a63.235,63.235,0,0,0,28.716-27.848A106.345,106.345,0,0,0,809.9,491.5" transform="translate(-725.279 -468.354)" fill="none" stroke="#535461" stroke-miterlimit="10" stroke-width="2"/>
      <path id="Path_4691" data-name="Path 4691" d="M892.452,463.894c-3.055,3.839-18.862,9.459-18.862,9.459s1.9-16.692,4.958-20.5a8.9,8.9,0,0,1,13.91,11.061Z" transform="translate(-789.419 -449.901)" fill="#0b2d61"/>
      <path id="Path_4692" data-name="Path 4692" d="M881.025,516.044c-4.651,1.563-20.965-2.326-20.965-2.326s10.655-12.953,15.307-14.517a8.9,8.9,0,0,1,5.659,16.842Z" transform="translate(-783.417 -471.638)" fill="#0b2d61"/>
      <path id="Path_4693" data-name="Path 4693" d="M831.386,580.347c-4.8-1-16.926-12.591-16.926-12.591s15.735-5.8,20.542-4.807a8.9,8.9,0,0,1-3.617,17.393Z" transform="translate(-763.189 -499.998)" fill="#0b2d61"/>
      <path id="Path_4694" data-name="Path 4694" d="M778.882,620.031c-4.9-.172-18.812-9.548-18.812-9.548s14.533-8.363,19.435-8.207a8.9,8.9,0,1,1-.623,17.755Z" transform="translate(-739.062 -517.493)" fill="#0b2d61"/>
      <path id="Path_4695" data-name="Path 4695" d="M832.746,498.456C833.375,503.325,844,516.3,844,516.3s6.994-15.245,6.371-20.114a8.9,8.9,0,0,0-17.621,2.27Z" transform="translate(-771.293 -467.243)" fill="#0b2d61"/>
      <path id="Path_4696" data-name="Path 4696" d="M772.843,542.916c2.053,4.451,16.074,13.66,16.074,13.66s2.114-16.642.061-21.093a8.9,8.9,0,1,0-16.136,7.439Z" transform="translate(-744.251 -485.335)" fill="#0b2d61"/>
      <path id="Path_4697" data-name="Path 4697" d="M722.484,598.851c1.269,4.741,13.537,16.18,13.537,16.18s4.9-16.041,3.622-20.782a8.9,8.9,0,0,0-17.159,4.6Z" transform="translate(-722.312 -511.258)" fill="#0b2d61"/>
      <path id="Path_4698" data-name="Path 4698" d="M892.452,463.894c-3.055,3.839-18.862,9.459-18.862,9.459s1.9-16.692,4.958-20.5a8.9,8.9,0,0,1,13.91,11.061Z" transform="translate(-789.419 -449.901)" opacity="0.25"/>
      <path id="Path_4699" data-name="Path 4699" d="M881.025,516.044c-4.651,1.563-20.965-2.326-20.965-2.326s10.655-12.953,15.307-14.517a8.9,8.9,0,0,1,5.659,16.842Z" transform="translate(-783.417 -471.638)" opacity="0.25"/>
      <path id="Path_4700" data-name="Path 4700" d="M831.386,580.347c-4.8-1-16.926-12.591-16.926-12.591s15.735-5.8,20.542-4.807a8.9,8.9,0,0,1-3.617,17.393Z" transform="translate(-763.189 -499.998)" opacity="0.25"/>
      <path id="Path_4701" data-name="Path 4701" d="M778.882,620.031c-4.9-.172-18.812-9.548-18.812-9.548s14.533-8.363,19.435-8.207a8.9,8.9,0,1,1-.623,17.755Z" transform="translate(-739.062 -517.493)" opacity="0.25"/>
      <path id="Path_4702" data-name="Path 4702" d="M832.746,498.456C833.375,503.325,844,516.3,844,516.3s6.994-15.245,6.371-20.114a8.9,8.9,0,0,0-17.621,2.27Z" transform="translate(-771.293 -467.243)" opacity="0.25"/>
      <path id="Path_4703" data-name="Path 4703" d="M772.843,542.916c2.053,4.451,16.074,13.66,16.074,13.66s2.114-16.642.061-21.093a8.9,8.9,0,1,0-16.136,7.439Z" transform="translate(-744.251 -485.335)" opacity="0.25"/>
      <path id="Path_4704" data-name="Path 4704" d="M722.484,598.851c1.269,4.741,13.537,16.18,13.537,16.18s4.9-16.041,3.622-20.782a8.9,8.9,0,0,0-17.159,4.6Z" transform="translate(-722.312 -511.258)" opacity="0.25"/>
    </g>
    <g id="Group_640" data-name="Group 640" transform="translate(349.583 142.785)" opacity="0.1">
      <path id="Path_4705" data-name="Path 4705" d="M709,471.9s1.981-41.685,24.865-64.937a63.235,63.235,0,0,0,17.8-35.8,106.343,106.343,0,0,0,.8-19.429" transform="translate(-693.012 -324.593)" fill="none" stroke="#535461" stroke-miterlimit="10" stroke-width="2"/>
      <path id="Path_4706" data-name="Path 4706" d="M799.3,315.355c-1.608,4.635-14.661,15.167-14.661,15.167s-3.728-16.353-2.12-20.987a8.9,8.9,0,1,1,16.781,5.82Z" transform="translate(-725.446 -302.957)" fill="#0b2d61"/>
      <path id="Path_4707" data-name="Path 4707" d="M805.493,367.037c-3.895,3.016-20.553,4.763-20.553,4.763s5.759-15.757,9.626-18.773a8.9,8.9,0,1,1,10.928,14.01Z" transform="translate(-726.699 -324.17)" fill="#0b2d61"/>
      <path id="Path_4708" data-name="Path 4708" d="M777.372,444.341c-4.863.651-20.142-6.265-20.142-6.265s12.925-10.694,17.8-11.345a8.9,8.9,0,1,1,2.359,17.61Z" transform="translate(-714.407 -357.786)" fill="#0b2d61"/>
      <path id="Path_4709" data-name="Path 4709" d="M741.865,499.317c-4.685,1.463-20.915-2.782-20.915-2.782s10.928-12.725,15.613-14.188a8.9,8.9,0,0,1,5.3,16.959Z" transform="translate(-698.313 -382.421)" fill="#0b2d61"/>
      <path id="Path_4710" data-name="Path 4710" d="M752.141,369.34c2.226,4.384,16.536,13.1,16.536,13.1s1.541-16.692-.662-21.088a8.9,8.9,0,0,0-15.874,7.984Z" transform="translate(-711.833 -326.908)" fill="#0b2d61"/>
      <path id="Path_4711" data-name="Path 4711" d="M711.009,431.816c3.416,3.522,19.7,7.556,19.7,7.556s-3.522-16.4-6.938-19.919a8.9,8.9,0,0,0-12.758,12.369Z" transform="translate(-692.956 -353.607)" fill="#0b2d61"/>
      <path id="Path_4712" data-name="Path 4712" d="M681.459,500.673c2.782,4.051,18.139,10.777,18.139,10.777s-.7-16.759-3.472-20.809a8.9,8.9,0,0,0-14.661,10.015Z" transform="translate(-680.265 -384.728)" fill="#0b2d61"/>
    </g>
    <path id="Path_4713" data-name="Path 4713" d="M351.19,803.84c21.878,7.356,48.568,2.882,73.389,3.4,3.4.072,6.994.284,9.72,1.552s4.067,3.338,5.937,5.091c6.955,6.56,21.2,8.669,33.662,7.556s23.881-4.8,35.61-7.6c20.32-4.852,43.549-7.055,63.591-1.769a16.561,16.561,0,0,0,5.748.851c4.4-.434,5.7-3.95,8.774-5.959,5.564-3.628,17.6-2.643,20.03-7.422,1.43-2.782-1.858-5.675-5.436-7.589-13.7-7.322-33.295-8.53-51.222-7.4s-35.554,4.245-53.576,4.256c-22.451,0-44.145-4.779-66.378-6.738-15.4-1.358-32.21-1.191-46.649,2.782C368.783,789.2,365.334,798.9,351.19,803.84Z" transform="translate(-184.622 -372.533)" fill="#0b2d61" opacity="0.1"/>
    <rect id="Rectangle_637" data-name="Rectangle 637" width="3.895" height="55.084" transform="translate(203.221 102.787)" fill="#01183a"/>
    <rect id="Rectangle_638" data-name="Rectangle 638" width="3.895" height="31.158" transform="translate(203.221 176.737)" fill="#01183a"/>
    <rect id="Rectangle_639" data-name="Rectangle 639" width="175.266" height="380.261" rx="23" transform="translate(205.944 48.899)" fill="#01183a"/>
    <rect id="Rectangle_640" data-name="Rectangle 640" width="175.266" height="346.321" rx="24" transform="translate(205.944 66.704)" fill="#0b2d61"/>
    <rect id="Rectangle_641" data-name="Rectangle 641" width="28.933" height="3.895" rx="1.947" transform="translate(279.385 57.245)" fill="#eaeaf3"/>
    <circle id="Ellipse_479" data-name="Ellipse 479" cx="2.782" cy="2.782" r="2.782" transform="translate(315.534 56.688)" fill="#eaeaf3"/>
    <path id="Path_4714" data-name="Path 4714" d="M481.644,393.914v40.617A9.609,9.609,0,0,1,472,444.246c-5.364,0-10.572-4.345-10.572-9.715V393.914c0-5.3,5.191-9.642,10.572-9.642A9.681,9.681,0,0,1,481.644,393.914Zm3.789,55.05a10.355,10.355,0,0,0,10.377,10.377h6.977l.106,21.427c0,12.936,19.357,12.836,19.357,0V459.347h13.042v21.427c0,12.87,19.474,12.9,19.474,0V459.347h7.083a10.343,10.343,0,0,0,10.31-10.377V386.041H485.433Zm86.96-66.306H485.038c0-15.023,8.975-28.054,22.3-34.853l-6.677-12.38c-.979-1.719,1.508-2.782,2.348-1.33l6.8,12.486a47.372,47.372,0,0,1,37.974,0l6.766-12.447a1.35,1.35,0,1,1,2.348,1.33l-6.677,12.341C563.418,354.6,572.393,367.652,572.393,382.658Zm-59.857-19.474a3.672,3.672,0,1,0,0,.011Zm39.766,0a3.679,3.679,0,1,0,0,.011Zm33.239,21.076A9.615,9.615,0,0,0,575.9,393.9V434.52a9.676,9.676,0,0,0,9.642,9.715c5.4,0,10.572-4.346,10.572-9.715V393.9c-.017-5.386-5.208-9.631-10.572-9.631Z" transform="translate(-233.528 -173.706)" fill="#fff"/>
    <rect id="Rectangle_642" data-name="Rectangle 642" width="36.166" height="1.669" transform="translate(252.418 316.615)" fill="#fff"/>
    <rect id="Rectangle_643" data-name="Rectangle 643" width="23.925" height="1.669" transform="translate(301.905 316.615)" fill="#fff"/>
    <rect id="Rectangle_644" data-name="Rectangle 644" width="23.925" height="1.669" transform="translate(220.73 316.615)" fill="#fff"/>
    <rect id="Rectangle_645" data-name="Rectangle 645" width="23.925" height="1.669" transform="translate(339.712 316.615)" fill="#fff"/>
  </g>
</svg>
