<svg xmlns="http://www.w3.org/2000/svg" width="515.998" height="720.588" viewBox="0 0 515.998 720.588">
  <g id="values" transform="translate(-23.253 0)">
    <path id="Path_3200" data-name="Path 3200" d="M721.388,408.518,438.6,573.8a4.326,4.326,0,0,1-5.911-1.55L250.842,261.107a4.326,4.326,0,0,1,1.55-5.911L535.177,89.918a4.326,4.326,0,0,1,5.911,1.55L722.937,402.606a4.326,4.326,0,0,1-1.549,5.912Z" transform="translate(-227 -89.328)" fill="#fff"/>
    <path id="Path_3201" data-name="Path 3201" d="M721.388,408.518,438.6,573.8a4.326,4.326,0,0,1-5.911-1.55L250.842,261.107a4.326,4.326,0,0,1,1.55-5.911L535.177,89.918a4.326,4.326,0,0,1,5.911,1.55L722.937,402.606a4.326,4.326,0,0,1-1.549,5.912ZM253.264,256.688a2.6,2.6,0,0,0-.93,3.547l181.85,311.138a2.6,2.6,0,0,0,3.547.93L720.516,407.025a2.6,2.6,0,0,0,.93-3.547L539.6,92.34a2.6,2.6,0,0,0-3.547-.93Z" transform="translate(-227 -89.328)" fill="#3f3d56"/>
    <path id="Path_3202" data-name="Path 3202" d="M435.04,287.673,364.9,328.665a4.326,4.326,0,0,1-5.911-1.55L318,256.978a4.326,4.326,0,0,1,1.55-5.911l70.137-40.992a4.326,4.326,0,0,1,5.911,1.55l40.992,70.137a4.326,4.326,0,0,1-1.55,5.911ZM320.422,252.56a2.6,2.6,0,0,0-.93,3.547l40.992,70.137a2.6,2.6,0,0,0,3.547.93l70.137-40.992a2.6,2.6,0,0,0,.93-3.547L394.105,212.5a2.6,2.6,0,0,0-3.547-.93Z" transform="translate(-227 -89.328)" fill="#f2f2f2"/>
    <path id="Path_3203" data-name="Path 3203" d="M419.909,308.028,349.772,349.02a3.893,3.893,0,0,1-5.32-1.4L303.46,277.489a3.893,3.893,0,0,1,1.4-5.32l70.137-40.992a3.893,3.893,0,0,1,5.32,1.4L421.3,302.708A3.893,3.893,0,0,1,419.909,308.028Z" transform="translate(-227 -89.328)" fill="#0b2d61"/>
    <path id="Path_3204" data-name="Path 3204" d="M589.2,255.132,369.833,383.343a3.889,3.889,0,0,1-3.925-6.715l219.364-128.21a3.889,3.889,0,0,1,3.925,6.715Z" transform="translate(-227 -89.328)" fill="#ccc"/>
    <path id="Path_3205" data-name="Path 3205" d="M549.74,309.225,383.352,406.473a3.889,3.889,0,1,1-3.925-6.715L545.815,302.51a3.889,3.889,0,0,1,3.925,6.715Z" transform="translate(-227 -89.328)" fill="#ccc"/>
    <path id="Path_3206" data-name="Path 3206" d="M538.736,170.509l-97,56.692a3.889,3.889,0,1,1-3.925-6.715l97-56.692a3.889,3.889,0,0,1,3.925,6.715Z" transform="translate(-227 -89.328)" fill="#ccc"/>
    <path id="Path_3207" data-name="Path 3207" d="M528.047,207.788l-72.79,42.543a3.889,3.889,0,0,1-3.925-6.715l72.79-42.543a3.889,3.889,0,1,1,3.925,6.715Z" transform="translate(-227 -89.328)" fill="#ccc"/>
    <path id="Path_3208" data-name="Path 3208" d="M616.234,301.393,396.87,429.6a3.889,3.889,0,0,1-3.925-6.715l219.364-128.21a3.889,3.889,0,0,1,3.925,6.715Z" transform="translate(-227 -89.328)" fill="#ccc"/>
    <path id="Path_3209" data-name="Path 3209" d="M576.777,355.485,410.389,452.733a3.889,3.889,0,0,1-3.925-6.715L572.852,348.77a3.889,3.889,0,0,1,3.925,6.715Z" transform="translate(-227 -89.328)" fill="#ccc"/>
    <path id="Path_3210" data-name="Path 3210" d="M643.271,347.653,423.908,475.863a3.889,3.889,0,0,1-3.925-6.715l219.364-128.21a3.889,3.889,0,1,1,3.925,6.715Z" transform="translate(-227 -89.328)" fill="#ccc"/>
    <path id="Path_3211" data-name="Path 3211" d="M656.79,370.783,437.426,498.994a3.889,3.889,0,0,1-3.925-6.715l219.364-128.21a3.889,3.889,0,1,1,3.925,6.715Z" transform="translate(-227 -89.328)" fill="#ccc"/>
    <path id="Path_3212" data-name="Path 3212" d="M585.852,460.826a84.7,84.7,0,0,0,8.2-11.47c2.162-3.649,4.282-7.55,4.759-11.829a11.683,11.683,0,0,0-3.5-9.985,8.222,8.222,0,0,0-9.646-1.1,9.809,9.809,0,0,0-4.923,8.76,12.959,12.959,0,0,0,5.536,9.814c6.484,4.7,16.61,4.452,23.521.877,7.784-4.027,11.806-14.561,5.69-21.773-1.272-1.5-3.389.176-3.07,1.794a8.721,8.721,0,0,0,17.279-2.135l-2.749,1.607a20.99,20.99,0,0,0,20.879-2.24,19.47,19.47,0,0,0,3.907-3.776c1.346-1.755,3.606-2.89,5.436-4.155l13.19-9.114c1.94-1.341.1-4.535-1.861-3.184l-11.946,8.254c-1.991,1.376-3.994,2.734-5.973,4.127-1.414,1-2.285,2.6-3.572,3.786a17.288,17.288,0,0,1-18.252,3.087,1.866,1.866,0,0,0-2.749,1.607,5.048,5.048,0,1,1-10.026,1.188l-3.07,1.794c3.945,4.652,1.318,11.787-3.227,14.909-5.083,3.491-12.593,4.1-18.323,1.927a10.811,10.811,0,0,1-6.365-5.84,6.443,6.443,0,0,1,1.462-7.373,4.623,4.623,0,0,1,6.427-.069,8.269,8.269,0,0,1,2.191,7.459c-.591,3.695-2.633,7.1-4.533,10.257a78.8,78.8,0,0,1-7.337,10.217c-1.521,1.8,1.1,4.395,2.641,2.575Z" transform="translate(-227 -89.328)" fill="#0b2d61"/>
    <path id="Path_3213" data-name="Path 3213" d="M618.593,548.508a8.669,8.669,0,0,1,.872,1.051l40.849-1,4.765-8.708,14.082,5.474-6.938,16.235a6.591,6.591,0,0,1-6.852,3.954L619.22,559.94a8.649,8.649,0,1,1-.627-11.432Z" transform="translate(-227 -89.328)" fill="#ffb7b7"/>
    <path id="Path_3214" data-name="Path 3214" d="M524.753,707.256H511.322l-6.39-51.807h19.823Z" fill="#ffb7b7"/>
    <path id="Path_3215" data-name="Path 3215" d="M755.178,809.6l-43.308,0v-.547A16.857,16.857,0,0,1,728.725,792.2h26.453Z" transform="translate(-227 -89.328)" fill="#01183a"/>
    <path id="Path_3216" data-name="Path 3216" d="M402.792,706.958l-12.351-5.277,14.475-50.152,18.229,7.788Z" fill="#ffb7b7"/>
    <path id="Path_3217" data-name="Path 3217" d="M627.828,809.6,588,792.59l.215-.5a16.858,16.858,0,0,1,22.123-8.88h0L634.666,793.6Z" transform="translate(-227 -89.328)" fill="#01183a"/>
    <path id="Path_3218" data-name="Path 3218" d="M459.468,470.4l-.972,15.739,28.391,3.038,29.706,3.179-8.744-23.9Z" fill="#ffb7b7"/>
    <path id="Path_3219" data-name="Path 3219" d="M684.6,575.672l-11.029-76.888,19.117-6.265,5.615-7.7,27.323,1.617,4.011,8.985,14.569,6.884-2.239,41.582,1.633,34.784Z" transform="translate(-227 -89.328)" fill="#01183a"/>
    <path id="Path_3220" data-name="Path 3220" d="M677.661,555.067l-19.445-7.78.083-.346c.083-.349,8.359-34.932,9.458-40.49,1.145-5.79,5.327-7.391,5.5-7.456l.13-.048,7.7,2.342,3.38,26.554Z" transform="translate(-227 -89.328)" fill="#01183a"/>
    <path id="Path_3221" data-name="Path 3221" d="M639.8,787.181l-25.884-5.31,41.37-114.154,14.159-38.936s8.98-31.219,13.037-43.3l2.448-16.21,57.962,6.416s16.189,23.774,11.271,62.526l2.224,145.65L730.5,785.19l-21.68-146.9-38.051,80.527s-11.993,34.364-20.574,41.812Z" transform="translate(-227 -89.328)" fill="#01183a"/>
    <path id="Path_3222" data-name="Path 3222" d="M719.644,581.093a8.684,8.684,0,0,1,1.364.075l27.04-30.634-3.145-9.415,13.589-6.6,7.188,16.126a6.591,6.591,0,0,1-1.759,7.712l-35.467,30.052a8.649,8.649,0,1,1-8.809-7.313Z" transform="translate(-227 -89.328)" fill="#ffb7b7"/>
    <path id="Path_3223" data-name="Path 3223" d="M745.89,553.516l-11.28-26.533,4.4-18.481,4.74-5.989a2.73,2.73,0,0,1,2.194.02c1.748.7,3.237,2.86,4.425,6.41l10.571,30.111Z" transform="translate(-227 -89.328)" fill="#01183a"/>
    <path id="Path_3224" data-name="Path 3224" d="M687.367,474.987v-20a26.8,26.8,0,1,1,53.609,0v20a3.6,3.6,0,0,1-3.6,3.6H690.968a3.6,3.6,0,0,1-3.6-3.6Z" transform="translate(-227 -89.328)" fill="#01183a"/>
    <circle id="Ellipse_206" data-name="Ellipse 206" cx="19.652" cy="19.652" r="19.652" transform="translate(462.012 349.49)" fill="#ffb7b7"/>
    <path id="Path_3225" data-name="Path 3225" d="M681.026,456.584a21.227,21.227,0,0,1,21.2-21.2h4a21.227,21.227,0,0,1,21.2,21.2v.4h-8.454l-2.884-8.075-.577,8.075h-4.37l-1.455-4.074-.291,4.074H681.026Z" transform="translate(-227 -89.328)" fill="#01183a"/>
    <path id="Path_3226" data-name="Path 3226" d="M706.73,480.837a3.547,3.547,0,0,1-.282-3.766c4.24-8.064,10.175-22.964,2.3-32.153l-.566-.66h22.874V478.6l-20.779,3.666a3.682,3.682,0,0,1-.637.056,3.586,3.586,0,0,1-2.906-1.484Z" transform="translate(-227 -89.328)" fill="#01183a"/>
    <path id="Path_3227" data-name="Path 3227" d="M212.9,695.94l12.138,4.338,22.509-44.755-17.915-6.4Z" fill="#9f616a"/>
    <path id="Path_3228" data-name="Path 3228" d="M432.6,795.929l5.622-15.73,23.9,8.543a16.2,16.2,0,0,1,9.79,20.679l-.177.495Z" transform="translate(-227 -89.328)" fill="#01183a"/>
    <path id="Path_3229" data-name="Path 3229" d="M291.836,707.946h12.89l6.133-49.719H291.834Z" fill="#9f616a"/>
    <path id="Path_3230" data-name="Path 3230" d="M515.548,793.066h25.386a16.178,16.178,0,0,1,16.178,16.178v.525l-41.564,0Z" transform="translate(-227 -89.328)" fill="#01183a"/>
    <path id="Path_3231" data-name="Path 3231" d="M489.459,479.629l5.606-11.077s20.884,5.232,22.782,17.336Z" transform="translate(-227 -89.328)" fill="#f1f1f1"/>
    <path id="Path_3232" data-name="Path 3232" d="M239.328,516.96l15.245,85.074-40.48,71.588,24.183,9.463,41.006-69.394,5.257-18.926,3.154,98.834,21.81-.662,10-92.287-16.038-85.793Z" fill="#01183a"/>
    <path id="Path_3233" data-name="Path 3233" d="M495.267,626.4c-22.4,0-36.616-4.284-36.935-4.352l-.516-.11,11.666-54.086.525-49.889c0-21.142,13.914-36.728,15.845-38.167a9.1,9.1,0,0,1,4.837-5.945c4.641-2.106,10.313.421,10.552.53l17.023,6.382.08.236c.205.6,22.627,74.214,22.627,74.214s-1.357,64.315-1.83,66.422C539.142,621.636,507.711,626.4,495.267,626.4Z" transform="translate(-227 -89.328)" fill="#0b2d61"/>
    <circle id="Ellipse_207" data-name="Ellipse 207" cx="23.008" cy="23.008" r="23.008" transform="translate(262.469 329.719)" fill="#9f616a"/>
    <path id="Path_3234" data-name="Path 3234" d="M259.823,432.715l40.253,56.162,5.944-26.227Z" opacity="0.2"/>
    <path id="Path_3235" data-name="Path 3235" d="M613.023,560.257a9.874,9.874,0,0,1-14.825-3.073l-34.647,5.546,7.506-16.617,31.75-2.719a9.927,9.927,0,0,1,10.215,16.863Z" transform="translate(-227 -89.328)" fill="#9f616a"/>
    <path id="Path_3236" data-name="Path 3236" d="M345.842,455.838l12.449-1.221,3.45,17.366-15.665.277Z" fill="#f1f1f1"/>
    <path id="Path_3237" data-name="Path 3237" d="M583.047,567.362l-60.97-5.429-30.786-48.96-.095-.433a16.855,16.855,0,0,1,31.467-11.286l18.072,35.251,36.473,5.513Z" transform="translate(-227 -89.328)" fill="#0b2d61"/>
    <path id="Path_3238" data-name="Path 3238" d="M492.879,462.032l19.1.685c1.164.042,4.323-12.521,4.737-15.127a7.113,7.113,0,0,1,7.42-5.754c1.43.135,5.034-2.536,8.754-5.7,7.062-6,6.695-17.28-1.063-22.353q-.318-.208-.624-.38c-4.894-2.739-10.619-3.659-16.227-3.729-5.084-.064-10.311.576-14.79,2.982-8.029,4.314-12.3,13.741-12.678,22.848s2.544,18.012,5.857,26.5" transform="translate(-227 -89.328)" fill="#01183a"/>
  </g>
</svg>
