<svg xmlns="http://www.w3.org/2000/svg" width="610" height="412.526" viewBox="0 0 610 412.526">
  <g id="career" transform="translate(0 0)">
    <path id="Path_3432" data-name="Path 3432" d="M204.7,565.22c-2.9,0-5.8.12-8.634.36l-.413.035c-18.8,1.662-32.554,11.3-31.989,22.429l.109,2.011c.072,1.272.149,2.639.212,4.155.034.748,1.055,1.322,2.325,1.322H628.788c32.607-.2,65.1-.447,96.558-.741a164.344,164.344,0,0,0,17.666-.915c8.744-1.035,14.812-3.086,18.555-6.271h0c4.654-3.949,4.8-8.922,4.519-14.541-.573-11.345-1.142-23.264-1.709-35.147-.5-10.472-1-20.917-1.5-30.916-.309-5.934-.994-11.172-6.279-15.175-5.728-4.329-16.175-6.524-31.051-6.524h-.54c-46.62.166-92.813,16.195-114.945,39.886-2.549,2.728-4.923,5.649-7.22,8.474a114.84,114.84,0,0,1-11.089,12.346,52.117,52.117,0,0,1-7.325,5.71c-.18.124-.385.257-.6.384-.5.324-1.018.637-1.525.915a52.965,52.965,0,0,1-9.342,4.247l-.327.11c-.247.088-.514.176-.781.257-1.874.6-3.82,1.121-5.77,1.542a92.915,92.915,0,0,1-28.511,1.323,137.79,137.79,0,0,1-28.348-5.776c-9.706-3.067-18.792-6.892-27.578-10.59-3.859-1.625-7.851-3.3-11.838-4.9-.749-.3-1.486-.592-2.235-.885-4.869-1.9-9.283-3.465-13.495-4.791A133.2,133.2,0,0,0,421.92,527.6c-11.595-.635-21.812.562-30.362,3.55a52.148,52.148,0,0,0-6.868,2.959c-10.127,5.258-16.37,13.019-22.406,20.524-7.51,9.335-15.275,18.989-30.609,23.994-17.693,5.78-43.52,3.379-61.792-.8-5.745-1.313-11.482-2.824-17.032-4.285q-3.362-.886-6.728-1.759c-4.41-1.139-8.02-2.011-11.359-2.747l-1.056-.235c-.588-.128-1.176-.255-1.774-.377-3.966-.833-7.66-1.488-11.3-2l-.861-.126c-1.725-.227-3.338-.416-4.921-.575l-.632-.063C211.124,565.367,207.916,565.22,204.7,565.22Z" transform="translate(-163.651 -254.358)" fill="#273a57"/>
    <path id="Path_3433" data-name="Path 3433" d="M895.473,611.471c13.012-11.726,32.367-17.622,48.6-11.047a80.7,80.7,0,0,0-36.266,41.891c-2.585,6.877-4.743,14.794-11.1,18.475-3.956,2.291-8.877,2.4-13.312,1.3s-8.5-3.323-12.51-5.518l-1.141-.026C874.867,639.793,882.461,623.2,895.473,611.471Z" transform="translate(-376.191 -288.187)" fill="#1d2f4a"/>
    <path id="Path_3434" data-name="Path 3434" d="M944.063,601.778A68.979,68.979,0,0,0,905.687,619.9a29.7,29.7,0,0,0-5.833,7.253,17.038,17.038,0,0,0-1.969,8.748c.07,2.836.471,5.73-.15,8.534a10.432,10.432,0,0,1-5.189,6.772c-3.177,1.826-6.821,2.4-10.4,2.841-3.978.488-8.118.931-11.562,3.163-.417.27-.812-.393-.4-.663,5.991-3.882,13.573-2.47,20.016-5.061,3.006-1.209,5.666-3.331,6.608-6.54.823-2.806.413-5.79.317-8.661a18.178,18.178,0,0,1,1.607-8.625,27.463,27.463,0,0,1,5.533-7.45,66.923,66.923,0,0,1,17.007-12.175,70.2,70.2,0,0,1,22.785-7.03c.492-.063.5.709.007.772Z" transform="translate(-376.27 -289.185)" fill="#8aa1c5"/>
    <path id="Path_3435" data-name="Path 3435" d="M924.829,617.384a10.349,10.349,0,0,1,1.141-13.352c.354-.349.912.185.558.534a9.583,9.583,0,0,0-1.036,12.423c.29.4-.374.8-.663.4Z" transform="translate(-392.196 -290.068)" fill="#8aa1c5"/>
    <path id="Path_3436" data-name="Path 3436" d="M909.367,647.627a19.947,19.947,0,0,0,14.254-2.854c.418-.269.813.394.4.663a20.748,20.748,0,0,1-14.839,2.94C908.688,648.288,908.88,647.54,909.367,647.627Z" transform="translate(-387.977 -302.344)" fill="#8aa1c5"/>
    <path id="Path_3437" data-name="Path 3437" d="M953.349,607.26a5.858,5.858,0,0,0,4.381,3.421c.491.082.3.83-.189.749a6.565,6.565,0,0,1-4.855-3.774.4.4,0,0,1,.134-.529.388.388,0,0,1,.529.134Z" transform="translate(-401.146 -291.019)" fill="#8aa1c5"/>
    <path id="Path_3438" data-name="Path 3438" d="M961.553,673.613c-.308-.043-.616-.085-.928-.123a77.146,77.146,0,0,0-12.5-.635c-.323,0-.65.014-.973.028a81.331,81.331,0,0,0-29.181,6.717,78.98,78.98,0,0,0-10.6,5.63c-4.674,2.96-9.507,6.54-14.732,7.747a13.565,13.565,0,0,1-1.651.294L869.4,674.579c-.028-.067-.06-.13-.088-.2l-.9-.707c.167-.123.343-.246.509-.369.1-.072.2-.139.294-.211.066-.046.132-.093.189-.138.022-.016.044-.031.062-.042.057-.046.114-.082.167-.123q1.47-1.041,2.96-2.065s0,0,.013-.006a116.133,116.133,0,0,1,24.184-13c.256-.1.517-.2.783-.287a75.368,75.368,0,0,1,11.839-3.331,66.622,66.622,0,0,1,6.677-.933,55.408,55.408,0,0,1,17.28,1.224c11.283,2.616,21.6,8.812,27.717,18.475C961.252,673.117,961.4,673.361,961.553,673.613Z" transform="translate(-375.791 -304.829)" fill="#273a57"/>
    <path id="Path_3439" data-name="Path 3439" d="M961.468,678.606a68.981,68.981,0,0,0-41.552-8.634,29.707,29.707,0,0,0-9.024,2.279,17.038,17.038,0,0,0-6.839,5.8c-1.652,2.307-3.074,4.858-5.258,6.724a10.432,10.432,0,0,1-8.22,2.282c-3.636-.455-6.893-2.189-10.018-4-3.47-2.006-7.043-4.144-11.136-4.436-.5-.035-.412-.8.083-.768,7.121.508,12.324,6.2,19.028,8.01,3.128.845,6.53.752,9.213-1.244,2.347-1.745,3.816-4.374,5.468-6.725a18.18,18.18,0,0,1,6.476-5.919,27.458,27.458,0,0,1,8.9-2.618,66.922,66.922,0,0,1,20.91.518,70.205,70.205,0,0,1,22.425,8.1c.431.245-.031.865-.459.621Z" transform="translate(-375.993 -309.59)" fill="#8aa1c5"/>
    <path id="Path_3440" data-name="Path 3440" d="M948.408,665.078a10.349,10.349,0,0,1,8.95-9.974c.492-.065.617.7.124.762a9.583,9.583,0,0,0-8.306,9.3c-.011.5-.779.411-.768-.083Z" transform="translate(-399.873 -305.472)" fill="#8aa1c5"/>
    <path id="Path_3441" data-name="Path 3441" d="M919.79,680.156a19.948,19.948,0,0,0,13.1,6.3c.5.037.412.8-.083.768a20.748,20.748,0,0,1-13.618-6.587c-.338-.365.265-.847.6-.484Z" transform="translate(-391.046 -312.976)" fill="#8aa1c5"/>
    <path id="Path_3442" data-name="Path 3442" d="M979.9,673.4a5.858,5.858,0,0,0,1.439,5.369c.342.361-.261.843-.6.484a6.564,6.564,0,0,1-1.6-5.936.4.4,0,0,1,.425-.342A.388.388,0,0,1,979.9,673.4Z" transform="translate(-409.075 -310.853)" fill="#8aa1c5"/>
    <path id="Path_3443" data-name="Path 3443" d="M412.743,623.033c10.655-16.161,29.715-27.851,48.908-25.336a89.187,89.187,0,0,0-27.134,54.892c-.851,8.074-.957,17.142-6.732,22.848-3.593,3.55-8.825,5.039-13.876,5.09s-10.016-1.189-14.915-2.421l-1.227.29C398.583,659.057,402.087,639.193,412.743,623.033Z" transform="translate(-234.122 -288.087)" fill="#273a57"/>
    <path id="Path_3444" data-name="Path 3444" d="M461.65,598.056a76.231,76.231,0,0,0-36,30.06,32.827,32.827,0,0,0-4.221,9.38,18.829,18.829,0,0,0,.327,9.9c.864,3.014,2.1,6,2.214,9.169a11.529,11.529,0,0,1-3.666,8.686c-2.89,2.837-6.627,4.467-10.337,5.933-4.119,1.628-8.424,3.254-11.486,6.6-.371.405-.978-.194-.608-.6,5.328-5.819,13.83-6.417,20-10.981,2.879-2.129,5.133-5.139,5.248-8.833.1-3.23-1.169-6.307-2.07-9.352a20.091,20.091,0,0,1-.681-9.672,30.349,30.349,0,0,1,3.845-9.507,73.958,73.958,0,0,1,14.8-17.753,77.585,77.585,0,0,1,22.414-13.858C461.935,597.028,462.154,597.853,461.65,598.056Z" transform="translate(-234.119 -288.04)" fill="#8aa1c5"/>
    <path id="Path_3445" data-name="Path 3445" d="M439.467,628.579a11.437,11.437,0,0,1-2.494-14.6c.281-.471,1.027-.056.745.416a10.591,10.591,0,0,0,2.348,13.575c.422.351-.179.956-.6.608Z" transform="translate(-245.445 -293.035)" fill="#fff"/>
    <path id="Path_3446" data-name="Path 3446" d="M431,663.838a22.044,22.044,0,0,0,14.451-7.018c.372-.4.98.2.608.6a22.929,22.929,0,0,1-15.052,7.272c-.548.042-.552-.811-.006-.853Z" transform="translate(-244.005 -305.949)" fill="#8aa1c5"/>
    <path id="Path_3447" data-name="Path 3447" d="M466.459,610.17a6.474,6.474,0,0,0,5.638,2.44c.548-.049.55.8.006.853a7.255,7.255,0,0,1-6.243-2.685.441.441,0,0,1,0-.6.429.429,0,0,1,.6,0Z" transform="translate(-254.585 -291.914)" fill="#8aa1c5"/>
    <path id="Path_3448" data-name="Path 3448" d="M496.134,671.772c-.341.04-.682.08-1.027.127a85.256,85.256,0,0,0-13.544,2.8c-.344.095-.692.2-1.032.3a89.88,89.88,0,0,0-29.341,15.3,87.273,87.273,0,0,0-9.768,8.97c-4.176,4.466-8.348,9.64-13.6,12.385a14.954,14.954,0,0,1-1.684.774l-28.291-13.987c-.048-.064-.1-.122-.149-.186l-1.155-.507c.144-.178.3-.359.442-.536.083-.1.173-.2.256-.307.057-.068.115-.136.163-.2.019-.023.038-.045.054-.062.048-.065.1-.12.144-.178q1.283-1.522,2.591-3.032c0-.007,0-.007.013-.01a128.343,128.343,0,0,1,22.249-20.632c.247-.175.5-.356.758-.525a83.279,83.279,0,0,1,11.736-6.857,73.631,73.631,0,0,1,6.882-2.855,61.231,61.231,0,0,1,18.822-3.5c12.8-.341,25.558,3.415,34.784,12.048C495.671,671.326,495.9,671.544,496.134,671.772Z" transform="translate(-233.753 -306.657)" fill="#273a57"/>
    <path id="Path_3449" data-name="Path 3449" d="M496.081,676.237a76.23,76.23,0,0,0-46.844,2.325,32.827,32.827,0,0,0-9.017,4.948,18.827,18.827,0,0,0-5.7,8.1c-1.125,2.927-1.936,6.051-3.753,8.654A11.528,11.528,0,0,1,422.608,705c-4.016.525-7.981-.424-11.826-1.486-4.269-1.18-8.685-2.473-13.144-1.646-.54.1-.664-.744-.125-.844,7.758-1.438,14.906,3.2,22.58,3.273,3.581.033,7.193-1.013,9.508-3.893,2.024-2.519,2.864-5.74,3.977-8.713a20.092,20.092,0,0,1,5.28-8.133,30.347,30.347,0,0,1,8.794-5.276,73.958,73.958,0,0,1,22.508-5.263,77.586,77.586,0,0,1,26.239,2.43c.529.143.207.933-.318.792Z" transform="translate(-233.941 -310.794)" fill="#8aa1c5"/>
    <path id="Path_3450" data-name="Path 3450" d="M478.287,672.349a11.437,11.437,0,0,1,6.8-13.157c.508-.207.854.574.345.781a10.591,10.591,0,0,0-6.3,12.252c.126.534-.718.656-.844.125Z" transform="translate(-258.273 -306.693)" fill="#8aa1c5"/>
    <path id="Path_3451" data-name="Path 3451" d="M450.846,697.467a22.045,22.045,0,0,0,15.764,3.1c.541-.1.665.746.125.844a22.93,22.93,0,0,1-16.4-3.256c-.463-.3.048-.98.509-.685Z" transform="translate(-249.894 -318.205)" fill="#8aa1c5"/>
    <path id="Path_3452" data-name="Path 3452" d="M513.332,673.5a6.474,6.474,0,0,0,3.032,5.342c.467.291-.045.974-.509.685a7.254,7.254,0,0,1-3.368-5.9.441.441,0,0,1,.36-.484A.429.429,0,0,1,513.332,673.5Z" transform="translate(-268.656 -310.902)" fill="#8aa1c5"/>
    <path id="Path_3453" data-name="Path 3453" d="M522.637,433.035a6.822,6.822,0,0,0-.9-10.422l11.135-53.892-12.014,3.79L511.9,424.647a6.859,6.859,0,0,0,10.733,8.388Z" transform="translate(-268.182 -219.268)" fill="#ffb6b6"/>
    <path id="Path_3454" data-name="Path 3454" d="M549.439,252.207,542,246.59s-6.565-.465-7.728,11.374-8.442,57.278-8.442,57.278l-11.388,52.744,15.764,3.46,12.2-56.92,12.21-39.269Z" transform="translate(-269.244 -182.504)" fill="#e6e6e6"/>
    <path id="Path_3455" data-name="Path 3455" d="M540.585,366.8l-35.7-27.757a2.662,2.662,0,0,1-.467-3.731l24.289-31.237a2.662,2.662,0,0,1,3.731-.467l35.7,27.757a2.662,2.662,0,0,1,.467,3.731l-24.289,31.237A2.662,2.662,0,0,1,540.585,366.8Z" transform="translate(-266.059 -199.501)" fill="#fff"/>
    <path id="Path_3456" data-name="Path 3456" d="M541.658,365.193l-32.67-25.4a2.364,2.364,0,0,1-.415-3.313l22.019-28.318a2.364,2.364,0,0,1,3.313-.415l32.67,25.4a2.364,2.364,0,0,1,.415,3.313l-22.019,28.318a2.364,2.364,0,0,1-3.313.414Z" transform="translate(-267.328 -200.765)" fill="#273a57"/>
    <path id="Path_3457" data-name="Path 3457" d="M515.41,346.169a.591.591,0,0,1-.1-.828l11.108-14.286a.59.59,0,1,1,.932.725l-11.108,14.286A.591.591,0,0,1,515.41,346.169Z" transform="translate(-269.468 -207.863)" fill="#e4e4e4" opacity="0.2"/>
    <path id="Path_3458" data-name="Path 3458" d="M518.044,348.217a.591.591,0,0,1-.1-.828L529.048,333.1a.59.59,0,0,1,.932.725l-11.108,14.286a.591.591,0,0,1-.828.1Z" transform="translate(-270.261 -208.48)" fill="#e4e4e4" opacity="0.2"/>
    <path id="Path_3459" data-name="Path 3459" d="M529.682,342.172a.591.591,0,0,1-.1-.828l4.815-6.193a.59.59,0,1,1,.932.725l-4.815,6.192A.591.591,0,0,1,529.682,342.172Z" transform="translate(-273.764 -209.096)" fill="#e4e4e4" opacity="0.2"/>
    <path id="Path_3460" data-name="Path 3460" d="M533.233,352.512a.591.591,0,0,1-.1-.828l17.536-22.553a.59.59,0,1,1,.932.725l-17.536,22.553A.591.591,0,0,1,533.233,352.512Z" transform="translate(-274.833 -207.284)" fill="#e4e4e4" opacity="0.2"/>
    <path id="Path_3461" data-name="Path 3461" d="M535.867,354.56a.591.591,0,0,1-.1-.828L553.3,331.179a.59.59,0,0,1,.932.725L536.7,354.456a.591.591,0,0,1-.828.1Z" transform="translate(-275.626 -207.9)" fill="#e4e4e4" opacity="0.2"/>
    <path id="Path_3462" data-name="Path 3462" d="M541.846,359.209a.591.591,0,0,1-.1-.828l17.536-22.553a.59.59,0,1,1,.932.725L542.674,359.1a.591.591,0,0,1-.828.1Z" transform="translate(-277.426 -209.3)" fill="#e4e4e4" opacity="0.2"/>
    <path id="Path_3463" data-name="Path 3463" d="M544.48,361.257a.591.591,0,0,1-.1-.828l17.536-22.553a.59.59,0,0,1,.932.725l-17.536,22.553A.591.591,0,0,1,544.48,361.257Z" transform="translate(-278.218 -209.916)" fill="#e4e4e4" opacity="0.2"/>
    <path id="Path_3464" data-name="Path 3464" d="M550.46,365.906a.591.591,0,0,1-.1-.828l17.536-22.553a.59.59,0,1,1,.932.725L551.288,365.8A.591.591,0,0,1,550.46,365.906Z" transform="translate(-280.019 -211.316)" fill="#e4e4e4" opacity="0.2"/>
    <path id="Path_3465" data-name="Path 3465" d="M553.094,367.954a.591.591,0,0,1-.1-.828l17.536-22.553a.59.59,0,0,1,.932.725L553.922,367.85a.591.591,0,0,1-.828.1Z" transform="translate(-280.811 -211.932)" fill="#e4e4e4" opacity="0.2"/>
    <circle id="Ellipse_242" data-name="Ellipse 242" cx="0.242" cy="0.242" r="0.242" transform="translate(242.729 181.731)" fill="#fff"/>
    <path id="Path_3466" data-name="Path 3466" d="M559,170.144a58.348,58.348,0,0,1-4.163,13.287c-10.955,23.174,20.242,15.621,31.391,15.621,12.189,0,23.852,6.41,22.071-22.071-.761-12.166-9.881-22.071-22.071-22.071C575.812,154.909,561.173,159.538,559,170.144Z" transform="translate(-280.711 -154.909)" fill="#262626"/>
    <path id="Path_3467" data-name="Path 3467" d="M446.738,490.83H436.352l-4.942-40.058h15.328Z" transform="translate(-129.862 -135.684)" fill="#ffb6b6"/>
    <path id="Path_3468" data-name="Path 3468" d="M609.164,677.5h-7.448l-1.329-7.032-3.4,7.032H577.229a4.44,4.44,0,0,1-2.523-8.094l15.774-10.894V651.4l16.592.99Z" transform="translate(-286.808 -304.358)" fill="#01183a"/>
    <path id="Path_3469" data-name="Path 3469" d="M526.023,475.487l-8.334,6.2-27.869-29.2,12.3-9.147Z" transform="translate(-147.444 -133.452)" fill="#ffb6b6"/>
    <path id="Path_3470" data-name="Path 3470" d="M712.83,652.081l-5.977,4.444-5.263-4.849,1.464,7.674L687.2,671.138a4.44,4.44,0,0,1-6.855-4.99l6.157-18.155-4.242-5.7,13.905-9.106Z" transform="translate(-319.114 -298.873)" fill="#01183a"/>
    <path id="Path_3471" data-name="Path 3471" d="M404.675,228.3l49.3-7.679-9.8-29.494h-39.5Z" transform="translate(-121.813 -57.532)" fill="#ffb6b6"/>
    <path id="Path_3472" data-name="Path 3472" d="M613.2,367.291s19.7,17.024,10.613,65.555l-11.1,47.553,30.24,52.5-15.377,8.387-37.266-51.795-17.053-40-9.02-70.1Z" transform="translate(-284.233 -218.833)" fill="#8aa1c5"/>
    <path id="Path_3473" data-name="Path 3473" d="M426.431,346.3l-1.185,18.355,3.47,54.353,17.225,5.93,3.262-55.69Z" transform="translate(-128.006 -104.239)" fill="#8aa1c5"/>
    <path id="Path_3474" data-name="Path 3474" d="M573.371,226.8l19.056.743,7.595,12.607,17.328,3.383L607.006,295.87l1.9,29.786-17.254-.105a50.468,50.468,0,0,0-33.768,12.686h0l.516-38.665-7.421-28.863,1.668-30.265,13.94-1.742Z" transform="translate(-280.242 -176.554)" fill="#e6e6e6"/>
    <circle id="Ellipse_243" data-name="Ellipse 243" cx="17.935" cy="17.935" r="17.935" transform="translate(285.752 8.266)" fill="#ffb6b6"/>
    <path id="Path_3475" data-name="Path 3475" d="M576.456,164.946a20.544,20.544,0,0,1,31.234,17.93c-9.139,2.294-18.74,4.05-28.486.549l-2.3-5.633-1.357,5.637c-2.968,1.213-5.944,2.24-8.919-.012a20.977,20.977,0,0,1,9.829-18.471Z" transform="translate(-284.949 -157.027)" fill="#262626"/>
    <path id="Path_3476" data-name="Path 3476" d="M641.142,418.478l2.418,21.941a2.678,2.678,0,0,0,2.56,1.891h11.145a2.678,2.678,0,0,0,2.56-1.891l2-16.817a4.067,4.067,0,1,0,1.049-7.651,2.654,2.654,0,0,0-2.032-.939H643.7a2.679,2.679,0,0,0-2.56,3.466Zm21.035,3.987,1.227-3.987a2.65,2.65,0,0,0,.04-1.418c.052,0,.1-.016.155-.016a2.9,2.9,0,0,1,0,5.808,2.867,2.867,0,0,1-1.422-.388Z" transform="translate(-307.348 -233.204)" fill="#fff"/>
    <path id="Path_3477" data-name="Path 3477" d="M660.967,426.365a6.822,6.822,0,0,1,.949-10.417L651.055,362l11.994,3.851,8.694,52.182a6.859,6.859,0,0,1-10.776,8.333Z" transform="translate(-310.368 -217.245)" fill="#ffb6b6"/>
    <path id="Path_3478" data-name="Path 3478" d="M633.065,256.362l7.442-5.618s6.565-.465,7.728,11.374,8.442,57.278,8.442,57.278l11.388,52.744L652.3,375.6l-12.2-56.92-12.21-39.269Z" transform="translate(-303.395 -183.755)" fill="#e6e6e6"/>
    <circle id="Ellipse_244" data-name="Ellipse 244" cx="4.213" cy="4.213" r="4.213" transform="translate(261.222 113.293)" fill="#fff"/>
    <path id="Path_3479" data-name="Path 3479" d="M187.544,563.419h8.779l4.177-33.863H187.543Z" transform="translate(-56.454 -159.403)" fill="#ffb6b6"/>
    <path id="Path_3480" data-name="Path 3480" d="M347.992,727.124h2.471l9.648-3.923,5.171,3.923h0A11.019,11.019,0,0,1,376.3,738.14v.359H347.992Z" transform="translate(-219.141 -325.974)" fill="#0b2d61"/>
    <path id="Path_3481" data-name="Path 3481" d="M236.221,555.862l8.564,1.934,11.533-32.111-12.64-2.854Z" transform="translate(-71.107 -157.379)" fill="#ffb6b6"/>
    <path id="Path_3482" data-name="Path 3482" d="M396.571,719.794l2.41.544,10.275-1.7,4.18,4.966h0a11.019,11.019,0,0,1,8.32,13.174l-.079.349-27.613-6.235Z" transform="translate(-233.009 -324.6)" fill="#444"/>
    <path id="Path_3483" data-name="Path 3483" d="M328.2,477.193l7.939,88.946s-2.975,53.4,6.624,72.19h13.92l6.892-77.067.865-51.728,29.844,43.641-19.009,83.893L392.41,638.6l30.846-91.044-33.888-85.469Z" transform="translate(-212.832 -246.293)" fill="#0b2d61"/>
    <circle id="Ellipse_245" data-name="Ellipse 245" cx="20.474" cy="20.474" r="20.474" transform="translate(102.858 47.21)" fill="#ffb8b8"/>
    <path id="Path_3484" data-name="Path 3484" d="M362.144,302.116l-16.8-7.207-8.176-8.673-20.426,3.294-5.42,9.293-17.544,16.313,20.555,92.939-.622,20.3s13.156,5.923,70.209-7.714c.684-.164-.748-.88-.748-.88Z" transform="translate(-202.828 -194.438)" fill="#8aa1c5"/>
    <path id="Path_3485" data-name="Path 3485" d="M309.382,268.115q-.214-.292-.424-.589c-.056.119-.1.242-.165.358Z" transform="translate(-207.348 -188.814)" fill="#2f2e41"/>
    <path id="Path_3486" data-name="Path 3486" d="M350.768,226.08a13.064,13.064,0,0,0-6.835-6.6,12.472,12.472,0,0,0-9.351.008,18.835,18.835,0,0,0-8.881-3.234,9.934,9.934,0,0,0-8.468,3.594,13.822,13.822,0,0,1-1.479,1.922c-1.569,1.453-3.953,1.243-6.039.946l2.807,2.4-3.4.887,3.964,2.4c-3.836,2.3-5.579,7.327-5.119,11.891.436,4.321,2.522,8.272,5.015,11.784.995-2.1.78-4.611.764-6.975-.017-2.5.425-5.335,2.427-6.731a8.011,8.011,0,0,1,4.715-.975,216.634,216.634,0,0,1,24.574,1.534,6.918,6.918,0,0,1,3.146.913c1.8,1.23,2.155,3.77,2.336,6a43.454,43.454,0,0,0,1.387-11.265,20.763,20.763,0,0,0-1.566-8.5Z" transform="translate(-207.071 -173.372)" fill="#2e2e2e"/>
    <circle id="Ellipse_246" data-name="Ellipse 246" cx="32.225" cy="32.225" r="32.225" transform="translate(117.848 227.724)" fill="#273a57"/>
    <path id="Path_3487" data-name="Path 3487" d="M364.165,479.674a33.11,33.11,0,0,0-4.944.372c-.842.122-1.658.28-2.467.473A32.924,32.924,0,0,0,342.8,537.664c.551.466,1.11.917,1.69,1.346a32.933,32.933,0,1,0,19.678-59.336Zm0,64.449a31.326,31.326,0,0,1-18.619-6.108c-.587-.43-1.153-.874-1.7-1.346a31.49,31.49,0,0,1,14.05-54.932c.8-.165,1.6-.294,2.42-.394a31.174,31.174,0,0,1,3.853-.236,31.508,31.508,0,0,1,0,63.017Z" transform="translate(-214.092 -252.667)" fill="#fff"/>
    <rect id="Rectangle_390" data-name="Rectangle 390" width="35.805" height="4.297" rx="2.148" transform="translate(167.976 253.502) rotate(180)" fill="#fff"/>
    <rect id="Rectangle_391" data-name="Rectangle 391" width="35.805" height="4.297" rx="2.148" transform="translate(167.976 262.096) rotate(180)" fill="#fff"/>
    <rect id="Rectangle_392" data-name="Rectangle 392" width="35.805" height="4.297" rx="2.148" transform="translate(167.976 270.69) rotate(180)" fill="#fff"/>
    <path id="Path_3488" data-name="Path 3488" d="M724.668,561.147h-9.206l-4.38-35.507H724.67Z" transform="translate(-214.042 -158.224)" fill="#9e616a"/>
    <path id="Path_3489" data-name="Path 3489" d="M662.357,561.147h-9.2l-4.38-35.507H662.36Z" transform="translate(-195.292 -158.224)" fill="#9e616a"/>
    <path id="Path_3490" data-name="Path 3490" d="M820.13,738.5H791.822v-.358a11.019,11.019,0,0,1,11.017-11.018h0l5.171-3.923,9.648,3.923h2.471Z" transform="translate(-352.741 -325.974)" fill="#0b2d61"/>
    <path id="Path_3491" data-name="Path 3491" d="M884.13,738.5H855.822v-.358a11.019,11.019,0,0,1,11.017-11.018h0l5.171-3.923,9.648,3.923h2.471Z" transform="translate(-372.006 -325.974)" fill="#0b2d61"/>
    <path id="Path_3492" data-name="Path 3492" d="M812.4,428.157l-13.991,85.189,3.807,12.695-5,8.991,7.337,78.959-2.978,6.557,8.321,5.132h16.932l.9-71.481,4.183-10.5v-5.784l8.515-43.588L842,555.372l2.477,10.512-2.081,7.484,2.718,5.243,7.221,48.625h18.987l-1.469-11.313h0a8.361,8.361,0,0,0,4.39-9.252l-1.089-4.958,2.478-14.661,4.512-81.792-1.272-66L856.66,422.28Z" transform="translate(-354.357 -235.378)" fill="#0b2d61"/>
    <circle id="Ellipse_219" data-name="Ellipse 219" cx="17.64" cy="17.64" r="17.64" transform="translate(472.471 48.078)" fill="#9e616a"/>
    <path id="Path_3493" data-name="Path 3493" d="M804.051,462.921a7.551,7.551,0,0,0-1.209-11.514l6.86-25.941-13.216,4.445L792,453.864a7.592,7.592,0,0,0,12.053,9.058Z" transform="translate(-352.485 -236.351)" fill="#9e616a"/>
    <path id="Path_1101" data-name="Path 1101" d="M811.282,300.606l-2.837-.589-2.419,1.34s-6.758,9.011-6.758,17.27-8.26,87.853-8.26,87.853l15.018,6.758,12.014-62.323Z" transform="translate(-352.496 -198.587)" fill="#e6e6e6"/>
    <path id="Path_1104" data-name="Path 1104" d="M871.3,224.582s4.614-8.82-5.537-9.622c0,0-8.653-7.85-17.473-1.435,0,0-4.811,0-7.442,5.444,0,0-3.784-1.435-4.615,2.405,0,0-2.769,8.018,0,15.235s3.688,8.018,3.688,8.018-4.55-15.13,6.525-15.932,23.466-7.722,24.389,1.1,2.312,10.993,2.312,10.993S881.909,228.19,871.3,224.582Z" transform="translate(-365.737 -171.797)" fill="#272727"/>
    <path id="Path_3494" data-name="Path 3494" d="M953.794,541.9a5.4,5.4,0,0,1-3.609-1.377L896.8,493a5.444,5.444,0,0,1-.446-7.677l34.2-38.419a5.444,5.444,0,0,1,7.678-.446l53.386,47.522a5.437,5.437,0,0,1,.446,7.677l-34.2,38.419a5.4,5.4,0,0,1-3.747,1.814C954.009,541.893,953.9,541.9,953.794,541.9Z" transform="translate(-383.788 -242.252)" fill="#273a57"/>
    <path id="Path_3495" data-name="Path 3495" d="M953.643,542.1a5.744,5.744,0,0,1-3.84-1.465l-53.385-47.521a5.8,5.8,0,0,1-.475-8.172l34.2-38.419a5.8,5.8,0,0,1,8.171-.475L991.7,493.566a5.788,5.788,0,0,1,.475,8.171l-34.2,38.419a5.752,5.752,0,0,1-3.987,1.93C953.871,542.092,953.758,542.1,953.643,542.1Zm-19.176-96.116a4.379,4.379,0,0,0-3.281,1.469l-34.2,38.419a4.394,4.394,0,0,0,.36,6.2l53.385,47.521a4.389,4.389,0,0,0,6.2-.36l34.2-38.419a4.39,4.39,0,0,0-.36-6.2l-53.386-47.522a4.372,4.372,0,0,0-2.916-1.11Z" transform="translate(-383.638 -242.102)" fill="#fff"/>
    <path id="Path_3496" data-name="Path 3496" d="M987.766,513.446a2.343,2.343,0,0,1-1.563-.595l-41.905-37.3a2.353,2.353,0,1,1,3.129-3.515l41.906,37.3a2.352,2.352,0,0,1-1.566,4.11Z" transform="translate(-398.398 -250.189)" fill="#fff" opacity="0.2"/>
    <path id="Path_3497" data-name="Path 3497" d="M976.325,526.293a2.343,2.343,0,0,1-1.563-.594l-41.905-37.3a2.353,2.353,0,0,1,3.129-3.514l41.906,37.3a2.352,2.352,0,0,1-1.566,4.109Z" transform="translate(-394.954 -254.056)" fill="#fff" opacity="0.2"/>
    <path id="Path_3498" data-name="Path 3498" d="M964.889,539.141a2.341,2.341,0,0,1-1.564-.6l-41.906-37.3a2.353,2.353,0,1,1,3.129-3.515l41.905,37.3a2.352,2.352,0,0,1-1.565,4.11Z" transform="translate(-391.511 -257.923)" fill="#fff" opacity="0.2"/>
    <path id="Path_3499" data-name="Path 3499" d="M914.976,465.029a7.551,7.551,0,0,1,4.131-10.816l.045-26.832,11.627,7.7-1.826,24.3a7.592,7.592,0,0,1-13.978,5.652Z" transform="translate(-389.52 -236.927)" fill="#9e616a"/>
    <path id="Path_1100" data-name="Path 1100" d="M914.662,309.224l5.194-5.007,3.816,2.754s3.754,4.505,6.758,18.021,0,87.853,0,87.853l-16.519-2.253,2.253-39.046-6.758-33.039Z" transform="translate(-388.131 -199.851)" fill="#e6e6e6"/>
    <path id="Path_3500" data-name="Path 3500" d="M894.84,297.546l-17.5-8.36-11.882-11.021L843.79,278,836.8,287.09l-18.452,6.268,3.075,63.626-2.1,4.893s1.461,1.32,2.128,2.058-.922,6.917-.922,6.917l-.9,6.722,2.486,1.776-3.232,3.818-.8,6.018s56.415-14.022,67.074,9.207c.563,1.227-.824-10.767-.824-10.767l-1.387-8.781,1.376-7.881,2.1-2.1-3.517-3.517,2.255-16.686Z" transform="translate(-360.639 -191.96)" fill="#0b2d61"/>
    <path id="Path_3501" data-name="Path 3501" d="M350.97,490.775a8.107,8.107,0,0,0-5.943-10.919l-3.888-28.547-11.272,9.853,5.42,25.6a8.151,8.151,0,0,0,15.683,4.014Z" transform="translate(-213.685 -244.129)" fill="#ffb8b8"/>
    <path id="Path_1101-2" data-name="Path 1101" d="M294.241,326.838l-3.055.585-1.847,2.325s-2.988,11.719.416,19.908,28.011,90.51,28.011,90.51l17.675.512-13.769-66.744Z" transform="translate(-201.126 -206.66)" fill="#8098be"/>
    <path id="Path_3502" data-name="Path 3502" d="M394.158,484.431a8.107,8.107,0,0,1,1.444-12.347l-7.037-27.938,14.133,4.94,4.515,25.773a8.151,8.151,0,0,1-13.055,9.572Z" transform="translate(-231.354 -241.973)" fill="#ffb8b8"/>
    <path id="Path_1101-3" data-name="Path 1101" d="M384.333,310.078l3.053-.6,2.581,1.469s7.142,9.76,7.037,18.628,7.756,94.427,7.756,94.427l-16.209,7.066-12.11-67.065Z" transform="translate(-227.704 -201.435)" fill="#8098be"/>
  </g>
</svg>
