<svg xmlns="http://www.w3.org/2000/svg" width="557.148" height="346.751" viewBox="0 0 557.148 346.751">
  <g id="website-redesign" transform="translate(-52.852 0)">
    <rect id="Rectangle_541" data-name="Rectangle 541" width="353.518" height="229.679" transform="translate(255.794 0.687)" fill="none"/>
    <path id="Path_4444" data-name="Path 4444" d="M883.476,428.579H528.583V197.526H883.475ZM529.958,427.2H882.1V198.9H529.957Z" transform="translate(-273.476 -197.526)" fill="#273a57"/>
    <path id="Path_4445" data-name="Path 4445" d="M750.963,231.221c10.384.177,10.382,15.623,0,15.8C740.579,246.842,740.581,231.4,750.963,231.221Z" transform="translate(-341.097 -209.07)" fill="#444"/>
    <path id="Path_4446" data-name="Path 4446" d="M783.3,231.221c10.384.177,10.382,15.623,0,15.8C772.915,246.842,772.917,231.4,783.3,231.221Z" transform="translate(-350.277 -208.07)" fill="#fb7878"/>
    <path id="Path_4447" data-name="Path 4447" d="M815.633,231.221c10.384.177,10.382,15.623,0,15.8C805.25,246.842,805.252,231.4,815.633,231.221Z" transform="translate(-360.457 -208.07)" fill="#cacaca"/>
    <rect id="Rectangle_542" data-name="Rectangle 542" width="70.703" height="0.857" transform="translate(317.534 83.636)" fill="#273a57"/>
    <path id="Path_4448" data-name="Path 4448" d="M911.557,458.742H814.286V367.9h97.271Zm-96.414-.857H910.7V368.756H815.143Z" transform="translate(-362.879 -250.84)" fill="#273a57"/>
    <rect id="Rectangle_543" data-name="Rectangle 543" width="0.857" height="131.883" transform="matrix(0.682, -0.731, 0.731, 0.682, 451.543, 117.804)" fill="#273a57"/>
    <rect id="Rectangle_544" data-name="Rectangle 544" width="131.883" height="0.857" transform="matrix(0.731, -0.682, 0.682, 0.731, 451.541, 207.161)" fill="#273a57"/>
    <path id="Path_4449" data-name="Path 4449" d="M850.082,294.569H617.831V278.714H850.082Zm-231.393-.857H849.224V279.571H618.688Z" transform="translate(-301.403 -222.932)" fill="#273a57"/>
    <path id="Path_4450" data-name="Path 4450" d="M704.048,396.569H618.831V380.714h85.217Zm-84.359-.857h83.5V381.571h-83.5Z" transform="translate(-301.067 -254.85)" fill="#273a57"/>
    <path id="Path_4451" data-name="Path 4451" d="M704.048,435.569H618.831V419.714h85.217Zm-84.359-.857h83.5V420.571h-83.5Z" transform="translate(-301.067 -267.054)" fill="#273a57"/>
    <path id="Path_4452" data-name="Path 4452" d="M704.048,474.569H618.831V458.714h85.217Zm-84.359-.857h83.5V459.571h-83.5Z" transform="translate(-301.067 -279.258)" fill="#273a57"/>
    <path id="Path_4453" data-name="Path 4453" d="M640.9,337.437H618.047c1.764-7.1,1.551-14.781,0-22.856H640.9A28.412,28.412,0,0,0,640.9,337.437Z" transform="translate(-300.715 -234.155)" fill="#fb7878"/>
    <rect id="Rectangle_545" data-name="Rectangle 545" width="13.852" height="2.77" transform="translate(320.8 85.274)" fill="#fff"/>
    <rect id="Rectangle_546" data-name="Rectangle 546" width="13.852" height="2.77" transform="translate(320.8 90.815)" fill="#fff"/>
    <rect id="Rectangle_547" data-name="Rectangle 547" width="13.852" height="2.77" transform="translate(320.8 96.356)" fill="#fff"/>
    <path id="Path_4454" data-name="Path 4454" d="M891.41,387.674H868.554c1.764-7.1,1.551-14.781,0-22.856H891.41A28.412,28.412,0,0,0,891.41,387.674Z" transform="translate(-379.861 -249.876)" fill="#fb7878"/>
    <rect id="Rectangle_548" data-name="Rectangle 548" width="13.852" height="2.77" transform="translate(492.156 119.79)" fill="#fff"/>
    <rect id="Rectangle_549" data-name="Rectangle 549" width="13.852" height="2.77" transform="translate(492.156 125.332)" fill="#fff"/>
    <rect id="Rectangle_550" data-name="Rectangle 550" width="13.852" height="2.77" transform="translate(492.156 130.872)" fill="#fff"/>
    <path id="Path_4455" data-name="Path 4455" d="M934.18,316.392H911.324c1.764-7.1,1.551-14.781,0-22.856H934.18A28.412,28.412,0,0,0,934.18,316.392Z" transform="translate(-393.245 -227.57)" fill="#fb7878"/>
    <rect id="Rectangle_551" data-name="Rectangle 551" width="13.852" height="2.77" transform="translate(521.542 70.814)" fill="#fff"/>
    <rect id="Rectangle_552" data-name="Rectangle 552" width="13.852" height="2.77" transform="translate(521.542 76.355)" fill="#fff"/>
    <rect id="Rectangle_553" data-name="Rectangle 553" width="13.852" height="2.77" transform="translate(521.542 81.896)" fill="#fff"/>
    <path id="Path_4456" data-name="Path 4456" d="M343.654,332.511H304.491V311.556a19.582,19.582,0,1,1,39.163,0Z" transform="translate(-202.001 -227.081)" fill="#373737"/>
    <path id="Path_4457" data-name="Path 4457" d="M232.042,477.994h8.423l4.008-32.49H232.041Z" transform="translate(-73.049 -139.409)" fill="#ffb6b6"/>
    <path id="Path_4458" data-name="Path 4458" d="M383.808,686.315H400.4a10.572,10.572,0,0,1,10.572,10.571v.344H383.809Z" transform="translate(-226.969 -350.48)" fill="#0b2d61"/>
    <path id="Path_4459" data-name="Path 4459" d="M85.489,463.545l7.335,4.141,19.463-26.323-10.826-6.112Z" transform="translate(-26.751 -136.201)" fill="#ffb6b6"/>
    <path id="Path_4460" data-name="Path 4460" d="M237.182,668.934l14.446,8.155h0a10.572,10.572,0,0,1,4.008,14.4l-.169.3-23.652-13.352Z" transform="translate(-178.964 -345.041)" fill="#0b2d61"/>
    <path id="Path_4461" data-name="Path 4461" d="M294.607,465.065l-.65,3.25s-1.95,1.95-.975,2.925.65,5.525.65,5.525c-.545,8.3-11.387,54.922-13.326,64.028,0,0-14.951,9.75-26.651,28.926s-12.026,24.051-12.026,24.051l13,5.525,32.5-39.327s9.1-5.525,12.351-10.4,23.4-55.253,23.4-55.253l11.376,52.653s-.65,19.176,2.275,31.527a132.276,132.276,0,0,1,3.25,23.726l15.276-1.625s-.975-46.152-2.6-51.028c0,0,6.825-56.228-6.825-78.654l-11-29.33-10.775-4.147Z" transform="translate(-182.034 -272.6)" fill="#0b2d61"/>
    <path id="Path_4462" data-name="Path 4462" d="M325.695,299.43c20.507.35,20.5,30.854,0,31.2C305.187,330.281,305.19,299.777,325.695,299.43Z" transform="translate(-203.831 -229.414)" fill="#ffb8b8"/>
    <path id="Path_4463" data-name="Path 4463" d="M341.249,312.523h-3.485l-.949-2.373.475,2.373H318.227l.62-4.965-4.634,4.965h-4.622v-2.691a15.829,15.829,0,1,1,31.658,0Z" transform="translate(-203.603 -227.716)" fill="#373737"/>
    <path id="Path_4464" data-name="Path 4464" d="M345.824,358.1l-38.754.314,8.191,83.076s45.319-2.392,45.347-16.225l-4.246-12.292Z" transform="translate(-202.821 -247.775)" fill="#273a57"/>
    <path id="Path_138" data-name="Path 138" d="M398.73,533.182,263.637,561.158c-1.381.282-2.975-1.775-3.562-4.6l-14.2-68.568c-.585-2.826.062-5.346,1.442-5.637l135.093-27.976c1.381-.282,2.975,1.775,3.562,4.6l14.2,68.567C400.756,530.371,400.108,532.893,398.73,533.182Z" transform="translate(-183.296 -277.893)" fill="#fff"/>
    <g id="Group_38" data-name="Group 38" transform="translate(99.187 208.859)">
      <circle id="Ellipse_7" data-name="Ellipse 7" cx="12.064" cy="12.064" r="12.064" transform="translate(1.524 1.688)" fill="#f0f0f0"/>
      <path id="Path_63" data-name="Path 63" d="M357.883,543.992l-57.952,12a1.218,1.218,0,0,1-.22.027L317.29,502.87a1.959,1.959,0,0,1,3.341-.692l24.992,28.05,1.2,1.342Z" transform="translate(-299.711 -501.508)" fill="#e4e4e4"/>
      <path id="Path_65" data-name="Path 65" d="M408.509,540.253l-50.124,10.38,6.791-16.119.488-1.161,8.849-21.007a2.615,2.615,0,0,1,3.757-1.015,2.331,2.331,0,0,1,.229.189Z" transform="translate(-318.072 -504.451)" fill="#e4e4e4"/>
    </g>
    <path id="Path_138-2" data-name="Path 138" d="M398.73,533.182,263.637,561.158c-1.381.282-2.975-1.775-3.562-4.6l-14.2-68.568c-.585-2.826.062-5.346,1.442-5.637l135.093-27.976c1.381-.282,2.975,1.775,3.562,4.6l14.2,68.567C400.756,530.371,400.108,532.893,398.73,533.182ZM247.741,484.4c-.829.172-1.215,1.687-.865,3.382l14.2,68.567c.351,1.7,1.308,2.93,2.137,2.76l135.093-27.976c.829-.172,1.215-1.686.865-3.382l-14.2-68.567c-.351-1.7-1.308-2.93-2.137-2.76Z" transform="translate(-183.296 -277.893)" fill="#cacaca"/>
    <path id="Path_4465" data-name="Path 4465" d="M405.549,463.68a6.443,6.443,0,0,1-2.524-9.551l-7.848-12.457,6.407-6.615L412.42,452.8a6.478,6.478,0,0,1-6.871,10.877Z" transform="translate(-230.543 -271.855)" fill="#ffb6b6"/>
    <path id="Path_4466" data-name="Path 4466" d="M354.808,361.179l5.622-3.7s4.339.973,8.953,9.849,23.224,48.557,23.224,48.557l-7.649,7.766-20.406-31.131Z" transform="translate(-217.845 -247.577)" fill="#273a57"/>
    <path id="Path_4467" data-name="Path 4467" d="M299.408,478.629a6.443,6.443,0,0,0-1.859-9.7l1.684-14.626-8.639-3.191L288.507,471.8a6.478,6.478,0,0,0,10.9,6.832Z" transform="translate(-196.509 -276.878)" fill="#ffb6b6"/>
    <path id="Path_4468" data-name="Path 4468" d="M305.729,365.707l-5.1-7.127s-3.489-.774-7.612,4.035-6.527,64.929-6.527,64.929l15.116,3.435,8.932-42.6Z" transform="translate(-196.073 -247.909)" fill="#273a57"/>
    <path id="Path_4470" data-name="Path 4470" d="M279.4,511.344l-22.357,4.747c.251-7.312-1.552-14.781-4.747-22.357l22.357-4.747A28.412,28.412,0,0,0,279.4,511.344Z" transform="translate(-185.373 -288.731)" fill="#0b2d61"/>
    <rect id="Rectangle_554" data-name="Rectangle 554" width="13.852" height="2.77" transform="translate(71.318 209.024) rotate(-11.987)" fill="#fff"/>
    <rect id="Rectangle_555" data-name="Rectangle 555" width="13.852" height="2.77" transform="translate(72.469 214.444) rotate(-11.987)" fill="#fff"/>
    <rect id="Rectangle_556" data-name="Rectangle 556" width="13.852" height="2.77" transform="translate(73.62 219.864) rotate(-11.987)" fill="#fff"/>
  </g>
</svg>
