<svg xmlns="http://www.w3.org/2000/svg" width="610" height="374.44" viewBox="0 0 610 374.44">
  <g id="hubspot" transform="translate(0 0)">
    <path id="Path_5195" data-name="Path 5195" d="M775.725,440.745a7.576,7.576,0,0,1,11.173,3.182l17.308-.457,2.843,10.451-24.451.3a7.618,7.618,0,0,1-6.873-13.478Z" transform="translate(-316.897 -260.366)" fill="#ffb8b8"/>
    <path id="Path_5196" data-name="Path 5196" d="M799.951,446.513a5.8,5.8,0,0,1-1.833-3.855l-.692-10.388a5.779,5.779,0,0,1,2.25-4.977l27.9-21.438,16.22-19.689a10.155,10.155,0,0,1,13.784-1.758h0a10.14,10.14,0,0,1,2.158,14.284l-18.893,25.223L827.4,438.16a29.254,29.254,0,0,1-15.988,8.647l-6.49,1.165a5.8,5.8,0,0,1-4.589-1.137Q800.132,446.683,799.951,446.513Z" transform="translate(-321.806 -249.41)" fill="#0b2d61"/>
    <path id="Path_5197" data-name="Path 5197" d="M745.389,437.148l-8.961,2.238-12.9-33.5,13.227-3.3Z" transform="translate(-139.386 -77.583)" fill="#ffb8b8"/>
    <path id="Path_5198" data-name="Path 5198" d="M11.217,0H29.031V11.217H0A11.217,11.217,0,0,1,11.217,0Z" transform="translate(579.116 363.555) rotate(-14.022)" fill="#8aa1c5"/>
    <path id="Path_5199" data-name="Path 5199" d="M647.24,444.691H638l-4.392-35.629h13.632Z" transform="translate(-122.121 -78.827)" fill="#ffb8b8"/>
    <path id="Path_5200" data-name="Path 5200" d="M628.216,449.89H646.03v11.217H617a11.216,11.216,0,0,1,11.217-11.217Z" transform="translate(-118.931 -86.666)" fill="#8aa1c5"/>
    <circle id="Ellipse_560" data-name="Ellipse 560" cx="19.845" cy="19.845" r="19.845" transform="translate(501.27 69.232)" fill="#ffb8b8"/>
    <path id="Path_5201" data-name="Path 5201" d="M847.215,321.218c.037-2.654,4.6-2.987,6.028-.725s.51,5.214-.744,7.57c-1.305,2.452-3,4.929-2.737,7.714a4.2,4.2,0,0,0,6.434,3c6.482-3.991,11.954-9.8,14.376-16.881,2.546-7.447,1.274-16.324-4.233-22.045s-15.381-7.34-21.918-2.766l-11.158-7.6a1.557,1.557,0,0,0-2.4,1.693l1.632,5.3-5.635-1.418a1.239,1.239,0,0,0-1.383,1.848l1.935,3.006c-2.58-2.123-7.038.3-7.408,3.57s2.291,6.292,5.42,7.525,6.624,1.093,9.994.933a7.937,7.937,0,0,0,3.682,8.545A10.643,10.643,0,0,0,847.215,321.218Z" transform="translate(-326.138 -231.429)" fill="#2f2e41"/>
    <path id="Path_5202" data-name="Path 5202" d="M854.755,620.02l-.115,0-14.268-.445a3.636,3.636,0,0,1-3.517-3.832l7.136-131.029,54.83,15.549L934.775,612.4a3.636,3.636,0,0,1-3.366,4.745l-16.433.436a3.67,3.67,0,0,1-3.473-2.285l-36.983-92.51a1.212,1.212,0,0,0-2.324.273L858.35,616.914a3.636,3.636,0,0,1-3.595,3.106Z" transform="translate(-329.379 -269.201)" fill="#8aa1c5"/>
    <path id="Path_5203" data-name="Path 5203" d="M897.279,492.673a18.487,18.487,0,0,1-10.842-3.523l-17.643-12.736a29.776,29.776,0,0,0-13.076-5.3l-8.489-1.238a5.3,5.3,0,0,1-4.546-5.485l3.383-81-2.008-11.547a4.994,4.994,0,0,1,2.1-4.965l15.725-10.759a6.578,6.578,0,0,1,4.226-1.127l.575.045a7.7,7.7,0,0,1,6.87,5.814l.6,2.412,10.462,18.6a69.026,69.026,0,0,1,6.907,17.518l9.917,40.755a73.509,73.509,0,0,1,1.785,10.785l3.285,36.65a3.676,3.676,0,0,1-2.31,3.764,18.607,18.607,0,0,1-6.917,1.339Z" transform="translate(-330.498 -244.14)" fill="#0b2d61"/>
    <path id="Path_5204" data-name="Path 5204" d="M869.487,483.087a7.576,7.576,0,0,1,7.282-9.052l6.318-16.12,10.732,1.45L884.578,482a7.618,7.618,0,0,1-15.09,1.083Z" transform="translate(-335.618 -263.933)" fill="#ffb8b8"/>
    <path id="Path_5205" data-name="Path 5205" d="M888.493,456.282a5.8,5.8,0,0,1-4.265.188l-9.838-3.407a5.779,5.779,0,0,1-3.708-4.01L861.8,415,849.982,392.4a10.155,10.155,0,0,1,3.748-13.381h0a10.14,10.14,0,0,1,14,3.574L883.6,409.814l7.883,17.936a29.255,29.255,0,0,1,1.739,18.093l-1.453,6.431a5.8,5.8,0,0,1-2.834,3.784Q888.72,456.181,888.493,456.282Z" transform="translate(-331.679 -248.467)" fill="#0b2d61"/>
    <path id="Path_5206" data-name="Path 5206" d="M660.906,496.654H222.7a13.347,13.347,0,0,1-13.332-13.332V236.239h464.87V483.322A13.347,13.347,0,0,1,660.906,496.654Z" transform="translate(-208.435 -221.209)" fill="#273a57"/>
    <path id="Path_5207" data-name="Path 5207" d="M649.147,477.2H245.818a6.876,6.876,0,0,1-6.868-6.868V274.689a6.876,6.876,0,0,1,6.868-6.868H649.147a6.876,6.876,0,0,1,6.868,6.868V470.331a6.876,6.876,0,0,1-6.868,6.868Z" transform="translate(-214.115 -227.273)" fill="#0b2d61"/>
    <path id="Path_5208" data-name="Path 5208" d="M674.948,241.673H208.213v-10.7a13.347,13.347,0,0,1,13.332-13.332H661.616a13.347,13.347,0,0,1,13.332,13.332Z" transform="translate(-208.213 -217.637)" fill="#fff"/>
    <path id="Path_5209" data-name="Path 5209" d="M355.771,315.343h-71.79a6.873,6.873,0,0,0-6.868,6.868V369.4a6.873,6.873,0,0,0,6.868,6.868h71.79a6.878,6.878,0,0,0,6.868-6.868V322.211a6.878,6.878,0,0,0-6.868-6.868Z" transform="translate(-221.442 -236.469)" fill="#8aa1c5"/>
    <path id="Path_5210" data-name="Path 5210" d="M522.771,315.343h-71.79a6.873,6.873,0,0,0-6.868,6.868V369.4a6.872,6.872,0,0,0,6.868,6.868h71.79a6.877,6.877,0,0,0,6.868-6.868V322.211a6.878,6.878,0,0,0-6.868-6.868Z" transform="translate(-253.676 -236.469)" fill="#8aa1c5"/>
    <path id="Path_5211" data-name="Path 5211" d="M689.771,315.343h-71.79a6.872,6.872,0,0,0-6.868,6.868V369.4a6.873,6.873,0,0,0,6.868,6.868h71.79a6.878,6.878,0,0,0,6.868-6.868V322.211a6.878,6.878,0,0,0-6.868-6.868Z" transform="translate(-285.86 -236.469)" fill="#8aa1c5"/>
    <path id="Path_5212" data-name="Path 5212" d="M348.753,418.343H297.276a3.818,3.818,0,1,0,0,7.636h51.477a3.818,3.818,0,1,0,0-7.636Z" transform="translate(-224.581 -256.3)" fill="#e4efff"/>
    <path id="Path_5213" data-name="Path 5213" d="M348.752,444.163H297.275a3.815,3.815,0,0,0-1.568,7.3,3.767,3.767,0,0,0,1.568.339h51.477a3.818,3.818,0,1,0,0-7.636Z" transform="translate(-224.58 -261.273)" fill="#e4efff"/>
    <path id="Path_5214" data-name="Path 5214" d="M348.753,469.983H297.276a3.818,3.818,0,1,0,0,7.636h51.477a3.818,3.818,0,1,0,0-7.636Z" transform="translate(-224.581 -266.247)" fill="#e4efff"/>
    <path id="Path_5215" data-name="Path 5215" d="M515.753,418.343H464.276a3.818,3.818,0,0,0,0,7.636h51.477a3.818,3.818,0,1,0,0-7.636Z" transform="translate(-256.817 -256.3)" fill="#e4efff"/>
    <path id="Path_5216" data-name="Path 5216" d="M515.753,444.163H464.276a3.818,3.818,0,0,0,0,7.636h51.477a3.818,3.818,0,1,0,0-7.636Z" transform="translate(-256.817 -261.273)" fill="#e4efff"/>
    <path id="Path_5217" data-name="Path 5217" d="M515.752,469.983H464.275a3.817,3.817,0,0,0-1.2,7.442,3.721,3.721,0,0,0,1.2.194h51.477a3.818,3.818,0,1,0,0-7.635Z" transform="translate(-256.816 -266.247)" fill="#e4efff"/>
    <path id="Path_5218" data-name="Path 5218" d="M682.753,418.343H631.276a3.818,3.818,0,1,0,0,7.636h51.477a3.818,3.818,0,1,0,0-7.636Z" transform="translate(-288.996 -256.3)" fill="#e4efff"/>
    <path id="Path_5219" data-name="Path 5219" d="M682.752,444.163H631.275a3.815,3.815,0,0,0-1.568,7.3,3.767,3.767,0,0,0,1.568.339h51.477a3.818,3.818,0,1,0,0-7.636Z" transform="translate(-288.994 -261.273)" fill="#e4efff"/>
    <path id="Path_5220" data-name="Path 5220" d="M682.753,469.983H631.276a3.818,3.818,0,1,0,0,7.636h51.477a3.818,3.818,0,1,0,0-7.636Z" transform="translate(-288.996 -266.247)" fill="#e4efff"/>
    <circle id="Ellipse_561" data-name="Ellipse 561" cx="3.461" cy="3.461" r="3.461" transform="translate(11.831 8.698)" fill="#0b2d61"/>
    <circle id="Ellipse_562" data-name="Ellipse 562" cx="3.461" cy="3.461" r="3.461" transform="translate(24.968 8.698)" fill="#0b2d61"/>
    <circle id="Ellipse_563" data-name="Ellipse 563" cx="3.461" cy="3.461" r="3.461" transform="translate(38.105 8.698)" fill="#0b2d61"/>
    <path id="Path_5221" data-name="Path 5221" d="M334.1,418.343H297.276a3.818,3.818,0,1,0,0,7.636h36.061a4.346,4.346,0,0,0,.767-7.636Z" transform="translate(-224.581 -256.3)" fill="#8aa1c5"/>
    <path id="Path_5222" data-name="Path 5222" d="M317.095,444.163h-19.82a3.815,3.815,0,0,0-1.568,7.3h18.2a4.348,4.348,0,0,0,4.347-4.347A4.258,4.258,0,0,0,317.095,444.163Z" transform="translate(-224.58 -261.273)" fill="#8aa1c5"/>
    <path id="Path_5223" data-name="Path 5223" d="M344.907,469.983H297.276a3.818,3.818,0,1,0,0,7.636h47.938a4.337,4.337,0,0,0-.307-7.636Z" transform="translate(-224.581 -266.247)" fill="#8aa1c5"/>
    <path id="Path_5224" data-name="Path 5224" d="M643.952,418.343H631.275a3.818,3.818,0,0,0-1.867,7.151h11.231a4.348,4.348,0,0,0,4.347-4.347A4.278,4.278,0,0,0,643.952,418.343Z" transform="translate(-288.975 -256.299)" fill="#8aa1c5"/>
    <path id="Path_5225" data-name="Path 5225" d="M653.519,444.163H631.275a3.815,3.815,0,0,0-1.568,7.3h20.628a4.348,4.348,0,0,0,4.347-4.347A4.259,4.259,0,0,0,653.519,444.163Z" transform="translate(-288.979 -261.273)" fill="#8aa1c5"/>
    <path id="Path_5226" data-name="Path 5226" d="M669.211,469.983H631.276a3.818,3.818,0,1,0,0,7.636h38.242a4.337,4.337,0,0,0-.307-7.636Z" transform="translate(-288.988 -266.247)" fill="#8aa1c5"/>
    <path id="Path_5227" data-name="Path 5227" d="M512.174,444.163h-47.9a3.818,3.818,0,0,0,0,7.636h47.679a4.337,4.337,0,0,0,.218-7.636Z" transform="translate(-256.815 -261.273)" fill="#8aa1c5"/>
    <path id="Path_5228" data-name="Path 5228" d="M469.413,469.983h-5.139a3.817,3.817,0,0,0-1.2,7.442h3.3a4.348,4.348,0,0,0,4.347-4.347,4.294,4.294,0,0,0-1.3-3.095Z" transform="translate(-256.802 -266.247)" fill="#8aa1c5"/>
    <path id="Path_5229" data-name="Path 5229" d="M492.216,418.343h-27.94a3.818,3.818,0,0,0,0,7.636h27.173a4.346,4.346,0,0,0,.767-7.636Z" transform="translate(-256.81 -256.3)" fill="#8aa1c5"/>
  </g>
</svg>
