<svg xmlns="http://www.w3.org/2000/svg" width="572.483" height="386.96" viewBox="0 0 572.483 386.96">
  <g id="work" transform="translate(-37.518 0.011)">
    <path id="Path_3411" data-name="Path 3411" d="M947.715,278.625a81.327,81.327,0,0,1-54.457,76.76c-.506.176-1.02.353-1.533.514V273.287H785.291c.031-.514.069-1.028.115-1.534H891.725V255.615a3.836,3.836,0,0,0-3.835-3.835H789.655c.176-.514.361-1.028.56-1.534a81.308,81.308,0,0,1,157.5,28.378Z" transform="translate(-337.715 -197.327)" fill="#273a57"/>
    <path id="Path_3412" data-name="Path 3412" d="M803.951,266.327H430.43a5.375,5.375,0,0,0-5.369,5.369V524.8a5.375,5.375,0,0,0,5.369,5.369H803.951a5.375,5.375,0,0,0,5.369-5.369V271.7a5.375,5.375,0,0,0-5.369-5.369ZM807.786,524.8a3.836,3.836,0,0,1-3.835,3.835H430.43a3.836,3.836,0,0,1-3.835-3.835V271.7a3.836,3.836,0,0,1,3.835-3.835H803.951a3.837,3.837,0,0,1,3.835,3.835Z" transform="translate(-253.776 -213.408)" fill="#fff"/>
    <rect id="Rectangle_389" data-name="Rectangle 389" width="382.725" height="1.534" transform="translate(172.052 74.425)" fill="#fff"/>
    <circle id="Ellipse_238" data-name="Ellipse 238" cx="4.602" cy="4.602" r="4.602" transform="translate(179.844 59.822)" fill="#fff"/>
    <circle id="Ellipse_239" data-name="Ellipse 239" cx="4.602" cy="4.602" r="4.602" transform="translate(193.094 59.822)" fill="#fff"/>
    <circle id="Ellipse_240" data-name="Ellipse 240" cx="4.602" cy="4.602" r="4.602" transform="translate(206.345 59.822)" fill="#fff"/>
    <path id="Path_3413" data-name="Path 3413" d="M539.924,335.327H472.43a5.375,5.375,0,0,0-5.369,5.369v67.495a5.375,5.375,0,0,0,5.369,5.369h67.495a5.375,5.375,0,0,0,5.369-5.369V340.7A5.375,5.375,0,0,0,539.924,335.327Zm3.835,72.863a3.836,3.836,0,0,1-3.835,3.835H472.43a3.836,3.836,0,0,1-3.835-3.835V340.7a3.837,3.837,0,0,1,3.835-3.835h67.495a3.837,3.837,0,0,1,3.835,3.835Z" transform="translate(-264.132 -229.286)" fill="#fff"/>
    <path id="Path_3414" data-name="Path 3414" d="M698.041,335.827H630.546a5,5,0,0,0-4.985,4.985v67.495a5,5,0,0,0,4.985,4.985h67.495a5,5,0,0,0,4.985-4.985V340.812a5,5,0,0,0-4.985-4.985Z" transform="translate(-300.855 -229.402)" fill="#fff"/>
    <path id="Path_3415" data-name="Path 3415" d="M856.041,335.827H788.546a5,5,0,0,0-4.985,4.985v67.495a5,5,0,0,0,4.985,4.985h67.495a5,5,0,0,0,4.985-4.985V340.812a5,5,0,0,0-4.985-4.985Z" transform="translate(-337.312 -229.402)" fill="#273a57"/>
    <path id="Path_3416" data-name="Path 3416" d="M540.041,467.827H472.546a5,5,0,0,0-4.985,4.985v67.495a5,5,0,0,0,4.985,4.985h67.495a5,5,0,0,0,4.985-4.985V472.812A5,5,0,0,0,540.041,467.827Z" transform="translate(-264.248 -259.969)" fill="#273a57"/>
    <path id="Path_3417" data-name="Path 3417" d="M698.041,467.827H630.546a5,5,0,0,0-4.985,4.985v67.495a5,5,0,0,0,4.985,4.985h67.495a5,5,0,0,0,4.985-4.985V472.812A5,5,0,0,0,698.041,467.827Z" transform="translate(-300.855 -259.969)" fill="#fff"/>
    <path id="Path_3418" data-name="Path 3418" d="M856.041,467.827H788.546a5,5,0,0,0-4.985,4.985v67.495a5,5,0,0,0,4.985,4.985h67.495a5,5,0,0,0,4.985-4.985V472.812a5,5,0,0,0-4.985-4.985Z" transform="translate(-337.312 -259.969)" fill="#273a57"/>
    <path id="Path_3419" data-name="Path 3419" d="M518.541,458.792H451.046a4.991,4.991,0,0,1-4.985-4.985V386.312a4.991,4.991,0,0,1,4.985-4.985h67.495a4.991,4.991,0,0,1,4.985,4.985v67.495a4.991,4.991,0,0,1-4.985,4.985Z" transform="translate(-259.267 -239.938)" fill="#fff"/>
    <path id="Path_3420" data-name="Path 3420" d="M199.513,480.317l8.989-2.759-6.363-35.985-13.267,4.071Z" transform="translate(-43.784 -102.31)" fill="#a0616a"/>
    <path id="Path_3421" data-name="Path 3421" d="M0,0H29.552V11.418H11.418A11.418,11.418,0,0,1,0,0Z" transform="translate(184.634 378.278) rotate(162.939)" fill="#8aa1c5"/>
    <path id="Path_3422" data-name="Path 3422" d="M102.748,481.339h9.4l4.473-36.269H102.746Z" transform="translate(-23.941 -103.125)" fill="#a0616a"/>
    <path id="Path_3423" data-name="Path 3423" d="M0,0H29.552V11.418H11.418A11.418,11.418,0,0,1,0,0Z" transform="translate(106.342 386.945) rotate(179.997)" fill="#8aa1c5"/>
    <path id="Path_3424" data-name="Path 3424" d="M304.079,521.444a7.027,7.027,0,0,1,.244-10.773l7.291-91.8,14.826,3.7-11.871,89.552a7.065,7.065,0,0,1-10.49,9.32Z" transform="translate(-225.948 -248.601)" fill="#a0616a"/>
    <circle id="Ellipse_241" data-name="Ellipse 241" cx="18.838" cy="18.838" r="18.838" transform="translate(88.984 96.795)" fill="#a0616a"/>
    <path id="Path_3425" data-name="Path 3425" d="M321.186,407.284a15.941,15.941,0,0,1,.2-19.454c2.988-3.643,7.986-6.557,16.331-6.557,22.243,0,30.679,17.641,30.679,17.641s9.2,16.874,3.835,32.213S366.86,448,366.86,448l-35.281-3.068S337.53,429.722,321.186,407.284Z" transform="translate(-229.744 -239.934)" fill="#ccc"/>
    <path id="Path_3426" data-name="Path 3426" d="M307.977,424.984l7.6-24.866a11.89,11.89,0,0,1,16.82-7.091h0a11.911,11.911,0,0,1,5.436,15.347l-9.663,22.006Z" transform="translate(-227.415 -242.373)" fill="#ccc"/>
    <path id="Path_3427" data-name="Path 3427" d="M362.318,463.272,392.23,618.2l-16.107,4.6L337.007,520.8l-17.641,104.31-16.874,2.3s-7.4-138.015,25.31-163.368Z" transform="translate(-225.969 -258.713)" fill="#8aa1c5"/>
    <path id="Path_3428" data-name="Path 3428" d="M418.994,447.894a8.078,8.078,0,0,0-.738,1.035l-37.993,1.842-7.316-22.334-12.7,6.037L372.2,467.739l46.987-9.189a8.05,8.05,0,1,0-.193-10.656Z" transform="translate(-239.386 -250.884)" fill="#a0616a"/>
    <path id="Path_3429" data-name="Path 3429" d="M353.289,403.143a11.889,11.889,0,0,1,12.55-13.255h0a11.911,11.911,0,0,1,11.148,11.867v24.033l-20.66,3.179Z" transform="translate(-237.773 -241.946)" fill="#ccc"/>
    <path id="Path_3430" data-name="Path 3430" d="M340.464,359.611c-2.827-.012-5.009-2.989-4.882-5.814s2.024-5.31,4.309-6.974a46.732,46.732,0,0,1,7.515-3.9c2.549-1.224,5.075-2.75,6.649-5.1a11.287,11.287,0,0,0,.785-10.358,16.619,16.619,0,0,0-7.158-7.842,21.765,21.765,0,0,0-28.844,6.328l-3.228,8.788a14.37,14.37,0,0,0-1.789,14.557,18.8,18.8,0,0,0,11.183,9.98,27.453,27.453,0,0,0,15.218.456" transform="translate(-228.499 -224.975)" fill="#202020"/>
    <path id="Path_3431" data-name="Path 3431" d="M309.086,332.84a11.5,11.5,0,0,0-6.278-4.468,19.73,19.73,0,0,0-25.949,17.643c-.264,4.843,1.253,9.579,2.144,14.347s1.068,10.033-1.56,14.109c-2,3.1-5.341,5.059-8.637,6.728-2.747,1.391-5.718,2.7-8.784,2.419s-6.148-2.706-6.067-5.784A24.586,24.586,0,0,0,251.9,384.8a8.3,8.3,0,0,0,2.129,6.72c2.541,2.453,6.567,2.274,10.06,1.744,7.56-1.146,15.216-3.295,21.188-8.069s9.936-12.636,8.363-20.119c-.657-3.126-2.2-5.979-3.449-8.92s-2.222-6.157-1.649-9.3a11.3,11.3,0,0,1,5.747-7.656,15.033,15.033,0,0,1,9.6-1.456c2.147.352,4.827.9,6.1-.865a3.457,3.457,0,0,0-.072-3.688,10.161,10.161,0,0,0-2.755-2.73" transform="translate(-214.337 -227.447)" fill="#202020"/>
  </g>
</svg>
