<svg xmlns="http://www.w3.org/2000/svg" width="610" height="489.974" viewBox="0 0 610 489.974">
  <g id="faq" transform="translate(-49.269)">
    <circle id="Ellipse_247" data-name="Ellipse 247" cx="37.987" cy="37.987" r="37.987" transform="translate(310.626 413.637)" fill="#01183a"/>
    <path id="Path_3503" data-name="Path 3503" d="M781.178,648.02c21.2-6.369,43.735-13.011,60.547-28.153,15.023-13.531,25.165-34.192,18.942-54.484-6.211-20.251-24.814-33.753-44.022-40.469-10.894-3.809-22.291-5.922-33.684-7.582-12.385-1.8-24.824-3.283-37.258-4.706q-75.517-8.641-151.6-10.558c-25.029-.631-50.053-.615-75.085-.252-22.356.325-45.9.317-66.639-9.189-16.127-7.392-30.765-20.841-35.258-38.514-5.187-20.4,4.381-41.177,18.106-55.952,7.235-7.788,15.69-14.343,24.412-20.37,9.463-6.539,19.255-12.614,29.26-18.286A407.362,407.362,0,0,1,550.483,331.1c10.5-3.82,21.154-7.115,31.9-10.155a272.855,272.855,0,0,0,26.949-8.635c16.955-6.761,33.082-18.213,37.393-36.988,4.086-17.794-2.8-37.111-14.881-50.33-13.973-15.293-35.041-22-55.239-23.082-22.676-1.218-44.83,4.46-66.143,11.666-22.732,7.686-44.975,16.523-68.187,22.749A458.578,458.578,0,0,1,372.1,249.373c-11.6,1.236-23.551,2.631-35.22,1.685-9.78-.793-19.51-3.67-26.717-10.614-6.18-5.954-9.862-14.137-8.6-22.773.23-1.568,2.611-.9,2.383.657-1.541,10.512,5.6,20.2,14.4,25.16,10.172,5.735,22.549,5.742,33.873,5.087a442.824,442.824,0,0,0,72.912-10.545c23.553-5.382,46.264-13.076,68.95-21.295,21.545-7.806,43.573-15.424,66.591-17.115,19.972-1.467,40.982,1.444,58.381,11.887a64.615,64.615,0,0,1,30.119,42.046c3.5,17.162-1.348,34.436-14.333,46.413-13.445,12.4-31.879,17.7-49.059,22.584-21.79,6.193-43.112,13.432-63.751,22.831a400.138,400.138,0,0,0-59.968,33.73c-18.325,12.529-36.41,28.293-42.205,50.644a46.675,46.675,0,0,0,2.316,31.288,57.169,57.169,0,0,0,18.338,21.772c18.386,13.536,41.559,16.315,63.768,16.591,24.944.311,49.888-.532,74.84-.122q76.277,1.253,152.241,9.29,19.035,2.016,38.021,4.456c11.385,1.464,22.809,2.918,34,5.517,19.9,4.622,39.27,13.509,51.641,30.392a48.079,48.079,0,0,1,4.091,52.552c-9.5,18.7-27.293,30.594-46.19,38.408-10.121,4.186-20.619,7.356-31.1,10.5a1.237,1.237,0,0,1-.657-2.384Z" transform="translate(-206.089 -160.538)" fill="#f2f2f2"/>
    <circle id="Ellipse_248" data-name="Ellipse 248" cx="19.819" cy="19.819" r="19.819" transform="translate(77.257 37.574)" fill="#f2f2f2"/>
    <circle id="Ellipse_249" data-name="Ellipse 249" cx="19.819" cy="19.819" r="19.819" transform="translate(214.235 74.996)" fill="#f2f2f2"/>
    <circle id="Ellipse_250" data-name="Ellipse 250" cx="19.819" cy="19.819" r="19.819" transform="translate(330.444)" fill="#f2f2f2"/>
    <circle id="Ellipse_251" data-name="Ellipse 251" cx="19.819" cy="19.819" r="19.819" transform="translate(402.973 84.061)" fill="#f2f2f2"/>
    <circle id="Ellipse_252" data-name="Ellipse 252" cx="19.819" cy="19.819" r="19.819" transform="translate(304.895 181.309)" fill="#f2f2f2"/>
    <circle id="Ellipse_253" data-name="Ellipse 253" cx="19.819" cy="19.819" r="19.819" transform="translate(180.443 228.284)" fill="#f2f2f2"/>
    <circle id="Ellipse_254" data-name="Ellipse 254" cx="19.819" cy="19.819" r="19.819" transform="translate(312.312 301.632)" fill="#f2f2f2"/>
    <circle id="Ellipse_255" data-name="Ellipse 255" cx="19.819" cy="19.819" r="19.819" transform="translate(454.072 342.839)" fill="#f2f2f2"/>
    <circle id="Ellipse_256" data-name="Ellipse 256" cx="19.819" cy="19.819" r="19.819" transform="translate(619.63 333.773)" fill="#f2f2f2"/>
    <path id="Path_3504" data-name="Path 3504" d="M581.172,220.372c-59.369.419-107.98,48.665-108.823,108.029-.008.548-.011,4.4-.011,9.443A27.869,27.869,0,0,0,500.2,365.712h0a27.885,27.885,0,0,0,27.88-27.9c0-3.435,0-5.808,0-5.954a52.852,52.852,0,1,1,81.359,44.494l.01.012s-39.662,25.534-51.754,60.561l.01,0a77.635,77.635,0,0,0-3.2,22.105c0,3.076.181,29.995.531,51.843a28.727,28.727,0,0,0,28.73,28.261h0A28.735,28.735,0,0,0,612.5,510.22c-.121-20.009-.187-43.307-.187-45,0-21.508,20.749-42.938,37.792-56.913a114.626,114.626,0,0,0,39.422-62.761A71.659,71.659,0,0,0,691.591,330,109.627,109.627,0,0,0,581.172,220.372Z" transform="translate(-236.63 -164.214)" fill="#01183a"/>
    <circle id="Ellipse_257" data-name="Ellipse 257" cx="24.774" cy="24.774" r="24.774" transform="translate(486.247 175.529)" fill="#1a1a1a"/>
    <path id="Path_3506" data-name="Path 3506" d="M569.861,573.892H559.737l-4.817-39.051h14.943Z" transform="translate(-104.502 -94.084)" fill="#a0616a"/>
    <path id="Path_3507" data-name="Path 3507" d="M549.4,578.626h19.525V590.92H537.109A12.294,12.294,0,0,1,549.4,578.626Z" transform="translate(-101.393 -101.71)" fill="#273a57"/>
    <path id="Path_3508" data-name="Path 3508" d="M664.861,573.892H654.737l-4.817-39.051h14.943Z" transform="translate(-121.199 -94.084)" fill="#a0616a"/>
    <path id="Path_3509" data-name="Path 3509" d="M644.4,578.626h19.525V590.92H632.109A12.294,12.294,0,0,1,644.4,578.626Z" transform="translate(-118.094 -101.71)" fill="#273a57"/>
    <circle id="Ellipse_258" data-name="Ellipse 258" cx="20.283" cy="20.283" r="20.283" transform="translate(486.985 184.645)" fill="#a0616a"/>
    <path id="Path_3510" data-name="Path 3510" d="M800.895,492.566l9.075-20.852a25.916,25.916,0,0,0-5.739-29.4,26.32,26.32,0,0,0-2.535-2.2,25.547,25.547,0,0,0-15.682-5.426,26.573,26.573,0,0,0-11.066,2.461c-.3.132-.586.272-.884.413-.57.272-1.131.57-1.676.875a26.16,26.16,0,0,0-12.965,19.72l-4.005,33.561c-1.007,2.634-36.947,97.768-24.378,170.4a3.689,3.689,0,0,0,3.154,3.031l12.742,1.734a3.713,3.713,0,0,0,4.137-2.915l21.38-101.913a2.893,2.893,0,0,1,5.615-.19l30.208,107.174a3.692,3.692,0,0,0,3.559,2.709,4.227,4.227,0,0,0,.719-.066l15.566-3a3.692,3.692,0,0,0,3-3.972C828.832,639.2,816.676,511.419,800.895,492.566Z" transform="translate(-281.551 -202.466)" fill="#273a57"/>
    <path id="Path_3511" data-name="Path 3511" d="M706.09,419.851a8.3,8.3,0,0,0,8.749,9.252l11.337,27.246,8.576-12.713-12.081-23.924a8.349,8.349,0,0,0-16.581.139Z" transform="translate(-277.515 -198.107)" fill="#a0616a"/>
    <path id="Path_3512" data-name="Path 3512" d="M798.208,530.948a8.3,8.3,0,0,0,6.959-10.664l23.854-17.374-14.361-5.378-20.45,17.323a8.349,8.349,0,0,0,4,16.093Z" transform="translate(-292.084 -213.065)" fill="#a0616a"/>
    <path id="Path_3513" data-name="Path 3513" d="M746.918,479.037a14.09,14.09,0,0,1-2.724-.269,13.465,13.465,0,0,1-9.866-7.941l-15.884-19.368a3.717,3.717,0,0,1,.918-5.517l11.3-7a3.716,3.716,0,0,1,5.133,1.231l11.2,18.444,21.439-15.844a8.028,8.028,0,0,1,9.34,12.851l-21.4,19.519A13.423,13.423,0,0,1,746.918,479.037Z" transform="translate(-279.594 -202.672)" fill="#273a57"/>
    <path id="Path_3514" data-name="Path 3514" d="M820.349,509.443h-.087a3.722,3.722,0,0,1-2.734-1.3L807.48,496.424a3.716,3.716,0,0,1,.76-5.511l18.813-12.542-17.044-20.49A8.028,8.028,0,0,1,822.3,447.821l20.714,20.243a13.646,13.646,0,0,1-3.035,22.248l-16.93,17.965a3.723,3.723,0,0,1-2.7,1.167Z" transform="translate(-295.21 -203.989)" fill="#273a57"/>
    <path id="Path_3515" data-name="Path 3515" d="M792.94,463.9a3.823,3.823,0,0,1-.481-.03,3.684,3.684,0,0,1-3.065-2.534l-7.55-23.147a2.546,2.546,0,0,1,1.316-3.076l.245-.116c.222-.106.442-.21.667-.31a26.9,26.9,0,0,1,11.234-2.5,25.871,25.871,0,0,1,14.172,4.258,2.585,2.585,0,0,1,.744,3.547l-14.163,22.187a3.679,3.679,0,0,1-3.119,1.718Z" transform="translate(-290.82 -201.572)" fill="#e6e6e6"/>
    <circle id="Ellipse_259" data-name="Ellipse 259" cx="8.107" cy="8.107" r="8.107" transform="translate(522.425 173.06)" fill="#1a1a1a"/>
    <path id="Path_3516" data-name="Path 3516" d="M791.582,361.365h0a21.471,21.471,0,0,0-21.471,21.471v9.084h11.173l5.344-9.084,1.6,9.084h33.907l-9.084-9.084a21.471,21.471,0,0,0-21.471-21.471Z" transform="translate(-288.813 -189.118)" fill="#1a1a1a"/>
    <path id="Path_3517" data-name="Path 3517" d="M834.809,363.6a12.511,12.511,0,0,1,13.61-8.585c5.166.864,9.251,5.016,11.685,9.655s3.558,9.829,5.194,14.805,3.957,9.979,8.087,13.2,10.469,4.095,14.526.781a16.614,16.614,0,0,1-30.949,5.93c-2.141-3.808-2.693-8.272-3.328-12.594s-1.459-8.795-4.015-12.338-7.34-5.857-11.4-4.244Z" transform="translate(-300.441 -187.997)" fill="#1a1a1a"/>
    <path id="Path_3518" data-name="Path 3518" d="M507.989,362.1h0a27.869,27.869,0,0,1-27.866-27.865c0-5.044,0-8.9.011-9.446a108.6,108.6,0,0,1,12.684-49.473,108.845,108.845,0,0,0-20.942,62.686c-.008.548-.011,4.4-.011,9.443a27.869,27.869,0,0,0,27.865,27.868h0a27.89,27.89,0,0,0,26.829-20.308A27.766,27.766,0,0,1,507.989,362.1Z" transform="translate(-236.371 -174.024)" fill="#273a57"/>
    <path id="Path_3519" data-name="Path 3519" d="M597.4,288.678a52.855,52.855,0,0,1,45.964,73.838A52.85,52.85,0,1,0,554.648,307.2a52.745,52.745,0,0,1,42.75-18.521Z" transform="translate(-250.979 -174.032)" fill="#273a57"/>
    <path id="Path_3520" data-name="Path 3520" d="M608.883,566.636h0a28.729,28.729,0,0,1-28.73-28.268c-.35-21.841-.531-48.76-.531-51.836a77.629,77.629,0,0,1,3.2-22.105l-.01,0a78.5,78.5,0,0,1,4.537-10.488,90.882,90.882,0,0,0-12.795,23.7l.01,0a77.633,77.633,0,0,0-3.2,22.105c0,3.076.181,29.995.531,51.843a28.728,28.728,0,0,0,28.73,28.261h0a28.739,28.739,0,0,0,27.582-20.68A28.622,28.622,0,0,1,608.883,566.636Z" transform="translate(-253.87 -205.525)" fill="#273a57"/>
    <path id="Path_3521" data-name="Path 3521" d="M126.54,574.348h10.124l4.817-39.051H126.538Z" transform="translate(-28.929 -94.163)" fill="#ffb8b8"/>
    <path id="Path_3522" data-name="Path 3522" d="M0,0H31.819V12.294H12.294A12.294,12.294,0,0,1,0,0Z" transform="translate(127.258 489.586) rotate(179.997)" fill="#0b2d61"/>
    <path id="Path_3523" data-name="Path 3523" d="M82.54,574.348H92.664L97.481,535.3H82.538Z" transform="translate(-21.265 -94.163)" fill="#ffb8b8"/>
    <path id="Path_3524" data-name="Path 3524" d="M0,0H31.819V12.294H12.294A12.294,12.294,0,0,1,0,0Z" transform="translate(90.923 489.585) rotate(179.997)" fill="#0b2d61"/>
    <path id="Path_3525" data-name="Path 3525" d="M268.06,691.833l-9.889-.52a3.859,3.859,0,0,1-3.649-4.1l11.82-130.863,54.43,14.688,5.244-1.431-16.4,115.849a3.878,3.878,0,0,1-3.6,3.258l-10.66.5a3.86,3.86,0,0,1-4.073-3.96l1.932-69.53a1.287,1.287,0,0,0-2.546-.3l-18.628,73.342a3.836,3.836,0,0,1-3.773,3.077C268.2,691.839,268.13,691.837,268.06,691.833Z" transform="translate(-197.937 -223.658)" fill="#0b2d61"/>
    <circle id="Ellipse_260" data-name="Ellipse 260" cx="20.283" cy="20.283" r="20.283" transform="translate(79.146 185.592)" fill="#ffb8b8"/>
    <path id="Path_3526" data-name="Path 3526" d="M265.5,467.509l2.23,48.118.806,17.506a3.834,3.834,0,0,0,2.539,3.448l52.3,18.947a3.692,3.692,0,0,0,1.321.232,3.834,3.834,0,0,0,3.851-3.954l-2.144-86.518a30.5,30.5,0,0,0-25.389-29.462c-.506-.077-1.021-.154-1.535-.223a29.935,29.935,0,0,0-24.085,7.8,30.75,30.75,0,0,0-9.9,24.11Z" transform="translate(-199.845 -202.244)" fill="#ccc"/>
    <path id="Path_3527" data-name="Path 3527" d="M361.179,561.418a8.311,8.311,0,0,1-4.434-12.574l-17.737-23.585,15.306-.947,14.5,22.542a8.35,8.35,0,0,1-7.632,14.565Z" transform="translate(-213.109 -217.779)" fill="#ffb8b8"/>
    <path id="Path_3528" data-name="Path 3528" d="M344.5,531.971a3.836,3.836,0,0,1-2.1-2.08l-26.722-63.665a10.292,10.292,0,1,1,18.981-7.967l26.722,63.666a3.864,3.864,0,0,1-2.065,5.053l-11.863,4.979a3.833,3.833,0,0,1-2.954.014Z" transform="translate(-208.846 -205.105)" fill="#ccc"/>
    <path id="Path_3529" data-name="Path 3529" d="M298.412,535.31l25.665-49.143a4.029,4.029,0,0,1,5.43-1.7l37.254,19.456a4.028,4.028,0,0,1,1.7,5.43L342.8,558.491a4.028,4.028,0,0,1-5.43,1.7l-37.254-19.456a4.028,4.028,0,0,1-1.7-5.43Z" transform="translate(-205.504 -210.743)" fill="#273a57"/>
    <path id="Path_3530" data-name="Path 3530" d="M311.452,514.725a8.311,8.311,0,0,0-12.814-3.683l-24.591-16.313L274,510.064l23.358,13.14a8.35,8.35,0,0,0,14.089-8.479Z" transform="translate(-201.332 -212.569)" fill="#ffb8b8"/>
    <path id="Path_3531" data-name="Path 3531" d="M275.424,509.345l-20.1-15.92a14.174,14.174,0,0,1-6.461-22.409L267.114,447.1a8.337,8.337,0,0,1,14.146,8.493l-14.438,23.618,21.218,10.064a3.86,3.86,0,0,1,1.609,5.549l-8.565,13.555a3.867,3.867,0,0,1-2.615,1.743l-.064.01A3.877,3.877,0,0,1,275.424,509.345Z" transform="translate(-196.395 -203.696)" fill="#ccc"/>
    <path id="Path_3532" data-name="Path 3532" d="M285.742,409.683a1.763,1.763,0,0,1,1.533-2.328,4.072,4.072,0,0,1,2.871,1.416,11.425,11.425,0,0,0,2.536,2.178,2.182,2.182,0,0,0,2.871-.519c.525-.885.165-2.071-.153-3.1a30.475,30.475,0,0,1-1.346-8.068c-.092-3.056.34-6.245,2.031-8.628,2.183-3.076,6.087-4.244,9.782-4.159s7.33,1.225,10.989,1.946c1.263.249,2.748.376,3.594-.6.9-1.041.569-2.726.186-4.132-.992-3.648-2.044-7.42-4.348-10.366a15.607,15.607,0,0,0-9.96-5.607,23.9,23.9,0,0,0-11.117,1.262,29.809,29.809,0,0,0-14.6,10.173A24.143,24.143,0,0,0,276,396.986a22.022,22.022,0,0,0,8.164,13.919Z" transform="translate(-201.639 -190.213)" fill="#171717"/>
    <path id="Path_3533" data-name="Path 3533" d="M592.659,722.7a37.982,37.982,0,0,1-14.1-59.036,37.985,37.985,0,1,0,51.67,54.887A37.962,37.962,0,0,1,592.659,722.7Z" transform="translate(-252.405 -242.351)" fill="#273a57"/>
  </g>
</svg>
