<svg xmlns="http://www.w3.org/2000/svg" width="610" height="508.978" viewBox="0 0 610 508.978">
  <g id="CMS-development" transform="translate(-74.258 0.009)">
    <path id="Path_4603" data-name="Path 4603" d="M529.065,316.765a4.3,4.3,0,0,1-4.847,1.413,6.551,6.551,0,0,1-.763-.278,32.391,32.391,0,0,0-.413-8.977A24.006,24.006,0,0,1,521.2,316.3a10.013,10.013,0,0,1-1.978-2.823,25.2,25.2,0,0,1-1.8-6.794c-1.353-7.965-2.689-16.251-.48-24.034,3.235-11.37,13.436-19.544,17.7-30.576l2.1-1.884c3.593,6.119,3.752,13.722,2.288,20.661s-4.393,13.477-6.714,20.181-4.06,13.836-2.983,20.851C529.574,313.537,529.951,315.352,529.065,316.765Z" transform="translate(-247.195 -236.448)" fill="#2f2e41"/>
    <path id="Path_4604" data-name="Path 4604" d="M231.974,157.1l-13.68,62.567,59.75,19.461L269.259,157.1Z" transform="translate(3.213 19.594)" fill="#ffb6b6"/>
    <path id="Path_4605" data-name="Path 4605" d="M912.623,717.518H939.7V593.388A120.966,120.966,0,0,0,818.87,472.559H567.238A120.966,120.966,0,0,0,446.41,593.388v124.13h27.076v-84.8A122.091,122.091,0,0,1,595.437,510.764H790.67A122.091,122.091,0,0,1,912.623,632.716Z" transform="translate(-255.441 -208.549)" fill="#e6e6e6"/>
    <path id="Path_4608" data-name="Path 4608" d="M748.107,391.091H690.794a3.058,3.058,0,0,0-3.053,3.061V484.69h63.428V394.152a3.06,3.06,0,0,0-3.062-3.061Zm-28.464,51.443a6.8,6.8,0,0,1-6.768-6.768V425.323a6.768,6.768,0,1,1,13.535,0v10.443a6.8,6.8,0,0,1-6.768,6.768Z" transform="translate(-225.747 -218.857)" fill="#444"/>
    <path id="Path_4609" data-name="Path 4609" d="M853.76,265.347H608.769a7.953,7.953,0,0,0-7.94,7.94V438.608a7.948,7.948,0,0,0,7.94,7.94H853.76a7.948,7.948,0,0,0,7.94-7.94V273.287a7.953,7.953,0,0,0-7.94-7.94Z" transform="translate(-236.37 -234.573)" fill="#444"/>
    <path id="Path_4610" data-name="Path 4610" d="M851.083,270.451h-240.9a4.256,4.256,0,0,0-4.246,4.255V435.93a4.254,4.254,0,0,0,4.246,4.247h240.9a4.254,4.254,0,0,0,4.247-4.246V274.705A4.256,4.256,0,0,0,851.083,270.451Z" transform="translate(-235.739 -233.942)" fill="#fff"/>
    <path id="Path_4611" data-name="Path 4611" d="M687.565,471.812v8.735a1.711,1.711,0,0,0,1.708,1.708h60.406a1.716,1.716,0,0,0,1.708-1.708v-8.735Z" transform="translate(-225.769 -208.83)" fill="#3f3d56"/>
    <path id="Path_4612" data-name="Path 4612" d="M798.408,485.554H655.086a2.636,2.636,0,0,1-2.58-3.18l2.224-10.562a2.648,2.648,0,0,1,2.579-2.093H796.185a2.648,2.648,0,0,1,2.579,2.093l2.224,10.562a2.637,2.637,0,0,1-2.58,3.18Z" transform="translate(-230.091 -209.089)" fill="#444"/>
    <rect id="Rectangle_599" data-name="Rectangle 599" width="4.414" height="2.649" rx="0.488" transform="translate(428.157 262.528)" fill="#e6e6e6"/>
    <rect id="Rectangle_600" data-name="Rectangle 600" width="4.414" height="2.649" rx="0.488" transform="translate(436.992 262.528)" fill="#e6e6e6"/>
    <rect id="Rectangle_601" data-name="Rectangle 601" width="4.414" height="2.649" rx="0.488" transform="translate(445.827 262.528)" fill="#e6e6e6"/>
    <rect id="Rectangle_602" data-name="Rectangle 602" width="4.414" height="2.649" rx="0.488" transform="translate(454.662 262.528)" fill="#e6e6e6"/>
    <rect id="Rectangle_603" data-name="Rectangle 603" width="4.414" height="2.649" rx="0.488" transform="translate(463.498 262.528)" fill="#e6e6e6"/>
    <rect id="Rectangle_604" data-name="Rectangle 604" width="4.414" height="2.649" rx="0.488" transform="translate(472.333 262.528)" fill="#e6e6e6"/>
    <rect id="Rectangle_605" data-name="Rectangle 605" width="4.414" height="2.649" rx="0.488" transform="translate(481.169 262.528)" fill="#e6e6e6"/>
    <rect id="Rectangle_606" data-name="Rectangle 606" width="4.414" height="2.649" rx="0.488" transform="translate(490.004 262.528)" fill="#e6e6e6"/>
    <rect id="Rectangle_607" data-name="Rectangle 607" width="4.414" height="2.649" rx="0.488" transform="translate(498.839 262.528)" fill="#e6e6e6"/>
    <rect id="Rectangle_608" data-name="Rectangle 608" width="4.414" height="2.649" rx="0.488" transform="translate(507.675 262.528)" fill="#e6e6e6"/>
    <rect id="Rectangle_609" data-name="Rectangle 609" width="4.414" height="2.649" rx="0.488" transform="translate(516.51 262.528)" fill="#e6e6e6"/>
    <rect id="Rectangle_610" data-name="Rectangle 610" width="4.414" height="2.649" rx="0.488" transform="translate(525.345 262.528)" fill="#e6e6e6"/>
    <rect id="Rectangle_611" data-name="Rectangle 611" width="4.414" height="2.649" rx="0.488" transform="translate(534.181 262.528)" fill="#e6e6e6"/>
    <rect id="Rectangle_612" data-name="Rectangle 612" width="4.414" height="2.649" rx="0.488" transform="translate(543.016 262.528)" fill="#e6e6e6"/>
    <rect id="Rectangle_613" data-name="Rectangle 613" width="4.414" height="2.649" rx="0.488" transform="translate(551.852 262.528)" fill="#e6e6e6"/>
    <rect id="Rectangle_614" data-name="Rectangle 614" width="4.414" height="2.649" rx="0.488" transform="translate(560.686 262.528)" fill="#e6e6e6"/>
    <rect id="Rectangle_615" data-name="Rectangle 615" width="4.414" height="2.649" rx="0.488" transform="translate(428.052 266.945)" fill="#e6e6e6"/>
    <rect id="Rectangle_616" data-name="Rectangle 616" width="4.414" height="2.649" rx="0.488" transform="translate(436.888 266.945)" fill="#e6e6e6"/>
    <rect id="Rectangle_617" data-name="Rectangle 617" width="4.414" height="2.649" rx="0.488" transform="translate(445.723 266.945)" fill="#e6e6e6"/>
    <rect id="Rectangle_618" data-name="Rectangle 618" width="4.414" height="2.649" rx="0.488" transform="translate(454.558 266.945)" fill="#e6e6e6"/>
    <rect id="Rectangle_619" data-name="Rectangle 619" width="4.414" height="2.649" rx="0.488" transform="translate(463.393 266.945)" fill="#e6e6e6"/>
    <rect id="Rectangle_620" data-name="Rectangle 620" width="4.414" height="2.649" rx="0.488" transform="translate(472.229 266.945)" fill="#e6e6e6"/>
    <rect id="Rectangle_621" data-name="Rectangle 621" width="4.414" height="2.649" rx="0.488" transform="translate(481.065 266.945)" fill="#e6e6e6"/>
    <rect id="Rectangle_622" data-name="Rectangle 622" width="4.414" height="2.649" rx="0.488" transform="translate(489.899 266.945)" fill="#e6e6e6"/>
    <rect id="Rectangle_623" data-name="Rectangle 623" width="4.414" height="2.649" rx="0.488" transform="translate(498.735 266.945)" fill="#e6e6e6"/>
    <rect id="Rectangle_624" data-name="Rectangle 624" width="4.414" height="2.649" rx="0.488" transform="translate(507.57 266.945)" fill="#e6e6e6"/>
    <rect id="Rectangle_625" data-name="Rectangle 625" width="4.414" height="2.649" rx="0.488" transform="translate(516.406 266.945)" fill="#e6e6e6"/>
    <rect id="Rectangle_626" data-name="Rectangle 626" width="4.414" height="2.649" rx="0.488" transform="translate(525.242 266.945)" fill="#e6e6e6"/>
    <rect id="Rectangle_627" data-name="Rectangle 627" width="4.414" height="2.649" rx="0.488" transform="translate(534.076 266.945)" fill="#e6e6e6"/>
    <rect id="Rectangle_628" data-name="Rectangle 628" width="4.414" height="2.649" rx="0.488" transform="translate(542.912 266.945)" fill="#e6e6e6"/>
    <rect id="Rectangle_629" data-name="Rectangle 629" width="4.414" height="2.649" rx="0.488" transform="translate(551.747 266.945)" fill="#e6e6e6"/>
    <rect id="Rectangle_630" data-name="Rectangle 630" width="4.414" height="2.649" rx="0.488" transform="translate(560.583 266.945)" fill="#e6e6e6"/>
    <rect id="Rectangle_631" data-name="Rectangle 631" width="35.314" height="2.649" rx="0.488" transform="translate(470.479 272.246)" fill="#e6e6e6"/>
    <path id="Path_4613" data-name="Path 4613" d="M808.49,308.774v84.859a21.43,21.43,0,0,1-21.425,21.428H680.853a21.442,21.442,0,0,1-19.677-12.915,20.2,20.2,0,0,1-1.268-3.94,19.515,19.515,0,0,0,7.079,1.315H773.2a19.782,19.782,0,0,0,19.754-19.754V294.908a19.516,19.516,0,0,0-1.315-7.079,20.2,20.2,0,0,1,3.944,1.27A21.44,21.44,0,0,1,808.49,308.774Z" transform="translate(-229.16 -231.793)" fill="#f2f2f2"/>
    <path id="Path_4614" data-name="Path 4614" d="M188.472,373.513l-10.534,6.523L146.9,341.887l15.547-9.625Z" transform="translate(-5.736 41.414)" fill="#ffb6b6"/>
    <path id="Path_4615" data-name="Path 4615" d="M452.461,622.087l-8.474,3.783-5.084-7.325-.3,9.73-22.475,10.033a5.533,5.533,0,0,1-6.982-7.928l12.414-20.407-3.611-8.088,19.381-7.3Z" transform="translate(-260.63 -193.458)" fill="#273a57"/>
    <path id="Path_4616" data-name="Path 4616" d="M419.147,622.327l17.792-17.242c-13.219-32.619-14.275-52.837-32.6-92.287,43.478,8.893,74.562,8.352,110.519.379,12.173-2.657,43.582-26.918,41-39.359q-.181-.872-.428-1.728c-3.86-13.16-1.142-33.312-9.5-47.915-15.456-5.827-38.938,13.85-57.307,25.844-8.857,5.784-2.374,13.665-8.989,15.731l-25.36,8.232-62.22-10.049a23.048,23.048,0,0,0-26.267,19.506q-.158,1.013-.229,2.038c2.863,15.847,5.847,31.279,9.06,45.928,1.037,4.729-.714,13.793,3.186,13.928s2.329,9.511,3.544,14.094C388.83,587.647,393.558,601.3,419.147,622.327Z" transform="translate(-265.922 -214.794)" fill="#273a57"/>
    <path id="Path_4617" data-name="Path 4617" d="M128.537,435.438l-10.975-5.728,17.364-46,16.2,8.454Z" transform="translate(-9.368 47.853)" fill="#ffb6b6"/>
    <path id="Path_4618" data-name="Path 4618" d="M381.316,661.048l17.6,12.116c21.568-31.193,35.572-72.874,46-119.513,40.608-17.714,76.14-37.981,100.9-65.165a23.5,23.5,0,0,0-1.359-32.693q-.65-.609-1.344-1.167c-10.725-8.543-34.545-3.627-49.769-10.768l-27.2,37.642,3.126,8.767-9.461,4.606-7.988,3.889-9.145,4.452L412.7,517.807a23.017,23.017,0,0,0-10.213,31.046q.454.919.986,1.8l-11.133,55.464s3.063,9.656-1.757,8.752-2.194,10.928-2.194,10.928Z" transform="translate(-263.972 -212.098)" fill="#273a57"/>
    <path id="Path_4619" data-name="Path 4619" d="M381.239,694.625l-8.227-4.294L375.6,681.8l-7.815,5.8-21.82-11.388a5.533,5.533,0,0,1,1.879-10.4l23.705-2.94,4.1-7.852L393.4,665.685Z" transform="translate(-268.731 -185.984)" fill="#273a57"/>
    <path id="Path_4620" data-name="Path 4620" d="M593.032,479.079,580.2,448.059l-10.113,5.618,6.107,31.555a11.238,11.238,0,1,0,16.841-6.154Z" transform="translate(-240.427 -211.772)" fill="#ffb6b6"/>
    <path id="Path_4621" data-name="Path 4621" d="M399.642,259.769l19.53,27.3,8.577-7.764-13.1-29.35a11.238,11.238,0,1,0-15.009,9.809Z" transform="translate(-262.628 -237.961)" fill="#ffb6b6"/>
    <path id="Path_4622" data-name="Path 4622" d="M486.2,430.343c-12.668,19.649,33.741,62.46,58.174,52.449,4.278-1.753,18.995-7.543,8.936-15.57s1.166.956,1.432-4.269c.177-3.493-2.527-11.157.295-10.828s4.442-7.833-1.7-9.912A11.931,11.931,0,0,1,545.47,432.1c-.588-21.537,6.706-44.022,6.706-44.022l29.775,76.111s-.22,13.168,3.577,9.144,3.521,9,3.521,9,5.646,3.94,2.4,6.133,3.5,8.935,3.5,8.935l15.731-1.124s-.246-11.686-2.932-14.271-1.367-6.651-1.367-6.651-5.538-5.151-2.3-11.217-23.542-114.57-23.542-114.57a28.9,28.9,0,0,0-20.637-22.047L542.9,322.842l-3.017-11.971H515.959l-4.167,7.866-38.2-3.371s-37.8-34.4-35.957-37.081-4.014-8.973-4.014-8.973-5-1.638-2.181-2.513-2.514-2.9-2.514-2.9-4.944-1.3-2.612-3.01-7.781-2.834-7.781-2.834l-13.121,10.706,2.652,4.5s-1.617,6.123.493,3.888,2.508,4.252,2.508,4.252,1.078,7.1,7.468,9.244,11.237,22.473,11.237,22.473L483.7,358.065c-8.215,9.429-6.259,19.289,1.018,29.375Z" transform="translate(-260.988 -235.475)" fill="#0b2d61"/>
    <circle id="Ellipse_476" data-name="Ellipse 476" cx="25.907" cy="25.907" r="25.907" transform="translate(240.616 15.629)" fill="#ffb6b6"/>
    <path id="Path_4623" data-name="Path 4623" d="M541.449,271.3c-.663.191-10.394,1.461-14.608,2.247-4.135.775-4.854-4.495-8.236-3.506a.141.141,0,0,0-.011-.067,31.847,31.847,0,0,0-2.663-8.057,23.8,23.8,0,0,1,.191,7.416,1.117,1.117,0,0,1-.023.191c-.011.112-.034.213-.045.326-3.573-1.573-5.843-.169-8.315.326-2.764.551-4.922,1.764-3.371,11.237,3.18,19.484,19.72,26.44,16.855,39.328-.562,2.551-1.978,5.742-3.753,6.54a31.849,31.849,0,0,0-2.663-8.057,23.8,23.8,0,0,1,.191,7.416c-2.753-2.978-4.742-13.383-14-21.631-2.281-2.023-13.709-14.023-15.08-16.855a36.111,36.111,0,0,1,.607,6.866,33.047,33.047,0,0,1-.315,4.607,1.293,1.293,0,0,1-.034.292c-.011.18-.045.337-.067.506-.022.191-.056.371-.09.562-3.742-.539-7.057-1.191-8.619-2.719-7.6-7.394,1.674-21.8,6.742-34.834,7.248-18.664,28.294-21.147,30.339-21.35,9.012-.91,24.237,1.023,29.215,11.237C547.179,260.475,544.955,270.285,541.449,271.3Z" transform="translate(-252.323 -237.475)" fill="#292929"/>
    <path id="Path_4624" data-name="Path 4624" d="M486.946,275.449l18.766-29.193a28.78,28.78,0,0,0-14.819-3.887,18.45,18.45,0,0,0-13.607,6.418c-3.833,4.763-4.49,11.5-3.054,17.44.5,2.053,9.94-5.169,7.693-1.8-1.845,2.639-4.862,13.733-5.618,16.855-1.218,5.025-4.566,10.183-1.583,14.406,3.527,4.994,9.821,7.476,15.93,7.729s12.122-1.441,17.927-3.358Z" transform="translate(-252.456 -237.415)" fill="#292929"/>
    <path id="Path_4625" data-name="Path 4625" d="M492.009,274.107a1.124,1.124,0,0,1-.307-2.2c.295-.486.174-2.532.077-4.185-.365-6.207-.977-16.6,9.108-23.608a1.123,1.123,0,1,1,1.283,1.845c-9.051,6.294-8.508,15.524-8.148,21.631.205,3.492.354,6.014-1.764,6.494a1.112,1.112,0,0,1-.25.028Z" transform="translate(-250.297 -237.225)" fill="#8aa1c5"/>
    <path id="Path_4627" data-name="Path 4627" d="M700.209,333.185h-17a1.7,1.7,0,0,1,0-3.4h17a1.7,1.7,0,0,1,0,3.4Z" transform="translate(-226.549 -226.523)" fill="#0b2d61"/>
    <path id="Path_4628" data-name="Path 4628" d="M727.445,333.185h-17a1.7,1.7,0,0,1,0-3.4h17a1.7,1.7,0,0,1,0,3.4Z" transform="translate(-223.156 -226.523)" fill="#0b2d61"/>
    <path id="Path_4629" data-name="Path 4629" d="M741.064,345.29h-17a1.7,1.7,0,0,1,0-3.4h17a1.7,1.7,0,0,1,0,3.4Z" transform="translate(-221.459 -225.015)" fill="#0b2d61"/>
    <path id="Path_4630" data-name="Path 4630" d="M715.6,345.29H683.2a1.7,1.7,0,0,1,0-3.4h32.4a1.7,1.7,0,0,1,0,3.4Z" transform="translate(-226.541 -225.015)" fill="#0b2d61"/>
    <path id="Path_4631" data-name="Path 4631" d="M770.08,333.185h-32.4a1.7,1.7,0,0,1,0-3.4h32.4a1.7,1.7,0,0,1,0,3.4Z" transform="translate(-219.753 -226.523)" fill="#0b2d61"/>
    <path id="Path_4632" data-name="Path 4632" d="M712.262,310.261h-32.4a1.7,1.7,0,0,1,0-3.4h32.4a1.7,1.7,0,1,1,0,3.4Z" transform="translate(-226.957 -229.44)" fill="#0b2d61"/>
    <path id="Path_4633" data-name="Path 4633" d="M711.048,321.34a1.523,1.523,0,0,1-.935-2.725l8.3-6.449a3.049,3.049,0,0,0,.369-4.476l-6.965-7.54a1.523,1.523,0,1,1,2.236-2.067l10.344,11.2a1.523,1.523,0,0,1-.184,2.236l-12.227,9.5a1.518,1.518,0,0,1-.934.32Z" transform="translate(-223.061 -230.586)" fill="#0b2d61"/>
    <path id="Path_4634" data-name="Path 4634" d="M679.729,321.34a1.523,1.523,0,0,0,.935-2.725l-8.3-6.449A3.049,3.049,0,0,1,672,307.69l6.965-7.54a1.523,1.523,0,0,0-2.237-2.067l-10.343,11.2a1.523,1.523,0,0,0,.184,2.236l12.227,9.5A1.518,1.518,0,0,0,679.729,321.34Z" transform="translate(-228.485 -230.586)" fill="#0b2d61"/>
    <path id="Path_4635" data-name="Path 4635" d="M727.169,371.241h-32.4a1.7,1.7,0,0,1,0-3.4h32.4a1.7,1.7,0,0,1,0,3.4Z" transform="translate(-225.1 -221.783)" fill="#0b2d61"/>
    <path id="Path_4636" data-name="Path 4636" d="M728.665,380.965a1.523,1.523,0,0,1-.935-2.725l8.3-6.449a3.049,3.049,0,0,0,.369-4.476l-6.965-7.54a1.523,1.523,0,0,1,2.236-2.067l10.344,11.2a1.523,1.523,0,0,1-.184,2.236l-12.227,9.5a1.518,1.518,0,0,1-.934.32Z" transform="translate(-220.866 -223.102)" fill="#0b2d61"/>
    <path id="Path_4637" data-name="Path 4637" d="M679.729,380.965a1.523,1.523,0,0,0,.935-2.725l-8.3-6.449a3.049,3.049,0,0,1-.369-4.476l6.965-7.54a1.523,1.523,0,1,0-2.236-2.067l-10.344,11.2a1.523,1.523,0,0,0,.184,2.236l12.227,9.5A1.518,1.518,0,0,0,679.729,380.965Z" transform="translate(-228.485 -223.102)" fill="#0b2d61"/>
    <path id="Path_4638" data-name="Path 4638" d="M680.8,375.94l6.811-15.58a1.7,1.7,0,1,1,3.116,1.362l-6.811,15.58a1.7,1.7,0,1,1-3.116-1.362Z" transform="translate(-226.659 -222.838)" fill="#0b2d61"/>
  </g>
</svg>
