<svg xmlns="http://www.w3.org/2000/svg" width="792.176" height="565.84" viewBox="0 0 792.176 565.84">
  <g id="aboutus" transform="translate(0 0.003)">
    <path id="Path_3015" data-name="Path 3015" d="M843.512,388.179c-1.482-3.812.635-5.719,1.483-9.108s-1.907-13.979-1.907-13.979-8.9-36.642-11.649-43.844a13.238,13.238,0,0,0-6.228-6.551c-.172-.935-.42-1.538-.762-1.709-2.453-1.228-8.565-3.893-12.638-4.63a20.673,20.673,0,0,0-2.693-3.642,8.609,8.609,0,0,0,.96-4.458c-.26-4-3.286-7.577-2.892-11.562.3-3.022,2.508-5.505,3.361-8.42a9.9,9.9,0,0,0-1.125-7.808l1.88,2a7.024,7.024,0,0,0-.524-8.486c-1.984-2.192-5.3-3.014-6.841-5.537-1.581-2.593-.733-6.117-2.228-8.761-3.664-6.477-13.044-1.886-18.662-4.146-2.309-.929-4.064-1.951-6.661-1.878a26.028,26.028,0,0,0-6.5,1.213,13.728,13.728,0,0,0-7.447,5.338,4.62,4.62,0,0,1,.582-.556c1.361-1.067,3.749-.978,4.468.6a2.634,2.634,0,0,1,.21,1.257c-.118,1.9-1.775,3.313-3.421,4.262s-3.5,1.743-4.573,3.31c-1.773,2.586-.73,6.057-.73,9.193a13.327,13.327,0,0,1-5.051,10.348l5.977-2.443a45.172,45.172,0,0,0-5.519,16.186l8.081-6.676a35.536,35.536,0,0,0-5.307,15.773l6.486-6.646a3.281,3.281,0,0,1,.428,1.706l-.677,2.609a16.948,16.948,0,0,1-.794,1.514c-1.044,1.792-2.123,4-1.147,5.828l0,0c-1.028,3.457-2.578,6.917-6.026,8.6a10.039,10.039,0,0,0,9.544-4.556,8.522,8.522,0,0,0,1.015,1.538l.331.415-.953.635-2.554,1.7s-16.733,3.389-15.674,9.743c.044.261.1.573.154.923l-4.814,8.184-6.989,23.722s-3.6,7.625-2.965,10.8,0,4.448,0,10.167-2.753,8.049,0,12.708,11.014,18.215,11.014,18.215l1.814,1.361a8.476,8.476,0,0,0,.092,2.452c1.694,8.472,17.58,89.594,17.58,89.594s-8.049,64.177,8.26,68.2c2.046.5,4.054.963,6.006,1.37l2.467,16.209L778.276,611s-11.226,25.417,9.319,26.9,11.226-22.028,11.226-22.028a11.168,11.168,0,0,0,1.271-6.566c-.209-1.886-1.973-11.7-3.7-21.134,7.8-.935,6.338-9.21,5.3-12.848a2.107,2.107,0,0,0,.945-1.178c.235-.845-.312-4.169-1.3-8.826-.808-4.63-2.188-12.126-3.129-17.2l5.068.825,21.392-125.389s.141-2,.077-4.916a79.4,79.4,0,0,1,9.031-3.98c6.99-2.753,9.743-12.92,12.073-17.156S844.994,391.992,843.512,388.179Zm-75.954-79.835a4.531,4.531,0,0,1,2.343-.795c-.181.985-1.875,1.273-3.3,1.789a4.193,4.193,0,0,1,.953-.994Zm-10.674,63.1c1.716,2.819-1.391,10.459-4.191,16.521-1.6-1.382-3.279-.947-1.316-4.872a19.927,19.927,0,0,0,2.33-8.049c0-.484.248-4.043,2.335-5.521a11.149,11.149,0,0,0,.842,1.921Zm-6.428,24.332c.971-.4,2.442-1,4.427-1.678-.951,1.249-2.038,2.737-3.13,4.361a3.281,3.281,0,0,1-1.3-2.682Zm68.7,2.779c-1.288-1.368-2.328-2.592-3.185-3.687q2.4.631,4.879,1.357a5.805,5.805,0,0,0,2.468-.164c.073,1.464.074,3.553.074,3.553l-2.32,1.606a13.6,13.6,0,0,0-1.916-2.665Zm6.573-7.346-.077.069a14.044,14.044,0,0,0-.566-2.466c-1.388-4.378-2.13-12.145-2.524-18.774l4.007,13.478s.211,6.778-.841,7.693Z" transform="translate(-226.858 -132.195)" fill="#102546"/>
    <path id="Path_3016" data-name="Path 3016" d="M718.211,329.969s-21.73-37.348-22.409-41.422S684.258,277,684.258,277c-3.712-3.712-9.8-4.887-16.213-4.826,2.414-2-6.2-3.339-6.875-4.681-.679-1.358-2.716-1.358-5.433-3.4s-9.5-.34-9.5-.34a25.022,25.022,0,0,1-2.107-6.768,18.933,18.933,0,0,0,4.473-12.246c0-.049,0-.1,0-.145.173.269.346.54.519.819,1.272-7.62,3.518-13.953-.762-20.9a23.437,23.437,0,0,0-13.332-10.192l-4.076,3.261,1.585-3.8a21.575,21.575,0,0,0-4.029-.233l-3.667,4.715,1.518-4.554a23.213,23.213,0,0,0-16.014,9.525c-4.668,6.731-4.355,16.087.235,22.87.015-.048.028-.094.043-.141a19.008,19.008,0,0,0,9.715,15.391l1.153,9.226h0a6.324,6.324,0,0,1-3.781,1.668c-2.037,0-4.074,5.432-4.074,5.432s-1.155.583-2.4,3.333c-3.206,2.182-12.984,9.037-16.612,13.828-2.146,1.056-4.452,3.405-4.077,8.643.679,9.507,0,53.645,0,53.645s-6.111,37.348-4.074,40.064-.679,11.544-.679,11.544l2.037.453v2.263s-6.127,28.4,3.4,27.162c15.618-2.037,4.074-25.125,4.074-25.125v-2.641l2.716.6s1.358-9.507,4.074-10.186c.945-.236,2.054-2.774,3.1-5.983l.976,8.02,4.249-.944,1.183,4.34a5.848,5.848,0,0,0,.913.413l-.913,5.019s-.679,5.432,0,8.828c.342,1.712,12.947,38.312,25.359,74.176l-.234,8.669s-6.111,6.791-4.753,11.544-3.4,44.139-3.4,44.139L624.5,579.183l1.025.315-.941,3.451a6.851,6.851,0,0,0-2.121,1.666c-5.432,6.112-12.223,23.767-12.223,23.767s-12.223,18.334,6.791,17.655,20.372-7.47,20.372-7.47,2.716-17.655,2.716-18.335-1.358-7.659-1.358-7.659l-.527-.582.368-8.471,3.554,1.094s3.4-17.655,6.112-19.693c.949-.712,3.475-8.643,6.359-18.83,2.947,8.487,5.8,37.832,6.728,40.5a9.64,9.64,0,0,0-.863,1.422,165.013,165.013,0,0,1-10.186,16.976s-21.73,12.9,0,16.3c0,0,12.223.679,18.335-3.4s22.409-10.186,22.409-11.544-4.074-21.322-8.149-19.149h0l-2.729-6.277,2.729-1.056-17.192-77.168a38.974,38.974,0,0,0,.895-5c0-3.556,8.793-72.8,11.03-90.361,9.848,2.79,18.848-17.609,18.848-17.609l2.232-4.018,3.2,1.981s2.716-6.791,6.791-7.47,11.544-36.669,11.544-41.422a22.1,22.1,0,0,0-2.037-8.828Zm-31.639,53.2a18.3,18.3,0,0,0-2.314-2.953,84.093,84.093,0,0,0,4.074-14.26c1.358-7.47-2.037-31.916-2.037-31.916l-.059-1.66c3.333,4.375,7.529,10.208,7.529,11.846A5.093,5.093,0,0,0,695.8,348.3l-4.074,14.26a84.432,84.432,0,0,0-3.4,10.186,34.667,34.667,0,0,0-.679,6.112l.963.6Z" transform="translate(-201.505 -126.623)" fill="#102546"/>
    <path id="Path_3017" data-name="Path 3017" d="M345.391,346.075l3.624-.815-14.939-42.1L301.82,291.274s-.124.137-.352.373c-2.751-2.663-3.919-6.526-4.407-9.568a19.008,19.008,0,0,0,8.862-27.915c2.658-.638,3.607-3.049,4.5-5.924a11.885,11.885,0,0,0-1.686-.367l1.254-2.812-2.2-.2.564-2.629-2.81,1.94a5.741,5.741,0,0,0-.957-5.481,10.965,10.965,0,0,0-4.7-3.314,20.971,20.971,0,0,0-21.52,3.761l-.2-.791a27.312,27.312,0,0,0-10.431,18.077c-.9,7.086,2.5,14.3,6.93,19.909-.037-.245-.077-.489-.118-.733q.287.4.592.775l.544,20.669-1.362,1.168s-22.856,10.34-23.747,22.69l0,.009c-1.372,6.012-2.051,37.249-2.051,37.249h1.881l-1.881,12.223-12.223,47.534s-15.618,20.372-2.037,24.446c8.439,2.532,10.847-7.26,11.461-15.037.489,1.928,1.951,3.231,4.836,3.493.227.021.469.038.7.057-6.422,16.6-2.062,70.565-2.062,70.565-3.4,6.791,36.669,53.646,36.669,53.646l2.413-1.287.522,1.044c-1.343.129-2.255.243-2.255.243v21.051s-6.112,21.051,2.037,25.125c2.109,1.054,4.308.287,6.41-1.425-.4,6.5-.977,16.191-.977,18.4,0,3.4,8.828,9.507,8.828,9.507s2.037,7.47,18.335,7.47,4.075-19.693,4.075-19.693l-8.828-19.693s-.66.323-2.659-1.3l.716-7.875,3.981.351,5.432-79.45s4.753-70.622,5.433-81.487a75.624,75.624,0,0,0-.246-10.445l19.938-41.163ZM330.68,372.422l-2.037,7.1v-15.7ZM245.9,422.779c.017-2.489-.107-4.182-.107-4.182l13.276-26.551-.374,8.217S248.068,413.712,245.9,422.779Zm31.13,76.626,12.9-45.5,7.47,55-.536,20a31.886,31.886,0,0,1-2.181-5.736C292.652,515.024,277.034,499.4,277.034,499.4Z" transform="translate(-139.154 -130.16)" fill="#102546"/>
    <path id="Path_3018" data-name="Path 3018" d="M470.346,604.88c-6.363-2.62-18.713-8.234-20.21-11.228s-8.982-26.2-8.982-26.2l-1.928.14c-.248-10.541-1.31-51.4-2.938-56.28,0,0,7.859-64.748-7.86-90.573L425.6,409.3c.929-4.587.81-15.208.212-17-.749-2.246,8.608-9.357,5.988-13.848s-9.731-19.836-9.731-19.836.748-9.731-9.357-18.713c0,0-2.953-16.718-16.26-16.967-1.8-3.139-4.317-8.132-3.576-10.354.793-2.38,3.827-9.8,5.54-13.952a17.935,17.935,0,0,0,2.613-1.454c10.583-4.742,18.044-16.141,18.044-29.457,0-14.255-8.546-26.318-20.324-30.364a10.1,10.1,0,1,0-19.544-3.625,10.095,10.095,0,0,1,11.265-13.822,10.1,10.1,0,0,0-10.817,16.859,10,10,0,0,0,.412,1.086c-11.082,4.472-18.988,16.155-18.988,29.865,0,12.717,6.8,23.687,16.634,28.779-.052,4.137-1.078,11.111-6.783,15.361-2.947-1.347-7.037-2.825-9.661-2.154-1.357-1.058-3.4-1.407-6.191,1.379-5.614,5.614-10.479,20.21-10.479,29.193s1.123,61.005,1.123,61.005-5.988,2.246-1.871,5.614a4.853,4.853,0,0,0,3.024,1.124l4.087,30.315s-2.62,29.193,7.485,29.567a4,4,0,0,0,2.262-.555l-7.5,33.865s-17.216,11.228-30.69,33.309c-6.94,11.374-10.4,18.37-12.128,22.489l-2.469-1.53-8.608,16.468s-19.088,11.6-14.971,20.21,7.86,10.854,7.86,10.854l2.62-1.123,4.865,8.982s12.725,18.339,33.31,8.982a7.523,7.523,0,0,0,0-8.982c-3.368-4.866-11.976-15.345-11.976-15.345l5.614-28.444-1.162-.72,35.594-43.069s10.479-6.362,14.222-11.977,26.947-63.625,26.947-63.625l13.1,60.631s-.748,22.082,2.62,36.3a154.1,154.1,0,0,1,3.581,24.257l-.961.07,2.246,16.842s-9.731,23.953-2.994,25.824a98.688,98.688,0,0,0,14.6,2.62l.748-2.62s28.818,15.719,39.3,4.117C474.463,615.733,476.709,607.5,470.346,604.88ZM367.8,421.115c1.123,1.123.749,6.362.749,6.362l-2.246,14.6L364.057,452.2a108.755,108.755,0,0,0-1.874-14.241l-1.036-27.972a2.161,2.161,0,0,0,.662.276c.748,0,.374-6.362.374-6.362s.437-1.136.982-2.929c1.455,4.356,3.231,7.2,5.381,7.795l.374,4.865s-4.866,2.246-.374,2.246a3.537,3.537,0,0,0,.771-.115l-.4,1.986S366.675,419.992,367.8,421.115Z" transform="translate(-148.859 -127.558)" fill="#102546"/>
    <ellipse id="Ellipse_172" data-name="Ellipse 172" cx="300.856" cy="4.959" rx="300.856" ry="4.959" transform="translate(14.389 484.837)" fill="#273a57"/>
    <ellipse id="Ellipse_173" data-name="Ellipse 173" cx="330.593" cy="12.811" rx="330.593" ry="12.811" transform="translate(89.603 489.796)" fill="#273a57"/>
    <ellipse id="Ellipse_174" data-name="Ellipse 174" cx="162.413" cy="12.811" rx="162.413" ry="12.811" transform="translate(196.759 508.807)" fill="#273a57"/>
    <ellipse id="Ellipse_175" data-name="Ellipse 175" cx="72.321" cy="6.612" rx="72.321" ry="6.612" transform="translate(521.318 530.296)" fill="#273a57"/>
    <ellipse id="Ellipse_176" data-name="Ellipse 176" cx="34.301" cy="6.612" rx="34.301" ry="6.612" transform="translate(460.272 552.613)" fill="#273a57"/>
    <ellipse id="Ellipse_177" data-name="Ellipse 177" cx="34.301" cy="6.612" rx="34.301" ry="6.612" transform="translate(181.174 524.511)" fill="#273a57"/>
    <path id="Path_3019" data-name="Path 3019" d="M465.909,552.935l3.306,23.143,16.531-1.653-1.653-23.969Z" transform="translate(-81.168 -96.613)" fill="#ffb8b8"/>
    <path id="Path_3020" data-name="Path 3020" d="M366.746,552.935l-3.306,23.143-16.531-1.653,1.653-23.969Z" transform="translate(-60.437 -96.613)" fill="#ffb8b8"/>
    <path id="Path_3021" data-name="Path 3021" d="M459.739,370.365S444.861,387.722,448.167,415s9.092,89.265,9.092,89.265l4.133,109.928,26.449-1.653,4.133-93.4L505.2,443.926l35.541,87.612s17.357,81.826,18.184,81.826,24.8-2.48,24.8-2.48l-11.571-96.7s-18.184-140.51-28.928-142.989S459.739,370.365,459.739,370.365Z" transform="translate(-177.427 -153.368)" fill="#8aa1c5"/>
    <path id="Path_3022" data-name="Path 3022" d="M607.343,681.648s-14.878-9.919-20.663,1.653-.827,19.837-.827,19.837,4.959,3.306,2.479,6.612-3.306,24.8,18.184,21.49,10.745-25.622,10.745-25.622Z" transform="translate(-201.118 -207.141)" fill="#01183a"/>
    <path id="Path_3023" data-name="Path 3023" d="M462.623,681.648s14.878-9.919,20.663,1.653.827,19.837.827,19.837-4.959,3.306-2.48,6.612,3.306,24.8-18.184,21.49S452.7,705.617,452.7,705.617Z" transform="translate(-177.796 -207.141)" fill="#01183a"/>
    <path id="Path_3024" data-name="Path 3024" d="M486.768,175.111s7.439,20.663,1.653,32.235,9.092,24.8,9.092,24.8S536.36,212.3,531.4,202.386s-13.224-23.143-11.571-31.408Z" transform="translate(-184.202 -118.117)" fill="#ffb8b8"/>
    <circle id="Ellipse_178" data-name="Ellipse 178" cx="26.449" cy="26.449" r="26.449" transform="translate(290.59 11.947)" fill="#ffb8b8"/>
    <path id="Path_3025" data-name="Path 3025" d="M478.839,211.545s26.538,22.083,46.33-9.208l20.618,11.688,10.745,125.632s-60.337,34.714-89.265,4.959l4.133-116.54Z" transform="translate(-180.821 -123.557)" fill="#e4efff"/>
    <path id="Path_3026" data-name="Path 3026" d="M362.3,91.488l-37.262,24.769,13.224,61.163L320.909,272.47l28.1-42.153Z" transform="translate(-55.914 -15.871)" fill="#0b2d61"/>
    <path id="Path_3027" data-name="Path 3027" d="M529.084,190.169l9.152,6.041,37.194,13.224-5.786,102.489,15.7,66.122-22.316,11.571s-4.133-31.408-29.755-47.112S523.238,194.874,529.084,190.169Z" transform="translate(-189.831 -121.447)" fill="#0b2d61"/>
    <path id="Path_3028" data-name="Path 3028" d="M454.186,384.478l10.745,7.439s-13.638,14.464-16.117,11.985a6.777,6.777,0,0,1-2.066-5.372l-2.48-5.786Z" transform="translate(-176.789 -155.624)" fill="#ffb8b8"/>
    <path id="Path_3029" data-name="Path 3029" d="M540.109,382.532l-3.653,5.741s-10.745,4.959-8.265,8.265,23.143,10.745,27.276,3.306l4.133-7.439Z" transform="translate(-191.349 -155.284)" fill="#ffb8b8"/>
    <path id="Path_3030" data-name="Path 3030" d="M448.736,227.478l-5.786.827-9.505,61.576s-3.719,11.158.413,37.607,8.225,43.672,8.225,43.672l18.224-13.09-8.265-21.49,10.745-78.52Z" transform="translate(-174.639 -128.183)" fill="#0b2d61"/>
    <path id="Path_3031" data-name="Path 3031" d="M565.717,211.478l13.224,1.653s14.878,15.7,17.357,32.235,1.653,63.643,1.653,63.643l-38.02,60.337-20.663-14.878L568.2,303.223,554.146,242.06Z" transform="translate(-193.356 -125.38)" fill="#0b2d61"/>
    <path id="Path_3032" data-name="Path 3032" d="M523.176,121.5A30.9,30.9,0,0,0,505.6,108.06l-5.374,4.3,2.089-5.014a28.442,28.442,0,0,0-5.311-.307l-4.835,6.217,2-6a30.6,30.6,0,0,0-21.112,12.558c-6.154,8.873-7.192,21.213-1.14,30.156,1.661-5.106,3.678-9.9,5.34-15a15.113,15.113,0,0,0,3.937.019l2.021-4.717.565,4.517c6.265-.546,15.559-1.744,21.5-2.842l-.578-3.465,3.456,2.88c1.82-.419,2.9-.8,2.811-1.089,4.418,7.122,8.795,11.67,13.212,18.792C525.859,139.011,528.818,130.66,523.176,121.5Z" transform="translate(-180.915 -107.022)" fill="#131313"/>
    <ellipse id="Ellipse_179" data-name="Ellipse 179" cx="1.79" cy="3.581" rx="1.79" ry="3.581" transform="translate(338.979 33.984)" fill="#ffb8b8"/>
    <path id="Path_3033" data-name="Path 3033" d="M864.6,705.832c.762,26.084-14.479,35.643-33.605,36.2q-.667.019-1.327.024-1.331.01-2.635-.044c-17.3-.718-30.99-9.9-31.7-34.158-.733-25.1,30.426-57.721,32.764-60.134l0,0,.134-.138S863.834,679.75,864.6,705.832Z" transform="translate(-237.981 -201.918)" fill="#0b2d61"/>
    <path id="Path_3034" data-name="Path 3034" d="M833.616,738.082l12.15-18.068-12.125,20.012.025,2.033q-1.331.01-2.635-.044l.6-26.134-.017-.2.022-.039.058-2.47-13.306-19.318,13.29,17.47.047.522.455-19.745L820.691,672.07l11.525,16.56-.12-40.908v-.136l0,.134.763,32.241,10.475-13.1L832.9,682.737l.229,17.662,9.638-17.237L833.162,703l.127,9.821,14.017-24.011-13.974,27.437Z" transform="translate(-241.972 -201.919)" fill="#e4efff"/>
    <path id="Path_3035" data-name="Path 3035" d="M328.6,658.832c.762,26.084-14.479,35.643-33.605,36.2q-.666.02-1.327.024-1.331.01-2.635-.044c-17.3-.718-30.99-9.9-31.7-34.158-.733-25.1,30.426-57.721,32.764-60.134l0,0,.134-.138S327.834,632.75,328.6,658.832Z" transform="translate(-144.464 -193.765)" fill="#0b2d61"/>
    <path id="Path_3036" data-name="Path 3036" d="M297.616,691.082l12.15-18.068-12.125,20.012.025,2.033q-1.33.01-2.635-.044l.6-26.134-.017-.2.022-.039.058-2.469-13.3-19.318,13.29,17.47.047.522.455-19.745L284.692,625.07l11.525,16.56-.12-40.907v-.136l0,.134.763,32.241,10.474-13.1L296.9,635.737l.229,17.662,9.638-17.237L297.162,656l.127,9.821,14.017-24.011-13.974,27.437Z" transform="translate(-148.589 -193.766)" fill="#e4efff"/>
    <path id="Path_3037" data-name="Path 3037" d="M735.119,755.373c.447,15.311-8.5,20.921-19.726,21.25q-.391.011-.779.014-.781.006-1.547-.026c-10.154-.422-18.191-5.811-18.606-20.05-.43-14.735,17.859-33.881,19.232-35.3h0l.079-.081S734.672,740.063,735.119,755.373Z" transform="translate(-220.387 -214.686)" fill="#0b2d61"/>
    <path id="Path_3038" data-name="Path 3038" d="M716.935,774.3l7.132-10.606-7.117,11.747.015,1.193q-.781.006-1.547-.026l.354-15.34-.01-.118.013-.023.034-1.45L708,748.341l7.8,10.254.028.306.267-11.59-6.746-11.756,6.765,9.72-.071-24.012v-.08l0,.079.448,18.924,6.148-7.687-6.128,9.317.134,10.367,5.657-10.118-5.637,11.642.075,5.765,8.227-14.094-8.2,16.1Z" transform="translate(-222.733 -214.686)" fill="#e4efff"/>
    <path id="Path_3039" data-name="Path 3039" d="M1079.55,158.161c.024-.075.049-.152.073-.227-.01.033-.023.065-.033.1Z" transform="translate(-287.446 -115.855)" fill="#2f2e41"/>
    <path id="Path_3040" data-name="Path 3040" d="M923.711,592.053,984.93,501.23l-61.094,100.6.128,10.22q-6.7.051-13.278-.223l3.036-131.372-.083-1.014.112-.2.291-12.414L847,369.719l66.963,87.817.238,2.624,2.293-99.256L858.587,260.225l58.071,83.242-.606-205.633v-.684l.02.673,3.844,162.067,52.775-65.831-52.6,79.793,1.152,88.782,48.564-86.648-48.385,99.7.641,49.367,70.625-120.7-70.41,137.922Z" transform="translate(-247.105 -112.249)" fill="#273a57"/>
    <path id="Path_3041" data-name="Path 3041" d="M172.558,619.439l41.658-61.949L172.644,626.1l.087,6.971q-4.562.035-9.035-.152l2.066-89.606-.057-.691.076-.134.2-8.467-45.62-66.235,45.567,59.9.162,1.79,1.561-67.7-39.4-68.671,39.516,56.778-.412-140.258v-.467l.013.459,2.616,110.542,35.912-44.9L170.1,429.682l.784,60.557,33.046-59.1-32.925,68,.436,33.673,48.058-82.327-47.912,94.074Z" transform="translate(-120.359 -143.211)" fill="#273a57"/>
  </g>
</svg>
