<svg xmlns="http://www.w3.org/2000/svg" width="610" height="446.483" viewBox="0 0 610 446.483">
  <g id="why-choose" transform="translate(-227 -187)">
    <path id="Path_498" data-name="Path 498" d="M835.018,533.761a9.04,9.04,0,0,0-2.988-13.535l1.786-20.58-12.243-4.136-2.115,29.1a9.089,9.089,0,0,0,15.558,9.154Z" transform="translate(-91.862 -70.374)" fill="#ffb8b8"/>
    <path id="Path_499" data-name="Path 499" d="M672.194,512.576H661.177l-5.241-42.514H672.2Z" transform="translate(132.049 110.674)" fill="#ffb8b8"/>
    <path id="Path_500" data-name="Path 500" d="M652.708,510.894h21.255v13.383H639.325A13.383,13.383,0,0,1,652.708,510.894Z" transform="translate(132.647 109.206)" fill="#8aa1c5"/>
    <path id="Path_501" data-name="Path 501" d="M645.887,483.36l-10.7,2.63-15.238-40.03,15.8-3.882Z" transform="translate(133.344 111.681)" fill="#ffb8b8"/>
    <path id="Path_502" data-name="Path 502" d="M13.383,0H34.638V13.383H0A13.383,13.383,0,0,1,13.383,0Z" transform="translate(747.289 599.309) rotate(-13.828)" fill="#8aa1c5"/>
    <path id="Path_503" data-name="Path 503" d="M883.59,681.326a4.058,4.058,0,0,1-4.049-3.643L866.862,559.54l-11.036,36.128,15.63,56.428a4.073,4.073,0,0,1-2.415,4.874l-12.426,4.971a4.078,4.078,0,0,1-5.365-2.445L832.1,604.538a49.755,49.755,0,0,1-2.733-18.7l2.674-59.31,70.416,2.982-1.1,146.741a4.1,4.1,0,0,1-3.771,4.035l-13.675,1.031Q883.747,681.325,883.59,681.326Z" transform="translate(-92.241 -71.631)" fill="#8aa1c5"/>
    <circle id="Ellipse_83" data-name="Ellipse 83" cx="23.678" cy="23.678" r="23.678" transform="translate(756.009 276.551)" fill="#ffb8b8"/>
    <path id="Path_504" data-name="Path 504" d="M889.28,528.743c-6.235,0-13.979-.51-22-1.037-10.951-.721-22.275-1.466-30.729-.977a6.716,6.716,0,0,1-6.008-2.616c-8.714-11.158,4.724-54.669,5.3-56.515l10.936-48.653.47.106-.47-.106c2.41-10.7,10.094-18.594,20.065-20.6,9.332-1.874,18.358,1.862,24.147,10q.461.648.921,1.329c18.849,27.916,8.188,97.271,7.473,101.744,1,1.192,6.38,7.936,4.9,12.62-.6,1.906-2.238,3.2-4.861,3.856a45.314,45.314,0,0,1-10.153.844Z" transform="translate(-92.18 -66.817)" fill="#0b2d61"/>
    <path id="Path_505" data-name="Path 505" d="M836.818,528.824c-2.145,0-5.038-.792-8.939-2.41-1.676-.7-6.778-2.82-.584-56.948,3.042-26.588,7.4-52.991,7.444-53.254l.042-.255.235-.106c.112-.051,11.243-5.153,13.178-11.709a6.548,6.548,0,0,1,.226-.66,6.02,6.02,0,0,1,7.475-3.671,6.325,6.325,0,0,1,4.764,7.219,44.361,44.361,0,0,1-3.848,12.332c-5.238,10.807-8.786,39.456-8.821,39.744-.2,2.447-4.953,60.418-5.869,64.817-.32,1.537-.908,3.417-2.635,4.329a5.632,5.632,0,0,1-2.667.578Z" transform="translate(-92.061 -66.877)" fill="#8aa1c5"/>
    <path id="Path_506" data-name="Path 506" d="M863.989,526.651a1.945,1.945,0,0,1-1.194-.41c-6.966-5.293,4.307-69.46,10.99-91.6,1.339-4.435,2.531-8.23,3.544-11.285h0a86.046,86.046,0,0,0,3.845-16.876c.368-3.11,1.168-4.886,2.446-5.43.888-.379,1.928-.121,3.1.764,6.177-.3,12.178,2.217,17.738,4.995l5.005,2.5,5.616,99.44c-.159,6.346-12.668,10.826-18.124,11.112-8.762.46-24.5,1.887-31.428,6.275a2.9,2.9,0,0,1-1.542.517Z" transform="translate(-93.367 -66.926)" fill="#8aa1c5"/>
    <path id="Path_507" data-name="Path 507" d="M831.084,508.483c-.083,0-.166,0-.25-.008l-11.345-.7a4.077,4.077,0,0,1-3.782-4.679l5.133-34.01,9.663-47.72a8.56,8.56,0,0,1,10.953-6.468h0a8.607,8.607,0,0,1,5.888,9.524l-7.678,47.816-4.545,32.726a4.1,4.1,0,0,1-4.04,3.516Z" transform="translate(-91.753 -67.415)" fill="#8aa1c5"/>
    <path id="Path_508" data-name="Path 508" d="M871.809,472.964a9.04,9.04,0,0,1,13.713-2.018l18.6-8.985,8.217,9.972-26.446,12.319a9.089,9.089,0,0,1-14.086-11.289Z" transform="translate(-93.72 -69.133)" fill="#ffb8b8"/>
    <path id="Path_509" data-name="Path 509" d="M898.411,480.69a4.08,4.08,0,0,1-3.966-3.124l-2.7-11.231a4.059,4.059,0,0,1,1.87-4.453l16.292-9.752-8.329-30.5a10.366,10.366,0,0,1,19.852-5.959l9.2,28.078a16.944,16.944,0,0,1-6.19,19.062l-23.638,17.1A4.072,4.072,0,0,1,898.411,480.69Z" transform="translate(-94.482 -67.184)" fill="#8aa1c5"/>
    <path id="Path_511" data-name="Path 511" d="M698.447,187H242.27a16.1,16.1,0,0,0-16.08,16.08v49.089a16.1,16.1,0,0,0,16.08,16.08H698.447a16.1,16.1,0,0,0,16.08-16.08V203.08A16.1,16.1,0,0,0,698.447,187Zm14.387,65.169a14.409,14.409,0,0,1-14.387,14.387H242.27a14.408,14.408,0,0,1-14.387-14.387V203.08a14.408,14.408,0,0,1,14.387-14.387H698.447a14.409,14.409,0,0,1,14.387,14.387Z" transform="translate(0.81 0)" fill="#fff"/>
    <path id="Path_512" data-name="Path 512" d="M698.447,388.522H242.27a16.1,16.1,0,0,1-16.08-16.08V323.354a16.1,16.1,0,0,1,16.08-16.08H698.447a16.1,16.1,0,0,1,16.08,16.08v49.088a16.1,16.1,0,0,1-16.08,16.08ZM242.27,308.967a14.4,14.4,0,0,0-14.387,14.387v49.088a14.4,14.4,0,0,0,14.387,14.39H698.447a14.4,14.4,0,0,0,14.388-14.387V323.354a14.4,14.4,0,0,0-14.387-14.387Z" transform="translate(0.81 -4.435)" fill="#273a57"/>
    <path id="Path_513" data-name="Path 513" d="M698.447,508.8H242.27a16.1,16.1,0,0,1-16.08-16.08V443.628a16.1,16.1,0,0,1,16.08-16.08H698.447a16.1,16.1,0,0,1,16.08,16.08v49.088a16.1,16.1,0,0,1-16.08,16.08ZM242.27,429.237a14.4,14.4,0,0,0-14.387,14.387v49.088A14.4,14.4,0,0,0,242.27,507.1H698.447a14.4,14.4,0,0,0,14.388-14.387V443.628a14.4,14.4,0,0,0-14.388-14.391Z" transform="translate(0.81 -8.869)" fill="#273a57"/>
    <path id="Path_514" data-name="Path 514" d="M305.765,256.084A27.988,27.988,0,1,1,333.753,228.1,27.988,27.988,0,0,1,305.765,256.084Z" transform="translate(-1.045 -0.471)" fill="#fff"/>
    <path id="Path_515" data-name="Path 515" d="M661.8,252.338H363.047a6.771,6.771,0,1,1,0-13.542H661.8a6.771,6.771,0,0,1,0,13.542Z" transform="translate(-4.067 -1.863)" fill="#273a57"/>
    <path id="Path_516" data-name="Path 516" d="M564.468,222.489H363.04a6.771,6.771,0,1,1,0-13.542H564.468a6.771,6.771,0,0,1,0,13.542Z" transform="translate(-4.018 -0.789)" fill="#273a57"/>
    <path id="Path_517" data-name="Path 517" d="M305.765,376.357a27.988,27.988,0,1,1,27.988-27.988A27.988,27.988,0,0,1,305.765,376.357Z" transform="translate(-1.045 -4.91)" fill="#273a57"/>
    <path id="Path_518" data-name="Path 518" d="M661.8,372.612H363.047a6.771,6.771,0,1,1,0-13.542H661.8a6.771,6.771,0,0,1,0,13.542Z" transform="translate(-4.067 -6.32)" fill="#273a57"/>
    <path id="Path_519" data-name="Path 519" d="M564.468,342.763H363.04a6.771,6.771,0,1,1,0-13.542H564.468a6.771,6.771,0,0,1,0,13.542Z" transform="translate(-4.018 -5.224)" fill="#273a57"/>
    <path id="Path_520" data-name="Path 520" d="M305.765,496.631a27.988,27.988,0,1,1,27.988-27.988A27.988,27.988,0,0,1,305.765,496.631Z" transform="translate(-1.045 -9.338)" fill="#273a57"/>
    <path id="Path_521" data-name="Path 521" d="M661.8,492.886H363.047a6.771,6.771,0,1,1,0-13.542H661.8a6.771,6.771,0,0,1,0,13.542Z" transform="translate(-4.067 -10.737)" fill="#273a57"/>
    <path id="Path_522" data-name="Path 522" d="M564.468,463.037H363.04a6.771,6.771,0,1,1,0-13.542H564.468a6.771,6.771,0,0,1,0,13.542Z" transform="translate(-4.018 -9.641)" fill="#273a57"/>
    <path id="Path_395" data-name="Path 395" d="M304.936,238.476a3.2,3.2,0,0,1-1.928-.64l-.035-.026-7.254-5.549a3.224,3.224,0,1,1,3.923-5.117l4.7,3.6,11.1-14.486a3.223,3.223,0,0,1,4.517-.6h0l-.068.1.07-.1a3.227,3.227,0,0,1,.6,4.518L307.5,237.214a3.225,3.225,0,0,1-2.564,1.253Z" transform="translate(-1.645 -1.007)" fill="#0b2d61"/>
    <path id="Path_561" data-name="Path 561" d="M37.726,28.116S28.617,14.741,23.4,19.144,3.578,32.187.5,25.349,9.254,5.985,18.186,2.99,42.8-3.985,47.721,9.221a57.747,57.747,0,0,1,2.886,26.149Z" transform="matrix(0.914, 0.407, -0.407, 0.914, 765.353, 265.496)" fill="#212121"/>
  </g>
</svg>
