<svg xmlns="http://www.w3.org/2000/svg" width="610" height="554.339" viewBox="0 0 610 554.339">
  <g id="social-media-post-design" transform="translate(-3.034 0)">
    <path id="Path_4908" data-name="Path 4908" d="M383.131,604.763l-.076-12.7-1.12-188.478-.042-7.053-.617-103.735a227.573,227.573,0,0,0-28.909-15.409c-39.154-17.338-85.709-24.488-124.258-5.853a91.426,91.426,0,0,0-44.583,49.62c-.228.57-.437,1.122-.63,1.674-6.429,18.338-6.382,38.254,3.03,55.449,16.849,30.9,54.528,42.315,87.994,53.221,33.448,10.905,70.543,28.664,78.883,62.851A62.684,62.684,0,0,0,245.09,512.985c-.612,1.709-1.17,3.436-1.657,5.18A59.426,59.426,0,0,0,241.342,531c-1.633,33.144,23.772,62.841,53.915,76.75,27.257,12.559,57.848,14.953,87.987,16.16Z" transform="translate(-175.382 -141.401)" fill="#273a57"/>
    <path id="Path_4909" data-name="Path 4909" d="M395.926,641.958l.075,12.7a137.417,137.417,0,0,0-75.682-77.119,138.85,138.85,0,0,0-64.016-9.48c.488-1.744,1.046-3.471,1.657-5.18a147.961,147.961,0,0,1,25.408.382,141.093,141.093,0,0,1,80.839,36.172A144.132,144.132,0,0,1,395.926,641.958Z" transform="translate(-188.252 -191.347)" fill="#8aa1c5"/>
    <path id="Path_4910" data-name="Path 4910" d="M382.78,408.422l.042,7.053a176.572,176.572,0,0,0-22.781-18.555c-25.154-17.315-53.568-30.4-82.409-40.2a382.75,382.75,0,0,0-91.362-19.16,2.739,2.739,0,0,1-2.487-2.846,2.347,2.347,0,0,1,.629-1.674,1.944,1.944,0,0,1,1.685-.508c3.84.315,7.661.665,11.5,1.1A386.78,386.78,0,0,1,290.741,356.1c28.953,10.879,57.587,24.922,82.058,44C376.243,402.722,379.582,405.492,382.78,408.422Z" transform="translate(-176.268 -153.446)" fill="#8aa1c5"/>
    <circle id="Ellipse_511" data-name="Ellipse 511" cx="10.66" cy="10.66" r="10.66" transform="translate(29.391 76.799)" fill="#8aa1c5"/>
    <path id="Path_4911" data-name="Path 4911" d="M691.573,249.845h-3.044v-83.44a48.281,48.281,0,0,0-48.271-48.292h-176.7a48.282,48.282,0,0,0-48.271,48.292V624.159a48.282,48.282,0,0,0,48.271,48.292h176.7a48.282,48.282,0,0,0,48.271-48.292V309.238h3.045Z" transform="translate(-214.361 -118.113)" fill="#fff"/>
    <path id="Path_4912" data-name="Path 4912" d="M680.892,169.223V626.317c0,.668-.017,1.328-.059,1.988a36.042,36.042,0,0,1-35.994,34.074H467.293A36.039,36.039,0,0,1,431.3,628.171q-.05-.915-.05-1.854V169.223a36.059,36.059,0,0,1,36.048-36.07h21.541a17.136,17.136,0,0,0,15.852,23.61H605.922a17.137,17.137,0,0,0,15.852-23.61h23.065a36.065,36.065,0,0,1,36.054,36.067Z" transform="translate(-217 -120.599)" fill="#273a57"/>
    <path id="Path_4913" data-name="Path 4913" d="M677.623,528.8H434.531a3.225,3.225,0,0,1-3.221-3.221V227.344a3.225,3.225,0,0,1,3.221-3.221H677.623a3.225,3.225,0,0,1,3.221,3.221V525.582a3.224,3.224,0,0,1-3.221,3.22Z" transform="translate(-217.011 -135.543)" fill="#273a57"/>
    <path id="Path_4914" data-name="Path 4914" d="M663.412,249.053H456.5a3.224,3.224,0,0,0-3.222,3.222V467.768a3.222,3.222,0,0,0,3.222,3.214H663.412a3.223,3.223,0,0,0,3.222-3.214V252.275a3.225,3.225,0,0,0-3.222-3.222Z" transform="translate(-220.643 -139.669)" fill="#8aa1c5"/>
    <circle id="Ellipse_512" data-name="Ellipse 512" cx="8.348" cy="8.348" r="8.348" transform="translate(223.865 60.937)" fill="#fff"/>
    <path id="Path_4915" data-name="Path 4915" d="M497.136,488.133c-14.254-22.958-9.343-52.287-6.943-79.2a361.539,361.539,0,0,0-9.567-120.391,92.837,92.837,0,0,1,22.461,46.954c2.353,14.57,1.19,29.56,3.856,44.077,5.716,31.127,28.734,59.2,25.171,90.645-.787,6.951-3.436,14.427-9.608,17.72-6.966,3.718-15.469.761-22.776-2.232" transform="translate(-225.196 -146.175)" fill="#273a57"/>
    <path id="Path_4916" data-name="Path 4916" d="M468.763,538.571a8.344,8.344,0,1,0-11.83,11.771l.029.029,11.8,11.8,11.8-11.8a8.344,8.344,0,0,0-11.8-11.8Z" transform="translate(-220.895 -187.02)" fill="#fb7878"/>
    <path id="Path_4917" data-name="Path 4917" d="M512.763,538.571a8.344,8.344,0,1,0-11.83,11.771l.029.029,11.8,11.8,11.8-11.8a8.344,8.344,0,0,0-11.8-11.8Z" transform="translate(-228.148 -187.02)" fill="#fb7878"/>
    <path id="Path_4918" data-name="Path 4918" d="M556.763,538.571a8.344,8.344,0,1,0-11.83,11.771l.029.029,11.8,11.8,11.8-11.8a8.344,8.344,0,0,0-11.8-11.8Z" transform="translate(-235.402 -187.02)" fill="#fb7878"/>
    <path id="Path_4919" data-name="Path 4919" d="M612.731,206.406H495.017a6.441,6.441,0,1,1,0-12.883H612.731a6.441,6.441,0,1,1,0,12.883Z" transform="translate(-226.486 -130.574)" fill="#fff"/>
    <path id="Path_4920" data-name="Path 4920" d="M677.622,656.123H434.531a3.224,3.224,0,0,0-3.222,3.222v55.011A36.031,36.031,0,0,0,467.3,748.548H644.849a36.035,36.035,0,0,0,35.995-34.058V659.345A3.224,3.224,0,0,0,677.622,656.123Z" transform="translate(-217.011 -206.767)" fill="#273a57"/>
    <path id="Path_4921" data-name="Path 4921" d="M663.412,681.053H456.5a3.224,3.224,0,0,0-3.222,3.222v63.776a35.855,35.855,0,0,0,17.655,4.616H648.479a35.9,35.9,0,0,0,18.156-4.9V684.275a3.224,3.224,0,0,0-3.223-3.222Z" transform="translate(-220.643 -210.887)" fill="#8aa1c5"/>
    <circle id="Ellipse_513" data-name="Ellipse 513" cx="8.348" cy="8.348" r="8.348" transform="translate(223.865 421.747)" fill="#e4e4e4"/>
    <path id="Path_4922" data-name="Path 4922" d="M612.731,638.406H495.017a6.441,6.441,0,1,1,0-12.883H612.731a6.441,6.441,0,1,1,0,12.883Z" transform="translate(-226.486 -201.765)" fill="#e4e4e4"/>
    <path id="Path_4923" data-name="Path 4923" d="M545.491,762.333H484.329c6.227-12.254,17.722-22.238,31.27-22.764a27.575,27.575,0,0,1,6.094.451c.843.15,1.669.351,2.5.568a29.412,29.412,0,0,1,21.3,21.745Z" transform="translate(-225.804 -220.553)" fill="#bbceeb"/>
    <path id="Path_4924" data-name="Path 4924" d="M658.349,754.995H575.3a120.006,120.006,0,0,0,3.247-11.6c3.731-16.119,7.53-34.217,21.295-43.382,7.663-5.109,16.987-5.944,25.827-3.69.267.067.543.142.81.225a42.929,42.929,0,0,1,25.06,18.824C658.575,727.172,660.144,741.213,658.349,754.995Z" transform="translate(-240.791 -213.214)" fill="#bbceeb"/>
    <path id="Path_4925" data-name="Path 4925" d="M532.445,752.584a64.447,64.447,0,0,1-.876,9.842h-2.388a65.035,65.035,0,0,0-.092-22.313c.843.15,1.669.351,2.5.568a68.458,68.458,0,0,1,.86,11.9Z" transform="translate(-233.196 -220.646)" fill="#fff"/>
    <path id="Path_4926" data-name="Path 4926" d="M634.7,697.545c.008,1.8,0,3.615-.05,5.426a181.363,181.363,0,0,1-6.678,44.518q-1.077,3.882-2.329,7.738h-2.454c1.5-4.574,2.813-9.207,3.948-13.849a179.288,179.288,0,0,0,5.209-43.541,1.294,1.294,0,0,1,1.235-1.286,1.128,1.128,0,0,1,.81.225A.921.921,0,0,1,634.7,697.545Z" transform="translate(-248.707 -213.447)" fill="#fff"/>
    <circle id="Ellipse_514" data-name="Ellipse 514" cx="5.009" cy="5.009" r="5.009" transform="translate(425.093 489.471)" fill="#f2f2f2"/>
    <circle id="Ellipse_515" data-name="Ellipse 515" cx="5.009" cy="5.009" r="5.009" transform="translate(304.984 123.766)" fill="#0b2d61"/>
    <circle id="Ellipse_516" data-name="Ellipse 516" cx="5.009" cy="5.009" r="5.009" transform="translate(397.685 152.996)" fill="#e4e4e4"/>
    <circle id="Ellipse_517" data-name="Ellipse 517" cx="5.009" cy="5.009" r="5.009" transform="translate(395.179 254.883)" fill="#e4e4e4"/>
    <path id="Path_4927" data-name="Path 4927" d="M613.506,474.042l-3.389-10.852a62.635,62.635,0,0,0-2.212-7.446c-3.823-11.553-12.221-34.851-22.113-59.193l-11.637-11.637-3.222-2.1-3.047-1.978-1.311,1.21-12.5,11.536-.092.76-8.164,69.385s-.025.192-.067.568c-.092.81-.284,2.463-.534,4.825-.476,4.441-1.244,12.2-2,21.971h75.6Z" transform="translate(-235.507 -161.403)" fill="#01183a"/>
    <path id="Path_4928" data-name="Path 4928" d="M388.608,315.262l-3.173,19.8,21.472,8.857Z" transform="translate(-64.194 -51.97)" opacity="0.2"/>
    <path id="Path_4929" data-name="Path 4929" d="M599.429,325.42a28.667,28.667,0,0,0-49.81,19.366v21.395a3.858,3.858,0,0,0,3.856,3.857h49.643a3.856,3.856,0,0,0,3.848-3.857V344.787a28.617,28.617,0,0,0-7.538-19.366Z" transform="translate(-236.567 -150.749)" fill="#1c1c1c"/>
    <circle id="Ellipse_518" data-name="Ellipse 518" cx="21.022" cy="21.022" r="21.022" transform="translate(326.189 175.956)" fill="#ffb8b8"/>
    <path id="Path_4930" data-name="Path 4930" d="M602.3,326.946a22.454,22.454,0,0,0-8.356-1.6h-4.282a22.646,22.646,0,0,0-18.43,9.489c-.143.186-.269.378-.394.561a22.5,22.5,0,0,0-3.856,12.63v.426h9.041l3.088-8.64.618,8.64H584.4l1.553-4.357.309,4.357c9.776,3.613,19.918,3.381,30.36,0v-.426A22.7,22.7,0,0,0,602.3,326.946Z" transform="translate(-239.43 -152.275)" fill="#1c1c1c"/>
    <path id="Path_4931" data-name="Path 4931" d="M588.725,371.957a1.1,1.1,0,0,0-.066-.142c-2.83-5.393-6.378-13.648-6.578-21.487-.117-4.683.969-9.224,4.124-12.905l.6-.71H562.339v36.738l7.4,1.3,4.358.768,10.476,1.853a3.8,3.8,0,0,0,.685.058,3.84,3.84,0,0,0,3.105-1.586,3.742,3.742,0,0,0,.734-2.4A3.636,3.636,0,0,0,588.725,371.957Z" transform="translate(-238.672 -154.147)" fill="#1c1c1c"/>
    <path id="Path_4932" data-name="Path 4932" d="M546.95,478.977h0a38.614,38.614,0,0,0,46.352,9.369l4.575-2.264Z" transform="translate(-236.129 -177.605)" opacity="0.2"/>
    <path id="Path_4933" data-name="Path 4933" d="M830.95,549.344a9.882,9.882,0,0,1,12.066-9.168l13.069-18.418,13.13,5.212-18.821,25.75a9.936,9.936,0,0,1-19.443-3.376Z" transform="translate(-282.932 -184.651)" fill="#a0616a"/>
    <path id="Path_4934" data-name="Path 4934" d="M848.128,516.291l23.236-39.08L861.9,451.966l12.894-34.384.476.2c.312.134,7.638,3.4,8.724,15.11l14.817,46.567-39.545,51.3Z" transform="translate(-285.773 -167.458)" fill="#01183a"/>
    <path id="Path_4935" data-name="Path 4935" d="M694.726,363.7a9.883,9.883,0,0,1,8.208,12.738L720.286,390.9l-6.212,12.687-24.218-20.756a9.936,9.936,0,0,1,4.869-19.124Z" transform="translate(-258.64 -158.582)" fill="#a0616a"/>
    <path id="Path_4936" data-name="Path 4936" d="M711.513,382.311,748.679,408.5l25.9-7.487,33.284,15.513-.24.458c-.157.3-3.983,7.352-15.74,7.529l-47.574,11.172-48.09-43.393Z" transform="translate(-260.672 -161.661)" fill="#0b2d61"/>
    <path id="Path_4937" data-name="Path 4937" d="M618.235,635.832H605.314l-6.147-49.838h19.07Z" transform="translate(-99.387 -96.583)" fill="#a0616a"/>
    <path id="Path_4938" data-name="Path 4938" d="M588.466,641.274h28.822v15.69H576.679v-3.9A11.786,11.786,0,0,1,588.466,641.274Z" transform="translate(-95.671 -105.717)" fill="#273a57"/>
    <path id="Path_4939" data-name="Path 4939" d="M680.1,635.832h-12.92l-6.147-49.838H680.1Z" transform="translate(-109.609 -96.583)" fill="#a0616a"/>
    <path id="Path_4940" data-name="Path 4940" d="M650.33,641.274h28.822v15.69H638.544v-3.9a11.786,11.786,0,0,1,11.786-11.786Z" transform="translate(-105.893 -105.717)" fill="#273a57"/>
    <path id="Path_4941" data-name="Path 4941" d="M673.941,427.774l-1.054,73.775-1.054,96.961L648.647,596.4,637.054,462.553,622.3,596.4H598.362l-2.411-134.9,8.431-29.51Z" transform="translate(-98.855 -70.438)" fill="#273a57"/>
    <path id="Path_4942" data-name="Path 4942" d="M776.584,523.536l-3.532-.153L789.458,433l-6.718-27.319a5.978,5.978,0,0,1,3.705-7.024l12.087-4.532,4.27-11.743,33.691,3.63.829,9.178c3.651,1.171,33.716,11.183,31.641,22.592-2.047,11.261-14.136,46.688-14.75,48.484L852.1,517.073l-.26.13c-.314.157-23.536,11.575-48.764,11.573A64.137,64.137,0,0,1,776.584,523.536Z" transform="translate(-273.368 -161.647)" fill="#0b2d61"/>
    <circle id="Ellipse_519" data-name="Ellipse 519" cx="24.258" cy="24.258" r="24.258" transform="translate(512.039 200.264) rotate(-61.337)" fill="#a0616a"/>
    <path id="Path_4943" data-name="Path 4943" d="M841.707,363.534c-4.623,4.924-13.208,2.281-13.811-4.447a8.125,8.125,0,0,1,.01-1.57c.311-2.98,2.033-5.685,1.62-8.832a4.63,4.63,0,0,0-.848-2.168c-3.684-4.933-12.332,2.206-15.808-2.259-2.132-2.738.374-7.05-1.262-10.11-2.159-4.039-8.555-2.047-12.565-4.259-4.462-2.461-4.2-9.308-1.258-13.472,3.582-5.079,9.863-7.789,16.066-8.179s12.363,1.286,18.153,3.543c6.579,2.564,13.1,6.108,17.153,11.893,4.924,7.036,5.4,16.494,2.935,24.721C850.6,353.4,845.482,359.512,841.707,363.534Z" transform="translate(-277.098 -149.441)" fill="#232323"/>
    <path id="Path_4945" data-name="Path 4945" d="M636.587,484.574h-13a1.672,1.672,0,0,1-1.67-1.515l-2.6-26.672h21.544l-2.6,26.672A1.672,1.672,0,0,1,636.587,484.574Z" transform="translate(-248.066 -173.877)" fill="#0b2d61"/>
    <path id="Path_4946" data-name="Path 4946" d="M640.5,458.947H619.025a1.68,1.68,0,0,1-1.678-1.678v-4.027a1.68,1.68,0,0,1,1.678-1.678H640.5a1.68,1.68,0,0,1,1.678,1.678v4.027A1.68,1.68,0,0,1,640.5,458.947Z" transform="translate(-247.74 -173.087)" fill="#3f3d56"/>
    <path id="Path_4947" data-name="Path 4947" d="M626.113,472.089a9.647,9.647,0,0,0-14.786.447L590.1,466.577l-6.767,12.015,30.092,7.994a9.7,9.7,0,0,0,12.686-14.5Z" transform="translate(-242.128 -175.559)" fill="#ffb8b8"/>
    <path id="Path_4948" data-name="Path 4948" d="M581.447,454.076l-10.075-6.419L568.5,446.3l-12.981-6.119c.384-1.319,1.486-5.259,2.53-10.251,2.437-11.678,4.516-29.116-3.873-32.172a11.771,11.771,0,0,0-3.714-.751,9.713,9.713,0,0,0-4.892,1.119c-6.286,3.281-8.782,12.513-8.873,12.855l-7.772,21.328c-.718.985-8.105,11.219-6.912,18.8a7.949,7.949,0,0,0,3.339,5.443,143.319,143.319,0,0,0,16.879,10.409q2.041,1.052,3.99,1.945c7.279,3.322,13.7,5.017,19.091,5.017a21.329,21.329,0,0,0,5.234-.609l20.944-.476.133-.6.05-.234,2.78-12.855.785-3.64Z" transform="translate(-231.991 -164.077)" fill="#01183a"/>
  </g>
</svg>
