<svg xmlns="http://www.w3.org/2000/svg" width="610" height="478.329" viewBox="0 0 610 478.329">
  <g id="services_" data-name="services " transform="translate(-16.096 0)">
    <path id="Path_2887" data-name="Path 2887" d="M665.9,129.812c5.452,11.6-6.1,14.888-19.334,21.107s-23.137,13.015-28.589,1.412S608.1,117.7,626.823,108.9C646.19,99.8,660.449,118.21,665.9,129.812Z" transform="translate(-295.672 -106.46)" fill="#444"/>
    <circle id="Ellipse_156" data-name="Ellipse 156" cx="17.815" cy="17.815" r="17.815" transform="translate(325.416 10.538)" fill="#ffb8b8"/>
    <path id="Path_2888" data-name="Path 2888" d="M746.357,245.624c-.617-.805-1.233-1.6-1.857-2.365q-1.208-1.5-2.43-2.909c-9.234-10.655-19.055-17.365-29.87-18.083h-.015l-.16-.015-21.55,21.006L683.15,250.4l.16.392,3.953,9.843h69.264a170.322,170.322,0,0,0-10.169-15.008Z" transform="translate(-314.967 -138.393)" fill="#273a57"/>
    <path id="Path_2889" data-name="Path 2889" d="M621.222,144.674h0l6.377-3-.888-9.2,4.264,7.613,3.048-1.432-.518-5.367,2.488,4.441,22.649-10.643h0a18.859,18.859,0,0,0-25.089-9.048l-3.282,1.542A18.859,18.859,0,0,0,621.222,144.674Z" transform="translate(-297.361 -109.149)" fill="#444"/>
    <path id="Path_2890" data-name="Path 2890" d="M680.008,508.775H308.02a11.982,11.982,0,0,1-11.968-11.968V273.287a8.778,8.778,0,0,1,8.768-8.768H683.057a8.93,8.93,0,0,1,8.92,8.92V496.807a11.982,11.982,0,0,1-11.968,11.968Z" transform="translate(-208.08 -150.205)" fill="#f2f2f2"/>
    <path id="Path_2891" data-name="Path 2891" d="M324.158,504.138H672.935a11.606,11.606,0,0,0,11.606-11.606V302.819a11.606,11.606,0,0,0-11.606-11.606H324.158a11.606,11.606,0,0,0-11.606,11.606V492.533A11.606,11.606,0,0,0,324.158,504.138Z" transform="translate(-212.611 -157.547)" fill="#fff"/>
    <path id="Path_2892" data-name="Path 2892" d="M691.746,268.81H295.82v-6.093a12.022,12.022,0,0,1,12.012-12h371.9a12.022,12.022,0,0,1,12.012,12Z" transform="translate(-208.016 -146.234)" fill="#0b2d61"/>
    <circle id="Ellipse_157" data-name="Ellipse 157" cx="3.107" cy="3.107" r="3.107" transform="translate(106.527 110.433)" fill="#fff"/>
    <circle id="Ellipse_158" data-name="Ellipse 158" cx="3.107" cy="3.107" r="3.107" transform="translate(118.32 110.433)" fill="#fff"/>
    <circle id="Ellipse_159" data-name="Ellipse 159" cx="3.107" cy="3.107" r="3.107" transform="translate(130.114 110.433)" fill="#fff"/>
    <path id="Path_2893" data-name="Path 2893" d="M569.555,511.012h-31.19a6.9,6.9,0,0,1-6.891-6.891v-31.19a6.9,6.9,0,0,1,6.891-6.891h31.19a6.9,6.9,0,0,1,6.891,6.891v31.19A6.9,6.9,0,0,1,569.555,511.012Zm-31.19-43.521a5.446,5.446,0,0,0-5.44,5.44v31.19a5.446,5.446,0,0,0,5.44,5.44h31.19a5.446,5.446,0,0,0,5.44-5.44v-31.19a5.446,5.446,0,0,0-5.44-5.44Z" transform="translate(-273.111 -205.629)" fill="#ccc"/>
    <path id="Path_2894" data-name="Path 2894" d="M567.509,505.6H548.65a2.179,2.179,0,0,1-2.176-2.176V480.216a2.178,2.178,0,0,1,2.176-2.176h13.665a2.181,2.181,0,0,1,1.363.48l5.194,4.174a2.165,2.165,0,0,1,.813,1.7v19.038A2.178,2.178,0,0,1,567.509,505.6ZM548.65,479.491a.726.726,0,0,0-.725.725v23.211a.726.726,0,0,0,.725.725h18.859a.726.726,0,0,0,.725-.725V484.39a.722.722,0,0,0-.271-.565l-5.194-4.174a.727.727,0,0,0-.454-.16Z" transform="translate(-277.233 -208.922)" fill="#ccc"/>
    <path id="Path_2895" data-name="Path 2895" d="M565.8,491.491H554.2a.725.725,0,0,1,0-1.451H565.8a.725.725,0,1,1,0,1.451Z" transform="translate(-279.157 -212.208)" fill="#ccc"/>
    <path id="Path_2896" data-name="Path 2896" d="M565.8,497.491H554.2a.725.725,0,0,1,0-1.451H565.8a.725.725,0,1,1,0,1.451Z" transform="translate(-279.157 -213.862)" fill="#ccc"/>
    <path id="Path_2897" data-name="Path 2897" d="M565.8,503.491H554.2a.725.725,0,1,1,0-1.451H565.8a.725.725,0,1,1,0,1.451Z" transform="translate(-279.157 -215.516)" fill="#ccc"/>
    <path id="Path_2898" data-name="Path 2898" d="M671.555,511.012h-31.19a6.9,6.9,0,0,1-6.891-6.891v-31.19a6.9,6.9,0,0,1,6.891-6.891h31.19a6.9,6.9,0,0,1,6.891,6.891v31.19A6.9,6.9,0,0,1,671.555,511.012Zm-31.19-43.521a5.446,5.446,0,0,0-5.44,5.44v31.19a5.446,5.446,0,0,0,5.44,5.44h31.19a5.446,5.446,0,0,0,5.44-5.44v-31.19a5.446,5.446,0,0,0-5.44-5.44Z" transform="translate(-301.24 -205.629)" fill="#ccc"/>
    <path id="Path_2899" data-name="Path 2899" d="M669.96,502H649.65a2.178,2.178,0,0,1-2.176-2.176V488.216a2.178,2.178,0,0,1,2.176-2.176h20.31a2.178,2.178,0,0,1,2.176,2.176v11.606A2.178,2.178,0,0,1,669.96,502Zm-20.31-14.507a.726.726,0,0,0-.725.725v11.606a.726.726,0,0,0,.725.725h20.31a.726.726,0,0,0,.725-.725V488.216a.726.726,0,0,0-.725-.725Z" transform="translate(-305.083 -211.118)" fill="#ccc"/>
    <path id="Path_2900" data-name="Path 2900" d="M659.8,496.482a2.179,2.179,0,0,1-1.153-.328l-10.837-6.773a.726.726,0,0,1,.769-1.23l10.837,6.773a.729.729,0,0,0,.769,0l10.836-6.773a.726.726,0,1,1,.769,1.23l-10.836,6.773a2.18,2.18,0,0,1-1.154.328Z" transform="translate(-305.083 -211.662)" fill="#ccc"/>
    <path id="Path_2901" data-name="Path 2901" d="M467.555,511.012h-31.19a6.9,6.9,0,0,1-6.891-6.891v-31.19a6.9,6.9,0,0,1,6.891-6.891h31.19a6.9,6.9,0,0,1,6.891,6.891v31.19A6.9,6.9,0,0,1,467.555,511.012Zm-31.19-43.521a5.446,5.446,0,0,0-5.44,5.44v31.19a5.446,5.446,0,0,0,5.44,5.44h31.19a5.446,5.446,0,0,0,5.44-5.44v-31.19a5.446,5.446,0,0,0-5.44-5.44Z" transform="translate(-244.983 -205.629)" fill="#ccc"/>
    <path id="Path_2902" data-name="Path 2902" d="M465.96,502H445.65a2.178,2.178,0,0,1-2.176-2.176V488.216a2.178,2.178,0,0,1,2.176-2.176h20.31a2.178,2.178,0,0,1,2.176,2.176v11.606A2.178,2.178,0,0,1,465.96,502Zm-20.31-14.507a.726.726,0,0,0-.725.725v11.606a.726.726,0,0,0,.725.725h20.31a.726.726,0,0,0,.725-.725V488.216a.726.726,0,0,0-.725-.725Z" transform="translate(-248.835 -211.118)" fill="#ccc"/>
    <path id="Path_2903" data-name="Path 2903" d="M463.96,504.058h-14.6a1.45,1.45,0,0,1-1.256-2.176l4.4-7.616a1.451,1.451,0,0,1,2.513,0l2.84,4.919,1.645-2.85a1.451,1.451,0,0,1,2.513,0l3.2,5.547a1.451,1.451,0,0,1-1.257,2.176Zm0-1.451h0l-3.2-5.547L458.484,501a.725.725,0,0,1-.628.363h0a.725.725,0,0,1-.628-.363l-3.468-6.007-4.4,7.616Z" transform="translate(-250.055 -213.181)" fill="#ccc"/>
    <circle id="Ellipse_160" data-name="Ellipse 160" cx="1.451" cy="1.451" r="1.451" transform="translate(213.481 277.83)" fill="#ccc"/>
    <path id="Path_2904" data-name="Path 2904" d="M763.856,635.162h-8.893l-4.23-34.3h13.125Z" transform="translate(-202.638 -165.709)" fill="#ffb8b8"/>
    <path id="Path_2905" data-name="Path 2905" d="M941.959,762.131H913.285v-.363a11.161,11.161,0,0,1,11.161-11.16h17.513Z" transform="translate(-378.473 -284.057)" fill="#01183a"/>
    <path id="Path_2906" data-name="Path 2906" d="M813.856,635.162h-8.893l-4.23-34.3h13.125Z" transform="translate(-216.371 -165.709)" fill="#ffb8b8"/>
    <path id="Path_2907" data-name="Path 2907" d="M991.963,762.131H963.29v-.363a11.161,11.161,0,0,1,11.161-11.16h17.513Z" transform="translate(-392.207 -284.057)" fill="#01183a"/>
    <path id="Path_2908" data-name="Path 2908" d="M977.54,684.191l-8.236-2.505a3.259,3.259,0,0,1-2.3-2.78l-7.678-72.772a.348.348,0,0,0-.347-.324.34.34,0,0,0-.37.3l-12.861,70.5a3.264,3.264,0,0,1-3.87,2.611l-10.526-2.168a3.276,3.276,0,0,1-2.6-3.418l7.823-115.558,53.051-5.724-7.883,128.915a3.262,3.262,0,0,1-4.208,2.924Z" transform="translate(-382.721 -229.607)" fill="#01183a"/>
    <circle id="Ellipse_161" data-name="Ellipse 161" cx="17.815" cy="17.815" r="17.815" transform="translate(576.954 192.593)" fill="#ffb8b8"/>
    <path id="Path_2909" data-name="Path 2909" d="M939.433,524.99l11.5-72.427a27.46,27.46,0,0,1,34.821-22.05h0a27.377,27.377,0,0,1,19.3,31.38l-12.034,64.681Z" transform="translate(-385.654 -195.577)" fill="#082757"/>
    <path id="Path_2910" data-name="Path 2910" d="M998.4,566.118a7.294,7.294,0,0,0,1.267-11.112l11.893-23.031L998.165,533.4l-9.24,21.651a7.333,7.333,0,0,0,9.474,11.063Z" transform="translate(-398.714 -223.803)" fill="#ffb8b8"/>
    <path id="Path_2911" data-name="Path 2911" d="M1003.454,527.1a3.268,3.268,0,0,1-1.76-.835l-4.55-4.2a3.274,3.274,0,0,1-.792-3.666l9.094-21.556-1.29-42.592a10.515,10.515,0,1,1,20.837,2.842l2.206,26.774a33.637,33.637,0,0,1-6.483,22.774l-14.182,19.173a3.268,3.268,0,0,1-2.318,1.308A3.23,3.23,0,0,1,1003.454,527.1Z" transform="translate(-401.217 -199.903)" fill="#082757"/>
    <path id="Path_2912" data-name="Path 2912" d="M854.455,380.266a7.294,7.294,0,0,0,9.739,5.5L880.765,405.7l3.906-12.891-16.335-16.951a7.334,7.334,0,0,0-13.881,4.411Z" transform="translate(-362.123 -179.562)" fill="#ffb8b8"/>
    <path id="Path_2913" data-name="Path 2913" d="M872.225,393.391a3.268,3.268,0,0,1,1.455-1.3l5.646-2.551a3.275,3.275,0,0,1,3.685.7l16.3,16.779,39.725,15.418a10.515,10.515,0,1,1-10.742,18.08l-25.516-8.408a33.637,33.637,0,0,1-18.444-14.849L872.213,396.73a3.268,3.268,0,0,1-.3-2.644,3.228,3.228,0,0,1,.313-.695Z" transform="translate(-367.068 -184.459)" fill="#082757"/>
    <path id="Path_2914" data-name="Path 2914" d="M829.668,375.652l-.725,23.211L815.58,422.082l11.157-25.875Z" transform="translate(-220.448 -103.603)" opacity="0.1"/>
    <path id="Path_2915" data-name="Path 2915" d="M985.161,391.937a4.659,4.659,0,0,1-5.1-3.411,7.082,7.082,0,0,0-5.042-5.276c-3.268-.747-7.262.792-9.657-1.685a4.814,4.814,0,0,1-1.143-4.238c.441-2.406,2.162-4.224,4.035-5.678a24.708,24.708,0,0,1,13.685-5.114,49.092,49.092,0,0,1,7.7.383,34.1,34.1,0,0,1,7.88,1.44,18.552,18.552,0,0,1,11.607,13.55,21.419,21.419,0,0,1-4.394,17.5,22.994,22.994,0,0,1-8.821,6.716,3.441,3.441,0,0,1-2.616.133c-2.145-.853-1.795-3.51-.817-5.282,1.047-1.9,2.657-3.733,1.815-6.041a4.571,4.571,0,0,0-2.268-2.442c-2.132-1.087-4.518-.83-6.81-.565Z" transform="translate(-392.433 -178.178)" fill="#444"/>
    <path id="Path_2916" data-name="Path 2916" d="M758.272,388.517H537.765A11.982,11.982,0,0,1,525.8,376.549V329.4a11.982,11.982,0,0,1,11.968-11.968H758.272A11.982,11.982,0,0,1,770.24,329.4v47.148A11.982,11.982,0,0,1,758.272,388.517Z" transform="translate(-271.746 -164.66)" fill="#fff"/>
    <path id="Path_2917" data-name="Path 2917" d="M758.135,388.743H537.628A12.345,12.345,0,0,1,525.3,376.412V329.264a12.345,12.345,0,0,1,12.331-12.331H758.135a12.345,12.345,0,0,1,12.331,12.331v47.148A12.345,12.345,0,0,1,758.135,388.743ZM537.628,318.384a10.893,10.893,0,0,0-10.88,10.88v47.148a10.893,10.893,0,0,0,10.88,10.88H758.135a10.892,10.892,0,0,0,10.88-10.88V329.264a10.893,10.893,0,0,0-10.88-10.88Z" transform="translate(-271.609 -164.523)" fill="#3f3d56"/>
    <path id="Path_2918" data-name="Path 2918" d="M741.6,381.032H574.765A11.982,11.982,0,0,1,562.8,369.063V344.4a11.982,11.982,0,0,1,11.968-11.968H741.6A11.982,11.982,0,0,1,753.564,344.4v24.662A11.982,11.982,0,0,1,741.6,381.032Z" transform="translate(-281.891 -168.784)" fill="#f2f2f2"/>
    <circle id="Ellipse_162" data-name="Ellipse 162" cx="14.313" cy="14.313" r="14.313" transform="translate(314.566 170.331)" fill="#ff6584"/>
    <path id="Path_2919" data-name="Path 2919" d="M739.588,383l-20.2-16.944L699.531,349.4a2.9,2.9,0,0,0-3.738.007L676,366.139l-4.834,4.086-7.289-6.113-22.15-18.577a2.9,2.9,0,0,0-3.737.007l-22.078,18.662L593.49,383.161a.725.725,0,0,0,.47,1.279l45.978-.089,14.553-.028-.142.12,43.381-.084,41.394-.08a.725.725,0,0,0,.465-1.281Z" transform="translate(-290.239 -172.205)" fill="#273a57"/>
    <path id="Path_2921" data-name="Path 2921" d="M757.278,217.453a8.139,8.139,0,0,0-5.259-3.7,7.471,7.471,0,0,0-1.2-.152L695.551,164.19a6.539,6.539,0,0,0-4.084-1.951,5.561,5.561,0,0,0-.921-.029,6.568,6.568,0,0,0-4.323,11.228l21.158,18.446,34.744,30.283a8.641,8.641,0,0,0,.254,1.69,8.172,8.172,0,0,0,7.014,6.071,8.046,8.046,0,0,0,4.389-.725,8.273,8.273,0,0,0,2.814-2.154c.08-.094.152-.181.225-.283a8.191,8.191,0,0,0,.457-9.314Z" transform="translate(-315.279 -121.77)" fill="#ffb8b8"/>
    <path id="Path_2922" data-name="Path 2922" d="M648.942,273.685l-.515-20.934-.435-17.372-.3-12.157-.588-23.7a6.561,6.561,0,0,0-11.4-3.808,5.023,5.023,0,0,0-.544.7,6.482,6.482,0,0,0-1.132,4.388l1.291,34.577.646,17.372.827,22.159a8.737,8.737,0,0,0-.645,1.023,8.2,8.2,0,1,0,12.788-2.249Z" transform="translate(-301.362 -130.383)" fill="#ffb8b8"/>
    <path id="Path_2923" data-name="Path 2923" d="M698.958,205.6l-5.128-13.89-8.3-22.5a11.61,11.61,0,0,0-7.217-7.021c-.13-.044-.268-.087-.4-.123a11.594,11.594,0,0,0-9.6,1.32l-27.948,17.728a11.673,11.673,0,0,0-3.823,15.776,200.428,200.428,0,0,0,11.41,17.546c3.257,4.432,9.321,4.9,10.373,12.157h20.607l20.861-18.729Z" transform="translate(-301.659 -121.595)" fill="#ccc"/>
    <circle id="Ellipse_163" data-name="Ellipse 163" cx="16.808" cy="16.808" r="16.808" transform="translate(60.993 219.814)" fill="#a0616a"/>
    <path id="Path_2924" data-name="Path 2924" d="M323.153,416.576q.248.2.482.419a7.529,7.529,0,0,1-.3,11.231,7.059,7.059,0,0,1-.59.445l1.138,38.4a5.847,5.847,0,0,1-4.022,5.706l-.069.015-31.182,3.321a6.454,6.454,0,1,1-1.249-12.848l22.228-1.957,3.844-33.258a7.175,7.175,0,0,1-.7-.718,7.529,7.529,0,0,1,10.429-10.759Z" transform="translate(-204.09 -191.552)" fill="#a0616a"/>
    <path id="Path_2925" data-name="Path 2925" d="M139.327,636.921h8.39l3.991-32.36H139.326Z" transform="translate(-33.845 -166.725)" fill="#a0616a"/>
    <path id="Path_2926" data-name="Path 2926" d="M317.242,751.858h16.523a10.529,10.529,0,0,1,10.529,10.529v.342H317.242Z" transform="translate(-213.899 -284.401)" fill="#01183a"/>
    <path id="Path_2927" data-name="Path 2927" d="M24.366,622.654l7.209,4.292L51.56,601.184l-10.639-6.335Z" transform="translate(-2.271 -164.058)" fill="#a0616a"/>
    <path id="Path_2928" data-name="Path 2928" d="M202.521,734.889l14.2,8.452h0a10.529,10.529,0,0,1,3.66,14.434l-.175.294L196.96,744.23Z" transform="translate(-180.864 -279.741)" fill="#01183a"/>
    <path id="Path_2929" data-name="Path 2929" d="M300.786,681.452h-9.395a3.074,3.074,0,0,1-3.062-2.754l-9.471-89.028a1.027,1.027,0,0,0-1.956-.314L259.816,627.19l-30.25,49.326a3.094,3.094,0,0,1-3.865,1.208l-12.085-5.317a3.08,3.08,0,0,1-1.4-4.4l27.808-46.562,8.529-39.231c-2.682-17.013,8.817-42.307,8.933-42.561l.057-.124,31.674-12.38.159.194c12.491,40.992,20.1,85.107,14.483,151.285a3.1,3.1,0,0,1-3.07,2.821Z" transform="translate(-184.934 -222.686)" fill="#01183a"/>
    <path id="Path_2930" data-name="Path 2930" d="M267.83,526.374l-.148-.31c-.07-.148-7.114-15-12.543-30.879a23.418,23.418,0,0,1,1.624-18.767,23.674,23.674,0,0,1,15.1-11.609h0A23.7,23.7,0,0,1,299.371,479c4.307,10.769,2.934,22.264,1.642,31.3l-.026.181-.165.079Z" transform="translate(-196.501 -205.125)" fill="#082757"/>
    <path id="Path_2931" data-name="Path 2931" d="M300.019,414.687H273.33V403.053c5.858-2.327,11.59-4.306,15.055,0a11.633,11.633,0,0,1,11.633,11.633Z" transform="translate(-201.839 -187.535)" fill="#444"/>
    <path id="Path_2932" data-name="Path 2932" d="M263.561,401.185c-15.955,0-20.421,20-20.421,31.281,0,6.292,2.846,8.542,7.317,9.3l1.579-8.422,3.7,8.784c1.256.006,2.576-.018,3.944-.043l1.254-2.582,2.8,2.536c11.2.017,20.252,1.649,20.252-9.577C283.981,421.184,280.065,401.185,263.561,401.185Z" transform="translate(-193.548 -187.74)" fill="#444"/>
    <path id="Path_2934" data-name="Path 2934" d="M363.055,421.9h-31.19a6.9,6.9,0,0,1-6.891-6.891v-31.19a6.9,6.9,0,0,1,6.891-6.891h31.19a6.9,6.9,0,0,1,6.891,6.891v31.19A6.9,6.9,0,0,1,363.055,421.9Z" transform="translate(-216.166 -181.054)" fill="#fff"/>
    <path id="Path_2935" data-name="Path 2935" d="M363.055,421.9h-31.19a6.9,6.9,0,0,1-6.891-6.891v-31.19a6.9,6.9,0,0,1,6.891-6.891h31.19a6.9,6.9,0,0,1,6.891,6.891v31.19A6.9,6.9,0,0,1,363.055,421.9Zm-31.19-43.521a5.446,5.446,0,0,0-5.44,5.44v31.19a5.446,5.446,0,0,0,5.44,5.44h31.19a5.446,5.446,0,0,0,5.44-5.44v-31.19a5.446,5.446,0,0,0-5.44-5.44Z" transform="translate(-216.166 -181.054)" fill="#3f3d56"/>
    <path id="Path_2936" data-name="Path 2936" d="M361.46,414.018H341.15a2.178,2.178,0,0,1-2.176-2.176V396.609a2.178,2.178,0,0,1,2.176-2.176h5.717a2.162,2.162,0,0,1,1.853,1.035l1.595,2.591H361.46a2.178,2.178,0,0,1,2.176,2.176v11.606a2.178,2.178,0,0,1-2.176,2.176Z" transform="translate(-220.021 -185.862)" fill="#fb7878"/>
    <path id="Path_2937" data-name="Path 2937" d="M346.541,430.562q.152.279.281.573a7.529,7.529,0,0,1-4.637,10.234,7.052,7.052,0,0,1-.717.181l-13.854,35.836a5.847,5.847,0,0,1-5.921,3.7l-.07-.013L291.6,472.032a6.454,6.454,0,1,1,3.834-12.326l21.246,6.821,16.448-29.16a7.165,7.165,0,0,1-.371-.935,7.529,7.529,0,0,1,13.787-5.869Z" transform="translate(-205.609 -194.775)" fill="#a0616a"/>
  </g>
</svg>
