<svg xmlns="http://www.w3.org/2000/svg" width="610" height="476.633" viewBox="0 0 610 476.633">
  <g id="Unbounce" transform="translate(-60.817)">
    <path id="Path_5098" data-name="Path 5098" d="M966.13,545.946a7.567,7.567,0,0,1,2.053-11.421l-4.953-26.432,12.884,5.413,2.729,24.27a7.608,7.608,0,0,1-12.712,8.169Z" transform="translate(-309.346 -225.119)" fill="#ffb6b6"/>
    <rect id="Rectangle_62" data-name="Rectangle 62" width="565.114" height="268.394" transform="translate(61.058 15.507)" fill="#e6e6e6"/>
    <rect id="Rectangle_75" data-name="Rectangle 75" width="532.767" height="223.929" transform="translate(77.232 38.522)" fill="#fff"/>
    <rect id="Rectangle_80" data-name="Rectangle 80" width="565.114" height="24.029" transform="translate(60.817)" fill="#0b2d61"/>
    <circle id="Ellipse_90" data-name="Ellipse 90" cx="4.454" cy="4.454" r="4.454" transform="translate(74.22 6.661)" fill="#fff"/>
    <circle id="Ellipse_91" data-name="Ellipse 91" cx="4.454" cy="4.454" r="4.454" transform="translate(91.125 6.661)" fill="#fff"/>
    <circle id="Ellipse_92" data-name="Ellipse 92" cx="4.454" cy="4.454" r="4.454" transform="translate(108.03 6.661)" fill="#fff"/>
    <path id="Path_142" data-name="Path 142" d="M236.965,374.365a2.337,2.337,0,1,0,0,4.674H365.2a2.337,2.337,0,1,0,0-4.674Z" transform="translate(-128.547 -191.924)" fill="#e6e6e6"/>
    <path id="Path_143" data-name="Path 143" d="M236.965,393a2.337,2.337,0,0,0,0,4.674h65.468a2.337,2.337,0,1,0,0-4.674Z" transform="translate(-128.547 -196.547)" fill="#e6e6e6"/>
    <path id="Path_154" data-name="Path 154" d="M391.554,424.05H342.84a2.382,2.382,0,0,1-2.38-2.38v-7.8a2.382,2.382,0,0,1,2.38-2.38h48.713a2.382,2.382,0,0,1,2.38,2.38v7.8A2.382,2.382,0,0,1,391.554,424.05Z" transform="translate(-154.848 -201.136)" fill="#0b2d61"/>
    <path id="Path_154-2" data-name="Path 154" d="M391.554,316.05H342.84a2.382,2.382,0,0,1-2.38-2.38v-7.8a2.382,2.382,0,0,1,2.38-2.38h48.713a2.382,2.382,0,0,1,2.38,2.38v7.8A2.382,2.382,0,0,1,391.554,316.05Z" transform="translate(-154.848 -174.342)" fill="#0b2d61"/>
    <path id="Path_142-2" data-name="Path 142" d="M521.447,234.962a3.049,3.049,0,1,0,0,6.1H776.492a3.049,3.049,0,0,0,0-6.1Z" transform="translate(-199.268 -157.277)" fill="#e6e6e6"/>
    <path id="Path_143-2" data-name="Path 143" d="M521.447,259.277a3.049,3.049,0,1,0,0,6.1h173.14a3.049,3.049,0,0,0,0-6.1Z" transform="translate(-199.068 -163.373)" fill="#e6e6e6"/>
    <path id="Path_142-3" data-name="Path 142" d="M521.447,283.042a3.049,3.049,0,1,0,0,6.1H776.492a3.049,3.049,0,0,0,0-6.1Z" transform="translate(-199.268 -169.269)" fill="#e6e6e6"/>
    <path id="Path_143-3" data-name="Path 143" d="M521.447,307.358a3.049,3.049,0,1,0,0,6.1h173.14a3.049,3.049,0,0,0,0-6.1Z" transform="translate(-199.068 -175.301)" fill="#e6e6e6"/>
    <path id="Path_154-3" data-name="Path 154" d="M845.554,355.816H796.84a2.382,2.382,0,0,1-2.38-2.38v-7.805a2.382,2.382,0,0,1,2.38-2.38h48.713a2.382,2.382,0,0,1,2.38,2.38v7.8A2.382,2.382,0,0,1,845.554,355.816Z" transform="translate(-267.583 -184.208)" fill="#0b2d61"/>
    <path id="Path_155" data-name="Path 155" d="M310.613,239.351c-.865,0-1.566,1.127-1.564,2.51s.7,2.5,1.564,2.5H384.5c.866,0,1.566-1.127,1.564-2.51s-.7-2.5-1.564-2.5Z" transform="translate(-147.058 -158.363)" fill="#e4e4e4"/>
    <path id="Path_156" data-name="Path 156" d="M310.613,258.643c-.865,0-1.566,1.127-1.564,2.51s.7,2.5,1.564,2.5H384.5c.866,0,1.566-1.127,1.564-2.51s-.7-2.5-1.564-2.5Z" transform="translate(-147.058 -163.216)" fill="#e4e4e4"/>
    <path id="Path_157" data-name="Path 157" d="M310.613,277.7c-.865,0-1.566,1.127-1.564,2.51s.7,2.5,1.564,2.5h31.792c.865,0,1.566-1.127,1.564-2.51s-.7-2.5-1.564-2.5Z" transform="translate(-147.051 -167.944)" fill="#e4e4e4"/>
    <circle id="Ellipse_545" data-name="Ellipse 545" cx="20.049" cy="20.049" r="20.049" transform="translate(106.087 77.615)" fill="#e4e4e4"/>
    <path id="Path_5099" data-name="Path 5099" d="M812.914,352.474a7.567,7.567,0,0,0,7.867,8.53l10.02,24.955,7.959-11.486-10.736-21.937a7.608,7.608,0,0,0-15.111-.062Z" transform="translate(-272.044 -184.847)" fill="#ffb6b6"/>
    <path id="Path_5100" data-name="Path 5100" d="M844.92,610.063h-9.225l-4.39-35.586h13.617Z" transform="translate(-191.165 -142.55)" fill="#ffb6b6"/>
    <path id="Path_5101" data-name="Path 5101" d="M956.4,761.449H926.655v-.376a11.579,11.579,0,0,1,11.579-11.579H956.4Z" transform="translate(-300.295 -284.993)" fill="#01183a"/>
    <path id="Path_5102" data-name="Path 5102" d="M806.387,608.868l-8.8-2.785,6.555-35.251,12.981,4.11Z" transform="translate(-182.822 -141.648)" fill="#ffb6b6"/>
    <path id="Path_5103" data-name="Path 5103" d="M913.01,759.651l-28.361-8.979.114-.359a11.58,11.58,0,0,1,14.533-7.545h0l17.322,5.484Z" transform="translate(-289.901 -283.195)" fill="#01183a"/>
    <path id="Path_5104" data-name="Path 5104" d="M905.17,522.234s-13.689,21.494-8.852,40.678,10.1,56.058,10.1,56.058l26.228,62.418,19.551-.8L932.786,607l.768-49.206s13.495-23.516,10.867-30.837S905.17,522.234,905.17,522.234Z" transform="translate(-292.532 -228.645)" fill="#01183a"/>
    <path id="Path_5105" data-name="Path 5105" d="M954.05,532.219s1.684,21.323-3.584,30.353-10.88,43.4-10.88,43.4l-8.954,68.742-18.546-6.035L927.9,591.664l12.43-60.582Z" transform="translate(-296.69 -230.945)" fill="#01183a"/>
    <path id="Path_5106" data-name="Path 5106" d="M957.861,391.946,943.391,382l-22.02-.64-7.668,7.518L902,394.854l-1.084,97.352s35.042,16.8,53.894,8.689l9.069-75.837C967.644,410.007,957.861,391.946,957.861,391.946Z" transform="translate(-293.926 -193.711)" fill="#0b2d61"/>
    <path id="Path_5107" data-name="Path 5107" d="M885.234,417.36h-38.6L821.28,373.711l16.489-6.531,13.964,24.84,20.211-1.829,12.62-.61a13.9,13.9,0,0,1,14.466,15.575h0a13.914,13.914,0,0,1-13.795,12.2Z" transform="translate(-274.219 -190.158)" fill="#0b2d61"/>
    <circle id="Ellipse_546" data-name="Ellipse 546" cx="19.092" cy="19.092" r="19.092" transform="translate(621.159 141.529)" fill="#ffb6b6"/>
    <path id="Path_5108" data-name="Path 5108" d="M961.5,332.99c-.586-4.191-3.425-8.171-7.462-9.441-1.6-4.657-5.852-8.086-10.545-9.58a20.6,20.6,0,0,0-23.68,8.637c-.359.565-1.464,1.952-1.433,2.626.039.856,1.349,1.74,2.006,2.279a29.419,29.419,0,0,0,5.246,3.238c6.865,3.559,4.58,9.153,4.487,15.491a8.257,8.257,0,0,0,3.61,7.47c3.791,2.539,9.215,1.529,13.34.51,4.68-1.156,8.571-5.268,11.24-9.232A17.544,17.544,0,0,0,961.5,332.99Z" transform="translate(-298.248 -176.709)" fill="#2f2e41"/>
    <path id="Path_5109" data-name="Path 5109" d="M856.791,296.725l7.429,81.487-23.868-1.28Z" transform="translate(-193.403 -73.648)" fill="#0b2d61"/>
    <path id="Path_5111" data-name="Path 5111" d="M84.089,615.589h7.156l3.4-27.6H84.087Z" transform="translate(-5.758 -145.894)" fill="#9e616a"/>
    <path id="Path_5112" data-name="Path 5112" d="M195.326,753.293h14.093a8.982,8.982,0,0,1,8.981,8.981v.292H195.326Z" transform="translate(-118.821 -285.933)" fill="#273a57"/>
    <path id="Path_5113" data-name="Path 5113" d="M171.738,615.589h7.156l3.4-27.6H171.736Z" transform="translate(-27.448 -145.894)" fill="#9e616a"/>
    <path id="Path_5114" data-name="Path 5114" d="M282.974,753.293h14.094a8.982,8.982,0,0,1,8.981,8.981v.292H282.974Z" transform="translate(-140.51 -285.933)" fill="#273a57"/>
    <path id="Path_5115" data-name="Path 5115" d="M147.2,330l4.67,29.769-44.362.584,5.837-28.6Z" transform="translate(-11.555 -81.878)" fill="#9e616a"/>
    <path id="Path_5116" data-name="Path 5116" d="M257.819,491.627l14.129,37.622L273.7,685.159H261.733l-28.6-125.266-26.267,122H195.19l8.172-137.172s-2.41-27.532,9.923-43.778l3-8.673Z" transform="translate(-118.787 -221.182)" fill="#273a57"/>
    <path id="Path_5117" data-name="Path 5117" d="M194.2,505.45a8.757,8.757,0,0,0,5.611-12.2l18.872-61.528L204.8,428.971l-17.261,60.311A8.8,8.8,0,0,0,194.2,505.45Z" transform="translate(-115.778 -205.504)" fill="#9e616a"/>
    <path id="Path_5118" data-name="Path 5118" d="M227.26,462a3.977,3.977,0,0,1-.771-.076h0a3.989,3.989,0,0,1-3.2-3.614c-.439-6.008-2.613-16.466-6.462-31.084a24.6,24.6,0,0,1,38.847-25.689,24.284,24.284,0,0,1,9.369,16.607c1.913,16.848-1.694,33.763-3.333,40.254a4,4,0,0,1-3.789,3.012l-30.58.59Z" transform="translate(-123.944 -197.416)" fill="#273a57"/>
    <path id="Path_5119" data-name="Path 5119" d="M325.627,410.106a8.58,8.58,0,0,0-.451,1.274L286.9,424.387l-7.4-6.461-11.21,9.888,11.982,12.711a6.521,6.521,0,0,0,7.712,1.334l40.959-20.922a8.557,8.557,0,1,0-3.318-10.831Z" transform="translate(-136.877 -199.558)" fill="#9e616a"/>
    <path id="Path_5120" data-name="Path 5120" d="M280.745,424.772,266.791,436.96a3.668,3.668,0,0,1-5.5-.78l-9.981-15.542A10.188,10.188,0,1,1,266.7,407.279l14.016,11.939a3.668,3.668,0,0,1,.034,5.555Z" transform="translate(-132.057 -199.231)" fill="#273a57"/>
    <path id="Path_5121" data-name="Path 5121" d="M221.047,442.226,203.8,435.452a3.668,3.668,0,0,1-1.84-5.241l9.2-16.016a10.188,10.188,0,1,1,18.942,7.506l-4.144,17.939a3.668,3.668,0,0,1-4.915,2.588Z" transform="translate(-120.343 -200.22)" fill="#273a57"/>
    <circle id="Ellipse_547" data-name="Ellipse 547" cx="18.757" cy="18.757" r="18.757" transform="translate(94.73 157.746)" fill="#9e616a"/>
    <path id="Path_5123" data-name="Path 5123" d="M247.377,350.887l12.073-.068a10.412,10.412,0,0,0-2.713-7.579,30.9,30.9,0,0,0-6.356-5.254c-2.308-1.584-4.7-3.2-7.444-3.758a20.943,20.943,0,0,0-7,.181l-9.245,1.286c-3.383.47-6.922,1-9.669,3.031-3.716,2.743-5.137,7.551-6.331,12.012l-6.609,24.7,39.035,4.094a10.732,10.732,0,0,0,4.254-.124,3.656,3.656,0,0,0,2.72-2.974c.112-1.592-1.15-2.9-2.176-4.118a19.237,19.237,0,0,1-1.659-21.753Z" transform="translate(-120.988 -181.921)" fill="#1e1e1e"/>
  </g>
</svg>
