<svg xmlns="http://www.w3.org/2000/svg" width="610" height="374.44" viewBox="0 0 610 374.44">
  <g id="hubspot" transform="translate(0 0)">
    <path id="Path_5195" data-name="Path 5195" d="M775.725,440.745a7.576,7.576,0,0,1,11.173,3.182l17.307-.457,2.843,10.45-24.449.3a7.617,7.617,0,0,1-6.873-13.477Z" transform="translate(-316.895 -260.366)" fill="#ffb8b8"/>
    <path id="Path_5196" data-name="Path 5196" d="M799.951,446.509a5.8,5.8,0,0,1-1.833-3.855l-.692-10.387a5.779,5.779,0,0,1,2.25-4.977l27.9-21.437L843.8,386.166a10.155,10.155,0,0,1,13.783-1.758h0a10.14,10.14,0,0,1,2.158,14.284l-18.892,25.222L827.4,438.157a29.253,29.253,0,0,1-15.987,8.647l-6.489,1.165a5.8,5.8,0,0,1-4.589-1.137Q800.132,446.679,799.951,446.509Z" transform="translate(-321.798 -249.408)" fill="#0b2d61"/>
    <path id="Path_5197" data-name="Path 5197" d="M745.388,437.146l-8.961,2.238-12.9-33.5,13.226-3.3Z" transform="translate(-139.385 -77.58)" fill="#ffb8b8"/>
    <path id="Path_5198" data-name="Path 5198" d="M11.216,0H29.029V11.216H0A11.216,11.216,0,0,1,11.216,0Z" transform="translate(579.118 363.556) rotate(-14.022)" fill="#8aa1c5"/>
    <path id="Path_5199" data-name="Path 5199" d="M647.239,444.689H638l-4.392-35.627h13.632Z" transform="translate(-122.115 -78.824)" fill="#ffb8b8"/>
    <path id="Path_5200" data-name="Path 5200" d="M628.215,449.89h17.813v11.216H617a11.216,11.216,0,0,1,11.216-11.216Z" transform="translate(-118.924 -86.666)" fill="#8aa1c5"/>
    <circle id="Ellipse_560" data-name="Ellipse 560" cx="19.844" cy="19.844" r="19.844" transform="translate(501.276 69.233)" fill="#ffb8b8"/>
    <path id="Path_5201" data-name="Path 5201" d="M847.214,321.216c.037-2.654,4.6-2.987,6.027-.725s.51,5.214-.744,7.569c-1.305,2.452-3,4.929-2.737,7.714a4.2,4.2,0,0,0,6.433,3c6.482-3.991,11.954-9.8,14.375-16.88,2.546-7.446,1.274-16.323-4.233-22.044s-15.38-7.339-21.917-2.766l-11.157-7.6a1.557,1.557,0,0,0-2.4,1.693l1.631,5.3-5.635-1.418a1.239,1.239,0,0,0-1.383,1.848l1.935,3.006c-2.58-2.123-7.037.3-7.407,3.57s2.291,6.292,5.42,7.525,6.623,1.093,9.994.933a7.936,7.936,0,0,0,3.682,8.544A10.643,10.643,0,0,0,847.214,321.216Z" transform="translate(-326.131 -231.429)" fill="#1c1c1c"/>
    <path id="Path_5202" data-name="Path 5202" d="M854.754,620.012l-.115,0-14.267-.445a3.636,3.636,0,0,1-3.517-3.832l7.136-131.022,54.827,15.548,35.952,112.129a3.636,3.636,0,0,1-3.365,4.745l-16.432.436a3.67,3.67,0,0,1-3.473-2.285l-36.98-92.5a1.212,1.212,0,0,0-2.324.273l-13.846,93.854a3.635,3.635,0,0,1-3.594,3.106Z" transform="translate(-329.373 -269.192)" fill="#8aa1c5"/>
    <path id="Path_5203" data-name="Path 5203" d="M897.275,492.665a18.486,18.486,0,0,1-10.841-3.523l-17.642-12.735a29.774,29.774,0,0,0-13.076-5.3l-8.489-1.238a5.3,5.3,0,0,1-4.546-5.484l3.383-81-2.008-11.546a4.994,4.994,0,0,1,2.1-4.965l15.724-10.758a6.577,6.577,0,0,1,4.225-1.127l.575.045a7.7,7.7,0,0,1,6.87,5.813l.6,2.412,10.461,18.6a69.02,69.02,0,0,1,6.906,17.517l9.917,40.752a73.517,73.517,0,0,1,1.785,10.784l3.284,36.647a3.676,3.676,0,0,1-2.31,3.764,18.606,18.606,0,0,1-6.916,1.339Z" transform="translate(-330.492 -244.136)" fill="#0b2d61"/>
    <path id="Path_5204" data-name="Path 5204" d="M869.487,483.086a7.576,7.576,0,0,1,7.281-9.052l6.318-16.119,10.732,1.45L884.577,482a7.617,7.617,0,0,1-15.089,1.083Z" transform="translate(-335.613 -263.932)" fill="#ffb8b8"/>
    <path id="Path_5205" data-name="Path 5205" d="M888.49,456.277a5.8,5.8,0,0,1-4.264.188l-9.837-3.407a5.779,5.779,0,0,1-3.708-4.01L861.8,415l-11.819-22.6a10.155,10.155,0,0,1,3.747-13.38h0a10.14,10.14,0,0,1,14,3.574L883.6,409.812l7.883,17.934a29.253,29.253,0,0,1,1.739,18.092l-1.453,6.431a5.8,5.8,0,0,1-2.834,3.784Q888.717,456.176,888.49,456.277Z" transform="translate(-331.674 -248.465)" fill="#0b2d61"/>
    <path id="Path_5206" data-name="Path 5206" d="M660.879,496.638H222.7a13.346,13.346,0,0,1-13.331-13.331V236.239H674.21V483.307A13.346,13.346,0,0,1,660.879,496.638Z" transform="translate(-208.435 -221.21)" fill="#e6e6e6"/>
    <path id="Path_5207" data-name="Path 5207" d="M649.122,477.186h-403.3a6.875,6.875,0,0,1-6.868-6.867V274.689a6.875,6.875,0,0,1,6.867-6.868h403.3a6.875,6.875,0,0,1,6.867,6.868v195.63a6.875,6.875,0,0,1-6.868,6.867Z" transform="translate(-214.116 -227.275)" fill="#fff"/>
    <path id="Path_5208" data-name="Path 5208" d="M674.92,241.672H208.213v-10.7a13.346,13.346,0,0,1,13.331-13.331H661.589a13.346,13.346,0,0,1,13.331,13.331Z" transform="translate(-208.213 -217.637)" fill="#0b2d61"/>
    <path id="Path_5209" data-name="Path 5209" d="M355.766,315.343H283.98a6.872,6.872,0,0,0-6.868,6.868v47.184a6.872,6.872,0,0,0,6.867,6.868h71.786a6.877,6.877,0,0,0,6.868-6.868V322.211a6.877,6.877,0,0,0-6.868-6.867Z" transform="translate(-221.446 -236.468)" fill="#e6e6e6"/>
    <path id="Path_5210" data-name="Path 5210" d="M522.766,315.343H450.98a6.872,6.872,0,0,0-6.868,6.868v47.184a6.872,6.872,0,0,0,6.868,6.868h71.786a6.877,6.877,0,0,0,6.867-6.868V322.211a6.877,6.877,0,0,0-6.867-6.867Z" transform="translate(-253.674 -236.468)" fill="#e6e6e6"/>
    <path id="Path_5211" data-name="Path 5211" d="M689.766,315.343H617.98a6.872,6.872,0,0,0-6.867,6.868v47.184a6.872,6.872,0,0,0,6.867,6.868h71.786a6.877,6.877,0,0,0,6.867-6.868V322.211a6.877,6.877,0,0,0-6.867-6.867Z" transform="translate(-285.857 -236.468)" fill="#e6e6e6"/>
    <path id="Path_5212" data-name="Path 5212" d="M348.75,418.343H297.276a3.818,3.818,0,1,0,0,7.635H348.75a3.818,3.818,0,1,0,0-7.635Z" transform="translate(-224.585 -256.299)" fill="#e6e6e6"/>
    <path id="Path_5213" data-name="Path 5213" d="M348.748,444.163H297.274a3.815,3.815,0,0,0-1.568,7.3,3.767,3.767,0,0,0,1.568.339h51.474a3.818,3.818,0,1,0,0-7.635Z" transform="translate(-224.584 -261.273)" fill="#e6e6e6"/>
    <path id="Path_5214" data-name="Path 5214" d="M348.75,469.983H297.276a3.818,3.818,0,0,0,0,7.635H348.75a3.818,3.818,0,1,0,0-7.635Z" transform="translate(-224.585 -266.247)" fill="#e6e6e6"/>
    <path id="Path_5215" data-name="Path 5215" d="M515.75,418.343H464.276a3.818,3.818,0,0,0,0,7.635H515.75a3.818,3.818,0,1,0,0-7.635Z" transform="translate(-256.816 -256.299)" fill="#e6e6e6"/>
    <path id="Path_5216" data-name="Path 5216" d="M515.75,444.163H464.276a3.818,3.818,0,0,0,0,7.635H515.75a3.818,3.818,0,1,0,0-7.635Z" transform="translate(-256.816 -261.273)" fill="#e6e6e6"/>
    <path id="Path_5217" data-name="Path 5217" d="M515.748,469.983H464.274a3.817,3.817,0,0,0-1.2,7.441,3.72,3.72,0,0,0,1.2.194h51.474a3.818,3.818,0,1,0,0-7.635Z" transform="translate(-256.815 -266.247)" fill="#e6e6e6"/>
    <path id="Path_5218" data-name="Path 5218" d="M682.75,418.343H631.276a3.818,3.818,0,0,0,0,7.635H682.75a3.818,3.818,0,1,0,0-7.635Z" transform="translate(-288.993 -256.299)" fill="#e6e6e6"/>
    <path id="Path_5219" data-name="Path 5219" d="M682.748,444.163H631.274a3.815,3.815,0,0,0-1.568,7.3,3.767,3.767,0,0,0,1.568.339h51.474a3.818,3.818,0,1,0,0-7.635Z" transform="translate(-288.992 -261.273)" fill="#e6e6e6"/>
    <path id="Path_5220" data-name="Path 5220" d="M682.75,469.983H631.276a3.818,3.818,0,0,0,0,7.635H682.75a3.818,3.818,0,1,0,0-7.635Z" transform="translate(-288.993 -266.247)" fill="#e6e6e6"/>
    <circle id="Ellipse_561" data-name="Ellipse 561" cx="3.461" cy="3.461" r="3.461" transform="translate(11.83 8.698)" fill="#fff"/>
    <circle id="Ellipse_562" data-name="Ellipse 562" cx="3.461" cy="3.461" r="3.461" transform="translate(24.966 8.698)" fill="#fff"/>
    <circle id="Ellipse_563" data-name="Ellipse 563" cx="3.461" cy="3.461" r="3.461" transform="translate(38.102 8.698)" fill="#fff"/>
    <path id="Path_5221" data-name="Path 5221" d="M334.1,418.343H297.276a3.818,3.818,0,1,0,0,7.635h36.058a4.346,4.346,0,0,0,.767-7.635Z" transform="translate(-224.585 -256.299)" fill="#0b2d61"/>
    <path id="Path_5222" data-name="Path 5222" d="M317.093,444.163H297.274a3.815,3.815,0,0,0-1.568,7.3h18.2a4.348,4.348,0,0,0,4.347-4.347A4.258,4.258,0,0,0,317.093,444.163Z" transform="translate(-224.584 -261.273)" fill="#0b2d61"/>
    <path id="Path_5223" data-name="Path 5223" d="M344.9,469.983H297.276a3.818,3.818,0,0,0,0,7.635h47.935a4.337,4.337,0,0,0-.307-7.635Z" transform="translate(-224.585 -266.247)" fill="#0b2d61"/>
    <path id="Path_5224" data-name="Path 5224" d="M643.951,418.343H631.274a3.818,3.818,0,0,0-1.866,7.15h11.23a4.348,4.348,0,0,0,4.347-4.347A4.278,4.278,0,0,0,643.951,418.343Z" transform="translate(-288.974 -256.299)" fill="#0b2d61"/>
    <path id="Path_5225" data-name="Path 5225" d="M653.517,444.163H631.274a3.815,3.815,0,0,0-1.568,7.3h20.627a4.348,4.348,0,0,0,4.347-4.347A4.258,4.258,0,0,0,653.517,444.163Z" transform="translate(-288.978 -261.273)" fill="#0b2d61"/>
    <path id="Path_5226" data-name="Path 5226" d="M669.208,469.983H631.276a3.818,3.818,0,0,0,0,7.635h38.24a4.337,4.337,0,0,0-.307-7.635Z" transform="translate(-288.986 -266.247)" fill="#0b2d61"/>
    <path id="Path_5227" data-name="Path 5227" d="M512.17,444.163H464.276a3.818,3.818,0,0,0,0,7.635h47.677a4.337,4.337,0,0,0,.218-7.635Z" transform="translate(-256.814 -261.273)" fill="#0b2d61"/>
    <path id="Path_5228" data-name="Path 5228" d="M469.413,469.983h-5.138a3.817,3.817,0,0,0-1.2,7.441h3.3a4.348,4.348,0,0,0,4.347-4.347,4.294,4.294,0,0,0-1.3-3.094Z" transform="translate(-256.802 -266.247)" fill="#0b2d61"/>
    <path id="Path_5229" data-name="Path 5229" d="M492.214,418.343H464.276a3.818,3.818,0,0,0,0,7.635h27.171a4.346,4.346,0,0,0,.767-7.635Z" transform="translate(-256.809 -256.299)" fill="#0b2d61"/>
  </g>
</svg>
