<svg id="sales-funnels-design" xmlns="http://www.w3.org/2000/svg" width="610" height="494.159" viewBox="0 0 610 494.159">
  <path id="Path_4836" data-name="Path 4836" d="M96.824,0,56.507,78.637h8.139v64.126H23.63L0,188.851,292.787,338.963l96.824-188.851Z" fill="#f2f2f2"/>
  <rect id="Rectangle_696" data-name="Rectangle 696" width="449.166" height="225.203" transform="translate(88.311 51.154)" fill="#273a57"/>
  <rect id="Rectangle_697" data-name="Rectangle 697" width="331.316" height="0.763" transform="translate(151.447 132.137)" fill="#0b2d61" opacity="0.3"/>
  <rect id="Rectangle_698" data-name="Rectangle 698" width="331.316" height="0.763" transform="translate(151.829 151.231)" fill="#0b2d61" opacity="0.3"/>
  <rect id="Rectangle_699" data-name="Rectangle 699" width="331.316" height="0.763" transform="translate(151.829 189.419)" fill="#0b2d61" opacity="0.3"/>
  <rect id="Rectangle_700" data-name="Rectangle 700" width="331.316" height="0.763" transform="translate(151.829 206.222)" fill="#0b2d61" opacity="0.3"/>
  <rect id="Rectangle_701" data-name="Rectangle 701" width="331.316" height="0.763" transform="translate(151.829 170.325)" fill="#0b2d61" opacity="0.3"/>
  <ellipse id="Ellipse_495" data-name="Ellipse 495" cx="141.993" cy="12.978" rx="141.993" ry="12.978" transform="translate(290.898 468.203)" fill="#e4efff"/>
  <path id="Path_4837" data-name="Path 4837" d="M210.4,246.513l-1.053-1.105,49.316-47,43.473,31.27L337.286,190.7,352.7,203.8l41.933-25.16,46.578,31.306,73.1-41.582.754,1.327-73.925,42.05-46.557-31.293-42.041,25.224L337.427,192.82,302.349,231.71l-43.555-31.328Z" transform="translate(-49.38 -39.763)" fill="#fff"/>
  <path id="Path_4838" data-name="Path 4838" d="M597.08,714.113c3.588,13.263,15.878,21.477,15.878,21.477s6.472-13.29,2.884-26.553-15.878-21.478-15.878-21.478S593.492,700.849,597.08,714.113Z" transform="translate(-294.049 -259.011)" fill="#bbceeb"/>
  <path id="Path_4839" data-name="Path 4839" d="M596.7,715.388c9.845,9.584,11.048,24.317,11.048,24.317s-14.76-.806-24.605-10.39S572.091,705,572.091,705,586.851,705.8,596.7,715.388Z" transform="translate(-288.398 -263.137)" fill="#8aa1c5"/>
  <circle id="Ellipse_496" data-name="Ellipse 496" cx="25.574" cy="25.574" r="25.574" transform="translate(558.852 15.275)" fill="#0b2d61" opacity="0.4"/>
  <circle id="Ellipse_497" data-name="Ellipse 497" cx="17.94" cy="17.94" r="17.94" transform="translate(519.155 35.123)" fill="#0b2d61" opacity="0.4"/>
  <circle id="Ellipse_498" data-name="Ellipse 498" cx="9.543" cy="9.543" r="9.543" transform="translate(505.414 372.728)" fill="#0b2d61" opacity="0.4"/>
  <circle id="Ellipse_499" data-name="Ellipse 499" cx="7.252" cy="7.252" r="7.252" transform="translate(344.979 424.69)" fill="#0b2d61" opacity="0.4"/>
  <circle id="Ellipse_500" data-name="Ellipse 500" cx="9.543" cy="9.543" r="9.543" transform="translate(318.249 326.138)" fill="#0b2d61" opacity="0.4"/>
  <circle id="Ellipse_501" data-name="Ellipse 501" cx="9.924" cy="9.924" r="9.924" transform="translate(454.582 122.593)" fill="#0b2d61"/>
  <path id="Path_4840" data-name="Path 4840" d="M721.25,535.212l-8.413.935s-3.739,16.826,0,39.261,8.413,44.87,8.413,44.87,3.739,72.913,5.609,73.848,18.7,6.544,19.63.935.935-133.675.935-133.675l13.087,61.7s1.87,77.588,5.609,77.588,15.891-.935,15.891-7.478,2.8-92.544,2.8-92.544-.935-63.565-4.674-65.435S721.25,535.212,721.25,535.212Z" transform="translate(-321.239 -222.769)" fill="#0b2d61"/>
  <path id="Path_4841" data-name="Path 4841" d="M730.189,739.833s-8.413-.935-10.283,0-4.674,7.478,0,11.217,16.826,9.348,20.565,9.348a19.338,19.338,0,0,0,7.478-1.87l-1.87-15.891Z" transform="translate(-322.713 -271.281)" fill="#0b2d61"/>
  <path id="Path_4842" data-name="Path 4842" d="M783.149,744l.935,13.087s12.152,1.87,13.087,0,10.283-6.544,11.217-7.478,1.87-11.217-3.739-12.152-7.478,1.87-7.478,1.87Z" transform="translate(-338.258 -270.771)" fill="#0b2d61"/>
  <path id="Path_4843" data-name="Path 4843" d="M674.132,432.612s-22.435,21.5-19.63,32.717,25.239,43.935,25.239,43.935,21.5,11.217,24.3,0-14.957-8.413-14.957-8.413L675.067,467.2l15.891-22.435Z" transform="translate(-307.803 -198.791)" fill="#ffb8b8"/>
  <path id="Path_4844" data-name="Path 4844" d="M808.166,366.99s20.437-13.142,19.964-22.172-12.793-37.5-12.793-37.5-9.638-20.039-13.47-11.849,5.036,16.907,5.036,16.907l5.724,27.927-15.555,14.839Z" transform="translate(-341.545 -165.94)" fill="#ffb8b8"/>
  <circle id="Ellipse_502" data-name="Ellipse 502" cx="16.826" cy="16.826" r="16.826" transform="translate(399.067 148.699)" fill="#ffb8b8"/>
  <path id="Path_4845" data-name="Path 4845" d="M734.169,354.862l2.8,17.761,20.565-3.739s-.935-17.761-.935-19.63S734.169,354.862,734.169,354.862Z" transform="translate(-326.688 -179.045)" fill="#ffb8b8"/>
  <path id="Path_4846" data-name="Path 4846" d="M725.123,378.681s23.37-5.609,26.174-3.739,16.826,3.739,16.826,3.739l15.891,24.3-4.674,30.848s-.935,49.544.935,57.957,12.152,9.348-9.348,11.217-25.239-.935-40.2,2.8-27.109-1.87-23.37-5.609,10.283-63.565,2.8-69.174-10.283-34.587-10.283-34.587S725.123,383.355,725.123,378.681Z" transform="translate(-318.568 -185.066)" fill="#bbceeb"/>
  <path id="Path_4847" data-name="Path 4847" d="M785.6,381.025l2.8-2.8,5.609-5.609s18.228,7.946,17.294,10.75-7.011,19.163-7.011,19.163l-8.413,2.8Z" transform="translate(-338.837 -184.632)" fill="#bbceeb"/>
  <path id="Path_4848" data-name="Path 4848" d="M705.016,405.094l-11.217-1.87s-8.413,9.348-11.217,13.087-8.413,13.087-8.413,13.087L693.8,443.42l14.957-15.891Z" transform="translate(-312.511 -191.861)" fill="#bbceeb"/>
  <path id="Path_4849" data-name="Path 4849" d="M744.581,315.173l-.172-1.348a10.6,10.6,0,0,0-3.368.529,5.533,5.533,0,0,1,.208-2.422,10.77,10.77,0,0,0-3.117,1.355l-.68-2.46-9.345,4.605c-3.354,1.653-6.891,3.47-8.809,6.681-2.138,3.579-1.766,8.18-.3,12.084s3.89,7.36,5.836,11.047a27.588,27.588,0,0,0,2.652,4.514c3.527,4.4,10.393,5.286,15.367,2.632a8.892,8.892,0,0,0,4.258-4.382,28.484,28.484,0,0,0,.85-3.629c.615-2.513,1.329-7.7,3.37-9.289.9-.7,2.679,1.619,3.423.758,1.912-2.214,1.511-5.627.323-8.3a60.576,60.576,0,0,0-3.987-7.777C750.445,318.769,744.56,315.012,744.581,315.173Z" transform="translate(-322.816 -170.036)" fill="#2f2e41"/>
  <rect id="Rectangle_702" data-name="Rectangle 702" width="48.858" height="48.858" transform="translate(9.681 87.844)" fill="#273a57"/>
</svg>
