<svg xmlns="http://www.w3.org/2000/svg" width="610" height="508.978" viewBox="0 0 610 508.978">
  <g id="CMS-development" transform="translate(-74.258 0.009)">
    <path id="Path_4603" data-name="Path 4603" d="M529.094,316.911a4.309,4.309,0,0,1-4.858,1.416,6.564,6.564,0,0,1-.764-.279,32.46,32.46,0,0,0-.414-9,24.058,24.058,0,0,1-1.846,7.4,10.036,10.036,0,0,1-1.982-2.83,25.254,25.254,0,0,1-1.805-6.809c-1.356-7.982-2.695-16.286-.481-24.087,3.242-11.4,13.466-19.587,17.735-30.644l2.1-1.889c3.6,6.132,3.761,13.752,2.293,20.706s-4.4,13.507-6.729,20.226-4.069,13.866-2.99,20.9C529.6,313.677,529.983,315.5,529.094,316.911Z" transform="translate(-247.213 -236.417)" fill="#2f2e41"/>
    <path id="Path_4604" data-name="Path 4604" d="M232,157.1l-13.71,62.7,59.881,19.5L269.371,157.1Z" transform="translate(3.178 19.519)" fill="#ffb6b6"/>
    <path id="Path_4605" data-name="Path 4605" d="M913.65,718.057h27.135v-124.4A121.232,121.232,0,0,0,819.69,472.559H567.5A121.232,121.232,0,0,0,446.41,593.654v124.4h27.135V633.069a122.359,122.359,0,0,1,122.22-122.221H791.429A122.36,122.36,0,0,1,913.65,633.069Z" transform="translate(-256.527 -209.088)" fill="#273a57"/>
    <path id="Path_4608" data-name="Path 4608" d="M748.239,391.091H690.8a3.065,3.065,0,0,0-3.06,3.068V484.9h63.567V394.159a3.066,3.066,0,0,0-3.069-3.068Zm-28.526,51.556a6.815,6.815,0,0,1-6.783-6.783V425.4a6.783,6.783,0,1,1,13.565,0v10.466A6.814,6.814,0,0,1,719.713,442.647Z" transform="translate(-225.846 -218.943)" fill="#8aa1c5"/>
    <path id="Path_4609" data-name="Path 4609" d="M854.317,265.347H608.786a7.97,7.97,0,0,0-7.958,7.958V438.99a7.965,7.965,0,0,0,7.958,7.958H854.317a7.965,7.965,0,0,0,7.958-7.958V273.3a7.971,7.971,0,0,0-7.958-7.957Z" transform="translate(-237.075 -234.506)" fill="#8aa1c5"/>
    <path id="Path_4610" data-name="Path 4610" d="M851.623,270.451H610.194a4.265,4.265,0,0,0-4.256,4.265V436.294a4.263,4.263,0,0,0,4.256,4.256h241.43a4.263,4.263,0,0,0,4.256-4.256V274.715A4.265,4.265,0,0,0,851.623,270.451Z" transform="translate(-236.431 -233.862)" fill="#01183a"/>
    <path id="Path_4611" data-name="Path 4611" d="M687.565,471.812v8.754a1.715,1.715,0,0,0,1.711,1.711h60.539a1.72,1.72,0,0,0,1.711-1.711v-8.754Z" transform="translate(-225.869 -208.842)" fill="#3f3d56"/>
    <path id="Path_4612" data-name="Path 4612" d="M798.73,485.589H655.092a2.642,2.642,0,0,1-2.586-3.187l2.229-10.585a2.654,2.654,0,0,1,2.585-2.1H796.5a2.654,2.654,0,0,1,2.585,2.1l2.229,10.585a2.642,2.642,0,0,1-2.585,3.187Z" transform="translate(-230.338 -209.107)" fill="#8aa1c5"/>
    <rect id="Rectangle_599" data-name="Rectangle 599" width="4.424" height="2.654" rx="0.488" transform="translate(428.151 262.525)" fill="#e6e6e6"/>
    <rect id="Rectangle_600" data-name="Rectangle 600" width="4.424" height="2.654" rx="0.488" transform="translate(436.986 262.525)" fill="#e6e6e6"/>
    <rect id="Rectangle_601" data-name="Rectangle 601" width="4.424" height="2.654" rx="0.488" transform="translate(445.821 262.525)" fill="#e6e6e6"/>
    <rect id="Rectangle_602" data-name="Rectangle 602" width="4.424" height="2.654" rx="0.488" transform="translate(454.656 262.525)" fill="#e6e6e6"/>
    <rect id="Rectangle_603" data-name="Rectangle 603" width="4.424" height="2.654" rx="0.488" transform="translate(463.492 262.525)" fill="#e6e6e6"/>
    <rect id="Rectangle_604" data-name="Rectangle 604" width="4.424" height="2.654" rx="0.488" transform="translate(472.327 262.525)" fill="#e6e6e6"/>
    <rect id="Rectangle_605" data-name="Rectangle 605" width="4.424" height="2.654" rx="0.488" transform="translate(481.163 262.525)" fill="#e6e6e6"/>
    <rect id="Rectangle_606" data-name="Rectangle 606" width="4.424" height="2.654" rx="0.488" transform="translate(489.997 262.525)" fill="#e6e6e6"/>
    <rect id="Rectangle_607" data-name="Rectangle 607" width="4.424" height="2.654" rx="0.488" transform="translate(498.832 262.525)" fill="#e6e6e6"/>
    <rect id="Rectangle_608" data-name="Rectangle 608" width="4.424" height="2.654" rx="0.488" transform="translate(507.668 262.525)" fill="#e6e6e6"/>
    <rect id="Rectangle_609" data-name="Rectangle 609" width="4.424" height="2.654" rx="0.488" transform="translate(516.503 262.525)" fill="#e6e6e6"/>
    <rect id="Rectangle_610" data-name="Rectangle 610" width="4.424" height="2.654" rx="0.488" transform="translate(525.338 262.525)" fill="#e6e6e6"/>
    <rect id="Rectangle_611" data-name="Rectangle 611" width="4.424" height="2.654" rx="0.488" transform="translate(534.173 262.525)" fill="#e6e6e6"/>
    <rect id="Rectangle_612" data-name="Rectangle 612" width="4.424" height="2.654" rx="0.488" transform="translate(543.009 262.525)" fill="#e6e6e6"/>
    <rect id="Rectangle_613" data-name="Rectangle 613" width="4.424" height="2.654" rx="0.488" transform="translate(551.844 262.525)" fill="#e6e6e6"/>
    <rect id="Rectangle_614" data-name="Rectangle 614" width="4.424" height="2.654" rx="0.488" transform="translate(560.679 262.525)" fill="#e6e6e6"/>
    <rect id="Rectangle_615" data-name="Rectangle 615" width="4.424" height="2.654" rx="0.488" transform="translate(428.046 266.942)" fill="#e6e6e6"/>
    <rect id="Rectangle_616" data-name="Rectangle 616" width="4.424" height="2.654" rx="0.488" transform="translate(436.882 266.942)" fill="#e6e6e6"/>
    <rect id="Rectangle_617" data-name="Rectangle 617" width="4.424" height="2.654" rx="0.488" transform="translate(445.717 266.942)" fill="#e6e6e6"/>
    <rect id="Rectangle_618" data-name="Rectangle 618" width="4.424" height="2.654" rx="0.488" transform="translate(454.552 266.942)" fill="#e6e6e6"/>
    <rect id="Rectangle_619" data-name="Rectangle 619" width="4.424" height="2.654" rx="0.488" transform="translate(463.387 266.942)" fill="#e6e6e6"/>
    <rect id="Rectangle_620" data-name="Rectangle 620" width="4.424" height="2.654" rx="0.488" transform="translate(472.223 266.942)" fill="#e6e6e6"/>
    <rect id="Rectangle_621" data-name="Rectangle 621" width="4.424" height="2.654" rx="0.488" transform="translate(481.058 266.942)" fill="#e6e6e6"/>
    <rect id="Rectangle_622" data-name="Rectangle 622" width="4.424" height="2.654" rx="0.488" transform="translate(489.892 266.942)" fill="#e6e6e6"/>
    <rect id="Rectangle_623" data-name="Rectangle 623" width="4.424" height="2.654" rx="0.488" transform="translate(498.728 266.942)" fill="#e6e6e6"/>
    <rect id="Rectangle_624" data-name="Rectangle 624" width="4.424" height="2.654" rx="0.488" transform="translate(507.563 266.942)" fill="#e6e6e6"/>
    <rect id="Rectangle_625" data-name="Rectangle 625" width="4.424" height="2.654" rx="0.488" transform="translate(516.399 266.942)" fill="#e6e6e6"/>
    <rect id="Rectangle_626" data-name="Rectangle 626" width="4.424" height="2.654" rx="0.488" transform="translate(525.234 266.942)" fill="#e6e6e6"/>
    <rect id="Rectangle_627" data-name="Rectangle 627" width="4.424" height="2.654" rx="0.488" transform="translate(534.069 266.942)" fill="#e6e6e6"/>
    <rect id="Rectangle_628" data-name="Rectangle 628" width="4.424" height="2.654" rx="0.488" transform="translate(542.904 266.942)" fill="#e6e6e6"/>
    <rect id="Rectangle_629" data-name="Rectangle 629" width="4.424" height="2.654" rx="0.488" transform="translate(551.74 266.942)" fill="#e6e6e6"/>
    <rect id="Rectangle_630" data-name="Rectangle 630" width="4.424" height="2.654" rx="0.488" transform="translate(560.575 266.942)" fill="#e6e6e6"/>
    <rect id="Rectangle_631" data-name="Rectangle 631" width="35.391" height="2.654" rx="0.488" transform="translate(470.425 272.243)" fill="#e6e6e6"/>
    <path id="Path_4613" data-name="Path 4613" d="M808.817,308.82v85.046a21.478,21.478,0,0,1-21.472,21.475H680.9a21.489,21.489,0,0,1-19.72-12.944,20.24,20.24,0,0,1-1.271-3.949A19.556,19.556,0,0,0,667,399.767H773.445a19.825,19.825,0,0,0,19.8-19.8V294.924a19.557,19.557,0,0,0-1.318-7.095,20.251,20.251,0,0,1,3.953,1.273A21.487,21.487,0,0,1,808.817,308.82Z" transform="translate(-229.413 -231.67)" fill="#273a57"/>
    <path id="Path_4614" data-name="Path 4614" d="M188.563,373.6l-10.558,6.537-31.1-38.232,15.581-9.647Z" transform="translate(-5.588 41.329)" fill="#ffb6b6"/>
    <path id="Path_4615" data-name="Path 4615" d="M452.558,622.147l-8.493,3.791-5.1-7.341-.3,9.751L416.143,638.4a5.545,5.545,0,0,1-7-7.946l12.442-20.452-3.618-8.106,19.424-7.317Z" transform="translate(-260.468 -193.696)" fill="#8aa1c5"/>
    <path id="Path_4616" data-name="Path 4616" d="M419.265,622.765l17.831-17.28c-13.248-32.691-14.306-52.953-32.672-92.491,43.574,8.912,74.726,8.371,110.763.38,12.2-2.663,43.678-26.978,41.09-39.445q-.181-.874-.429-1.732c-3.868-13.189-1.144-33.385-9.517-48.021-15.49-5.84-39.024,13.88-57.433,25.9-8.877,5.8-2.379,13.7-9.009,15.766l-25.416,8.25-62.357-10.071a23.1,23.1,0,0,0-26.325,19.549q-.158,1.016-.229,2.042c2.869,15.882,5.86,31.348,9.08,46.029,1.039,4.739-.715,13.824,3.193,13.959s2.334,9.532,3.551,14.125C388.881,588.009,393.62,601.7,419.265,622.765Z" transform="translate(-265.866 -215.089)" fill="#8aa1c5"/>
    <path id="Path_4617" data-name="Path 4617" d="M128.561,435.552l-11-5.741,17.4-46.1,16.233,8.473Z" transform="translate(-9.294 47.682)" fill="#ffb6b6"/>
    <path id="Path_4618" data-name="Path 4618" d="M381.316,661.526l17.637,12.143c21.616-31.261,35.651-73.035,46.1-119.776,40.7-17.753,76.308-38.065,101.123-65.308a23.553,23.553,0,0,0-1.362-32.765q-.651-.611-1.347-1.17c-10.749-8.562-34.621-3.635-49.879-10.792l-27.257,37.725,3.133,8.787-9.482,4.616-8.006,3.9-9.165,4.462L412.771,517.97a23.067,23.067,0,0,0-10.235,31.114q.455.921.988,1.8l-11.158,55.586s3.07,9.677-1.761,8.772-2.2,10.952-2.2,10.952Z" transform="translate(-263.877 -212.708)" fill="#8aa1c5"/>
    <path id="Path_4619" data-name="Path 4619" d="M381.323,694.712l-8.245-4.3,2.591-8.552-7.832,5.817-21.868-11.413a5.545,5.545,0,0,1,1.883-10.419L371.61,662.9l4.107-7.87,17.8,10.683Z" transform="translate(-268.732 -186.072)" fill="#8aa1c5"/>
    <path id="Path_4620" data-name="Path 4620" d="M593.082,479.147l-12.864-31.088-10.135,5.631,6.121,31.624a11.263,11.263,0,1,0,16.879-6.167Z" transform="translate(-240.454 -211.831)" fill="#ffb6b6"/>
    <path id="Path_4621" data-name="Path 4621" d="M399.659,259.817l19.573,27.365,8.6-7.781L414.7,249.986a11.263,11.263,0,1,0-15.042,9.831Z" transform="translate(-262.506 -237.961)" fill="#ffb6b6"/>
    <path id="Path_4622" data-name="Path 4622" d="M486.382,430.722c-12.7,19.692,33.816,62.6,58.3,52.565,4.288-1.757,19.037-7.559,8.955-15.6s1.169.958,1.435-4.279c.178-3.5-2.533-11.182.3-10.852s4.452-7.851-1.708-9.934a11.957,11.957,0,0,1-7.883-10.135c-.589-21.584,6.721-44.119,6.721-44.119l29.84,76.279s-.22,13.2,3.585,9.164,3.529,9.02,3.529,9.02,5.658,3.949,2.4,6.147,3.5,8.955,3.5,8.955l15.766-1.126s-.247-11.712-2.939-14.3-1.37-6.666-1.37-6.666-5.55-5.162-2.31-11.242-23.594-114.822-23.594-114.822a28.964,28.964,0,0,0-20.683-22.1L543.2,322.985l-3.024-12H516.2l-4.176,7.883-38.289-3.378S435.851,281.021,437.7,278.33s-4.023-8.993-4.023-8.993-5.016-1.642-2.185-2.518-2.519-2.9-2.519-2.9-4.955-1.3-2.618-3.016-7.8-2.84-7.8-2.84l-13.15,10.729,2.658,4.507s-1.621,6.137.494,3.9,2.513,4.261,2.513,4.261,1.08,7.119,7.485,9.264,11.261,22.523,11.261,22.523l54.055,45.046c-8.233,9.45-6.273,19.331,1.02,29.439Z" transform="translate(-260.833 -235.425)" fill="#0b2d61"/>
    <circle id="Ellipse_476" data-name="Ellipse 476" cx="25.964" cy="25.964" r="25.964" transform="translate(240.582 15.664)" fill="#ffb6b6"/>
    <path id="Path_4623" data-name="Path 4623" d="M541.6,271.361c-.664.191-10.417,1.464-14.64,2.252-4.144.777-4.865-4.5-8.255-3.514a.142.142,0,0,0-.011-.068,31.918,31.918,0,0,0-2.669-8.074,23.851,23.851,0,0,1,.192,7.433,1.11,1.11,0,0,1-.023.191c-.011.113-.034.214-.045.327-3.581-1.577-5.856-.169-8.333.327-2.77.552-4.933,1.768-3.378,11.261,3.187,19.527,19.764,26.5,16.892,39.415-.563,2.556-1.982,5.755-3.761,6.554a31.916,31.916,0,0,0-2.669-8.074,23.851,23.851,0,0,1,.191,7.432c-2.759-2.984-4.752-13.412-14.032-21.678-2.286-2.027-13.739-14.054-15.113-16.892a36.189,36.189,0,0,1,.608,6.881,33.1,33.1,0,0,1-.315,4.617,1.3,1.3,0,0,1-.034.293c-.011.18-.045.338-.068.507-.022.191-.056.372-.09.563-3.75-.541-7.072-1.194-8.638-2.725-7.613-7.41,1.678-21.847,6.757-34.91,7.264-18.705,28.356-21.194,30.406-21.4,9.032-.912,24.291,1.025,29.279,11.261C547.339,260.516,545.11,270.348,541.6,271.361Z" transform="translate(-252.366 -237.466)" fill="#292929"/>
    <path id="Path_4624" data-name="Path 4624" d="M486.975,275.522l18.808-29.257a28.844,28.844,0,0,0-14.852-3.9,18.491,18.491,0,0,0-13.637,6.432c-3.841,4.774-4.5,11.522-3.061,17.479.5,2.057,9.962-5.181,7.71-1.8-1.849,2.645-4.872,13.763-5.631,16.892-1.22,5.036-4.576,10.205-1.587,14.438,3.535,5.005,9.842,7.493,15.965,7.746s12.148-1.444,17.967-3.366Z" transform="translate(-252.476 -237.404)" fill="#292929"/>
    <path id="Path_4625" data-name="Path 4625" d="M492.012,274.173a1.126,1.126,0,0,1-.307-2.209c.3-.487.174-2.538.077-4.194-.366-6.221-.979-16.632,9.129-23.66a1.126,1.126,0,0,1,1.286,1.849c-9.071,6.308-8.526,15.558-8.166,21.679.206,3.5.355,6.027-1.768,6.508A1.115,1.115,0,0,1,492.012,274.173Z" transform="translate(-250.305 -237.21)" fill="#8aa1c5"/>
    <path id="Path_4627" data-name="Path 4627" d="M700.25,333.193H683.208a1.7,1.7,0,0,1,0-3.408h17.041a1.7,1.7,0,0,1,0,3.408Z" transform="translate(-226.578 -226.525)" fill="#e4efff"/>
    <path id="Path_4628" data-name="Path 4628" d="M727.487,333.193H710.446a1.7,1.7,0,0,1,0-3.408h17.041a1.7,1.7,0,0,1,0,3.408Z" transform="translate(-223.187 -226.525)" fill="#e4efff"/>
    <path id="Path_4629" data-name="Path 4629" d="M741.105,345.3H724.065a1.7,1.7,0,0,1,0-3.408h17.041a1.7,1.7,0,1,1,0,3.408Z" transform="translate(-221.492 -225.017)" fill="#e4efff"/>
    <path id="Path_4630" data-name="Path 4630" d="M715.68,345.3H683.208a1.7,1.7,0,1,1,0-3.408H715.68a1.7,1.7,0,0,1,0,3.408Z" transform="translate(-226.593 -225.017)" fill="#e4efff"/>
    <path id="Path_4631" data-name="Path 4631" d="M770.155,333.193H737.684a1.7,1.7,0,0,1,0-3.408h32.472a1.7,1.7,0,0,1,0,3.408Z" transform="translate(-219.814 -226.525)" fill="#e4efff"/>
    <path id="Path_4632" data-name="Path 4632" d="M712.337,310.269H679.866a1.7,1.7,0,0,1,0-3.408h32.472a1.7,1.7,0,1,1,0,3.408Z" transform="translate(-227.009 -229.269)" fill="#e4efff"/>
    <path id="Path_4633" data-name="Path 4633" d="M711.051,321.393a1.526,1.526,0,0,1-.937-2.731l8.315-6.463a3.056,3.056,0,0,0,.369-4.486l-6.981-7.557a1.526,1.526,0,1,1,2.241-2.072l10.366,11.222a1.526,1.526,0,0,1-.184,2.241l-12.254,9.525A1.522,1.522,0,0,1,711.051,321.393Z" transform="translate(-223.084 -230.438)" fill="#e4efff"/>
    <path id="Path_4634" data-name="Path 4634" d="M679.759,321.393a1.526,1.526,0,0,0,.937-2.731l-8.315-6.463a3.056,3.056,0,0,1-.369-4.486l6.981-7.557a1.526,1.526,0,0,0-2.241-2.072l-10.366,11.222a1.526,1.526,0,0,0,.184,2.241l12.254,9.525A1.522,1.522,0,0,0,679.759,321.393Z" transform="translate(-228.506 -230.438)" fill="#e4efff"/>
    <path id="Path_4635" data-name="Path 4635" d="M727.244,371.249H694.772a1.7,1.7,0,1,1,0-3.408h32.472a1.7,1.7,0,0,1,0,3.408Z" transform="translate(-225.154 -221.785)" fill="#e4efff"/>
    <path id="Path_4636" data-name="Path 4636" d="M728.668,381.018a1.526,1.526,0,0,1-.937-2.731l8.315-6.463a3.056,3.056,0,0,0,.369-4.486l-6.981-7.557a1.526,1.526,0,0,1,2.241-2.071l10.366,11.222a1.526,1.526,0,0,1-.184,2.241L729.6,380.7a1.522,1.522,0,0,1-.936.321Z" transform="translate(-220.891 -223.116)" fill="#e4efff"/>
    <path id="Path_4637" data-name="Path 4637" d="M679.759,381.018a1.526,1.526,0,0,0,.937-2.731l-8.315-6.463a3.056,3.056,0,0,1-.369-4.486l6.981-7.557a1.526,1.526,0,0,0-2.241-2.071l-10.366,11.222a1.526,1.526,0,0,0,.184,2.241l12.254,9.525A1.522,1.522,0,0,0,679.759,381.018Z" transform="translate(-228.506 -223.116)" fill="#e4efff"/>
    <path id="Path_4638" data-name="Path 4638" d="M680.8,375.976l6.826-15.614a1.7,1.7,0,1,1,3.123,1.365l-6.826,15.614a1.7,1.7,0,0,1-3.123-1.365Z" transform="translate(-226.673 -222.85)" fill="#e4efff"/>
  </g>
</svg>
