<svg xmlns="http://www.w3.org/2000/svg" width="731.662" height="436.38" viewBox="0 0 731.662 436.38">
  <g id="web-application-design" transform="translate(0 0)">
    <path id="Path_4379" data-name="Path 4379" d="M277.281,566.582c-21.535-7.834-40.229-26.574-42.6-49.367a105.583,105.583,0,0,0,70.661,16.18c9.531-1.236,20-3.6,28.159,1.481,5.075,3.163,8.226,8.78,9.671,14.583s1.38,11.861,1.306,17.841l.671,1.334C322.652,573,298.816,574.416,277.281,566.582Z" transform="translate(-234.169 -231.81)" fill="#f0f0f0"/>
    <path id="Path_4380" data-name="Path 4380" d="M235.147,517.1a90.245,90.245,0,0,0,44.5,33.208,38.861,38.861,0,0,0,11.96,2.286,22.29,22.29,0,0,0,11.315-3.1c3.234-1.823,6.331-4.062,9.951-5.066a13.648,13.648,0,0,1,11.009,1.838c4.061,2.549,6.963,6.406,9.67,10.276,3.006,4.3,6.06,8.807,10.752,11.416.569.316.045,1.18-.523.864-8.164-4.538-11.186-14.165-18.135-20.017-3.242-2.731-7.327-4.5-11.612-3.619-3.747.771-6.943,3.078-10.2,4.951a23.784,23.784,0,0,1-10.951,3.439,35.926,35.926,0,0,1-12-1.818,87.552,87.552,0,0,1-24.508-12.173,91.845,91.845,0,0,1-22.111-22.007c-.375-.529.515-1.008.888-.482Z" transform="translate(-234.169 -231.81)" fill="#fff"/>
    <path id="Path_4381" data-name="Path 4381" d="M273.749,548.68a13.54,13.54,0,0,1-16.126,6.88c-.62-.195-.346-1.167.274-.972a12.537,12.537,0,0,0,14.988-6.43c.288-.583,1.15-.057.864.523Z" transform="translate(-234.169 -231.81)" fill="#fff"/>
    <path id="Path_4382" data-name="Path 4382" d="M301.4,550.64a26.1,26.1,0,0,0-12.048-14.715c-.567-.318-.044-1.182.523-.864A27.144,27.144,0,0,1,302.384,550.4c.2.62-.783.858-.981.241Z" transform="translate(-234.169 -231.81)" fill="#fff"/>
    <path id="Path_4383" data-name="Path 4383" d="M248.941,532.87a7.664,7.664,0,0,0,1.262-7.162c-.207-.617.776-.855.981-.241a8.588,8.588,0,0,1-1.379,7.926.522.522,0,0,1-.693.171A.507.507,0,0,1,248.941,532.87Z" transform="translate(-234.169 -231.81)" fill="#fff"/>
    <path id="Path_4384" data-name="Path 4384" d="M289.032,461.845c.14.382.28.764.428,1.148a100.929,100.929,0,0,0,6.94,14.829c.2.37.416.743.63,1.106A106.406,106.406,0,0,0,322.7,508.516a103.323,103.323,0,0,0,13.011,8.787c6.289,3.583,13.393,6.968,18,12.263a17.73,17.73,0,0,1,1.353,1.727l-8.342,36.418c-.06.073-.113.149-.173.222l-.267,1.469c-.244-.117-.495-.244-.739-.362-.142-.068-.282-.143-.424-.211-.094-.048-.188-.1-.276-.133-.031-.016-.063-.032-.086-.046-.088-.038-.165-.082-.244-.117q-2.105-1.059-4.2-2.152c-.008,0-.008,0-.015-.012a151.935,151.935,0,0,1-29.866-19.958c-.269-.237-.547-.475-.813-.728A98.606,98.606,0,0,1,298.5,534.052a87.168,87.168,0,0,1-5.177-7.141,72.486,72.486,0,0,1-9.195-20.715c-3.9-14.642-3.083-30.369,4.327-43.363C288.646,462.5,288.834,462.175,289.032,461.845Z" transform="translate(-234.169 -231.81)" fill="#f0f0f0"/>
    <path id="Path_4385" data-name="Path 4385" d="M289.476,462.033a90.245,90.245,0,0,0,15.536,53.306,38.862,38.862,0,0,0,8.173,9.026,22.29,22.29,0,0,0,10.9,4.341c3.679.492,7.5.569,11,1.946a13.648,13.648,0,0,1,7.684,8.1c1.707,4.48,1.7,9.307,1.534,14.027-.187,5.24-.464,10.681,1.712,15.588.264.595-.674.969-.938.375-3.786-8.539-.4-18.045-2.428-26.9-.945-4.132-3.141-8.005-7.093-9.881-3.456-1.64-7.4-1.723-11.126-2.188a23.784,23.784,0,0,1-10.814-3.847,35.927,35.927,0,0,1-8.49-8.678,87.553,87.553,0,0,1-12.239-24.475,91.845,91.845,0,0,1-4.4-30.884c.019-.648,1.018-.495,1,.149Z" transform="translate(-234.169 -231.81)" fill="#fff"/>
    <path id="Path_4386" data-name="Path 4386" d="M301.285,510.487a13.54,13.54,0,0,1-17.018-4.216c-.378-.529.426-1.141.8-.611a12.537,12.537,0,0,0,15.838,3.89c.581-.292.952.647.375.938Z" transform="translate(-234.169 -231.81)" fill="#fff"/>
    <path id="Path_4387" data-name="Path 4387" d="M322.185,528.7a26.1,26.1,0,0,0-.76-19c-.262-.6.676-.97.938-.375a27.144,27.144,0,0,1,.751,19.776C322.9,529.715,321.972,529.313,322.185,528.7Z" transform="translate(-234.169 -231.81)" fill="#fff"/>
    <path id="Path_4388" data-name="Path 4388" d="M291,482.928a7.664,7.664,0,0,0,5.32-4.958c.207-.617,1.134-.215.928.4a8.588,8.588,0,0,1-5.873,5.5.522.522,0,0,1-.656-.281.508.508,0,0,1,.281-.656Z" transform="translate(-234.169 -231.81)" fill="#fff"/>
    <path id="Path_4389" data-name="Path 4389" d="M929.1,565.83c20.409-10.422,36.658-31.318,36.21-54.229a105.583,105.583,0,0,1-68.137,24.742c-9.611-.055-20.294-1.117-27.764,4.931-4.648,3.763-7.084,9.724-7.805,15.661s.088,11.94.9,17.866l-.5,1.406C884.859,577.776,908.689,576.252,929.1,565.83Z" transform="translate(-234.169 -231.81)" fill="#f0f0f0"/>
    <path id="Path_4390" data-name="Path 4390" d="M964.83,511.545a90.245,90.245,0,0,1-40.08,38.426,38.863,38.863,0,0,1-11.588,3.739,22.289,22.289,0,0,1-11.61-1.681c-3.433-1.411-6.782-3.253-10.5-3.8a13.648,13.648,0,0,0-10.7,3.177c-3.716,3.029-6.123,7.213-8.334,11.386-2.455,4.634-4.931,9.485-9.267,12.651-.525.384.1,1.176.625.793,7.544-5.507,9.36-15.432,15.537-22.094,2.882-3.109,6.719-5.367,11.08-5.018,3.813.305,7.268,2.2,10.732,3.66a23.785,23.785,0,0,0,11.291,2.067,35.928,35.928,0,0,0,11.689-3.279,87.553,87.553,0,0,0,22.825-15.094,91.846,91.846,0,0,0,19.238-24.558c.307-.571-.635-.937-.94-.369Z" transform="translate(-234.169 -231.81)" fill="#fff"/>
    <path id="Path_4391" data-name="Path 4391" d="M930.4,547.629a13.54,13.54,0,0,0,16.85,4.845c.591-.27.2-1.2-.392-.931A12.537,12.537,0,0,1,931.2,547c-.357-.543-1.148.085-.793.625Z" transform="translate(-234.169 -231.81)" fill="#fff"/>
    <path id="Path_4392" data-name="Path 4392" d="M903.2,552.974a26.1,26.1,0,0,1,10.148-16.084c.524-.385-.1-1.178-.625-.793A27.144,27.144,0,0,0,902.2,552.855c-.121.64.883.755,1,.119Z" transform="translate(-234.169 -231.81)" fill="#fff"/>
    <path id="Path_4393" data-name="Path 4393" d="M953.079,528.89a7.664,7.664,0,0,1-2.133-6.953c.129-.638-.875-.753-1-.119a8.588,8.588,0,0,0,2.343,7.7.522.522,0,0,0,.709.084.508.508,0,0,0,.084-.709Z" transform="translate(-234.169 -231.81)" fill="#fff"/>
    <path id="Path_4394" data-name="Path 4394" d="M904.561,463.331c-.092.4-.184.792-.284,1.191a100.932,100.932,0,0,1-5.064,15.57c-.157.393-.321.788-.489,1.175a106.406,106.406,0,0,1-21.844,32.52,103.332,103.332,0,0,1-11.832,10.32c-5.8,4.329-12.435,8.561-16.351,14.382a17.718,17.718,0,0,0-1.131,1.88l12.755,35.117c.069.065.13.134.2.2l.445,1.425c.228-.147.461-.3.689-.45.133-.084.262-.177.395-.261.087-.059.175-.118.257-.166.029-.019.058-.039.079-.056.082-.048.154-.1.228-.147q1.959-1.31,3.907-2.652c.008,0,.008,0,.013-.014a151.937,151.937,0,0,0,27.186-23.478c.238-.268.484-.539.717-.823a98.611,98.611,0,0,0,9.6-12.911,87.212,87.212,0,0,0,4.26-7.723,72.486,72.486,0,0,0,6.579-21.688c2.075-15.01-.673-30.517-9.624-42.5C905.025,463.934,904.8,463.635,904.561,463.331Z" transform="translate(-234.169 -231.81)" fill="#f0f0f0"/>
    <path id="Path_4395" data-name="Path 4395" d="M904.144,463.572a90.245,90.245,0,0,1-8.866,54.812,38.859,38.859,0,0,1-7,9.962,22.29,22.29,0,0,1-10.282,5.648c-3.591.94-7.373,1.486-10.673,3.283a13.648,13.648,0,0,0-6.63,8.979c-1.144,4.656-.546,9.445.2,14.109.83,5.178,1.773,10.543.217,15.681-.189.623.788.879.977.257,2.708-8.939-1.817-17.957-.9-27,.43-4.217,2.133-8.331,5.825-10.678,3.229-2.052,7.128-2.619,10.773-3.539a23.784,23.784,0,0,0,10.259-5.147,35.928,35.928,0,0,0,7.359-9.656,87.555,87.555,0,0,0,9.137-25.794,91.845,91.845,0,0,0,.575-31.191c-.1-.641-1.071-.366-.973.271Z" transform="translate(-234.169 -231.81)" fill="#fff"/>
    <path id="Path_4396" data-name="Path 4396" d="M898.381,513.111a13.54,13.54,0,0,0,16.371-6.276c.31-.571-.563-1.08-.873-.508a12.537,12.537,0,0,1-15.24,5.807c-.612-.219-.866.759-.257.977Z" transform="translate(-234.169 -231.81)" fill="#fff"/>
    <path id="Path_4397" data-name="Path 4397" d="M879.878,533.757A26.1,26.1,0,0,1,878.3,514.8c.186-.623-.791-.88-.977-.257a27.144,27.144,0,0,0,1.685,19.719c.289.584,1.159.072.872-.509Z" transform="translate(-234.169 -231.81)" fill="#fff"/>
    <path id="Path_4398" data-name="Path 4398" d="M905.2,484.5a7.664,7.664,0,0,1-5.889-4.267c-.281-.587-1.152-.074-.872.509a8.588,8.588,0,0,0,6.5,4.735.522.522,0,0,0,.617-.36.508.508,0,0,0-.36-.617Z" transform="translate(-234.169 -231.81)" fill="#fff"/>
    <path id="Path_4399" data-name="Path 4399" d="M871.5,246.81H727.708v9.25a2.04,2.04,0,0,0,.46,1.3c-.29,7.23-.46,16.46-.46,26.49v247.3c0,23.18.93,42.04,2.07,42.04h139.65c1.14,0,2.07-18.86,2.07-42.04V283.85c0-10.03-.17-19.26-.46-26.49a2.04,2.04,0,0,0,.46-1.3Z" transform="translate(-234.169 -231.81)" fill="#fff"/>
    <path id="Path_4400" data-name="Path 4400" d="M869.429,574.19H729.779c-1.088,0-1.807,0-2.461-13.278-.393-7.968-.609-18.538-.609-29.762V283.85c0-9.694.164-19.116.461-26.53.186-4.452.4-8.018.633-10.6.459-5.056.9-5.91,1.976-5.91h139.65c1.079,0,1.516.854,1.976,5.91.235,2.592.448,6.158.633,10.6v0c.3,7.407.461,16.829.461,26.53v247.3c0,11.224-.216,21.794-.609,29.762C871.236,574.19,870.517,574.19,869.429,574.19Zm-139.082-2H868.86c.724-2.733,1.638-17.57,1.638-41.04V283.85c0-9.675-.163-19.068-.459-26.448h0c-.184-4.408-.4-7.941-.626-10.5a28.886,28.886,0,0,0-.562-4.09H730.356a28.894,28.894,0,0,0-.562,4.09c-.231,2.55-.442,6.084-.627,10.5-.3,7.387-.459,16.78-.459,26.448v247.3c0,23.469.915,38.307,1.639,41.04Z" transform="translate(-234.169 -231.81)" fill="#e4e4e4"/>
    <path id="Path_4401" data-name="Path 4401" d="M869.429,241.81H729.779a2.074,2.074,0,0,0-2.07,2.07v12.18a2.04,2.04,0,0,0,.461,1.3,2.08,2.08,0,0,0,1.61.77h139.65a2.08,2.08,0,0,0,1.61-.77,2.04,2.04,0,0,0,.46-1.3V243.88A2.074,2.074,0,0,0,869.429,241.81Z" transform="translate(-234.169 -231.81)" fill="#cacaca"/>
    <circle id="Ellipse_90" data-name="Ellipse 90" cx="2.94" cy="2.94" r="2.94" transform="translate(502.619 14.626)" fill="#fff"/>
    <circle id="Ellipse_91" data-name="Ellipse 91" cx="2.94" cy="2.94" r="2.94" transform="translate(513.777 14.626)" fill="#fff"/>
    <circle id="Ellipse_92" data-name="Ellipse 92" cx="2.94" cy="2.94" r="2.94" transform="translate(524.935 14.626)" fill="#fff"/>
    <path id="Path_4402" data-name="Path 4402" d="M858.5,245.45h-12.85a.956.956,0,0,0-.95.95.8.8,0,0,0,.1.41.943.943,0,0,0,.85.54H858.5a.948.948,0,0,0,.86-.54.913.913,0,0,0,.09-.41.95.95,0,0,0-.95-.95Z" transform="translate(-234.169 -231.81)" fill="#fff"/>
    <path id="Path_4403" data-name="Path 4403" d="M858.5,249.02h-12.85a.95.95,0,1,0,0,1.9H858.5a.95.95,0,1,0,0-1.9Z" transform="translate(-234.169 -231.81)" fill="#fff"/>
    <path id="Path_4404" data-name="Path 4404" d="M858.5,252.59h-12.85a.95.95,0,1,0,0,1.9H858.5a.95.95,0,1,0,0-1.9Z" transform="translate(-234.169 -231.81)" fill="#fff"/>
    <path id="Path_4406" data-name="Path 4406" d="M846.349,332.69H754.2a2.27,2.27,0,1,0,0,4.54h92.15a2.27,2.27,0,1,0,0-4.54Z" transform="translate(-234.169 -231.81)" fill="#e4e4e4"/>
    <path id="Path_4407" data-name="Path 4407" d="M789.2,343.33h-35a2.27,2.27,0,1,0,0,4.54h35a2.27,2.27,0,0,0,0-4.54Z" transform="translate(-234.169 -231.81)" fill="#e4e4e4"/>
    <path id="Path_4409" data-name="Path 4409" d="M846.349,431.69H754.2a2.27,2.27,0,1,0,0,4.54h92.15a2.27,2.27,0,1,0,0-4.54Z" transform="translate(-234.169 -231.81)" fill="#e4e4e4"/>
    <path id="Path_4410" data-name="Path 4410" d="M789.2,442.33h-35a2.27,2.27,0,1,0,0,4.54h35a2.27,2.27,0,0,0,0-4.54Z" transform="translate(-234.169 -231.81)" fill="#e4e4e4"/>
    <path id="Path_4412" data-name="Path 4412" d="M846.349,530.69H754.2a2.27,2.27,0,1,0,0,4.54h92.15a2.27,2.27,0,0,0,0-4.54Z" transform="translate(-234.169 -231.81)" fill="#e4e4e4"/>
    <path id="Path_4413" data-name="Path 4413" d="M789.2,541.33h-35a2.27,2.27,0,0,0,0,4.54h35a2.27,2.27,0,1,0,0-4.54Z" transform="translate(-234.169 -231.81)" fill="#e4e4e4"/>
    <path id="Path_4414" data-name="Path 4414" d="M688.5,234.88a2.074,2.074,0,0,0-2.07-2.07H316.779a2.074,2.074,0,0,0-2.07,2.07v12.18a2.017,2.017,0,0,0,.53,1.37c-.33,8.27-.53,19.17-.53,31.11V554.45c0,25.78.93,46.74,2.07,46.74h369.65c1.14,0,2.07-20.96,2.07-46.74V279.54c0-11.94-.2-22.84-.53-31.11a2.016,2.016,0,0,0,.53-1.37Z" transform="translate(-234.169 -231.81)" fill="#fff"/>
    <path id="Path_4415" data-name="Path 4415" d="M686.429,602.19H316.779c-1.13,0-1.812,0-2.462-14.658-.392-8.855-.609-20.6-.609-33.082V279.54c0-11.507.189-22.57.531-31.15.657-16.58,1.406-16.58,2.539-16.58h369.65c1.133,0,1.882,0,2.539,16.58h0c.342,8.572.531,19.635.531,31.15V554.45c0,12.479-.216,24.227-.608,33.082C688.241,602.19,687.558,602.19,686.429,602.19Zm-369.066-2H685.845c.818-3.135,1.654-20.74,1.654-45.74V279.54c0-11.489-.188-22.524-.529-31.07h0c-.417-10.5-.9-13.7-1.135-14.66H317.373c-.233.96-.719,4.156-1.135,14.66-.341,8.555-.529,19.589-.529,31.07V554.45c0,25,.836,42.6,1.654,45.74Z" transform="translate(-234.169 -231.81)" fill="#e4e4e4"/>
    <path id="Path_4416" data-name="Path 4416" d="M686.429,232.81H316.779a2.074,2.074,0,0,0-2.07,2.07v12.18a2.017,2.017,0,0,0,.53,1.37,2.051,2.051,0,0,0,1.54.7h369.65a2.051,2.051,0,0,0,1.54-.7,2.016,2.016,0,0,0,.53-1.37V234.88a2.074,2.074,0,0,0-2.07-2.07Z" transform="translate(-234.169 -231.81)" fill="#cacaca"/>
    <circle id="Ellipse_90-2" data-name="Ellipse 90" cx="2.94" cy="2.94" r="2.94" transform="translate(89.619 5.626)" fill="#fff"/>
    <circle id="Ellipse_91-2" data-name="Ellipse 91" cx="2.94" cy="2.94" r="2.94" transform="translate(100.777 5.626)" fill="#fff"/>
    <circle id="Ellipse_92-2" data-name="Ellipse 92" cx="2.94" cy="2.94" r="2.94" transform="translate(111.935 5.626)" fill="#fff"/>
    <path id="Path_4417" data-name="Path 4417" d="M675.5,236.45h-12.85a.95.95,0,1,0,0,1.9H675.5a.95.95,0,1,0,0-1.9Z" transform="translate(-234.169 -231.81)" fill="#fff"/>
    <path id="Path_4418" data-name="Path 4418" d="M675.5,240.02h-12.85a.95.95,0,1,0,0,1.9H675.5a.95.95,0,1,0,0-1.9Z" transform="translate(-234.169 -231.81)" fill="#fff"/>
    <path id="Path_4419" data-name="Path 4419" d="M675.5,243.59h-12.85a.95.95,0,1,0,0,1.9H675.5a.95.95,0,1,0,0-1.9Z" transform="translate(-234.169 -231.81)" fill="#fff"/>
    <path id="Path_4421" data-name="Path 4421" d="M614.688,308.32H463.909a3.715,3.715,0,1,0,0,7.43H614.688a3.715,3.715,0,1,0,0-7.43Z" transform="translate(-234.169 -231.81)" fill="#e4e4e4"/>
    <path id="Path_4422" data-name="Path 4422" d="M521.179,325.73h-57.27a3.715,3.715,0,0,0,0,7.43h57.27a3.715,3.715,0,1,0,0-7.43Z" transform="translate(-234.169 -231.81)" fill="#e4e4e4"/>
    <path id="Path_4424" data-name="Path 4424" d="M614.688,408.32H463.909a3.715,3.715,0,0,0,0,7.43H614.688a3.715,3.715,0,1,0,0-7.43Z" transform="translate(-234.169 -231.81)" fill="#e4e4e4"/>
    <path id="Path_4425" data-name="Path 4425" d="M521.179,425.73h-57.27a3.715,3.715,0,1,0,0,7.43h57.27a3.715,3.715,0,1,0,0-7.43Z" transform="translate(-234.169 -231.81)" fill="#e4e4e4"/>
    <path id="Path_4427" data-name="Path 4427" d="M614.688,508.32H463.909a3.715,3.715,0,1,0,0,7.43H614.688a3.715,3.715,0,1,0,0-7.43Z" transform="translate(-234.169 -231.81)" fill="#e4e4e4"/>
    <path id="Path_4428" data-name="Path 4428" d="M521.179,525.73h-57.27a3.715,3.715,0,1,0,0,7.43h57.27a3.715,3.715,0,0,0,0-7.43Z" transform="translate(-234.169 -231.81)" fill="#e4e4e4"/>
    <path id="Path_4429" data-name="Path 4429" d="M752.431,667.19H504.783c-1.142,0-2.071-17.549-2.071-39.123V397.933c0-21.574.929-39.123,2.071-39.123H752.431c1.142,0,2.07,17.549,2.07,39.123V628.067C754.5,649.641,753.573,667.19,752.431,667.19Z" transform="translate(-234.169 -231.81)" fill="#fff"/>
    <path id="Path_4430" data-name="Path 4430" d="M752.432,668.19H504.783c-1.048,0-1.8,0-2.462-12.419-.393-7.415-.609-17.254-.609-27.705V397.933c0-10.451.216-20.29.609-27.7.657-12.419,1.414-12.419,2.462-12.419H752.432c1.048,0,1.8,0,2.462,12.419.393,7.415.609,17.254.609,27.7V628.066c0,10.451-.216,20.29-.609,27.705C754.236,668.19,753.479,668.19,752.432,668.19Zm-247.1-2H751.879c.718-2.591,1.624-16.394,1.624-38.123V397.933c0-21.729-.906-35.533-1.624-38.124H505.337c-.718,2.591-1.624,16.394-1.624,38.124V628.066c0,21.73.9,35.533,1.623,38.124Z" transform="translate(-234.169 -231.81)" fill="#e4e4e4"/>
    <path id="Path_4431" data-name="Path 4431" d="M752.431,375.13H504.783a2.073,2.073,0,0,1-2.071-2.07V360.88a2.073,2.073,0,0,1,2.071-2.07H752.431a2.073,2.073,0,0,1,2.071,2.071v12.179a2.073,2.073,0,0,1-2.07,2.071Z" transform="translate(-234.169 -231.81)" fill="#cacaca"/>
    <circle id="Ellipse_90-3" data-name="Ellipse 90" cx="2.94" cy="2.94" r="2.94" transform="translate(277.619 131.625)" fill="#fff"/>
    <circle id="Ellipse_91-3" data-name="Ellipse 91" cx="2.94" cy="2.94" r="2.94" transform="translate(288.777 131.625)" fill="#fff"/>
    <circle id="Ellipse_92-3" data-name="Ellipse 92" cx="2.94" cy="2.94" r="2.94" transform="translate(299.935 131.625)" fill="#fff"/>
    <path id="Path_4432" data-name="Path 4432" d="M741.5,364.352H728.65a.952.952,0,1,1,0-1.9H741.5a.952.952,0,1,1,0,1.9Z" transform="translate(-234.169 -231.81)" fill="#fff"/>
    <path id="Path_4433" data-name="Path 4433" d="M741.5,367.921H728.65a.952.952,0,1,1,0-1.9H741.5a.952.952,0,1,1,0,1.9Z" transform="translate(-234.169 -231.81)" fill="#fff"/>
    <path id="Path_4434" data-name="Path 4434" d="M741.5,371.49H728.65a.952.952,0,1,1,0-1.9H741.5a.952.952,0,1,1,0,1.9Z" transform="translate(-234.169 -231.81)" fill="#fff"/>
    <path id="Path_4436" data-name="Path 4436" d="M711.187,427.426H601.077a2.712,2.712,0,0,1,0-5.425h110.11a2.712,2.712,0,1,1,0,5.425Z" transform="translate(-234.169 -231.81)" fill="#e4e4e4"/>
    <path id="Path_4437" data-name="Path 4437" d="M642.9,440.14H601.077a2.712,2.712,0,1,1,0-5.425H642.9a2.712,2.712,0,1,1,0,5.425Z" transform="translate(-234.169 -231.81)" fill="#e4e4e4"/>
    <path id="Path_4439" data-name="Path 4439" d="M711.187,508.426H601.077a2.712,2.712,0,0,1,0-5.425h110.11a2.712,2.712,0,1,1,0,5.425Z" transform="translate(-234.169 -231.81)" fill="#e4e4e4"/>
    <path id="Path_4440" data-name="Path 4440" d="M642.9,521.14H601.077a2.712,2.712,0,0,1,0-5.425H642.9a2.712,2.712,0,0,1,0,5.425Z" transform="translate(-234.169 -231.81)" fill="#e4e4e4"/>
    <path id="Path_4442" data-name="Path 4442" d="M711.187,589.426H601.077a2.712,2.712,0,0,1,0-5.425h110.11a2.712,2.712,0,1,1,0,5.425Z" transform="translate(-234.169 -231.81)" fill="#e4e4e4"/>
    <path id="Path_4443" data-name="Path 4443" d="M642.9,602.14H601.077a2.712,2.712,0,0,1,0-5.425H642.9a2.712,2.712,0,0,1,0,5.425Z" transform="translate(-234.169 -231.81)" fill="#e4e4e4"/>
    <circle id="Ellipse_460" data-name="Ellipse 460" cx="29.007" cy="29.007" r="29.007" transform="translate(130.747 60.092)" fill="#0b2d61"/>
    <path id="Path_4471" data-name="Path 4471" d="M554.175,224.629a29.348,29.348,0,1,1,29.348-29.348,29.348,29.348,0,0,1-29.348,29.348Zm0-58.014c2.223,11-28.666,12.859-28.666,28.666a28.7,28.7,0,0,0,28.666,28.666c15.806,0,28.994-12.863,28.666-28.666-.329-15.831-30.888-39.664-28.666-28.666Z" transform="translate(-387.255 -112.666)" fill="#ccc"/>
    <circle id="Ellipse_461" data-name="Ellipse 461" cx="29.007" cy="29.007" r="29.007" transform="translate(130.747 150.092)" fill="#0b2d61"/>
    <path id="Path_4472" data-name="Path 4472" d="M554.175,224.629a29.348,29.348,0,1,1,29.348-29.348,29.348,29.348,0,0,1-29.348,29.348Zm0-58.014c2.223,11-28.666,12.859-28.666,28.666a28.7,28.7,0,0,0,28.666,28.666c15.806,0,28.994-12.863,28.666-28.666-.329-15.831-30.888-39.664-28.666-28.666Z" transform="translate(-387.255 -22.666)" fill="#ccc"/>
    <circle id="Ellipse_462" data-name="Ellipse 462" cx="29.007" cy="29.007" r="29.007" transform="translate(130.747 261.092)" fill="#0b2d61"/>
    <path id="Path_4473" data-name="Path 4473" d="M554.175,224.629a29.348,29.348,0,1,1,29.348-29.348,29.348,29.348,0,0,1-29.348,29.348Zm0-58.014c2.223,11-28.666,12.859-28.666,28.666a28.7,28.7,0,0,0,28.666,28.666c15.806,0,28.994-12.863,28.666-28.666-.329-15.831-30.888-39.664-28.666-28.666Z" transform="translate(-387.255 88.334)" fill="#ccc"/>
    <g id="undraw_design_data_re_0s26" transform="translate(424 205)">
      <ellipse id="Ellipse_458" data-name="Ellipse 458" cx="23.065" cy="23.065" rx="23.065" ry="23.065" transform="translate(117.747 39.259)" fill="#0b2d61"/>
      <path id="Path_4361" data-name="Path 4361" d="M675.289,220.387l17.621,13.636a3.6,3.6,0,0,0,5.008-.613h0a3.6,3.6,0,0,0-.731-5.168l-18.738-13.6-11.037-8.746a3.138,3.138,0,1,0-3.316,2.287Z" transform="translate(-501.057 -159.431)" fill="#ffb6b6"/>
      <path id="Path_4362" data-name="Path 4362" d="M548.163,212.17A23.336,23.336,0,1,1,571.5,188.834a23.336,23.336,0,0,1-23.336,23.336Zm0-46.129c1.767,8.746-22.793,10.225-22.793,22.793a22.819,22.819,0,0,0,22.793,22.793c12.568,0,23.054-10.228,22.793-22.793C570.695,176.246,546.4,157.3,548.163,166.041Z" transform="translate(-401.653 -131.666)" fill="#ccc"/>
      <ellipse id="Ellipse_459" data-name="Ellipse 459" cx="8.794" cy="8.794" rx="8.794" ry="8.794" transform="translate(180.04 42.526)" fill="#ffb6b6"/>
      <path id="Path_4363" data-name="Path 4363" d="M353.335,614.618h-3.115L348.739,602.6h4.6Z" transform="translate(-190.408 -420.182)" fill="#ffb6b6"/>
      <path id="Path_4364" data-name="Path 4364" d="M636.661,761.582a1.325,1.325,0,0,0,1.316,1.319h5.863l.182-.377.829-1.711.321,1.711.071.377h2.211l-.032-.379-.59-7.071-.771-.047-3.333-.2-.819-.05v2.111C641.289,757.928,636.413,760.426,636.661,761.582Z" transform="translate(-483.134 -562.55)" fill="#2f2e41"/>
      <path id="Path_4365" data-name="Path 4365" d="M540.433,571.674l-2.377,2.012-8.893-8.211,3.508-2.97Z" transform="translate(-321.875 -390.963)" fill="#ffb6b6"/>
      <path id="Path_4366" data-name="Path 4366" d="M860.206,716.415a1.325,1.325,0,0,0,1.857.156l4.475-3.788-.1-.4-.473-1.842,1.351,1.1.3.241,1.688-1.429-.269-.269-5.019-5.016-.619.462-2.671,2-.657.491,1.364,1.611C861.378,710.636,859.271,715.693,860.206,716.415Z" transform="translate(-645.853 -526.124)" fill="#2f2e41"/>
      <path id="Path_4367" data-name="Path 4367" d="M537.344,706.5a.616.616,0,0,1-.446-1.067l.042-.168-.017-.04a1.654,1.654,0,0,0-3.05.011,14.683,14.683,0,0,0-1.29,3.676,4.893,4.893,0,0,0,.086,1.682,19.612,19.612,0,0,1-1.784-8.146,18.956,18.956,0,0,1,.117-2.112q.1-.862.27-1.712a19.84,19.84,0,0,1,3.935-8.409,5.279,5.279,0,0,0,2.2-2.278,4.029,4.029,0,0,0,.366-1.1,4.969,4.969,0,0,1-.323-1.714c-.149-.226-.416-.338-.578-.559-.809-1.1-1.924-.906-2.506.585-1.243.628-1.255,1.668-.492,2.669.485.637.552,1.5.978,2.18-.044.056-.089.11-.133.167a19.956,19.956,0,0,0-2.084,3.3,8.3,8.3,0,0,0-.5-3.856,13.9,13.9,0,0,0-2.146-3.1,1.7,1.7,0,0,0-3.035.837l0,.044q.174.1.342.209a.835.835,0,0,1-.337,1.52l-.017,0a8.314,8.314,0,0,0,.219,1.243c-1,3.885,1.164,5.3,4.261,5.363.068.035.135.07.2.1a20.38,20.38,0,0,0-1.1,5.163,19.331,19.331,0,0,0,.014,3.121l-.005-.037a5.109,5.109,0,0,0-1.744-2.95c-1.342-1.1-3.238-1.508-4.686-2.394a.959.959,0,0,0-1.468.933l.006.039a5.587,5.587,0,0,1,.629.3q.174.1.342.209a.835.835,0,0,1-.337,1.52l-.017,0-.035.005a8.319,8.319,0,0,0,1.53,2.4c.628,3.391,3.326,3.713,6.211,2.725h0a20.37,20.37,0,0,0,1.369,4h4.89c.018-.054.033-.11.049-.165a5.557,5.557,0,0,1-1.353-.081c.363-.445.726-.894,1.088-1.339l.023-.026c.184-.228.37-.454.554-.682h0a8.135,8.135,0,0,0-.238-2.073Z" transform="translate(-400.047 -510.601)" fill="#f2f2f2"/>
      <path id="Path_4368" data-name="Path 4368" d="M523.281,782.915a.322.322,0,0,0,.323.323h68.73a.323.323,0,0,0,0-.646H523.6a.322.322,0,0,0-.323.323Z" transform="translate(-400.527 -582.541)" fill="#ccc"/>
      <path id="Path_4370" data-name="Path 4370" d="M683.783,406.96l-21.25-5.5S652.1,414.64,651.562,430.378c-.028.806.4,1.816-.073,2.807s.628,2.866-.057,3.692-1,1.536-.027,2.538-1.692,44.069-2.69,45.689c-1.224,1.985,1.064,3.53-.08,4.385s-.059,3.3-.059,3.3h5.97l8.533-31.528s5.378-14.635,4.462-16.486a1.771,1.771,0,0,1,.7-2.583,1.387,1.387,0,0,0,.569-2.1c-.827-1.508,1.747-6.455,1.747-6.455-1.16-.151.556,15.2,7.472,29.029,5.06,10.115,13.761,12.841,14.235,14.658,1.05,4.024,6.159-.382,4.613,2.714s3.256,2.713,3.256,2.713l5.427-4.342-16.552-20.351-1.783-21.641s-.949-.3-.4-1.4-1.29-.979-.641-2.264-1.082-1.221-.623-2.2-.54-1.908-.54-1.908,2.611-8.873-2.2-15.3Z" transform="translate(-491.484 -304.83)" fill="#2f2e41"/>
      <path id="Path_4371" data-name="Path 4371" d="M680.34,314.465s3.8-8.683,4.884-9.769,4.745-3.047,3.931-3.861-2.432-.329-1.08-1.793a15.776,15.776,0,0,0,2.391-4.307l-1.171-13.646,6.241-7.869,3.931-3.861,9.59-.622.537,5.507s8.858,4.579,6.828,13.414-5.69,9.983-4.6,20.837c.121,1.209-4.7-.306-3.667.209.543.271,3.032,5.148,1.4,6.233a15.355,15.355,0,0,1-3.256,1.628C697.962,309.982,689.433,306.972,680.34,314.465Z" transform="translate(-514.967 -208.121)" fill="#e6e6e6"/>
      <path id="Path_4372" data-name="Path 4372" d="M605.233,301.587l21.381-6.268a3.6,3.6,0,0,0,2.442-4.415h0a3.6,3.6,0,0,0-4.613-2.44l-22.01,7.192-13.558,3.806a3.138,3.138,0,1,0-.094,4.027Z" transform="translate(-444.247 -222.357)" fill="#ffb6b6"/>
      <path id="Path_4373" data-name="Path 4373" d="M747.641,197.31c1.223-4.461-12.111-8.286-14.7-4.694a2.827,2.827,0,0,0-2.3-.664,4.766,4.766,0,0,0-1.626.927,6.422,6.422,0,0,0-1.827,1.839,2.186,2.186,0,0,0,.081,2.45c.454.523,1.253,3.3,1.936,3.442.476.1.877.175,1.222.232.307-.448,1.09-1.011,1.034-1.553.464.307.294.847.2,1.4-.311,1.839-7.325,16.071-3.308,11.877a8.419,8.419,0,0,0,1.457.655,18.32,18.32,0,0,0,2.272-4.951l0,.033a3.9,3.9,0,0,0,2.818,3.266c6.03,1.747,10.908-.816,12.586-5.439-.614-1.247-.882-1.112-.827-1.149a1.444,1.444,0,0,1,2.15.685c.1.255.185.472.262.636C749.945,203.176,750.984,203.627,747.641,197.31Z" transform="translate(-548.857 -151.619)" fill="#2f2e41"/>
      <path id="Path_4374" data-name="Path 4374" d="M786.341,190.127l-.616-3.149a1.256,1.256,0,0,1,.018-.794.852.852,0,0,1,.891-.39c.343.05.6.363.941.423,1.187.21,2.755-.962,3.18,2,.177,1.236,2.15,1.367,2.809,2.428a2.846,2.846,0,0,1-.159,3.459,2.712,2.712,0,0,1-2.8.419,6.1,6.1,0,0,1-2.335-1.821,21.026,21.026,0,0,0-2-2.221" transform="translate(-591.716 -147.672)" fill="#2f2e41"/>
      <path id="Path_4375" data-name="Path 4375" d="M790.521,201.983c-2.406-.336-4.046-1.211-4.875-2.6a4.881,4.881,0,0,1-.327-3.906l.509.189a4.4,4.4,0,0,0,.287,3.444c.741,1.239,2.249,2.025,4.481,2.337Z" transform="translate(-591.266 -154.738)" fill="#536dfe"/>
    </g>
    <ellipse id="Ellipse_463" data-name="Ellipse 463" cx="24.712" cy="24.711" rx="24.712" ry="24.711" transform="translate(300.747 174.767)" fill="#0b2d61"/>
    <path id="Path_4474" data-name="Path 4474" d="M549.829,215.623a25,25,0,1,1,25-25,25,25,0,0,1-25,25Zm0-49.423c1.894,9.37-24.421,10.955-24.421,24.421a24.448,24.448,0,0,0,24.421,24.421c13.466,0,24.7-10.958,24.421-24.421-.28-13.486-26.314-33.791-24.421-24.421Z" transform="translate(-218.266 3.334)" fill="#ccc"/>
    <ellipse id="Ellipse_464" data-name="Ellipse 464" cx="24.712" cy="24.711" rx="24.712" ry="24.711" transform="translate(300.747 256.767)" fill="#0b2d61"/>
    <path id="Path_4475" data-name="Path 4475" d="M549.829,215.623a25,25,0,1,1,25-25,25,25,0,0,1-25,25Zm0-49.423c1.894,9.37-24.421,10.955-24.421,24.421a24.448,24.448,0,0,0,24.421,24.421c13.466,0,24.7-10.958,24.421-24.421-.28-13.486-26.314-33.791-24.421-24.421Z" transform="translate(-218.266 85.334)" fill="#ccc"/>
    <ellipse id="Ellipse_465" data-name="Ellipse 465" cx="24.712" cy="24.711" rx="24.712" ry="24.711" transform="translate(300.747 336.767)" fill="#0b2d61"/>
    <path id="Path_4476" data-name="Path 4476" d="M549.829,215.623a25,25,0,1,1,25-25,25,25,0,0,1-25,25Zm0-49.423c1.894,9.37-24.421,10.955-24.421,24.421a24.448,24.448,0,0,0,24.421,24.421c13.466,0,24.7-10.958,24.421-24.421-.28-13.486-26.314-33.791-24.421-24.421Z" transform="translate(-218.266 165.334)" fill="#ccc"/>
    <ellipse id="Ellipse_466" data-name="Ellipse 466" cx="21.667" cy="21.667" rx="21.667" ry="21.667" transform="translate(540.747 43.828)" fill="#0b2d61"/>
    <path id="Path_4477" data-name="Path 4477" d="M546.749,209.24a21.922,21.922,0,1,1,21.922-21.922,21.922,21.922,0,0,1-21.922,21.922Zm0-43.334c1.66,8.216-21.413,9.605-21.413,21.412a21.437,21.437,0,0,0,21.413,21.412c11.807,0,21.658-9.608,21.412-21.412-.245-11.825-23.073-29.628-21.412-21.412Z" transform="translate(21.019 -126.666)" fill="#ccc"/>
    <ellipse id="Ellipse_467" data-name="Ellipse 467" cx="21.667" cy="21.667" rx="21.667" ry="21.667" transform="translate(540.747 143.828)" fill="#0b2d61"/>
    <path id="Path_4478" data-name="Path 4478" d="M546.749,209.24a21.922,21.922,0,1,1,21.922-21.922,21.922,21.922,0,0,1-21.922,21.922Zm0-43.334c1.66,8.216-21.413,9.605-21.413,21.412a21.437,21.437,0,0,0,21.413,21.412c11.807,0,21.658-9.608,21.412-21.412-.245-11.825-23.073-29.628-21.412-21.412Z" transform="translate(21.019 -26.666)" fill="#ccc"/>
  </g>
</svg>
