<svg xmlns="http://www.w3.org/2000/svg" width="53.109" height="60" viewBox="0 0 53.109 60">
  <g id="Group_229" data-name="Group 229" transform="translate(0)">
    <circle id="Ellipse_28" data-name="Ellipse 28" cx="5.477" cy="5.477" r="5.477" transform="translate(21.686 24.523)" fill="#5a9aeb"/>
    <g id="Group_497" data-name="Group 497" transform="translate(-0.3 0)">
      <path id="Path_756" data-name="Path 756" d="M52.111,13.842c-2.235-3.5-7.042-4.955-13.519-4.12-.229.027-.471.067-.7.094-.094-.215-.188-.431-.3-.646C34.808,3.259,31,0,26.85,0S18.879,3.259,16.105,9.17c-.094.215-.2.431-.3.646-.242-.04-.471-.067-.7-.094-6.49-.848-11.284.62-13.519,4.12S.041,22.311,3.515,27.832c.458.727.956,1.454,1.495,2.168-.539.727-1.037,1.441-1.495,2.168C.041,37.688-.645,42.67,1.59,46.158c1.818,2.854,5.346,4.349,10.1,4.349a27.635,27.635,0,0,0,3.407-.229c.229-.027.471-.067.7-.094.095.216.189.431.3.646C18.879,56.741,22.69,60,26.837,60s7.972-3.259,10.745-9.17c.094-.216.2-.431.3-.646.242.041.471.067.7.094a25.352,25.352,0,0,0,3.406.229c4.753,0,8.281-1.495,10.1-4.349,2.235-3.5,1.548-8.47-1.925-13.99C49.7,31.441,49.2,30.714,48.664,30c.539-.727,1.037-1.441,1.495-2.168,3.514-5.534,4.2-10.5,1.952-13.99ZM18.542,10.315c2.275-4.847,5.3-7.621,8.308-7.621s6.032,2.774,8.308,7.621a.049.049,0,0,0,.014.027,47.712,47.712,0,0,0-8.335,2.841A46.6,46.6,0,0,0,18.5,10.341c.027,0,.027-.014.041-.027ZM38.982,30a59.239,59.239,0,0,1-.35,6.449,57.431,57.431,0,0,1-5.251,3.77,57.3,57.3,0,0,1-6.544,3.622,60.75,60.75,0,0,1-6.544-3.622,59.281,59.281,0,0,1-5.251-3.77,59.552,59.552,0,0,1,0-12.9,59.569,59.569,0,0,1,11.795-7.392,60.663,60.663,0,0,1,6.544,3.622,59.281,59.281,0,0,1,5.251,3.77,59.248,59.248,0,0,1,.35,6.45Zm2.571-3.919A43.6,43.6,0,0,1,45.27,30a43.66,43.66,0,0,1-3.717,3.918q.122-1.938.122-3.918T41.554,26.082ZM38.08,40.274a43.025,43.025,0,0,1-1.845,6.853,42.421,42.421,0,0,1-6.14-1.885c1.588-.835,3.177-1.75,4.753-2.747Q36.5,41.425,38.08,40.274ZM23.6,45.242a39.8,39.8,0,0,1-6.14,1.885,43.025,43.025,0,0,1-1.845-6.853c1.037.767,2.114,1.508,3.232,2.208C20.427,43.492,22.016,44.408,23.6,45.242ZM12.147,33.918A43.734,43.734,0,0,1,8.43,30a43.67,43.67,0,0,1,3.717-3.919q-.122,1.939-.122,3.919t.122,3.918Zm3.474-14.192a43,43,0,0,1,1.845-6.853,42.27,42.27,0,0,1,6.14,1.885c-1.588.835-3.177,1.75-4.753,2.747Q17.2,18.575,15.621,19.726ZM34.835,17.5c-1.562-1-3.151-1.926-4.753-2.747a39.786,39.786,0,0,1,6.14-1.885,43.106,43.106,0,0,1,1.845,6.853Q36.512,18.575,34.835,17.5ZM5.791,26.391c-2.855-4.524-3.555-8.577-1.939-11.109,1.293-2.02,4.094-3.111,7.877-3.111a24.416,24.416,0,0,1,3.03.2h.027a48.46,48.46,0,0,0-2.262,9.762,50.217,50.217,0,0,0-5.777,5.669c-.337-.458-.66-.929-.956-1.414Zm8.954,21.221a24.313,24.313,0,0,1-3.03.2c-3.784,0-6.585-1.077-7.877-3.111C2.223,42.172,2.923,38.12,5.778,33.6c.3-.471.62-.956.956-1.428a50.128,50.128,0,0,0,5.776,5.669A48.48,48.48,0,0,0,14.772,47.6c0,.014-.014.014-.027.014Zm20.413,2.073c-2.275,4.847-5.3,7.621-8.308,7.621s-6.032-2.774-8.308-7.621a.049.049,0,0,0-.014-.027,47.67,47.67,0,0,0,8.335-2.841A46.559,46.559,0,0,0,35.2,49.659c-.027,0-.027.013-.041.027ZM47.909,33.609c2.855,4.524,3.555,8.577,1.939,11.109s-5.588,3.6-10.893,2.895h-.027A48.461,48.461,0,0,0,41.19,37.85a50.169,50.169,0,0,0,5.776-5.669C47.29,32.653,47.613,33.124,47.909,33.609ZM41.177,22.15a48.443,48.443,0,0,0-2.262-9.762h.027c5.3-.687,9.277.363,10.893,2.895s.916,6.584-1.939,11.109c-.3.471-.62.956-.956,1.428a48.931,48.931,0,0,0-5.763-5.669Zm0,0" transform="translate(0 0)" fill="#5a9aeb"/>
      <path id="Path_757" data-name="Path 757" d="M163.18,183.2a5.3,5.3,0,1,0,5.3,5.3,5.3,5.3,0,0,0-5.3-5.3Zm0,7.925A2.624,2.624,0,1,1,165.8,188.5a2.624,2.624,0,0,1-2.624,2.624Zm0,0" transform="translate(-136.33 -158.501)" fill="#5a9aeb"/>
    </g>
  </g>
</svg>
