<svg xmlns="http://www.w3.org/2000/svg" width="610" height="524.389" viewBox="0 0 610 524.389">
  <g id="offshore-team" transform="translate(-109.468 0)">
    <circle id="Ellipse_268" data-name="Ellipse 268" cx="7.335" cy="7.335" r="7.335" transform="translate(295.981 50.488)" fill="#f2f2f2"/>
    <circle id="Ellipse_269" data-name="Ellipse 269" cx="7.335" cy="7.335" r="7.335" transform="translate(266.744 50.488)" fill="#f2f2f2"/>
    <circle id="Ellipse_270" data-name="Ellipse 270" cx="7.335" cy="7.335" r="7.335" transform="translate(237.508 50.488)" fill="#f2f2f2"/>
    <circle id="Ellipse_271" data-name="Ellipse 271" cx="7.335" cy="7.335" r="7.335" transform="translate(208.256 50.488)" fill="#f2f2f2"/>
    <circle id="Ellipse_272" data-name="Ellipse 272" cx="7.335" cy="7.335" r="7.335" transform="translate(295.981 81.112)" fill="#f2f2f2"/>
    <circle id="Ellipse_273" data-name="Ellipse 273" cx="7.335" cy="7.335" r="7.335" transform="translate(266.744 81.112)" fill="#f2f2f2"/>
    <circle id="Ellipse_274" data-name="Ellipse 274" cx="7.335" cy="7.335" r="7.335" transform="translate(237.508 81.112)" fill="#f2f2f2"/>
    <circle id="Ellipse_275" data-name="Ellipse 275" cx="7.335" cy="7.335" r="7.335" transform="translate(208.256 81.112)" fill="#f2f2f2"/>
    <circle id="Ellipse_276" data-name="Ellipse 276" cx="7.335" cy="7.335" r="7.335" transform="translate(295.981 111.751)" fill="#f2f2f2"/>
    <circle id="Ellipse_277" data-name="Ellipse 277" cx="7.335" cy="7.335" r="7.335" transform="translate(266.744 111.751)" fill="#f2f2f2"/>
    <circle id="Ellipse_278" data-name="Ellipse 278" cx="7.335" cy="7.335" r="7.335" transform="translate(237.508 111.751)" fill="#f2f2f2"/>
    <circle id="Ellipse_279" data-name="Ellipse 279" cx="7.335" cy="7.335" r="7.335" transform="translate(208.256 111.751)" fill="#f2f2f2"/>
    <circle id="Ellipse_280" data-name="Ellipse 280" cx="7.335" cy="7.335" r="7.335" transform="translate(295.981 142.38)" fill="#f2f2f2"/>
    <circle id="Ellipse_281" data-name="Ellipse 281" cx="7.335" cy="7.335" r="7.335" transform="translate(266.744 142.38)" fill="#f2f2f2"/>
    <circle id="Ellipse_282" data-name="Ellipse 282" cx="7.335" cy="7.335" r="7.335" transform="translate(237.508 142.38)" fill="#f2f2f2"/>
    <circle id="Ellipse_283" data-name="Ellipse 283" cx="7.335" cy="7.335" r="7.335" transform="translate(208.256 142.38)" fill="#f2f2f2"/>
    <circle id="Ellipse_284" data-name="Ellipse 284" cx="7.335" cy="7.335" r="7.335" transform="translate(295.981 173.008)" fill="#f2f2f2"/>
    <circle id="Ellipse_285" data-name="Ellipse 285" cx="7.335" cy="7.335" r="7.335" transform="translate(266.744 173.008)" fill="#f2f2f2"/>
    <circle id="Ellipse_286" data-name="Ellipse 286" cx="7.335" cy="7.335" r="7.335" transform="translate(237.508 173.008)" fill="#f2f2f2"/>
    <circle id="Ellipse_287" data-name="Ellipse 287" cx="7.335" cy="7.335" r="7.335" transform="translate(208.256 173.008)" fill="#f2f2f2"/>
    <circle id="Ellipse_288" data-name="Ellipse 288" cx="7.335" cy="7.335" r="7.335" transform="translate(295.981 203.636)" fill="#f2f2f2"/>
    <circle id="Ellipse_289" data-name="Ellipse 289" cx="7.335" cy="7.335" r="7.335" transform="translate(266.744 203.636)" fill="#f2f2f2"/>
    <circle id="Ellipse_290" data-name="Ellipse 290" cx="7.335" cy="7.335" r="7.335" transform="translate(237.508 203.636)" fill="#f2f2f2"/>
    <circle id="Ellipse_291" data-name="Ellipse 291" cx="7.335" cy="7.335" r="7.335" transform="translate(208.256 203.636)" fill="#f2f2f2"/>
    <path id="Path_3659" data-name="Path 3659" d="M375.19,582.942v2.268a14.19,14.19,0,0,0,14.178,14.178h102.08a14.183,14.183,0,0,0,14.178-14.178v-2.268a14.076,14.076,0,0,0-3.29-9.074,14.584,14.584,0,0,0-2.393-2.268s-56.121-1.27-56.121-2.836H389.368a14.2,14.2,0,0,0-14.178,14.178Z" transform="translate(-136.33 -171.842)" fill="#ccc"/>
    <rect id="Rectangle_442" data-name="Rectangle 442" width="14.745" height="95.274" transform="translate(297.53 426.996)" fill="#ccc"/>
    <path id="Path_3660" data-name="Path 3660" d="M488.725,680.495c0,1.593-22.344.616-49.906.616s-49.906.977-49.906-.616,22.344-14.227,49.906-14.227S488.725,678.9,488.725,680.495Z" transform="translate(-134.487 -158.741)" fill="#ccc"/>
    <path id="Path_3661" data-name="Path 3661" d="M466.066,594.32a12.185,12.185,0,0,0-4.318-18.178L430.5,469.656l-23.8,11.655,38.2,101.008a12.251,12.251,0,0,0,21.165,12Z" transform="translate(-132.099 -185.151)" fill="#a0616a"/>
    <path id="Path_3662" data-name="Path 3662" d="M438.328,490.523l-26.634,7.21a5.464,5.464,0,0,1-6.853-4.634l-3.219-27.32a15.173,15.173,0,1,1,29.315-7.843l10.972,25.13a5.463,5.463,0,0,1-3.58,7.458Z" transform="translate(-132.852 -188.247)" fill="#0b2d61"/>
    <path id="Path_3663" data-name="Path 3663" d="M313.516,454.369h13.906l6.616-36.064H313.514Z" transform="translate(27.42 56.217)" fill="#a0616a"/>
    <path id="Path_3664" data-name="Path 3664" d="M462.051,664.962h27.385a17.451,17.451,0,0,1,17.452,17.452v.567l-44.836,0Z" transform="translate(-124.661 -158.917)" fill="#8aa1c5"/>
    <path id="Path_3665" data-name="Path 3665" d="M490.527,667.453q-.243,0-.488-.023l-19.244-1.4a5.1,5.1,0,0,1-4.321-6.839l25.754-57.862a3.967,3.967,0,0,0-.223-3.174,3.913,3.913,0,0,0-2.508-2c-12.11-3.166-43.182-11.595-70.079-21.457-11.524-4.226-18.781-10.332-21.572-18.15-3.678-10.307,1.763-19.706,2-20.1l.182-.309,25.31,2.3,27.438,2.334L512.9,573.019a22.782,22.782,0,0,1,10,29.245l-27.721,62.164a5.1,5.1,0,0,1-4.657,3.025Z" transform="translate(-133.456 -176.207)" fill="#8aa1c5"/>
    <circle id="Ellipse_292" data-name="Ellipse 292" cx="27.858" cy="27.858" r="27.858" transform="translate(268.42 192.002)" fill="#a0616a"/>
    <path id="Path_3666" data-name="Path 3666" d="M306.516,453.369h13.906l6.616-36.064H306.514Z" transform="translate(26.48 56.083)" fill="#a0616a"/>
    <path id="Path_3667" data-name="Path 3667" d="M455.051,663.962h27.385a17.451,17.451,0,0,1,17.452,17.452v.567l-44.836,0Z" transform="translate(-125.601 -159.051)" fill="#8aa1c5"/>
    <path id="Path_3668" data-name="Path 3668" d="M483.527,670.453q-.243,0-.488-.023l-19.244-1.4a5.1,5.1,0,0,1-4.321-6.839l25.754-57.862a3.967,3.967,0,0,0-.223-3.174,3.914,3.914,0,0,0-2.508-2c-12.11-3.166-43.182-11.595-70.079-21.457-11.524-4.226-18.781-10.332-21.572-18.15-3.678-10.307,1.763-19.706,2-20.1l.182-.309,25.31,2.3,27.438,2.334L505.9,576.019a22.782,22.782,0,0,1,10,29.245l-27.721,62.164a5.1,5.1,0,0,1-4.657,3.025Z" transform="translate(-134.397 -175.804)" fill="#8aa1c5"/>
    <path id="Path_3669" data-name="Path 3669" d="M438.823,452.376l-29.49-10.208s-18.513,14.223-9.619,49.507a87.348,87.348,0,0,1-3.856,54.806,56.464,56.464,0,0,1-2.97,6.274s32.892,39.7,63.516,10.208l-11.909-57.278S463.209,467.688,438.823,452.376Z" transform="translate(-133.955 -188.846)" fill="#0b2d61"/>
    <path id="Path_3670" data-name="Path 3670" d="M434.134,446.816c-3.965-5.935-7.094-14.164-2.729-19.81,4.309-5.574,12.808-4.753,19.407-7.219,9.192-3.435,14.523-14.234,12.86-23.9S454.247,378.2,445,374.915s-19.677-2.213-28.733,1.564c-11.149,4.65-20.712,13.645-24.722,25.039s-1.866,25.075,6.453,33.833c8.919,9.389,22.918,11.892,35.867,11.74" transform="translate(-134.398 -198.153)" fill="#2a2a2a"/>
    <path id="Path_3671" data-name="Path 3671" d="M421.263,395.24c-5,4.067-12.619,2.261-17.981-1.309s-9.715-8.652-15.517-11.451c-10.23-4.934-22.6-1.654-32.554,3.811s-18.782,13.015-29.3,17.3-23.936,4.5-31.9-3.6a29.186,29.186,0,0,0,42.772,34.448c11.523-7.019,17.888-21.736,30.812-25.61,7.152-2.144,14.831-.417,22.06,1.453s14.765,3.891,22.06,2.3,14.118-8.147,13.19-15.556Z" transform="translate(-147.463 -197.2)" fill="#2a2a2a"/>
    <path id="Path_3672" data-name="Path 3672" d="M486.231,632.2a189.991,189.991,0,0,1,0-57.817,4.88,4.88,0,0,1,4.806-4.09h45.224a4.817,4.817,0,0,1,3.806,1.845,4.9,4.9,0,0,1,.916,4.2,116.061,116.061,0,0,0,0,53.9,4.9,4.9,0,0,1-.915,4.2,4.816,4.816,0,0,1-3.806,1.845H491.036a4.88,4.88,0,0,1-4.806-4.09Z" transform="translate(-121.708 -171.623)" fill="#0b2d61"/>
    <path id="Path_3673" data-name="Path 3673" d="M521.019,595.929H497.288a3.406,3.406,0,0,1-3.4-3.4V591.2a3.406,3.406,0,0,1,3.4-3.4H521.02a3.407,3.407,0,0,1,3.4,3.4v1.329a3.406,3.406,0,0,1-3.4,3.4Z" transform="translate(-120.384 -169.288)" fill="#fff"/>
    <path id="Path_3674" data-name="Path 3674" d="M521.019,608.274H497.288a3.406,3.406,0,0,1-3.4-3.4v-1.33a3.406,3.406,0,0,1,3.4-3.4H521.02a3.406,3.406,0,0,1,3.4,3.4v1.33a3.406,3.406,0,0,1-3.4,3.4Z" transform="translate(-120.384 -167.617)" fill="#fff"/>
    <path id="Path_3675" data-name="Path 3675" d="M506.6,588.3a12.185,12.185,0,0,0-8.723-16.522l-56.865-95.3-20.13,17.231,62.226,88.26A12.251,12.251,0,0,0,506.6,588.3Z" transform="translate(-130.191 -184.235)" fill="#a0616a"/>
    <path id="Path_3676" data-name="Path 3676" d="M453.76,494.528l-23.988,13.636a5.463,5.463,0,0,1-7.794-2.775l-9.943-25.65A15.173,15.173,0,1,1,438.46,464.82l16.9,21.591a5.463,5.463,0,0,1-1.6,8.116Z" transform="translate(-131.646 -186.846)" fill="#0b2d61"/>
    <path id="Path_3677" data-name="Path 3677" d="M729,519.614H268.5a7.372,7.372,0,1,0,0,14.745h13.044V694.851a7.372,7.372,0,0,0,14.745,0V548.525l82.652,149.805a7.372,7.372,0,0,0,12.769-7.372l-86.4-156.6H700.073v.1l-86.347,156.5a7.372,7.372,0,0,0,12.769,7.372l73.578-133.359v129.88a7.372,7.372,0,0,0,14.745,0V538.246l2.145-3.887H729a7.372,7.372,0,1,0,0-14.745Z" transform="translate(-151.662 -178.425)" fill="#444"/>
    <rect id="Rectangle_443" data-name="Rectangle 443" width="97.543" height="7.94" rx="3.5" transform="translate(293.241 336.627)" fill="#ccc"/>
    <path id="Path_3678" data-name="Path 3678" d="M571.448,530.936H470.5a7.381,7.381,0,0,1-7.372-7.372V467.986a7.381,7.381,0,0,1,7.372-7.372H571.448a7.381,7.381,0,0,1,7.372,7.372v55.577A7.381,7.381,0,0,1,571.448,530.936Z" transform="translate(-124.511 -186.373)" fill="#ccc"/>
    <circle id="Ellipse_293" data-name="Ellipse 293" cx="6.805" cy="6.805" r="6.805" transform="translate(389.659 302.596)" fill="#fff"/>
    <path id="Path_3679" data-name="Path 3679" d="M626.55,426.451V227.4a8.541,8.541,0,0,1,8.531-8.531H792.43a8.541,8.541,0,0,1,8.531,8.531V426.451a8.541,8.541,0,0,1-8.531,8.531H635.082A8.541,8.541,0,0,1,626.55,426.451Zm8.531-205.691a6.643,6.643,0,0,0-6.635,6.635V426.451a6.643,6.643,0,0,0,6.635,6.635H792.43a6.643,6.643,0,0,0,6.635-6.635V227.4a6.643,6.643,0,0,0-6.635-6.635Z" transform="translate(-261.357 -218.864)" fill="#e6e6e6"/>
    <path id="Path_3680" data-name="Path 3680" d="M711.215,304.8V263.931a4.27,4.27,0,0,1,4.265-4.265h34.636a4.27,4.27,0,0,1,4.266,4.265V304.8a4.27,4.27,0,0,1-4.266,4.265H715.481a4.27,4.27,0,0,1-4.266-4.265Z" transform="translate(-249.99 -213.388)" fill="#0b2d61"/>
    <path id="Path_3681" data-name="Path 3681" d="M651.88,321.518V280.645a4.27,4.27,0,0,1,4.266-4.265h34.636a4.27,4.27,0,0,1,4.265,4.265v40.872a4.27,4.27,0,0,1-4.265,4.266H656.146A4.27,4.27,0,0,1,651.88,321.518Z" transform="translate(-257.964 -211.145)" fill="#ccc"/>
    <path id="Path_3682" data-name="Path 3682" d="M699.515,372.5V331.624a4.27,4.27,0,0,1,4.265-4.266h34.636a4.27,4.27,0,0,1,4.266,4.266V372.5a4.27,4.27,0,0,1-4.266,4.265H703.781a4.27,4.27,0,0,1-4.266-4.265Z" transform="translate(-251.563 -204.283)" fill="#ff6584"/>
    <circle id="Ellipse_294" data-name="Ellipse 294" cx="7.335" cy="7.335" r="7.335" transform="translate(704.798 6.072)" fill="#f2f2f2"/>
    <circle id="Ellipse_295" data-name="Ellipse 295" cx="7.335" cy="7.335" r="7.335" transform="translate(704.798 35.304)" fill="#f2f2f2"/>
    <circle id="Ellipse_296" data-name="Ellipse 296" cx="7.335" cy="7.335" r="7.335" transform="translate(704.798 64.537)" fill="#f2f2f2"/>
    <circle id="Ellipse_297" data-name="Ellipse 297" cx="7.335" cy="7.335" r="7.335" transform="translate(704.798 93.783)" fill="#f2f2f2"/>
    <circle id="Ellipse_298" data-name="Ellipse 298" cx="7.335" cy="7.335" r="7.335" transform="translate(674.174 6.072)" fill="#f2f2f2"/>
    <circle id="Ellipse_299" data-name="Ellipse 299" cx="7.335" cy="7.335" r="7.335" transform="translate(674.174 35.304)" fill="#f2f2f2"/>
    <circle id="Ellipse_300" data-name="Ellipse 300" cx="7.335" cy="7.335" r="7.335" transform="translate(674.174 64.537)" fill="#f2f2f2"/>
    <circle id="Ellipse_301" data-name="Ellipse 301" cx="7.335" cy="7.335" r="7.335" transform="translate(674.174 93.783)" fill="#f2f2f2"/>
    <circle id="Ellipse_302" data-name="Ellipse 302" cx="7.335" cy="7.335" r="7.335" transform="translate(643.55 6.072)" fill="#f2f2f2"/>
    <circle id="Ellipse_303" data-name="Ellipse 303" cx="7.335" cy="7.335" r="7.335" transform="translate(643.55 35.304)" fill="#f2f2f2"/>
    <circle id="Ellipse_304" data-name="Ellipse 304" cx="7.335" cy="7.335" r="7.335" transform="translate(643.55 64.537)" fill="#f2f2f2"/>
    <circle id="Ellipse_305" data-name="Ellipse 305" cx="7.335" cy="7.335" r="7.335" transform="translate(643.55 93.783)" fill="#f2f2f2"/>
    <circle id="Ellipse_306" data-name="Ellipse 306" cx="7.335" cy="7.335" r="7.335" transform="translate(612.926 6.072)" fill="#f2f2f2"/>
    <circle id="Ellipse_307" data-name="Ellipse 307" cx="7.335" cy="7.335" r="7.335" transform="translate(612.926 35.304)" fill="#f2f2f2"/>
    <circle id="Ellipse_308" data-name="Ellipse 308" cx="7.335" cy="7.335" r="7.335" transform="translate(612.926 64.537)" fill="#f2f2f2"/>
    <circle id="Ellipse_309" data-name="Ellipse 309" cx="7.335" cy="7.335" r="7.335" transform="translate(612.926 93.783)" fill="#f2f2f2"/>
    <circle id="Ellipse_310" data-name="Ellipse 310" cx="7.335" cy="7.335" r="7.335" transform="translate(582.285 6.072)" fill="#f2f2f2"/>
    <circle id="Ellipse_311" data-name="Ellipse 311" cx="7.335" cy="7.335" r="7.335" transform="translate(582.285 35.304)" fill="#f2f2f2"/>
    <circle id="Ellipse_312" data-name="Ellipse 312" cx="7.335" cy="7.335" r="7.335" transform="translate(582.285 64.537)" fill="#f2f2f2"/>
    <circle id="Ellipse_313" data-name="Ellipse 313" cx="7.335" cy="7.335" r="7.335" transform="translate(582.285 93.783)" fill="#f2f2f2"/>
    <circle id="Ellipse_314" data-name="Ellipse 314" cx="7.335" cy="7.335" r="7.335" transform="translate(551.657 6.072)" fill="#f2f2f2"/>
    <circle id="Ellipse_315" data-name="Ellipse 315" cx="7.335" cy="7.335" r="7.335" transform="translate(551.657 35.304)" fill="#f2f2f2"/>
    <circle id="Ellipse_316" data-name="Ellipse 316" cx="7.335" cy="7.335" r="7.335" transform="translate(551.657 64.537)" fill="#f2f2f2"/>
    <circle id="Ellipse_317" data-name="Ellipse 317" cx="7.335" cy="7.335" r="7.335" transform="translate(551.657 93.783)" fill="#f2f2f2"/>
    <path id="Path_3683" data-name="Path 3683" d="M823.546,470.8a12.48,12.48,0,0,1,8.81-16.405,12.011,12.011,0,0,1,1.646-.268l27.565-48.316-6.96-11.958,17.326-13.366L885.188,398.9a12.645,12.645,0,0,1-.3,15.095L847.05,462.443a11.939,11.939,0,0,1,.352,1.174,12.48,12.48,0,0,1-10.616,15.3,12.137,12.137,0,0,1-1.527.1,12.517,12.517,0,0,1-11.712-8.208Z" transform="translate(-234.982 -197.139)" fill="#ffb8b8"/>
    <path id="Path_3684" data-name="Path 3684" d="M626.808,457.235H612.9L606.288,403.6h20.523Z" transform="translate(-92.05 54.243)" fill="#ffb8b8"/>
    <path id="Path_3685" data-name="Path 3685" d="M605.361,447.384h26.818v16.885h-43.7A16.885,16.885,0,0,1,605.361,447.384Z" transform="translate(-94.441 60.12)" fill="#01183a"/>
    <path id="Path_3686" data-name="Path 3686" d="M727.808,457.235H713.9L707.288,403.6h20.523Z" transform="translate(-78.467 54.243)" fill="#ffb8b8"/>
    <path id="Path_3687" data-name="Path 3687" d="M706.361,447.384h26.818v16.885h-43.7A16.885,16.885,0,0,1,706.361,447.384Z" transform="translate(-80.858 60.12)" fill="#01183a"/>
    <path id="Path_3688" data-name="Path 3688" d="M874.2,385.9l-31.219,11.863-7.622-21.172a12.667,12.667,0,0,1,5.673-15.311h0a12.667,12.667,0,0,1,16.177,3.158Z" transform="translate(-233.396 -199.946)" fill="#0b2d61"/>
    <path id="Path_3689" data-name="Path 3689" d="M780.719,656.67,754.536,650.7a5.656,5.656,0,0,1-4.324-6.373c10.506-66.589,20.614-105.585,46.662-155.107.364-.923,4.431-19.665,7.086-32.082a5.639,5.639,0,0,1,4.779-5.7l48.822-7.514a6.318,6.318,0,0,1,2.293-.345l.488.093-.006.48c-.006.5-.5.572-.686.6l-.649.1a7.58,7.58,0,0,1,2.013,1.368c21.391,25.728,32.515,110.064,46.642,203.235a5.086,5.086,0,0,1-1.479,4.137,5.6,5.6,0,0,1-4.012,1.815l-31.193.76a5.651,5.651,0,0,1-5.711-4.784L844.251,529.966a4.508,4.508,0,0,0-8.5-1.311c-16.95,34.52-32.757,64.372-48.325,123.932a5.617,5.617,0,0,1-5.436,4.226,5.7,5.7,0,0,1-1.271-.143Z" transform="translate(-244.733 -188.631)" fill="#01183a"/>
    <path id="Path_3690" data-name="Path 3690" d="M800,469.851a5.67,5.67,0,0,1-2.363-4.025c-4-37.327-1.213-66.538,8.513-89.3a28.346,28.346,0,0,1,18.79-16.083l25.236-1.274.131.063a29.5,29.5,0,0,1,16.128,31.291c-8.117,21.4-14.913,43.671-9.73,61.641a5.81,5.81,0,0,1-.549,4.518,5.539,5.539,0,0,1-3.534,2.619l-48.066,11.434a5.631,5.631,0,0,1-4.556-.882Z" transform="translate(-238.596 -200.005)" fill="#0b2d61"/>
    <path id="Path_3691" data-name="Path 3691" d="M797.611,416.917l-48.4-38.185a11.929,11.929,0,0,1-1.175.347,12.507,12.507,0,0,1-10-1.919,12.377,12.377,0,0,1-5.247-8.771,12.478,12.478,0,0,1,24.539-4.311,11.993,11.993,0,0,1,.26,1.647l48.183,27.8,11.991-6.9,13.283,17.39-18.617,13.269a12.411,12.411,0,0,1-14.812-.361Z" transform="translate(-247.097 -200.641)" fill="#ffb8b8"/>
    <path id="Path_3692" data-name="Path 3692" d="M827.879,407.952l-27.617-18.78,12.979-18.382a12.667,12.667,0,0,1,15.8-4.129h0a12.667,12.667,0,0,1,6.686,15.065Z" transform="translate(-238.024 -199.167)" fill="#0b2d61"/>
    <circle id="Ellipse_318" data-name="Ellipse 318" cx="27.858" cy="27.858" r="27.858" transform="translate(575.297 94.007)" fill="#ffb8b8"/>
    <path id="Path_3693" data-name="Path 3693" d="M830.756,326.7c-7.16,4.9-16.561,9.938-23.874,4.719-4.8-3.427-6.315-9.772-4.367-15.34,3.5-10.014,13.122-14.422,22.322-17.8,11.96-4.393,24.982-7.888,37.328-4.742s23.258,15.1,21.029,27.644c-1.792,10.088-11.308,18.482-9.957,28.639,1.36,10.222,12.855,15.6,23,17.429s21.505,2.414,28.8,9.7c9.3,9.3,6.981,25.921-1.774,35.739S901.3,426.964,888.5,429.989c-16.962,4.009-35.307,6.115-51.417-.537S808.434,404.891,813.1,388.1c1.971-7.093,6.615-13.088,11.1-18.924s9.032-11.939,10.744-19.1c1.427-5.967.371-12.895-3.586-17.37a5.033,5.033,0,0,1-.674-5.883Z" transform="translate(-237.815 -208.988)" fill="#1a1a1a"/>
  </g>
</svg>
